solid OpenSCAD_Model
  facet normal 0.577342 0.577367 0.577342
    outer loop
      vertex 50.7874 35.8129 10.6637
      vertex 48.1967 38.0992 10.968
      vertex 46.4647 38.0992 12.7
    endloop
  endfacet
  facet normal 0.57735 0.57735 0.57735
    outer loop
      vertex 50.6871 36.3087 10.2681
      vertex 48.1967 38.0992 10.968
      vertex 50.7496 36.0633 10.451
    endloop
  endfacet
  facet normal 0.57735 0.57735 0.57735
    outer loop
      vertex 50.6005 36.5466 10.1168
      vertex 48.1967 38.0992 10.968
      vertex 50.6871 36.3087 10.2681
    endloop
  endfacet
  facet normal 0.577352 0.577347 0.577352
    outer loop
      vertex 48.1967 38.0992 10.968
      vertex 50.4907 36.7747 9.99849
      vertex 48.4498 38.0929 10.7212
    endloop
  endfacet
  facet normal 0.577365 0.57741 0.577275
    outer loop
      vertex 50.3586 36.9908 9.91446
      vertex 48.4498 38.0929 10.7212
      vertex 50.4907 36.7747 9.99849
    endloop
  endfacet
  facet normal 0.577334 0.577229 0.577488
    outer loop
      vertex 50.2057 37.1927 9.86551
      vertex 48.701 38.0614 10.5015
      vertex 50.3586 36.9908 9.91446
    endloop
  endfacet
  facet normal 0.577383 0.577674 0.576994
    outer loop
      vertex 48.701 38.0614 10.5015
      vertex 50.2057 37.1927 9.86551
      vertex 48.9479 38.005 10.3109
    endloop
  endfacet
  facet normal 0.577272 0.577012 0.577766
    outer loop
      vertex 48.9479 38.005 10.3109
      vertex 50.0335 37.3783 9.85211
      vertex 49.188 37.9244 10.1515
    endloop
  endfacet
  facet normal 0.577247 0.576409 0.578393
    outer loop
      vertex 49.188 37.9244 10.1515
      vertex 49.8437 37.5458 9.8744
      vertex 49.4188 37.8203 10.0249
    endloop
  endfacet
  facet normal 0.577285 0.576584 0.57818
    outer loop
      vertex 49.4188 37.8203 10.0249
      vertex 49.8437 37.5458 9.8744
      vertex 49.6381 37.6937 9.93219
    endloop
  endfacet
  facet normal 0.577355 0.577398 0.577298
    outer loop
      vertex 49.8437 37.5458 9.8744
      vertex 49.188 37.9244 10.1515
      vertex 50.0335 37.3783 9.85211
    endloop
  endfacet
  facet normal 0.577305 0.577314 0.577431
    outer loop
      vertex 50.0335 37.3783 9.85211
      vertex 48.9479 38.005 10.3109
      vertex 50.2057 37.1927 9.86551
    endloop
  endfacet
  facet normal 0.577357 0.577334 0.57736
    outer loop
      vertex 48.4498 38.0929 10.7212
      vertex 50.3586 36.9908 9.91446
      vertex 48.701 38.0614 10.5015
    endloop
  endfacet
  facet normal 0.577354 0.577367 0.57733
    outer loop
      vertex 50.4907 36.7747 9.99849
      vertex 48.1967 38.0992 10.968
      vertex 50.6005 36.5466 10.1168
    endloop
  endfacet
  facet normal 0.577402 0.577455 0.577193
    outer loop
      vertex 48.1967 38.0992 10.968
      vertex 50.7874 35.8129 10.6637
      vertex 50.7496 36.0633 10.451
    endloop
  endfacet
  facet normal 0.577337 0.577239 0.577475
    outer loop
      vertex 46.4647 38.0992 12.7
      vertex 50.8 35.56 10.9039
      vertex 50.7874 35.8129 10.6637
    endloop
  endfacet
  facet normal 0.57735 0.57735 0.57735
    outer loop
      vertex 50.8 35.56 10.9039
      vertex 46.4647 38.0992 12.7
      vertex 50.8 33.7639 12.7
    endloop
  endfacet
  facet normal -0.57735 0.57735 0.57735
    outer loop
      vertex -50.7969 35.6866 10.7804
      vertex -48.3233 38.0992 10.8414
      vertex -48.5758 38.0803 10.6078
    endloop
  endfacet
  facet normal -0.57735 0.57735 0.57735
    outer loop
      vertex -50.7969 35.6866 10.7804
      vertex -48.5758 38.0803 10.6078
      vertex -48.8252 38.0363 10.4024
    endloop
  endfacet
  facet normal -0.57735 0.57735 0.57735
    outer loop
      vertex -50.7969 35.6866 10.7804
      vertex -48.8252 38.0363 10.4024
      vertex -49.069 37.9677 10.2272
    endloop
  endfacet
  facet normal -0.57735 0.57735 0.57735
    outer loop
      vertex -50.7969 35.6866 10.7804
      vertex -49.069 37.9677 10.2272
      vertex -49.3047 37.8752 10.084
    endloop
  endfacet
  facet normal -0.57735 0.57735 0.57735
    outer loop
      vertex -50.7969 35.6866 10.7804
      vertex -49.3047 37.8752 10.084
      vertex -49.53 37.7597 9.9742
    endloop
  endfacet
  facet normal -0.577433 0.577364 0.577254
    outer loop
      vertex -50.7969 35.6866 10.7804
      vertex -49.53 37.7597 9.9742
      vertex -49.7427 37.6223 9.89886
    endloop
  endfacet
  facet normal -0.577329 0.577357 0.577364
    outer loop
      vertex -50.7969 35.6866 10.7804
      vertex -49.7427 37.6223 9.89886
      vertex -49.9407 37.4644 9.85877
    endloop
  endfacet
  facet normal -0.577204 0.57736 0.577486
    outer loop
      vertex -50.7969 35.6866 10.7804
      vertex -49.9407 37.4644 9.85877
      vertex -50.122 37.2876 9.85432
    endloop
  endfacet
  facet normal -0.577644 0.577316 0.57709
    outer loop
      vertex -50.7969 35.6866 10.7804
      vertex -50.122 37.2876 9.85432
      vertex -50.2847 37.0936 9.88554
    endloop
  endfacet
  facet normal -0.577053 0.577415 0.577583
    outer loop
      vertex -50.7969 35.6866 10.7804
      vertex -50.2847 37.0936 9.88554
      vertex -50.4274 36.8844 9.95211
    endloop
  endfacet
  facet normal -0.576782 0.577476 0.577792
    outer loop
      vertex -50.7969 35.6866 10.7804
      vertex -50.4274 36.8844 9.95211
      vertex -50.5485 36.6621 10.0534
    endloop
  endfacet
  facet normal -0.578027 0.577126 0.576898
    outer loop
      vertex -50.7969 35.6866 10.7804
      vertex -50.5485 36.6621 10.0534
      vertex -50.6468 36.4287 10.1884
    endloop
  endfacet
  facet normal -0.57735 0.57735 0.57735
    outer loop
      vertex -50.7969 35.6866 10.7804
      vertex -50.6468 36.4287 10.1884
      vertex -50.7215 36.1867 10.3557
    endloop
  endfacet
  facet normal -0.57735 0.57735 0.57735
    outer loop
      vertex -50.7969 35.6866 10.7804
      vertex -50.7215 36.1867 10.3557
      vertex -50.7716 35.9386 10.5537
    endloop
  endfacet
  facet normal -0.57736 0.577361 0.57733
    outer loop
      vertex -50.7969 33.7671 12.7
      vertex -48.3233 38.0992 10.8414
      vertex -50.7969 35.6866 10.7804
    endloop
  endfacet
  facet normal -0.577346 0.577359 0.577346
    outer loop
      vertex -48.3233 38.0992 10.8414
      vertex -50.7969 33.7671 12.7
      vertex -46.4647 38.0992 12.7
    endloop
  endfacet
  facet normal -0.57735 -0.57735 0.57735
    outer loop
      vertex -46.4647 -38.0992 12.7
      vertex -50.7969 -35.6866 10.7804
      vertex -50.7716 -35.9386 10.5537
    endloop
  endfacet
  facet normal -0.577261 -0.57725 0.577539
    outer loop
      vertex -48.3233 -38.0992 10.8413
      vertex -50.7716 -35.9386 10.5537
      vertex -50.7215 -36.1868 10.3557
    endloop
  endfacet
  facet normal -0.57744 -0.577612 0.576999
    outer loop
      vertex -48.3233 -38.0992 10.8413
      vertex -50.7215 -36.1868 10.3557
      vertex -50.6468 -36.4287 10.1883
    endloop
  endfacet
  facet normal -0.577247 -0.577047 0.577757
    outer loop
      vertex -48.3233 -38.0992 10.8413
      vertex -50.6468 -36.4287 10.1883
      vertex -50.5485 -36.6621 10.0534
    endloop
  endfacet
  facet normal -0.577358 -0.577565 0.577128
    outer loop
      vertex -48.3233 -38.0992 10.8413
      vertex -50.5485 -36.6621 10.0534
      vertex -50.4274 -36.8844 9.95208
    endloop
  endfacet
  facet normal -0.577336 -0.577263 0.577452
    outer loop
      vertex -48.5758 -38.0803 10.6078
      vertex -50.4274 -36.8844 9.95208
      vertex -50.2847 -37.0937 9.88552
    endloop
  endfacet
  facet normal -0.577329 -0.577415 0.577307
    outer loop
      vertex -48.8252 -38.0363 10.4023
      vertex -50.2847 -37.0937 9.88552
      vertex -50.122 -37.2876 9.85429
    endloop
  endfacet
  facet normal -0.577299 -0.577094 0.577657
    outer loop
      vertex -49.069 -37.9677 10.2272
      vertex -50.122 -37.2876 9.85429
      vertex -49.9407 -37.4645 9.85875
    endloop
  endfacet
  facet normal -0.577496 -0.578186 0.576368
    outer loop
      vertex -49.3047 -37.8752 10.084
      vertex -49.9407 -37.4645 9.85875
      vertex -49.7427 -37.6223 9.89884
    endloop
  endfacet
  facet normal -0.577401 -0.577308 0.577342
    outer loop
      vertex -49.3047 -37.8752 10.084
      vertex -49.7427 -37.6223 9.89884
      vertex -49.53 -37.7597 9.97417
    endloop
  endfacet
  facet normal -0.577337 -0.577446 0.577267
    outer loop
      vertex -49.9407 -37.4645 9.85875
      vertex -49.3047 -37.8752 10.084
      vertex -49.069 -37.9677 10.2272
    endloop
  endfacet
  facet normal -0.577289 -0.577048 0.577713
    outer loop
      vertex -50.122 -37.2876 9.85429
      vertex -49.069 -37.9677 10.2272
      vertex -48.8252 -38.0363 10.4023
    endloop
  endfacet
  facet normal -0.577376 -0.577634 0.57704
    outer loop
      vertex -50.2847 -37.0937 9.88552
      vertex -48.8252 -38.0363 10.4023
      vertex -48.5758 -38.0803 10.6078
    endloop
  endfacet
  facet normal -0.577314 -0.577162 0.577574
    outer loop
      vertex -50.4274 -36.8844 9.95208
      vertex -48.5758 -38.0803 10.6078
      vertex -48.3233 -38.0992 10.8413
    endloop
  endfacet
  facet normal -0.57735 -0.577381 0.577319
    outer loop
      vertex -50.7716 -35.9386 10.5537
      vertex -48.3233 -38.0992 10.8413
      vertex -46.4647 -38.0992 12.7
    endloop
  endfacet
  facet normal -0.577351 -0.577365 0.577335
    outer loop
      vertex -50.7969 -35.6866 10.7804
      vertex -46.4647 -38.0992 12.7
      vertex -50.7969 -33.7671 12.7
    endloop
  endfacet
  facet normal 0.57735 -0.57735 0.57735
    outer loop
      vertex 46.4647 -38.0992 12.7
      vertex 50.8 -35.56 10.9039
      vertex 50.8 -33.7639 12.7
    endloop
  endfacet
  facet normal 0.57735 -0.57735 0.57735
    outer loop
      vertex 50.8 -35.56 10.9039
      vertex 46.4647 -38.0992 12.7
      vertex 50.7874 -35.8129 10.6636
    endloop
  endfacet
  facet normal 0.57735 -0.57735 0.57735
    outer loop
      vertex 48.1967 -38.0992 10.968
      vertex 50.7874 -35.8129 10.6636
      vertex 46.4647 -38.0992 12.7
    endloop
  endfacet
  facet normal 0.57735 -0.57735 0.57735
    outer loop
      vertex 50.7874 -35.8129 10.6636
      vertex 48.1967 -38.0992 10.968
      vertex 50.7496 -36.0633 10.451
    endloop
  endfacet
  facet normal 0.57735 -0.57735 0.57735
    outer loop
      vertex 50.7496 -36.0633 10.451
      vertex 48.1967 -38.0992 10.968
      vertex 50.6871 -36.3087 10.2681
    endloop
  endfacet
  facet normal 0.577398 -0.577491 0.577162
    outer loop
      vertex 50.6871 -36.3087 10.2681
      vertex 48.1967 -38.0992 10.968
      vertex 50.6005 -36.5466 10.1167
    endloop
  endfacet
  facet normal 0.577307 -0.577068 0.577676
    outer loop
      vertex 50.6005 -36.5466 10.1167
      vertex 48.1967 -38.0992 10.968
      vertex 50.4907 -36.7748 9.99847
    endloop
  endfacet
  facet normal 0.577391 -0.577607 0.577053
    outer loop
      vertex 50.4907 -36.7748 9.99847
      vertex 48.4498 -38.0929 10.7212
      vertex 50.3586 -36.9908 9.91444
    endloop
  endfacet
  facet normal 0.577386 -0.577566 0.577098
    outer loop
      vertex 48.701 -38.0614 10.5014
      vertex 50.3586 -36.9908 9.91444
      vertex 48.4498 -38.0929 10.7212
    endloop
  endfacet
  facet normal 0.577317 -0.577244 0.577489
    outer loop
      vertex 50.3586 -36.9908 9.91444
      vertex 48.701 -38.0614 10.5014
      vertex 50.2057 -37.1927 9.86548
    endloop
  endfacet
  facet normal 0.5773 -0.577085 0.577666
    outer loop
      vertex 48.9479 -38.0051 10.3109
      vertex 50.2057 -37.1927 9.86548
      vertex 48.701 -38.0614 10.5014
    endloop
  endfacet
  facet normal 0.577351 -0.577322 0.577378
    outer loop
      vertex 50.2057 -37.1927 9.86548
      vertex 48.9479 -38.0051 10.3109
      vertex 50.0335 -37.3783 9.85209
    endloop
  endfacet
  facet normal 0.577353 -0.577338 0.57736
    outer loop
      vertex 49.188 -37.9244 10.1515
      vertex 50.0335 -37.3783 9.85209
      vertex 48.9479 -38.0051 10.3109
    endloop
  endfacet
  facet normal 0.577258 -0.576897 0.577896
    outer loop
      vertex 50.0335 -37.3783 9.85209
      vertex 49.188 -37.9244 10.1515
      vertex 49.8437 -37.5459 9.87437
    endloop
  endfacet
  facet normal 0.577287 -0.577164 0.5776
    outer loop
      vertex 49.8437 -37.5459 9.87437
      vertex 49.188 -37.9244 10.1515
      vertex 49.6381 -37.6937 9.93217
    endloop
  endfacet
  facet normal 0.57734 -0.577371 0.577339
    outer loop
      vertex 48.4498 -38.0929 10.7212
      vertex 50.4907 -36.7748 9.99847
      vertex 48.1967 -38.0992 10.968
    endloop
  endfacet
  facet normal 0.577302 -0.578103 0.576645
    outer loop
      vertex 49.6381 -37.6937 9.93217
      vertex 49.188 -37.9244 10.1515
      vertex 49.4188 -37.8203 10.0248
    endloop
  endfacet
  facet normal 0.733075 0.680148 -0
    outer loop
      vertex 50.2057 37.1927 -12.7
      vertex 50.0335 37.3783 9.85211
      vertex 50.2057 37.1927 9.86551
    endloop
  endfacet
  facet normal 0.733075 0.680148 0
    outer loop
      vertex 50.0335 37.3783 9.85211
      vertex 50.2057 37.1927 -12.7
      vertex 50.0335 37.3783 -12.7
    endloop
  endfacet
  facet normal 0.411153 -0.911566 0
    outer loop
      vertex 49.188 -37.9244 -12.7
      vertex 49.4188 -37.8203 10.0248
      vertex 49.188 -37.9244 10.1515
    endloop
  endfacet
  facet normal 0.411153 -0.911566 0
    outer loop
      vertex 49.4188 -37.8203 10.0248
      vertex 49.188 -37.9244 -12.7
      vertex 49.4188 -37.8203 -12.7
    endloop
  endfacet
  facet normal 0.411153 0.911566 0
    outer loop
      vertex 49.188 37.9244 -12.7
      vertex 49.4188 37.8203 10.0249
      vertex 49.4188 37.8203 -12.7
    endloop
  endfacet
  facet normal 0.411153 0.911566 0
    outer loop
      vertex 49.4188 37.8203 10.0249
      vertex 49.188 37.9244 -12.7
      vertex 49.188 37.9244 10.1515
    endloop
  endfacet
  facet normal -0.0746427 -0.99721 0
    outer loop
      vertex -48.3233 -38.0992 -12.7
      vertex -48.5758 -38.0803 10.6078
      vertex -48.5758 -38.0803 -12.7
    endloop
  endfacet
  facet normal -0.0746427 -0.99721 0
    outer loop
      vertex -48.5758 -38.0803 10.6078
      vertex -48.3233 -38.0992 -12.7
      vertex -48.3233 -38.0992 10.8413
    endloop
  endfacet
  facet normal 0 -1 0
    outer loop
      vertex 48.1967 -38.0992 -12.7
      vertex 46.4647 -38.0992 12.7
      vertex -46.4647 -38.0992 12.7
    endloop
  endfacet
  facet normal 0 -1 0
    outer loop
      vertex -48.3233 -38.0992 -12.7
      vertex -46.4647 -38.0992 12.7
      vertex -48.3233 -38.0992 10.8413
    endloop
  endfacet
  facet normal 0 -1 0
    outer loop
      vertex 48.1967 -38.0992 -12.7
      vertex -46.4647 -38.0992 12.7
      vertex -48.3233 -38.0992 -12.7
    endloop
  endfacet
  facet normal 0 -1 0
    outer loop
      vertex 46.4647 -38.0992 12.7
      vertex 48.1967 -38.0992 -12.7
      vertex 48.1967 -38.0992 10.968
    endloop
  endfacet
  facet normal 1 0 0
    outer loop
      vertex 50.8 33.7639 12.7
      vertex 50.8 35.56 -12.7
      vertex 50.8 35.56 10.9039
    endloop
  endfacet
  facet normal 1 -0 0
    outer loop
      vertex 50.8 -33.7639 12.7
      vertex 50.8 35.56 -12.7
      vertex 50.8 33.7639 12.7
    endloop
  endfacet
  facet normal 1 0 0
    outer loop
      vertex 50.8 -35.56 -12.7
      vertex 50.8 -33.7639 12.7
      vertex 50.8 -35.56 10.9039
    endloop
  endfacet
  facet normal 1 0 0
    outer loop
      vertex 50.8 -33.7639 12.7
      vertex 50.8 -35.56 -12.7
      vertex 50.8 35.56 -12.7
    endloop
  endfacet
  facet normal 0.499962 0.866047 0
    outer loop
      vertex 49.4188 37.8203 -12.7
      vertex 49.6381 37.6937 9.93219
      vertex 49.6381 37.6937 -12.7
    endloop
  endfacet
  facet normal 0.499962 0.866047 0
    outer loop
      vertex 49.6381 37.6937 9.93219
      vertex 49.4188 37.8203 -12.7
      vertex 49.4188 37.8203 10.0249
    endloop
  endfacet
  facet normal 0 1 -0
    outer loop
      vertex 48.1967 38.0992 -12.7
      vertex 46.4647 38.0992 12.7
      vertex 48.1967 38.0992 10.968
    endloop
  endfacet
  facet normal 0 1 0
    outer loop
      vertex 46.4647 38.0992 12.7
      vertex 48.1967 38.0992 -12.7
      vertex -46.4647 38.0992 12.7
    endloop
  endfacet
  facet normal 0 1 0
    outer loop
      vertex -48.3233 38.0992 -12.7
      vertex -46.4647 38.0992 12.7
      vertex 48.1967 38.0992 -12.7
    endloop
  endfacet
  facet normal 0 1 0
    outer loop
      vertex -46.4647 38.0992 12.7
      vertex -48.3233 38.0992 -12.7
      vertex -48.3233 38.0992 10.8414
    endloop
  endfacet
  facet normal -1 0 0
    outer loop
      vertex -50.7969 35.6866 -12.7
      vertex -50.7969 33.7671 12.7
      vertex -50.7969 35.6866 10.7804
    endloop
  endfacet
  facet normal -1 0 0
    outer loop
      vertex -50.7969 35.6866 -12.7
      vertex -50.7969 -33.7671 12.7
      vertex -50.7969 33.7671 12.7
    endloop
  endfacet
  facet normal -1 0 0
    outer loop
      vertex -50.7969 -35.6866 -12.7
      vertex -50.7969 -33.7671 12.7
      vertex -50.7969 35.6866 -12.7
    endloop
  endfacet
  facet normal -1 0 0
    outer loop
      vertex -50.7969 -33.7671 12.7
      vertex -50.7969 -35.6866 -12.7
      vertex -50.7969 -35.6866 10.7804
    endloop
  endfacet
  facet normal 0 0 1
    outer loop
      vertex 46.4647 38.0992 12.7
      vertex 50.8 -33.7639 12.7
      vertex 50.8 33.7639 12.7
    endloop
  endfacet
  facet normal 0 0 1
    outer loop
      vertex 46.4647 38.0992 12.7
      vertex 46.4647 -38.0992 12.7
      vertex 50.8 -33.7639 12.7
    endloop
  endfacet
  facet normal 0 0 1
    outer loop
      vertex 46.4647 38.0992 12.7
      vertex -46.4647 -38.0992 12.7
      vertex 46.4647 -38.0992 12.7
    endloop
  endfacet
  facet normal -0 0 1
    outer loop
      vertex -46.4647 38.0992 12.7
      vertex -46.4647 -38.0992 12.7
      vertex 46.4647 38.0992 12.7
    endloop
  endfacet
  facet normal -0 0 1
    outer loop
      vertex -50.7969 33.7671 12.7
      vertex -46.4647 -38.0992 12.7
      vertex -46.4647 38.0992 12.7
    endloop
  endfacet
  facet normal 0 0 1
    outer loop
      vertex -46.4647 -38.0992 12.7
      vertex -50.7969 33.7671 12.7
      vertex -50.7969 -33.7671 12.7
    endloop
  endfacet
  facet normal -0.994998 0.0998946 0
    outer loop
      vertex -50.7969 35.6866 -12.7
      vertex -50.7716 35.9386 10.5537
      vertex -50.7716 35.9386 -12.7
    endloop
  endfacet
  facet normal -0.994998 0.0998946 0
    outer loop
      vertex -50.7716 35.9386 10.5537
      vertex -50.7969 35.6866 -12.7
      vertex -50.7969 35.6866 10.7804
    endloop
  endfacet
  facet normal -0.62349 0.781831 0
    outer loop
      vertex -49.7427 37.6223 -12.7
      vertex -49.9407 37.4644 9.85877
      vertex -49.7427 37.6223 9.89886
    endloop
  endfacet
  facet normal -0.62349 0.781831 0
    outer loop
      vertex -49.9407 37.4644 9.85877
      vertex -49.7427 37.6223 -12.7
      vertex -49.9407 37.4644 -12.7
    endloop
  endfacet
  facet normal -0.456196 -0.889879 0
    outer loop
      vertex -49.3047 -37.8752 -12.7
      vertex -49.53 -37.7597 9.97417
      vertex -49.53 -37.7597 -12.7
    endloop
  endfacet
  facet normal -0.456196 -0.889879 0
    outer loop
      vertex -49.53 -37.7597 9.97417
      vertex -49.3047 -37.8752 -12.7
      vertex -49.3047 -37.8752 10.084
    endloop
  endfacet
  facet normal 0.499962 -0.866047 0
    outer loop
      vertex 49.4188 -37.8203 -12.7
      vertex 49.6381 -37.6937 9.93217
      vertex 49.4188 -37.8203 10.0248
    endloop
  endfacet
  facet normal 0.499962 -0.866047 0
    outer loop
      vertex 49.6381 -37.6937 9.93217
      vertex 49.4188 -37.8203 -12.7
      vertex 49.6381 -37.6937 -12.7
    endloop
  endfacet
  facet normal 0.853106 -0.521738 0
    outer loop
      vertex 50.3586 -36.9908 9.91444
      vertex 50.4907 -36.7748 -12.7
      vertex 50.4907 -36.7748 9.99847
    endloop
  endfacet
  facet normal 0.853106 -0.521738 0
    outer loop
      vertex 50.4907 -36.7748 -12.7
      vertex 50.3586 -36.9908 9.91444
      vertex 50.3586 -36.9908 -12.7
    endloop
  endfacet
  facet normal 0.998761 -0.0497603 0
    outer loop
      vertex 50.7874 -35.8129 10.6636
      vertex 50.8 -35.56 -12.7
      vertex 50.8 -35.56 10.9039
    endloop
  endfacet
  facet normal 0.998761 -0.0497603 0
    outer loop
      vertex 50.8 -35.56 -12.7
      vertex 50.7874 -35.8129 10.6636
      vertex 50.7874 -35.8129 -12.7
    endloop
  endfacet
  facet normal 0.124424 0.992229 0
    outer loop
      vertex 48.4498 38.0929 -12.7
      vertex 48.701 38.0614 10.5015
      vertex 48.701 38.0614 -12.7
    endloop
  endfacet
  facet normal 0.124424 0.992229 0
    outer loop
      vertex 48.701 38.0614 10.5015
      vertex 48.4498 38.0929 -12.7
      vertex 48.4498 38.0929 10.7212
    endloop
  endfacet
  facet normal 0.318241 0.94801 0
    outer loop
      vertex 48.9479 38.005 -12.7
      vertex 49.188 37.9244 10.1515
      vertex 49.188 37.9244 -12.7
    endloop
  endfacet
  facet normal 0.318241 0.94801 0
    outer loop
      vertex 49.188 37.9244 10.1515
      vertex 48.9479 38.005 -12.7
      vertex 48.9479 38.005 10.3109
    endloop
  endfacet
  facet normal 0.0248836 0.99969 0
    outer loop
      vertex 48.1967 38.0992 -12.7
      vertex 48.4498 38.0929 10.7212
      vertex 48.4498 38.0929 -12.7
    endloop
  endfacet
  facet normal 0.0248836 0.99969 0
    outer loop
      vertex 48.4498 38.0929 10.7212
      vertex 48.1967 38.0992 -12.7
      vertex 48.1967 38.0992 10.968
    endloop
  endfacet
  facet normal -0.27086 0.962619 0
    outer loop
      vertex -48.8252 38.0363 -12.7
      vertex -49.069 37.9677 10.2272
      vertex -48.8252 38.0363 10.4024
    endloop
  endfacet
  facet normal -0.27086 0.962619 0
    outer loop
      vertex -49.069 37.9677 10.2272
      vertex -48.8252 38.0363 -12.7
      vertex -49.069 37.9677 -12.7
    endloop
  endfacet
  facet normal -0.921598 0.388145 0
    outer loop
      vertex -50.6468 36.4287 -12.7
      vertex -50.5485 36.6621 10.0534
      vertex -50.5485 36.6621 -12.7
    endloop
  endfacet
  facet normal -0.921598 0.388145 0
    outer loop
      vertex -50.5485 36.6621 10.0534
      vertex -50.6468 36.4287 -12.7
      vertex -50.6468 36.4287 10.1884
    endloop
  endfacet
  facet normal -0.82611 0.563508 0
    outer loop
      vertex -50.4274 36.8844 -12.7
      vertex -50.2847 37.0936 9.88554
      vertex -50.2847 37.0936 -12.7
    endloop
  endfacet
  facet normal -0.82611 0.563508 0
    outer loop
      vertex -50.2847 37.0936 9.88554
      vertex -50.4274 36.8844 -12.7
      vertex -50.4274 36.8844 9.95211
    endloop
  endfacet
  facet normal -0.542613 -0.839983 0
    outer loop
      vertex -49.53 -37.7597 -12.7
      vertex -49.7427 -37.6223 9.89884
      vertex -49.7427 -37.6223 -12.7
    endloop
  endfacet
  facet normal -0.542613 -0.839983 0
    outer loop
      vertex -49.7427 -37.6223 9.89884
      vertex -49.53 -37.7597 -12.7
      vertex -49.53 -37.7597 9.97417
    endloop
  endfacet
  facet normal -0.27086 -0.962619 0
    outer loop
      vertex -48.8252 -38.0363 -12.7
      vertex -49.069 -37.9677 10.2272
      vertex -49.069 -37.9677 -12.7
    endloop
  endfacet
  facet normal -0.27086 -0.962619 0
    outer loop
      vertex -49.069 -37.9677 10.2272
      vertex -48.8252 -38.0363 -12.7
      vertex -48.8252 -38.0363 10.4023
    endloop
  endfacet
  facet normal 0.0248836 -0.99969 0
    outer loop
      vertex 48.1967 -38.0992 -12.7
      vertex 48.4498 -38.0929 10.7212
      vertex 48.1967 -38.0992 10.968
    endloop
  endfacet
  facet normal 0.0248836 -0.99969 0
    outer loop
      vertex 48.4498 -38.0929 10.7212
      vertex 48.1967 -38.0992 -12.7
      vertex 48.4498 -38.0929 -12.7
    endloop
  endfacet
  facet normal 0.222321 -0.974974 0
    outer loop
      vertex 48.701 -38.0614 -12.7
      vertex 48.9479 -38.0051 10.3109
      vertex 48.701 -38.0614 10.5014
    endloop
  endfacet
  facet normal 0.222321 -0.974974 0
    outer loop
      vertex 48.9479 -38.0051 10.3109
      vertex 48.701 -38.0614 -12.7
      vertex 48.9479 -38.0051 -12.7
    endloop
  endfacet
  facet normal 0.988797 -0.149267 0
    outer loop
      vertex 50.7496 -36.0633 10.451
      vertex 50.7874 -35.8129 -12.7
      vertex 50.7874 -35.8129 10.6636
    endloop
  endfacet
  facet normal 0.988797 -0.149267 0
    outer loop
      vertex 50.7874 -35.8129 -12.7
      vertex 50.7496 -36.0633 10.451
      vertex 50.7496 -36.0633 -12.7
    endloop
  endfacet
  facet normal 0.901116 -0.433578 0
    outer loop
      vertex 50.4907 -36.7748 9.99847
      vertex 50.6005 -36.5466 -12.7
      vertex 50.6005 -36.5466 10.1167
    endloop
  endfacet
  facet normal 0.901116 -0.433578 0
    outer loop
      vertex 50.6005 -36.5466 -12.7
      vertex 50.4907 -36.7748 9.99847
      vertex 50.4907 -36.7748 -12.7
    endloop
  endfacet
  facet normal 0.797196 0.603721 -0
    outer loop
      vertex 50.3586 36.9908 -12.7
      vertex 50.2057 37.1927 9.86551
      vertex 50.3586 36.9908 9.91446
    endloop
  endfacet
  facet normal 0.797196 0.603721 0
    outer loop
      vertex 50.2057 37.1927 9.86551
      vertex 50.3586 36.9908 -12.7
      vertex 50.2057 37.1927 -12.7
    endloop
  endfacet
  facet normal 0.853214 0.521562 -0
    outer loop
      vertex 50.4907 36.7747 -12.7
      vertex 50.3586 36.9908 9.91446
      vertex 50.4907 36.7747 9.99849
    endloop
  endfacet
  facet normal 0.853214 0.521562 0
    outer loop
      vertex 50.3586 36.9908 9.91446
      vertex 50.4907 36.7747 -12.7
      vertex 50.3586 36.9908 -12.7
    endloop
  endfacet
  facet normal 0.901042 0.433732 -0
    outer loop
      vertex 50.6005 36.5466 -12.7
      vertex 50.4907 36.7747 9.99849
      vertex 50.6005 36.5466 10.1168
    endloop
  endfacet
  facet normal 0.901042 0.433732 0
    outer loop
      vertex 50.4907 36.7747 9.99849
      vertex 50.6005 36.5466 -12.7
      vertex 50.4907 36.7747 -12.7
    endloop
  endfacet
  facet normal 0.939678 0.34206 -0
    outer loop
      vertex 50.6871 36.3087 -12.7
      vertex 50.6005 36.5466 10.1168
      vertex 50.6871 36.3087 10.2681
    endloop
  endfacet
  facet normal 0.939678 0.34206 0
    outer loop
      vertex 50.6005 36.5466 10.1168
      vertex 50.6871 36.3087 -12.7
      vertex 50.6005 36.5466 -12.7
    endloop
  endfacet
  facet normal 0.998761 0.0497603 -0
    outer loop
      vertex 50.8 35.56 -12.7
      vertex 50.7874 35.8129 10.6637
      vertex 50.8 35.56 10.9039
    endloop
  endfacet
  facet normal 0.998761 0.0497603 0
    outer loop
      vertex 50.7874 35.8129 10.6637
      vertex 50.8 35.56 -12.7
      vertex 50.7874 35.8129 -12.7
    endloop
  endfacet
  facet normal 0.661687 0.74978 0
    outer loop
      vertex 49.8437 37.5458 -12.7
      vertex 50.0335 37.3783 9.85211
      vertex 50.0335 37.3783 -12.7
    endloop
  endfacet
  facet normal 0.661687 0.74978 0
    outer loop
      vertex 50.0335 37.3783 9.85211
      vertex 49.8437 37.5458 -12.7
      vertex 49.8437 37.5458 9.8744
    endloop
  endfacet
  facet normal 0.222696 0.974888 0
    outer loop
      vertex 48.701 38.0614 -12.7
      vertex 48.9479 38.005 10.3109
      vertex 48.9479 38.005 -12.7
    endloop
  endfacet
  facet normal 0.222696 0.974888 0
    outer loop
      vertex 48.9479 38.005 10.3109
      vertex 48.701 38.0614 -12.7
      vertex 48.701 38.0614 10.5015
    endloop
  endfacet
  facet normal -0.542613 0.839983 0
    outer loop
      vertex -49.53 37.7597 -12.7
      vertex -49.7427 37.6223 9.89886
      vertex -49.53 37.7597 9.9742
    endloop
  endfacet
  facet normal -0.542613 0.839983 0
    outer loop
      vertex -49.7427 37.6223 9.89886
      vertex -49.53 37.7597 -12.7
      vertex -49.7427 37.6223 -12.7
    endloop
  endfacet
  facet normal -0.955514 0.294946 0
    outer loop
      vertex -50.7215 36.1867 -12.7
      vertex -50.6468 36.4287 10.1884
      vertex -50.6468 36.4287 -12.7
    endloop
  endfacet
  facet normal -0.955514 0.294946 0
    outer loop
      vertex -50.6468 36.4287 10.1884
      vertex -50.7215 36.1867 -12.7
      vertex -50.7215 36.1867 10.3557
    endloop
  endfacet
  facet normal -0.980214 0.197939 0
    outer loop
      vertex -50.7716 35.9386 -12.7
      vertex -50.7215 36.1867 10.3557
      vertex -50.7215 36.1867 -12.7
    endloop
  endfacet
  facet normal -0.980214 0.197939 0
    outer loop
      vertex -50.7215 36.1867 10.3557
      vertex -50.7716 35.9386 -12.7
      vertex -50.7716 35.9386 10.5537
    endloop
  endfacet
  facet normal -0.698166 0.715936 0
    outer loop
      vertex -49.9407 37.4644 -12.7
      vertex -50.122 37.2876 9.85432
      vertex -49.9407 37.4644 9.85877
    endloop
  endfacet
  facet normal -0.698166 0.715936 0
    outer loop
      vertex -50.122 37.2876 9.85432
      vertex -49.9407 37.4644 -12.7
      vertex -50.122 37.2876 -12.7
    endloop
  endfacet
  facet normal -0.698368 -0.715739 0
    outer loop
      vertex -49.9407 -37.4645 -12.7
      vertex -50.122 -37.2876 9.85429
      vertex -50.122 -37.2876 -12.7
    endloop
  endfacet
  facet normal -0.698368 -0.715739 0
    outer loop
      vertex -50.122 -37.2876 9.85429
      vertex -49.9407 -37.4645 -12.7
      vertex -49.9407 -37.4645 9.85875
    endloop
  endfacet
  facet normal -0.17374 -0.984792 0
    outer loop
      vertex -48.5758 -38.0803 -12.7
      vertex -48.8252 -38.0363 10.4023
      vertex -48.8252 -38.0363 -12.7
    endloop
  endfacet
  facet normal -0.17374 -0.984792 0
    outer loop
      vertex -48.8252 -38.0363 10.4023
      vertex -48.5758 -38.0803 -12.7
      vertex -48.5758 -38.0803 10.6078
    endloop
  endfacet
  facet normal 0.583701 -0.811969 0
    outer loop
      vertex 49.6381 -37.6937 -12.7
      vertex 49.8437 -37.5459 9.87437
      vertex 49.6381 -37.6937 9.93217
    endloop
  endfacet
  facet normal 0.583701 -0.811969 0
    outer loop
      vertex 49.8437 -37.5459 9.87437
      vertex 49.6381 -37.6937 -12.7
      vertex 49.8437 -37.5459 -12.7
    endloop
  endfacet
  facet normal 0.124424 -0.992229 0
    outer loop
      vertex 48.4498 -38.0929 -12.7
      vertex 48.701 -38.0614 10.5014
      vertex 48.4498 -38.0929 10.7212
    endloop
  endfacet
  facet normal 0.124424 -0.992229 0
    outer loop
      vertex 48.701 -38.0614 10.5014
      vertex 48.4498 -38.0929 -12.7
      vertex 48.701 -38.0614 -12.7
    endloop
  endfacet
  facet normal 0.318596 -0.947891 0
    outer loop
      vertex 48.9479 -38.0051 -12.7
      vertex 49.188 -37.9244 10.1515
      vertex 48.9479 -38.0051 10.3109
    endloop
  endfacet
  facet normal 0.318596 -0.947891 0
    outer loop
      vertex 49.188 -37.9244 10.1515
      vertex 48.9479 -38.0051 -12.7
      vertex 49.188 -37.9244 -12.7
    endloop
  endfacet
  facet normal 0.661909 -0.749584 0
    outer loop
      vertex 49.8437 -37.5459 -12.7
      vertex 50.0335 -37.3783 9.85209
      vertex 49.8437 -37.5459 9.87437
    endloop
  endfacet
  facet normal 0.661909 -0.749584 0
    outer loop
      vertex 50.0335 -37.3783 9.85209
      vertex 49.8437 -37.5459 -12.7
      vertex 50.0335 -37.3783 -12.7
    endloop
  endfacet
  facet normal 0.969065 -0.246807 0
    outer loop
      vertex 50.6871 -36.3087 10.2681
      vertex 50.7496 -36.0633 -12.7
      vertex 50.7496 -36.0633 10.451
    endloop
  endfacet
  facet normal 0.969065 -0.246807 0
    outer loop
      vertex 50.7496 -36.0633 -12.7
      vertex 50.6871 -36.3087 10.2681
      vertex 50.6871 -36.3087 -12.7
    endloop
  endfacet
  facet normal 0.939678 -0.34206 0
    outer loop
      vertex 50.6005 -36.5466 10.1167
      vertex 50.6871 -36.3087 -12.7
      vertex 50.6871 -36.3087 10.2681
    endloop
  endfacet
  facet normal 0.939678 -0.34206 0
    outer loop
      vertex 50.6871 -36.3087 -12.7
      vertex 50.6005 -36.5466 10.1167
      vertex 50.6005 -36.5466 -12.7
    endloop
  endfacet
  facet normal 0.969065 0.246807 -0
    outer loop
      vertex 50.7496 36.0633 -12.7
      vertex 50.6871 36.3087 10.2681
      vertex 50.7496 36.0633 10.451
    endloop
  endfacet
  facet normal 0.969065 0.246807 0
    outer loop
      vertex 50.6871 36.3087 10.2681
      vertex 50.7496 36.0633 -12.7
      vertex 50.6871 36.3087 -12.7
    endloop
  endfacet
  facet normal 0.583961 0.811781 0
    outer loop
      vertex 49.6381 37.6937 -12.7
      vertex 49.8437 37.5458 9.8744
      vertex 49.8437 37.5458 -12.7
    endloop
  endfacet
  facet normal 0.583961 0.811781 0
    outer loop
      vertex 49.8437 37.5458 9.8744
      vertex 49.6381 37.6937 -12.7
      vertex 49.6381 37.6937 9.93219
    endloop
  endfacet
  facet normal -0.456196 0.889879 0
    outer loop
      vertex -49.3047 37.8752 -12.7
      vertex -49.53 37.7597 9.9742
      vertex -49.3047 37.8752 10.084
    endloop
  endfacet
  facet normal -0.456196 0.889879 0
    outer loop
      vertex -49.53 37.7597 9.9742
      vertex -49.3047 37.8752 -12.7
      vertex -49.53 37.7597 -12.7
    endloop
  endfacet
  facet normal -0.365322 0.930881 0
    outer loop
      vertex -49.069 37.9677 -12.7
      vertex -49.3047 37.8752 10.084
      vertex -49.069 37.9677 10.2272
    endloop
  endfacet
  facet normal -0.365322 0.930881 0
    outer loop
      vertex -49.3047 37.8752 10.084
      vertex -49.069 37.9677 -12.7
      vertex -49.3047 37.8752 -12.7
    endloop
  endfacet
  facet normal -0.17374 0.984792 0
    outer loop
      vertex -48.5758 38.0803 -12.7
      vertex -48.8252 38.0363 10.4024
      vertex -48.5758 38.0803 10.6078
    endloop
  endfacet
  facet normal -0.17374 0.984792 0
    outer loop
      vertex -48.8252 38.0363 10.4024
      vertex -48.5758 38.0803 -12.7
      vertex -48.8252 38.0363 -12.7
    endloop
  endfacet
  facet normal -0.826236 -0.563325 -0
    outer loop
      vertex -50.2847 -37.0937 9.88552
      vertex -50.4274 -36.8844 -12.7
      vertex -50.2847 -37.0937 -12.7
    endloop
  endfacet
  facet normal -0.826236 -0.563325 0
    outer loop
      vertex -50.4274 -36.8844 -12.7
      vertex -50.2847 -37.0937 9.88552
      vertex -50.4274 -36.8844 9.95208
    endloop
  endfacet
  facet normal -0.766047 -0.642784 -0
    outer loop
      vertex -50.122 -37.2876 9.85429
      vertex -50.2847 -37.0937 -12.7
      vertex -50.122 -37.2876 -12.7
    endloop
  endfacet
  facet normal -0.766047 -0.642784 0
    outer loop
      vertex -50.2847 -37.0937 -12.7
      vertex -50.122 -37.2876 9.85429
      vertex -50.2847 -37.0937 9.88552
    endloop
  endfacet
  facet normal -0.878152 0.478382 0
    outer loop
      vertex -50.5485 36.6621 -12.7
      vertex -50.4274 36.8844 9.95211
      vertex -50.4274 36.8844 -12.7
    endloop
  endfacet
  facet normal -0.878152 0.478382 0
    outer loop
      vertex -50.4274 36.8844 9.95211
      vertex -50.5485 36.6621 -12.7
      vertex -50.5485 36.6621 10.0534
    endloop
  endfacet
  facet normal -0.76621 0.64259 0
    outer loop
      vertex -50.2847 37.0936 -12.7
      vertex -50.122 37.2876 9.85432
      vertex -50.122 37.2876 -12.7
    endloop
  endfacet
  facet normal -0.76621 0.64259 0
    outer loop
      vertex -50.122 37.2876 9.85432
      vertex -50.2847 37.0936 -12.7
      vertex -50.2847 37.0936 9.88554
    endloop
  endfacet
  facet normal -0.623249 -0.782023 0
    outer loop
      vertex -49.7427 -37.6223 -12.7
      vertex -49.9407 -37.4645 9.85875
      vertex -49.9407 -37.4645 -12.7
    endloop
  endfacet
  facet normal -0.623249 -0.782023 0
    outer loop
      vertex -49.9407 -37.4645 9.85875
      vertex -49.7427 -37.6223 -12.7
      vertex -49.7427 -37.6223 9.89884
    endloop
  endfacet
  facet normal -0.365322 -0.930881 0
    outer loop
      vertex -49.069 -37.9677 -12.7
      vertex -49.3047 -37.8752 10.084
      vertex -49.3047 -37.8752 -12.7
    endloop
  endfacet
  facet normal -0.365322 -0.930881 0
    outer loop
      vertex -49.3047 -37.8752 10.084
      vertex -49.069 -37.9677 -12.7
      vertex -49.069 -37.9677 10.2272
    endloop
  endfacet
  facet normal 0.797196 -0.603721 0
    outer loop
      vertex 50.2057 -37.1927 9.86548
      vertex 50.3586 -36.9908 -12.7
      vertex 50.3586 -36.9908 9.91444
    endloop
  endfacet
  facet normal 0.797196 -0.603721 0
    outer loop
      vertex 50.3586 -36.9908 -12.7
      vertex 50.2057 -37.1927 9.86548
      vertex 50.2057 -37.1927 -12.7
    endloop
  endfacet
  facet normal 0.988797 0.149267 -0
    outer loop
      vertex 50.7874 35.8129 -12.7
      vertex 50.7496 36.0633 10.451
      vertex 50.7874 35.8129 10.6637
    endloop
  endfacet
  facet normal 0.988797 0.149267 0
    outer loop
      vertex 50.7496 36.0633 10.451
      vertex 50.7874 35.8129 -12.7
      vertex 50.7496 36.0633 -12.7
    endloop
  endfacet
  facet normal -0.0746427 0.99721 0
    outer loop
      vertex -48.3233 38.0992 -12.7
      vertex -48.5758 38.0803 10.6078
      vertex -48.3233 38.0992 10.8414
    endloop
  endfacet
  facet normal -0.0746427 0.99721 0
    outer loop
      vertex -48.5758 38.0803 10.6078
      vertex -48.3233 38.0992 -12.7
      vertex -48.5758 38.0803 -12.7
    endloop
  endfacet
  facet normal -0.994998 -0.0998946 -0
    outer loop
      vertex -50.7716 -35.9386 10.5537
      vertex -50.7969 -35.6866 -12.7
      vertex -50.7716 -35.9386 -12.7
    endloop
  endfacet
  facet normal -0.994998 -0.0998946 0
    outer loop
      vertex -50.7969 -35.6866 -12.7
      vertex -50.7716 -35.9386 10.5537
      vertex -50.7969 -35.6866 10.7804
    endloop
  endfacet
  facet normal -0.95548 -0.295057 -0
    outer loop
      vertex -50.6468 -36.4287 10.1883
      vertex -50.7215 -36.1868 -12.7
      vertex -50.6468 -36.4287 -12.7
    endloop
  endfacet
  facet normal -0.95548 -0.295057 0
    outer loop
      vertex -50.7215 -36.1868 -12.7
      vertex -50.6468 -36.4287 10.1883
      vertex -50.7215 -36.1868 10.3557
    endloop
  endfacet
  facet normal -0.921598 -0.388145 -0
    outer loop
      vertex -50.5485 -36.6621 10.0534
      vertex -50.6468 -36.4287 -12.7
      vertex -50.5485 -36.6621 -12.7
    endloop
  endfacet
  facet normal -0.921598 -0.388145 0
    outer loop
      vertex -50.6468 -36.4287 -12.7
      vertex -50.5485 -36.6621 10.0534
      vertex -50.6468 -36.4287 10.1883
    endloop
  endfacet
  facet normal 0.733075 -0.680148 0
    outer loop
      vertex 50.0335 -37.3783 9.85209
      vertex 50.2057 -37.1927 -12.7
      vertex 50.2057 -37.1927 9.86548
    endloop
  endfacet
  facet normal 0.733075 -0.680148 0
    outer loop
      vertex 50.2057 -37.1927 -12.7
      vertex 50.0335 -37.3783 9.85209
      vertex 50.0335 -37.3783 -12.7
    endloop
  endfacet
  facet normal 0 0 -1
    outer loop
      vertex 48.1967 -38.0992 -12.7
      vertex 50.8 -35.56 -12.7
      vertex 50.7874 -35.8129 -12.7
    endloop
  endfacet
  facet normal -0 0 -1
    outer loop
      vertex 50.8 -35.56 -12.7
      vertex 48.1967 -38.0992 -12.7
      vertex 50.8 35.56 -12.7
    endloop
  endfacet
  facet normal 0 0 -1
    outer loop
      vertex 48.1967 -38.0992 -12.7
      vertex 50.7874 -35.8129 -12.7
      vertex 50.7496 -36.0633 -12.7
    endloop
  endfacet
  facet normal 0 0 -1
    outer loop
      vertex 48.1967 38.0992 -12.7
      vertex 50.8 35.56 -12.7
      vertex 48.1967 -38.0992 -12.7
    endloop
  endfacet
  facet normal 0 0 -1
    outer loop
      vertex 48.1967 -38.0992 -12.7
      vertex 50.7496 -36.0633 -12.7
      vertex 50.6871 -36.3087 -12.7
    endloop
  endfacet
  facet normal 0 0 -1
    outer loop
      vertex 50.8 35.56 -12.7
      vertex 48.1967 38.0992 -12.7
      vertex 50.7874 35.8129 -12.7
    endloop
  endfacet
  facet normal 0 0 -1
    outer loop
      vertex 48.1967 -38.0992 -12.7
      vertex 50.6871 -36.3087 -12.7
      vertex 50.6005 -36.5466 -12.7
    endloop
  endfacet
  facet normal 0 0 -1
    outer loop
      vertex 50.7874 35.8129 -12.7
      vertex 48.1967 38.0992 -12.7
      vertex 50.7496 36.0633 -12.7
    endloop
  endfacet
  facet normal 0 0 -1
    outer loop
      vertex 48.1967 -38.0992 -12.7
      vertex 50.6005 -36.5466 -12.7
      vertex 50.4907 -36.7748 -12.7
    endloop
  endfacet
  facet normal 0 0 -1
    outer loop
      vertex 50.7496 36.0633 -12.7
      vertex 48.1967 38.0992 -12.7
      vertex 50.6871 36.3087 -12.7
    endloop
  endfacet
  facet normal 0 0 -1
    outer loop
      vertex 48.1967 -38.0992 -12.7
      vertex 50.4907 -36.7748 -12.7
      vertex 50.3586 -36.9908 -12.7
    endloop
  endfacet
  facet normal 0 0 -1
    outer loop
      vertex 50.6871 36.3087 -12.7
      vertex 48.1967 38.0992 -12.7
      vertex 50.6005 36.5466 -12.7
    endloop
  endfacet
  facet normal 0 0 -1
    outer loop
      vertex 48.1967 -38.0992 -12.7
      vertex 50.3586 -36.9908 -12.7
      vertex 50.2057 -37.1927 -12.7
    endloop
  endfacet
  facet normal 0 0 -1
    outer loop
      vertex 50.6005 36.5466 -12.7
      vertex 48.1967 38.0992 -12.7
      vertex 50.4907 36.7747 -12.7
    endloop
  endfacet
  facet normal 0 0 -1
    outer loop
      vertex 48.1967 -38.0992 -12.7
      vertex 50.2057 -37.1927 -12.7
      vertex 50.0335 -37.3783 -12.7
    endloop
  endfacet
  facet normal 0 0 -1
    outer loop
      vertex 50.4907 36.7747 -12.7
      vertex 48.1967 38.0992 -12.7
      vertex 50.3586 36.9908 -12.7
    endloop
  endfacet
  facet normal 0 0 -1
    outer loop
      vertex 48.1967 -38.0992 -12.7
      vertex 50.0335 -37.3783 -12.7
      vertex 49.8437 -37.5459 -12.7
    endloop
  endfacet
  facet normal 0 0 -1
    outer loop
      vertex 50.3586 36.9908 -12.7
      vertex 48.1967 38.0992 -12.7
      vertex 50.2057 37.1927 -12.7
    endloop
  endfacet
  facet normal 0 0 -1
    outer loop
      vertex 48.1967 -38.0992 -12.7
      vertex 49.8437 -37.5459 -12.7
      vertex 49.6381 -37.6937 -12.7
    endloop
  endfacet
  facet normal 0 0 -1
    outer loop
      vertex 50.2057 37.1927 -12.7
      vertex 48.1967 38.0992 -12.7
      vertex 50.0335 37.3783 -12.7
    endloop
  endfacet
  facet normal 0 0 -1
    outer loop
      vertex 48.1967 -38.0992 -12.7
      vertex 49.6381 -37.6937 -12.7
      vertex 49.4188 -37.8203 -12.7
    endloop
  endfacet
  facet normal 0 0 -1
    outer loop
      vertex 50.0335 37.3783 -12.7
      vertex 48.1967 38.0992 -12.7
      vertex 49.8437 37.5458 -12.7
    endloop
  endfacet
  facet normal 0 0 -1
    outer loop
      vertex 48.1967 -38.0992 -12.7
      vertex 49.4188 -37.8203 -12.7
      vertex 49.188 -37.9244 -12.7
    endloop
  endfacet
  facet normal 0 0 -1
    outer loop
      vertex 49.8437 37.5458 -12.7
      vertex 48.1967 38.0992 -12.7
      vertex 49.6381 37.6937 -12.7
    endloop
  endfacet
  facet normal 0 0 -1
    outer loop
      vertex 48.1967 -38.0992 -12.7
      vertex 49.188 -37.9244 -12.7
      vertex 48.9479 -38.0051 -12.7
    endloop
  endfacet
  facet normal 0 0 -1
    outer loop
      vertex 49.6381 37.6937 -12.7
      vertex 48.1967 38.0992 -12.7
      vertex 49.4188 37.8203 -12.7
    endloop
  endfacet
  facet normal 0 0 -1
    outer loop
      vertex 48.1967 -38.0992 -12.7
      vertex 48.9479 -38.0051 -12.7
      vertex 48.701 -38.0614 -12.7
    endloop
  endfacet
  facet normal 0 0 -1
    outer loop
      vertex 49.4188 37.8203 -12.7
      vertex 48.1967 38.0992 -12.7
      vertex 49.188 37.9244 -12.7
    endloop
  endfacet
  facet normal 0 0 -1
    outer loop
      vertex 48.1967 -38.0992 -12.7
      vertex 48.701 -38.0614 -12.7
      vertex 48.4498 -38.0929 -12.7
    endloop
  endfacet
  facet normal 0 0 -1
    outer loop
      vertex 49.188 37.9244 -12.7
      vertex 48.1967 38.0992 -12.7
      vertex 48.9479 38.005 -12.7
    endloop
  endfacet
  facet normal 0 0 -1
    outer loop
      vertex 48.9479 38.005 -12.7
      vertex 48.1967 38.0992 -12.7
      vertex 48.701 38.0614 -12.7
    endloop
  endfacet
  facet normal 0 0 -1
    outer loop
      vertex 48.701 38.0614 -12.7
      vertex 48.1967 38.0992 -12.7
      vertex 48.4498 38.0929 -12.7
    endloop
  endfacet
  facet normal 0 0 -1
    outer loop
      vertex -48.3233 -38.0992 -12.7
      vertex 48.1967 38.0992 -12.7
      vertex 48.1967 -38.0992 -12.7
    endloop
  endfacet
  facet normal 0 0 -1
    outer loop
      vertex -48.3233 -38.0992 -12.7
      vertex -48.3233 38.0992 -12.7
      vertex 48.1967 38.0992 -12.7
    endloop
  endfacet
  facet normal 0 0 -1
    outer loop
      vertex -50.7969 -35.6866 -12.7
      vertex -48.3233 -38.0992 -12.7
      vertex -48.5758 -38.0803 -12.7
    endloop
  endfacet
  facet normal 0 0 -1
    outer loop
      vertex -48.3233 -38.0992 -12.7
      vertex -50.7969 -35.6866 -12.7
      vertex -48.3233 38.0992 -12.7
    endloop
  endfacet
  facet normal 0 0 -1
    outer loop
      vertex -50.7969 -35.6866 -12.7
      vertex -48.5758 -38.0803 -12.7
      vertex -48.8252 -38.0363 -12.7
    endloop
  endfacet
  facet normal 0 0 -1
    outer loop
      vertex -50.7969 35.6866 -12.7
      vertex -48.3233 38.0992 -12.7
      vertex -50.7969 -35.6866 -12.7
    endloop
  endfacet
  facet normal 0 0 -1
    outer loop
      vertex -50.7969 -35.6866 -12.7
      vertex -48.8252 -38.0363 -12.7
      vertex -49.069 -37.9677 -12.7
    endloop
  endfacet
  facet normal 0 0 -1
    outer loop
      vertex -48.3233 38.0992 -12.7
      vertex -50.7969 35.6866 -12.7
      vertex -48.5758 38.0803 -12.7
    endloop
  endfacet
  facet normal 0 0 -1
    outer loop
      vertex -50.7969 -35.6866 -12.7
      vertex -49.069 -37.9677 -12.7
      vertex -49.3047 -37.8752 -12.7
    endloop
  endfacet
  facet normal 0 0 -1
    outer loop
      vertex -48.5758 38.0803 -12.7
      vertex -50.7969 35.6866 -12.7
      vertex -48.8252 38.0363 -12.7
    endloop
  endfacet
  facet normal 0 0 -1
    outer loop
      vertex -50.7969 -35.6866 -12.7
      vertex -49.3047 -37.8752 -12.7
      vertex -49.53 -37.7597 -12.7
    endloop
  endfacet
  facet normal 0 0 -1
    outer loop
      vertex -48.8252 38.0363 -12.7
      vertex -50.7969 35.6866 -12.7
      vertex -49.069 37.9677 -12.7
    endloop
  endfacet
  facet normal 0 0 -1
    outer loop
      vertex -50.7969 -35.6866 -12.7
      vertex -49.53 -37.7597 -12.7
      vertex -49.7427 -37.6223 -12.7
    endloop
  endfacet
  facet normal 0 0 -1
    outer loop
      vertex -49.069 37.9677 -12.7
      vertex -50.7969 35.6866 -12.7
      vertex -49.3047 37.8752 -12.7
    endloop
  endfacet
  facet normal 0 0 -1
    outer loop
      vertex -50.7969 -35.6866 -12.7
      vertex -49.7427 -37.6223 -12.7
      vertex -49.9407 -37.4645 -12.7
    endloop
  endfacet
  facet normal 0 0 -1
    outer loop
      vertex -49.3047 37.8752 -12.7
      vertex -50.7969 35.6866 -12.7
      vertex -49.53 37.7597 -12.7
    endloop
  endfacet
  facet normal 0 0 -1
    outer loop
      vertex -50.7969 -35.6866 -12.7
      vertex -49.9407 -37.4645 -12.7
      vertex -50.122 -37.2876 -12.7
    endloop
  endfacet
  facet normal 0 0 -1
    outer loop
      vertex -49.53 37.7597 -12.7
      vertex -50.7969 35.6866 -12.7
      vertex -49.7427 37.6223 -12.7
    endloop
  endfacet
  facet normal 0 0 -1
    outer loop
      vertex -50.7969 -35.6866 -12.7
      vertex -50.122 -37.2876 -12.7
      vertex -50.2847 -37.0937 -12.7
    endloop
  endfacet
  facet normal 0 0 -1
    outer loop
      vertex -49.7427 37.6223 -12.7
      vertex -50.7969 35.6866 -12.7
      vertex -49.9407 37.4644 -12.7
    endloop
  endfacet
  facet normal 0 0 -1
    outer loop
      vertex -50.7969 -35.6866 -12.7
      vertex -50.2847 -37.0937 -12.7
      vertex -50.4274 -36.8844 -12.7
    endloop
  endfacet
  facet normal 0 0 -1
    outer loop
      vertex -49.9407 37.4644 -12.7
      vertex -50.7969 35.6866 -12.7
      vertex -50.122 37.2876 -12.7
    endloop
  endfacet
  facet normal 0 0 -1
    outer loop
      vertex -50.7969 -35.6866 -12.7
      vertex -50.4274 -36.8844 -12.7
      vertex -50.5485 -36.6621 -12.7
    endloop
  endfacet
  facet normal 0 0 -1
    outer loop
      vertex -50.122 37.2876 -12.7
      vertex -50.7969 35.6866 -12.7
      vertex -50.2847 37.0936 -12.7
    endloop
  endfacet
  facet normal 0 0 -1
    outer loop
      vertex -50.7969 -35.6866 -12.7
      vertex -50.5485 -36.6621 -12.7
      vertex -50.6468 -36.4287 -12.7
    endloop
  endfacet
  facet normal 0 0 -1
    outer loop
      vertex -50.2847 37.0936 -12.7
      vertex -50.7969 35.6866 -12.7
      vertex -50.4274 36.8844 -12.7
    endloop
  endfacet
  facet normal 0 0 -1
    outer loop
      vertex -50.7969 -35.6866 -12.7
      vertex -50.6468 -36.4287 -12.7
      vertex -50.7215 -36.1868 -12.7
    endloop
  endfacet
  facet normal 0 0 -1
    outer loop
      vertex -50.4274 36.8844 -12.7
      vertex -50.7969 35.6866 -12.7
      vertex -50.5485 36.6621 -12.7
    endloop
  endfacet
  facet normal 0 0 -1
    outer loop
      vertex -50.7969 -35.6866 -12.7
      vertex -50.7215 -36.1868 -12.7
      vertex -50.7716 -35.9386 -12.7
    endloop
  endfacet
  facet normal 0 0 -1
    outer loop
      vertex -50.5485 36.6621 -12.7
      vertex -50.7969 35.6866 -12.7
      vertex -50.6468 36.4287 -12.7
    endloop
  endfacet
  facet normal 0 0 -1
    outer loop
      vertex -50.6468 36.4287 -12.7
      vertex -50.7969 35.6866 -12.7
      vertex -50.7215 36.1867 -12.7
    endloop
  endfacet
  facet normal 0 0 -1
    outer loop
      vertex -50.7215 36.1867 -12.7
      vertex -50.7969 35.6866 -12.7
      vertex -50.7716 35.9386 -12.7
    endloop
  endfacet
  facet normal -0.98023 -0.197863 -0
    outer loop
      vertex -50.7215 -36.1868 10.3557
      vertex -50.7716 -35.9386 -12.7
      vertex -50.7215 -36.1868 -12.7
    endloop
  endfacet
  facet normal -0.98023 -0.197863 0
    outer loop
      vertex -50.7716 -35.9386 -12.7
      vertex -50.7215 -36.1868 10.3557
      vertex -50.7716 -35.9386 10.5537
    endloop
  endfacet
  facet normal -0.878152 -0.478382 -0
    outer loop
      vertex -50.4274 -36.8844 9.95208
      vertex -50.5485 -36.6621 -12.7
      vertex -50.4274 -36.8844 -12.7
    endloop
  endfacet
  facet normal -0.878152 -0.478382 0
    outer loop
      vertex -50.5485 -36.6621 -12.7
      vertex -50.4274 -36.8844 9.95208
      vertex -50.5485 -36.6621 10.0534
    endloop
  endfacet
endsolid OpenSCAD_Model
