solid OpenSCAD_Model
  facet normal 0.577342 0.577367 0.577342
    outer loop
      vertex 63.4874 29.4629 10.6637
      vertex 60.8967 31.7492 10.968
      vertex 59.1647 31.7492 12.7
    endloop
  endfacet
  facet normal 0.57735 0.57735 0.57735
    outer loop
      vertex 63.3871 29.9587 10.2681
      vertex 60.8967 31.7492 10.968
      vertex 63.4496 29.7133 10.451
    endloop
  endfacet
  facet normal 0.57735 0.57735 0.57735
    outer loop
      vertex 63.3005 30.1966 10.1168
      vertex 60.8967 31.7492 10.968
      vertex 63.3871 29.9587 10.2681
    endloop
  endfacet
  facet normal 0.577352 0.577347 0.577352
    outer loop
      vertex 60.8967 31.7492 10.968
      vertex 63.1907 30.4247 9.99849
      vertex 61.1498 31.7429 10.7212
    endloop
  endfacet
  facet normal 0.577365 0.57741 0.577275
    outer loop
      vertex 63.0586 30.6408 9.91446
      vertex 61.1498 31.7429 10.7212
      vertex 63.1907 30.4247 9.99849
    endloop
  endfacet
  facet normal 0.577334 0.577229 0.577488
    outer loop
      vertex 62.9057 30.8427 9.86551
      vertex 61.401 31.7114 10.5015
      vertex 63.0586 30.6408 9.91446
    endloop
  endfacet
  facet normal 0.577383 0.577674 0.576994
    outer loop
      vertex 61.401 31.7114 10.5015
      vertex 62.9057 30.8427 9.86551
      vertex 61.6479 31.655 10.3109
    endloop
  endfacet
  facet normal 0.577272 0.577012 0.577766
    outer loop
      vertex 61.6479 31.655 10.3109
      vertex 62.7335 31.0283 9.85211
      vertex 61.888 31.5744 10.1515
    endloop
  endfacet
  facet normal 0.577247 0.576409 0.578393
    outer loop
      vertex 61.888 31.5744 10.1515
      vertex 62.5437 31.1958 9.8744
      vertex 62.1188 31.4703 10.0249
    endloop
  endfacet
  facet normal 0.577285 0.576584 0.57818
    outer loop
      vertex 62.1188 31.4703 10.0249
      vertex 62.5437 31.1958 9.8744
      vertex 62.3381 31.3437 9.93219
    endloop
  endfacet
  facet normal 0.577355 0.577398 0.577298
    outer loop
      vertex 62.5437 31.1958 9.8744
      vertex 61.888 31.5744 10.1515
      vertex 62.7335 31.0283 9.85211
    endloop
  endfacet
  facet normal 0.577305 0.577314 0.577431
    outer loop
      vertex 62.7335 31.0283 9.85211
      vertex 61.6479 31.655 10.3109
      vertex 62.9057 30.8427 9.86551
    endloop
  endfacet
  facet normal 0.577357 0.577334 0.57736
    outer loop
      vertex 61.1498 31.7429 10.7212
      vertex 63.0586 30.6408 9.91446
      vertex 61.401 31.7114 10.5015
    endloop
  endfacet
  facet normal 0.577354 0.577367 0.57733
    outer loop
      vertex 63.1907 30.4247 9.99849
      vertex 60.8967 31.7492 10.968
      vertex 63.3005 30.1966 10.1168
    endloop
  endfacet
  facet normal 0.577402 0.577455 0.577193
    outer loop
      vertex 60.8967 31.7492 10.968
      vertex 63.4874 29.4629 10.6637
      vertex 63.4496 29.7133 10.451
    endloop
  endfacet
  facet normal 0.577337 0.577239 0.577475
    outer loop
      vertex 59.1647 31.7492 12.7
      vertex 63.5 29.21 10.9039
      vertex 63.4874 29.4629 10.6637
    endloop
  endfacet
  facet normal 0.57735 0.57735 0.57735
    outer loop
      vertex 63.5 29.21 10.9039
      vertex 59.1647 31.7492 12.7
      vertex 63.5 27.4139 12.7
    endloop
  endfacet
  facet normal -0.577349 0.577354 0.577348
    outer loop
      vertex -63.1274 30.5344 9.95211
      vertex -61.0233 31.7492 10.8414
      vertex -61.2758 31.7303 10.6078
    endloop
  endfacet
  facet normal -0.577361 0.57732 0.57737
    outer loop
      vertex -62.9847 30.7436 9.88554
      vertex -61.2758 31.7303 10.6078
      vertex -61.5252 31.6863 10.4024
    endloop
  endfacet
  facet normal -0.577346 0.577368 0.577337
    outer loop
      vertex -62.822 30.9376 9.85432
      vertex -61.5252 31.6863 10.4024
      vertex -61.769 31.6177 10.2272
    endloop
  endfacet
  facet normal -0.577358 0.577293 0.5774
    outer loop
      vertex -62.6407 31.1144 9.85877
      vertex -61.769 31.6177 10.2272
      vertex -62.0047 31.5252 10.084
    endloop
  endfacet
  facet normal -0.577349 0.577249 0.577453
    outer loop
      vertex -62.6407 31.1144 9.85877
      vertex -62.0047 31.5252 10.084
      vertex -62.23 31.4097 9.9742
    endloop
  endfacet
  facet normal -0.577511 0.577724 0.576816
    outer loop
      vertex -62.6407 31.1144 9.85877
      vertex -62.23 31.4097 9.9742
      vertex -62.4427 31.2723 9.89886
    endloop
  endfacet
  facet normal -0.577387 0.577557 0.577107
    outer loop
      vertex -61.769 31.6177 10.2272
      vertex -62.6407 31.1144 9.85877
      vertex -62.822 30.9376 9.85432
    endloop
  endfacet
  facet normal -0.57732 0.577127 0.577604
    outer loop
      vertex -61.5252 31.6863 10.4024
      vertex -62.822 30.9376 9.85432
      vertex -62.9847 30.7436 9.88554
    endloop
  endfacet
  facet normal -0.577381 0.577505 0.577164
    outer loop
      vertex -61.2758 31.7303 10.6078
      vertex -62.9847 30.7436 9.88554
      vertex -63.1274 30.5344 9.95211
    endloop
  endfacet
  facet normal -0.577366 0.577512 0.577173
    outer loop
      vertex -61.0233 31.7492 10.8414
      vertex -63.1274 30.5344 9.95211
      vertex -63.2485 30.3121 10.0534
    endloop
  endfacet
  facet normal -0.577298 0.577199 0.577554
    outer loop
      vertex -61.0233 31.7492 10.8414
      vertex -63.2485 30.3121 10.0534
      vertex -63.3468 30.0787 10.1884
    endloop
  endfacet
  facet normal -0.57735 0.57735 0.57735
    outer loop
      vertex -61.0233 31.7492 10.8414
      vertex -63.3468 30.0787 10.1884
      vertex -63.4215 29.8367 10.3557
    endloop
  endfacet
  facet normal -0.57735 0.57735 0.57735
    outer loop
      vertex -61.0233 31.7492 10.8414
      vertex -63.4215 29.8367 10.3557
      vertex -63.4716 29.5886 10.5537
    endloop
  endfacet
  facet normal -0.57735 0.57735 0.57735
    outer loop
      vertex -61.0233 31.7492 10.8414
      vertex -63.4716 29.5886 10.5537
      vertex -59.1647 31.7492 12.7
    endloop
  endfacet
  facet normal -0.57735 0.57723 0.577471
    outer loop
      vertex -63.4968 29.3366 10.7804
      vertex -59.1647 31.7492 12.7
      vertex -63.4716 29.5886 10.5537
    endloop
  endfacet
  facet normal -0.57736 0.57736 0.57733
    outer loop
      vertex -59.1647 31.7492 12.7
      vertex -63.4968 29.3366 10.7804
      vertex -63.4968 27.4171 12.7
    endloop
  endfacet
  facet normal -0.577361 -0.577361 0.57733
    outer loop
      vertex -63.4968 -27.4171 12.7
      vertex -61.0233 -31.7492 10.8413
      vertex -59.1647 -31.7492 12.7
    endloop
  endfacet
  facet normal -0.57727 -0.577264 0.577517
    outer loop
      vertex -61.0233 -31.7492 10.8413
      vertex -63.4968 -29.3366 10.7804
      vertex -61.2758 -31.7303 10.6078
    endloop
  endfacet
  facet normal -0.577455 -0.577412 0.577184
    outer loop
      vertex -61.2758 -31.7303 10.6078
      vertex -63.4968 -29.3366 10.7804
      vertex -61.5252 -31.6863 10.4023
    endloop
  endfacet
  facet normal -0.57723 -0.57728 0.57754
    outer loop
      vertex -61.5252 -31.6863 10.4023
      vertex -63.4968 -29.3366 10.7804
      vertex -61.769 -31.6177 10.2272
    endloop
  endfacet
  facet normal -0.577353 -0.577331 0.577367
    outer loop
      vertex -61.769 -31.6177 10.2272
      vertex -63.4968 -29.3366 10.7804
      vertex -62.0047 -31.5252 10.084
    endloop
  endfacet
  facet normal -0.577402 -0.577344 0.577304
    outer loop
      vertex -62.0047 -31.5252 10.084
      vertex -63.4968 -29.3366 10.7804
      vertex -62.23 -31.4097 9.97417
    endloop
  endfacet
  facet normal -0.577409 -0.577346 0.577296
    outer loop
      vertex -62.23 -31.4097 9.97417
      vertex -63.4968 -29.3366 10.7804
      vertex -62.4427 -31.2723 9.89884
    endloop
  endfacet
  facet normal -0.577071 -0.577325 0.577655
    outer loop
      vertex -62.4427 -31.2723 9.89884
      vertex -63.4968 -29.3366 10.7804
      vertex -62.6407 -31.1145 9.85875
    endloop
  endfacet
  facet normal -0.577504 -0.577314 0.577233
    outer loop
      vertex -62.6407 -31.1145 9.85875
      vertex -63.4968 -29.3366 10.7804
      vertex -62.822 -30.9376 9.85429
    endloop
  endfacet
  facet normal -0.577208 -0.577344 0.577499
    outer loop
      vertex -62.822 -30.9376 9.85429
      vertex -63.4968 -29.3366 10.7804
      vertex -62.9847 -30.7437 9.88552
    endloop
  endfacet
  facet normal -0.577471 -0.5773 0.577279
    outer loop
      vertex -62.9847 -30.7437 9.88552
      vertex -63.4968 -29.3366 10.7804
      vertex -63.1274 -30.5344 9.95208
    endloop
  endfacet
  facet normal -0.576526 -0.577514 0.57801
    outer loop
      vertex -63.1274 -30.5344 9.95208
      vertex -63.4968 -29.3366 10.7804
      vertex -63.2485 -30.3121 10.0534
    endloop
  endfacet
  facet normal -0.578701 -0.576902 0.576446
    outer loop
      vertex -63.2485 -30.3121 10.0534
      vertex -63.4968 -29.3366 10.7804
      vertex -63.3468 -30.0787 10.1883
    endloop
  endfacet
  facet normal -0.574657 -0.578238 0.579146
    outer loop
      vertex -63.3468 -30.0787 10.1883
      vertex -63.4968 -29.3366 10.7804
      vertex -63.4215 -29.8368 10.3557
    endloop
  endfacet
  facet normal -0.57736 -0.577361 0.57733
    outer loop
      vertex -61.0233 -31.7492 10.8413
      vertex -63.4968 -27.4171 12.7
      vertex -63.4968 -29.3366 10.7804
    endloop
  endfacet
  facet normal -0.577448 -0.577188 0.577414
    outer loop
      vertex -63.4215 -29.8368 10.3557
      vertex -63.4968 -29.3366 10.7804
      vertex -63.4716 -29.5886 10.5537
    endloop
  endfacet
  facet normal 0.57735 -0.57735 0.57735
    outer loop
      vertex 60.8967 -31.7492 10.968
      vertex 63.5 -29.21 10.9039
      vertex 63.5 -27.4139 12.7
    endloop
  endfacet
  facet normal 0.57735 -0.57735 0.57735
    outer loop
      vertex 63.5 -29.21 10.9039
      vertex 60.8967 -31.7492 10.968
      vertex 63.4874 -29.4629 10.6636
    endloop
  endfacet
  facet normal 0.57735 -0.57735 0.57735
    outer loop
      vertex 63.4874 -29.4629 10.6636
      vertex 60.8967 -31.7492 10.968
      vertex 63.4496 -29.7133 10.451
    endloop
  endfacet
  facet normal 0.57735 -0.57735 0.57735
    outer loop
      vertex 63.4496 -29.7133 10.451
      vertex 60.8967 -31.7492 10.968
      vertex 63.3871 -29.9587 10.2681
    endloop
  endfacet
  facet normal 0.577398 -0.577491 0.577162
    outer loop
      vertex 63.3871 -29.9587 10.2681
      vertex 60.8967 -31.7492 10.968
      vertex 63.3005 -30.1966 10.1167
    endloop
  endfacet
  facet normal 0.577307 -0.577068 0.577676
    outer loop
      vertex 63.3005 -30.1966 10.1167
      vertex 60.8967 -31.7492 10.968
      vertex 63.1907 -30.4248 9.99847
    endloop
  endfacet
  facet normal 0.577365 -0.577603 0.577083
    outer loop
      vertex 63.1907 -30.4248 9.99847
      vertex 60.8967 -31.7492 10.968
      vertex 63.0586 -30.6408 9.91444
    endloop
  endfacet
  facet normal 0.57736 -0.577262 0.577429
    outer loop
      vertex 63.0586 -30.6408 9.91444
      vertex 60.8967 -31.7492 10.968
      vertex 62.9057 -30.8427 9.86548
    endloop
  endfacet
  facet normal 0.577356 -0.577325 0.57737
    outer loop
      vertex 62.9057 -30.8427 9.86548
      vertex 60.8967 -31.7492 10.968
      vertex 62.7335 -31.0283 9.85209
    endloop
  endfacet
  facet normal 0.577387 -0.577087 0.577577
    outer loop
      vertex 62.7335 -31.0283 9.85209
      vertex 60.8967 -31.7492 10.968
      vertex 62.5437 -31.1959 9.87437
    endloop
  endfacet
  facet normal 0.577341 -0.577323 0.577387
    outer loop
      vertex 62.5437 -31.1959 9.87437
      vertex 60.8967 -31.7492 10.968
      vertex 62.3381 -31.3437 9.93217
    endloop
  endfacet
  facet normal 0.577255 -0.577662 0.577134
    outer loop
      vertex 62.3381 -31.3437 9.93217
      vertex 60.8967 -31.7492 10.968
      vertex 62.1188 -31.4703 10.0248
    endloop
  endfacet
  facet normal 0.57735 -0.57735 0.57735
    outer loop
      vertex 62.1188 -31.4703 10.0248
      vertex 60.8967 -31.7492 10.968
      vertex 61.888 -31.5744 10.1515
    endloop
  endfacet
  facet normal 0.57735 -0.57735 0.57735
    outer loop
      vertex 61.888 -31.5744 10.1515
      vertex 60.8967 -31.7492 10.968
      vertex 61.6479 -31.6551 10.3109
    endloop
  endfacet
  facet normal 0.576782 -0.578769 0.576497
    outer loop
      vertex 61.6479 -31.6551 10.3109
      vertex 60.8967 -31.7492 10.968
      vertex 61.401 -31.7114 10.5014
    endloop
  endfacet
  facet normal 0.578075 -0.575842 0.578132
    outer loop
      vertex 61.401 -31.7114 10.5014
      vertex 60.8967 -31.7492 10.968
      vertex 61.1498 -31.7429 10.7212
    endloop
  endfacet
  facet normal 0.57735 -0.57735 0.57735
    outer loop
      vertex 60.8967 -31.7492 10.968
      vertex 63.5 -27.4139 12.7
      vertex 59.1647 -31.7492 12.7
    endloop
  endfacet
  facet normal 0.411153 -0.911566 0
    outer loop
      vertex 61.888 -31.5744 -12.7
      vertex 62.1188 -31.4703 10.0248
      vertex 61.888 -31.5744 10.1515
    endloop
  endfacet
  facet normal 0.411153 -0.911566 0
    outer loop
      vertex 62.1188 -31.4703 10.0248
      vertex 61.888 -31.5744 -12.7
      vertex 62.1188 -31.4703 -12.7
    endloop
  endfacet
  facet normal -0.995037 -0.0995037 -0
    outer loop
      vertex -63.4716 -29.5886 10.5537
      vertex -63.4968 -29.3366 -12.7
      vertex -63.4716 -29.5886 -12.7
    endloop
  endfacet
  facet normal -0.995037 -0.0995037 0
    outer loop
      vertex -63.4968 -29.3366 -12.7
      vertex -63.4716 -29.5886 10.5537
      vertex -63.4968 -29.3366 10.7804
    endloop
  endfacet
  facet normal 0.318596 -0.947891 0
    outer loop
      vertex 61.6479 -31.6551 -12.7
      vertex 61.888 -31.5744 10.1515
      vertex 61.6479 -31.6551 10.3109
    endloop
  endfacet
  facet normal 0.318596 -0.947891 0
    outer loop
      vertex 61.888 -31.5744 10.1515
      vertex 61.6479 -31.6551 -12.7
      vertex 61.888 -31.5744 -12.7
    endloop
  endfacet
  facet normal 0.124424 -0.992229 0
    outer loop
      vertex 61.1498 -31.7429 -12.7
      vertex 61.401 -31.7114 10.5014
      vertex 61.1498 -31.7429 10.7212
    endloop
  endfacet
  facet normal 0.124424 -0.992229 0
    outer loop
      vertex 61.401 -31.7114 10.5014
      vertex 61.1498 -31.7429 -12.7
      vertex 61.401 -31.7114 -12.7
    endloop
  endfacet
  facet normal -0.0746427 -0.99721 0
    outer loop
      vertex -61.0233 -31.7492 -12.7
      vertex -61.2758 -31.7303 10.6078
      vertex -61.2758 -31.7303 -12.7
    endloop
  endfacet
  facet normal -0.0746427 -0.99721 0
    outer loop
      vertex -61.2758 -31.7303 10.6078
      vertex -61.0233 -31.7492 -12.7
      vertex -61.0233 -31.7492 10.8413
    endloop
  endfacet
  facet normal 0.0248836 0.99969 0
    outer loop
      vertex 60.8967 31.7492 -12.7
      vertex 61.1498 31.7429 10.7212
      vertex 61.1498 31.7429 -12.7
    endloop
  endfacet
  facet normal 0.0248836 0.99969 0
    outer loop
      vertex 61.1498 31.7429 10.7212
      vertex 60.8967 31.7492 -12.7
      vertex 60.8967 31.7492 10.968
    endloop
  endfacet
  facet normal 0 0 1
    outer loop
      vertex 59.1647 31.7492 12.7
      vertex 63.5 -27.4139 12.7
      vertex 63.5 27.4139 12.7
    endloop
  endfacet
  facet normal 0 0 1
    outer loop
      vertex 59.1647 31.7492 12.7
      vertex 59.1647 -31.7492 12.7
      vertex 63.5 -27.4139 12.7
    endloop
  endfacet
  facet normal 0 0 1
    outer loop
      vertex 59.1647 31.7492 12.7
      vertex -59.1647 -31.7492 12.7
      vertex 59.1647 -31.7492 12.7
    endloop
  endfacet
  facet normal -0 0 1
    outer loop
      vertex -59.1647 31.7492 12.7
      vertex -59.1647 -31.7492 12.7
      vertex 59.1647 31.7492 12.7
    endloop
  endfacet
  facet normal -0 0 1
    outer loop
      vertex -63.4968 27.4171 12.7
      vertex -59.1647 -31.7492 12.7
      vertex -59.1647 31.7492 12.7
    endloop
  endfacet
  facet normal 0 0 1
    outer loop
      vertex -59.1647 -31.7492 12.7
      vertex -63.4968 27.4171 12.7
      vertex -63.4968 -27.4171 12.7
    endloop
  endfacet
  facet normal -1 0 0
    outer loop
      vertex -63.4968 29.3366 -12.7
      vertex -63.4968 27.4171 12.7
      vertex -63.4968 29.3366 10.7804
    endloop
  endfacet
  facet normal -1 0 0
    outer loop
      vertex -63.4968 29.3366 -12.7
      vertex -63.4968 -27.4171 12.7
      vertex -63.4968 27.4171 12.7
    endloop
  endfacet
  facet normal -1 0 0
    outer loop
      vertex -63.4968 -29.3366 -12.7
      vertex -63.4968 -27.4171 12.7
      vertex -63.4968 29.3366 -12.7
    endloop
  endfacet
  facet normal -1 0 0
    outer loop
      vertex -63.4968 -27.4171 12.7
      vertex -63.4968 -29.3366 -12.7
      vertex -63.4968 -29.3366 10.7804
    endloop
  endfacet
  facet normal 0.853106 -0.521738 0
    outer loop
      vertex 63.0586 -30.6408 9.91444
      vertex 63.1907 -30.4248 -12.7
      vertex 63.1907 -30.4248 9.99847
    endloop
  endfacet
  facet normal 0.853106 -0.521738 0
    outer loop
      vertex 63.1907 -30.4248 -12.7
      vertex 63.0586 -30.6408 9.91444
      vertex 63.0586 -30.6408 -12.7
    endloop
  endfacet
  facet normal 0 1 -0
    outer loop
      vertex 60.8967 31.7492 -12.7
      vertex 59.1647 31.7492 12.7
      vertex 60.8967 31.7492 10.968
    endloop
  endfacet
  facet normal 0 1 0
    outer loop
      vertex 59.1647 31.7492 12.7
      vertex 60.8967 31.7492 -12.7
      vertex -59.1647 31.7492 12.7
    endloop
  endfacet
  facet normal 0 1 0
    outer loop
      vertex -61.0233 31.7492 -12.7
      vertex -59.1647 31.7492 12.7
      vertex 60.8967 31.7492 -12.7
    endloop
  endfacet
  facet normal 0 1 0
    outer loop
      vertex -59.1647 31.7492 12.7
      vertex -61.0233 31.7492 -12.7
      vertex -61.0233 31.7492 10.8414
    endloop
  endfacet
  facet normal 0.969065 -0.246807 0
    outer loop
      vertex 63.3871 -29.9587 10.2681
      vertex 63.4496 -29.7133 -12.7
      vertex 63.4496 -29.7133 10.451
    endloop
  endfacet
  facet normal 0.969065 -0.246807 0
    outer loop
      vertex 63.4496 -29.7133 -12.7
      vertex 63.3871 -29.9587 10.2681
      vertex 63.3871 -29.9587 -12.7
    endloop
  endfacet
  facet normal 0.998761 -0.0497603 0
    outer loop
      vertex 63.4874 -29.4629 10.6636
      vertex 63.5 -29.21 -12.7
      vertex 63.5 -29.21 10.9039
    endloop
  endfacet
  facet normal 0.998761 -0.0497603 0
    outer loop
      vertex 63.5 -29.21 -12.7
      vertex 63.4874 -29.4629 10.6636
      vertex 63.4874 -29.4629 -12.7
    endloop
  endfacet
  facet normal 0.969065 0.246807 -0
    outer loop
      vertex 63.4496 29.7133 -12.7
      vertex 63.3871 29.9587 10.2681
      vertex 63.4496 29.7133 10.451
    endloop
  endfacet
  facet normal 0.969065 0.246807 0
    outer loop
      vertex 63.3871 29.9587 10.2681
      vertex 63.4496 29.7133 -12.7
      vertex 63.3871 29.9587 -12.7
    endloop
  endfacet
  facet normal 0.661687 0.74978 0
    outer loop
      vertex 62.5437 31.1958 -12.7
      vertex 62.7335 31.0283 9.85211
      vertex 62.7335 31.0283 -12.7
    endloop
  endfacet
  facet normal 0.661687 0.74978 0
    outer loop
      vertex 62.7335 31.0283 9.85211
      vertex 62.5437 31.1958 -12.7
      vertex 62.5437 31.1958 9.8744
    endloop
  endfacet
  facet normal -0.698368 -0.715739 0
    outer loop
      vertex -62.6407 -31.1145 -12.7
      vertex -62.822 -30.9376 9.85429
      vertex -62.822 -30.9376 -12.7
    endloop
  endfacet
  facet normal -0.698368 -0.715739 0
    outer loop
      vertex -62.822 -30.9376 9.85429
      vertex -62.6407 -31.1145 -12.7
      vertex -62.6407 -31.1145 9.85875
    endloop
  endfacet
  facet normal -0.365322 -0.930881 0
    outer loop
      vertex -61.769 -31.6177 -12.7
      vertex -62.0047 -31.5252 10.084
      vertex -62.0047 -31.5252 -12.7
    endloop
  endfacet
  facet normal -0.365322 -0.930881 0
    outer loop
      vertex -62.0047 -31.5252 10.084
      vertex -61.769 -31.6177 -12.7
      vertex -61.769 -31.6177 10.2272
    endloop
  endfacet
  facet normal -0.27086 -0.962619 0
    outer loop
      vertex -61.5252 -31.6863 -12.7
      vertex -61.769 -31.6177 10.2272
      vertex -61.769 -31.6177 -12.7
    endloop
  endfacet
  facet normal -0.27086 -0.962619 0
    outer loop
      vertex -61.769 -31.6177 10.2272
      vertex -61.5252 -31.6863 -12.7
      vertex -61.5252 -31.6863 10.4023
    endloop
  endfacet
  facet normal -0.878152 0.478382 0
    outer loop
      vertex -63.2485 30.3121 -12.7
      vertex -63.1274 30.5344 9.95211
      vertex -63.1274 30.5344 -12.7
    endloop
  endfacet
  facet normal -0.878152 0.478382 0
    outer loop
      vertex -63.1274 30.5344 9.95211
      vertex -63.2485 30.3121 -12.7
      vertex -63.2485 30.3121 10.0534
    endloop
  endfacet
  facet normal 0.939678 -0.34206 0
    outer loop
      vertex 63.3005 -30.1966 10.1167
      vertex 63.3871 -29.9587 -12.7
      vertex 63.3871 -29.9587 10.2681
    endloop
  endfacet
  facet normal 0.939678 -0.34206 0
    outer loop
      vertex 63.3871 -29.9587 -12.7
      vertex 63.3005 -30.1966 10.1167
      vertex 63.3005 -30.1966 -12.7
    endloop
  endfacet
  facet normal 0.988797 -0.149267 0
    outer loop
      vertex 63.4496 -29.7133 10.451
      vertex 63.4874 -29.4629 -12.7
      vertex 63.4874 -29.4629 10.6636
    endloop
  endfacet
  facet normal 0.988797 -0.149267 0
    outer loop
      vertex 63.4874 -29.4629 -12.7
      vertex 63.4496 -29.7133 10.451
      vertex 63.4496 -29.7133 -12.7
    endloop
  endfacet
  facet normal 0.661909 -0.749584 0
    outer loop
      vertex 62.5437 -31.1959 -12.7
      vertex 62.7335 -31.0283 9.85209
      vertex 62.5437 -31.1959 9.87437
    endloop
  endfacet
  facet normal 0.661909 -0.749584 0
    outer loop
      vertex 62.7335 -31.0283 9.85209
      vertex 62.5437 -31.1959 -12.7
      vertex 62.7335 -31.0283 -12.7
    endloop
  endfacet
  facet normal 0.988797 0.149267 -0
    outer loop
      vertex 63.4874 29.4629 -12.7
      vertex 63.4496 29.7133 10.451
      vertex 63.4874 29.4629 10.6637
    endloop
  endfacet
  facet normal 0.988797 0.149267 0
    outer loop
      vertex 63.4496 29.7133 10.451
      vertex 63.4874 29.4629 -12.7
      vertex 63.4496 29.7133 -12.7
    endloop
  endfacet
  facet normal 0.797196 0.603721 -0
    outer loop
      vertex 63.0586 30.6408 -12.7
      vertex 62.9057 30.8427 9.86551
      vertex 63.0586 30.6408 9.91446
    endloop
  endfacet
  facet normal 0.797196 0.603721 0
    outer loop
      vertex 62.9057 30.8427 9.86551
      vertex 63.0586 30.6408 -12.7
      vertex 62.9057 30.8427 -12.7
    endloop
  endfacet
  facet normal 0.583961 0.811781 0
    outer loop
      vertex 62.3381 31.3437 -12.7
      vertex 62.5437 31.1958 9.8744
      vertex 62.5437 31.1958 -12.7
    endloop
  endfacet
  facet normal 0.583961 0.811781 0
    outer loop
      vertex 62.5437 31.1958 9.8744
      vertex 62.3381 31.3437 -12.7
      vertex 62.3381 31.3437 9.93219
    endloop
  endfacet
  facet normal -0.0746427 0.99721 0
    outer loop
      vertex -61.0233 31.7492 -12.7
      vertex -61.2758 31.7303 10.6078
      vertex -61.0233 31.7492 10.8414
    endloop
  endfacet
  facet normal -0.0746427 0.99721 0
    outer loop
      vertex -61.2758 31.7303 10.6078
      vertex -61.0233 31.7492 -12.7
      vertex -61.2758 31.7303 -12.7
    endloop
  endfacet
  facet normal -0.17374 -0.984792 0
    outer loop
      vertex -61.2758 -31.7303 -12.7
      vertex -61.5252 -31.6863 10.4023
      vertex -61.5252 -31.6863 -12.7
    endloop
  endfacet
  facet normal -0.17374 -0.984792 0
    outer loop
      vertex -61.5252 -31.6863 10.4023
      vertex -61.2758 -31.7303 -12.7
      vertex -61.2758 -31.7303 10.6078
    endloop
  endfacet
  facet normal -0.456196 -0.889879 0
    outer loop
      vertex -62.0047 -31.5252 -12.7
      vertex -62.23 -31.4097 9.97417
      vertex -62.23 -31.4097 -12.7
    endloop
  endfacet
  facet normal -0.456196 -0.889879 0
    outer loop
      vertex -62.23 -31.4097 9.97417
      vertex -62.0047 -31.5252 -12.7
      vertex -62.0047 -31.5252 10.084
    endloop
  endfacet
  facet normal -0.623249 -0.782023 0
    outer loop
      vertex -62.4427 -31.2723 -12.7
      vertex -62.6407 -31.1145 9.85875
      vertex -62.6407 -31.1145 -12.7
    endloop
  endfacet
  facet normal -0.623249 -0.782023 0
    outer loop
      vertex -62.6407 -31.1145 9.85875
      vertex -62.4427 -31.2723 -12.7
      vertex -62.4427 -31.2723 9.89884
    endloop
  endfacet
  facet normal 0.901116 -0.433578 0
    outer loop
      vertex 63.1907 -30.4248 9.99847
      vertex 63.3005 -30.1966 -12.7
      vertex 63.3005 -30.1966 10.1167
    endloop
  endfacet
  facet normal 0.901116 -0.433578 0
    outer loop
      vertex 63.3005 -30.1966 -12.7
      vertex 63.1907 -30.4248 9.99847
      vertex 63.1907 -30.4248 -12.7
    endloop
  endfacet
  facet normal 0.222321 -0.974974 0
    outer loop
      vertex 61.401 -31.7114 -12.7
      vertex 61.6479 -31.6551 10.3109
      vertex 61.401 -31.7114 10.5014
    endloop
  endfacet
  facet normal 0.222321 -0.974974 0
    outer loop
      vertex 61.6479 -31.6551 10.3109
      vertex 61.401 -31.7114 -12.7
      vertex 61.6479 -31.6551 -12.7
    endloop
  endfacet
  facet normal 0.0248836 -0.99969 0
    outer loop
      vertex 60.8967 -31.7492 -12.7
      vertex 61.1498 -31.7429 10.7212
      vertex 60.8967 -31.7492 10.968
    endloop
  endfacet
  facet normal 0.0248836 -0.99969 0
    outer loop
      vertex 61.1498 -31.7429 10.7212
      vertex 60.8967 -31.7492 -12.7
      vertex 61.1498 -31.7429 -12.7
    endloop
  endfacet
  facet normal 0 -1 0
    outer loop
      vertex 60.8967 -31.7492 -12.7
      vertex 59.1647 -31.7492 12.7
      vertex -59.1647 -31.7492 12.7
    endloop
  endfacet
  facet normal 0 -1 0
    outer loop
      vertex -61.0233 -31.7492 -12.7
      vertex -59.1647 -31.7492 12.7
      vertex -61.0233 -31.7492 10.8413
    endloop
  endfacet
  facet normal 0 -1 0
    outer loop
      vertex 60.8967 -31.7492 -12.7
      vertex -59.1647 -31.7492 12.7
      vertex -61.0233 -31.7492 -12.7
    endloop
  endfacet
  facet normal 0 -1 0
    outer loop
      vertex 59.1647 -31.7492 12.7
      vertex 60.8967 -31.7492 -12.7
      vertex 60.8967 -31.7492 10.968
    endloop
  endfacet
  facet normal 0.733075 -0.680148 0
    outer loop
      vertex 62.7335 -31.0283 9.85209
      vertex 62.9057 -30.8427 -12.7
      vertex 62.9057 -30.8427 9.86548
    endloop
  endfacet
  facet normal 0.733075 -0.680148 0
    outer loop
      vertex 62.9057 -30.8427 -12.7
      vertex 62.7335 -31.0283 9.85209
      vertex 62.7335 -31.0283 -12.7
    endloop
  endfacet
  facet normal 0.998761 0.0497603 -0
    outer loop
      vertex 63.5 29.21 -12.7
      vertex 63.4874 29.4629 10.6637
      vertex 63.5 29.21 10.9039
    endloop
  endfacet
  facet normal 0.998761 0.0497603 0
    outer loop
      vertex 63.4874 29.4629 10.6637
      vertex 63.5 29.21 -12.7
      vertex 63.4874 29.4629 -12.7
    endloop
  endfacet
  facet normal 1 0 0
    outer loop
      vertex 63.5 27.4139 12.7
      vertex 63.5 29.21 -12.7
      vertex 63.5 29.21 10.9039
    endloop
  endfacet
  facet normal 1 -0 0
    outer loop
      vertex 63.5 -27.4139 12.7
      vertex 63.5 29.21 -12.7
      vertex 63.5 27.4139 12.7
    endloop
  endfacet
  facet normal 1 0 0
    outer loop
      vertex 63.5 -29.21 -12.7
      vertex 63.5 -27.4139 12.7
      vertex 63.5 -29.21 10.9039
    endloop
  endfacet
  facet normal 1 0 0
    outer loop
      vertex 63.5 -27.4139 12.7
      vertex 63.5 -29.21 -12.7
      vertex 63.5 29.21 -12.7
    endloop
  endfacet
  facet normal 0.939678 0.34206 -0
    outer loop
      vertex 63.3871 29.9587 -12.7
      vertex 63.3005 30.1966 10.1168
      vertex 63.3871 29.9587 10.2681
    endloop
  endfacet
  facet normal 0.939678 0.34206 0
    outer loop
      vertex 63.3005 30.1966 10.1168
      vertex 63.3871 29.9587 -12.7
      vertex 63.3005 30.1966 -12.7
    endloop
  endfacet
  facet normal 0.853214 0.521562 -0
    outer loop
      vertex 63.1907 30.4247 -12.7
      vertex 63.0586 30.6408 9.91446
      vertex 63.1907 30.4247 9.99849
    endloop
  endfacet
  facet normal 0.853214 0.521562 0
    outer loop
      vertex 63.0586 30.6408 9.91446
      vertex 63.1907 30.4247 -12.7
      vertex 63.0586 30.6408 -12.7
    endloop
  endfacet
  facet normal 0.499962 0.866047 0
    outer loop
      vertex 62.1188 31.4703 -12.7
      vertex 62.3381 31.3437 9.93219
      vertex 62.3381 31.3437 -12.7
    endloop
  endfacet
  facet normal 0.499962 0.866047 0
    outer loop
      vertex 62.3381 31.3437 9.93219
      vertex 62.1188 31.4703 -12.7
      vertex 62.1188 31.4703 10.0249
    endloop
  endfacet
  facet normal 0.733075 0.680148 -0
    outer loop
      vertex 62.9057 30.8427 -12.7
      vertex 62.7335 31.0283 9.85211
      vertex 62.9057 30.8427 9.86551
    endloop
  endfacet
  facet normal 0.733075 0.680148 0
    outer loop
      vertex 62.7335 31.0283 9.85211
      vertex 62.9057 30.8427 -12.7
      vertex 62.7335 31.0283 -12.7
    endloop
  endfacet
  facet normal -0.62349 0.781831 0
    outer loop
      vertex -62.4427 31.2723 -12.7
      vertex -62.6407 31.1144 9.85877
      vertex -62.4427 31.2723 9.89886
    endloop
  endfacet
  facet normal -0.62349 0.781831 0
    outer loop
      vertex -62.6407 31.1144 9.85877
      vertex -62.4427 31.2723 -12.7
      vertex -62.6407 31.1144 -12.7
    endloop
  endfacet
  facet normal -0.27086 0.962619 0
    outer loop
      vertex -61.5252 31.6863 -12.7
      vertex -61.769 31.6177 10.2272
      vertex -61.5252 31.6863 10.4024
    endloop
  endfacet
  facet normal -0.27086 0.962619 0
    outer loop
      vertex -61.769 31.6177 10.2272
      vertex -61.5252 31.6863 -12.7
      vertex -61.769 31.6177 -12.7
    endloop
  endfacet
  facet normal -0.542613 -0.839983 0
    outer loop
      vertex -62.23 -31.4097 -12.7
      vertex -62.4427 -31.2723 9.89884
      vertex -62.4427 -31.2723 -12.7
    endloop
  endfacet
  facet normal -0.542613 -0.839983 0
    outer loop
      vertex -62.4427 -31.2723 9.89884
      vertex -62.23 -31.4097 -12.7
      vertex -62.23 -31.4097 9.97417
    endloop
  endfacet
  facet normal -0.995037 0.0995037 0
    outer loop
      vertex -63.4968 29.3366 -12.7
      vertex -63.4716 29.5886 10.5537
      vertex -63.4716 29.5886 -12.7
    endloop
  endfacet
  facet normal -0.995037 0.0995037 0
    outer loop
      vertex -63.4716 29.5886 10.5537
      vertex -63.4968 29.3366 -12.7
      vertex -63.4968 29.3366 10.7804
    endloop
  endfacet
  facet normal 0.499962 -0.866047 0
    outer loop
      vertex 62.1188 -31.4703 -12.7
      vertex 62.3381 -31.3437 9.93217
      vertex 62.1188 -31.4703 10.0248
    endloop
  endfacet
  facet normal 0.499962 -0.866047 0
    outer loop
      vertex 62.3381 -31.3437 9.93217
      vertex 62.1188 -31.4703 -12.7
      vertex 62.3381 -31.3437 -12.7
    endloop
  endfacet
  facet normal 0.583701 -0.811969 0
    outer loop
      vertex 62.3381 -31.3437 -12.7
      vertex 62.5437 -31.1959 9.87437
      vertex 62.3381 -31.3437 9.93217
    endloop
  endfacet
  facet normal 0.583701 -0.811969 0
    outer loop
      vertex 62.5437 -31.1959 9.87437
      vertex 62.3381 -31.3437 -12.7
      vertex 62.5437 -31.1959 -12.7
    endloop
  endfacet
  facet normal 0.797196 -0.603721 0
    outer loop
      vertex 62.9057 -30.8427 9.86548
      vertex 63.0586 -30.6408 -12.7
      vertex 63.0586 -30.6408 9.91444
    endloop
  endfacet
  facet normal 0.797196 -0.603721 0
    outer loop
      vertex 63.0586 -30.6408 -12.7
      vertex 62.9057 -30.8427 9.86548
      vertex 62.9057 -30.8427 -12.7
    endloop
  endfacet
  facet normal 0.901042 0.433732 -0
    outer loop
      vertex 63.3005 30.1966 -12.7
      vertex 63.1907 30.4247 9.99849
      vertex 63.3005 30.1966 10.1168
    endloop
  endfacet
  facet normal 0.901042 0.433732 0
    outer loop
      vertex 63.1907 30.4247 9.99849
      vertex 63.3005 30.1966 -12.7
      vertex 63.1907 30.4247 -12.7
    endloop
  endfacet
  facet normal 0.318241 0.94801 0
    outer loop
      vertex 61.6479 31.655 -12.7
      vertex 61.888 31.5744 10.1515
      vertex 61.888 31.5744 -12.7
    endloop
  endfacet
  facet normal 0.318241 0.94801 0
    outer loop
      vertex 61.888 31.5744 10.1515
      vertex 61.6479 31.655 -12.7
      vertex 61.6479 31.655 10.3109
    endloop
  endfacet
  facet normal -0.698166 0.715936 0
    outer loop
      vertex -62.6407 31.1144 -12.7
      vertex -62.822 30.9376 9.85432
      vertex -62.6407 31.1144 9.85877
    endloop
  endfacet
  facet normal -0.698166 0.715936 0
    outer loop
      vertex -62.822 30.9376 9.85432
      vertex -62.6407 31.1144 -12.7
      vertex -62.822 30.9376 -12.7
    endloop
  endfacet
  facet normal -0.921598 0.388145 0
    outer loop
      vertex -63.3468 30.0787 -12.7
      vertex -63.2485 30.3121 10.0534
      vertex -63.2485 30.3121 -12.7
    endloop
  endfacet
  facet normal -0.921598 0.388145 0
    outer loop
      vertex -63.2485 30.3121 10.0534
      vertex -63.3468 30.0787 -12.7
      vertex -63.3468 30.0787 10.1884
    endloop
  endfacet
  facet normal -0.955514 0.294946 0
    outer loop
      vertex -63.4215 29.8367 -12.7
      vertex -63.3468 30.0787 10.1884
      vertex -63.3468 30.0787 -12.7
    endloop
  endfacet
  facet normal -0.955514 0.294946 0
    outer loop
      vertex -63.3468 30.0787 10.1884
      vertex -63.4215 29.8367 -12.7
      vertex -63.4215 29.8367 10.3557
    endloop
  endfacet
  facet normal -0.17374 0.984792 0
    outer loop
      vertex -61.2758 31.7303 -12.7
      vertex -61.5252 31.6863 10.4024
      vertex -61.2758 31.7303 10.6078
    endloop
  endfacet
  facet normal -0.17374 0.984792 0
    outer loop
      vertex -61.5252 31.6863 10.4024
      vertex -61.2758 31.7303 -12.7
      vertex -61.5252 31.6863 -12.7
    endloop
  endfacet
  facet normal 0 0 -1
    outer loop
      vertex 60.8967 -31.7492 -12.7
      vertex 63.5 -29.21 -12.7
      vertex 63.4874 -29.4629 -12.7
    endloop
  endfacet
  facet normal -0 0 -1
    outer loop
      vertex 63.5 -29.21 -12.7
      vertex 60.8967 -31.7492 -12.7
      vertex 63.5 29.21 -12.7
    endloop
  endfacet
  facet normal 0 0 -1
    outer loop
      vertex 60.8967 -31.7492 -12.7
      vertex 63.4874 -29.4629 -12.7
      vertex 63.4496 -29.7133 -12.7
    endloop
  endfacet
  facet normal 0 0 -1
    outer loop
      vertex 60.8967 31.7492 -12.7
      vertex 63.5 29.21 -12.7
      vertex 60.8967 -31.7492 -12.7
    endloop
  endfacet
  facet normal 0 0 -1
    outer loop
      vertex 60.8967 -31.7492 -12.7
      vertex 63.4496 -29.7133 -12.7
      vertex 63.3871 -29.9587 -12.7
    endloop
  endfacet
  facet normal 0 0 -1
    outer loop
      vertex 63.5 29.21 -12.7
      vertex 60.8967 31.7492 -12.7
      vertex 63.4874 29.4629 -12.7
    endloop
  endfacet
  facet normal 0 0 -1
    outer loop
      vertex 60.8967 -31.7492 -12.7
      vertex 63.3871 -29.9587 -12.7
      vertex 63.3005 -30.1966 -12.7
    endloop
  endfacet
  facet normal 0 0 -1
    outer loop
      vertex 63.4874 29.4629 -12.7
      vertex 60.8967 31.7492 -12.7
      vertex 63.4496 29.7133 -12.7
    endloop
  endfacet
  facet normal 0 0 -1
    outer loop
      vertex 60.8967 -31.7492 -12.7
      vertex 63.3005 -30.1966 -12.7
      vertex 63.1907 -30.4248 -12.7
    endloop
  endfacet
  facet normal 0 0 -1
    outer loop
      vertex 63.4496 29.7133 -12.7
      vertex 60.8967 31.7492 -12.7
      vertex 63.3871 29.9587 -12.7
    endloop
  endfacet
  facet normal 0 0 -1
    outer loop
      vertex 60.8967 -31.7492 -12.7
      vertex 63.1907 -30.4248 -12.7
      vertex 63.0586 -30.6408 -12.7
    endloop
  endfacet
  facet normal 0 0 -1
    outer loop
      vertex 63.3871 29.9587 -12.7
      vertex 60.8967 31.7492 -12.7
      vertex 63.3005 30.1966 -12.7
    endloop
  endfacet
  facet normal 0 0 -1
    outer loop
      vertex 60.8967 -31.7492 -12.7
      vertex 63.0586 -30.6408 -12.7
      vertex 62.9057 -30.8427 -12.7
    endloop
  endfacet
  facet normal 0 0 -1
    outer loop
      vertex 63.3005 30.1966 -12.7
      vertex 60.8967 31.7492 -12.7
      vertex 63.1907 30.4247 -12.7
    endloop
  endfacet
  facet normal 0 0 -1
    outer loop
      vertex 60.8967 -31.7492 -12.7
      vertex 62.9057 -30.8427 -12.7
      vertex 62.7335 -31.0283 -12.7
    endloop
  endfacet
  facet normal 0 0 -1
    outer loop
      vertex 63.1907 30.4247 -12.7
      vertex 60.8967 31.7492 -12.7
      vertex 63.0586 30.6408 -12.7
    endloop
  endfacet
  facet normal 0 0 -1
    outer loop
      vertex 60.8967 -31.7492 -12.7
      vertex 62.7335 -31.0283 -12.7
      vertex 62.5437 -31.1959 -12.7
    endloop
  endfacet
  facet normal 0 0 -1
    outer loop
      vertex 63.0586 30.6408 -12.7
      vertex 60.8967 31.7492 -12.7
      vertex 62.9057 30.8427 -12.7
    endloop
  endfacet
  facet normal 0 0 -1
    outer loop
      vertex 60.8967 -31.7492 -12.7
      vertex 62.5437 -31.1959 -12.7
      vertex 62.3381 -31.3437 -12.7
    endloop
  endfacet
  facet normal 0 0 -1
    outer loop
      vertex 62.9057 30.8427 -12.7
      vertex 60.8967 31.7492 -12.7
      vertex 62.7335 31.0283 -12.7
    endloop
  endfacet
  facet normal 0 0 -1
    outer loop
      vertex 60.8967 -31.7492 -12.7
      vertex 62.3381 -31.3437 -12.7
      vertex 62.1188 -31.4703 -12.7
    endloop
  endfacet
  facet normal 0 0 -1
    outer loop
      vertex 62.7335 31.0283 -12.7
      vertex 60.8967 31.7492 -12.7
      vertex 62.5437 31.1958 -12.7
    endloop
  endfacet
  facet normal 0 0 -1
    outer loop
      vertex 60.8967 -31.7492 -12.7
      vertex 62.1188 -31.4703 -12.7
      vertex 61.888 -31.5744 -12.7
    endloop
  endfacet
  facet normal 0 0 -1
    outer loop
      vertex 62.5437 31.1958 -12.7
      vertex 60.8967 31.7492 -12.7
      vertex 62.3381 31.3437 -12.7
    endloop
  endfacet
  facet normal 0 0 -1
    outer loop
      vertex 60.8967 -31.7492 -12.7
      vertex 61.888 -31.5744 -12.7
      vertex 61.6479 -31.6551 -12.7
    endloop
  endfacet
  facet normal 0 0 -1
    outer loop
      vertex 62.3381 31.3437 -12.7
      vertex 60.8967 31.7492 -12.7
      vertex 62.1188 31.4703 -12.7
    endloop
  endfacet
  facet normal 0 0 -1
    outer loop
      vertex 60.8967 -31.7492 -12.7
      vertex 61.6479 -31.6551 -12.7
      vertex 61.401 -31.7114 -12.7
    endloop
  endfacet
  facet normal 0 0 -1
    outer loop
      vertex 62.1188 31.4703 -12.7
      vertex 60.8967 31.7492 -12.7
      vertex 61.888 31.5744 -12.7
    endloop
  endfacet
  facet normal 0 0 -1
    outer loop
      vertex 60.8967 -31.7492 -12.7
      vertex 61.401 -31.7114 -12.7
      vertex 61.1498 -31.7429 -12.7
    endloop
  endfacet
  facet normal 0 0 -1
    outer loop
      vertex 61.888 31.5744 -12.7
      vertex 60.8967 31.7492 -12.7
      vertex 61.6479 31.655 -12.7
    endloop
  endfacet
  facet normal 0 0 -1
    outer loop
      vertex 61.6479 31.655 -12.7
      vertex 60.8967 31.7492 -12.7
      vertex 61.401 31.7114 -12.7
    endloop
  endfacet
  facet normal 0 0 -1
    outer loop
      vertex 61.401 31.7114 -12.7
      vertex 60.8967 31.7492 -12.7
      vertex 61.1498 31.7429 -12.7
    endloop
  endfacet
  facet normal 0 0 -1
    outer loop
      vertex -61.0233 -31.7492 -12.7
      vertex 60.8967 31.7492 -12.7
      vertex 60.8967 -31.7492 -12.7
    endloop
  endfacet
  facet normal 0 0 -1
    outer loop
      vertex -61.0233 -31.7492 -12.7
      vertex -61.0233 31.7492 -12.7
      vertex 60.8967 31.7492 -12.7
    endloop
  endfacet
  facet normal 0 0 -1
    outer loop
      vertex -63.4968 -29.3366 -12.7
      vertex -61.0233 -31.7492 -12.7
      vertex -61.2758 -31.7303 -12.7
    endloop
  endfacet
  facet normal 0 0 -1
    outer loop
      vertex -61.0233 -31.7492 -12.7
      vertex -63.4968 -29.3366 -12.7
      vertex -61.0233 31.7492 -12.7
    endloop
  endfacet
  facet normal 0 0 -1
    outer loop
      vertex -63.4968 -29.3366 -12.7
      vertex -61.2758 -31.7303 -12.7
      vertex -61.5252 -31.6863 -12.7
    endloop
  endfacet
  facet normal 0 0 -1
    outer loop
      vertex -63.4968 29.3366 -12.7
      vertex -61.0233 31.7492 -12.7
      vertex -63.4968 -29.3366 -12.7
    endloop
  endfacet
  facet normal 0 0 -1
    outer loop
      vertex -63.4968 -29.3366 -12.7
      vertex -61.5252 -31.6863 -12.7
      vertex -61.769 -31.6177 -12.7
    endloop
  endfacet
  facet normal 0 0 -1
    outer loop
      vertex -61.0233 31.7492 -12.7
      vertex -63.4968 29.3366 -12.7
      vertex -61.2758 31.7303 -12.7
    endloop
  endfacet
  facet normal 0 0 -1
    outer loop
      vertex -63.4968 -29.3366 -12.7
      vertex -61.769 -31.6177 -12.7
      vertex -62.0047 -31.5252 -12.7
    endloop
  endfacet
  facet normal 0 0 -1
    outer loop
      vertex -61.2758 31.7303 -12.7
      vertex -63.4968 29.3366 -12.7
      vertex -61.5252 31.6863 -12.7
    endloop
  endfacet
  facet normal 0 0 -1
    outer loop
      vertex -63.4968 -29.3366 -12.7
      vertex -62.0047 -31.5252 -12.7
      vertex -62.23 -31.4097 -12.7
    endloop
  endfacet
  facet normal 0 0 -1
    outer loop
      vertex -61.5252 31.6863 -12.7
      vertex -63.4968 29.3366 -12.7
      vertex -61.769 31.6177 -12.7
    endloop
  endfacet
  facet normal 0 0 -1
    outer loop
      vertex -63.4968 -29.3366 -12.7
      vertex -62.23 -31.4097 -12.7
      vertex -62.4427 -31.2723 -12.7
    endloop
  endfacet
  facet normal 0 0 -1
    outer loop
      vertex -61.769 31.6177 -12.7
      vertex -63.4968 29.3366 -12.7
      vertex -62.0047 31.5252 -12.7
    endloop
  endfacet
  facet normal 0 0 -1
    outer loop
      vertex -63.4968 -29.3366 -12.7
      vertex -62.4427 -31.2723 -12.7
      vertex -62.6407 -31.1145 -12.7
    endloop
  endfacet
  facet normal 0 0 -1
    outer loop
      vertex -62.0047 31.5252 -12.7
      vertex -63.4968 29.3366 -12.7
      vertex -62.23 31.4097 -12.7
    endloop
  endfacet
  facet normal 0 0 -1
    outer loop
      vertex -63.4968 -29.3366 -12.7
      vertex -62.6407 -31.1145 -12.7
      vertex -62.822 -30.9376 -12.7
    endloop
  endfacet
  facet normal 0 0 -1
    outer loop
      vertex -62.23 31.4097 -12.7
      vertex -63.4968 29.3366 -12.7
      vertex -62.4427 31.2723 -12.7
    endloop
  endfacet
  facet normal 0 0 -1
    outer loop
      vertex -63.4968 -29.3366 -12.7
      vertex -62.822 -30.9376 -12.7
      vertex -62.9847 -30.7437 -12.7
    endloop
  endfacet
  facet normal 0 0 -1
    outer loop
      vertex -62.4427 31.2723 -12.7
      vertex -63.4968 29.3366 -12.7
      vertex -62.6407 31.1144 -12.7
    endloop
  endfacet
  facet normal 0 0 -1
    outer loop
      vertex -63.4968 -29.3366 -12.7
      vertex -62.9847 -30.7437 -12.7
      vertex -63.1274 -30.5344 -12.7
    endloop
  endfacet
  facet normal 0 0 -1
    outer loop
      vertex -62.6407 31.1144 -12.7
      vertex -63.4968 29.3366 -12.7
      vertex -62.822 30.9376 -12.7
    endloop
  endfacet
  facet normal 0 0 -1
    outer loop
      vertex -63.4968 -29.3366 -12.7
      vertex -63.1274 -30.5344 -12.7
      vertex -63.2485 -30.3121 -12.7
    endloop
  endfacet
  facet normal 0 0 -1
    outer loop
      vertex -62.822 30.9376 -12.7
      vertex -63.4968 29.3366 -12.7
      vertex -62.9847 30.7436 -12.7
    endloop
  endfacet
  facet normal 0 0 -1
    outer loop
      vertex -63.4968 -29.3366 -12.7
      vertex -63.2485 -30.3121 -12.7
      vertex -63.3468 -30.0787 -12.7
    endloop
  endfacet
  facet normal 0 0 -1
    outer loop
      vertex -62.9847 30.7436 -12.7
      vertex -63.4968 29.3366 -12.7
      vertex -63.1274 30.5344 -12.7
    endloop
  endfacet
  facet normal 0 0 -1
    outer loop
      vertex -63.4968 -29.3366 -12.7
      vertex -63.3468 -30.0787 -12.7
      vertex -63.4215 -29.8368 -12.7
    endloop
  endfacet
  facet normal 0 0 -1
    outer loop
      vertex -63.1274 30.5344 -12.7
      vertex -63.4968 29.3366 -12.7
      vertex -63.2485 30.3121 -12.7
    endloop
  endfacet
  facet normal 0 0 -1
    outer loop
      vertex -63.4968 -29.3366 -12.7
      vertex -63.4215 -29.8368 -12.7
      vertex -63.4716 -29.5886 -12.7
    endloop
  endfacet
  facet normal 0 0 -1
    outer loop
      vertex -63.2485 30.3121 -12.7
      vertex -63.4968 29.3366 -12.7
      vertex -63.3468 30.0787 -12.7
    endloop
  endfacet
  facet normal 0 0 -1
    outer loop
      vertex -63.3468 30.0787 -12.7
      vertex -63.4968 29.3366 -12.7
      vertex -63.4215 29.8367 -12.7
    endloop
  endfacet
  facet normal 0 0 -1
    outer loop
      vertex -63.4215 29.8367 -12.7
      vertex -63.4968 29.3366 -12.7
      vertex -63.4716 29.5886 -12.7
    endloop
  endfacet
  facet normal -0.98023 -0.197863 -0
    outer loop
      vertex -63.4215 -29.8368 10.3557
      vertex -63.4716 -29.5886 -12.7
      vertex -63.4215 -29.8368 -12.7
    endloop
  endfacet
  facet normal -0.98023 -0.197863 0
    outer loop
      vertex -63.4716 -29.5886 -12.7
      vertex -63.4215 -29.8368 10.3557
      vertex -63.4716 -29.5886 10.5537
    endloop
  endfacet
  facet normal -0.921598 -0.388145 -0
    outer loop
      vertex -63.2485 -30.3121 10.0534
      vertex -63.3468 -30.0787 -12.7
      vertex -63.2485 -30.3121 -12.7
    endloop
  endfacet
  facet normal -0.921598 -0.388145 0
    outer loop
      vertex -63.3468 -30.0787 -12.7
      vertex -63.2485 -30.3121 10.0534
      vertex -63.3468 -30.0787 10.1883
    endloop
  endfacet
  facet normal -0.95548 -0.295057 -0
    outer loop
      vertex -63.3468 -30.0787 10.1883
      vertex -63.4215 -29.8368 -12.7
      vertex -63.3468 -30.0787 -12.7
    endloop
  endfacet
  facet normal -0.95548 -0.295057 0
    outer loop
      vertex -63.4215 -29.8368 -12.7
      vertex -63.3468 -30.0787 10.1883
      vertex -63.4215 -29.8368 10.3557
    endloop
  endfacet
  facet normal 0.411153 0.911566 0
    outer loop
      vertex 61.888 31.5744 -12.7
      vertex 62.1188 31.4703 10.0249
      vertex 62.1188 31.4703 -12.7
    endloop
  endfacet
  facet normal 0.411153 0.911566 0
    outer loop
      vertex 62.1188 31.4703 10.0249
      vertex 61.888 31.5744 -12.7
      vertex 61.888 31.5744 10.1515
    endloop
  endfacet
  facet normal -0.82611 0.563508 0
    outer loop
      vertex -63.1274 30.5344 -12.7
      vertex -62.9847 30.7436 9.88554
      vertex -62.9847 30.7436 -12.7
    endloop
  endfacet
  facet normal -0.82611 0.563508 0
    outer loop
      vertex -62.9847 30.7436 9.88554
      vertex -63.1274 30.5344 -12.7
      vertex -63.1274 30.5344 9.95211
    endloop
  endfacet
  facet normal -0.76621 0.64259 0
    outer loop
      vertex -62.9847 30.7436 -12.7
      vertex -62.822 30.9376 9.85432
      vertex -62.822 30.9376 -12.7
    endloop
  endfacet
  facet normal -0.76621 0.64259 0
    outer loop
      vertex -62.822 30.9376 9.85432
      vertex -62.9847 30.7436 -12.7
      vertex -62.9847 30.7436 9.88554
    endloop
  endfacet
  facet normal -0.980214 0.197939 0
    outer loop
      vertex -63.4716 29.5886 -12.7
      vertex -63.4215 29.8367 10.3557
      vertex -63.4215 29.8367 -12.7
    endloop
  endfacet
  facet normal -0.980214 0.197939 0
    outer loop
      vertex -63.4215 29.8367 10.3557
      vertex -63.4716 29.5886 -12.7
      vertex -63.4716 29.5886 10.5537
    endloop
  endfacet
  facet normal -0.542613 0.839983 0
    outer loop
      vertex -62.23 31.4097 -12.7
      vertex -62.4427 31.2723 9.89886
      vertex -62.23 31.4097 9.9742
    endloop
  endfacet
  facet normal -0.542613 0.839983 0
    outer loop
      vertex -62.4427 31.2723 9.89886
      vertex -62.23 31.4097 -12.7
      vertex -62.4427 31.2723 -12.7
    endloop
  endfacet
  facet normal -0.456196 0.889879 0
    outer loop
      vertex -62.0047 31.5252 -12.7
      vertex -62.23 31.4097 9.9742
      vertex -62.0047 31.5252 10.084
    endloop
  endfacet
  facet normal -0.456196 0.889879 0
    outer loop
      vertex -62.23 31.4097 9.9742
      vertex -62.0047 31.5252 -12.7
      vertex -62.23 31.4097 -12.7
    endloop
  endfacet
  facet normal -0.365322 0.930881 0
    outer loop
      vertex -61.769 31.6177 -12.7
      vertex -62.0047 31.5252 10.084
      vertex -61.769 31.6177 10.2272
    endloop
  endfacet
  facet normal -0.365322 0.930881 0
    outer loop
      vertex -62.0047 31.5252 10.084
      vertex -61.769 31.6177 -12.7
      vertex -62.0047 31.5252 -12.7
    endloop
  endfacet
  facet normal -0.766047 -0.642784 -0
    outer loop
      vertex -62.822 -30.9376 9.85429
      vertex -62.9847 -30.7437 -12.7
      vertex -62.822 -30.9376 -12.7
    endloop
  endfacet
  facet normal -0.766047 -0.642784 0
    outer loop
      vertex -62.9847 -30.7437 -12.7
      vertex -62.822 -30.9376 9.85429
      vertex -62.9847 -30.7437 9.88552
    endloop
  endfacet
  facet normal -0.826236 -0.563325 -0
    outer loop
      vertex -62.9847 -30.7437 9.88552
      vertex -63.1274 -30.5344 -12.7
      vertex -62.9847 -30.7437 -12.7
    endloop
  endfacet
  facet normal -0.826236 -0.563325 0
    outer loop
      vertex -63.1274 -30.5344 -12.7
      vertex -62.9847 -30.7437 9.88552
      vertex -63.1274 -30.5344 9.95208
    endloop
  endfacet
  facet normal -0.878152 -0.478382 -0
    outer loop
      vertex -63.1274 -30.5344 9.95208
      vertex -63.2485 -30.3121 -12.7
      vertex -63.1274 -30.5344 -12.7
    endloop
  endfacet
  facet normal -0.878152 -0.478382 0
    outer loop
      vertex -63.2485 -30.3121 -12.7
      vertex -63.1274 -30.5344 9.95208
      vertex -63.2485 -30.3121 10.0534
    endloop
  endfacet
  facet normal 0.124424 0.992229 0
    outer loop
      vertex 61.1498 31.7429 -12.7
      vertex 61.401 31.7114 10.5015
      vertex 61.401 31.7114 -12.7
    endloop
  endfacet
  facet normal 0.124424 0.992229 0
    outer loop
      vertex 61.401 31.7114 10.5015
      vertex 61.1498 31.7429 -12.7
      vertex 61.1498 31.7429 10.7212
    endloop
  endfacet
  facet normal 0.222696 0.974888 0
    outer loop
      vertex 61.401 31.7114 -12.7
      vertex 61.6479 31.655 10.3109
      vertex 61.6479 31.655 -12.7
    endloop
  endfacet
  facet normal 0.222696 0.974888 0
    outer loop
      vertex 61.6479 31.655 10.3109
      vertex 61.401 31.7114 -12.7
      vertex 61.401 31.7114 10.5015
    endloop
  endfacet
endsolid OpenSCAD_Model
