solid OpenSCAD_Model
  facet normal 0.998761 0.0497603 0
    outer loop
      vertex 57.658 23.368 6.35
      vertex 57.6454 23.6209 -6.35
      vertex 57.6454 23.6209 1.26998
    endloop
  endfacet
  facet normal 0.939678 0.34206 0
    outer loop
      vertex 57.5451 24.1167 1.26998
      vertex 57.5451 24.1167 -6.35
      vertex 57.4585 24.3546 -6.35
    endloop
  endfacet
  facet normal 0 0 1
    outer loop
      vertex -57.5795 -23.9948 6.35
      vertex -56.6007 -25.4303 6.35
      vertex -55.1813 -25.9072 6.35
    endloop
  endfacet
  facet normal 0.988797 0.149267 -0
    outer loop
      vertex 57.6454 23.6209 -6.35
      vertex 57.6076 23.8713 1.26998
      vertex 57.6454 23.6209 1.26998
    endloop
  endfacet
  facet normal 0 0 1
    outer loop
      vertex 57.0638 25.0007 6.35
      vertex 56.7017 25.3538 6.35
      vertex 56.4961 25.5017 6.35
    endloop
  endfacet
  facet normal 0.969065 0.246807 0
    outer loop
      vertex 57.6076 23.8713 1.26998
      vertex 57.6076 23.8713 -1.27
      vertex 57.5451 24.1167 1.26998
    endloop
  endfacet
  facet normal 0 0 -1
    outer loop
      vertex 57.3487 24.5828 -6.35
      vertex 57.4585 24.3546 -6.35
      vertex 57.6454 23.6209 -6.35
    endloop
  endfacet
  facet normal 0.988797 0.149267 0
    outer loop
      vertex 57.6454 23.6209 -6.35
      vertex 57.6076 23.8713 -1.27
      vertex 57.6076 23.8713 1.26998
    endloop
  endfacet
  facet normal 0 0 1
    outer loop
      vertex 57.658 23.368 6.35
      vertex 57.5451 24.1167 6.35
      vertex 57.3487 24.5828 6.35
    endloop
  endfacet
  facet normal 0.969065 0.246807 0
    outer loop
      vertex 57.5451 24.1167 6.35
      vertex 57.6076 23.8713 6.35
      vertex 57.6076 23.8713 1.26998
    endloop
  endfacet
  facet normal 0.853106 0.521738 -0
    outer loop
      vertex 57.3487 24.5828 -6.35
      vertex 57.2166 24.7988 -6.35
      vertex 57.3487 24.5828 6.35
    endloop
  endfacet
  facet normal -0 0 1
    outer loop
      vertex -57.5795 -23.9948 6.35
      vertex -55.1813 -25.9072 6.35
      vertex 57.658 23.368 6.35
    endloop
  endfacet
  facet normal 0 0 -1
    outer loop
      vertex -57.4065 -24.4701 -6.35
      vertex 57.3487 24.5828 -6.35
      vertex 57.6454 23.6209 -6.35
    endloop
  endfacet
  facet normal 0.732878 0.68036 0
    outer loop
      vertex 56.8915 25.1863 1.26998
      vertex 57.0638 25.0007 6.35
      vertex 57.0638 25.0007 1.26998
    endloop
  endfacet
  facet normal 0.988797 0.149267 -0
    outer loop
      vertex 57.6076 23.8713 1.26998
      vertex 57.6076 23.8713 6.35
      vertex 57.6454 23.6209 1.26998
    endloop
  endfacet
  facet normal 0.969065 0.246807 -0
    outer loop
      vertex 57.5451 24.1167 1.26998
      vertex 57.5451 24.1167 6.35
      vertex 57.6076 23.8713 1.26998
    endloop
  endfacet
  facet normal 0.901116 0.433578 0
    outer loop
      vertex 57.3487 24.5828 6.35
      vertex 57.4585 24.3546 -6.35
      vertex 57.3487 24.5828 -6.35
    endloop
  endfacet
  facet normal 0.969065 0.246807 0
    outer loop
      vertex 57.6076 23.8713 -1.27
      vertex 57.5451 24.1167 -6.35
      vertex 57.5451 24.1167 1.26998
    endloop
  endfacet
  facet normal 0 0 -1
    outer loop
      vertex 57.6454 23.6209 -6.35
      vertex 56.046 -25.7324 -6.35
      vertex -57.4065 -24.4701 -6.35
    endloop
  endfacet
  facet normal 0 0 -1
    outer loop
      vertex 56.046 -25.7324 -6.35
      vertex 55.0547 -25.9072 -6.35
      vertex -55.1813 -25.9072 -6.35
    endloop
  endfacet
  facet normal 0 0 1
    outer loop
      vertex 57.3487 24.5828 6.35
      vertex -57.5795 -23.9948 6.35
      vertex 57.658 23.368 6.35
    endloop
  endfacet
  facet normal 0 0 -1
    outer loop
      vertex 55.8059 25.813 -6.35
      vertex 56.4961 25.5017 -6.35
      vertex 57.2166 24.7988 -6.35
    endloop
  endfacet
  facet normal 0 0 -1
    outer loop
      vertex -57.4065 -24.4701 -6.35
      vertex -57.5048 -22.4993 -6.35
      vertex 57.2166 24.7988 -6.35
    endloop
  endfacet
  facet normal 0 0 1
    outer loop
      vertex 57.3487 24.5828 6.35
      vertex 57.0638 25.0007 6.35
      vertex 56.4961 25.5017 6.35
    endloop
  endfacet
  facet normal 0.901116 0.433578 0
    outer loop
      vertex 57.3487 24.5828 6.35
      vertex 57.4585 24.3546 6.35
      vertex 57.4585 24.3546 -6.35
    endloop
  endfacet
  facet normal 0.939678 0.34206 -0
    outer loop
      vertex 57.5451 24.1167 1.26998
      vertex 57.4585 24.3546 -6.35
      vertex 57.5451 24.1167 6.35
    endloop
  endfacet
  facet normal 0 0 1
    outer loop
      vertex 57.658 23.368 6.35
      vertex 57.6076 23.8713 6.35
      vertex 57.5451 24.1167 6.35
    endloop
  endfacet
  facet normal 0 0 1
    outer loop
      vertex 57.658 23.368 6.35
      vertex 57.6454 23.6209 6.35
      vertex 57.6076 23.8713 6.35
    endloop
  endfacet
  facet normal 0 -0 -1
    outer loop
      vertex 57.6454 23.6209 -6.35
      vertex 57.658 -23.368 -6.35
      vertex 56.046 -25.7324 -6.35
    endloop
  endfacet
  facet normal 0 0 -1
    outer loop
      vertex 57.6454 23.6209 -6.35
      vertex 57.658 23.368 -6.35
      vertex 57.658 -23.368 -6.35
    endloop
  endfacet
  facet normal 0 0 1
    outer loop
      vertex 57.3487 24.5828 6.35
      vertex -56.1627 -21.0528 6.35
      vertex -57.5795 -23.9948 6.35
    endloop
  endfacet
  facet normal 0 0 1
    outer loop
      vertex 57.3487 24.5828 6.35
      vertex 56.4961 25.5017 6.35
      vertex -56.1627 -21.0528 6.35
    endloop
  endfacet
  facet normal 0 0 1
    outer loop
      vertex -56.6007 -25.4303 6.35
      vertex -55.927 -25.7757 6.35
      vertex -55.1813 -25.9072 6.35
    endloop
  endfacet
  facet normal 1 0 0
    outer loop
      vertex 57.658 23.368 6.35
      vertex 57.658 -23.368 6.35
      vertex 57.658 -23.368 -6.35
    endloop
  endfacet
  facet normal 0.797386 0.60347 0
    outer loop
      vertex 57.0638 25.0007 1.26998
      vertex 57.2166 24.7988 -6.35
      vertex 57.0638 25.0007 -1.27
    endloop
  endfacet
  facet normal 0.732878 0.68036 0
    outer loop
      vertex 56.8915 25.1863 1.26998
      vertex 57.0638 25.0007 1.26998
      vertex 57.0638 25.0007 -1.27
    endloop
  endfacet
  facet normal 0 0 -1
    outer loop
      vertex -57.4065 -24.4701 -6.35
      vertex 57.2166 24.7988 -6.35
      vertex 57.3487 24.5828 -6.35
    endloop
  endfacet
  facet normal 0.661687 0.74978 0
    outer loop
      vertex 56.8915 25.1863 1.26998
      vertex 56.7017 25.3538 -6.35
      vertex 56.7017 25.3538 6.35
    endloop
  endfacet
  facet normal 0.969065 0.246807 0
    outer loop
      vertex 57.6076 23.8713 -1.27
      vertex 57.6076 23.8713 -6.35
      vertex 57.5451 24.1167 -6.35
    endloop
  endfacet
  facet normal 0 0 -1
    outer loop
      vertex 57.4585 24.3546 -6.35
      vertex 57.5451 24.1167 -6.35
      vertex 57.6454 23.6209 -6.35
    endloop
  endfacet
  facet normal 0 0 1
    outer loop
      vertex 57.5451 24.1167 6.35
      vertex 57.4585 24.3546 6.35
      vertex 57.3487 24.5828 6.35
    endloop
  endfacet
  facet normal 0.939678 0.34206 -0
    outer loop
      vertex 57.4585 24.3546 -6.35
      vertex 57.4585 24.3546 6.35
      vertex 57.5451 24.1167 6.35
    endloop
  endfacet
  facet normal 0.998761 0.0497603 -0
    outer loop
      vertex 57.6454 23.6209 1.26998
      vertex 57.6454 23.6209 6.35
      vertex 57.658 23.368 6.35
    endloop
  endfacet
  facet normal 0.988797 0.149267 0
    outer loop
      vertex 57.6076 23.8713 6.35
      vertex 57.6454 23.6209 6.35
      vertex 57.6454 23.6209 1.26998
    endloop
  endfacet
  facet normal 0 0 1
    outer loop
      vertex -55.1813 -25.9072 6.35
      vertex 56.046 -25.7324 6.35
      vertex 57.658 23.368 6.35
    endloop
  endfacet
  facet normal 0 0 -1
    outer loop
      vertex 57.658 -23.368 -6.35
      vertex 57.2166 -24.7988 -6.35
      vertex 56.046 -25.7324 -6.35
    endloop
  endfacet
  facet normal 0.998761 0.0497603 0
    outer loop
      vertex 57.658 23.368 6.35
      vertex 57.658 23.368 -6.35
      vertex 57.6454 23.6209 -6.35
    endloop
  endfacet
  facet normal 1 0 0
    outer loop
      vertex 57.658 -23.368 -6.35
      vertex 57.658 23.368 -6.35
      vertex 57.658 23.368 6.35
    endloop
  endfacet
  facet normal 0 0 -1
    outer loop
      vertex 55.8059 25.813 -6.35
      vertex 56.2768 25.6283 -6.35
      vertex 56.4961 25.5017 -6.35
    endloop
  endfacet
  facet normal 0 -0 1
    outer loop
      vertex -56.1627 -21.0528 6.35
      vertex -56.1627 25.6832 6.35
      vertex -57.4065 -22.2659 6.35
    endloop
  endfacet
  facet normal 0 -0 1
    outer loop
      vertex -57.5795 -22.7413 6.35
      vertex -56.1627 25.6832 6.35
      vertex -57.6549 -23.4946 6.35
    endloop
  endfacet
  facet normal 0.583961 0.811781 0
    outer loop
      vertex 56.7017 25.3538 6.35
      vertex 56.7017 25.3538 -6.35
      vertex 56.4961 25.5017 -6.35
    endloop
  endfacet
  facet normal 0 0 1
    outer loop
      vertex -57.5795 -23.9948 6.35
      vertex -57.2854 -24.6924 6.35
      vertex -56.6007 -25.4303 6.35
    endloop
  endfacet
  facet normal -0.826236 -0.563325 -0
    outer loop
      vertex -57.2854 -24.6924 6.35
      vertex -57.2854 -24.6924 -6.35
      vertex -57.1427 -24.9017 -6.35
    endloop
  endfacet
  facet normal -0 0 -1
    outer loop
      vertex 56.046 -25.7324 -6.35
      vertex -55.1813 -25.9072 -6.35
      vertex -57.4065 -24.4701 -6.35
    endloop
  endfacet
  facet normal 0 -1 0
    outer loop
      vertex -55.1813 -25.9072 -6.35
      vertex 55.0547 -25.9072 -6.35
      vertex -55.1813 -25.9072 6.35
    endloop
  endfacet
  facet normal 0 0 -1
    outer loop
      vertex 57.658 -23.368 -6.35
      vertex 57.6454 -23.6209 -6.35
      vertex 57.6076 -23.8713 -6.35
    endloop
  endfacet
  facet normal 0 0 1
    outer loop
      vertex 56.046 -25.7324 6.35
      vertex 57.658 -23.368 6.35
      vertex 57.658 23.368 6.35
    endloop
  endfacet
  facet normal 0.853106 0.521738 -0
    outer loop
      vertex 57.2166 24.7988 -6.35
      vertex 57.2166 24.7988 1.26998
      vertex 57.3487 24.5828 6.35
    endloop
  endfacet
  facet normal 0.797386 0.60347 0
    outer loop
      vertex 57.0638 25.0007 1.26998
      vertex 57.2166 24.7988 1.26998
      vertex 57.2166 24.7988 -6.35
    endloop
  endfacet
  facet normal 0 0 -1
    outer loop
      vertex -57.4065 -24.4701 -6.35
      vertex -57.6549 -23.2414 -6.35
      vertex -57.5048 -22.4993 -6.35
    endloop
  endfacet
  facet normal 0 0 1
    outer loop
      vertex -57.4065 -22.2659 6.35
      vertex -57.5795 -22.7413 6.35
      vertex -57.6549 -23.4946 6.35
    endloop
  endfacet
  facet normal 0.988797 0.149267 0
    outer loop
      vertex 57.6454 23.6209 -6.35
      vertex 57.6076 23.8713 -6.35
      vertex 57.6076 23.8713 -1.27
    endloop
  endfacet
  facet normal 0 0 -1
    outer loop
      vertex 57.5451 24.1167 -6.35
      vertex 57.6076 23.8713 -6.35
      vertex 57.6454 23.6209 -6.35
    endloop
  endfacet
  facet normal -0.98023 -0.197863 -0
    outer loop
      vertex -57.6296 -23.7466 -1.27
      vertex -57.6296 -23.7466 -6.35
      vertex -57.5795 -23.9948 -1.27
    endloop
  endfacet
  facet normal 0.583961 0.811781 0
    outer loop
      vertex 56.7017 25.3538 6.35
      vertex 56.4961 25.5017 -6.35
      vertex 56.4961 25.5017 6.35
    endloop
  endfacet
  facet normal -0.994998 -0.0998946 0
    outer loop
      vertex -57.6296 -23.7466 -1.27
      vertex -57.6296 -23.7466 6.35
      vertex -57.6549 -23.4946 6.35
    endloop
  endfacet
  facet normal 0 0 1
    outer loop
      vertex -56.1627 -21.0528 6.35
      vertex -57.4065 -22.2659 6.35
      vertex -57.5795 -23.9948 6.35
    endloop
  endfacet
  facet normal 0.797386 0.60347 0
    outer loop
      vertex 57.0638 25.0007 6.35
      vertex 57.2166 24.7988 6.35
      vertex 57.2166 24.7988 1.26998
    endloop
  endfacet
  facet normal 0.797386 0.60347 -0
    outer loop
      vertex 57.0638 25.0007 1.26998
      vertex 57.0638 25.0007 6.35
      vertex 57.2166 24.7988 1.26998
    endloop
  endfacet
  facet normal 0 0 -1
    outer loop
      vertex -57.5048 -22.4993 -6.35
      vertex 55.8059 25.813 -6.35
      vertex 57.2166 24.7988 -6.35
    endloop
  endfacet
  facet normal 0 -0 1
    outer loop
      vertex -57.4065 -22.2659 6.35
      vertex -56.1627 25.6832 6.35
      vertex -57.5795 -22.7413 6.35
    endloop
  endfacet
  facet normal -0.98023 -0.197863 0
    outer loop
      vertex -57.6296 -23.7466 -6.35
      vertex -57.5795 -23.9948 -6.35
      vertex -57.5795 -23.9948 -1.27
    endloop
  endfacet
  facet normal -0.542613 -0.839983 0
    outer loop
      vertex -56.6007 -25.4303 -6.35
      vertex -56.388 -25.5677 1.26998
      vertex -56.6007 -25.4303 6.35
    endloop
  endfacet
  facet normal 0 0 -1
    outer loop
      vertex -55.1813 -25.9072 -6.35
      vertex -55.927 -25.7757 -6.35
      vertex -57.4065 -24.4701 -6.35
    endloop
  endfacet
  facet normal -0.27086 -0.962619 0
    outer loop
      vertex -55.927 -25.7757 -6.35
      vertex -55.6832 -25.8443 -6.35
      vertex -55.927 -25.7757 6.35
    endloop
  endfacet
  facet normal 0 0 1
    outer loop
      vertex -55.1813 -25.9072 6.35
      vertex 55.0547 -25.9072 6.35
      vertex 56.046 -25.7324 6.35
    endloop
  endfacet
  facet normal 0.222321 -0.974974 0
    outer loop
      vertex 55.8059 -25.8131 -6.35
      vertex 55.559 -25.8694 6.35
      vertex 55.559 -25.8694 -6.35
    endloop
  endfacet
  facet normal 0 0 1
    outer loop
      vertex 56.046 -25.7324 6.35
      vertex 57.2166 -24.7988 6.35
      vertex 57.658 -23.368 6.35
    endloop
  endfacet
  facet normal 0 0 -1
    outer loop
      vertex 57.658 -23.368 -6.35
      vertex 57.6076 -23.8713 -6.35
      vertex 57.5451 -24.1167 -6.35
    endloop
  endfacet
  facet normal 0.411153 -0.911566 0
    outer loop
      vertex 56.046 -25.7324 -6.35
      vertex 56.2768 -25.6283 -1.27
      vertex 56.046 -25.7324 6.35
    endloop
  endfacet
  facet normal 0.411153 -0.911566 0
    outer loop
      vertex 56.046 -25.7324 -6.35
      vertex 56.2768 -25.6283 -6.35
      vertex 56.2768 -25.6283 -1.27
    endloop
  endfacet
  facet normal -0.994998 -0.0998946 0
    outer loop
      vertex -57.6549 -23.4946 6.35
      vertex -57.6296 -23.7466 -6.35
      vertex -57.6296 -23.7466 -1.27
    endloop
  endfacet
  facet normal -1 0 0
    outer loop
      vertex -57.6549 -23.2414 -6.35
      vertex -57.6549 -23.4946 -6.35
      vertex -57.6549 -23.4946 6.35
    endloop
  endfacet
  facet normal -0.921598 -0.388145 0
    outer loop
      vertex -57.4065 -24.4701 -6.35
      vertex -57.4065 -24.4701 6.35
      vertex -57.5048 -24.2367 6.35
    endloop
  endfacet
  facet normal -0.98023 -0.197863 0
    outer loop
      vertex -57.6296 -23.7466 -1.27
      vertex -57.5795 -23.9948 -1.27
      vertex -57.5795 -23.9948 6.35
    endloop
  endfacet
  facet normal 0 0 1
    outer loop
      vertex -57.4065 -22.2659 6.35
      vertex -57.6549 -23.4946 6.35
      vertex -57.5795 -23.9948 6.35
    endloop
  endfacet
  facet normal 0.222696 0.974888 0
    outer loop
      vertex 55.8059 25.813 -6.35
      vertex 55.559 25.8694 -6.35
      vertex 55.559 25.8694 6.35
    endloop
  endfacet
  facet normal 0 0 1
    outer loop
      vertex 56.4961 25.5017 6.35
      vertex -56.1627 25.6832 6.35
      vertex -56.1627 -21.0528 6.35
    endloop
  endfacet
  facet normal 0 0 1
    outer loop
      vertex 56.4961 25.5017 6.35
      vertex 55.0547 25.9072 6.35
      vertex -56.1627 25.6832 6.35
    endloop
  endfacet
  facet normal 0 0 -1
    outer loop
      vertex -57.5048 -22.4993 -6.35
      vertex -56.1627 25.6832 -6.35
      vertex 55.8059 25.813 -6.35
    endloop
  endfacet
  facet normal 0 0 1
    outer loop
      vertex -56.1627 25.6832 6.35
      vertex -56.7987 21.4636 6.35
      vertex -57.6549 -23.4946 6.35
    endloop
  endfacet
  facet normal 0 0 1
    outer loop
      vertex 57.0638 25.0007 6.35
      vertex 56.8915 25.1863 6.35
      vertex 56.7017 25.3538 6.35
    endloop
  endfacet
  facet normal 0.661687 0.74978 0
    outer loop
      vertex 56.8915 25.1863 1.26998
      vertex 56.8915 25.1863 -6.35
      vertex 56.7017 25.3538 -6.35
    endloop
  endfacet
  facet normal 0 0 1
    outer loop
      vertex 57.3487 24.5828 6.35
      vertex 57.2166 24.7988 6.35
      vertex 57.0638 25.0007 6.35
    endloop
  endfacet
  facet normal 0.853106 0.521738 -0
    outer loop
      vertex 57.2166 24.7988 1.26998
      vertex 57.2166 24.7988 6.35
      vertex 57.3487 24.5828 6.35
    endloop
  endfacet
  facet normal 0 0 1
    outer loop
      vertex -57.5795 -23.9948 6.35
      vertex -57.5048 -24.2367 6.35
      vertex -57.2854 -24.6924 6.35
    endloop
  endfacet
  facet normal -0.95548 -0.295057 0
    outer loop
      vertex -57.5795 -23.9948 -1.27
      vertex -57.5048 -24.2367 6.35
      vertex -57.5795 -23.9948 6.35
    endloop
  endfacet
  facet normal 0 0 -1
    outer loop
      vertex -55.927 -25.7757 -6.35
      vertex -57.1427 -24.9017 -6.35
      vertex -57.4065 -24.4701 -6.35
    endloop
  endfacet
  facet normal 0 0 -1
    outer loop
      vertex -55.927 -25.7757 -6.35
      vertex -56.6007 -25.4303 -6.35
      vertex -57.1427 -24.9017 -6.35
    endloop
  endfacet
  facet normal 0 0 1
    outer loop
      vertex -56.6007 -25.4303 6.35
      vertex -56.388 -25.5677 6.35
      vertex -55.927 -25.7757 6.35
    endloop
  endfacet
  facet normal 0 0 -1
    outer loop
      vertex -55.1813 -25.9072 -6.35
      vertex -55.6832 -25.8443 -6.35
      vertex -55.927 -25.7757 -6.35
    endloop
  endfacet
  facet normal 0 0 -1
    outer loop
      vertex -55.1813 -25.9072 -6.35
      vertex -55.4338 -25.8883 -6.35
      vertex -55.6832 -25.8443 -6.35
    endloop
  endfacet
  facet normal -0.27086 -0.962619 0
    outer loop
      vertex -55.6832 -25.8443 -6.35
      vertex -55.6832 -25.8443 6.35
      vertex -55.927 -25.7757 6.35
    endloop
  endfacet
  facet normal 0 0 -1
    outer loop
      vertex 56.046 -25.7324 -6.35
      vertex 55.559 -25.8694 -6.35
      vertex 55.0547 -25.9072 -6.35
    endloop
  endfacet
  facet normal 0 0 -1
    outer loop
      vertex 56.046 -25.7324 -6.35
      vertex 55.8059 -25.8131 -6.35
      vertex 55.559 -25.8694 -6.35
    endloop
  endfacet
  facet normal 0 -1 0
    outer loop
      vertex 55.0547 -25.9072 -6.35
      vertex 55.0547 -25.9072 6.35
      vertex -55.1813 -25.9072 6.35
    endloop
  endfacet
  facet normal 0.124424 -0.992229 0
    outer loop
      vertex 55.559 -25.8694 6.35
      vertex 55.3078 -25.9009 -6.35
      vertex 55.559 -25.8694 -6.35
    endloop
  endfacet
  facet normal 0 0 1
    outer loop
      vertex 56.046 -25.7324 6.35
      vertex 56.7017 -25.3539 6.35
      vertex 57.2166 -24.7988 6.35
    endloop
  endfacet
  facet normal 0 0 -1
    outer loop
      vertex 57.658 -23.368 -6.35
      vertex 57.5451 -24.1167 -6.35
      vertex 57.2166 -24.7988 -6.35
    endloop
  endfacet
  facet normal 0 0 1
    outer loop
      vertex 56.7017 -25.3539 6.35
      vertex 57.0638 -25.0007 6.35
      vertex 57.2166 -24.7988 6.35
    endloop
  endfacet
  facet normal 0 0 1
    outer loop
      vertex 57.2166 -24.7988 6.35
      vertex 57.5451 -24.1167 6.35
      vertex 57.658 -23.368 6.35
    endloop
  endfacet
  facet normal 0 0 -1
    outer loop
      vertex 57.2166 -24.7988 -6.35
      vertex 56.7017 -25.3539 -6.35
      vertex 56.046 -25.7324 -6.35
    endloop
  endfacet
  facet normal 0.499962 -0.866047 0
    outer loop
      vertex 56.4961 -25.5017 -1.27
      vertex 56.2768 -25.6283 6.35
      vertex 56.2768 -25.6283 -1.27
    endloop
  endfacet
  facet normal 0.661909 -0.749584 0
    outer loop
      vertex 56.7017 -25.3539 -1.27
      vertex 56.8915 -25.1863 -1.27
      vertex 56.7017 -25.3539 6.35
    endloop
  endfacet
  facet normal 0.499962 -0.866047 0
    outer loop
      vertex 56.2768 -25.6283 -6.35
      vertex 56.4961 -25.5017 -1.27
      vertex 56.2768 -25.6283 -1.27
    endloop
  endfacet
  facet normal 0 0 -1
    outer loop
      vertex -57.4065 -24.4701 -6.35
      vertex -57.6296 -23.7466 -6.35
      vertex -57.6549 -23.2414 -6.35
    endloop
  endfacet
  facet normal 0 0 -1
    outer loop
      vertex -57.4065 -24.4701 -6.35
      vertex -57.5795 -23.9948 -6.35
      vertex -57.6296 -23.7466 -6.35
    endloop
  endfacet
  facet normal -0.98023 -0.197863 0
    outer loop
      vertex -57.5795 -23.9948 6.35
      vertex -57.6296 -23.7466 6.35
      vertex -57.6296 -23.7466 -1.27
    endloop
  endfacet
  facet normal 0 0 1
    outer loop
      vertex -57.6549 -23.4946 6.35
      vertex -57.6296 -23.7466 6.35
      vertex -57.5795 -23.9948 6.35
    endloop
  endfacet
  facet normal 0.732878 0.68036 -0
    outer loop
      vertex 56.8915 25.1863 1.26998
      vertex 56.8915 25.1863 6.35
      vertex 57.0638 25.0007 6.35
    endloop
  endfacet
  facet normal 0.661687 0.74978 0
    outer loop
      vertex 56.7017 25.3538 6.35
      vertex 56.8915 25.1863 6.35
      vertex 56.8915 25.1863 1.26998
    endloop
  endfacet
  facet normal 0 0 1
    outer loop
      vertex 56.4961 25.5017 6.35
      vertex 55.8059 25.813 6.35
      vertex 55.0547 25.9072 6.35
    endloop
  endfacet
  facet normal 0 0 -1
    outer loop
      vertex -57.6549 -23.2414 -6.35
      vertex -56.1627 25.6832 -6.35
      vertex -57.5048 -22.4993 -6.35
    endloop
  endfacet
  facet normal 0 0 1
    outer loop
      vertex -56.7987 21.4636 6.35
      vertex -57.6549 23.4946 6.35
      vertex -57.6549 -23.4946 6.35
    endloop
  endfacet
  facet normal 0 0 -1
    outer loop
      vertex -56.1627 25.6832 -6.35
      vertex -55.1813 25.9072 -6.35
      vertex 55.8059 25.813 -6.35
    endloop
  endfacet
  facet normal 0 0 1
    outer loop
      vertex -56.1627 25.6832 6.35
      vertex -57.6549 23.4946 6.35
      vertex -56.7987 21.4636 6.35
    endloop
  endfacet
  facet normal 0 0 1
    outer loop
      vertex -56.1627 25.6832 6.35
      vertex -57.2854 24.6924 6.35
      vertex -57.6549 23.4946 6.35
    endloop
  endfacet
  facet normal 0.732878 0.68036 0
    outer loop
      vertex 57.0638 25.0007 -1.27
      vertex 56.8915 25.1863 -6.35
      vertex 56.8915 25.1863 1.26998
    endloop
  endfacet
  facet normal 0 0 -1
    outer loop
      vertex 56.4961 25.5017 -6.35
      vertex 56.7017 25.3538 -6.35
      vertex 57.2166 24.7988 -6.35
    endloop
  endfacet
  facet normal 0 0 -1
    outer loop
      vertex 55.8059 25.813 -6.35
      vertex 56.046 25.7324 -6.35
      vertex 56.2768 25.6283 -6.35
    endloop
  endfacet
  facet normal 0.499962 0.866047 -0
    outer loop
      vertex 56.4961 25.5017 -6.35
      vertex 56.2768 25.6283 -6.35
      vertex 56.4961 25.5017 6.35
    endloop
  endfacet
  facet normal -0.921598 -0.388145 -0
    outer loop
      vertex -57.5048 -24.2367 6.35
      vertex -57.5048 -24.2367 -1.27
      vertex -57.4065 -24.4701 -6.35
    endloop
  endfacet
  facet normal -0.95548 -0.295057 0
    outer loop
      vertex -57.5795 -23.9948 -1.27
      vertex -57.5048 -24.2367 -1.27
      vertex -57.5048 -24.2367 6.35
    endloop
  endfacet
  facet normal -0.878152 -0.478382 0
    outer loop
      vertex -57.2854 -24.6924 6.35
      vertex -57.4065 -24.4701 6.35
      vertex -57.4065 -24.4701 -6.35
    endloop
  endfacet
  facet normal 0 0 1
    outer loop
      vertex -57.5048 -24.2367 6.35
      vertex -57.4065 -24.4701 6.35
      vertex -57.2854 -24.6924 6.35
    endloop
  endfacet
  facet normal 0 0 1
    outer loop
      vertex -57.2854 -24.6924 6.35
      vertex -56.98 -25.0956 6.35
      vertex -56.6007 -25.4303 6.35
    endloop
  endfacet
  facet normal -0.766047 -0.642784 0
    outer loop
      vertex -56.98 -25.0956 6.35
      vertex -57.1427 -24.9017 6.35
      vertex -57.1427 -24.9017 -6.35
    endloop
  endfacet
  facet normal -0.878152 -0.478382 0
    outer loop
      vertex -57.4065 -24.4701 -6.35
      vertex -57.2854 -24.6924 -6.35
      vertex -57.2854 -24.6924 6.35
    endloop
  endfacet
  facet normal 0 0 -1
    outer loop
      vertex -57.1427 -24.9017 -6.35
      vertex -57.2854 -24.6924 -6.35
      vertex -57.4065 -24.4701 -6.35
    endloop
  endfacet
  facet normal -0.698368 -0.715739 -0
    outer loop
      vertex -56.98 -25.0956 6.35
      vertex -56.98 -25.0956 -6.35
      vertex -56.7987 -25.2725 1.26998
    endloop
  endfacet
  facet normal -0.623249 -0.782023 -0
    outer loop
      vertex -56.6007 -25.4303 6.35
      vertex -56.7987 -25.2725 1.26998
      vertex -56.6007 -25.4303 -6.35
    endloop
  endfacet
  facet normal 0 0 -1
    outer loop
      vertex -55.927 -25.7757 -6.35
      vertex -56.388 -25.5677 -6.35
      vertex -56.6007 -25.4303 -6.35
    endloop
  endfacet
  facet normal -0.456196 -0.889879 0
    outer loop
      vertex -56.388 -25.5677 1.26998
      vertex -56.1627 -25.6832 1.26998
      vertex -56.388 -25.5677 6.35
    endloop
  endfacet
  facet normal -0.0746427 -0.99721 -0
    outer loop
      vertex -55.1813 -25.9072 6.35
      vertex -55.4338 -25.8883 -6.35
      vertex -55.1813 -25.9072 -6.35
    endloop
  endfacet
  facet normal -0.17374 -0.984792 0
    outer loop
      vertex -55.4338 -25.8883 -6.35
      vertex -55.6832 -25.8443 6.35
      vertex -55.6832 -25.8443 -6.35
    endloop
  endfacet
  facet normal -0.0746427 -0.99721 0
    outer loop
      vertex -55.1813 -25.9072 6.35
      vertex -55.4338 -25.8883 6.35
      vertex -55.4338 -25.8883 -6.35
    endloop
  endfacet
  facet normal 0 0 1
    outer loop
      vertex -55.927 -25.7757 6.35
      vertex -55.6832 -25.8443 6.35
      vertex -55.1813 -25.9072 6.35
    endloop
  endfacet
  facet normal 0.318596 -0.947891 0
    outer loop
      vertex 56.046 -25.7324 6.35
      vertex 55.8059 -25.8131 -6.35
      vertex 56.046 -25.7324 -6.35
    endloop
  endfacet
  facet normal 0.318596 -0.947891 0
    outer loop
      vertex 56.046 -25.7324 6.35
      vertex 55.8059 -25.8131 6.35
      vertex 55.8059 -25.8131 -6.35
    endloop
  endfacet
  facet normal 0 0 1
    outer loop
      vertex 55.0547 -25.9072 6.35
      vertex 55.559 -25.8694 6.35
      vertex 56.046 -25.7324 6.35
    endloop
  endfacet
  facet normal 0.0248836 -0.99969 0
    outer loop
      vertex 55.3078 -25.9009 -6.35
      vertex 55.3078 -25.9009 6.35
      vertex 55.0547 -25.9072 6.35
    endloop
  endfacet
  facet normal 0.0248836 -0.99969 0
    outer loop
      vertex 55.0547 -25.9072 -6.35
      vertex 55.3078 -25.9009 -6.35
      vertex 55.0547 -25.9072 6.35
    endloop
  endfacet
  facet normal 0 0 -1
    outer loop
      vertex 55.559 -25.8694 -6.35
      vertex 55.3078 -25.9009 -6.35
      vertex 55.0547 -25.9072 -6.35
    endloop
  endfacet
  facet normal 0.969065 -0.246807 0
    outer loop
      vertex 57.6076 -23.8713 -1.27
      vertex 57.5451 -24.1167 6.35
      vertex 57.5451 -24.1167 -6.35
    endloop
  endfacet
  facet normal 0 0 1
    outer loop
      vertex 57.5451 -24.1167 6.35
      vertex 57.6454 -23.6209 6.35
      vertex 57.658 -23.368 6.35
    endloop
  endfacet
  facet normal 0.583701 -0.811969 0
    outer loop
      vertex 56.7017 -25.3539 -1.27
      vertex 56.4961 -25.5017 -1.27
      vertex 56.7017 -25.3539 -6.35
    endloop
  endfacet
  facet normal 0 0 1
    outer loop
      vertex 56.7017 -25.3539 6.35
      vertex 56.8915 -25.1863 6.35
      vertex 57.0638 -25.0007 6.35
    endloop
  endfacet
  facet normal 0.661909 -0.749584 0
    outer loop
      vertex 56.7017 -25.3539 -6.35
      vertex 56.8915 -25.1863 -6.35
      vertex 56.8915 -25.1863 -1.27
    endloop
  endfacet
  facet normal 0.797386 -0.60347 0
    outer loop
      vertex 57.2166 -24.7988 6.35
      vertex 57.0638 -25.0007 -1.27
      vertex 57.2166 -24.7988 -6.35
    endloop
  endfacet
  facet normal 0.853106 -0.521738 0
    outer loop
      vertex 57.2166 -24.7988 -6.35
      vertex 57.3487 -24.5828 -6.35
      vertex 57.2166 -24.7988 6.35
    endloop
  endfacet
  facet normal 0 0 -1
    outer loop
      vertex 57.5451 -24.1167 -6.35
      vertex 57.4585 -24.3546 -6.35
      vertex 57.2166 -24.7988 -6.35
    endloop
  endfacet
  facet normal 0 0 -1
    outer loop
      vertex 56.7017 -25.3539 -6.35
      vertex 56.2768 -25.6283 -6.35
      vertex 56.046 -25.7324 -6.35
    endloop
  endfacet
  facet normal 0.583701 -0.811969 0
    outer loop
      vertex 56.4961 -25.5017 -1.27
      vertex 56.4961 -25.5017 -6.35
      vertex 56.7017 -25.3539 -6.35
    endloop
  endfacet
  facet normal 0.583701 -0.811969 0
    outer loop
      vertex 56.7017 -25.3539 6.35
      vertex 56.4961 -25.5017 -1.27
      vertex 56.7017 -25.3539 -1.27
    endloop
  endfacet
  facet normal 0.499962 -0.866047 0
    outer loop
      vertex 56.4961 -25.5017 -1.27
      vertex 56.4961 -25.5017 6.35
      vertex 56.2768 -25.6283 6.35
    endloop
  endfacet
  facet normal 0 0 -1
    outer loop
      vertex -57.6296 -23.7466 -6.35
      vertex -57.6549 -23.4946 -6.35
      vertex -57.6549 -23.2414 -6.35
    endloop
  endfacet
  facet normal -0.994998 -0.0998946 -0
    outer loop
      vertex -57.6549 -23.4946 6.35
      vertex -57.6549 -23.4946 -6.35
      vertex -57.6296 -23.7466 -6.35
    endloop
  endfacet
  facet normal 0.411153 0.911566 -0
    outer loop
      vertex 56.2768 25.6283 -6.35
      vertex 56.046 25.7324 -6.35
      vertex 56.2768 25.6283 6.35
    endloop
  endfacet
  facet normal 0 0 1
    outer loop
      vertex 55.8059 25.813 6.35
      vertex 55.559 25.8694 6.35
      vertex 55.0547 25.9072 6.35
    endloop
  endfacet
  facet normal -0.27086 0.962619 0
    outer loop
      vertex -55.927 25.7757 -1.27
      vertex -55.6832 25.8443 6.35
      vertex -55.6832 25.8443 -1.27
    endloop
  endfacet
  facet normal -0.0746427 0.99721 0
    outer loop
      vertex -55.1813 25.9072 -6.35
      vertex -55.4338 25.8883 -1.27
      vertex -55.1813 25.9072 6.35
    endloop
  endfacet
  facet normal 0 0 -1
    outer loop
      vertex -57.6549 -23.2414 -6.35
      vertex -57.6296 23.7466 -6.35
      vertex -56.1627 25.6832 -6.35
    endloop
  endfacet
  facet normal -0.82611 0.563508 0
    outer loop
      vertex -57.2854 24.6924 6.35
      vertex -57.1427 24.9016 6.35
      vertex -57.1427 24.9016 -6.35
    endloop
  endfacet
  facet normal 0.732878 0.68036 0
    outer loop
      vertex 57.0638 25.0007 -1.27
      vertex 57.0638 25.0007 -6.35
      vertex 56.8915 25.1863 -6.35
    endloop
  endfacet
  facet normal 0 0 -1
    outer loop
      vertex 56.7017 25.3538 -6.35
      vertex 56.8915 25.1863 -6.35
      vertex 57.2166 24.7988 -6.35
    endloop
  endfacet
  facet normal 0 0 -1
    outer loop
      vertex -57.4065 -24.4701 -6.35
      vertex -57.5048 -24.2367 -6.35
      vertex -57.5795 -23.9948 -6.35
    endloop
  endfacet
  facet normal -0.95548 -0.295057 -0
    outer loop
      vertex -57.5795 -23.9948 -1.27
      vertex -57.5795 -23.9948 -6.35
      vertex -57.5048 -24.2367 -1.27
    endloop
  endfacet
  facet normal 0 0 1
    outer loop
      vertex -57.2854 -24.6924 6.35
      vertex -57.1427 -24.9017 6.35
      vertex -56.98 -25.0956 6.35
    endloop
  endfacet
  facet normal -0.826236 -0.563325 0
    outer loop
      vertex -57.1427 -24.9017 -6.35
      vertex -57.1427 -24.9017 6.35
      vertex -57.2854 -24.6924 6.35
    endloop
  endfacet
  facet normal -0.623249 -0.782023 0
    outer loop
      vertex -56.6007 -25.4303 6.35
      vertex -56.7987 -25.2725 6.35
      vertex -56.7987 -25.2725 1.26998
    endloop
  endfacet
  facet normal -0.766047 -0.642784 0
    outer loop
      vertex -57.1427 -24.9017 -6.35
      vertex -56.98 -25.0956 -6.35
      vertex -56.98 -25.0956 6.35
    endloop
  endfacet
  facet normal -0.542613 -0.839983 0
    outer loop
      vertex -56.388 -25.5677 1.26998
      vertex -56.388 -25.5677 6.35
      vertex -56.6007 -25.4303 6.35
    endloop
  endfacet
  facet normal -0.456196 -0.889879 0
    outer loop
      vertex -56.388 -25.5677 -6.35
      vertex -56.1627 -25.6832 1.26998
      vertex -56.388 -25.5677 1.26998
    endloop
  endfacet
  facet normal 0 0 -1
    outer loop
      vertex -55.927 -25.7757 -6.35
      vertex -56.1627 -25.6832 -6.35
      vertex -56.388 -25.5677 -6.35
    endloop
  endfacet
  facet normal -0.542613 -0.839983 0
    outer loop
      vertex -56.6007 -25.4303 -6.35
      vertex -56.388 -25.5677 -6.35
      vertex -56.388 -25.5677 1.26998
    endloop
  endfacet
  facet normal -0.365322 -0.930881 -0
    outer loop
      vertex -55.927 -25.7757 6.35
      vertex -56.1627 -25.6832 1.26998
      vertex -55.927 -25.7757 -6.35
    endloop
  endfacet
  facet normal -0.456196 -0.889879 0
    outer loop
      vertex -56.1627 -25.6832 1.26998
      vertex -56.1627 -25.6832 6.35
      vertex -56.388 -25.5677 6.35
    endloop
  endfacet
  facet normal 0 0 1
    outer loop
      vertex -55.6832 -25.8443 6.35
      vertex -55.4338 -25.8883 6.35
      vertex -55.1813 -25.9072 6.35
    endloop
  endfacet
  facet normal -0.17374 -0.984792 0
    outer loop
      vertex -55.4338 -25.8883 -6.35
      vertex -55.4338 -25.8883 6.35
      vertex -55.6832 -25.8443 6.35
    endloop
  endfacet
  facet normal 0 0 1
    outer loop
      vertex 55.559 -25.8694 6.35
      vertex 55.8059 -25.8131 6.35
      vertex 56.046 -25.7324 6.35
    endloop
  endfacet
  facet normal 0.222321 -0.974974 0
    outer loop
      vertex 55.8059 -25.8131 -6.35
      vertex 55.8059 -25.8131 6.35
      vertex 55.559 -25.8694 6.35
    endloop
  endfacet
  facet normal 0.124424 -0.992229 0
    outer loop
      vertex 55.559 -25.8694 6.35
      vertex 55.3078 -25.9009 6.35
      vertex 55.3078 -25.9009 -6.35
    endloop
  endfacet
  facet normal 0 0 1
    outer loop
      vertex 55.0547 -25.9072 6.35
      vertex 55.3078 -25.9009 6.35
      vertex 55.559 -25.8694 6.35
    endloop
  endfacet
  facet normal 0.998761 -0.0497603 0
    outer loop
      vertex 57.658 -23.368 6.35
      vertex 57.6454 -23.6209 -1.27
      vertex 57.658 -23.368 -6.35
    endloop
  endfacet
  facet normal 0.969065 -0.246807 0
    outer loop
      vertex 57.5451 -24.1167 -6.35
      vertex 57.6076 -23.8713 -6.35
      vertex 57.6076 -23.8713 -1.27
    endloop
  endfacet
  facet normal 0.998761 -0.0497603 0
    outer loop
      vertex 57.658 -23.368 6.35
      vertex 57.6454 -23.6209 6.35
      vertex 57.6454 -23.6209 -1.27
    endloop
  endfacet
  facet normal 0.988797 -0.149267 0
    outer loop
      vertex 57.6076 -23.8713 -6.35
      vertex 57.6454 -23.6209 -1.27
      vertex 57.6076 -23.8713 -1.27
    endloop
  endfacet
  facet normal 0 0 1
    outer loop
      vertex 57.2166 -24.7988 6.35
      vertex 57.4585 -24.3546 6.35
      vertex 57.5451 -24.1167 6.35
    endloop
  endfacet
  facet normal 0.939678 -0.34206 0
    outer loop
      vertex 57.5451 -24.1167 -6.35
      vertex 57.5451 -24.1167 6.35
      vertex 57.4585 -24.3546 -6.35
    endloop
  endfacet
  facet normal 0 0 1
    outer loop
      vertex 56.046 -25.7324 6.35
      vertex 56.2768 -25.6283 6.35
      vertex 56.7017 -25.3539 6.35
    endloop
  endfacet
  facet normal 0.411153 -0.911566 0
    outer loop
      vertex 56.2768 -25.6283 -1.27
      vertex 56.2768 -25.6283 6.35
      vertex 56.046 -25.7324 6.35
    endloop
  endfacet
  facet normal 0.661909 -0.749584 0
    outer loop
      vertex 56.7017 -25.3539 -6.35
      vertex 56.8915 -25.1863 -1.27
      vertex 56.7017 -25.3539 -1.27
    endloop
  endfacet
  facet normal 0.797386 -0.60347 0
    outer loop
      vertex 57.2166 -24.7988 6.35
      vertex 57.0638 -25.0007 6.35
      vertex 57.0638 -25.0007 -1.27
    endloop
  endfacet
  facet normal 0 0 -1
    outer loop
      vertex 57.2166 -24.7988 -6.35
      vertex 57.0638 -25.0007 -6.35
      vertex 56.7017 -25.3539 -6.35
    endloop
  endfacet
  facet normal 0.732878 -0.68036 0
    outer loop
      vertex 57.0638 -25.0007 6.35
      vertex 56.8915 -25.1863 -1.27
      vertex 57.0638 -25.0007 -1.27
    endloop
  endfacet
  facet normal 0.797386 -0.60347 0
    outer loop
      vertex 57.0638 -25.0007 -1.27
      vertex 57.0638 -25.0007 -6.35
      vertex 57.2166 -24.7988 -6.35
    endloop
  endfacet
  facet normal 0.732878 -0.68036 0
    outer loop
      vertex 56.8915 -25.1863 -1.27
      vertex 57.0638 -25.0007 -6.35
      vertex 57.0638 -25.0007 -1.27
    endloop
  endfacet
  facet normal 0 0 -1
    outer loop
      vertex 57.4585 -24.3546 -6.35
      vertex 57.3487 -24.5828 -6.35
      vertex 57.2166 -24.7988 -6.35
    endloop
  endfacet
  facet normal 0.901116 -0.433578 0
    outer loop
      vertex 57.4585 -24.3546 6.35
      vertex 57.3487 -24.5828 6.35
      vertex 57.3487 -24.5828 -6.35
    endloop
  endfacet
  facet normal 0.499962 -0.866047 0
    outer loop
      vertex 56.2768 -25.6283 -6.35
      vertex 56.4961 -25.5017 -6.35
      vertex 56.4961 -25.5017 -1.27
    endloop
  endfacet
  facet normal 0 0 -1
    outer loop
      vertex 56.7017 -25.3539 -6.35
      vertex 56.4961 -25.5017 -6.35
      vertex 56.2768 -25.6283 -6.35
    endloop
  endfacet
  facet normal 0 0 1
    outer loop
      vertex 56.4961 25.5017 6.35
      vertex 56.2768 25.6283 6.35
      vertex 55.8059 25.813 6.35
    endloop
  endfacet
  facet normal 0.499962 0.866047 -0
    outer loop
      vertex 56.2768 25.6283 -6.35
      vertex 56.2768 25.6283 6.35
      vertex 56.4961 25.5017 6.35
    endloop
  endfacet
  facet normal 0.318241 0.94801 0
    outer loop
      vertex 55.8059 25.813 6.35
      vertex 56.046 25.7324 -6.35
      vertex 55.8059 25.813 -6.35
    endloop
  endfacet
  facet normal 0.411153 0.911566 -0
    outer loop
      vertex 56.046 25.7324 -6.35
      vertex 56.046 25.7324 6.35
      vertex 56.2768 25.6283 6.35
    endloop
  endfacet
  facet normal 0.222696 0.974888 -0
    outer loop
      vertex 55.8059 25.813 -6.35
      vertex 55.559 25.8694 6.35
      vertex 55.8059 25.813 6.35
    endloop
  endfacet
  facet normal 0 0 -1
    outer loop
      vertex -55.1813 25.9072 -6.35
      vertex 55.0547 25.9072 -6.35
      vertex 55.8059 25.813 -6.35
    endloop
  endfacet
  facet normal 0 1 0
    outer loop
      vertex 55.0547 25.9072 6.35
      vertex 55.0547 25.9072 -6.35
      vertex -55.1813 25.9072 -6.35
    endloop
  endfacet
  facet normal 0.124424 0.992229 -0
    outer loop
      vertex 55.559 25.8694 -6.35
      vertex 55.3078 25.9009 6.35
      vertex 55.559 25.8694 6.35
    endloop
  endfacet
  facet normal -0.27086 0.962619 0
    outer loop
      vertex -55.6832 25.8443 -6.35
      vertex -55.927 25.7757 -1.27
      vertex -55.6832 25.8443 -1.27
    endloop
  endfacet
  facet normal 0 0 1
    outer loop
      vertex 55.0547 25.9072 6.35
      vertex -55.1813 25.9072 6.35
      vertex -56.1627 25.6832 6.35
    endloop
  endfacet
  facet normal -0.994998 0.0998946 0
    outer loop
      vertex -57.6296 23.7466 -6.35
      vertex -57.6549 23.4946 -6.35
      vertex -57.6549 23.4946 6.35
    endloop
  endfacet
  facet normal -1 0 0
    outer loop
      vertex -57.6549 -23.4946 6.35
      vertex -57.6549 23.4946 6.35
      vertex -57.6549 -23.2414 -6.35
    endloop
  endfacet
  facet normal 0 0 -1
    outer loop
      vertex -57.6296 23.7466 -6.35
      vertex -57.1427 24.9016 -6.35
      vertex -56.1627 25.6832 -6.35
    endloop
  endfacet
  facet normal 0 0 1
    outer loop
      vertex -56.1627 25.6832 6.35
      vertex -56.98 25.0956 6.35
      vertex -57.2854 24.6924 6.35
    endloop
  endfacet
  facet normal 0.797386 0.60347 0
    outer loop
      vertex 57.2166 24.7988 -6.35
      vertex 57.0638 25.0007 -6.35
      vertex 57.0638 25.0007 -1.27
    endloop
  endfacet
  facet normal 0 0 -1
    outer loop
      vertex 56.8915 25.1863 -6.35
      vertex 57.0638 25.0007 -6.35
      vertex 57.2166 24.7988 -6.35
    endloop
  endfacet
  facet normal -0.921598 -0.388145 -0
    outer loop
      vertex -57.5048 -24.2367 -1.27
      vertex -57.5048 -24.2367 -6.35
      vertex -57.4065 -24.4701 -6.35
    endloop
  endfacet
  facet normal -0.95548 -0.295057 0
    outer loop
      vertex -57.5795 -23.9948 -6.35
      vertex -57.5048 -24.2367 -6.35
      vertex -57.5048 -24.2367 -1.27
    endloop
  endfacet
  facet normal 0 0 -1
    outer loop
      vertex -56.6007 -25.4303 -6.35
      vertex -56.98 -25.0956 -6.35
      vertex -57.1427 -24.9017 -6.35
    endloop
  endfacet
  facet normal -0.698368 -0.715739 0
    outer loop
      vertex -56.98 -25.0956 -6.35
      vertex -56.7987 -25.2725 -6.35
      vertex -56.7987 -25.2725 1.26998
    endloop
  endfacet
  facet normal 0 0 1
    outer loop
      vertex -56.98 -25.0956 6.35
      vertex -56.7987 -25.2725 6.35
      vertex -56.6007 -25.4303 6.35
    endloop
  endfacet
  facet normal -0.698368 -0.715739 0
    outer loop
      vertex -56.7987 -25.2725 1.26998
      vertex -56.7987 -25.2725 6.35
      vertex -56.98 -25.0956 6.35
    endloop
  endfacet
  facet normal -0.365322 -0.930881 -0
    outer loop
      vertex -56.1627 -25.6832 1.26998
      vertex -56.1627 -25.6832 -6.35
      vertex -55.927 -25.7757 -6.35
    endloop
  endfacet
  facet normal -0.456196 -0.889879 0
    outer loop
      vertex -56.388 -25.5677 -6.35
      vertex -56.1627 -25.6832 -6.35
      vertex -56.1627 -25.6832 1.26998
    endloop
  endfacet
  facet normal -0.365322 -0.930881 0
    outer loop
      vertex -55.927 -25.7757 6.35
      vertex -56.1627 -25.6832 6.35
      vertex -56.1627 -25.6832 1.26998
    endloop
  endfacet
  facet normal 0 0 1
    outer loop
      vertex -56.388 -25.5677 6.35
      vertex -56.1627 -25.6832 6.35
      vertex -55.927 -25.7757 6.35
    endloop
  endfacet
  facet normal 0.998761 -0.0497603 0
    outer loop
      vertex 57.6454 -23.6209 -1.27
      vertex 57.6454 -23.6209 -6.35
      vertex 57.658 -23.368 -6.35
    endloop
  endfacet
  facet normal 0.988797 -0.149267 0
    outer loop
      vertex 57.6076 -23.8713 -6.35
      vertex 57.6454 -23.6209 -6.35
      vertex 57.6454 -23.6209 -1.27
    endloop
  endfacet
  facet normal 0.969065 -0.246807 0
    outer loop
      vertex 57.6076 -23.8713 -1.27
      vertex 57.6076 -23.8713 6.35
      vertex 57.5451 -24.1167 6.35
    endloop
  endfacet
  facet normal 0.988797 -0.149267 0
    outer loop
      vertex 57.6454 -23.6209 -1.27
      vertex 57.6454 -23.6209 6.35
      vertex 57.6076 -23.8713 -1.27
    endloop
  endfacet
  facet normal 0.901116 -0.433578 0
    outer loop
      vertex 57.4585 -24.3546 -6.35
      vertex 57.4585 -24.3546 6.35
      vertex 57.3487 -24.5828 -6.35
    endloop
  endfacet
  facet normal 0.939678 -0.34206 0
    outer loop
      vertex 57.5451 -24.1167 6.35
      vertex 57.4585 -24.3546 6.35
      vertex 57.4585 -24.3546 -6.35
    endloop
  endfacet
  facet normal 0.583701 -0.811969 0
    outer loop
      vertex 56.7017 -25.3539 6.35
      vertex 56.4961 -25.5017 6.35
      vertex 56.4961 -25.5017 -1.27
    endloop
  endfacet
  facet normal 0 0 1
    outer loop
      vertex 56.2768 -25.6283 6.35
      vertex 56.4961 -25.5017 6.35
      vertex 56.7017 -25.3539 6.35
    endloop
  endfacet
  facet normal 0.661909 -0.749584 0
    outer loop
      vertex 56.8915 -25.1863 -1.27
      vertex 56.8915 -25.1863 6.35
      vertex 56.7017 -25.3539 6.35
    endloop
  endfacet
  facet normal 0.732878 -0.68036 0
    outer loop
      vertex 57.0638 -25.0007 6.35
      vertex 56.8915 -25.1863 6.35
      vertex 56.8915 -25.1863 -1.27
    endloop
  endfacet
  facet normal 0 0 -1
    outer loop
      vertex 57.0638 -25.0007 -6.35
      vertex 56.8915 -25.1863 -6.35
      vertex 56.7017 -25.3539 -6.35
    endloop
  endfacet
  facet normal 0.732878 -0.68036 0
    outer loop
      vertex 56.8915 -25.1863 -1.27
      vertex 56.8915 -25.1863 -6.35
      vertex 57.0638 -25.0007 -6.35
    endloop
  endfacet
  facet normal 0.318241 0.94801 0
    outer loop
      vertex 55.8059 25.813 6.35
      vertex 56.046 25.7324 6.35
      vertex 56.046 25.7324 -6.35
    endloop
  endfacet
  facet normal 0 0 1
    outer loop
      vertex 56.2768 25.6283 6.35
      vertex 56.046 25.7324 6.35
      vertex 55.8059 25.813 6.35
    endloop
  endfacet
  facet normal 0 0 -1
    outer loop
      vertex 55.0547 25.9072 -6.35
      vertex 55.559 25.8694 -6.35
      vertex 55.8059 25.813 -6.35
    endloop
  endfacet
  facet normal 0.0248836 0.99969 0
    outer loop
      vertex 55.3078 25.9009 6.35
      vertex 55.3078 25.9009 -6.35
      vertex 55.0547 25.9072 -6.35
    endloop
  endfacet
  facet normal 0.0248836 0.99969 0
    outer loop
      vertex 55.0547 25.9072 6.35
      vertex 55.3078 25.9009 6.35
      vertex 55.0547 25.9072 -6.35
    endloop
  endfacet
  facet normal 0 0 1
    outer loop
      vertex 55.559 25.8694 6.35
      vertex 55.3078 25.9009 6.35
      vertex 55.0547 25.9072 6.35
    endloop
  endfacet
  facet normal 0 1 0
    outer loop
      vertex -55.1813 25.9072 -6.35
      vertex -55.1813 25.9072 6.35
      vertex 55.0547 25.9072 6.35
    endloop
  endfacet
  facet normal -0.17374 0.984792 0
    outer loop
      vertex -55.6832 25.8443 6.35
      vertex -55.4338 25.8883 -1.27
      vertex -55.6832 25.8443 -1.27
    endloop
  endfacet
  facet normal 0 0 -1
    outer loop
      vertex -56.1627 25.6832 -6.35
      vertex -55.6832 25.8443 -6.35
      vertex -55.1813 25.9072 -6.35
    endloop
  endfacet
  facet normal 0 0 -1
    outer loop
      vertex -56.1627 25.6832 -6.35
      vertex -55.927 25.7757 -6.35
      vertex -55.6832 25.8443 -6.35
    endloop
  endfacet
  facet normal -0.365322 0.930881 0
    outer loop
      vertex -56.1627 25.6832 6.35
      vertex -55.927 25.7757 -1.27
      vertex -56.1627 25.6832 -6.35
    endloop
  endfacet
  facet normal -0.365322 0.930881 0
    outer loop
      vertex -56.1627 25.6832 6.35
      vertex -55.927 25.7757 6.35
      vertex -55.927 25.7757 -1.27
    endloop
  endfacet
  facet normal 0 0 -1
    outer loop
      vertex -57.6549 -23.2414 -6.35
      vertex -57.6549 23.4946 -6.35
      vertex -57.6296 23.7466 -6.35
    endloop
  endfacet
  facet normal -1 0 -0
    outer loop
      vertex -57.6549 23.4946 6.35
      vertex -57.6549 23.4946 -6.35
      vertex -57.6549 -23.2414 -6.35
    endloop
  endfacet
  facet normal 0 0 1
    outer loop
      vertex -57.2854 24.6924 6.35
      vertex -57.5048 24.2367 6.35
      vertex -57.6549 23.4946 6.35
    endloop
  endfacet
  facet normal 0 0 -1
    outer loop
      vertex -57.5048 24.2367 -6.35
      vertex -57.2854 24.6924 -6.35
      vertex -57.1427 24.9016 -6.35
    endloop
  endfacet
  facet normal 0 0 1
    outer loop
      vertex -56.1627 25.6832 6.35
      vertex -56.6007 25.4303 6.35
      vertex -56.98 25.0956 6.35
    endloop
  endfacet
  facet normal 0 0 -1
    outer loop
      vertex -57.1427 24.9016 -6.35
      vertex -56.6007 25.4303 -6.35
      vertex -56.1627 25.6832 -6.35
    endloop
  endfacet
  facet normal 0 0 -1
    outer loop
      vertex -56.6007 -25.4303 -6.35
      vertex -56.7987 -25.2725 -6.35
      vertex -56.98 -25.0956 -6.35
    endloop
  endfacet
  facet normal -0.623249 -0.782023 -0
    outer loop
      vertex -56.7987 -25.2725 1.26998
      vertex -56.7987 -25.2725 -6.35
      vertex -56.6007 -25.4303 -6.35
    endloop
  endfacet
  facet normal 0.988797 -0.149267 0
    outer loop
      vertex 57.6454 -23.6209 6.35
      vertex 57.6076 -23.8713 6.35
      vertex 57.6076 -23.8713 -1.27
    endloop
  endfacet
  facet normal 0 0 1
    outer loop
      vertex 57.5451 -24.1167 6.35
      vertex 57.6076 -23.8713 6.35
      vertex 57.6454 -23.6209 6.35
    endloop
  endfacet
  facet normal 0 0 1
    outer loop
      vertex 57.2166 -24.7988 6.35
      vertex 57.3487 -24.5828 6.35
      vertex 57.4585 -24.3546 6.35
    endloop
  endfacet
  facet normal 0.853106 -0.521738 0
    outer loop
      vertex 57.3487 -24.5828 -6.35
      vertex 57.3487 -24.5828 6.35
      vertex 57.2166 -24.7988 6.35
    endloop
  endfacet
  facet normal 0.124424 0.992229 0
    outer loop
      vertex 55.559 25.8694 -6.35
      vertex 55.3078 25.9009 -6.35
      vertex 55.3078 25.9009 6.35
    endloop
  endfacet
  facet normal 0 0 -1
    outer loop
      vertex 55.0547 25.9072 -6.35
      vertex 55.3078 25.9009 -6.35
      vertex 55.559 25.8694 -6.35
    endloop
  endfacet
  facet normal 0 0 1
    outer loop
      vertex -55.1813 25.9072 6.35
      vertex -55.6832 25.8443 6.35
      vertex -56.1627 25.6832 6.35
    endloop
  endfacet
  facet normal -0.0746427 0.99721 0
    outer loop
      vertex -55.4338 25.8883 -1.27
      vertex -55.4338 25.8883 6.35
      vertex -55.1813 25.9072 6.35
    endloop
  endfacet
  facet normal -0.17374 0.984792 0
    outer loop
      vertex -55.4338 25.8883 -1.27
      vertex -55.4338 25.8883 -6.35
      vertex -55.6832 25.8443 -6.35
    endloop
  endfacet
  facet normal -0.17374 0.984792 0
    outer loop
      vertex -55.6832 25.8443 -1.27
      vertex -55.4338 25.8883 -1.27
      vertex -55.6832 25.8443 -6.35
    endloop
  endfacet
  facet normal -0.365322 0.930881 0
    outer loop
      vertex -55.927 25.7757 -1.27
      vertex -55.927 25.7757 -6.35
      vertex -56.1627 25.6832 -6.35
    endloop
  endfacet
  facet normal -0.27086 0.962619 0
    outer loop
      vertex -55.6832 25.8443 -6.35
      vertex -55.927 25.7757 -6.35
      vertex -55.927 25.7757 -1.27
    endloop
  endfacet
  facet normal 0 0 -1
    outer loop
      vertex -57.6296 23.7466 -6.35
      vertex -57.5048 24.2367 -6.35
      vertex -57.1427 24.9016 -6.35
    endloop
  endfacet
  facet normal -0.878152 0.478382 0
    outer loop
      vertex -57.2854 24.6924 -6.35
      vertex -57.4065 24.4701 -1.27
      vertex -57.2854 24.6924 6.35
    endloop
  endfacet
  facet normal 0 0 -1
    outer loop
      vertex -56.98 25.0956 -6.35
      vertex -56.7987 25.2724 -6.35
      vertex -56.6007 25.4303 -6.35
    endloop
  endfacet
  facet normal -0.76621 0.64259 0
    outer loop
      vertex -56.98 25.0956 6.35
      vertex -56.98 25.0956 -6.35
      vertex -57.1427 24.9016 -6.35
    endloop
  endfacet
  facet normal -0.456196 0.889879 0
    outer loop
      vertex -56.1627 25.6832 -6.35
      vertex -56.388 25.5677 -6.35
      vertex -56.1627 25.6832 6.35
    endloop
  endfacet
  facet normal 0 0 -1
    outer loop
      vertex -56.6007 25.4303 -6.35
      vertex -56.388 25.5677 -6.35
      vertex -56.1627 25.6832 -6.35
    endloop
  endfacet
  facet normal 0 0 1
    outer loop
      vertex -55.6832 25.8443 6.35
      vertex -55.927 25.7757 6.35
      vertex -56.1627 25.6832 6.35
    endloop
  endfacet
  facet normal -0.27086 0.962619 0
    outer loop
      vertex -55.927 25.7757 -1.27
      vertex -55.927 25.7757 6.35
      vertex -55.6832 25.8443 6.35
    endloop
  endfacet
  facet normal -0.17374 0.984792 0
    outer loop
      vertex -55.6832 25.8443 6.35
      vertex -55.4338 25.8883 6.35
      vertex -55.4338 25.8883 -1.27
    endloop
  endfacet
  facet normal 0 0 1
    outer loop
      vertex -55.1813 25.9072 6.35
      vertex -55.4338 25.8883 6.35
      vertex -55.6832 25.8443 6.35
    endloop
  endfacet
  facet normal -0.0746427 0.99721 0
    outer loop
      vertex -55.1813 25.9072 -6.35
      vertex -55.4338 25.8883 -6.35
      vertex -55.4338 25.8883 -1.27
    endloop
  endfacet
  facet normal 0 0 -1
    outer loop
      vertex -55.6832 25.8443 -6.35
      vertex -55.4338 25.8883 -6.35
      vertex -55.1813 25.9072 -6.35
    endloop
  endfacet
  facet normal 0 0 1
    outer loop
      vertex -57.5048 24.2367 6.35
      vertex -57.5795 23.9947 6.35
      vertex -57.6549 23.4946 6.35
    endloop
  endfacet
  facet normal -0.955514 0.294946 0
    outer loop
      vertex -57.5048 24.2367 -6.35
      vertex -57.5795 23.9947 1.26998
      vertex -57.5048 24.2367 6.35
    endloop
  endfacet
  facet normal -0.921598 0.388145 0
    outer loop
      vertex -57.4065 24.4701 -1.27
      vertex -57.4065 24.4701 -6.35
      vertex -57.5048 24.2367 -6.35
    endloop
  endfacet
  facet normal -0.82611 0.563508 0
    outer loop
      vertex -57.1427 24.9016 -6.35
      vertex -57.2854 24.6924 -6.35
      vertex -57.2854 24.6924 6.35
    endloop
  endfacet
  facet normal 0 0 1
    outer loop
      vertex -56.98 25.0956 6.35
      vertex -57.1427 24.9016 6.35
      vertex -57.2854 24.6924 6.35
    endloop
  endfacet
  facet normal -0.76621 0.64259 0
    outer loop
      vertex -57.1427 24.9016 -6.35
      vertex -57.1427 24.9016 6.35
      vertex -56.98 25.0956 6.35
    endloop
  endfacet
  facet normal -0.542613 0.839983 0
    outer loop
      vertex -56.6007 25.4303 6.35
      vertex -56.388 25.5677 6.35
      vertex -56.388 25.5677 -6.35
    endloop
  endfacet
  facet normal -0.542613 0.839983 0
    outer loop
      vertex -56.6007 25.4303 -6.35
      vertex -56.6007 25.4303 6.35
      vertex -56.388 25.5677 -6.35
    endloop
  endfacet
  facet normal -0.698166 0.715936 0
    outer loop
      vertex -56.98 25.0956 6.35
      vertex -56.7987 25.2724 -1.27
      vertex -56.98 25.0956 -6.35
    endloop
  endfacet
  facet normal 0 0 -1
    outer loop
      vertex -57.1427 24.9016 -6.35
      vertex -56.98 25.0956 -6.35
      vertex -56.6007 25.4303 -6.35
    endloop
  endfacet
  facet normal -0.921598 0.388145 0
    outer loop
      vertex -57.5048 24.2367 6.35
      vertex -57.4065 24.4701 -1.27
      vertex -57.5048 24.2367 -6.35
    endloop
  endfacet
  facet normal -0.878152 0.478382 0
    outer loop
      vertex -57.4065 24.4701 -1.27
      vertex -57.4065 24.4701 6.35
      vertex -57.2854 24.6924 6.35
    endloop
  endfacet
  facet normal 0 0 -1
    outer loop
      vertex -57.6296 23.7466 -6.35
      vertex -57.5795 23.9947 -6.35
      vertex -57.5048 24.2367 -6.35
    endloop
  endfacet
  facet normal -0.955514 0.294946 0
    outer loop
      vertex -57.5795 23.9947 1.26998
      vertex -57.5795 23.9947 6.35
      vertex -57.5048 24.2367 6.35
    endloop
  endfacet
  facet normal 0 0 1
    outer loop
      vertex -56.6007 25.4303 6.35
      vertex -56.7987 25.2724 6.35
      vertex -56.98 25.0956 6.35
    endloop
  endfacet
  facet normal -0.62349 0.781831 0
    outer loop
      vertex -56.6007 25.4303 -6.35
      vertex -56.7987 25.2724 -1.27
      vertex -56.6007 25.4303 6.35
    endloop
  endfacet
  facet normal 0 0 1
    outer loop
      vertex -56.1627 25.6832 6.35
      vertex -56.388 25.5677 6.35
      vertex -56.6007 25.4303 6.35
    endloop
  endfacet
  facet normal -0.456196 0.889879 0
    outer loop
      vertex -56.388 25.5677 -6.35
      vertex -56.388 25.5677 6.35
      vertex -56.1627 25.6832 6.35
    endloop
  endfacet
  facet normal -0.878152 0.478382 0
    outer loop
      vertex -57.2854 24.6924 -6.35
      vertex -57.4065 24.4701 -6.35
      vertex -57.4065 24.4701 -1.27
    endloop
  endfacet
  facet normal 0 0 -1
    outer loop
      vertex -57.5048 24.2367 -6.35
      vertex -57.4065 24.4701 -6.35
      vertex -57.2854 24.6924 -6.35
    endloop
  endfacet
  facet normal -0.921598 0.388145 0
    outer loop
      vertex -57.5048 24.2367 6.35
      vertex -57.4065 24.4701 6.35
      vertex -57.4065 24.4701 -1.27
    endloop
  endfacet
  facet normal 0 0 1
    outer loop
      vertex -57.2854 24.6924 6.35
      vertex -57.4065 24.4701 6.35
      vertex -57.5048 24.2367 6.35
    endloop
  endfacet
  facet normal -0.980214 0.197939 0
    outer loop
      vertex -57.6296 23.7466 -6.35
      vertex -57.5795 23.9947 6.35
      vertex -57.5795 23.9947 1.26998
    endloop
  endfacet
  facet normal 0 0 1
    outer loop
      vertex -57.5795 23.9947 6.35
      vertex -57.6296 23.7466 6.35
      vertex -57.6549 23.4946 6.35
    endloop
  endfacet
  facet normal -0.980214 0.197939 0
    outer loop
      vertex -57.5795 23.9947 1.26998
      vertex -57.5795 23.9947 -6.35
      vertex -57.6296 23.7466 -6.35
    endloop
  endfacet
  facet normal -0.955514 0.294946 0
    outer loop
      vertex -57.5048 24.2367 -6.35
      vertex -57.5795 23.9947 -6.35
      vertex -57.5795 23.9947 1.26998
    endloop
  endfacet
  facet normal -0.698166 0.715936 0
    outer loop
      vertex -56.7987 25.2724 -1.27
      vertex -56.7987 25.2724 -6.35
      vertex -56.98 25.0956 -6.35
    endloop
  endfacet
  facet normal -0.62349 0.781831 0
    outer loop
      vertex -56.6007 25.4303 -6.35
      vertex -56.7987 25.2724 -6.35
      vertex -56.7987 25.2724 -1.27
    endloop
  endfacet
  facet normal -0.62349 0.781831 0
    outer loop
      vertex -56.7987 25.2724 -1.27
      vertex -56.7987 25.2724 6.35
      vertex -56.6007 25.4303 6.35
    endloop
  endfacet
  facet normal -0.698166 0.715936 0
    outer loop
      vertex -56.98 25.0956 6.35
      vertex -56.7987 25.2724 6.35
      vertex -56.7987 25.2724 -1.27
    endloop
  endfacet
  facet normal -0.980214 0.197939 0
    outer loop
      vertex -57.6296 23.7466 -6.35
      vertex -57.6296 23.7466 6.35
      vertex -57.5795 23.9947 6.35
    endloop
  endfacet
  facet normal -0.994998 0.0998946 0
    outer loop
      vertex -57.6549 23.4946 6.35
      vertex -57.6296 23.7466 6.35
      vertex -57.6296 23.7466 -6.35
    endloop
  endfacet
endsolid OpenSCAD_Model
