solid OpenSCAD_Model
  facet normal 0.939678 0.34206 -0
    outer loop
      vertex 70.1585 68.8046 -6.35
      vertex 70.1585 68.8046 6.35
      vertex 70.2451 68.5667 1.26998
    endloop
  endfacet
  facet normal 0.988797 0.149267 -0
    outer loop
      vertex 70.3454 68.0709 -6.35
      vertex 70.3076 68.3213 1.26998
      vertex 70.3454 68.0709 1.26998
    endloop
  endfacet
  facet normal 0.969065 0.246807 0
    outer loop
      vertex 70.3076 68.3213 -6.35
      vertex 70.2451 68.5667 -6.35
      vertex 70.2451 68.5667 1.26998
    endloop
  endfacet
  facet normal 0.901116 0.433578 0
    outer loop
      vertex 70.0487 69.0328 1.26998
      vertex 70.1585 68.8046 6.35
      vertex 70.1585 68.8046 -6.35
    endloop
  endfacet
  facet normal 0 0 -1
    outer loop
      vertex 68.259 -70.3194 -6.35
      vertex 68.5059 70.263 -6.35
      vertex 69.4017 69.8038 -6.35
    endloop
  endfacet
  facet normal 0 0 1
    outer loop
      vertex 69.1961 69.9517 6.35
      vertex 67.7547 70.3572 6.35
      vertex 67.5022 70.3383 6.35
    endloop
  endfacet
  facet normal 0.988797 0.149267 0
    outer loop
      vertex 70.3076 68.3213 1.26998
      vertex 70.3454 68.0709 6.35
      vertex 70.3454 68.0709 1.26998
    endloop
  endfacet
  facet normal 0 0 -1
    outer loop
      vertex 70.1585 68.8046 -6.35
      vertex 70.3076 68.3213 -6.35
      vertex 70.3454 68.0709 -6.35
    endloop
  endfacet
  facet normal 0 0 1
    outer loop
      vertex 69.1961 69.9517 6.35
      vertex 68.5059 70.263 6.35
      vertex 67.7547 70.3572 6.35
    endloop
  endfacet
  facet normal 0.661687 0.74978 0
    outer loop
      vertex 69.5915 69.6363 6.35
      vertex 69.5915 69.6363 -6.35
      vertex 69.4017 69.8038 -6.35
    endloop
  endfacet
  facet normal 0 0 1
    outer loop
      vertex 70.3454 68.0709 6.35
      vertex 70.2451 68.5667 6.35
      vertex 70.1585 68.8046 6.35
    endloop
  endfacet
  facet normal 0 0 1
    outer loop
      vertex 66.3353 -69.8803 6.35
      vertex 70.3454 68.0709 6.35
      vertex 70.1585 68.8046 6.35
    endloop
  endfacet
  facet normal 0.939678 0.34206 0
    outer loop
      vertex 70.1585 68.8046 6.35
      vertex 70.2451 68.5667 6.35
      vertex 70.2451 68.5667 1.26998
    endloop
  endfacet
  facet normal 0.853106 0.521738 -0
    outer loop
      vertex 70.0487 69.0328 -6.35
      vertex 69.9166 69.2488 6.35
      vertex 70.0487 69.0328 1.26998
    endloop
  endfacet
  facet normal 0 0 -1
    outer loop
      vertex 69.4017 69.8038 -6.35
      vertex 70.1585 68.8046 -6.35
      vertex 70.3454 68.0709 -6.35
    endloop
  endfacet
  facet normal 0.901116 0.433578 0
    outer loop
      vertex 70.1585 68.8046 -6.35
      vertex 70.0487 69.0328 -6.35
      vertex 70.0487 69.0328 1.26998
    endloop
  endfacet
  facet normal 0 0 1
    outer loop
      vertex 66.3353 -69.8803 6.35
      vertex 70.1585 68.8046 6.35
      vertex 67.5022 70.3383 6.35
    endloop
  endfacet
  facet normal 0.124424 0.992229 -0
    outer loop
      vertex 68.0078 70.3509 1.26998
      vertex 68.0078 70.3509 6.35
      vertex 68.259 70.3194 6.35
    endloop
  endfacet
  facet normal 0.222696 0.974888 0
    outer loop
      vertex 68.259 70.3194 1.26998
      vertex 68.5059 70.263 6.35
      vertex 68.5059 70.263 1.26998
    endloop
  endfacet
  facet normal 0 0 1
    outer loop
      vertex 69.5915 69.6363 6.35
      vertex 69.1961 69.9517 6.35
      vertex 67.5022 70.3383 6.35
    endloop
  endfacet
  facet normal -0 0 -1
    outer loop
      vertex 70.3454 68.0709 -6.35
      vertex 68.259 -70.3194 -6.35
      vertex 69.4017 69.8038 -6.35
    endloop
  endfacet
  facet normal 0.998761 0.0497603 0
    outer loop
      vertex 70.3454 68.0709 6.35
      vertex 70.358 67.818 -6.35
      vertex 70.3454 68.0709 1.26998
    endloop
  endfacet
  facet normal 0.969065 0.246807 0
    outer loop
      vertex 70.3076 68.3213 1.26998
      vertex 70.3076 68.3213 -6.35
      vertex 70.2451 68.5667 1.26998
    endloop
  endfacet
  facet normal 0.988797 0.149267 0
    outer loop
      vertex 70.3454 68.0709 -6.35
      vertex 70.3076 68.3213 -6.35
      vertex 70.3076 68.3213 1.26998
    endloop
  endfacet
  facet normal 0 0 -1
    outer loop
      vertex 69.4017 69.8038 -6.35
      vertex 69.7638 69.4507 -6.35
      vertex 70.1585 68.8046 -6.35
    endloop
  endfacet
  facet normal 0.222696 0.974888 0
    outer loop
      vertex 68.259 70.3194 1.26998
      vertex 68.5059 70.263 1.26998
      vertex 68.5059 70.263 -6.35
    endloop
  endfacet
  facet normal 0 0 -1
    outer loop
      vertex 68.259 -70.3194 -6.35
      vertex -69.68 -69.5456 -6.35
      vertex -70.3549 67.9446 -6.35
    endloop
  endfacet
  facet normal 0 -0 -1
    outer loop
      vertex 70.358 67.818 -6.35
      vertex 70.358 -67.818 -6.35
      vertex 68.259 -70.3194 -6.35
    endloop
  endfacet
  facet normal 0 0 1
    outer loop
      vertex 70.1585 68.8046 6.35
      vertex 69.5915 69.6363 6.35
      vertex 67.5022 70.3383 6.35
    endloop
  endfacet
  facet normal 0.797386 0.60347 0
    outer loop
      vertex 69.9166 69.2488 6.35
      vertex 69.9166 69.2488 -6.35
      vertex 69.7638 69.4507 -6.35
    endloop
  endfacet
  facet normal 0 0 -1
    outer loop
      vertex 68.259 -70.3194 -6.35
      vertex -70.3549 67.9446 -6.35
      vertex 68.5059 70.263 -6.35
    endloop
  endfacet
  facet normal 0.318241 0.94801 -0
    outer loop
      vertex 68.5059 70.263 -6.35
      vertex 68.5059 70.263 1.26998
      vertex 68.746 70.1824 1.26998
    endloop
  endfacet
  facet normal 0 -0 -1
    outer loop
      vertex 70.3454 68.0709 -6.35
      vertex 70.358 67.818 -6.35
      vertex 68.259 -70.3194 -6.35
    endloop
  endfacet
  facet normal 0.998761 0.0497603 0
    outer loop
      vertex 70.3454 68.0709 1.26998
      vertex 70.358 67.818 -6.35
      vertex 70.3454 68.0709 -6.35
    endloop
  endfacet
  facet normal 0 0 -1
    outer loop
      vertex 70.1585 68.8046 -6.35
      vertex 70.2451 68.5667 -6.35
      vertex 70.3076 68.3213 -6.35
    endloop
  endfacet
  facet normal 0.939678 0.34206 0
    outer loop
      vertex 70.2451 68.5667 1.26998
      vertex 70.2451 68.5667 -6.35
      vertex 70.1585 68.8046 -6.35
    endloop
  endfacet
  facet normal 0 0 -1
    outer loop
      vertex 69.7638 69.4507 -6.35
      vertex 70.0487 69.0328 -6.35
      vertex 70.1585 68.8046 -6.35
    endloop
  endfacet
  facet normal 0.732878 0.68036 0
    outer loop
      vertex 69.5915 69.6363 6.35
      vertex 69.7638 69.4507 6.35
      vertex 69.7638 69.4507 -6.35
    endloop
  endfacet
  facet normal 0.969065 0.246807 0
    outer loop
      vertex 70.2451 68.5667 6.35
      vertex 70.3076 68.3213 6.35
      vertex 70.3076 68.3213 1.26998
    endloop
  endfacet
  facet normal 0.969065 0.246807 -0
    outer loop
      vertex 70.2451 68.5667 1.26998
      vertex 70.2451 68.5667 6.35
      vertex 70.3076 68.3213 1.26998
    endloop
  endfacet
  facet normal 0 -0 1
    outer loop
      vertex 70.358 -67.818 6.35
      vertex 70.358 67.818 6.35
      vertex 70.3454 68.0709 6.35
    endloop
  endfacet
  facet normal 0 0 1
    outer loop
      vertex 66.3353 -69.8803 6.35
      vertex 70.358 -67.818 6.35
      vertex 70.3454 68.0709 6.35
    endloop
  endfacet
  facet normal 0 0 1
    outer loop
      vertex 70.1585 68.8046 6.35
      vertex 69.9166 69.2488 6.35
      vertex 69.5915 69.6363 6.35
    endloop
  endfacet
  facet normal 0.853106 0.521738 0
    outer loop
      vertex 69.9166 69.2488 6.35
      vertex 70.0487 69.0328 6.35
      vertex 70.0487 69.0328 1.26998
    endloop
  endfacet
  facet normal 0.732878 0.68036 0
    outer loop
      vertex 69.7638 69.4507 -6.35
      vertex 69.5915 69.6363 -6.35
      vertex 69.5915 69.6363 6.35
    endloop
  endfacet
  facet normal 0 0 -1
    outer loop
      vertex 69.4017 69.8038 -6.35
      vertex 69.5915 69.6363 -6.35
      vertex 69.7638 69.4507 -6.35
    endloop
  endfacet
  facet normal 0.583961 0.811781 0
    outer loop
      vertex 69.1961 69.9517 6.35
      vertex 69.4017 69.8038 6.35
      vertex 69.4017 69.8038 -6.35
    endloop
  endfacet
  facet normal 0 0 -1
    outer loop
      vertex 68.9768 70.0783 -6.35
      vertex 69.1961 69.9517 -6.35
      vertex 69.4017 69.8038 -6.35
    endloop
  endfacet
  facet normal 0 0 -1
    outer loop
      vertex 68.5059 70.263 -6.35
      vertex 68.9768 70.0783 -6.35
      vertex 69.4017 69.8038 -6.35
    endloop
  endfacet
  facet normal 0.411153 0.911566 0
    outer loop
      vertex 68.9768 70.0783 -6.35
      vertex 68.746 70.1824 -6.35
      vertex 68.746 70.1824 1.26998
    endloop
  endfacet
  facet normal 0 0 -1
    outer loop
      vertex 68.259 -70.3194 -6.35
      vertex 68.0078 -70.3509 -6.35
      vertex 67.7547 -70.3572 -6.35
    endloop
  endfacet
  facet normal 0 0 1
    outer loop
      vertex 67.7547 70.3572 6.35
      vertex -70.3549 67.9446 6.35
      vertex 67.5022 70.3383 6.35
    endloop
  endfacet
  facet normal 0.318241 0.94801 -0
    outer loop
      vertex 68.5059 70.263 1.26998
      vertex 68.5059 70.263 6.35
      vertex 68.746 70.1824 1.26998
    endloop
  endfacet
  facet normal 0.222696 0.974888 -0
    outer loop
      vertex 68.259 70.3194 1.26998
      vertex 68.259 70.3194 6.35
      vertex 68.5059 70.263 6.35
    endloop
  endfacet
  facet normal 0 0 1
    outer loop
      vertex 70.3454 68.0709 6.35
      vertex 70.3076 68.3213 6.35
      vertex 70.2451 68.5667 6.35
    endloop
  endfacet
  facet normal 0.988797 0.149267 -0
    outer loop
      vertex 70.3076 68.3213 1.26998
      vertex 70.3076 68.3213 6.35
      vertex 70.3454 68.0709 6.35
    endloop
  endfacet
  facet normal 1 0 0
    outer loop
      vertex 70.358 -67.818 6.35
      vertex 70.358 -67.818 -6.35
      vertex 70.358 67.818 -6.35
    endloop
  endfacet
  facet normal -0 0 1
    outer loop
      vertex 66.3353 -69.8803 6.35
      vertex 68.9768 -70.0783 6.35
      vertex 70.358 -67.818 6.35
    endloop
  endfacet
  facet normal 0 0 -1
    outer loop
      vertex 70.358 -67.818 -6.35
      vertex 70.0487 -69.0328 -6.35
      vertex 68.259 -70.3194 -6.35
    endloop
  endfacet
  facet normal 0 0 1
    outer loop
      vertex 68.9768 -70.0783 6.35
      vertex 70.0487 -69.0328 6.35
      vertex 70.358 -67.818 6.35
    endloop
  endfacet
  facet normal 1 0 -0
    outer loop
      vertex 70.358 67.818 -6.35
      vertex 70.358 67.818 6.35
      vertex 70.358 -67.818 6.35
    endloop
  endfacet
  facet normal 0.998761 0.0497603 0
    outer loop
      vertex 70.3454 68.0709 6.35
      vertex 70.358 67.818 6.35
      vertex 70.358 67.818 -6.35
    endloop
  endfacet
  facet normal 0.853106 0.521738 0
    outer loop
      vertex 70.0487 69.0328 -6.35
      vertex 69.9166 69.2488 -6.35
      vertex 69.9166 69.2488 6.35
    endloop
  endfacet
  facet normal 0 0 -1
    outer loop
      vertex 69.7638 69.4507 -6.35
      vertex 69.9166 69.2488 -6.35
      vertex 70.0487 69.0328 -6.35
    endloop
  endfacet
  facet normal 0 0 1
    outer loop
      vertex 69.9166 69.2488 6.35
      vertex 69.7638 69.4507 6.35
      vertex 69.5915 69.6363 6.35
    endloop
  endfacet
  facet normal 0.797386 0.60347 -0
    outer loop
      vertex 69.7638 69.4507 -6.35
      vertex 69.7638 69.4507 6.35
      vertex 69.9166 69.2488 6.35
    endloop
  endfacet
  facet normal 0 0 1
    outer loop
      vertex 70.1585 68.8046 6.35
      vertex 70.0487 69.0328 6.35
      vertex 69.9166 69.2488 6.35
    endloop
  endfacet
  facet normal 0.901116 0.433578 -0
    outer loop
      vertex 70.0487 69.0328 1.26998
      vertex 70.0487 69.0328 6.35
      vertex 70.1585 68.8046 6.35
    endloop
  endfacet
  facet normal 0 0 -1
    outer loop
      vertex -70.3549 67.9446 -6.35
      vertex 67.7547 70.3572 -6.35
      vertex 68.5059 70.263 -6.35
    endloop
  endfacet
  facet normal 0 0 -1
    outer loop
      vertex -70.3549 67.9446 -6.35
      vertex -67.8813 70.3572 -6.35
      vertex 67.7547 70.3572 -6.35
    endloop
  endfacet
  facet normal 0 0 1
    outer loop
      vertex 69.5915 69.6363 6.35
      vertex 69.4017 69.8038 6.35
      vertex 69.1961 69.9517 6.35
    endloop
  endfacet
  facet normal 0.661687 0.74978 -0
    outer loop
      vertex 69.4017 69.8038 -6.35
      vertex 69.4017 69.8038 6.35
      vertex 69.5915 69.6363 6.35
    endloop
  endfacet
  facet normal 0.499962 0.866047 -0
    outer loop
      vertex 68.9768 70.0783 -6.35
      vertex 68.9768 70.0783 1.26998
      vertex 69.1961 69.9517 6.35
    endloop
  endfacet
  facet normal 0.411153 0.911566 0
    outer loop
      vertex 68.746 70.1824 1.26998
      vertex 68.9768 70.0783 1.26998
      vertex 68.9768 70.0783 -6.35
    endloop
  endfacet
  facet normal 0.499962 0.866047 0
    outer loop
      vertex 69.1961 69.9517 6.35
      vertex 69.1961 69.9517 -6.35
      vertex 68.9768 70.0783 -6.35
    endloop
  endfacet
  facet normal 0.583961 0.811781 0
    outer loop
      vertex 69.4017 69.8038 -6.35
      vertex 69.1961 69.9517 -6.35
      vertex 69.1961 69.9517 6.35
    endloop
  endfacet
  facet normal 0 0 -1
    outer loop
      vertex 68.5059 70.263 -6.35
      vertex 68.746 70.1824 -6.35
      vertex 68.9768 70.0783 -6.35
    endloop
  endfacet
  facet normal 0.318241 0.94801 0
    outer loop
      vertex 68.746 70.1824 1.26998
      vertex 68.746 70.1824 -6.35
      vertex 68.5059 70.263 -6.35
    endloop
  endfacet
  facet normal 0 0 1
    outer loop
      vertex -70.3549 67.9446 6.35
      vertex -70.3549 -67.9446 6.35
      vertex 66.3353 -69.8803 6.35
    endloop
  endfacet
  facet normal -0 0 -1
    outer loop
      vertex 68.259 -70.3194 -6.35
      vertex -67.8813 -70.3572 -6.35
      vertex -69.68 -69.5456 -6.35
    endloop
  endfacet
  facet normal 0 0 1
    outer loop
      vertex 66.3353 -69.8803 6.35
      vertex -70.3549 -67.9446 6.35
      vertex 68.9768 -70.0783 6.35
    endloop
  endfacet
  facet normal 0 0 1
    outer loop
      vertex 67.5022 70.3383 6.35
      vertex -70.3549 67.9446 6.35
      vertex 66.3353 -69.8803 6.35
    endloop
  endfacet
  facet normal 0.969065 -0.246807 0
    outer loop
      vertex 70.3076 -68.3213 -6.35
      vertex 70.2451 -68.5667 6.35
      vertex 70.2451 -68.5667 -6.35
    endloop
  endfacet
  facet normal 0 0 1
    outer loop
      vertex 68.9768 -70.0783 6.35
      vertex 69.5915 -69.6363 6.35
      vertex 70.0487 -69.0328 6.35
    endloop
  endfacet
  facet normal 0 0 1
    outer loop
      vertex 69.1961 69.9517 6.35
      vertex 68.9768 70.0783 6.35
      vertex 68.5059 70.263 6.35
    endloop
  endfacet
  facet normal 0.499962 0.866047 -0
    outer loop
      vertex 68.9768 70.0783 1.26998
      vertex 68.9768 70.0783 6.35
      vertex 69.1961 69.9517 6.35
    endloop
  endfacet
  facet normal 0 0 1
    outer loop
      vertex 67.7547 70.3572 6.35
      vertex -69.4987 69.7224 6.35
      vertex -65.2906 68.0709 6.35
    endloop
  endfacet
  facet normal 0.0248836 0.99969 0
    outer loop
      vertex 67.7547 70.3572 6.35
      vertex 68.0078 70.3509 1.26998
      vertex 67.7547 70.3572 -6.35
    endloop
  endfacet
  facet normal 0 0 -1
    outer loop
      vertex 68.259 -70.3194 -6.35
      vertex 67.7547 -70.3572 -6.35
      vertex -67.8813 -70.3572 -6.35
    endloop
  endfacet
  facet normal -1 0 0
    outer loop
      vertex -70.3549 67.9446 -6.35
      vertex -70.3549 -67.9446 6.35
      vertex -70.3549 67.9446 6.35
    endloop
  endfacet
  facet normal 0 0 1
    outer loop
      vertex 67.7547 70.3572 6.35
      vertex -65.2906 68.0709 6.35
      vertex -70.3549 67.9446 6.35
    endloop
  endfacet
  facet normal 0 0 -1
    outer loop
      vertex -69.4987 69.7224 -6.35
      vertex -68.627 70.2257 -6.35
      vertex -67.8813 70.3572 -6.35
    endloop
  endfacet
  facet normal -1 0 0
    outer loop
      vertex -70.3549 67.9446 -6.35
      vertex -70.3549 -67.9446 -6.35
      vertex -70.3549 -67.9446 6.35
    endloop
  endfacet
  facet normal 0 0 1
    outer loop
      vertex -70.3549 -67.9446 6.35
      vertex -67.8813 -70.3572 6.35
      vertex 67.7547 -70.3572 6.35
    endloop
  endfacet
  facet normal 0 0 -1
    outer loop
      vertex 70.358 -67.818 -6.35
      vertex 70.2451 -68.5667 -6.35
      vertex 70.0487 -69.0328 -6.35
    endloop
  endfacet
  facet normal 0 0 -1
    outer loop
      vertex 70.358 -67.818 -6.35
      vertex 70.3076 -68.3213 -6.35
      vertex 70.2451 -68.5667 -6.35
    endloop
  endfacet
  facet normal 0.583701 -0.811969 0
    outer loop
      vertex 69.4017 -69.8039 6.35
      vertex 69.1961 -69.9517 -6.35
      vertex 69.4017 -69.8039 -6.35
    endloop
  endfacet
  facet normal 0.939678 -0.34206 0
    outer loop
      vertex 70.2451 -68.5667 6.35
      vertex 70.1585 -68.8046 -6.35
      vertex 70.2451 -68.5667 -6.35
    endloop
  endfacet
  facet normal 0 0 -1
    outer loop
      vertex 70.0487 -69.0328 -6.35
      vertex 69.4017 -69.8039 -6.35
      vertex 68.259 -70.3194 -6.35
    endloop
  endfacet
  facet normal 0.661909 -0.749584 0
    outer loop
      vertex 69.5915 -69.6363 6.35
      vertex 69.4017 -69.8039 6.35
      vertex 69.4017 -69.8039 -6.35
    endloop
  endfacet
  facet normal 0.124424 0.992229 -0
    outer loop
      vertex 68.259 70.3194 1.26998
      vertex 68.0078 70.3509 1.26998
      vertex 68.259 70.3194 6.35
    endloop
  endfacet
  facet normal 0 0 1
    outer loop
      vertex 68.5059 70.263 6.35
      vertex 68.259 70.3194 6.35
      vertex 67.7547 70.3572 6.35
    endloop
  endfacet
  facet normal 0.411153 0.911566 0
    outer loop
      vertex 68.746 70.1824 1.26998
      vertex 68.9768 70.0783 6.35
      vertex 68.9768 70.0783 1.26998
    endloop
  endfacet
  facet normal 0 0 1
    outer loop
      vertex 68.9768 70.0783 6.35
      vertex 68.746 70.1824 6.35
      vertex 68.5059 70.263 6.35
    endloop
  endfacet
  facet normal 0.222696 0.974888 0
    outer loop
      vertex 68.5059 70.263 -6.35
      vertex 68.259 70.3194 -6.35
      vertex 68.259 70.3194 1.26998
    endloop
  endfacet
  facet normal 0 0 -1
    outer loop
      vertex 67.7547 70.3572 -6.35
      vertex 68.259 70.3194 -6.35
      vertex 68.5059 70.263 -6.35
    endloop
  endfacet
  facet normal 0.124424 0.992229 -0
    outer loop
      vertex 68.259 70.3194 -6.35
      vertex 68.0078 70.3509 1.26998
      vertex 68.259 70.3194 1.26998
    endloop
  endfacet
  facet normal 0.0248836 0.99969 0
    outer loop
      vertex 68.0078 70.3509 1.26998
      vertex 68.0078 70.3509 -6.35
      vertex 67.7547 70.3572 -6.35
    endloop
  endfacet
  facet normal 0 0 1
    outer loop
      vertex -70.3549 -67.9446 6.35
      vertex 67.7547 -70.3572 6.35
      vertex 68.9768 -70.0783 6.35
    endloop
  endfacet
  facet normal -0 -1 0
    outer loop
      vertex 67.7547 -70.3572 6.35
      vertex -67.8813 -70.3572 6.35
      vertex -67.8813 -70.3572 -6.35
    endloop
  endfacet
  facet normal 0 0 -1
    outer loop
      vertex -70.3549 67.9446 -6.35
      vertex -69.4987 69.7224 -6.35
      vertex -67.8813 70.3572 -6.35
    endloop
  endfacet
  facet normal 0 1 -0
    outer loop
      vertex 67.7547 70.3572 -6.35
      vertex -67.8813 70.3572 -6.35
      vertex 67.7547 70.3572 6.35
    endloop
  endfacet
  facet normal 0 0 -1
    outer loop
      vertex -69.68 -69.5456 -6.35
      vertex -70.3549 -67.9446 -6.35
      vertex -70.3549 67.9446 -6.35
    endloop
  endfacet
  facet normal -0.994998 -0.0998946 0
    outer loop
      vertex -70.3549 -67.9446 -6.35
      vertex -70.3296 -68.1966 1.26998
      vertex -70.3549 -67.9446 6.35
    endloop
  endfacet
  facet normal 0 0 -1
    outer loop
      vertex -69.68 -69.5456 -6.35
      vertex -70.2048 -68.6867 -6.35
      vertex -70.3549 -67.9446 -6.35
    endloop
  endfacet
  facet normal -0.0746427 -0.99721 -0
    outer loop
      vertex -67.8813 -70.3572 6.35
      vertex -68.1338 -70.3383 6.35
      vertex -67.8813 -70.3572 -6.35
    endloop
  endfacet
  facet normal 0 0 -1
    outer loop
      vertex 70.358 -67.818 -6.35
      vertex 70.3454 -68.0709 -6.35
      vertex 70.3076 -68.3213 -6.35
    endloop
  endfacet
  facet normal 0.988797 -0.149267 0
    outer loop
      vertex 70.3454 -68.0709 -6.35
      vertex 70.3076 -68.3213 6.35
      vertex 70.3076 -68.3213 -6.35
    endloop
  endfacet
  facet normal 0 0 1
    outer loop
      vertex 70.0487 -69.0328 6.35
      vertex 70.2451 -68.5667 6.35
      vertex 70.358 -67.818 6.35
    endloop
  endfacet
  facet normal 0.901116 -0.433578 0
    outer loop
      vertex 70.1585 -68.8046 -6.35
      vertex 70.1585 -68.8046 6.35
      vertex 70.0487 -69.0328 6.35
    endloop
  endfacet
  facet normal 0.901116 -0.433578 0
    outer loop
      vertex 70.0487 -69.0328 -6.35
      vertex 70.1585 -68.8046 -6.35
      vertex 70.0487 -69.0328 6.35
    endloop
  endfacet
  facet normal 0 0 -1
    outer loop
      vertex 70.2451 -68.5667 -6.35
      vertex 70.1585 -68.8046 -6.35
      vertex 70.0487 -69.0328 -6.35
    endloop
  endfacet
  facet normal 0 0 1
    outer loop
      vertex 69.5915 -69.6363 6.35
      vertex 69.7638 -69.4507 6.35
      vertex 70.0487 -69.0328 6.35
    endloop
  endfacet
  facet normal 0 0 -1
    outer loop
      vertex 69.7638 -69.4507 -6.35
      vertex 69.5915 -69.6363 -6.35
      vertex 69.4017 -69.8039 -6.35
    endloop
  endfacet
  facet normal 0 0 1
    outer loop
      vertex 68.5059 -70.2631 6.35
      vertex 68.746 -70.1824 6.35
      vertex 68.9768 -70.0783 6.35
    endloop
  endfacet
  facet normal 0 0 -1
    outer loop
      vertex 69.4017 -69.8039 -6.35
      vertex 68.9768 -70.0783 -6.35
      vertex 68.259 -70.3194 -6.35
    endloop
  endfacet
  facet normal 0.411153 0.911566 -0
    outer loop
      vertex 68.746 70.1824 1.26998
      vertex 68.746 70.1824 6.35
      vertex 68.9768 70.0783 6.35
    endloop
  endfacet
  facet normal 0.318241 0.94801 0
    outer loop
      vertex 68.5059 70.263 6.35
      vertex 68.746 70.1824 6.35
      vertex 68.746 70.1824 1.26998
    endloop
  endfacet
  facet normal 0.0248836 0.99969 0
    outer loop
      vertex 67.7547 70.3572 6.35
      vertex 68.0078 70.3509 6.35
      vertex 68.0078 70.3509 1.26998
    endloop
  endfacet
  facet normal 0 0 1
    outer loop
      vertex 68.259 70.3194 6.35
      vertex 68.0078 70.3509 6.35
      vertex 67.7547 70.3572 6.35
    endloop
  endfacet
  facet normal 0.124424 0.992229 0
    outer loop
      vertex 68.259 70.3194 -6.35
      vertex 68.0078 70.3509 -6.35
      vertex 68.0078 70.3509 1.26998
    endloop
  endfacet
  facet normal 0 0 -1
    outer loop
      vertex 67.7547 70.3572 -6.35
      vertex 68.0078 70.3509 -6.35
      vertex 68.259 70.3194 -6.35
    endloop
  endfacet
  facet normal 0.0248836 -0.99969 0
    outer loop
      vertex 67.7547 -70.3572 -6.35
      vertex 68.0078 -70.3509 -6.35
      vertex 67.7547 -70.3572 6.35
    endloop
  endfacet
  facet normal 0 -1 0
    outer loop
      vertex -67.8813 -70.3572 -6.35
      vertex 67.7547 -70.3572 -6.35
      vertex 67.7547 -70.3572 6.35
    endloop
  endfacet
  facet normal 0.411153 -0.911566 0
    outer loop
      vertex 68.9768 -70.0783 6.35
      vertex 68.746 -70.1824 6.35
      vertex 68.9768 -70.0783 -6.35
    endloop
  endfacet
  facet normal 0 0 1
    outer loop
      vertex 67.7547 -70.3572 6.35
      vertex 68.5059 -70.2631 6.35
      vertex 68.9768 -70.0783 6.35
    endloop
  endfacet
  facet normal 0 0 1
    outer loop
      vertex -70.3549 -67.9446 6.35
      vertex -69.4987 -69.7225 6.35
      vertex -67.8813 -70.3572 6.35
    endloop
  endfacet
  facet normal -0.98023 -0.197863 0
    outer loop
      vertex -70.2795 -68.4448 1.26998
      vertex -70.2795 -68.4448 6.35
      vertex -70.3296 -68.1966 1.26998
    endloop
  endfacet
  facet normal -0.698166 0.715936 0
    outer loop
      vertex -69.4987 69.7224 -6.35
      vertex -69.68 69.5456 6.35
      vertex -69.4987 69.7224 6.35
    endloop
  endfacet
  facet normal 0 0 1
    outer loop
      vertex -65.2906 68.0709 6.35
      vertex -69.4987 69.7224 6.35
      vertex -70.3549 67.9446 6.35
    endloop
  endfacet
  facet normal 0 0 1
    outer loop
      vertex -70.1065 -68.9201 6.35
      vertex -69.8427 -69.3517 6.35
      vertex -69.4987 -69.7225 6.35
    endloop
  endfacet
  facet normal -0.994998 -0.0998946 0
    outer loop
      vertex -70.3296 -68.1966 1.26998
      vertex -70.3296 -68.1966 6.35
      vertex -70.3549 -67.9446 6.35
    endloop
  endfacet
  facet normal 0.998761 -0.0497603 0
    outer loop
      vertex 70.358 -67.818 6.35
      vertex 70.3454 -68.0709 -6.35
      vertex 70.358 -67.818 -6.35
    endloop
  endfacet
  facet normal 0.998761 -0.0497603 0
    outer loop
      vertex 70.358 -67.818 6.35
      vertex 70.3454 -68.0709 6.35
      vertex 70.3454 -68.0709 -6.35
    endloop
  endfacet
  facet normal 0 0 1
    outer loop
      vertex 70.2451 -68.5667 6.35
      vertex 70.3076 -68.3213 6.35
      vertex 70.358 -67.818 6.35
    endloop
  endfacet
  facet normal 0.969065 -0.246807 0
    outer loop
      vertex 70.3076 -68.3213 -6.35
      vertex 70.3076 -68.3213 6.35
      vertex 70.2451 -68.5667 6.35
    endloop
  endfacet
  facet normal 0.939678 -0.34206 0
    outer loop
      vertex 70.2451 -68.5667 6.35
      vertex 70.1585 -68.8046 6.35
      vertex 70.1585 -68.8046 -6.35
    endloop
  endfacet
  facet normal 0 0 1
    outer loop
      vertex 70.0487 -69.0328 6.35
      vertex 70.1585 -68.8046 6.35
      vertex 70.2451 -68.5667 6.35
    endloop
  endfacet
  facet normal 0 0 1
    outer loop
      vertex 68.9768 -70.0783 6.35
      vertex 69.4017 -69.8039 6.35
      vertex 69.5915 -69.6363 6.35
    endloop
  endfacet
  facet normal 0 0 1
    outer loop
      vertex 68.9768 -70.0783 6.35
      vertex 69.1961 -69.9517 6.35
      vertex 69.4017 -69.8039 6.35
    endloop
  endfacet
  facet normal 0 0 -1
    outer loop
      vertex 70.0487 -69.0328 -6.35
      vertex 69.7638 -69.4507 -6.35
      vertex 69.4017 -69.8039 -6.35
    endloop
  endfacet
  facet normal 0 0 1
    outer loop
      vertex 69.7638 -69.4507 6.35
      vertex 69.9166 -69.2488 6.35
      vertex 70.0487 -69.0328 6.35
    endloop
  endfacet
  facet normal 0.499962 -0.866047 0
    outer loop
      vertex 68.9768 -70.0783 -6.35
      vertex 69.1961 -69.9517 -6.35
      vertex 68.9768 -70.0783 6.35
    endloop
  endfacet
  facet normal 0 0 -1
    outer loop
      vertex 69.4017 -69.8039 -6.35
      vertex 69.1961 -69.9517 -6.35
      vertex 68.9768 -70.0783 -6.35
    endloop
  endfacet
  facet normal 0.0248836 -0.99969 0
    outer loop
      vertex 68.0078 -70.3509 -6.35
      vertex 68.0078 -70.3509 6.35
      vertex 67.7547 -70.3572 6.35
    endloop
  endfacet
  facet normal 0.124424 -0.992229 0
    outer loop
      vertex 68.259 -70.3194 -6.35
      vertex 68.259 -70.3194 6.35
      vertex 68.0078 -70.3509 -6.35
    endloop
  endfacet
  facet normal 0.222321 -0.974974 0
    outer loop
      vertex 68.259 -70.3194 -6.35
      vertex 68.5059 -70.2631 -6.35
      vertex 68.5059 -70.2631 6.35
    endloop
  endfacet
  facet normal 0 0 -1
    outer loop
      vertex 68.9768 -70.0783 -6.35
      vertex 68.5059 -70.2631 -6.35
      vertex 68.259 -70.3194 -6.35
    endloop
  endfacet
  facet normal 0.318596 -0.947891 0
    outer loop
      vertex 68.5059 -70.2631 -6.35
      vertex 68.746 -70.1824 6.35
      vertex 68.5059 -70.2631 6.35
    endloop
  endfacet
  facet normal 0.411153 -0.911566 0
    outer loop
      vertex 68.746 -70.1824 6.35
      vertex 68.746 -70.1824 -6.35
      vertex 68.9768 -70.0783 -6.35
    endloop
  endfacet
  facet normal -0.766047 -0.642784 0
    outer loop
      vertex -69.68 -69.5456 -6.35
      vertex -69.68 -69.5456 1.26998
      vertex -69.8427 -69.3517 -1.27
    endloop
  endfacet
  facet normal 0 0 1
    outer loop
      vertex -69.4987 -69.7225 6.35
      vertex -68.627 -70.2257 6.35
      vertex -67.8813 -70.3572 6.35
    endloop
  endfacet
  facet normal 0 0 1
    outer loop
      vertex 67.7547 70.3572 6.35
      vertex -67.8813 70.3572 6.35
      vertex -69.4987 69.7224 6.35
    endloop
  endfacet
  facet normal 0 1 0
    outer loop
      vertex -67.8813 70.3572 -6.35
      vertex -67.8813 70.3572 6.35
      vertex 67.7547 70.3572 6.35
    endloop
  endfacet
  facet normal 0 0 -1
    outer loop
      vertex -70.3549 67.9446 -6.35
      vertex -70.1065 68.9201 -6.35
      vertex -69.4987 69.7224 -6.35
    endloop
  endfacet
  facet normal 0 0 1
    outer loop
      vertex -68.627 70.2257 6.35
      vertex -69.088 70.0177 6.35
      vertex -69.4987 69.7224 6.35
    endloop
  endfacet
  facet normal -0.921598 0.388145 0
    outer loop
      vertex -70.1065 68.9201 -6.35
      vertex -70.2048 68.6867 6.35
      vertex -70.1065 68.9201 6.35
    endloop
  endfacet
  facet normal 0 0 1
    outer loop
      vertex -69.4987 69.7224 6.35
      vertex -70.1065 68.9201 6.35
      vertex -70.3549 67.9446 6.35
    endloop
  endfacet
  facet normal 0 0 -1
    outer loop
      vertex -69.9854 -69.1424 -6.35
      vertex -70.1065 -68.9201 -6.35
      vertex -70.2048 -68.6867 -6.35
    endloop
  endfacet
  facet normal -0.921598 -0.388145 0
    outer loop
      vertex -70.2048 -68.6867 -6.35
      vertex -70.1065 -68.9201 6.35
      vertex -70.2048 -68.6867 1.26998
    endloop
  endfacet
  facet normal -0.95548 -0.295057 0
    outer loop
      vertex -70.2795 -68.4448 1.26998
      vertex -70.2048 -68.6867 -6.35
      vertex -70.2048 -68.6867 1.26998
    endloop
  endfacet
  facet normal 0 0 -1
    outer loop
      vertex -70.2048 -68.6867 -6.35
      vertex -70.2795 -68.4448 -6.35
      vertex -70.3549 -67.9446 -6.35
    endloop
  endfacet
  facet normal 0 0 1
    outer loop
      vertex 70.3076 -68.3213 6.35
      vertex 70.3454 -68.0709 6.35
      vertex 70.358 -67.818 6.35
    endloop
  endfacet
  facet normal 0.988797 -0.149267 0
    outer loop
      vertex 70.3454 -68.0709 -6.35
      vertex 70.3454 -68.0709 6.35
      vertex 70.3076 -68.3213 6.35
    endloop
  endfacet
  facet normal 0.732878 -0.68036 0
    outer loop
      vertex 69.7638 -69.4507 -6.35
      vertex 69.7638 -69.4507 6.35
      vertex 69.5915 -69.6363 6.35
    endloop
  endfacet
  facet normal 0.797386 -0.60347 0
    outer loop
      vertex 69.7638 -69.4507 -6.35
      vertex 69.9166 -69.2488 -6.35
      vertex 69.7638 -69.4507 6.35
    endloop
  endfacet
  facet normal 0.732878 -0.68036 0
    outer loop
      vertex 69.5915 -69.6363 6.35
      vertex 69.5915 -69.6363 -6.35
      vertex 69.7638 -69.4507 -6.35
    endloop
  endfacet
  facet normal 0.661909 -0.749584 0
    outer loop
      vertex 69.4017 -69.8039 -6.35
      vertex 69.5915 -69.6363 -6.35
      vertex 69.5915 -69.6363 6.35
    endloop
  endfacet
  facet normal 0 0 -1
    outer loop
      vertex 70.0487 -69.0328 -6.35
      vertex 69.9166 -69.2488 -6.35
      vertex 69.7638 -69.4507 -6.35
    endloop
  endfacet
  facet normal 0.853106 -0.521738 0
    outer loop
      vertex 70.0487 -69.0328 6.35
      vertex 69.9166 -69.2488 -6.35
      vertex 70.0487 -69.0328 -6.35
    endloop
  endfacet
  facet normal 0.499962 -0.866047 0
    outer loop
      vertex 69.1961 -69.9517 -6.35
      vertex 69.1961 -69.9517 6.35
      vertex 68.9768 -70.0783 6.35
    endloop
  endfacet
  facet normal 0.583701 -0.811969 0
    outer loop
      vertex 69.4017 -69.8039 6.35
      vertex 69.1961 -69.9517 6.35
      vertex 69.1961 -69.9517 -6.35
    endloop
  endfacet
  facet normal 0.222321 -0.974974 0
    outer loop
      vertex 68.5059 -70.2631 6.35
      vertex 68.259 -70.3194 6.35
      vertex 68.259 -70.3194 -6.35
    endloop
  endfacet
  facet normal 0 0 1
    outer loop
      vertex 67.7547 -70.3572 6.35
      vertex 68.259 -70.3194 6.35
      vertex 68.5059 -70.2631 6.35
    endloop
  endfacet
  facet normal 0.318596 -0.947891 0
    outer loop
      vertex 68.5059 -70.2631 -6.35
      vertex 68.746 -70.1824 -6.35
      vertex 68.746 -70.1824 6.35
    endloop
  endfacet
  facet normal 0 0 -1
    outer loop
      vertex 68.9768 -70.0783 -6.35
      vertex 68.746 -70.1824 -6.35
      vertex 68.5059 -70.2631 -6.35
    endloop
  endfacet
  facet normal -0.0746427 -0.99721 -0
    outer loop
      vertex -68.1338 -70.3383 6.35
      vertex -68.1338 -70.3383 -6.35
      vertex -67.8813 -70.3572 -6.35
    endloop
  endfacet
  facet normal -0.17374 -0.984792 -0
    outer loop
      vertex -68.3832 -70.2943 6.35
      vertex -68.3832 -70.2943 -6.35
      vertex -68.1338 -70.3383 6.35
    endloop
  endfacet
  facet normal -0.698368 -0.715739 0
    outer loop
      vertex -69.4987 -69.7225 6.35
      vertex -69.68 -69.5456 1.26998
      vertex -69.68 -69.5456 -6.35
    endloop
  endfacet
  facet normal 0 0 1
    outer loop
      vertex -70.3549 -67.9446 6.35
      vertex -70.1065 -68.9201 6.35
      vertex -69.4987 -69.7225 6.35
    endloop
  endfacet
  facet normal -0.766047 -0.642784 0
    outer loop
      vertex -69.68 -69.5456 1.26998
      vertex -69.8427 -69.3517 6.35
      vertex -69.8427 -69.3517 -1.27
    endloop
  endfacet
  facet normal 0 0 1
    outer loop
      vertex -69.8427 -69.3517 6.35
      vertex -69.68 -69.5456 6.35
      vertex -69.4987 -69.7225 6.35
    endloop
  endfacet
  facet normal 0 0 1
    outer loop
      vertex -67.8813 70.3572 6.35
      vertex -68.627 70.2257 6.35
      vertex -69.4987 69.7224 6.35
    endloop
  endfacet
  facet normal 0 0 -1
    outer loop
      vertex -68.627 70.2257 -6.35
      vertex -68.3832 70.2943 -6.35
      vertex -67.8813 70.3572 -6.35
    endloop
  endfacet
  facet normal 0 0 -1
    outer loop
      vertex -70.3549 67.9446 -6.35
      vertex -70.2795 68.4447 -6.35
      vertex -70.1065 68.9201 -6.35
    endloop
  endfacet
  facet normal 0 0 1
    outer loop
      vertex -69.4987 69.7224 6.35
      vertex -69.8427 69.3516 6.35
      vertex -70.1065 68.9201 6.35
    endloop
  endfacet
  facet normal 0 0 1
    outer loop
      vertex -69.8427 69.3516 6.35
      vertex -69.9854 69.1424 6.35
      vertex -70.1065 68.9201 6.35
    endloop
  endfacet
  facet normal 0 0 -1
    outer loop
      vertex -70.1065 68.9201 -6.35
      vertex -69.8427 69.3516 -6.35
      vertex -69.4987 69.7224 -6.35
    endloop
  endfacet
  facet normal -0.98023 0.197863 0
    outer loop
      vertex -70.2795 68.4447 -6.35
      vertex -70.3296 68.1965 6.35
      vertex -70.2795 68.4447 6.35
    endloop
  endfacet
  facet normal 0 0 1
    outer loop
      vertex -70.1065 68.9201 6.35
      vertex -70.2795 68.4447 6.35
      vertex -70.3549 67.9446 6.35
    endloop
  endfacet
  facet normal -0.95548 -0.295057 -0
    outer loop
      vertex -70.2795 -68.4448 1.26998
      vertex -70.2795 -68.4448 -6.35
      vertex -70.2048 -68.6867 -6.35
    endloop
  endfacet
  facet normal -0.95548 -0.295057 0
    outer loop
      vertex -70.2048 -68.6867 1.26998
      vertex -70.2795 -68.4448 6.35
      vertex -70.2795 -68.4448 1.26998
    endloop
  endfacet
  facet normal 0 0 -1
    outer loop
      vertex -69.68 -69.5456 -6.35
      vertex -69.9854 -69.1424 -6.35
      vertex -70.2048 -68.6867 -6.35
    endloop
  endfacet
  facet normal -0.826236 -0.563325 0
    outer loop
      vertex -69.9854 -69.1424 -6.35
      vertex -69.8427 -69.3517 -6.35
      vertex -69.8427 -69.3517 -1.27
    endloop
  endfacet
  facet normal -0.98023 -0.197863 0
    outer loop
      vertex -70.3296 -68.1966 1.26998
      vertex -70.2795 -68.4448 -6.35
      vertex -70.2795 -68.4448 1.26998
    endloop
  endfacet
  facet normal 0 0 -1
    outer loop
      vertex -70.2795 -68.4448 -6.35
      vertex -70.3296 -68.1966 -6.35
      vertex -70.3549 -67.9446 -6.35
    endloop
  endfacet
  facet normal 0.797386 -0.60347 0
    outer loop
      vertex 69.9166 -69.2488 -6.35
      vertex 69.9166 -69.2488 6.35
      vertex 69.7638 -69.4507 6.35
    endloop
  endfacet
  facet normal 0.853106 -0.521738 0
    outer loop
      vertex 70.0487 -69.0328 6.35
      vertex 69.9166 -69.2488 6.35
      vertex 69.9166 -69.2488 -6.35
    endloop
  endfacet
  facet normal 0.124424 -0.992229 0
    outer loop
      vertex 68.259 -70.3194 6.35
      vertex 68.0078 -70.3509 6.35
      vertex 68.0078 -70.3509 -6.35
    endloop
  endfacet
  facet normal 0 0 1
    outer loop
      vertex 67.7547 -70.3572 6.35
      vertex 68.0078 -70.3509 6.35
      vertex 68.259 -70.3194 6.35
    endloop
  endfacet
  facet normal 0 0 1
    outer loop
      vertex -68.627 -70.2257 6.35
      vertex -68.3832 -70.2943 6.35
      vertex -67.8813 -70.3572 6.35
    endloop
  endfacet
  facet normal 0 0 -1
    outer loop
      vertex -69.088 -70.0177 -6.35
      vertex -69.3007 -69.8803 -6.35
      vertex -69.68 -69.5456 -6.35
    endloop
  endfacet
  facet normal -0.698368 -0.715739 0
    outer loop
      vertex -69.68 -69.5456 -6.35
      vertex -69.4987 -69.7225 -6.35
      vertex -69.4987 -69.7225 6.35
    endloop
  endfacet
  facet normal 0 0 -1
    outer loop
      vertex -67.8813 -70.3572 -6.35
      vertex -69.088 -70.0177 -6.35
      vertex -69.68 -69.5456 -6.35
    endloop
  endfacet
  facet normal -0.921598 -0.388145 0
    outer loop
      vertex -70.1065 -68.9201 6.35
      vertex -70.2048 -68.6867 6.35
      vertex -70.2048 -68.6867 1.26998
    endloop
  endfacet
  facet normal 0 0 1
    outer loop
      vertex -70.3549 -67.9446 6.35
      vertex -70.2795 -68.4448 6.35
      vertex -70.1065 -68.9201 6.35
    endloop
  endfacet
  facet normal -0.878152 -0.478382 0
    outer loop
      vertex -69.9854 -69.1424 -6.35
      vertex -69.9854 -69.1424 6.35
      vertex -70.1065 -68.9201 6.35
    endloop
  endfacet
  facet normal -0.826236 -0.563325 0
    outer loop
      vertex -69.8427 -69.3517 -1.27
      vertex -69.8427 -69.3517 6.35
      vertex -69.9854 -69.1424 -6.35
    endloop
  endfacet
  facet normal -0.365322 0.930881 0
    outer loop
      vertex -68.627 70.2257 -6.35
      vertex -68.8627 70.1332 6.35
      vertex -68.627 70.2257 6.35
    endloop
  endfacet
  facet normal -0.27086 0.962619 0
    outer loop
      vertex -68.627 70.2257 6.35
      vertex -68.3832 70.2943 6.35
      vertex -68.627 70.2257 -6.35
    endloop
  endfacet
  facet normal -0.542613 0.839983 0
    outer loop
      vertex -69.088 70.0177 -6.35
      vertex -69.3007 69.8803 6.35
      vertex -69.088 70.0177 6.35
    endloop
  endfacet
  facet normal 0 0 1
    outer loop
      vertex -69.088 70.0177 6.35
      vertex -69.3007 69.8803 6.35
      vertex -69.4987 69.7224 6.35
    endloop
  endfacet
  facet normal 0 0 1
    outer loop
      vertex -67.8813 70.3572 6.35
      vertex -68.3832 70.2943 6.35
      vertex -68.627 70.2257 6.35
    endloop
  endfacet
  facet normal 0 0 -1
    outer loop
      vertex -68.3832 70.2943 -6.35
      vertex -68.1338 70.3383 -6.35
      vertex -67.8813 70.3572 -6.35
    endloop
  endfacet
  facet normal -0.82611 0.563508 0
    outer loop
      vertex -69.8427 69.3516 6.35
      vertex -69.8427 69.3516 -6.35
      vertex -69.9854 69.1424 6.35
    endloop
  endfacet
  facet normal 0 0 1
    outer loop
      vertex -69.4987 69.7224 6.35
      vertex -69.68 69.5456 6.35
      vertex -69.8427 69.3516 6.35
    endloop
  endfacet
  facet normal -0.878152 0.478382 0
    outer loop
      vertex -69.9854 69.1424 6.35
      vertex -69.9854 69.1424 -6.35
      vertex -70.1065 68.9201 -6.35
    endloop
  endfacet
  facet normal -0.878152 0.478382 0
    outer loop
      vertex -70.1065 68.9201 6.35
      vertex -69.9854 69.1424 6.35
      vertex -70.1065 68.9201 -6.35
    endloop
  endfacet
  facet normal -0.76621 0.64259 0
    outer loop
      vertex -69.68 69.5456 6.35
      vertex -69.8427 69.3516 -6.35
      vertex -69.8427 69.3516 6.35
    endloop
  endfacet
  facet normal 0 0 -1
    outer loop
      vertex -69.8427 69.3516 -6.35
      vertex -69.68 69.5456 -6.35
      vertex -69.4987 69.7224 -6.35
    endloop
  endfacet
  facet normal 0 0 -1
    outer loop
      vertex -70.3549 67.9446 -6.35
      vertex -70.3296 68.1965 -6.35
      vertex -70.2795 68.4447 -6.35
    endloop
  endfacet
  facet normal 0 0 1
    outer loop
      vertex -70.1065 68.9201 6.35
      vertex -70.2048 68.6867 6.35
      vertex -70.2795 68.4447 6.35
    endloop
  endfacet
  facet normal -0.955514 0.294946 0
    outer loop
      vertex -70.2048 68.6867 6.35
      vertex -70.2795 68.4447 -6.35
      vertex -70.2795 68.4447 6.35
    endloop
  endfacet
  facet normal 0 0 -1
    outer loop
      vertex -70.2795 68.4447 -6.35
      vertex -70.2048 68.6867 -6.35
      vertex -70.1065 68.9201 -6.35
    endloop
  endfacet
  facet normal -0.994994 0.0999339 0
    outer loop
      vertex -70.3549 67.9446 6.35
      vertex -70.3296 68.1965 6.35
      vertex -70.3549 67.9446 -6.35
    endloop
  endfacet
  facet normal 0 0 1
    outer loop
      vertex -70.2795 68.4447 6.35
      vertex -70.3296 68.1965 6.35
      vertex -70.3549 67.9446 6.35
    endloop
  endfacet
  facet normal -0.878152 -0.478382 -0
    outer loop
      vertex -70.1065 -68.9201 6.35
      vertex -70.1065 -68.9201 -6.35
      vertex -69.9854 -69.1424 -6.35
    endloop
  endfacet
  facet normal -0.921598 -0.388145 0
    outer loop
      vertex -70.2048 -68.6867 -6.35
      vertex -70.1065 -68.9201 -6.35
      vertex -70.1065 -68.9201 6.35
    endloop
  endfacet
  facet normal 0 0 -1
    outer loop
      vertex -69.68 -69.5456 -6.35
      vertex -69.8427 -69.3517 -6.35
      vertex -69.9854 -69.1424 -6.35
    endloop
  endfacet
  facet normal -0.766047 -0.642784 -0
    outer loop
      vertex -69.8427 -69.3517 -1.27
      vertex -69.8427 -69.3517 -6.35
      vertex -69.68 -69.5456 -6.35
    endloop
  endfacet
  facet normal -0.98023 -0.197863 -0
    outer loop
      vertex -70.3296 -68.1966 1.26998
      vertex -70.3296 -68.1966 -6.35
      vertex -70.2795 -68.4448 -6.35
    endloop
  endfacet
  facet normal -0.994998 -0.0998946 0
    outer loop
      vertex -70.3549 -67.9446 -6.35
      vertex -70.3296 -68.1966 -6.35
      vertex -70.3296 -68.1966 1.26998
    endloop
  endfacet
  facet normal 0 0 1
    outer loop
      vertex -68.3832 -70.2943 6.35
      vertex -68.1338 -70.3383 6.35
      vertex -67.8813 -70.3572 6.35
    endloop
  endfacet
  facet normal -0.27086 -0.962619 0
    outer loop
      vertex -68.627 -70.2257 6.35
      vertex -68.3832 -70.2943 -6.35
      vertex -68.3832 -70.2943 6.35
    endloop
  endfacet
  facet normal -0.456196 -0.889879 0
    outer loop
      vertex -69.088 -70.0177 -6.35
      vertex -68.8627 -70.1332 6.35
      vertex -69.088 -70.0177 6.35
    endloop
  endfacet
  facet normal 0 0 -1
    outer loop
      vertex -67.8813 -70.3572 -6.35
      vertex -68.3832 -70.2943 -6.35
      vertex -69.088 -70.0177 -6.35
    endloop
  endfacet
  facet normal 0 0 1
    outer loop
      vertex -69.088 -70.0177 6.35
      vertex -68.8627 -70.1332 6.35
      vertex -68.627 -70.2257 6.35
    endloop
  endfacet
  facet normal 0 0 1
    outer loop
      vertex -69.4987 -69.7225 6.35
      vertex -69.088 -70.0177 6.35
      vertex -68.627 -70.2257 6.35
    endloop
  endfacet
  facet normal -0.542613 -0.839983 -0
    outer loop
      vertex -69.088 -70.0177 6.35
      vertex -69.3007 -69.8803 -6.35
      vertex -69.088 -70.0177 -6.35
    endloop
  endfacet
  facet normal -0.623249 -0.782023 0
    outer loop
      vertex -69.3007 -69.8803 -6.35
      vertex -69.3007 -69.8803 6.35
      vertex -69.4987 -69.7225 6.35
    endloop
  endfacet
  facet normal -0.98023 -0.197863 0
    outer loop
      vertex -70.2795 -68.4448 6.35
      vertex -70.3296 -68.1966 6.35
      vertex -70.3296 -68.1966 1.26998
    endloop
  endfacet
  facet normal 0 0 1
    outer loop
      vertex -70.3549 -67.9446 6.35
      vertex -70.3296 -68.1966 6.35
      vertex -70.2795 -68.4448 6.35
    endloop
  endfacet
  facet normal 0 0 1
    outer loop
      vertex -70.2795 -68.4448 6.35
      vertex -70.2048 -68.6867 6.35
      vertex -70.1065 -68.9201 6.35
    endloop
  endfacet
  facet normal -0.95548 -0.295057 0
    outer loop
      vertex -70.2048 -68.6867 1.26998
      vertex -70.2048 -68.6867 6.35
      vertex -70.2795 -68.4448 6.35
    endloop
  endfacet
  facet normal -0.766047 -0.642784 0
    outer loop
      vertex -69.68 -69.5456 1.26998
      vertex -69.68 -69.5456 6.35
      vertex -69.8427 -69.3517 6.35
    endloop
  endfacet
  facet normal -0.698368 -0.715739 0
    outer loop
      vertex -69.4987 -69.7225 6.35
      vertex -69.68 -69.5456 6.35
      vertex -69.68 -69.5456 1.26998
    endloop
  endfacet
  facet normal -0.826236 -0.563325 0
    outer loop
      vertex -69.8427 -69.3517 6.35
      vertex -69.9854 -69.1424 6.35
      vertex -69.9854 -69.1424 -6.35
    endloop
  endfacet
  facet normal 0 0 1
    outer loop
      vertex -70.1065 -68.9201 6.35
      vertex -69.9854 -69.1424 6.35
      vertex -69.8427 -69.3517 6.35
    endloop
  endfacet
  facet normal -0.456196 0.889879 0
    outer loop
      vertex -68.8627 70.1332 6.35
      vertex -69.088 70.0177 -6.35
      vertex -69.088 70.0177 6.35
    endloop
  endfacet
  facet normal 0 0 1
    outer loop
      vertex -68.627 70.2257 6.35
      vertex -68.8627 70.1332 6.35
      vertex -69.088 70.0177 6.35
    endloop
  endfacet
  facet normal 0 0 -1
    outer loop
      vertex -69.088 70.0177 -6.35
      vertex -68.8627 70.1332 -6.35
      vertex -68.627 70.2257 -6.35
    endloop
  endfacet
  facet normal 0 0 -1
    outer loop
      vertex -69.4987 69.7224 -6.35
      vertex -69.088 70.0177 -6.35
      vertex -68.627 70.2257 -6.35
    endloop
  endfacet
  facet normal -0.62349 0.781831 0
    outer loop
      vertex -69.3007 69.8803 6.35
      vertex -69.3007 69.8803 -6.35
      vertex -69.4987 69.7224 -6.35
    endloop
  endfacet
  facet normal -0.62349 0.781831 0
    outer loop
      vertex -69.4987 69.7224 6.35
      vertex -69.3007 69.8803 6.35
      vertex -69.4987 69.7224 -6.35
    endloop
  endfacet
  facet normal -0.27086 0.962619 0
    outer loop
      vertex -68.3832 70.2943 6.35
      vertex -68.3832 70.2943 -6.35
      vertex -68.627 70.2257 -6.35
    endloop
  endfacet
  facet normal -0.17374 0.984792 0
    outer loop
      vertex -68.3832 70.2943 6.35
      vertex -68.1338 70.3383 6.35
      vertex -68.3832 70.2943 -6.35
    endloop
  endfacet
  facet normal 0 0 1
    outer loop
      vertex -67.8813 70.3572 6.35
      vertex -68.1338 70.3383 6.35
      vertex -68.3832 70.2943 6.35
    endloop
  endfacet
  facet normal -0.0746427 0.99721 0
    outer loop
      vertex -67.8813 70.3572 -6.35
      vertex -68.1338 70.3383 6.35
      vertex -67.8813 70.3572 6.35
    endloop
  endfacet
  facet normal -0.82611 0.563508 0
    outer loop
      vertex -69.8427 69.3516 -6.35
      vertex -69.9854 69.1424 -6.35
      vertex -69.9854 69.1424 6.35
    endloop
  endfacet
  facet normal 0 0 -1
    outer loop
      vertex -70.1065 68.9201 -6.35
      vertex -69.9854 69.1424 -6.35
      vertex -69.8427 69.3516 -6.35
    endloop
  endfacet
  facet normal -0.76621 0.64259 0
    outer loop
      vertex -69.68 69.5456 6.35
      vertex -69.68 69.5456 -6.35
      vertex -69.8427 69.3516 -6.35
    endloop
  endfacet
  facet normal -0.698166 0.715936 0
    outer loop
      vertex -69.4987 69.7224 -6.35
      vertex -69.68 69.5456 -6.35
      vertex -69.68 69.5456 6.35
    endloop
  endfacet
  facet normal -0.955514 0.294946 0
    outer loop
      vertex -70.2048 68.6867 6.35
      vertex -70.2048 68.6867 -6.35
      vertex -70.2795 68.4447 -6.35
    endloop
  endfacet
  facet normal -0.921598 0.388145 0
    outer loop
      vertex -70.1065 68.9201 -6.35
      vertex -70.2048 68.6867 -6.35
      vertex -70.2048 68.6867 6.35
    endloop
  endfacet
  facet normal -0.994994 0.0999339 0
    outer loop
      vertex -70.3296 68.1965 6.35
      vertex -70.3296 68.1965 -6.35
      vertex -70.3549 67.9446 -6.35
    endloop
  endfacet
  facet normal -0.98023 0.197863 0
    outer loop
      vertex -70.2795 68.4447 -6.35
      vertex -70.3296 68.1965 -6.35
      vertex -70.3296 68.1965 6.35
    endloop
  endfacet
  facet normal -0.17374 -0.984792 0
    outer loop
      vertex -68.3832 -70.2943 -6.35
      vertex -68.1338 -70.3383 -6.35
      vertex -68.1338 -70.3383 6.35
    endloop
  endfacet
  facet normal 0 0 -1
    outer loop
      vertex -67.8813 -70.3572 -6.35
      vertex -68.1338 -70.3383 -6.35
      vertex -68.3832 -70.2943 -6.35
    endloop
  endfacet
  facet normal 0 0 -1
    outer loop
      vertex -68.3832 -70.2943 -6.35
      vertex -68.627 -70.2257 -6.35
      vertex -69.088 -70.0177 -6.35
    endloop
  endfacet
  facet normal -0.27086 -0.962619 -0
    outer loop
      vertex -68.627 -70.2257 6.35
      vertex -68.627 -70.2257 -6.35
      vertex -68.3832 -70.2943 -6.35
    endloop
  endfacet
  facet normal 0 0 -1
    outer loop
      vertex -68.627 -70.2257 -6.35
      vertex -68.8627 -70.1332 -6.35
      vertex -69.088 -70.0177 -6.35
    endloop
  endfacet
  facet normal -0.365322 -0.930881 -0
    outer loop
      vertex -68.627 -70.2257 6.35
      vertex -68.8627 -70.1332 6.35
      vertex -68.627 -70.2257 -6.35
    endloop
  endfacet
  facet normal 0 0 -1
    outer loop
      vertex -69.3007 -69.8803 -6.35
      vertex -69.4987 -69.7225 -6.35
      vertex -69.68 -69.5456 -6.35
    endloop
  endfacet
  facet normal -0.623249 -0.782023 -0
    outer loop
      vertex -69.4987 -69.7225 6.35
      vertex -69.4987 -69.7225 -6.35
      vertex -69.3007 -69.8803 -6.35
    endloop
  endfacet
  facet normal -0.542613 -0.839983 0
    outer loop
      vertex -69.088 -70.0177 6.35
      vertex -69.3007 -69.8803 6.35
      vertex -69.3007 -69.8803 -6.35
    endloop
  endfacet
  facet normal 0 0 1
    outer loop
      vertex -69.4987 -69.7225 6.35
      vertex -69.3007 -69.8803 6.35
      vertex -69.088 -70.0177 6.35
    endloop
  endfacet
  facet normal -0.456196 0.889879 0
    outer loop
      vertex -68.8627 70.1332 6.35
      vertex -68.8627 70.1332 -6.35
      vertex -69.088 70.0177 -6.35
    endloop
  endfacet
  facet normal -0.365322 0.930881 0
    outer loop
      vertex -68.627 70.2257 -6.35
      vertex -68.8627 70.1332 -6.35
      vertex -68.8627 70.1332 6.35
    endloop
  endfacet
  facet normal -0.542613 0.839983 0
    outer loop
      vertex -69.088 70.0177 -6.35
      vertex -69.3007 69.8803 -6.35
      vertex -69.3007 69.8803 6.35
    endloop
  endfacet
  facet normal 0 0 -1
    outer loop
      vertex -69.4987 69.7224 -6.35
      vertex -69.3007 69.8803 -6.35
      vertex -69.088 70.0177 -6.35
    endloop
  endfacet
  facet normal -0.17374 0.984792 0
    outer loop
      vertex -68.1338 70.3383 6.35
      vertex -68.1338 70.3383 -6.35
      vertex -68.3832 70.2943 -6.35
    endloop
  endfacet
  facet normal -0.0746427 0.99721 0
    outer loop
      vertex -67.8813 70.3572 -6.35
      vertex -68.1338 70.3383 -6.35
      vertex -68.1338 70.3383 6.35
    endloop
  endfacet
  facet normal -0.365322 -0.930881 -0
    outer loop
      vertex -68.8627 -70.1332 6.35
      vertex -68.8627 -70.1332 -6.35
      vertex -68.627 -70.2257 -6.35
    endloop
  endfacet
  facet normal -0.456196 -0.889879 0
    outer loop
      vertex -69.088 -70.0177 -6.35
      vertex -68.8627 -70.1332 -6.35
      vertex -68.8627 -70.1332 6.35
    endloop
  endfacet
endsolid OpenSCAD_Model
