solid OpenSCAD_Model
  facet normal 0.998761 0.0497603 0
    outer loop
      vertex 63.9954 29.9709 6.35
      vertex 64.008 29.718 6.35
      vertex 63.9954 29.9709 1.26998
    endloop
  endfacet
  facet normal 0.901116 0.433578 0
    outer loop
      vertex 63.8085 30.7046 1.26998
      vertex 63.6987 30.9328 -6.35
      vertex 63.6987 30.9328 1.26998
    endloop
  endfacet
  facet normal 0.732878 0.68036 0
    outer loop
      vertex 63.4138 31.3507 1.26998
      vertex 63.4138 31.3507 -6.35
      vertex 63.2415 31.5363 -1.27
    endloop
  endfacet
  facet normal -0 0 1
    outer loop
      vertex -62.9507 -31.7803 6.35
      vertex 62.6268 -31.9783 6.35
      vertex 63.9954 29.9709 6.35
    endloop
  endfacet
  facet normal 0.661687 0.74978 0
    outer loop
      vertex 63.2415 31.5363 -1.27
      vertex 63.0517 31.7038 -6.35
      vertex 63.0517 31.7038 1.26998
    endloop
  endfacet
  facet normal 0 0 -1
    outer loop
      vertex -64.0049 29.8446 -6.35
      vertex -62.9507 31.7803 -6.35
      vertex 61.6578 32.2509 -6.35
    endloop
  endfacet
  facet normal 0.0248836 0.99969 -0
    outer loop
      vertex 61.4047 32.2572 -1.27
      vertex 61.4047 32.2572 6.35
      vertex 61.6578 32.2509 1.26998
    endloop
  endfacet
  facet normal 0 0 -1
    outer loop
      vertex 61.6578 32.2509 -6.35
      vertex 64.008 29.718 -6.35
      vertex 63.6987 -30.9328 -6.35
    endloop
  endfacet
  facet normal 0.0248836 0.99969 -0
    outer loop
      vertex 61.6578 32.2509 -6.35
      vertex 61.4047 32.2572 -1.27
      vertex 61.6578 32.2509 1.26998
    endloop
  endfacet
  facet normal 0 0 1
    outer loop
      vertex 63.9954 29.9709 6.35
      vertex 62.1559 32.163 6.35
      vertex -62.9507 -31.7803 6.35
    endloop
  endfacet
  facet normal 0.969065 0.246807 0
    outer loop
      vertex 63.9576 30.2213 -1.27
      vertex 63.8951 30.4667 -6.35
      vertex 63.8951 30.4667 1.26998
    endloop
  endfacet
  facet normal 0.988797 0.149267 -0
    outer loop
      vertex 63.9576 30.2213 1.26998
      vertex 63.9576 30.2213 6.35
      vertex 63.9954 29.9709 6.35
    endloop
  endfacet
  facet normal 0 0 1
    outer loop
      vertex -62.5127 32.0332 6.35
      vertex -64.0049 29.8446 6.35
      vertex -62.9507 -31.7803 6.35
    endloop
  endfacet
  facet normal 0 0 1
    outer loop
      vertex 62.6268 -31.9783 6.35
      vertex 64.008 -29.718 6.35
      vertex 63.9954 29.9709 6.35
    endloop
  endfacet
  facet normal 0 0 1
    outer loop
      vertex 63.4138 31.3507 6.35
      vertex 63.0517 31.7038 6.35
      vertex 62.8461 31.8517 6.35
    endloop
  endfacet
  facet normal 0.797386 0.60347 0
    outer loop
      vertex 63.5666 31.1488 1.26998
      vertex 63.4138 31.3507 -6.35
      vertex 63.4138 31.3507 1.26998
    endloop
  endfacet
  facet normal 0.124424 0.992229 0
    outer loop
      vertex 61.909 32.2194 -1.27
      vertex 61.909 32.2194 -6.35
      vertex 61.6578 32.2509 -6.35
    endloop
  endfacet
  facet normal 0 0 1
    outer loop
      vertex 63.9954 29.9709 6.35
      vertex 63.4138 31.3507 6.35
      vertex 62.1559 32.163 6.35
    endloop
  endfacet
  facet normal 0 0 1
    outer loop
      vertex 62.1559 32.163 6.35
      vertex -62.5127 32.0332 6.35
      vertex -62.9507 -31.7803 6.35
    endloop
  endfacet
  facet normal 0 0 -1
    outer loop
      vertex -62.9507 31.7803 -6.35
      vertex -62.738 31.9177 -6.35
      vertex -62.5127 32.0332 -6.35
    endloop
  endfacet
  facet normal 0 0 1
    outer loop
      vertex 62.6268 31.9783 6.35
      vertex 62.396 32.0824 6.35
      vertex 62.1559 32.163 6.35
    endloop
  endfacet
  facet normal 0 0 1
    outer loop
      vertex 62.8461 31.8517 6.35
      vertex 62.6268 31.9783 6.35
      vertex 62.1559 32.163 6.35
    endloop
  endfacet
  facet normal 1 -0 0
    outer loop
      vertex 64.008 -29.718 6.35
      vertex 64.008 29.718 -6.35
      vertex 64.008 29.718 6.35
    endloop
  endfacet
  facet normal 0.318596 -0.947891 0
    outer loop
      vertex 62.1559 -32.1631 -6.35
      vertex 62.396 -32.0824 1.26998
      vertex 62.1559 -32.1631 1.26998
    endloop
  endfacet
  facet normal 0 0 1
    outer loop
      vertex -61.5313 -32.2572 6.35
      vertex 61.4047 -32.2572 6.35
      vertex 62.6268 -31.9783 6.35
    endloop
  endfacet
  facet normal 0 0 -1
    outer loop
      vertex -61.5313 -32.2572 -6.35
      vertex -63.1487 -31.6225 -6.35
      vertex -64.0049 -29.8446 -6.35
    endloop
  endfacet
  facet normal 0.969065 0.246807 -0
    outer loop
      vertex 63.8951 30.4667 1.26998
      vertex 63.8951 30.4667 6.35
      vertex 63.9576 30.2213 1.26998
    endloop
  endfacet
  facet normal 0.988797 0.149267 -0
    outer loop
      vertex 63.9954 29.9709 1.26998
      vertex 63.9576 30.2213 1.26998
      vertex 63.9954 29.9709 6.35
    endloop
  endfacet
  facet normal 0.901116 0.433578 0
    outer loop
      vertex 63.6987 30.9328 1.26998
      vertex 63.8085 30.7046 6.35
      vertex 63.8085 30.7046 1.26998
    endloop
  endfacet
  facet normal 0.939678 0.34206 -0
    outer loop
      vertex 63.8085 30.7046 1.26998
      vertex 63.8085 30.7046 6.35
      vertex 63.8951 30.4667 1.26998
    endloop
  endfacet
  facet normal 0.998761 0.0497603 0
    outer loop
      vertex 64.008 29.718 -6.35
      vertex 63.9954 29.9709 -1.27
      vertex 63.9954 29.9709 1.26998
    endloop
  endfacet
  facet normal 0.732878 0.68036 -0
    outer loop
      vertex 63.4138 31.3507 1.26998
      vertex 63.2415 31.5363 1.26998
      vertex 63.4138 31.3507 6.35
    endloop
  endfacet
  facet normal 0 0 1
    outer loop
      vertex 63.4138 31.3507 6.35
      vertex 62.8461 31.8517 6.35
      vertex 62.1559 32.163 6.35
    endloop
  endfacet
  facet normal 0.583961 0.811781 0
    outer loop
      vertex 62.8461 31.8517 6.35
      vertex 63.0517 31.7038 6.35
      vertex 63.0517 31.7038 1.26998
    endloop
  endfacet
  facet normal 0.411153 0.911566 -0
    outer loop
      vertex 62.6268 31.9783 -1.27
      vertex 62.396 32.0824 -1.27
      vertex 62.6268 31.9783 6.35
    endloop
  endfacet
  facet normal 0.124424 0.992229 0
    outer loop
      vertex 61.6578 32.2509 1.26998
      vertex 61.909 32.2194 -1.27
      vertex 61.6578 32.2509 -6.35
    endloop
  endfacet
  facet normal 0 0 1
    outer loop
      vertex 62.1559 32.163 6.35
      vertex 61.909 32.2194 6.35
      vertex -62.5127 32.0332 6.35
    endloop
  endfacet
  facet normal -0 1 0
    outer loop
      vertex -61.5313 32.2572 1.26998
      vertex -61.5313 32.2572 6.35
      vertex 61.4047 32.2572 -1.27
    endloop
  endfacet
  facet normal 0 -0 1
    outer loop
      vertex 64.008 -29.718 6.35
      vertex 64.008 29.718 6.35
      vertex 63.9954 29.9709 6.35
    endloop
  endfacet
  facet normal 0.998761 0.0497603 0
    outer loop
      vertex 64.008 29.718 6.35
      vertex 64.008 29.718 -6.35
      vertex 63.9954 29.9709 1.26998
    endloop
  endfacet
  facet normal 0 -0 -1
    outer loop
      vertex 61.6578 32.2509 -6.35
      vertex 63.6987 -30.9328 -6.35
      vertex -61.5313 -32.2572 -6.35
    endloop
  endfacet
  facet normal 0 0 -1
    outer loop
      vertex 64.008 -29.718 -6.35
      vertex 63.8951 -30.4667 -6.35
      vertex 63.6987 -30.9328 -6.35
    endloop
  endfacet
  facet normal 0 0 -1
    outer loop
      vertex -61.5313 -32.2572 -6.35
      vertex -64.0049 29.8446 -6.35
      vertex 61.6578 32.2509 -6.35
    endloop
  endfacet
  facet normal 0 0 1
    outer loop
      vertex -64.0049 29.8446 6.35
      vertex -64.0049 -29.8446 6.35
      vertex -62.9507 -31.7803 6.35
    endloop
  endfacet
  facet normal 0 -1 0
    outer loop
      vertex -61.5313 -32.2572 -6.35
      vertex 61.4047 -32.2572 -6.35
      vertex -61.5313 -32.2572 6.35
    endloop
  endfacet
  facet normal 0 0 1
    outer loop
      vertex -62.9507 -31.7803 6.35
      vertex -61.5313 -32.2572 6.35
      vertex 62.6268 -31.9783 6.35
    endloop
  endfacet
  facet normal 0.853106 0.521738 0
    outer loop
      vertex 63.5666 31.1488 1.26998
      vertex 63.6987 30.9328 6.35
      vertex 63.6987 30.9328 1.26998
    endloop
  endfacet
  facet normal 0 0 1
    outer loop
      vertex 63.9954 29.9709 6.35
      vertex 63.8085 30.7046 6.35
      vertex 63.4138 31.3507 6.35
    endloop
  endfacet
  facet normal 0.661687 0.74978 0
    outer loop
      vertex 63.2415 31.5363 1.26998
      vertex 63.2415 31.5363 -1.27
      vertex 63.0517 31.7038 1.26998
    endloop
  endfacet
  facet normal 0.732878 0.68036 0
    outer loop
      vertex 63.4138 31.3507 1.26998
      vertex 63.2415 31.5363 -1.27
      vertex 63.2415 31.5363 1.26998
    endloop
  endfacet
  facet normal 0.797386 0.60347 0
    outer loop
      vertex 63.4138 31.3507 6.35
      vertex 63.5666 31.1488 1.26998
      vertex 63.4138 31.3507 1.26998
    endloop
  endfacet
  facet normal 0 0 1
    outer loop
      vertex 63.6987 30.9328 6.35
      vertex 63.5666 31.1488 6.35
      vertex 63.4138 31.3507 6.35
    endloop
  endfacet
  facet normal 0.499962 0.866047 0
    outer loop
      vertex 62.8461 31.8517 6.35
      vertex 62.8461 31.8517 1.26998
      vertex 62.6268 31.9783 -1.27
    endloop
  endfacet
  facet normal 0.583961 0.811781 0
    outer loop
      vertex 63.0517 31.7038 1.26998
      vertex 62.8461 31.8517 1.26998
      vertex 62.8461 31.8517 6.35
    endloop
  endfacet
  facet normal 0.499962 0.866047 -0
    outer loop
      vertex 62.6268 31.9783 -1.27
      vertex 62.6268 31.9783 6.35
      vertex 62.8461 31.8517 6.35
    endloop
  endfacet
  facet normal 0.222696 0.974888 0
    outer loop
      vertex 62.1559 32.163 -1.27
      vertex 61.909 32.2194 -6.35
      vertex 61.909 32.2194 -1.27
    endloop
  endfacet
  facet normal 0.732878 0.68036 -0
    outer loop
      vertex 63.2415 31.5363 1.26998
      vertex 63.2415 31.5363 6.35
      vertex 63.4138 31.3507 6.35
    endloop
  endfacet
  facet normal 0.661687 0.74978 -0
    outer loop
      vertex 63.0517 31.7038 1.26998
      vertex 63.0517 31.7038 6.35
      vertex 63.2415 31.5363 1.26998
    endloop
  endfacet
  facet normal 0.222696 0.974888 -0
    outer loop
      vertex 61.909 32.2194 -1.27
      vertex 61.909 32.2194 6.35
      vertex 62.1559 32.163 6.35
    endloop
  endfacet
  facet normal 0.124424 0.992229 0
    outer loop
      vertex 61.6578 32.2509 1.26998
      vertex 61.909 32.2194 6.35
      vertex 61.909 32.2194 -1.27
    endloop
  endfacet
  facet normal 0.318241 0.94801 0
    outer loop
      vertex 62.396 32.0824 -1.27
      vertex 62.1559 32.163 -1.27
      vertex 62.1559 32.163 6.35
    endloop
  endfacet
  facet normal 0.318241 0.94801 0
    outer loop
      vertex 62.396 32.0824 -1.27
      vertex 62.396 32.0824 -6.35
      vertex 62.1559 32.163 -1.27
    endloop
  endfacet
  facet normal 0 0 -1
    outer loop
      vertex -62.9507 31.7803 -6.35
      vertex 61.4047 32.2572 -6.35
      vertex 61.6578 32.2509 -6.35
    endloop
  endfacet
  facet normal 0 0 -1
    outer loop
      vertex -62.0332 32.1943 -6.35
      vertex -61.7838 32.2383 -6.35
      vertex 61.4047 32.2572 -6.35
    endloop
  endfacet
  facet normal 0 0 -1
    outer loop
      vertex 63.6987 30.9328 -6.35
      vertex 63.8085 30.7046 -6.35
      vertex 64.008 29.718 -6.35
    endloop
  endfacet
  facet normal 0 0 -1
    outer loop
      vertex 63.4138 31.3507 -6.35
      vertex 63.6987 30.9328 -6.35
      vertex 64.008 29.718 -6.35
    endloop
  endfacet
  facet normal 0 0 1
    outer loop
      vertex 63.6987 -30.9328 6.35
      vertex 63.8951 -30.4667 6.35
      vertex 64.008 -29.718 6.35
    endloop
  endfacet
  facet normal 0 0 1
    outer loop
      vertex 62.6268 -31.9783 6.35
      vertex 63.6987 -30.9328 6.35
      vertex 64.008 -29.718 6.35
    endloop
  endfacet
  facet normal 0 0 -1
    outer loop
      vertex 63.6987 -30.9328 -6.35
      vertex 61.4047 -32.2572 -6.35
      vertex -61.5313 -32.2572 -6.35
    endloop
  endfacet
  facet normal 0 0 -1
    outer loop
      vertex 63.6987 -30.9328 -6.35
      vertex 62.6268 -31.9783 -6.35
      vertex 61.4047 -32.2572 -6.35
    endloop
  endfacet
  facet normal 0 0 -1
    outer loop
      vertex -64.0049 29.8446 -6.35
      vertex -63.6354 31.0424 -6.35
      vertex -62.9507 31.7803 -6.35
    endloop
  endfacet
  facet normal -1 0 0
    outer loop
      vertex -64.0049 29.8446 -6.35
      vertex -64.0049 -29.8446 -6.35
      vertex -64.0049 29.8446 6.35
    endloop
  endfacet
  facet normal 0 0 1
    outer loop
      vertex -61.5313 32.2572 6.35
      vertex -62.0332 32.1943 6.35
      vertex -62.5127 32.0332 6.35
    endloop
  endfacet
  facet normal 0 1 0
    outer loop
      vertex 61.4047 32.2572 -6.35
      vertex -61.5313 32.2572 -6.35
      vertex -61.5313 32.2572 1.26998
    endloop
  endfacet
  facet normal 0 0 -1
    outer loop
      vertex -61.5313 -32.2572 -6.35
      vertex -64.0049 -29.8446 -6.35
      vertex -64.0049 29.8446 -6.35
    endloop
  endfacet
  facet normal 0 0 1
    outer loop
      vertex -64.0049 -29.8446 6.35
      vertex -63.6354 -31.0424 6.35
      vertex -62.9507 -31.7803 6.35
    endloop
  endfacet
  facet normal -0.0746427 -0.99721 -0
    outer loop
      vertex -61.5313 -32.2572 6.35
      vertex -61.7838 -32.2383 6.35
      vertex -61.5313 -32.2572 -6.35
    endloop
  endfacet
  facet normal 0 0 1
    outer loop
      vertex -62.9507 -31.7803 6.35
      vertex -62.277 -32.1257 6.35
      vertex -61.5313 -32.2572 6.35
    endloop
  endfacet
  facet normal 0.939678 0.34206 0
    outer loop
      vertex 63.8085 30.7046 6.35
      vertex 63.8951 30.4667 6.35
      vertex 63.8951 30.4667 1.26998
    endloop
  endfacet
  facet normal 0 0 1
    outer loop
      vertex 63.9954 29.9709 6.35
      vertex 63.8951 30.4667 6.35
      vertex 63.8085 30.7046 6.35
    endloop
  endfacet
  facet normal 0 0 1
    outer loop
      vertex 63.8085 30.7046 6.35
      vertex 63.6987 30.9328 6.35
      vertex 63.4138 31.3507 6.35
    endloop
  endfacet
  facet normal 0.901116 0.433578 -0
    outer loop
      vertex 63.6987 30.9328 1.26998
      vertex 63.6987 30.9328 6.35
      vertex 63.8085 30.7046 6.35
    endloop
  endfacet
  facet normal 0.969065 0.246807 0
    outer loop
      vertex 63.9576 30.2213 -1.27
      vertex 63.9576 30.2213 -6.35
      vertex 63.8951 30.4667 -6.35
    endloop
  endfacet
  facet normal 0 0 -1
    outer loop
      vertex 61.6578 32.2509 -6.35
      vertex 63.4138 31.3507 -6.35
      vertex 64.008 29.718 -6.35
    endloop
  endfacet
  facet normal 0.661687 0.74978 0
    outer loop
      vertex 63.0517 31.7038 6.35
      vertex 63.2415 31.5363 6.35
      vertex 63.2415 31.5363 1.26998
    endloop
  endfacet
  facet normal 0 0 1
    outer loop
      vertex 63.4138 31.3507 6.35
      vertex 63.2415 31.5363 6.35
      vertex 63.0517 31.7038 6.35
    endloop
  endfacet
  facet normal 0 0 1
    outer loop
      vertex 61.909 32.2194 6.35
      vertex -61.5313 32.2572 6.35
      vertex -62.5127 32.0332 6.35
    endloop
  endfacet
  facet normal -0 1 0
    outer loop
      vertex -61.5313 32.2572 6.35
      vertex 61.4047 32.2572 6.35
      vertex 61.4047 32.2572 -1.27
    endloop
  endfacet
  facet normal 0.411153 0.911566 -0
    outer loop
      vertex 62.396 32.0824 -1.27
      vertex 62.396 32.0824 6.35
      vertex 62.6268 31.9783 6.35
    endloop
  endfacet
  facet normal 0.318241 0.94801 0
    outer loop
      vertex 62.1559 32.163 6.35
      vertex 62.396 32.0824 6.35
      vertex 62.396 32.0824 -1.27
    endloop
  endfacet
  facet normal 0.411153 0.911566 0
    outer loop
      vertex 62.6268 31.9783 -1.27
      vertex 62.396 32.0824 -6.35
      vertex 62.396 32.0824 -1.27
    endloop
  endfacet
  facet normal 0.222696 0.974888 0
    outer loop
      vertex 62.1559 32.163 6.35
      vertex 62.1559 32.163 -1.27
      vertex 61.909 32.2194 -1.27
    endloop
  endfacet
  facet normal 0 1 0
    outer loop
      vertex 61.4047 32.2572 -1.27
      vertex 61.4047 32.2572 -6.35
      vertex -61.5313 32.2572 1.26998
    endloop
  endfacet
  facet normal 0.0248836 0.99969 0
    outer loop
      vertex 61.6578 32.2509 -6.35
      vertex 61.4047 32.2572 -6.35
      vertex 61.4047 32.2572 -1.27
    endloop
  endfacet
  facet normal 0 -0 -1
    outer loop
      vertex 64.008 29.718 -6.35
      vertex 64.008 -29.718 -6.35
      vertex 63.6987 -30.9328 -6.35
    endloop
  endfacet
  facet normal 1 0 0
    outer loop
      vertex 64.008 -29.718 6.35
      vertex 64.008 -29.718 -6.35
      vertex 64.008 29.718 -6.35
    endloop
  endfacet
  facet normal 0.969065 0.246807 0
    outer loop
      vertex 63.9576 30.2213 1.26998
      vertex 63.9576 30.2213 -1.27
      vertex 63.8951 30.4667 1.26998
    endloop
  endfacet
  facet normal 0.988797 0.149267 0
    outer loop
      vertex 63.9954 29.9709 1.26998
      vertex 63.9576 30.2213 -1.27
      vertex 63.9576 30.2213 1.26998
    endloop
  endfacet
  facet normal 0.853106 -0.521738 0
    outer loop
      vertex 63.6987 -30.9328 6.35
      vertex 63.5666 -31.1488 1.26998
      vertex 63.6987 -30.9328 -6.35
    endloop
  endfacet
  facet normal 0.661909 -0.749584 0
    outer loop
      vertex 63.2415 -31.5363 1.26998
      vertex 63.0517 -31.7039 1.26998
      vertex 63.2415 -31.5363 -6.35
    endloop
  endfacet
  facet normal 0.969065 -0.246807 0
    outer loop
      vertex 63.8951 -30.4667 6.35
      vertex 63.8951 -30.4667 -6.35
      vertex 63.9576 -30.2213 6.35
    endloop
  endfacet
  facet normal 0 0 1
    outer loop
      vertex 63.8951 -30.4667 6.35
      vertex 63.9576 -30.2213 6.35
      vertex 64.008 -29.718 6.35
    endloop
  endfacet
  facet normal 0 -1 0
    outer loop
      vertex 61.4047 -32.2572 -6.35
      vertex 61.4047 -32.2572 6.35
      vertex -61.5313 -32.2572 6.35
    endloop
  endfacet
  facet normal 0 0 1
    outer loop
      vertex 61.4047 -32.2572 6.35
      vertex 62.1559 -32.1631 6.35
      vertex 62.6268 -31.9783 6.35
    endloop
  endfacet
  facet normal 0 0 -1
    outer loop
      vertex -64.0049 29.8446 -6.35
      vertex -63.9796 30.0966 -6.35
      vertex -63.9295 30.3447 -6.35
    endloop
  endfacet
  facet normal 0 0 -1
    outer loop
      vertex -63.6354 31.0424 -6.35
      vertex -63.33 31.4456 -6.35
      vertex -62.9507 31.7803 -6.35
    endloop
  endfacet
  facet normal 0 0 -1
    outer loop
      vertex -62.9507 31.7803 -6.35
      vertex -62.0332 32.1943 -6.35
      vertex 61.4047 32.2572 -6.35
    endloop
  endfacet
  facet normal -0.27086 0.962619 0
    outer loop
      vertex -62.0332 32.1943 -6.35
      vertex -62.277 32.1257 1.26998
      vertex -62.0332 32.1943 6.35
    endloop
  endfacet
  facet normal -1 0 0
    outer loop
      vertex -64.0049 -29.8446 -6.35
      vertex -64.0049 -29.8446 6.35
      vertex -64.0049 29.8446 6.35
    endloop
  endfacet
  facet normal 0 0 -1
    outer loop
      vertex -63.1487 -31.6225 -6.35
      vertex -63.8548 -30.5867 -6.35
      vertex -64.0049 -29.8446 -6.35
    endloop
  endfacet
  facet normal -0.623249 -0.782023 0
    outer loop
      vertex -63.1487 -31.6225 -6.35
      vertex -62.9507 -31.7803 -6.35
      vertex -62.9507 -31.7803 6.35
    endloop
  endfacet
  facet normal 0 0 -1
    outer loop
      vertex -61.5313 -32.2572 -6.35
      vertex -62.277 -32.1257 -6.35
      vertex -63.1487 -31.6225 -6.35
    endloop
  endfacet
  facet normal 0 0 1
    outer loop
      vertex -62.277 -32.1257 6.35
      vertex -62.0332 -32.1943 6.35
      vertex -61.5313 -32.2572 6.35
    endloop
  endfacet
  facet normal 0 0 -1
    outer loop
      vertex -61.5313 -32.2572 -6.35
      vertex -61.7838 -32.2383 -6.35
      vertex -62.0332 -32.1943 -6.35
    endloop
  endfacet
  facet normal 0.969065 0.246807 0
    outer loop
      vertex 63.8951 30.4667 6.35
      vertex 63.9576 30.2213 6.35
      vertex 63.9576 30.2213 1.26998
    endloop
  endfacet
  facet normal 0 0 1
    outer loop
      vertex 63.9954 29.9709 6.35
      vertex 63.9576 30.2213 6.35
      vertex 63.8951 30.4667 6.35
    endloop
  endfacet
  facet normal 0.853106 0.521738 -0
    outer loop
      vertex 63.5666 31.1488 1.26998
      vertex 63.5666 31.1488 6.35
      vertex 63.6987 30.9328 6.35
    endloop
  endfacet
  facet normal 0.797386 0.60347 0
    outer loop
      vertex 63.4138 31.3507 6.35
      vertex 63.5666 31.1488 6.35
      vertex 63.5666 31.1488 1.26998
    endloop
  endfacet
  facet normal 0 0 -1
    outer loop
      vertex 61.6578 32.2509 -6.35
      vertex 63.0517 31.7038 -6.35
      vertex 63.4138 31.3507 -6.35
    endloop
  endfacet
  facet normal 0.732878 0.68036 0
    outer loop
      vertex 63.4138 31.3507 -6.35
      vertex 63.2415 31.5363 -6.35
      vertex 63.2415 31.5363 -1.27
    endloop
  endfacet
  facet normal 0 0 1
    outer loop
      vertex 61.909 32.2194 6.35
      vertex 61.4047 32.2572 6.35
      vertex -61.5313 32.2572 6.35
    endloop
  endfacet
  facet normal 0.0248836 0.99969 0
    outer loop
      vertex 61.4047 32.2572 6.35
      vertex 61.6578 32.2509 6.35
      vertex 61.6578 32.2509 1.26998
    endloop
  endfacet
  facet normal 0.988797 0.149267 0
    outer loop
      vertex 63.9954 29.9709 -1.27
      vertex 63.9576 30.2213 -6.35
      vertex 63.9576 30.2213 -1.27
    endloop
  endfacet
  facet normal 0.988797 0.149267 0
    outer loop
      vertex 63.9954 29.9709 1.26998
      vertex 63.9954 29.9709 -1.27
      vertex 63.9576 30.2213 -1.27
    endloop
  endfacet
  facet normal 0 0 -1
    outer loop
      vertex 63.6987 -30.9328 -6.35
      vertex 63.5666 -31.1488 -6.35
      vertex 63.4138 -31.3507 -6.35
    endloop
  endfacet
  facet normal 0.499962 -0.866047 0
    outer loop
      vertex 62.6268 -31.9783 -6.35
      vertex 62.8461 -31.8517 1.26998
      vertex 62.6268 -31.9783 6.35
    endloop
  endfacet
  facet normal 0.732878 -0.68036 0
    outer loop
      vertex 63.4138 -31.3507 1.26998
      vertex 63.2415 -31.5363 6.35
      vertex 63.2415 -31.5363 1.26998
    endloop
  endfacet
  facet normal 0.732878 -0.68036 0
    outer loop
      vertex 63.2415 -31.5363 1.26998
      vertex 63.2415 -31.5363 -6.35
      vertex 63.4138 -31.3507 1.26998
    endloop
  endfacet
  facet normal 0 0 1
    outer loop
      vertex 63.2415 -31.5363 6.35
      vertex 63.4138 -31.3507 6.35
      vertex 63.6987 -30.9328 6.35
    endloop
  endfacet
  facet normal 0 0 1
    outer loop
      vertex 62.6268 -31.9783 6.35
      vertex 63.2415 -31.5363 6.35
      vertex 63.6987 -30.9328 6.35
    endloop
  endfacet
  facet normal 0.901116 -0.433578 0
    outer loop
      vertex 63.8085 -30.7046 1.26998
      vertex 63.8085 -30.7046 6.35
      vertex 63.6987 -30.9328 6.35
    endloop
  endfacet
  facet normal 0.901116 -0.433578 0
    outer loop
      vertex 63.6987 -30.9328 -6.35
      vertex 63.8085 -30.7046 1.26998
      vertex 63.6987 -30.9328 6.35
    endloop
  endfacet
  facet normal 0 0 -1
    outer loop
      vertex 64.008 -29.718 -6.35
      vertex 63.9954 -29.9709 -6.35
      vertex 63.9576 -30.2213 -6.35
    endloop
  endfacet
  facet normal 0 0 1
    outer loop
      vertex 63.9576 -30.2213 6.35
      vertex 63.9954 -29.9709 6.35
      vertex 64.008 -29.718 6.35
    endloop
  endfacet
  facet normal 0 0 -1
    outer loop
      vertex 62.6268 -31.9783 -6.35
      vertex 62.1559 -32.1631 -6.35
      vertex 61.4047 -32.2572 -6.35
    endloop
  endfacet
  facet normal 0 0 1
    outer loop
      vertex 62.1559 -32.1631 6.35
      vertex 62.396 -32.0824 6.35
      vertex 62.6268 -31.9783 6.35
    endloop
  endfacet
  facet normal -0.980214 0.197939 0
    outer loop
      vertex -63.9796 30.0966 -6.35
      vertex -63.9295 30.3447 6.35
      vertex -63.9295 30.3447 -6.35
    endloop
  endfacet
  facet normal 0 0 1
    outer loop
      vertex -62.5127 32.0332 6.35
      vertex -63.33 31.4456 6.35
      vertex -64.0049 29.8446 6.35
    endloop
  endfacet
  facet normal 0 0 1
    outer loop
      vertex -63.33 31.4456 6.35
      vertex -63.8548 30.5867 6.35
      vertex -64.0049 29.8446 6.35
    endloop
  endfacet
  facet normal 0 0 -1
    outer loop
      vertex -64.0049 29.8446 -6.35
      vertex -63.8548 30.5867 -6.35
      vertex -63.6354 31.0424 -6.35
    endloop
  endfacet
  facet normal -0.17374 0.984792 0
    outer loop
      vertex -62.0332 32.1943 6.35
      vertex -61.7838 32.2383 -6.35
      vertex -62.0332 32.1943 -6.35
    endloop
  endfacet
  facet normal 0 0 1
    outer loop
      vertex -62.0332 32.1943 6.35
      vertex -62.277 32.1257 6.35
      vertex -62.5127 32.0332 6.35
    endloop
  endfacet
  facet normal -0.0746427 0.99721 0
    outer loop
      vertex -61.7838 32.2383 -6.35
      vertex -61.7838 32.2383 6.35
      vertex -61.5313 32.2572 6.35
    endloop
  endfacet
  facet normal -0.0746427 0.99721 0
    outer loop
      vertex -61.5313 32.2572 1.26998
      vertex -61.7838 32.2383 -6.35
      vertex -61.5313 32.2572 6.35
    endloop
  endfacet
  facet normal 0 0 -1
    outer loop
      vertex -62.9507 31.7803 -6.35
      vertex -62.5127 32.0332 -6.35
      vertex -62.0332 32.1943 -6.35
    endloop
  endfacet
  facet normal -0.456196 0.889879 0
    outer loop
      vertex -62.5127 32.0332 -6.35
      vertex -62.738 31.9177 -6.35
      vertex -62.5127 32.0332 6.35
    endloop
  endfacet
  facet normal 0 0 -1
    outer loop
      vertex -63.1487 -31.6225 -6.35
      vertex -63.6354 -31.0424 -6.35
      vertex -63.8548 -30.5867 -6.35
    endloop
  endfacet
  facet normal 0 0 1
    outer loop
      vertex -63.6354 -31.0424 6.35
      vertex -63.33 -31.4456 6.35
      vertex -62.9507 -31.7803 6.35
    endloop
  endfacet
  facet normal -0.27086 -0.962619 -0
    outer loop
      vertex -62.277 -32.1257 6.35
      vertex -62.277 -32.1257 -6.35
      vertex -62.0332 -32.1943 6.35
    endloop
  endfacet
  facet normal 0 0 -1
    outer loop
      vertex -62.277 -32.1257 -6.35
      vertex -62.738 -31.9177 -6.35
      vertex -63.1487 -31.6225 -6.35
    endloop
  endfacet
  facet normal 0 0 1
    outer loop
      vertex -62.0332 -32.1943 6.35
      vertex -61.7838 -32.2383 6.35
      vertex -61.5313 -32.2572 6.35
    endloop
  endfacet
  facet normal -0.17374 -0.984792 -0
    outer loop
      vertex -62.0332 -32.1943 6.35
      vertex -62.0332 -32.1943 -6.35
      vertex -61.7838 -32.2383 6.35
    endloop
  endfacet
  facet normal 0.499962 0.866047 0
    outer loop
      vertex 62.8461 31.8517 1.26998
      vertex 62.8461 31.8517 -1.27
      vertex 62.6268 31.9783 -1.27
    endloop
  endfacet
  facet normal 0.583961 0.811781 0
    outer loop
      vertex 63.0517 31.7038 1.26998
      vertex 63.0517 31.7038 -6.35
      vertex 62.8461 31.8517 1.26998
    endloop
  endfacet
  facet normal 0.853106 0.521738 0
    outer loop
      vertex 63.6987 30.9328 -6.35
      vertex 63.5666 31.1488 -6.35
      vertex 63.5666 31.1488 1.26998
    endloop
  endfacet
  facet normal 0.853106 0.521738 0
    outer loop
      vertex 63.6987 30.9328 1.26998
      vertex 63.6987 30.9328 -6.35
      vertex 63.5666 31.1488 1.26998
    endloop
  endfacet
  facet normal 0 0 1
    outer loop
      vertex 61.909 32.2194 6.35
      vertex 61.6578 32.2509 6.35
      vertex 61.4047 32.2572 6.35
    endloop
  endfacet
  facet normal 0.124424 0.992229 -0
    outer loop
      vertex 61.6578 32.2509 1.26998
      vertex 61.6578 32.2509 6.35
      vertex 61.909 32.2194 6.35
    endloop
  endfacet
  facet normal 0.499962 -0.866047 0
    outer loop
      vertex 62.6268 -31.9783 -6.35
      vertex 62.8461 -31.8517 -6.35
      vertex 62.8461 -31.8517 1.26998
    endloop
  endfacet
  facet normal 0 0 -1
    outer loop
      vertex 63.6987 -30.9328 -6.35
      vertex 63.2415 -31.5363 -6.35
      vertex 62.6268 -31.9783 -6.35
    endloop
  endfacet
  facet normal 0.661909 -0.749584 0
    outer loop
      vertex 63.2415 -31.5363 6.35
      vertex 63.0517 -31.7039 1.26998
      vertex 63.2415 -31.5363 1.26998
    endloop
  endfacet
  facet normal 0.499962 -0.866047 0
    outer loop
      vertex 62.8461 -31.8517 1.26998
      vertex 62.8461 -31.8517 6.35
      vertex 62.6268 -31.9783 6.35
    endloop
  endfacet
  facet normal 0.732878 -0.68036 0
    outer loop
      vertex 63.4138 -31.3507 1.26998
      vertex 63.4138 -31.3507 6.35
      vertex 63.2415 -31.5363 6.35
    endloop
  endfacet
  facet normal 0.797386 -0.60347 0
    outer loop
      vertex 63.4138 -31.3507 1.26998
      vertex 63.4138 -31.3507 -6.35
      vertex 63.5666 -31.1488 1.26998
    endloop
  endfacet
  facet normal 0.797386 -0.60347 0
    outer loop
      vertex 63.5666 -31.1488 1.26998
      vertex 63.4138 -31.3507 6.35
      vertex 63.4138 -31.3507 1.26998
    endloop
  endfacet
  facet normal 0 0 1
    outer loop
      vertex 63.4138 -31.3507 6.35
      vertex 63.5666 -31.1488 6.35
      vertex 63.6987 -30.9328 6.35
    endloop
  endfacet
  facet normal 0.939678 -0.34206 0
    outer loop
      vertex 63.8085 -30.7046 1.26998
      vertex 63.8951 -30.4667 -6.35
      vertex 63.8951 -30.4667 6.35
    endloop
  endfacet
  facet normal 0 0 -1
    outer loop
      vertex 63.8951 -30.4667 -6.35
      vertex 63.8085 -30.7046 -6.35
      vertex 63.6987 -30.9328 -6.35
    endloop
  endfacet
  facet normal 0.939678 -0.34206 0
    outer loop
      vertex 63.8951 -30.4667 6.35
      vertex 63.8085 -30.7046 6.35
      vertex 63.8085 -30.7046 1.26998
    endloop
  endfacet
  facet normal 0 0 1
    outer loop
      vertex 63.6987 -30.9328 6.35
      vertex 63.8085 -30.7046 6.35
      vertex 63.8951 -30.4667 6.35
    endloop
  endfacet
  facet normal 0.988797 -0.149267 0
    outer loop
      vertex 63.9576 -30.2213 6.35
      vertex 63.9576 -30.2213 -6.35
      vertex 63.9954 -29.9709 6.35
    endloop
  endfacet
  facet normal 0.998761 -0.0497603 0
    outer loop
      vertex 64.008 -29.718 6.35
      vertex 63.9954 -29.9709 6.35
      vertex 64.008 -29.718 -6.35
    endloop
  endfacet
  facet normal 0.222321 -0.974974 0
    outer loop
      vertex 62.1559 -32.1631 1.26998
      vertex 61.909 -32.2194 6.35
      vertex 62.1559 -32.1631 -6.35
    endloop
  endfacet
  facet normal 0.318596 -0.947891 0
    outer loop
      vertex 62.1559 -32.1631 1.26998
      vertex 62.396 -32.0824 1.26998
      vertex 62.1559 -32.1631 6.35
    endloop
  endfacet
  facet normal 0.222321 -0.974974 0
    outer loop
      vertex 62.1559 -32.1631 6.35
      vertex 61.909 -32.2194 6.35
      vertex 62.1559 -32.1631 1.26998
    endloop
  endfacet
  facet normal 0.0248836 -0.99969 0
    outer loop
      vertex 61.4047 -32.2572 -6.35
      vertex 61.6578 -32.2509 1.26998
      vertex 61.4047 -32.2572 6.35
    endloop
  endfacet
  facet normal 0 0 1
    outer loop
      vertex 61.4047 -32.2572 6.35
      vertex 61.909 -32.2194 6.35
      vertex 62.1559 -32.1631 6.35
    endloop
  endfacet
  facet normal 0.222321 -0.974974 0
    outer loop
      vertex 61.909 -32.2194 6.35
      vertex 61.909 -32.2194 -6.35
      vertex 62.1559 -32.1631 -6.35
    endloop
  endfacet
  facet normal 0 0 -1
    outer loop
      vertex 62.6268 -31.9783 -6.35
      vertex 62.396 -32.0824 -6.35
      vertex 62.1559 -32.1631 -6.35
    endloop
  endfacet
  facet normal 0.411153 -0.911566 0
    outer loop
      vertex 62.6268 -31.9783 6.35
      vertex 62.396 -32.0824 1.26998
      vertex 62.6268 -31.9783 -6.35
    endloop
  endfacet
  facet normal -0.62349 0.781831 0
    outer loop
      vertex -62.9507 31.7803 -6.35
      vertex -63.1487 31.6224 -1.27
      vertex -62.9507 31.7803 6.35
    endloop
  endfacet
  facet normal 0 0 1
    outer loop
      vertex -62.5127 32.0332 6.35
      vertex -62.9507 31.7803 6.35
      vertex -63.33 31.4456 6.35
    endloop
  endfacet
  facet normal 0 0 -1
    outer loop
      vertex -63.6354 31.0424 -6.35
      vertex -63.4927 31.2516 -6.35
      vertex -63.33 31.4456 -6.35
    endloop
  endfacet
  facet normal -0.698166 0.715936 0
    outer loop
      vertex -63.1487 31.6224 -1.27
      vertex -63.1487 31.6224 -6.35
      vertex -63.33 31.4456 -6.35
    endloop
  endfacet
  facet normal 0 0 1
    outer loop
      vertex -63.33 31.4456 6.35
      vertex -63.6354 31.0424 6.35
      vertex -63.8548 30.5867 6.35
    endloop
  endfacet
  facet normal 0 0 -1
    outer loop
      vertex -64.0049 29.8446 -6.35
      vertex -63.9295 30.3447 -6.35
      vertex -63.8548 30.5867 -6.35
    endloop
  endfacet
  facet normal 0 0 1
    outer loop
      vertex -63.6354 31.0424 6.35
      vertex -63.7565 30.8201 6.35
      vertex -63.8548 30.5867 6.35
    endloop
  endfacet
  facet normal -0.955514 0.294946 0
    outer loop
      vertex -63.9295 30.3447 -6.35
      vertex -63.8548 30.5867 6.35
      vertex -63.8548 30.5867 -6.35
    endloop
  endfacet
  facet normal -0.27086 0.962619 0
    outer loop
      vertex -62.0332 32.1943 -6.35
      vertex -62.277 32.1257 -6.35
      vertex -62.277 32.1257 1.26998
    endloop
  endfacet
  facet normal -0.365322 0.930881 0
    outer loop
      vertex -62.5127 32.0332 6.35
      vertex -62.277 32.1257 1.26998
      vertex -62.5127 32.0332 -6.35
    endloop
  endfacet
  facet normal 0 0 -1
    outer loop
      vertex -61.7838 32.2383 -6.35
      vertex -61.5313 32.2572 -6.35
      vertex 61.4047 32.2572 -6.35
    endloop
  endfacet
  facet normal -0.0746427 0.99721 0
    outer loop
      vertex -61.5313 32.2572 1.26998
      vertex -61.5313 32.2572 -6.35
      vertex -61.7838 32.2383 -6.35
    endloop
  endfacet
  facet normal -0.17374 0.984792 0
    outer loop
      vertex -62.0332 32.1943 6.35
      vertex -61.7838 32.2383 6.35
      vertex -61.7838 32.2383 -6.35
    endloop
  endfacet
  facet normal 0 0 1
    outer loop
      vertex -61.5313 32.2572 6.35
      vertex -61.7838 32.2383 6.35
      vertex -62.0332 32.1943 6.35
    endloop
  endfacet
  facet normal -0.542613 0.839983 0
    outer loop
      vertex -62.9507 31.7803 6.35
      vertex -62.738 31.9177 -6.35
      vertex -62.9507 31.7803 -6.35
    endloop
  endfacet
  facet normal -0.456196 0.889879 0
    outer loop
      vertex -62.738 31.9177 -6.35
      vertex -62.738 31.9177 6.35
      vertex -62.5127 32.0332 6.35
    endloop
  endfacet
  facet normal -0.878152 -0.478382 -0
    outer loop
      vertex -63.6354 -31.0424 6.35
      vertex -63.7565 -30.8201 -6.35
      vertex -63.6354 -31.0424 -6.35
    endloop
  endfacet
  facet normal -0.95548 -0.295057 -0
    outer loop
      vertex -63.8548 -30.5867 6.35
      vertex -63.9295 -30.3448 -6.35
      vertex -63.8548 -30.5867 -6.35
    endloop
  endfacet
  facet normal -0.826236 -0.563325 0
    outer loop
      vertex -63.6354 -31.0424 -6.35
      vertex -63.4927 -31.2517 6.35
      vertex -63.6354 -31.0424 6.35
    endloop
  endfacet
  facet normal 0 0 1
    outer loop
      vertex -63.33 -31.4456 6.35
      vertex -63.1487 -31.6225 6.35
      vertex -62.9507 -31.7803 6.35
    endloop
  endfacet
  facet normal -0.542613 -0.839983 0
    outer loop
      vertex -62.738 -31.9177 -6.35
      vertex -62.738 -31.9177 6.35
      vertex -62.9507 -31.7803 6.35
    endloop
  endfacet
  facet normal 0 0 -1
    outer loop
      vertex -62.277 -32.1257 -6.35
      vertex -62.5127 -32.0332 -6.35
      vertex -62.738 -31.9177 -6.35
    endloop
  endfacet
  facet normal -0.27086 -0.962619 0
    outer loop
      vertex -62.277 -32.1257 -6.35
      vertex -62.0332 -32.1943 -6.35
      vertex -62.0332 -32.1943 6.35
    endloop
  endfacet
  facet normal 0 0 -1
    outer loop
      vertex -61.5313 -32.2572 -6.35
      vertex -62.0332 -32.1943 -6.35
      vertex -62.277 -32.1257 -6.35
    endloop
  endfacet
  facet normal 0 0 -1
    outer loop
      vertex 63.0517 31.7038 -6.35
      vertex 63.2415 31.5363 -6.35
      vertex 63.4138 31.3507 -6.35
    endloop
  endfacet
  facet normal 0.661687 0.74978 0
    outer loop
      vertex 63.2415 31.5363 -1.27
      vertex 63.2415 31.5363 -6.35
      vertex 63.0517 31.7038 -6.35
    endloop
  endfacet
  facet normal 0.499962 0.866047 0
    outer loop
      vertex 62.8461 31.8517 -1.27
      vertex 62.6268 31.9783 -6.35
      vertex 62.6268 31.9783 -1.27
    endloop
  endfacet
  facet normal 0 0 -1
    outer loop
      vertex 61.6578 32.2509 -6.35
      vertex 62.396 32.0824 -6.35
      vertex 63.0517 31.7038 -6.35
    endloop
  endfacet
  facet normal 0.583961 0.811781 0
    outer loop
      vertex 63.0517 31.7038 -6.35
      vertex 62.8461 31.8517 -1.27
      vertex 62.8461 31.8517 1.26998
    endloop
  endfacet
  facet normal 0.583961 0.811781 0
    outer loop
      vertex 63.0517 31.7038 -6.35
      vertex 62.8461 31.8517 -6.35
      vertex 62.8461 31.8517 -1.27
    endloop
  endfacet
  facet normal 0.901116 0.433578 0
    outer loop
      vertex 63.8085 30.7046 1.26998
      vertex 63.8085 30.7046 -6.35
      vertex 63.6987 30.9328 -6.35
    endloop
  endfacet
  facet normal 0.939678 0.34206 0
    outer loop
      vertex 63.8951 30.4667 1.26998
      vertex 63.8085 30.7046 -6.35
      vertex 63.8085 30.7046 1.26998
    endloop
  endfacet
  facet normal 0 0 -1
    outer loop
      vertex 63.4138 31.3507 -6.35
      vertex 63.5666 31.1488 -6.35
      vertex 63.6987 30.9328 -6.35
    endloop
  endfacet
  facet normal 0.797386 0.60347 0
    outer loop
      vertex 63.5666 31.1488 1.26998
      vertex 63.5666 31.1488 -6.35
      vertex 63.4138 31.3507 -6.35
    endloop
  endfacet
  facet normal 0.732878 -0.68036 0
    outer loop
      vertex 63.2415 -31.5363 -6.35
      vertex 63.4138 -31.3507 -6.35
      vertex 63.4138 -31.3507 1.26998
    endloop
  endfacet
  facet normal 0 0 -1
    outer loop
      vertex 63.6987 -30.9328 -6.35
      vertex 63.4138 -31.3507 -6.35
      vertex 63.2415 -31.5363 -6.35
    endloop
  endfacet
  facet normal 0 0 -1
    outer loop
      vertex 63.2415 -31.5363 -6.35
      vertex 63.0517 -31.7039 -6.35
      vertex 62.6268 -31.9783 -6.35
    endloop
  endfacet
  facet normal 0.583701 -0.811969 0
    outer loop
      vertex 63.0517 -31.7039 1.26998
      vertex 63.0517 -31.7039 6.35
      vertex 62.8461 -31.8517 1.26998
    endloop
  endfacet
  facet normal 0.661909 -0.749584 0
    outer loop
      vertex 63.0517 -31.7039 1.26998
      vertex 63.0517 -31.7039 -6.35
      vertex 63.2415 -31.5363 -6.35
    endloop
  endfacet
  facet normal 0.583701 -0.811969 0
    outer loop
      vertex 62.8461 -31.8517 1.26998
      vertex 63.0517 -31.7039 -6.35
      vertex 63.0517 -31.7039 1.26998
    endloop
  endfacet
  facet normal 0.661909 -0.749584 0
    outer loop
      vertex 63.2415 -31.5363 6.35
      vertex 63.0517 -31.7039 6.35
      vertex 63.0517 -31.7039 1.26998
    endloop
  endfacet
  facet normal 0 0 1
    outer loop
      vertex 62.6268 -31.9783 6.35
      vertex 63.0517 -31.7039 6.35
      vertex 63.2415 -31.5363 6.35
    endloop
  endfacet
  facet normal 0.797386 -0.60347 0
    outer loop
      vertex 63.5666 -31.1488 1.26998
      vertex 63.5666 -31.1488 6.35
      vertex 63.4138 -31.3507 6.35
    endloop
  endfacet
  facet normal 0.853106 -0.521738 0
    outer loop
      vertex 63.6987 -30.9328 6.35
      vertex 63.5666 -31.1488 6.35
      vertex 63.5666 -31.1488 1.26998
    endloop
  endfacet
  facet normal 0.969065 -0.246807 0
    outer loop
      vertex 63.8951 -30.4667 -6.35
      vertex 63.9576 -30.2213 -6.35
      vertex 63.9576 -30.2213 6.35
    endloop
  endfacet
  facet normal 0 0 -1
    outer loop
      vertex 64.008 -29.718 -6.35
      vertex 63.9576 -30.2213 -6.35
      vertex 63.8951 -30.4667 -6.35
    endloop
  endfacet
  facet normal 0.939678 -0.34206 0
    outer loop
      vertex 63.8085 -30.7046 1.26998
      vertex 63.8085 -30.7046 -6.35
      vertex 63.8951 -30.4667 -6.35
    endloop
  endfacet
  facet normal 0.901116 -0.433578 0
    outer loop
      vertex 63.6987 -30.9328 -6.35
      vertex 63.8085 -30.7046 -6.35
      vertex 63.8085 -30.7046 1.26998
    endloop
  endfacet
  facet normal 0 0 1
    outer loop
      vertex 61.4047 -32.2572 6.35
      vertex 61.6578 -32.2509 6.35
      vertex 61.909 -32.2194 6.35
    endloop
  endfacet
  facet normal 0.124424 -0.992229 0
    outer loop
      vertex 61.6578 -32.2509 1.26998
      vertex 61.6578 -32.2509 -6.35
      vertex 61.909 -32.2194 6.35
    endloop
  endfacet
  facet normal 0.0248836 -0.99969 0
    outer loop
      vertex 61.4047 -32.2572 -6.35
      vertex 61.6578 -32.2509 -6.35
      vertex 61.6578 -32.2509 1.26998
    endloop
  endfacet
  facet normal 0 0 -1
    outer loop
      vertex 62.1559 -32.1631 -6.35
      vertex 61.6578 -32.2509 -6.35
      vertex 61.4047 -32.2572 -6.35
    endloop
  endfacet
  facet normal 0.318596 -0.947891 0
    outer loop
      vertex 62.396 -32.0824 1.26998
      vertex 62.396 -32.0824 6.35
      vertex 62.1559 -32.1631 6.35
    endloop
  endfacet
  facet normal 0.411153 -0.911566 0
    outer loop
      vertex 62.6268 -31.9783 6.35
      vertex 62.396 -32.0824 6.35
      vertex 62.396 -32.0824 1.26998
    endloop
  endfacet
  facet normal 0.411153 -0.911566 0
    outer loop
      vertex 62.396 -32.0824 1.26998
      vertex 62.396 -32.0824 -6.35
      vertex 62.6268 -31.9783 -6.35
    endloop
  endfacet
  facet normal 0.318596 -0.947891 0
    outer loop
      vertex 62.1559 -32.1631 -6.35
      vertex 62.396 -32.0824 -6.35
      vertex 62.396 -32.0824 1.26998
    endloop
  endfacet
  facet normal -0.698166 0.715936 0
    outer loop
      vertex -63.33 31.4456 6.35
      vertex -63.1487 31.6224 -1.27
      vertex -63.33 31.4456 -6.35
    endloop
  endfacet
  facet normal -0.62349 0.781831 0
    outer loop
      vertex -63.1487 31.6224 -1.27
      vertex -63.1487 31.6224 6.35
      vertex -62.9507 31.7803 6.35
    endloop
  endfacet
  facet normal -0.82611 0.563508 0
    outer loop
      vertex -63.6354 31.0424 6.35
      vertex -63.4927 31.2516 6.35
      vertex -63.4927 31.2516 -6.35
    endloop
  endfacet
  facet normal -0.76621 0.64259 0
    outer loop
      vertex -63.33 31.4456 -6.35
      vertex -63.4927 31.2516 -6.35
      vertex -63.33 31.4456 6.35
    endloop
  endfacet
  facet normal -0.994998 0.0998946 0
    outer loop
      vertex -64.0049 29.8446 6.35
      vertex -63.9796 30.0966 -6.35
      vertex -64.0049 29.8446 -6.35
    endloop
  endfacet
  facet normal -0.994998 0.0998946 0
    outer loop
      vertex -64.0049 29.8446 6.35
      vertex -63.9796 30.0966 6.35
      vertex -63.9796 30.0966 -6.35
    endloop
  endfacet
  facet normal 0 0 1
    outer loop
      vertex -63.8548 30.5867 6.35
      vertex -63.9295 30.3447 6.35
      vertex -64.0049 29.8446 6.35
    endloop
  endfacet
  facet normal -0.955514 0.294946 0
    outer loop
      vertex -63.9295 30.3447 -6.35
      vertex -63.9295 30.3447 6.35
      vertex -63.8548 30.5867 6.35
    endloop
  endfacet
  facet normal -0.82611 0.563508 0
    outer loop
      vertex -63.6354 31.0424 -6.35
      vertex -63.6354 31.0424 6.35
      vertex -63.4927 31.2516 -6.35
    endloop
  endfacet
  facet normal -0.878152 0.478382 0
    outer loop
      vertex -63.6354 31.0424 -6.35
      vertex -63.7565 30.8201 -6.35
      vertex -63.6354 31.0424 6.35
    endloop
  endfacet
  facet normal 0 0 -1
    outer loop
      vertex -63.8548 30.5867 -6.35
      vertex -63.7565 30.8201 -6.35
      vertex -63.6354 31.0424 -6.35
    endloop
  endfacet
  facet normal -0.921598 0.388145 0
    outer loop
      vertex -63.8548 30.5867 6.35
      vertex -63.7565 30.8201 -6.35
      vertex -63.8548 30.5867 -6.35
    endloop
  endfacet
  facet normal -0.27086 0.962619 0
    outer loop
      vertex -62.277 32.1257 1.26998
      vertex -62.277 32.1257 6.35
      vertex -62.0332 32.1943 6.35
    endloop
  endfacet
  facet normal -0.365322 0.930881 0
    outer loop
      vertex -62.5127 32.0332 6.35
      vertex -62.277 32.1257 6.35
      vertex -62.277 32.1257 1.26998
    endloop
  endfacet
  facet normal 0 0 -1
    outer loop
      vertex -62.5127 32.0332 -6.35
      vertex -62.277 32.1257 -6.35
      vertex -62.0332 32.1943 -6.35
    endloop
  endfacet
  facet normal -0.365322 0.930881 0
    outer loop
      vertex -62.277 32.1257 1.26998
      vertex -62.277 32.1257 -6.35
      vertex -62.5127 32.0332 -6.35
    endloop
  endfacet
  facet normal -0.542613 0.839983 0
    outer loop
      vertex -62.9507 31.7803 6.35
      vertex -62.738 31.9177 6.35
      vertex -62.738 31.9177 -6.35
    endloop
  endfacet
  facet normal 0 0 1
    outer loop
      vertex -62.5127 32.0332 6.35
      vertex -62.738 31.9177 6.35
      vertex -62.9507 31.7803 6.35
    endloop
  endfacet
  facet normal 0 0 1
    outer loop
      vertex -63.6354 -31.0424 6.35
      vertex -63.4927 -31.2517 6.35
      vertex -63.33 -31.4456 6.35
    endloop
  endfacet
  facet normal 0 0 -1
    outer loop
      vertex -63.6354 -31.0424 -6.35
      vertex -63.7565 -30.8201 -6.35
      vertex -63.8548 -30.5867 -6.35
    endloop
  endfacet
  facet normal 0 0 1
    outer loop
      vertex -64.0049 -29.8446 6.35
      vertex -63.8548 -30.5867 6.35
      vertex -63.6354 -31.0424 6.35
    endloop
  endfacet
  facet normal 0 0 1
    outer loop
      vertex -64.0049 -29.8446 6.35
      vertex -63.9295 -30.3448 6.35
      vertex -63.8548 -30.5867 6.35
    endloop
  endfacet
  facet normal -0.98023 -0.197863 -0
    outer loop
      vertex -63.9295 -30.3448 6.35
      vertex -63.9796 -30.0966 -6.35
      vertex -63.9295 -30.3448 -6.35
    endloop
  endfacet
  facet normal 0 0 -1
    outer loop
      vertex -63.8548 -30.5867 -6.35
      vertex -63.9295 -30.3448 -6.35
      vertex -64.0049 -29.8446 -6.35
    endloop
  endfacet
  facet normal -0.698368 -0.715739 0
    outer loop
      vertex -63.1487 -31.6225 -6.35
      vertex -63.1487 -31.6225 6.35
      vertex -63.33 -31.4456 6.35
    endloop
  endfacet
  facet normal -0.623249 -0.782023 0
    outer loop
      vertex -62.9507 -31.7803 6.35
      vertex -63.1487 -31.6225 6.35
      vertex -63.1487 -31.6225 -6.35
    endloop
  endfacet
  facet normal 0 0 -1
    outer loop
      vertex -62.738 -31.9177 -6.35
      vertex -62.9507 -31.7803 -6.35
      vertex -63.1487 -31.6225 -6.35
    endloop
  endfacet
  facet normal -0.542613 -0.839983 -0
    outer loop
      vertex -62.9507 -31.7803 6.35
      vertex -62.9507 -31.7803 -6.35
      vertex -62.738 -31.9177 -6.35
    endloop
  endfacet
  facet normal -0.365322 -0.930881 -0
    outer loop
      vertex -62.277 -32.1257 6.35
      vertex -62.5127 -32.0332 1.26998
      vertex -62.277 -32.1257 -6.35
    endloop
  endfacet
  facet normal -0.456196 -0.889879 0
    outer loop
      vertex -62.5127 -32.0332 1.26998
      vertex -62.738 -31.9177 6.35
      vertex -62.738 -31.9177 -6.35
    endloop
  endfacet
  facet normal -0.0746427 -0.99721 -0
    outer loop
      vertex -61.7838 -32.2383 6.35
      vertex -61.7838 -32.2383 -6.35
      vertex -61.5313 -32.2572 -6.35
    endloop
  endfacet
  facet normal -0.17374 -0.984792 0
    outer loop
      vertex -62.0332 -32.1943 -6.35
      vertex -61.7838 -32.2383 -6.35
      vertex -61.7838 -32.2383 6.35
    endloop
  endfacet
  facet normal 0 0 -1
    outer loop
      vertex 61.909 32.2194 -6.35
      vertex 62.1559 32.163 -6.35
      vertex 62.396 32.0824 -6.35
    endloop
  endfacet
  facet normal 0 0 -1
    outer loop
      vertex 61.6578 32.2509 -6.35
      vertex 61.909 32.2194 -6.35
      vertex 62.396 32.0824 -6.35
    endloop
  endfacet
  facet normal 0 0 -1
    outer loop
      vertex 62.396 32.0824 -6.35
      vertex 62.6268 31.9783 -6.35
      vertex 63.0517 31.7038 -6.35
    endloop
  endfacet
  facet normal 0.411153 0.911566 0
    outer loop
      vertex 62.6268 31.9783 -1.27
      vertex 62.6268 31.9783 -6.35
      vertex 62.396 32.0824 -6.35
    endloop
  endfacet
  facet normal 0 0 -1
    outer loop
      vertex 63.8085 30.7046 -6.35
      vertex 63.8951 30.4667 -6.35
      vertex 64.008 29.718 -6.35
    endloop
  endfacet
  facet normal 0.939678 0.34206 0
    outer loop
      vertex 63.8951 30.4667 1.26998
      vertex 63.8951 30.4667 -6.35
      vertex 63.8085 30.7046 -6.35
    endloop
  endfacet
  facet normal 0.853106 -0.521738 0
    outer loop
      vertex 63.5666 -31.1488 1.26998
      vertex 63.5666 -31.1488 -6.35
      vertex 63.6987 -30.9328 -6.35
    endloop
  endfacet
  facet normal 0.797386 -0.60347 0
    outer loop
      vertex 63.4138 -31.3507 -6.35
      vertex 63.5666 -31.1488 -6.35
      vertex 63.5666 -31.1488 1.26998
    endloop
  endfacet
  facet normal 0 0 -1
    outer loop
      vertex 63.0517 -31.7039 -6.35
      vertex 62.8461 -31.8517 -6.35
      vertex 62.6268 -31.9783 -6.35
    endloop
  endfacet
  facet normal 0.583701 -0.811969 0
    outer loop
      vertex 62.8461 -31.8517 1.26998
      vertex 62.8461 -31.8517 -6.35
      vertex 63.0517 -31.7039 -6.35
    endloop
  endfacet
  facet normal 0.583701 -0.811969 0
    outer loop
      vertex 63.0517 -31.7039 6.35
      vertex 62.8461 -31.8517 6.35
      vertex 62.8461 -31.8517 1.26998
    endloop
  endfacet
  facet normal 0 0 1
    outer loop
      vertex 62.6268 -31.9783 6.35
      vertex 62.8461 -31.8517 6.35
      vertex 63.0517 -31.7039 6.35
    endloop
  endfacet
  facet normal 0.998761 -0.0497603 0
    outer loop
      vertex 63.9954 -29.9709 6.35
      vertex 63.9954 -29.9709 -6.35
      vertex 64.008 -29.718 -6.35
    endloop
  endfacet
  facet normal 0.988797 -0.149267 0
    outer loop
      vertex 63.9576 -30.2213 -6.35
      vertex 63.9954 -29.9709 -6.35
      vertex 63.9954 -29.9709 6.35
    endloop
  endfacet
  facet normal 0.0248836 -0.99969 0
    outer loop
      vertex 61.6578 -32.2509 1.26998
      vertex 61.6578 -32.2509 6.35
      vertex 61.4047 -32.2572 6.35
    endloop
  endfacet
  facet normal 0.124424 -0.992229 0
    outer loop
      vertex 61.909 -32.2194 6.35
      vertex 61.6578 -32.2509 6.35
      vertex 61.6578 -32.2509 1.26998
    endloop
  endfacet
  facet normal 0.124424 -0.992229 0
    outer loop
      vertex 61.6578 -32.2509 -6.35
      vertex 61.909 -32.2194 -6.35
      vertex 61.909 -32.2194 6.35
    endloop
  endfacet
  facet normal 0 0 -1
    outer loop
      vertex 62.1559 -32.1631 -6.35
      vertex 61.909 -32.2194 -6.35
      vertex 61.6578 -32.2509 -6.35
    endloop
  endfacet
  facet normal -0.62349 0.781831 0
    outer loop
      vertex -62.9507 31.7803 -6.35
      vertex -63.1487 31.6224 -6.35
      vertex -63.1487 31.6224 -1.27
    endloop
  endfacet
  facet normal 0 0 -1
    outer loop
      vertex -63.33 31.4456 -6.35
      vertex -63.1487 31.6224 -6.35
      vertex -62.9507 31.7803 -6.35
    endloop
  endfacet
  facet normal -0.698166 0.715936 0
    outer loop
      vertex -63.33 31.4456 6.35
      vertex -63.1487 31.6224 6.35
      vertex -63.1487 31.6224 -1.27
    endloop
  endfacet
  facet normal 0 0 1
    outer loop
      vertex -62.9507 31.7803 6.35
      vertex -63.1487 31.6224 6.35
      vertex -63.33 31.4456 6.35
    endloop
  endfacet
  facet normal 0 0 1
    outer loop
      vertex -63.9295 30.3447 6.35
      vertex -63.9796 30.0966 6.35
      vertex -64.0049 29.8446 6.35
    endloop
  endfacet
  facet normal -0.980214 0.197939 0
    outer loop
      vertex -63.9796 30.0966 -6.35
      vertex -63.9796 30.0966 6.35
      vertex -63.9295 30.3447 6.35
    endloop
  endfacet
  facet normal 0 0 1
    outer loop
      vertex -63.33 31.4456 6.35
      vertex -63.4927 31.2516 6.35
      vertex -63.6354 31.0424 6.35
    endloop
  endfacet
  facet normal -0.76621 0.64259 0
    outer loop
      vertex -63.4927 31.2516 -6.35
      vertex -63.4927 31.2516 6.35
      vertex -63.33 31.4456 6.35
    endloop
  endfacet
  facet normal -0.878152 0.478382 0
    outer loop
      vertex -63.7565 30.8201 -6.35
      vertex -63.7565 30.8201 6.35
      vertex -63.6354 31.0424 6.35
    endloop
  endfacet
  facet normal -0.921598 0.388145 0
    outer loop
      vertex -63.8548 30.5867 6.35
      vertex -63.7565 30.8201 6.35
      vertex -63.7565 30.8201 -6.35
    endloop
  endfacet
  facet normal 0 0 -1
    outer loop
      vertex -63.1487 -31.6225 -6.35
      vertex -63.33 -31.4456 -6.35
      vertex -63.6354 -31.0424 -6.35
    endloop
  endfacet
  facet normal -0.698368 -0.715739 -0
    outer loop
      vertex -63.33 -31.4456 6.35
      vertex -63.33 -31.4456 -6.35
      vertex -63.1487 -31.6225 -6.35
    endloop
  endfacet
  facet normal 0 0 -1
    outer loop
      vertex -63.33 -31.4456 -6.35
      vertex -63.4927 -31.2517 -6.35
      vertex -63.6354 -31.0424 -6.35
    endloop
  endfacet
  facet normal -0.766047 -0.642784 -0
    outer loop
      vertex -63.33 -31.4456 6.35
      vertex -63.4927 -31.2517 6.35
      vertex -63.33 -31.4456 -6.35
    endloop
  endfacet
  facet normal -0.921598 -0.388145 0
    outer loop
      vertex -63.7565 -30.8201 -6.35
      vertex -63.7565 -30.8201 6.35
      vertex -63.8548 -30.5867 6.35
    endloop
  endfacet
  facet normal -0.921598 -0.388145 0
    outer loop
      vertex -63.8548 -30.5867 -6.35
      vertex -63.7565 -30.8201 -6.35
      vertex -63.8548 -30.5867 6.35
    endloop
  endfacet
  facet normal 0 0 1
    outer loop
      vertex -64.0049 -29.8446 6.35
      vertex -63.9796 -30.0966 6.35
      vertex -63.9295 -30.3448 6.35
    endloop
  endfacet
  facet normal -0.95548 -0.295057 0
    outer loop
      vertex -63.8548 -30.5867 6.35
      vertex -63.9295 -30.3448 6.35
      vertex -63.9295 -30.3448 -6.35
    endloop
  endfacet
  facet normal -0.994998 -0.0998946 0
    outer loop
      vertex -64.0049 -29.8446 -6.35
      vertex -63.9796 -30.0966 -6.35
      vertex -64.0049 -29.8446 6.35
    endloop
  endfacet
  facet normal 0 0 -1
    outer loop
      vertex -63.9295 -30.3448 -6.35
      vertex -63.9796 -30.0966 -6.35
      vertex -64.0049 -29.8446 -6.35
    endloop
  endfacet
  facet normal -0.365322 -0.930881 0
    outer loop
      vertex -62.277 -32.1257 6.35
      vertex -62.5127 -32.0332 6.35
      vertex -62.5127 -32.0332 1.26998
    endloop
  endfacet
  facet normal 0 0 1
    outer loop
      vertex -62.9507 -31.7803 6.35
      vertex -62.738 -31.9177 6.35
      vertex -62.277 -32.1257 6.35
    endloop
  endfacet
  facet normal -0.365322 -0.930881 -0
    outer loop
      vertex -62.5127 -32.0332 1.26998
      vertex -62.5127 -32.0332 -6.35
      vertex -62.277 -32.1257 -6.35
    endloop
  endfacet
  facet normal -0.456196 -0.889879 0
    outer loop
      vertex -62.738 -31.9177 -6.35
      vertex -62.5127 -32.0332 -6.35
      vertex -62.5127 -32.0332 1.26998
    endloop
  endfacet
  facet normal 0.222696 0.974888 0
    outer loop
      vertex 62.1559 32.163 -1.27
      vertex 62.1559 32.163 -6.35
      vertex 61.909 32.2194 -6.35
    endloop
  endfacet
  facet normal 0.318241 0.94801 0
    outer loop
      vertex 62.396 32.0824 -6.35
      vertex 62.1559 32.163 -6.35
      vertex 62.1559 32.163 -1.27
    endloop
  endfacet
  facet normal 0 0 -1
    outer loop
      vertex 62.6268 31.9783 -6.35
      vertex 62.8461 31.8517 -6.35
      vertex 63.0517 31.7038 -6.35
    endloop
  endfacet
  facet normal 0.499962 0.866047 0
    outer loop
      vertex 62.8461 31.8517 -1.27
      vertex 62.8461 31.8517 -6.35
      vertex 62.6268 31.9783 -6.35
    endloop
  endfacet
  facet normal 0 0 -1
    outer loop
      vertex 63.9576 30.2213 -6.35
      vertex 63.9954 29.9709 -6.35
      vertex 64.008 29.718 -6.35
    endloop
  endfacet
  facet normal 0 0 -1
    outer loop
      vertex 63.8951 30.4667 -6.35
      vertex 63.9576 30.2213 -6.35
      vertex 64.008 29.718 -6.35
    endloop
  endfacet
  facet normal -0.766047 -0.642784 -0
    outer loop
      vertex -63.4927 -31.2517 6.35
      vertex -63.4927 -31.2517 -6.35
      vertex -63.33 -31.4456 -6.35
    endloop
  endfacet
  facet normal -0.826236 -0.563325 0
    outer loop
      vertex -63.6354 -31.0424 -6.35
      vertex -63.4927 -31.2517 -6.35
      vertex -63.4927 -31.2517 6.35
    endloop
  endfacet
  facet normal -0.878152 -0.478382 0
    outer loop
      vertex -63.6354 -31.0424 6.35
      vertex -63.7565 -30.8201 6.35
      vertex -63.7565 -30.8201 -6.35
    endloop
  endfacet
  facet normal 0 0 1
    outer loop
      vertex -63.8548 -30.5867 6.35
      vertex -63.7565 -30.8201 6.35
      vertex -63.6354 -31.0424 6.35
    endloop
  endfacet
  facet normal -0.994998 -0.0998946 0
    outer loop
      vertex -63.9796 -30.0966 -6.35
      vertex -63.9796 -30.0966 6.35
      vertex -64.0049 -29.8446 6.35
    endloop
  endfacet
  facet normal -0.98023 -0.197863 0
    outer loop
      vertex -63.9295 -30.3448 6.35
      vertex -63.9796 -30.0966 6.35
      vertex -63.9796 -30.0966 -6.35
    endloop
  endfacet
  facet normal 0 0 1
    outer loop
      vertex -62.738 -31.9177 6.35
      vertex -62.5127 -32.0332 6.35
      vertex -62.277 -32.1257 6.35
    endloop
  endfacet
  facet normal -0.456196 -0.889879 0
    outer loop
      vertex -62.5127 -32.0332 1.26998
      vertex -62.5127 -32.0332 6.35
      vertex -62.738 -31.9177 6.35
    endloop
  endfacet
  facet normal 0.988797 0.149267 0
    outer loop
      vertex 63.9954 29.9709 -1.27
      vertex 63.9954 29.9709 -6.35
      vertex 63.9576 30.2213 -6.35
    endloop
  endfacet
  facet normal 0.998761 0.0497603 0
    outer loop
      vertex 64.008 29.718 -6.35
      vertex 63.9954 29.9709 -6.35
      vertex 63.9954 29.9709 -1.27
    endloop
  endfacet
endsolid OpenSCAD_Model
