solid OpenSCAD_Model
  facet normal 0.411153 0.911566 0
    outer loop
      vertex 56.2768 51.0283 6.35
      vertex 56.046 51.1324 -6.35
      vertex 56.046 51.1324 6.35
    endloop
  endfacet
  facet normal -0.17374 -0.984792 -0
    outer loop
      vertex -55.4338 -51.2883 6.35
      vertex -55.6832 -51.2443 1.26998
      vertex -55.4338 -51.2883 -6.35
    endloop
  endfacet
  facet normal 1 0 -0
    outer loop
      vertex 57.658 48.768 1.26998
      vertex 57.658 48.768 6.35
      vertex 57.658 -48.768 6.35
    endloop
  endfacet
  facet normal 0 0 1
    outer loop
      vertex 53.256 50.4956 6.35
      vertex -55.4338 -51.2883 6.35
      vertex 57.3487 49.9828 6.35
    endloop
  endfacet
  facet normal 0 0 -1
    outer loop
      vertex -55.4338 -51.2883 -6.35
      vertex -56.7987 50.6724 -6.35
      vertex 56.8915 -50.5863 -6.35
    endloop
  endfacet
  facet normal 0 0 1
    outer loop
      vertex 57.3487 49.9828 6.35
      vertex 55.559 51.2694 6.35
      vertex 53.256 50.4956 6.35
    endloop
  endfacet
  facet normal 0 0 1
    outer loop
      vertex 54.309 51.1757 6.35
      vertex -56.7987 50.6724 6.35
      vertex 53.256 50.4956 6.35
    endloop
  endfacet
  facet normal 0 0 1
    outer loop
      vertex 57.0638 -50.4007 6.35
      vertex 57.6076 -49.2713 6.35
      vertex 57.658 -48.768 6.35
    endloop
  endfacet
  facet normal 0 0 1
    outer loop
      vertex 55.559 51.2694 6.35
      vertex 54.309 51.1757 6.35
      vertex 53.256 50.4956 6.35
    endloop
  endfacet
  facet normal 0.583961 0.811781 -0
    outer loop
      vertex 56.4961 50.9017 -1.27
      vertex 56.4961 50.9017 6.35
      vertex 56.7017 50.7538 6.35
    endloop
  endfacet
  facet normal -0 0 1
    outer loop
      vertex -55.4338 -51.2883 6.35
      vertex 55.0547 -51.3072 6.35
      vertex 57.3487 49.9828 6.35
    endloop
  endfacet
  facet normal 0 0 -1
    outer loop
      vertex 57.658 -48.768 -6.35
      vertex 57.4585 -49.7546 -6.35
      vertex 56.8915 -50.5863 -6.35
    endloop
  endfacet
  facet normal 0.222696 0.974888 0
    outer loop
      vertex 55.559 51.2694 6.35
      vertex 55.8059 51.213 6.35
      vertex 55.8059 51.213 1.26998
    endloop
  endfacet
  facet normal 0 0 1
    outer loop
      vertex 57.3487 49.9828 6.35
      vertex 56.7017 50.7538 6.35
      vertex 55.559 51.2694 6.35
    endloop
  endfacet
  facet normal 0 -0 -1
    outer loop
      vertex 57.5451 49.5167 -6.35
      vertex 57.658 -48.768 -6.35
      vertex 56.8915 -50.5863 -6.35
    endloop
  endfacet
  facet normal 0 0 -1
    outer loop
      vertex -56.7987 50.6724 -6.35
      vertex 56.8915 50.5863 -6.35
      vertex 56.8915 -50.5863 -6.35
    endloop
  endfacet
  facet normal 0 0 1
    outer loop
      vertex 56.7017 50.7538 6.35
      vertex 56.2768 51.0283 6.35
      vertex 55.559 51.2694 6.35
    endloop
  endfacet
  facet normal 0 0 -1
    outer loop
      vertex 56.8915 50.5863 -6.35
      vertex 57.3487 49.9828 -6.35
      vertex 57.5451 49.5167 -6.35
    endloop
  endfacet
  facet normal 0.124424 0.992229 -0
    outer loop
      vertex 55.3078 51.3009 1.26998
      vertex 55.3078 51.3009 6.35
      vertex 55.559 51.2694 6.35
    endloop
  endfacet
  facet normal 0 0 1
    outer loop
      vertex 55.559 51.2694 6.35
      vertex -56.7987 50.6724 6.35
      vertex 54.309 51.1757 6.35
    endloop
  endfacet
  facet normal 0 0 1
    outer loop
      vertex -55.1813 51.3072 6.35
      vertex -55.927 51.1757 6.35
      vertex -56.7987 50.6724 6.35
    endloop
  endfacet
  facet normal 0 0 -1
    outer loop
      vertex -56.7987 50.6724 -6.35
      vertex 55.559 51.2694 -6.35
      vertex 56.8915 50.5863 -6.35
    endloop
  endfacet
  facet normal 0 0 1
    outer loop
      vertex -56.7987 50.6724 6.35
      vertex -57.6549 -48.8946 6.35
      vertex -55.4338 -51.2883 6.35
    endloop
  endfacet
  facet normal 0 0 1
    outer loop
      vertex 53.256 50.4956 6.35
      vertex -56.7987 50.6724 6.35
      vertex -55.4338 -51.2883 6.35
    endloop
  endfacet
  facet normal -1 0 0
    outer loop
      vertex -57.6549 48.8946 -6.35
      vertex -57.6549 -48.8946 -6.35
      vertex -57.6549 -48.8946 1.26998
    endloop
  endfacet
  facet normal -1 0 0
    outer loop
      vertex -57.6549 -48.8946 6.35
      vertex -57.6549 48.8946 -6.35
      vertex -57.6549 -48.8946 1.26998
    endloop
  endfacet
  facet normal 0 0 -1
    outer loop
      vertex 56.8915 -50.5863 -6.35
      vertex 55.0547 -51.3072 -6.35
      vertex -55.4338 -51.2883 -6.35
    endloop
  endfacet
  facet normal 0 0 1
    outer loop
      vertex 55.0547 -51.3072 6.35
      vertex 57.658 -48.768 6.35
      vertex 57.3487 49.9828 6.35
    endloop
  endfacet
  facet normal 0.318241 0.94801 0
    outer loop
      vertex 56.046 51.1324 6.35
      vertex 56.046 51.1324 -6.35
      vertex 55.8059 51.213 1.26998
    endloop
  endfacet
  facet normal 0 1 0
    outer loop
      vertex 55.0547 51.3072 1.26998
      vertex -55.1813 51.3072 -6.35
      vertex -55.1813 51.3072 6.35
    endloop
  endfacet
  facet normal 0 0 -1
    outer loop
      vertex 56.8915 50.5863 -6.35
      vertex 57.5451 49.5167 -6.35
      vertex 56.8915 -50.5863 -6.35
    endloop
  endfacet
  facet normal 0.969065 0.246807 0
    outer loop
      vertex 57.5451 49.5167 1.26998
      vertex 57.6076 49.2713 6.35
      vertex 57.6076 49.2713 1.26998
    endloop
  endfacet
  facet normal 0 0 1
    outer loop
      vertex 57.0638 50.4007 6.35
      vertex 56.8915 50.5863 6.35
      vertex 56.7017 50.7538 6.35
    endloop
  endfacet
  facet normal 0 0 1
    outer loop
      vertex 57.3487 49.9828 6.35
      vertex 57.0638 50.4007 6.35
      vertex 56.7017 50.7538 6.35
    endloop
  endfacet
  facet normal 0.124424 0.992229 -0
    outer loop
      vertex 55.559 51.2694 -6.35
      vertex 55.3078 51.3009 1.26998
      vertex 55.559 51.2694 6.35
    endloop
  endfacet
  facet normal 0.222696 0.974888 0
    outer loop
      vertex 55.8059 51.213 1.26998
      vertex 55.559 51.2694 -6.35
      vertex 55.559 51.2694 6.35
    endloop
  endfacet
  facet normal -0.62349 0.781831 0
    outer loop
      vertex -56.7987 50.6724 6.35
      vertex -56.6007 50.8303 1.26998
      vertex -56.7987 50.6724 -6.35
    endloop
  endfacet
  facet normal 0 0 1
    outer loop
      vertex 55.559 51.2694 6.35
      vertex -55.1813 51.3072 6.35
      vertex -56.7987 50.6724 6.35
    endloop
  endfacet
  facet normal -0.994998 0.0998946 0
    outer loop
      vertex -57.6549 48.8946 6.35
      vertex -57.6296 49.1466 -6.35
      vertex -57.6549 48.8946 -6.35
    endloop
  endfacet
  facet normal -0.17374 -0.984792 -0
    outer loop
      vertex -55.6832 -51.2443 1.26998
      vertex -55.6832 -51.2443 -6.35
      vertex -55.4338 -51.2883 -6.35
    endloop
  endfacet
  facet normal -0.98023 -0.197863 -0
    outer loop
      vertex -57.5795 -49.3948 6.35
      vertex -57.6296 -49.1466 -6.35
      vertex -57.5795 -49.3948 -6.35
    endloop
  endfacet
  facet normal 0 0 1
    outer loop
      vertex -57.6549 -48.8946 6.35
      vertex -56.98 -50.4956 6.35
      vertex -55.4338 -51.2883 6.35
    endloop
  endfacet
  facet normal 0 0 -1
    outer loop
      vertex -57.6549 48.8946 -6.35
      vertex -57.4065 49.8701 -6.35
      vertex -56.7987 50.6724 -6.35
    endloop
  endfacet
  facet normal 0 0 -1
    outer loop
      vertex -55.4338 -51.2883 -6.35
      vertex -57.6549 48.8946 -6.35
      vertex -56.7987 50.6724 -6.35
    endloop
  endfacet
  facet normal -0.0746427 -0.99721 0
    outer loop
      vertex -55.1813 -51.3072 1.26998
      vertex -55.1813 -51.3072 6.35
      vertex -55.4338 -51.2883 6.35
    endloop
  endfacet
  facet normal -0.0746427 -0.99721 0
    outer loop
      vertex -55.4338 -51.2883 -6.35
      vertex -55.1813 -51.3072 1.26998
      vertex -55.4338 -51.2883 6.35
    endloop
  endfacet
  facet normal 0 -1 0
    outer loop
      vertex -55.1813 -51.3072 1.26998
      vertex 55.0547 -51.3072 -6.35
      vertex 55.0547 -51.3072 6.35
    endloop
  endfacet
  facet normal 0 0 -1
    outer loop
      vertex 55.0547 -51.3072 -6.35
      vertex -55.1813 -51.3072 -6.35
      vertex -55.4338 -51.2883 -6.35
    endloop
  endfacet
  facet normal 0 0 -1
    outer loop
      vertex 57.5451 49.5167 -6.35
      vertex 57.6076 49.2713 -6.35
      vertex 57.658 -48.768 -6.35
    endloop
  endfacet
  facet normal 0 -0 1
    outer loop
      vertex 57.658 -48.768 6.35
      vertex 57.658 48.768 6.35
      vertex 57.3487 49.9828 6.35
    endloop
  endfacet
  facet normal 0 0 1
    outer loop
      vertex 56.2768 51.0283 6.35
      vertex 56.046 51.1324 6.35
      vertex 55.559 51.2694 6.35
    endloop
  endfacet
  facet normal 0.661687 0.74978 0
    outer loop
      vertex 56.8915 50.5863 -6.35
      vertex 56.7017 50.7538 -6.35
      vertex 56.7017 50.7538 6.35
    endloop
  endfacet
  facet normal 0 0 -1
    outer loop
      vertex 56.046 51.1324 -6.35
      vertex 56.7017 50.7538 -6.35
      vertex 56.8915 50.5863 -6.35
    endloop
  endfacet
  facet normal 0.499962 0.866047 0
    outer loop
      vertex 56.4961 50.9017 -1.27
      vertex 56.2768 51.0283 -6.35
      vertex 56.2768 51.0283 6.35
    endloop
  endfacet
  facet normal 1 0 0
    outer loop
      vertex 57.658 -48.768 -6.35
      vertex 57.658 48.768 -6.35
      vertex 57.658 48.768 1.26998
    endloop
  endfacet
  facet normal 0.988797 0.149267 0
    outer loop
      vertex 57.6076 49.2713 1.26998
      vertex 57.6454 49.0209 6.35
      vertex 57.6076 49.2713 -6.35
    endloop
  endfacet
  facet normal 0.732878 0.68036 0
    outer loop
      vertex 57.0638 50.4007 6.35
      vertex 57.0638 50.4007 -6.35
      vertex 56.8915 50.5863 -6.35
    endloop
  endfacet
  facet normal 0.853106 0.521738 -0
    outer loop
      vertex 57.3487 49.9828 -6.35
      vertex 57.2166 50.1988 6.35
      vertex 57.3487 49.9828 6.35
    endloop
  endfacet
  facet normal 0.732878 0.68036 -0
    outer loop
      vertex 56.8915 50.5863 -6.35
      vertex 56.8915 50.5863 6.35
      vertex 57.0638 50.4007 6.35
    endloop
  endfacet
  facet normal 0.661687 0.74978 0
    outer loop
      vertex 56.7017 50.7538 6.35
      vertex 56.8915 50.5863 6.35
      vertex 56.8915 50.5863 -6.35
    endloop
  endfacet
  facet normal 0 0 -1
    outer loop
      vertex 55.0547 51.3072 -6.35
      vertex 55.3078 51.3009 -6.35
      vertex 55.559 51.2694 -6.35
    endloop
  endfacet
  facet normal 0.0248836 0.99969 -0
    outer loop
      vertex 55.0547 51.3072 1.26998
      vertex 55.0547 51.3072 6.35
      vertex 55.3078 51.3009 1.26998
    endloop
  endfacet
  facet normal -0 1 0
    outer loop
      vertex -55.1813 51.3072 6.35
      vertex 55.0547 51.3072 6.35
      vertex 55.0547 51.3072 1.26998
    endloop
  endfacet
  facet normal 0 0 1
    outer loop
      vertex 55.559 51.2694 6.35
      vertex 55.0547 51.3072 6.35
      vertex -55.1813 51.3072 6.35
    endloop
  endfacet
  facet normal 0.0248836 0.99969 0
    outer loop
      vertex 55.3078 51.3009 1.26998
      vertex 55.0547 51.3072 -6.35
      vertex 55.0547 51.3072 1.26998
    endloop
  endfacet
  facet normal 0 0 -1
    outer loop
      vertex -56.7987 50.6724 -6.35
      vertex -55.1813 51.3072 -6.35
      vertex 55.559 51.2694 -6.35
    endloop
  endfacet
  facet normal -0.0746427 0.99721 0
    outer loop
      vertex -55.1813 51.3072 -6.35
      vertex -55.4338 51.2883 6.35
      vertex -55.1813 51.3072 6.35
    endloop
  endfacet
  facet normal 0 0 1
    outer loop
      vertex -56.388 50.9677 6.35
      vertex -56.6007 50.8303 6.35
      vertex -56.7987 50.6724 6.35
    endloop
  endfacet
  facet normal 0 0 1
    outer loop
      vertex -57.5048 -49.6367 6.35
      vertex -57.2854 -50.0924 6.35
      vertex -56.98 -50.4956 6.35
    endloop
  endfacet
  facet normal -0.27086 -0.962619 -0
    outer loop
      vertex -55.927 -51.1757 1.26998
      vertex -55.927 -51.1757 -6.35
      vertex -55.6832 -51.2443 1.26998
    endloop
  endfacet
  facet normal 0 0 -1
    outer loop
      vertex -57.5048 -49.6367 -6.35
      vertex -57.5795 -49.3948 -6.35
      vertex -57.6549 48.8946 -6.35
    endloop
  endfacet
  facet normal 0 0 -1
    outer loop
      vertex -55.4338 -51.2883 -6.35
      vertex -57.5048 -49.6367 -6.35
      vertex -57.6549 48.8946 -6.35
    endloop
  endfacet
  facet normal -0.878152 -0.478382 0
    outer loop
      vertex -57.4065 -49.8701 -1.27
      vertex -57.2854 -50.0924 -6.35
      vertex -57.2854 -50.0924 -1.27
    endloop
  endfacet
  facet normal 0 0 1
    outer loop
      vertex -56.98 -50.4956 6.35
      vertex -56.388 -50.9677 6.35
      vertex -55.4338 -51.2883 6.35
    endloop
  endfacet
  facet normal -1 0 0
    outer loop
      vertex -57.6549 -48.8946 6.35
      vertex -57.6549 48.8946 6.35
      vertex -57.6549 48.8946 -6.35
    endloop
  endfacet
  facet normal 0 0 1
    outer loop
      vertex -56.7987 50.6724 6.35
      vertex -57.6549 48.8946 6.35
      vertex -57.6549 -48.8946 6.35
    endloop
  endfacet
  facet normal -0.878152 0.478382 0
    outer loop
      vertex -57.4065 49.8701 6.35
      vertex -57.2854 50.0924 -6.35
      vertex -57.4065 49.8701 -6.35
    endloop
  endfacet
  facet normal 0 0 -1
    outer loop
      vertex -57.4065 49.8701 -6.35
      vertex -57.1427 50.3016 -6.35
      vertex -56.7987 50.6724 -6.35
    endloop
  endfacet
  facet normal -0 -1 0
    outer loop
      vertex 55.0547 -51.3072 6.35
      vertex -55.1813 -51.3072 6.35
      vertex -55.1813 -51.3072 1.26998
    endloop
  endfacet
  facet normal 0 0 1
    outer loop
      vertex -55.4338 -51.2883 6.35
      vertex -55.1813 -51.3072 6.35
      vertex 55.0547 -51.3072 6.35
    endloop
  endfacet
  facet normal 0.0248836 -0.99969 0
    outer loop
      vertex 55.0547 -51.3072 -6.35
      vertex 55.3078 -51.3009 1.26998
      vertex 55.0547 -51.3072 6.35
    endloop
  endfacet
  facet normal 0.222321 -0.974974 0
    outer loop
      vertex 55.559 -51.2694 -6.35
      vertex 55.8059 -51.2131 -6.35
      vertex 55.8059 -51.2131 1.26998
    endloop
  endfacet
  facet normal 0 -1 0
    outer loop
      vertex -55.1813 -51.3072 1.26998
      vertex -55.1813 -51.3072 -6.35
      vertex 55.0547 -51.3072 -6.35
    endloop
  endfacet
  facet normal -0.0746427 -0.99721 0
    outer loop
      vertex -55.4338 -51.2883 -6.35
      vertex -55.1813 -51.3072 -6.35
      vertex -55.1813 -51.3072 1.26998
    endloop
  endfacet
  facet normal 1 0 0
    outer loop
      vertex 57.658 -48.768 6.35
      vertex 57.658 -48.768 -6.35
      vertex 57.658 48.768 1.26998
    endloop
  endfacet
  facet normal 0 0 1
    outer loop
      vertex 55.0547 -51.3072 6.35
      vertex 57.0638 -50.4007 6.35
      vertex 57.658 -48.768 6.35
    endloop
  endfacet
  facet normal 0 0 1
    outer loop
      vertex 57.658 48.768 6.35
      vertex 57.6454 49.0209 6.35
      vertex 57.3487 49.9828 6.35
    endloop
  endfacet
  facet normal 0.998761 0.0497603 -0
    outer loop
      vertex 57.658 48.768 1.26998
      vertex 57.6454 49.0209 6.35
      vertex 57.658 48.768 6.35
    endloop
  endfacet
  facet normal 0 0 1
    outer loop
      vertex 56.046 51.1324 6.35
      vertex 55.8059 51.213 6.35
      vertex 55.559 51.2694 6.35
    endloop
  endfacet
  facet normal 0.318241 0.94801 -0
    outer loop
      vertex 55.8059 51.213 1.26998
      vertex 55.8059 51.213 6.35
      vertex 56.046 51.1324 6.35
    endloop
  endfacet
  facet normal 0 0 -1
    outer loop
      vertex 55.559 51.2694 -6.35
      vertex 56.046 51.1324 -6.35
      vertex 56.8915 50.5863 -6.35
    endloop
  endfacet
  facet normal 0.318241 0.94801 0
    outer loop
      vertex 56.046 51.1324 -6.35
      vertex 55.8059 51.213 -6.35
      vertex 55.8059 51.213 1.26998
    endloop
  endfacet
  facet normal 0.499962 0.866047 0
    outer loop
      vertex 56.2768 51.0283 6.35
      vertex 56.4961 50.9017 6.35
      vertex 56.4961 50.9017 -1.27
    endloop
  endfacet
  facet normal 0 0 1
    outer loop
      vertex 56.7017 50.7538 6.35
      vertex 56.4961 50.9017 6.35
      vertex 56.2768 51.0283 6.35
    endloop
  endfacet
  facet normal 0.583961 0.811781 0
    outer loop
      vertex 56.7017 50.7538 -6.35
      vertex 56.4961 50.9017 -6.35
      vertex 56.4961 50.9017 -1.27
    endloop
  endfacet
  facet normal 0.583961 0.811781 0
    outer loop
      vertex 56.7017 50.7538 6.35
      vertex 56.7017 50.7538 -6.35
      vertex 56.4961 50.9017 -1.27
    endloop
  endfacet
  facet normal 0.969065 0.246807 0
    outer loop
      vertex 57.6076 49.2713 1.26998
      vertex 57.6076 49.2713 -6.35
      vertex 57.5451 49.5167 -6.35
    endloop
  endfacet
  facet normal 0 0 -1
    outer loop
      vertex 57.6076 49.2713 -6.35
      vertex 57.658 48.768 -6.35
      vertex 57.658 -48.768 -6.35
    endloop
  endfacet
  facet normal 0.969065 0.246807 -0
    outer loop
      vertex 57.5451 49.5167 -6.35
      vertex 57.5451 49.5167 1.26998
      vertex 57.6076 49.2713 1.26998
    endloop
  endfacet
  facet normal 0.939678 0.34206 -0
    outer loop
      vertex 57.5451 49.5167 -6.35
      vertex 57.4585 49.7546 -6.35
      vertex 57.5451 49.5167 1.26998
    endloop
  endfacet
  facet normal 0 0 -1
    outer loop
      vertex 57.3487 49.9828 -6.35
      vertex 57.4585 49.7546 -6.35
      vertex 57.5451 49.5167 -6.35
    endloop
  endfacet
  facet normal 0.901116 0.433578 0
    outer loop
      vertex 57.3487 49.9828 6.35
      vertex 57.4585 49.7546 -6.35
      vertex 57.3487 49.9828 -6.35
    endloop
  endfacet
  facet normal 0 0 -1
    outer loop
      vertex 57.0638 50.4007 -6.35
      vertex 57.2166 50.1988 -6.35
      vertex 57.3487 49.9828 -6.35
    endloop
  endfacet
  facet normal 0 0 -1
    outer loop
      vertex 56.8915 50.5863 -6.35
      vertex 57.0638 50.4007 -6.35
      vertex 57.3487 49.9828 -6.35
    endloop
  endfacet
  facet normal 0.797386 0.60347 0
    outer loop
      vertex 57.0638 50.4007 6.35
      vertex 57.2166 50.1988 6.35
      vertex 57.0638 50.4007 -6.35
    endloop
  endfacet
  facet normal 0 0 1
    outer loop
      vertex 57.3487 49.9828 6.35
      vertex 57.2166 50.1988 6.35
      vertex 57.0638 50.4007 6.35
    endloop
  endfacet
  facet normal 0.0248836 0.99969 0
    outer loop
      vertex 55.0547 51.3072 6.35
      vertex 55.3078 51.3009 6.35
      vertex 55.3078 51.3009 1.26998
    endloop
  endfacet
  facet normal 0 0 1
    outer loop
      vertex 55.559 51.2694 6.35
      vertex 55.3078 51.3009 6.35
      vertex 55.0547 51.3072 6.35
    endloop
  endfacet
  facet normal 0 0 -1
    outer loop
      vertex -55.1813 51.3072 -6.35
      vertex 55.0547 51.3072 -6.35
      vertex 55.559 51.2694 -6.35
    endloop
  endfacet
  facet normal 0 1 0
    outer loop
      vertex 55.0547 51.3072 1.26998
      vertex 55.0547 51.3072 -6.35
      vertex -55.1813 51.3072 -6.35
    endloop
  endfacet
  facet normal 0 0 1
    outer loop
      vertex -55.927 51.1757 6.35
      vertex -56.388 50.9677 6.35
      vertex -56.7987 50.6724 6.35
    endloop
  endfacet
  facet normal -0.365322 0.930881 0
    outer loop
      vertex -55.927 51.1757 -6.35
      vertex -56.1627 51.0832 6.35
      vertex -55.927 51.1757 6.35
    endloop
  endfacet
  facet normal -0.27086 0.962619 0
    outer loop
      vertex -55.6832 51.2443 6.35
      vertex -55.927 51.1757 -6.35
      vertex -55.927 51.1757 6.35
    endloop
  endfacet
  facet normal 0 0 1
    outer loop
      vertex -55.1813 51.3072 6.35
      vertex -55.6832 51.2443 6.35
      vertex -55.927 51.1757 6.35
    endloop
  endfacet
  facet normal 0 0 -1
    outer loop
      vertex -55.927 51.1757 -6.35
      vertex -55.6832 51.2443 -6.35
      vertex -55.1813 51.3072 -6.35
    endloop
  endfacet
  facet normal 0 0 -1
    outer loop
      vertex -56.7987 50.6724 -6.35
      vertex -55.927 51.1757 -6.35
      vertex -55.1813 51.3072 -6.35
    endloop
  endfacet
  facet normal -0.542613 -0.839983 0
    outer loop
      vertex -56.388 -50.9677 1.26998
      vertex -56.388 -50.9677 6.35
      vertex -56.6007 -50.8303 -6.35
    endloop
  endfacet
  facet normal -0.698368 -0.715739 0
    outer loop
      vertex -56.7987 -50.6725 -6.35
      vertex -56.7987 -50.6725 6.35
      vertex -56.98 -50.4956 6.35
    endloop
  endfacet
  facet normal 0 0 -1
    outer loop
      vertex -56.6007 -50.8303 -6.35
      vertex -56.7987 -50.6725 -6.35
      vertex -57.5048 -49.6367 -6.35
    endloop
  endfacet
  facet normal 0 0 -1
    outer loop
      vertex -55.4338 -51.2883 -6.35
      vertex -56.6007 -50.8303 -6.35
      vertex -57.5048 -49.6367 -6.35
    endloop
  endfacet
  facet normal -0.95548 -0.295057 0
    outer loop
      vertex -57.5048 -49.6367 -6.35
      vertex -57.5048 -49.6367 6.35
      vertex -57.5795 -49.3948 -6.35
    endloop
  endfacet
  facet normal 0 0 -1
    outer loop
      vertex -57.5795 -49.3948 -6.35
      vertex -57.6296 -49.1466 -6.35
      vertex -57.6549 -48.8946 -6.35
    endloop
  endfacet
  facet normal -0.766047 -0.642784 -0
    outer loop
      vertex -56.98 -50.4956 6.35
      vertex -57.1427 -50.3017 1.26998
      vertex -56.98 -50.4956 1.26998
    endloop
  endfacet
  facet normal 0 0 1
    outer loop
      vertex -57.6549 -48.8946 6.35
      vertex -57.5048 -49.6367 6.35
      vertex -56.98 -50.4956 6.35
    endloop
  endfacet
  facet normal 0 0 -1
    outer loop
      vertex -55.927 -51.1757 -6.35
      vertex -56.388 -50.9677 -6.35
      vertex -56.6007 -50.8303 -6.35
    endloop
  endfacet
  facet normal 0 0 1
    outer loop
      vertex -56.388 -50.9677 6.35
      vertex -55.927 -51.1757 6.35
      vertex -55.4338 -51.2883 6.35
    endloop
  endfacet
  facet normal 0 0 -1
    outer loop
      vertex -57.5795 49.3947 -6.35
      vertex -57.5048 49.6367 -6.35
      vertex -57.4065 49.8701 -6.35
    endloop
  endfacet
  facet normal 0 0 -1
    outer loop
      vertex -57.6549 48.8946 -6.35
      vertex -57.5795 49.3947 -6.35
      vertex -57.4065 49.8701 -6.35
    endloop
  endfacet
  facet normal 0 0 1
    outer loop
      vertex -57.4065 49.8701 6.35
      vertex -57.5795 49.3947 6.35
      vertex -57.6549 48.8946 6.35
    endloop
  endfacet
  facet normal 0 0 1
    outer loop
      vertex -56.7987 50.6724 6.35
      vertex -57.4065 49.8701 6.35
      vertex -57.6549 48.8946 6.35
    endloop
  endfacet
  facet normal -0.76621 0.64259 0
    outer loop
      vertex -57.1427 50.3016 6.35
      vertex -56.98 50.4956 -6.35
      vertex -57.1427 50.3016 -6.35
    endloop
  endfacet
  facet normal 0 0 -1
    outer loop
      vertex -57.1427 50.3016 -6.35
      vertex -56.98 50.4956 -6.35
      vertex -56.7987 50.6724 -6.35
    endloop
  endfacet
  facet normal 0.732878 -0.68036 0
    outer loop
      vertex 57.0638 -50.4007 6.35
      vertex 56.8915 -50.5863 6.35
      vertex 56.8915 -50.5863 -6.35
    endloop
  endfacet
  facet normal 0 0 1
    outer loop
      vertex 55.0547 -51.3072 6.35
      vertex 56.2768 -51.0283 6.35
      vertex 57.0638 -50.4007 6.35
    endloop
  endfacet
  facet normal 0.0248836 -0.99969 0
    outer loop
      vertex 55.3078 -51.3009 1.26998
      vertex 55.3078 -51.3009 6.35
      vertex 55.0547 -51.3072 6.35
    endloop
  endfacet
  facet normal 0.318596 -0.947891 0
    outer loop
      vertex 56.046 -51.1324 1.26998
      vertex 55.8059 -51.2131 1.26998
      vertex 56.046 -51.1324 -6.35
    endloop
  endfacet
  facet normal 0 0 -1
    outer loop
      vertex 56.046 -51.1324 -6.35
      vertex 55.559 -51.2694 -6.35
      vertex 55.0547 -51.3072 -6.35
    endloop
  endfacet
  facet normal 0 0 -1
    outer loop
      vertex 56.8915 -50.5863 -6.35
      vertex 56.046 -51.1324 -6.35
      vertex 55.0547 -51.3072 -6.35
    endloop
  endfacet
  facet normal 0 0 1
    outer loop
      vertex 57.6454 49.0209 6.35
      vertex 57.6076 49.2713 6.35
      vertex 57.3487 49.9828 6.35
    endloop
  endfacet
  facet normal 0.988797 0.149267 -0
    outer loop
      vertex 57.6076 49.2713 1.26998
      vertex 57.6076 49.2713 6.35
      vertex 57.6454 49.0209 6.35
    endloop
  endfacet
  facet normal 0 0 -1
    outer loop
      vertex 56.046 51.1324 -6.35
      vertex 56.2768 51.0283 -6.35
      vertex 56.7017 50.7538 -6.35
    endloop
  endfacet
  facet normal 0.411153 0.911566 0
    outer loop
      vertex 56.2768 51.0283 6.35
      vertex 56.2768 51.0283 -6.35
      vertex 56.046 51.1324 -6.35
    endloop
  endfacet
  facet normal 0 0 -1
    outer loop
      vertex 55.559 51.2694 -6.35
      vertex 55.8059 51.213 -6.35
      vertex 56.046 51.1324 -6.35
    endloop
  endfacet
  facet normal 0.222696 0.974888 0
    outer loop
      vertex 55.8059 51.213 1.26998
      vertex 55.8059 51.213 -6.35
      vertex 55.559 51.2694 -6.35
    endloop
  endfacet
  facet normal 0.988797 0.149267 0
    outer loop
      vertex 57.6454 49.0209 6.35
      vertex 57.6454 49.0209 -6.35
      vertex 57.6076 49.2713 -6.35
    endloop
  endfacet
  facet normal 0.998761 0.0497603 0
    outer loop
      vertex 57.658 48.768 1.26998
      vertex 57.658 48.768 -6.35
      vertex 57.6454 49.0209 6.35
    endloop
  endfacet
  facet normal 0.939678 0.34206 -0
    outer loop
      vertex 57.4585 49.7546 -6.35
      vertex 57.4585 49.7546 1.26998
      vertex 57.5451 49.5167 1.26998
    endloop
  endfacet
  facet normal 0.901116 0.433578 0
    outer loop
      vertex 57.3487 49.9828 6.35
      vertex 57.4585 49.7546 1.26998
      vertex 57.4585 49.7546 -6.35
    endloop
  endfacet
  facet normal 0.797386 0.60347 0
    outer loop
      vertex 57.2166 50.1988 6.35
      vertex 57.2166 50.1988 -6.35
      vertex 57.0638 50.4007 -6.35
    endloop
  endfacet
  facet normal 0.853106 0.521738 0
    outer loop
      vertex 57.3487 49.9828 -6.35
      vertex 57.2166 50.1988 -6.35
      vertex 57.2166 50.1988 6.35
    endloop
  endfacet
  facet normal 0.0248836 0.99969 0
    outer loop
      vertex 55.3078 51.3009 1.26998
      vertex 55.3078 51.3009 -6.35
      vertex 55.0547 51.3072 -6.35
    endloop
  endfacet
  facet normal 0.124424 0.992229 0
    outer loop
      vertex 55.559 51.2694 -6.35
      vertex 55.3078 51.3009 -6.35
      vertex 55.3078 51.3009 1.26998
    endloop
  endfacet
  facet normal -0.62349 0.781831 0
    outer loop
      vertex -56.6007 50.8303 1.26998
      vertex -56.6007 50.8303 -6.35
      vertex -56.7987 50.6724 -6.35
    endloop
  endfacet
  facet normal -0.542613 0.839983 0
    outer loop
      vertex -56.388 50.9677 6.35
      vertex -56.388 50.9677 -6.35
      vertex -56.6007 50.8303 1.26998
    endloop
  endfacet
  facet normal -0.27086 0.962619 0
    outer loop
      vertex -55.6832 51.2443 6.35
      vertex -55.6832 51.2443 -6.35
      vertex -55.927 51.1757 -6.35
    endloop
  endfacet
  facet normal 0 0 1
    outer loop
      vertex -55.1813 51.3072 6.35
      vertex -55.4338 51.2883 6.35
      vertex -55.6832 51.2443 6.35
    endloop
  endfacet
  facet normal -0.456196 0.889879 0
    outer loop
      vertex -56.1627 51.0832 6.35
      vertex -56.388 50.9677 -6.35
      vertex -56.388 50.9677 6.35
    endloop
  endfacet
  facet normal 0 0 1
    outer loop
      vertex -55.927 51.1757 6.35
      vertex -56.1627 51.0832 6.35
      vertex -56.388 50.9677 6.35
    endloop
  endfacet
  facet normal -0.17374 0.984792 0
    outer loop
      vertex -55.4338 51.2883 6.35
      vertex -55.6832 51.2443 -6.35
      vertex -55.6832 51.2443 6.35
    endloop
  endfacet
  facet normal 0 0 -1
    outer loop
      vertex -55.6832 51.2443 -6.35
      vertex -55.4338 51.2883 -6.35
      vertex -55.1813 51.3072 -6.35
    endloop
  endfacet
  facet normal -0.365322 -0.930881 0
    outer loop
      vertex -55.927 -51.1757 1.26998
      vertex -55.927 -51.1757 6.35
      vertex -56.1627 -51.0832 1.26998
    endloop
  endfacet
  facet normal -0.365322 -0.930881 -0
    outer loop
      vertex -55.927 -51.1757 1.26998
      vertex -56.1627 -51.0832 1.26998
      vertex -55.927 -51.1757 -6.35
    endloop
  endfacet
  facet normal -0.542613 -0.839983 0
    outer loop
      vertex -56.6007 -50.8303 -6.35
      vertex -56.388 -50.9677 -6.35
      vertex -56.388 -50.9677 1.26998
    endloop
  endfacet
  facet normal 0 0 -1
    outer loop
      vertex -55.4338 -51.2883 -6.35
      vertex -55.927 -51.1757 -6.35
      vertex -56.6007 -50.8303 -6.35
    endloop
  endfacet
  facet normal -0.623249 -0.782023 0
    outer loop
      vertex -56.6007 -50.8303 -6.35
      vertex -56.6007 -50.8303 6.35
      vertex -56.7987 -50.6725 -6.35
    endloop
  endfacet
  facet normal -0.698368 -0.715739 0
    outer loop
      vertex -56.98 -50.4956 1.26998
      vertex -56.7987 -50.6725 -6.35
      vertex -56.98 -50.4956 6.35
    endloop
  endfacet
  facet normal 0 0 -1
    outer loop
      vertex -57.5795 -49.3948 -6.35
      vertex -57.6549 -48.8946 -6.35
      vertex -57.6549 48.8946 -6.35
    endloop
  endfacet
  facet normal -0.994998 -0.0998946 0
    outer loop
      vertex -57.6549 -48.8946 -6.35
      vertex -57.6296 -49.1466 -6.35
      vertex -57.6549 -48.8946 1.26998
    endloop
  endfacet
  facet normal -0.95548 -0.295057 0
    outer loop
      vertex -57.5048 -49.6367 6.35
      vertex -57.5795 -49.3948 6.35
      vertex -57.5795 -49.3948 -6.35
    endloop
  endfacet
  facet normal 0 0 1
    outer loop
      vertex -57.6549 -48.8946 6.35
      vertex -57.5795 -49.3948 6.35
      vertex -57.5048 -49.6367 6.35
    endloop
  endfacet
  facet normal -0.766047 -0.642784 0
    outer loop
      vertex -57.1427 -50.3017 1.26998
      vertex -56.98 -50.4956 -6.35
      vertex -56.98 -50.4956 1.26998
    endloop
  endfacet
  facet normal -0.878152 -0.478382 0
    outer loop
      vertex -57.2854 -50.0924 6.35
      vertex -57.4065 -49.8701 6.35
      vertex -57.4065 -49.8701 -1.27
    endloop
  endfacet
  facet normal -0.542613 -0.839983 0
    outer loop
      vertex -56.388 -50.9677 6.35
      vertex -56.6007 -50.8303 6.35
      vertex -56.6007 -50.8303 -6.35
    endloop
  endfacet
  facet normal 0 0 1
    outer loop
      vertex -56.98 -50.4956 6.35
      vertex -56.6007 -50.8303 6.35
      vertex -56.388 -50.9677 6.35
    endloop
  endfacet
  facet normal 0 0 1
    outer loop
      vertex -56.388 -50.9677 6.35
      vertex -56.1627 -51.0832 6.35
      vertex -55.927 -51.1757 6.35
    endloop
  endfacet
  facet normal -0.456196 -0.889879 0
    outer loop
      vertex -56.388 -50.9677 1.26998
      vertex -56.1627 -51.0832 1.26998
      vertex -56.388 -50.9677 6.35
    endloop
  endfacet
  facet normal -0.27086 -0.962619 0
    outer loop
      vertex -55.6832 -51.2443 1.26998
      vertex -55.927 -51.1757 6.35
      vertex -55.927 -51.1757 1.26998
    endloop
  endfacet
  facet normal 0 0 1
    outer loop
      vertex -55.927 -51.1757 6.35
      vertex -55.6832 -51.2443 6.35
      vertex -55.4338 -51.2883 6.35
    endloop
  endfacet
  facet normal -0.955514 0.294946 0
    outer loop
      vertex -57.5795 49.3947 -6.35
      vertex -57.5795 49.3947 6.35
      vertex -57.5048 49.6367 -6.35
    endloop
  endfacet
  facet normal 0 0 -1
    outer loop
      vertex -57.6549 48.8946 -6.35
      vertex -57.6296 49.1466 -6.35
      vertex -57.5795 49.3947 -6.35
    endloop
  endfacet
  facet normal -0.955514 0.294946 0
    outer loop
      vertex -57.5795 49.3947 6.35
      vertex -57.5048 49.6367 6.35
      vertex -57.5048 49.6367 -6.35
    endloop
  endfacet
  facet normal -0.921598 0.388145 0
    outer loop
      vertex -57.4065 49.8701 -6.35
      vertex -57.5048 49.6367 -6.35
      vertex -57.4065 49.8701 6.35
    endloop
  endfacet
  facet normal -0.980214 0.197939 0
    outer loop
      vertex -57.6296 49.1466 -6.35
      vertex -57.5795 49.3947 6.35
      vertex -57.5795 49.3947 -6.35
    endloop
  endfacet
  facet normal 0 0 1
    outer loop
      vertex -57.5795 49.3947 6.35
      vertex -57.6296 49.1466 6.35
      vertex -57.6549 48.8946 6.35
    endloop
  endfacet
  facet normal -0.82611 0.563508 0
    outer loop
      vertex -57.2854 50.0924 -6.35
      vertex -57.1427 50.3016 6.35
      vertex -57.1427 50.3016 -6.35
    endloop
  endfacet
  facet normal 0 0 -1
    outer loop
      vertex -57.4065 49.8701 -6.35
      vertex -57.2854 50.0924 -6.35
      vertex -57.1427 50.3016 -6.35
    endloop
  endfacet
  facet normal -0.878152 0.478382 0
    outer loop
      vertex -57.4065 49.8701 6.35
      vertex -57.2854 50.0924 6.35
      vertex -57.2854 50.0924 -6.35
    endloop
  endfacet
  facet normal 0 0 1
    outer loop
      vertex -56.7987 50.6724 6.35
      vertex -57.1427 50.3016 6.35
      vertex -57.4065 49.8701 6.35
    endloop
  endfacet
  facet normal -0.698166 0.715936 0
    outer loop
      vertex -56.98 50.4956 -6.35
      vertex -56.98 50.4956 6.35
      vertex -56.7987 50.6724 6.35
    endloop
  endfacet
  facet normal -0.698166 0.715936 0
    outer loop
      vertex -56.7987 50.6724 -6.35
      vertex -56.98 50.4956 -6.35
      vertex -56.7987 50.6724 6.35
    endloop
  endfacet
  facet normal 0 0 -1
    outer loop
      vertex 57.6076 -49.2713 -6.35
      vertex 57.5451 -49.5167 -6.35
      vertex 57.4585 -49.7546 -6.35
    endloop
  endfacet
  facet normal 0 0 -1
    outer loop
      vertex 57.4585 -49.7546 -6.35
      vertex 57.2166 -50.1988 -6.35
      vertex 56.8915 -50.5863 -6.35
    endloop
  endfacet
  facet normal 0.411153 -0.911566 0
    outer loop
      vertex 56.046 -51.1324 -6.35
      vertex 56.2768 -51.0283 6.35
      vertex 56.046 -51.1324 1.26998
    endloop
  endfacet
  facet normal 0 0 1
    outer loop
      vertex 56.2768 -51.0283 6.35
      vertex 56.7017 -50.7539 6.35
      vertex 57.0638 -50.4007 6.35
    endloop
  endfacet
  facet normal 0.222321 -0.974974 0
    outer loop
      vertex 55.559 -51.2694 1.26998
      vertex 55.559 -51.2694 -6.35
      vertex 55.8059 -51.2131 1.26998
    endloop
  endfacet
  facet normal 0.222321 -0.974974 0
    outer loop
      vertex 55.8059 -51.2131 1.26998
      vertex 55.8059 -51.2131 6.35
      vertex 55.559 -51.2694 1.26998
    endloop
  endfacet
  facet normal 0.318596 -0.947891 0
    outer loop
      vertex 56.046 -51.1324 1.26998
      vertex 55.8059 -51.2131 6.35
      vertex 55.8059 -51.2131 1.26998
    endloop
  endfacet
  facet normal 0.124424 -0.992229 0
    outer loop
      vertex 55.559 -51.2694 1.26998
      vertex 55.3078 -51.3009 6.35
      vertex 55.3078 -51.3009 1.26998
    endloop
  endfacet
  facet normal 0.124424 -0.992229 0
    outer loop
      vertex 55.3078 -51.3009 1.26998
      vertex 55.559 -51.2694 -6.35
      vertex 55.559 -51.2694 1.26998
    endloop
  endfacet
  facet normal 0 0 -1
    outer loop
      vertex 55.559 -51.2694 -6.35
      vertex 55.3078 -51.3009 -6.35
      vertex 55.0547 -51.3072 -6.35
    endloop
  endfacet
  facet normal 0 0 1
    outer loop
      vertex 57.6076 49.2713 6.35
      vertex 57.5451 49.5167 6.35
      vertex 57.3487 49.9828 6.35
    endloop
  endfacet
  facet normal 0.969065 0.246807 -0
    outer loop
      vertex 57.5451 49.5167 1.26998
      vertex 57.5451 49.5167 6.35
      vertex 57.6076 49.2713 6.35
    endloop
  endfacet
  facet normal 0 0 -1
    outer loop
      vertex 56.2768 51.0283 -6.35
      vertex 56.4961 50.9017 -6.35
      vertex 56.7017 50.7538 -6.35
    endloop
  endfacet
  facet normal 0.499962 0.866047 0
    outer loop
      vertex 56.4961 50.9017 -1.27
      vertex 56.4961 50.9017 -6.35
      vertex 56.2768 51.0283 -6.35
    endloop
  endfacet
  facet normal 0.998761 0.0497603 0
    outer loop
      vertex 57.658 48.768 -6.35
      vertex 57.6454 49.0209 -6.35
      vertex 57.6454 49.0209 6.35
    endloop
  endfacet
  facet normal 0 0 -1
    outer loop
      vertex 57.6076 49.2713 -6.35
      vertex 57.6454 49.0209 -6.35
      vertex 57.658 48.768 -6.35
    endloop
  endfacet
  facet normal -0.542613 0.839983 0
    outer loop
      vertex -56.6007 50.8303 1.26998
      vertex -56.6007 50.8303 6.35
      vertex -56.388 50.9677 6.35
    endloop
  endfacet
  facet normal -0.62349 0.781831 0
    outer loop
      vertex -56.7987 50.6724 6.35
      vertex -56.6007 50.8303 6.35
      vertex -56.6007 50.8303 1.26998
    endloop
  endfacet
  facet normal -0.456196 0.889879 0
    outer loop
      vertex -56.1627 51.0832 6.35
      vertex -56.1627 51.0832 -6.35
      vertex -56.388 50.9677 -6.35
    endloop
  endfacet
  facet normal 0 0 -1
    outer loop
      vertex -56.7987 50.6724 -6.35
      vertex -56.388 50.9677 -6.35
      vertex -55.927 51.1757 -6.35
    endloop
  endfacet
  facet normal -0.17374 0.984792 0
    outer loop
      vertex -55.4338 51.2883 6.35
      vertex -55.4338 51.2883 -6.35
      vertex -55.6832 51.2443 -6.35
    endloop
  endfacet
  facet normal -0.0746427 0.99721 0
    outer loop
      vertex -55.1813 51.3072 -6.35
      vertex -55.4338 51.2883 -6.35
      vertex -55.4338 51.2883 6.35
    endloop
  endfacet
  facet normal -0.27086 -0.962619 0
    outer loop
      vertex -55.927 -51.1757 -6.35
      vertex -55.6832 -51.2443 -6.35
      vertex -55.6832 -51.2443 1.26998
    endloop
  endfacet
  facet normal 0 0 -1
    outer loop
      vertex -55.4338 -51.2883 -6.35
      vertex -55.6832 -51.2443 -6.35
      vertex -55.927 -51.1757 -6.35
    endloop
  endfacet
  facet normal 0 0 -1
    outer loop
      vertex -55.927 -51.1757 -6.35
      vertex -56.1627 -51.0832 -6.35
      vertex -56.388 -50.9677 -6.35
    endloop
  endfacet
  facet normal -0.456196 -0.889879 -0
    outer loop
      vertex -56.388 -50.9677 1.26998
      vertex -56.388 -50.9677 -6.35
      vertex -56.1627 -51.0832 1.26998
    endloop
  endfacet
  facet normal -0.994998 -0.0998946 0
    outer loop
      vertex -57.6296 -49.1466 -6.35
      vertex -57.6296 -49.1466 6.35
      vertex -57.6549 -48.8946 6.35
    endloop
  endfacet
  facet normal -0.994998 -0.0998946 0
    outer loop
      vertex -57.6549 -48.8946 1.26998
      vertex -57.6296 -49.1466 -6.35
      vertex -57.6549 -48.8946 6.35
    endloop
  endfacet
  facet normal -0.826236 -0.563325 -0
    outer loop
      vertex -57.2854 -50.0924 -1.27
      vertex -57.2854 -50.0924 -6.35
      vertex -57.1427 -50.3017 1.26998
    endloop
  endfacet
  facet normal 0 0 -1
    outer loop
      vertex -57.2854 -50.0924 -6.35
      vertex -57.4065 -49.8701 -6.35
      vertex -57.5048 -49.6367 -6.35
    endloop
  endfacet
  facet normal -0.878152 -0.478382 0
    outer loop
      vertex -57.2854 -50.0924 -1.27
      vertex -57.2854 -50.0924 6.35
      vertex -57.4065 -49.8701 -1.27
    endloop
  endfacet
  facet normal -0.921598 -0.388145 0
    outer loop
      vertex -57.5048 -49.6367 -6.35
      vertex -57.4065 -49.8701 -1.27
      vertex -57.5048 -49.6367 6.35
    endloop
  endfacet
  facet normal 0 0 -1
    outer loop
      vertex -56.7987 -50.6725 -6.35
      vertex -57.2854 -50.0924 -6.35
      vertex -57.5048 -49.6367 -6.35
    endloop
  endfacet
  facet normal -0.826236 -0.563325 0
    outer loop
      vertex -57.2854 -50.0924 -6.35
      vertex -57.1427 -50.3017 -6.35
      vertex -57.1427 -50.3017 1.26998
    endloop
  endfacet
  facet normal -0.623249 -0.782023 0
    outer loop
      vertex -56.6007 -50.8303 6.35
      vertex -56.7987 -50.6725 6.35
      vertex -56.7987 -50.6725 -6.35
    endloop
  endfacet
  facet normal 0 0 1
    outer loop
      vertex -56.98 -50.4956 6.35
      vertex -56.7987 -50.6725 6.35
      vertex -56.6007 -50.8303 6.35
    endloop
  endfacet
  facet normal -0.456196 -0.889879 0
    outer loop
      vertex -56.1627 -51.0832 1.26998
      vertex -56.1627 -51.0832 6.35
      vertex -56.388 -50.9677 6.35
    endloop
  endfacet
  facet normal -0.365322 -0.930881 0
    outer loop
      vertex -55.927 -51.1757 6.35
      vertex -56.1627 -51.0832 6.35
      vertex -56.1627 -51.0832 1.26998
    endloop
  endfacet
  facet normal -0.27086 -0.962619 0
    outer loop
      vertex -55.6832 -51.2443 1.26998
      vertex -55.6832 -51.2443 6.35
      vertex -55.927 -51.1757 6.35
    endloop
  endfacet
  facet normal -0.17374 -0.984792 0
    outer loop
      vertex -55.4338 -51.2883 6.35
      vertex -55.6832 -51.2443 6.35
      vertex -55.6832 -51.2443 1.26998
    endloop
  endfacet
  facet normal 0 0 1
    outer loop
      vertex -57.4065 49.8701 6.35
      vertex -57.5048 49.6367 6.35
      vertex -57.5795 49.3947 6.35
    endloop
  endfacet
  facet normal -0.921598 0.388145 0
    outer loop
      vertex -57.5048 49.6367 -6.35
      vertex -57.5048 49.6367 6.35
      vertex -57.4065 49.8701 6.35
    endloop
  endfacet
  facet normal -0.980214 0.197939 0
    outer loop
      vertex -57.6296 49.1466 -6.35
      vertex -57.6296 49.1466 6.35
      vertex -57.5795 49.3947 6.35
    endloop
  endfacet
  facet normal -0.994998 0.0998946 0
    outer loop
      vertex -57.6549 48.8946 6.35
      vertex -57.6296 49.1466 6.35
      vertex -57.6296 49.1466 -6.35
    endloop
  endfacet
  facet normal 0 0 1
    outer loop
      vertex -57.1427 50.3016 6.35
      vertex -57.2854 50.0924 6.35
      vertex -57.4065 49.8701 6.35
    endloop
  endfacet
  facet normal -0.82611 0.563508 0
    outer loop
      vertex -57.2854 50.0924 -6.35
      vertex -57.2854 50.0924 6.35
      vertex -57.1427 50.3016 6.35
    endloop
  endfacet
  facet normal -0.76621 0.64259 0
    outer loop
      vertex -57.1427 50.3016 6.35
      vertex -56.98 50.4956 6.35
      vertex -56.98 50.4956 -6.35
    endloop
  endfacet
  facet normal 0 0 1
    outer loop
      vertex -56.7987 50.6724 6.35
      vertex -56.98 50.4956 6.35
      vertex -57.1427 50.3016 6.35
    endloop
  endfacet
  facet normal 0 0 -1
    outer loop
      vertex 57.658 -48.768 -6.35
      vertex 57.6076 -49.2713 -6.35
      vertex 57.4585 -49.7546 -6.35
    endloop
  endfacet
  facet normal 0 0 1
    outer loop
      vertex 57.6076 -49.2713 6.35
      vertex 57.6454 -49.0209 6.35
      vertex 57.658 -48.768 6.35
    endloop
  endfacet
  facet normal 0 0 1
    outer loop
      vertex 57.0638 -50.4007 6.35
      vertex 57.4585 -49.7546 6.35
      vertex 57.6076 -49.2713 6.35
    endloop
  endfacet
  facet normal 0 0 -1
    outer loop
      vertex 57.2166 -50.1988 -6.35
      vertex 57.0638 -50.4007 -6.35
      vertex 56.8915 -50.5863 -6.35
    endloop
  endfacet
  facet normal 0.661909 -0.749584 0
    outer loop
      vertex 56.7017 -50.7539 6.35
      vertex 56.7017 -50.7539 -6.35
      vertex 56.8915 -50.5863 -6.35
    endloop
  endfacet
  facet normal 0.499962 -0.866047 0
    outer loop
      vertex 56.4961 -50.9017 -6.35
      vertex 56.4961 -50.9017 6.35
      vertex 56.2768 -51.0283 6.35
    endloop
  endfacet
  facet normal 0.411153 -0.911566 0
    outer loop
      vertex 56.2768 -51.0283 6.35
      vertex 56.046 -51.1324 6.35
      vertex 56.046 -51.1324 1.26998
    endloop
  endfacet
  facet normal 0 0 1
    outer loop
      vertex 55.0547 -51.3072 6.35
      vertex 55.8059 -51.2131 6.35
      vertex 56.2768 -51.0283 6.35
    endloop
  endfacet
  facet normal 0 0 -1
    outer loop
      vertex 56.046 -51.1324 -6.35
      vertex 55.8059 -51.2131 -6.35
      vertex 55.559 -51.2694 -6.35
    endloop
  endfacet
  facet normal 0.318596 -0.947891 0
    outer loop
      vertex 55.8059 -51.2131 1.26998
      vertex 55.8059 -51.2131 -6.35
      vertex 56.046 -51.1324 -6.35
    endloop
  endfacet
  facet normal 0.124424 -0.992229 0
    outer loop
      vertex 55.3078 -51.3009 1.26998
      vertex 55.3078 -51.3009 -6.35
      vertex 55.559 -51.2694 -6.35
    endloop
  endfacet
  facet normal 0.0248836 -0.99969 0
    outer loop
      vertex 55.0547 -51.3072 -6.35
      vertex 55.3078 -51.3009 -6.35
      vertex 55.3078 -51.3009 1.26998
    endloop
  endfacet
  facet normal 0.939678 0.34206 0
    outer loop
      vertex 57.4585 49.7546 1.26998
      vertex 57.5451 49.5167 6.35
      vertex 57.5451 49.5167 1.26998
    endloop
  endfacet
  facet normal 0 0 1
    outer loop
      vertex 57.5451 49.5167 6.35
      vertex 57.4585 49.7546 6.35
      vertex 57.3487 49.9828 6.35
    endloop
  endfacet
  facet normal -0.542613 0.839983 0
    outer loop
      vertex -56.388 50.9677 -6.35
      vertex -56.6007 50.8303 -6.35
      vertex -56.6007 50.8303 1.26998
    endloop
  endfacet
  facet normal 0 0 -1
    outer loop
      vertex -56.7987 50.6724 -6.35
      vertex -56.6007 50.8303 -6.35
      vertex -56.388 50.9677 -6.35
    endloop
  endfacet
  facet normal -0.365322 0.930881 0
    outer loop
      vertex -55.927 51.1757 -6.35
      vertex -56.1627 51.0832 -6.35
      vertex -56.1627 51.0832 6.35
    endloop
  endfacet
  facet normal 0 0 -1
    outer loop
      vertex -56.388 50.9677 -6.35
      vertex -56.1627 51.0832 -6.35
      vertex -55.927 51.1757 -6.35
    endloop
  endfacet
  facet normal -0.365322 -0.930881 -0
    outer loop
      vertex -56.1627 -51.0832 1.26998
      vertex -56.1627 -51.0832 -6.35
      vertex -55.927 -51.1757 -6.35
    endloop
  endfacet
  facet normal -0.456196 -0.889879 0
    outer loop
      vertex -56.388 -50.9677 -6.35
      vertex -56.1627 -51.0832 -6.35
      vertex -56.1627 -51.0832 1.26998
    endloop
  endfacet
  facet normal -0.98023 -0.197863 0
    outer loop
      vertex -57.5795 -49.3948 6.35
      vertex -57.6296 -49.1466 6.35
      vertex -57.6296 -49.1466 -6.35
    endloop
  endfacet
  facet normal 0 0 1
    outer loop
      vertex -57.6549 -48.8946 6.35
      vertex -57.6296 -49.1466 6.35
      vertex -57.5795 -49.3948 6.35
    endloop
  endfacet
  facet normal -0.826236 -0.563325 0
    outer loop
      vertex -57.1427 -50.3017 1.26998
      vertex -57.2854 -50.0924 6.35
      vertex -57.2854 -50.0924 -1.27
    endloop
  endfacet
  facet normal 0 0 1
    outer loop
      vertex -57.2854 -50.0924 6.35
      vertex -57.1427 -50.3017 6.35
      vertex -56.98 -50.4956 6.35
    endloop
  endfacet
  facet normal 0 0 -1
    outer loop
      vertex -56.7987 -50.6725 -6.35
      vertex -56.98 -50.4956 -6.35
      vertex -57.2854 -50.0924 -6.35
    endloop
  endfacet
  facet normal -0.698368 -0.715739 -0
    outer loop
      vertex -56.98 -50.4956 1.26998
      vertex -56.98 -50.4956 -6.35
      vertex -56.7987 -50.6725 -6.35
    endloop
  endfacet
  facet normal -0.878152 -0.478382 -0
    outer loop
      vertex -57.4065 -49.8701 -1.27
      vertex -57.4065 -49.8701 -6.35
      vertex -57.2854 -50.0924 -6.35
    endloop
  endfacet
  facet normal -0.921598 -0.388145 0
    outer loop
      vertex -57.5048 -49.6367 -6.35
      vertex -57.4065 -49.8701 -6.35
      vertex -57.4065 -49.8701 -1.27
    endloop
  endfacet
  facet normal 0.901116 -0.433578 0
    outer loop
      vertex 57.4585 -49.7546 6.35
      vertex 57.3487 -49.9828 6.35
      vertex 57.4585 -49.7546 -6.35
    endloop
  endfacet
  facet normal 0 0 1
    outer loop
      vertex 57.0638 -50.4007 6.35
      vertex 57.3487 -49.9828 6.35
      vertex 57.4585 -49.7546 6.35
    endloop
  endfacet
  facet normal 0.988797 -0.149267 0
    outer loop
      vertex 57.6076 -49.2713 -6.35
      vertex 57.6454 -49.0209 6.35
      vertex 57.6076 -49.2713 6.35
    endloop
  endfacet
  facet normal 0.969065 -0.246807 0
    outer loop
      vertex 57.6076 -49.2713 6.35
      vertex 57.5451 -49.5167 6.35
      vertex 57.6076 -49.2713 -6.35
    endloop
  endfacet
  facet normal 0 0 -1
    outer loop
      vertex 57.658 -48.768 -6.35
      vertex 57.6454 -49.0209 -6.35
      vertex 57.6076 -49.2713 -6.35
    endloop
  endfacet
  facet normal 0.998761 -0.0497603 0
    outer loop
      vertex 57.658 -48.768 6.35
      vertex 57.6454 -49.0209 6.35
      vertex 57.658 -48.768 -6.35
    endloop
  endfacet
  facet normal 0.797386 -0.60347 0
    outer loop
      vertex 57.0638 -50.4007 6.35
      vertex 57.0638 -50.4007 -6.35
      vertex 57.2166 -50.1988 -6.35
    endloop
  endfacet
  facet normal 0.732878 -0.68036 0
    outer loop
      vertex 56.8915 -50.5863 -6.35
      vertex 57.0638 -50.4007 -6.35
      vertex 57.0638 -50.4007 6.35
    endloop
  endfacet
  facet normal 0 0 1
    outer loop
      vertex 56.7017 -50.7539 6.35
      vertex 56.8915 -50.5863 6.35
      vertex 57.0638 -50.4007 6.35
    endloop
  endfacet
  facet normal 0.661909 -0.749584 0
    outer loop
      vertex 56.8915 -50.5863 -6.35
      vertex 56.8915 -50.5863 6.35
      vertex 56.7017 -50.7539 6.35
    endloop
  endfacet
  facet normal 0.411153 -0.911566 0
    outer loop
      vertex 56.046 -51.1324 -6.35
      vertex 56.2768 -51.0283 -6.35
      vertex 56.2768 -51.0283 6.35
    endloop
  endfacet
  facet normal 0 0 -1
    outer loop
      vertex 56.8915 -50.5863 -6.35
      vertex 56.4961 -50.9017 -6.35
      vertex 56.046 -51.1324 -6.35
    endloop
  endfacet
  facet normal 0 0 1
    outer loop
      vertex 55.3078 -51.3009 6.35
      vertex 55.559 -51.2694 6.35
      vertex 55.8059 -51.2131 6.35
    endloop
  endfacet
  facet normal 0 0 1
    outer loop
      vertex 55.0547 -51.3072 6.35
      vertex 55.3078 -51.3009 6.35
      vertex 55.8059 -51.2131 6.35
    endloop
  endfacet
  facet normal 0 0 1
    outer loop
      vertex 55.8059 -51.2131 6.35
      vertex 56.046 -51.1324 6.35
      vertex 56.2768 -51.0283 6.35
    endloop
  endfacet
  facet normal 0.318596 -0.947891 0
    outer loop
      vertex 56.046 -51.1324 1.26998
      vertex 56.046 -51.1324 6.35
      vertex 55.8059 -51.2131 6.35
    endloop
  endfacet
  facet normal 0.939678 0.34206 -0
    outer loop
      vertex 57.4585 49.7546 1.26998
      vertex 57.4585 49.7546 6.35
      vertex 57.5451 49.5167 6.35
    endloop
  endfacet
  facet normal 0.901116 0.433578 0
    outer loop
      vertex 57.3487 49.9828 6.35
      vertex 57.4585 49.7546 6.35
      vertex 57.4585 49.7546 1.26998
    endloop
  endfacet
  facet normal 0 0 1
    outer loop
      vertex -57.5048 -49.6367 6.35
      vertex -57.4065 -49.8701 6.35
      vertex -57.2854 -50.0924 6.35
    endloop
  endfacet
  facet normal -0.921598 -0.388145 0
    outer loop
      vertex -57.4065 -49.8701 -1.27
      vertex -57.4065 -49.8701 6.35
      vertex -57.5048 -49.6367 6.35
    endloop
  endfacet
  facet normal -0.826236 -0.563325 0
    outer loop
      vertex -57.1427 -50.3017 1.26998
      vertex -57.1427 -50.3017 6.35
      vertex -57.2854 -50.0924 6.35
    endloop
  endfacet
  facet normal -0.766047 -0.642784 0
    outer loop
      vertex -56.98 -50.4956 6.35
      vertex -57.1427 -50.3017 6.35
      vertex -57.1427 -50.3017 1.26998
    endloop
  endfacet
  facet normal 0 0 -1
    outer loop
      vertex -56.98 -50.4956 -6.35
      vertex -57.1427 -50.3017 -6.35
      vertex -57.2854 -50.0924 -6.35
    endloop
  endfacet
  facet normal -0.766047 -0.642784 -0
    outer loop
      vertex -57.1427 -50.3017 1.26998
      vertex -57.1427 -50.3017 -6.35
      vertex -56.98 -50.4956 -6.35
    endloop
  endfacet
  facet normal 0 0 1
    outer loop
      vertex 57.4585 -49.7546 6.35
      vertex 57.5451 -49.5167 6.35
      vertex 57.6076 -49.2713 6.35
    endloop
  endfacet
  facet normal 0.939678 -0.34206 0
    outer loop
      vertex 57.4585 -49.7546 -6.35
      vertex 57.5451 -49.5167 6.35
      vertex 57.4585 -49.7546 6.35
    endloop
  endfacet
  facet normal 0.853106 -0.521738 0
    outer loop
      vertex 57.3487 -49.9828 6.35
      vertex 57.2166 -50.1988 6.35
      vertex 57.2166 -50.1988 -6.35
    endloop
  endfacet
  facet normal 0.901116 -0.433578 0
    outer loop
      vertex 57.3487 -49.9828 6.35
      vertex 57.3487 -49.9828 -6.35
      vertex 57.4585 -49.7546 -6.35
    endloop
  endfacet
  facet normal 0.998761 -0.0497603 0
    outer loop
      vertex 57.6454 -49.0209 6.35
      vertex 57.6454 -49.0209 -6.35
      vertex 57.658 -48.768 -6.35
    endloop
  endfacet
  facet normal 0.988797 -0.149267 0
    outer loop
      vertex 57.6076 -49.2713 -6.35
      vertex 57.6454 -49.0209 -6.35
      vertex 57.6454 -49.0209 6.35
    endloop
  endfacet
  facet normal 0.583701 -0.811969 0
    outer loop
      vertex 56.4961 -50.9017 -6.35
      vertex 56.7017 -50.7539 -6.35
      vertex 56.7017 -50.7539 6.35
    endloop
  endfacet
  facet normal 0 0 -1
    outer loop
      vertex 56.8915 -50.5863 -6.35
      vertex 56.7017 -50.7539 -6.35
      vertex 56.4961 -50.9017 -6.35
    endloop
  endfacet
  facet normal 0.583701 -0.811969 0
    outer loop
      vertex 56.7017 -50.7539 6.35
      vertex 56.4961 -50.9017 6.35
      vertex 56.4961 -50.9017 -6.35
    endloop
  endfacet
  facet normal 0 0 1
    outer loop
      vertex 56.2768 -51.0283 6.35
      vertex 56.4961 -50.9017 6.35
      vertex 56.7017 -50.7539 6.35
    endloop
  endfacet
  facet normal 0 0 -1
    outer loop
      vertex 56.4961 -50.9017 -6.35
      vertex 56.2768 -51.0283 -6.35
      vertex 56.046 -51.1324 -6.35
    endloop
  endfacet
  facet normal 0.499962 -0.866047 0
    outer loop
      vertex 56.2768 -51.0283 6.35
      vertex 56.2768 -51.0283 -6.35
      vertex 56.4961 -50.9017 -6.35
    endloop
  endfacet
  facet normal 0.124424 -0.992229 0
    outer loop
      vertex 55.559 -51.2694 1.26998
      vertex 55.559 -51.2694 6.35
      vertex 55.3078 -51.3009 6.35
    endloop
  endfacet
  facet normal 0.222321 -0.974974 0
    outer loop
      vertex 55.8059 -51.2131 6.35
      vertex 55.559 -51.2694 6.35
      vertex 55.559 -51.2694 1.26998
    endloop
  endfacet
  facet normal 0.969065 -0.246807 0
    outer loop
      vertex 57.5451 -49.5167 6.35
      vertex 57.5451 -49.5167 -6.35
      vertex 57.6076 -49.2713 -6.35
    endloop
  endfacet
  facet normal 0.939678 -0.34206 0
    outer loop
      vertex 57.4585 -49.7546 -6.35
      vertex 57.5451 -49.5167 -6.35
      vertex 57.5451 -49.5167 6.35
    endloop
  endfacet
  facet normal 0 0 1
    outer loop
      vertex 57.0638 -50.4007 6.35
      vertex 57.2166 -50.1988 6.35
      vertex 57.3487 -49.9828 6.35
    endloop
  endfacet
  facet normal 0.797386 -0.60347 0
    outer loop
      vertex 57.2166 -50.1988 -6.35
      vertex 57.2166 -50.1988 6.35
      vertex 57.0638 -50.4007 6.35
    endloop
  endfacet
  facet normal 0.853106 -0.521738 0
    outer loop
      vertex 57.2166 -50.1988 -6.35
      vertex 57.3487 -49.9828 -6.35
      vertex 57.3487 -49.9828 6.35
    endloop
  endfacet
  facet normal 0 0 -1
    outer loop
      vertex 57.4585 -49.7546 -6.35
      vertex 57.3487 -49.9828 -6.35
      vertex 57.2166 -50.1988 -6.35
    endloop
  endfacet
endsolid OpenSCAD_Model
