solid OpenSCAD_Model
  facet normal 0 0 -1
    outer loop
      vertex -50.2507 38.1303 -6.35
      vertex 49.209 38.5694 -6.35
      vertex 50.3517 38.0538 -6.35
    endloop
  endfacet
  facet normal 0 0 -1
    outer loop
      vertex -49.0838 -38.5883 -6.35
      vertex -49.8127 -38.3832 -6.35
      vertex -50.2507 -38.1303 -6.35
    endloop
  endfacet
  facet normal 0.969065 0.246807 0
    outer loop
      vertex 51.1951 36.8167 1.26998
      vertex 51.2576 36.5713 6.35
      vertex 51.2576 36.5713 1.26998
    endloop
  endfacet
  facet normal 0 0 1
    outer loop
      vertex 46.906 37.7956 6.35
      vertex -49.0838 -38.5883 6.35
      vertex 50.9987 37.2828 6.35
    endloop
  endfacet
  facet normal 0 0 -1
    outer loop
      vertex -49.0838 -38.5883 -6.35
      vertex -50.2507 38.1303 -6.35
      vertex 50.3517 -38.0539 -6.35
    endloop
  endfacet
  facet normal 0 0 1
    outer loop
      vertex 50.9987 37.2828 6.35
      vertex 49.209 38.5694 6.35
      vertex 46.906 37.7956 6.35
    endloop
  endfacet
  facet normal 0 0 1
    outer loop
      vertex 47.959 38.4757 6.35
      vertex -50.2507 38.1303 6.35
      vertex 46.906 37.7956 6.35
    endloop
  endfacet
  facet normal 0.124424 -0.992229 0
    outer loop
      vertex 48.9578 -38.6009 1.26998
      vertex 49.209 -38.5694 -6.35
      vertex 49.209 -38.5694 1.26998
    endloop
  endfacet
  facet normal 0 0 1
    outer loop
      vertex 49.209 38.5694 6.35
      vertex 47.959 38.4757 6.35
      vertex 46.906 37.7956 6.35
    endloop
  endfacet
  facet normal 0.411153 0.911566 0
    outer loop
      vertex 49.9268 38.3283 -1.27
      vertex 49.9268 38.3283 -6.35
      vertex 49.696 38.4324 -6.35
    endloop
  endfacet
  facet normal 0 0 1
    outer loop
      vertex -49.0838 -38.5883 6.35
      vertex 50.3517 -38.0539 6.35
      vertex 50.9987 37.2828 6.35
    endloop
  endfacet
  facet normal 0.318596 -0.947891 0
    outer loop
      vertex 49.696 -38.4324 6.35
      vertex 49.4559 -38.5131 1.26998
      vertex 49.696 -38.4324 1.26998
    endloop
  endfacet
  facet normal 0.222696 0.974888 0
    outer loop
      vertex 49.209 38.5694 6.35
      vertex 49.4559 38.513 6.35
      vertex 49.4559 38.513 1.26998
    endloop
  endfacet
  facet normal 0 0 1
    outer loop
      vertex 50.9987 37.2828 6.35
      vertex 50.3517 38.0538 6.35
      vertex 49.209 38.5694 6.35
    endloop
  endfacet
  facet normal 0 0 1
    outer loop
      vertex 50.3517 -38.0539 6.35
      vertex 51.308 -36.068 6.35
      vertex 50.9987 37.2828 6.35
    endloop
  endfacet
  facet normal 0 0 -1
    outer loop
      vertex -50.2507 38.1303 -6.35
      vertex 50.3517 38.0538 -6.35
      vertex 50.3517 -38.0539 -6.35
    endloop
  endfacet
  facet normal 0 0 1
    outer loop
      vertex 50.3517 38.0538 6.35
      vertex 49.9268 38.3283 6.35
      vertex 49.209 38.5694 6.35
    endloop
  endfacet
  facet normal 0.901116 0.433578 0
    outer loop
      vertex 51.1085 37.0546 -6.35
      vertex 50.9987 37.2828 -6.35
      vertex 50.9987 37.2828 6.35
    endloop
  endfacet
  facet normal 0.124424 0.992229 -0
    outer loop
      vertex 48.9578 38.6009 1.26998
      vertex 48.9578 38.6009 6.35
      vertex 49.209 38.5694 6.35
    endloop
  endfacet
  facet normal 0 0 1
    outer loop
      vertex 49.209 38.5694 6.35
      vertex -50.2507 38.1303 6.35
      vertex 47.959 38.4757 6.35
    endloop
  endfacet
  facet normal 0 0 1
    outer loop
      vertex -48.8313 38.6072 6.35
      vertex -49.577 38.4757 6.35
      vertex -50.2507 38.1303 6.35
    endloop
  endfacet
  facet normal 0 1 0
    outer loop
      vertex 48.7047 38.6072 1.26998
      vertex -48.8313 38.6072 -6.35
      vertex -48.8313 38.6072 6.35
    endloop
  endfacet
  facet normal 0 0 1
    outer loop
      vertex -50.2507 38.1303 6.35
      vertex -51.3049 -36.1946 6.35
      vertex -49.0838 -38.5883 6.35
    endloop
  endfacet
  facet normal 0 0 1
    outer loop
      vertex 46.906 37.7956 6.35
      vertex -50.2507 38.1303 6.35
      vertex -49.0838 -38.5883 6.35
    endloop
  endfacet
  facet normal -0.98023 -0.197863 -0
    outer loop
      vertex -51.2295 -36.6948 6.35
      vertex -51.2796 -36.4466 -6.35
      vertex -51.2295 -36.6948 -6.35
    endloop
  endfacet
  facet normal -1 0 0
    outer loop
      vertex -51.3049 -36.1946 6.35
      vertex -51.3049 36.1946 -6.35
      vertex -51.3049 -36.1946 1.26998
    endloop
  endfacet
  facet normal 0 0 -1
    outer loop
      vertex 50.3517 -38.0539 -6.35
      vertex 48.7047 -38.6072 -6.35
      vertex -49.0838 -38.5883 -6.35
    endloop
  endfacet
  facet normal -0.0746427 -0.99721 0
    outer loop
      vertex -48.8313 -38.6072 1.26998
      vertex -48.8313 -38.6072 6.35
      vertex -49.0838 -38.5883 6.35
    endloop
  endfacet
  facet normal 0.583961 0.811781 -0
    outer loop
      vertex 50.3517 38.0538 -6.35
      vertex 50.1461 38.2017 6.35
      vertex 50.3517 38.0538 6.35
    endloop
  endfacet
  facet normal 0.318241 0.94801 0
    outer loop
      vertex 49.696 38.4324 6.35
      vertex 49.696 38.4324 -6.35
      vertex 49.4559 38.513 1.26998
    endloop
  endfacet
  facet normal 0 0 -1
    outer loop
      vertex 50.3517 38.0538 -6.35
      vertex 51.1085 37.0546 -6.35
      vertex 50.3517 -38.0539 -6.35
    endloop
  endfacet
  facet normal 0 0 -1
    outer loop
      vertex 50.3517 38.0538 -6.35
      vertex 50.8666 37.4988 -6.35
      vertex 51.1085 37.0546 -6.35
    endloop
  endfacet
  facet normal 0 0 1
    outer loop
      vertex 50.7138 37.7007 6.35
      vertex 50.5415 37.8863 6.35
      vertex 50.3517 38.0538 6.35
    endloop
  endfacet
  facet normal 0 0 1
    outer loop
      vertex 50.9987 37.2828 6.35
      vertex 50.7138 37.7007 6.35
      vertex 50.3517 38.0538 6.35
    endloop
  endfacet
  facet normal 0.124424 0.992229 -0
    outer loop
      vertex 49.209 38.5694 -6.35
      vertex 48.9578 38.6009 1.26998
      vertex 49.209 38.5694 6.35
    endloop
  endfacet
  facet normal 0.222696 0.974888 0
    outer loop
      vertex 49.4559 38.513 1.26998
      vertex 49.209 38.5694 -6.35
      vertex 49.209 38.5694 6.35
    endloop
  endfacet
  facet normal -0.542613 0.839983 0
    outer loop
      vertex -50.2507 38.1303 6.35
      vertex -50.038 38.2677 6.35
      vertex -50.2507 38.1303 -6.35
    endloop
  endfacet
  facet normal 0 0 1
    outer loop
      vertex 49.209 38.5694 6.35
      vertex -48.8313 38.6072 6.35
      vertex -50.2507 38.1303 6.35
    endloop
  endfacet
  facet normal 0 0 -1
    outer loop
      vertex -51.3049 36.1946 -6.35
      vertex -51.2295 36.6947 -6.35
      vertex -51.1548 36.9367 -6.35
    endloop
  endfacet
  facet normal -0.17374 -0.984792 0
    outer loop
      vertex -49.0838 -38.5883 6.35
      vertex -49.3332 -38.5443 6.35
      vertex -49.3332 -38.5443 1.26998
    endloop
  endfacet
  facet normal -0.95548 -0.295057 0
    outer loop
      vertex -51.1548 -36.9367 -6.35
      vertex -51.1548 -36.9367 6.35
      vertex -51.2295 -36.6948 -6.35
    endloop
  endfacet
  facet normal 0 0 1
    outer loop
      vertex -51.3049 -36.1946 6.35
      vertex -50.63 -37.7956 6.35
      vertex -49.0838 -38.5883 6.35
    endloop
  endfacet
  facet normal 0 0 -1
    outer loop
      vertex -51.3049 36.1946 -6.35
      vertex -50.9354 37.3924 -6.35
      vertex -50.2507 38.1303 -6.35
    endloop
  endfacet
  facet normal 0 0 -1
    outer loop
      vertex -49.0838 -38.5883 -6.35
      vertex -51.3049 36.1946 -6.35
      vertex -50.2507 38.1303 -6.35
    endloop
  endfacet
  facet normal 0 0 1
    outer loop
      vertex 50.3517 -38.0539 6.35
      vertex 51.1085 -37.0546 6.35
      vertex 51.308 -36.068 6.35
    endloop
  endfacet
  facet normal 0 -0 -1
    outer loop
      vertex 51.1085 37.0546 -6.35
      vertex 51.308 -36.068 -6.35
      vertex 50.3517 -38.0539 -6.35
    endloop
  endfacet
  facet normal 0 -1 0
    outer loop
      vertex 48.7047 -38.6072 1.26998
      vertex 48.7047 -38.6072 6.35
      vertex -48.8313 -38.6072 1.26998
    endloop
  endfacet
  facet normal -0.0746427 -0.99721 0
    outer loop
      vertex -49.0838 -38.5883 -6.35
      vertex -48.8313 -38.6072 1.26998
      vertex -49.0838 -38.5883 6.35
    endloop
  endfacet
  facet normal 0 -1 0
    outer loop
      vertex -48.8313 -38.6072 1.26998
      vertex 48.7047 -38.6072 -6.35
      vertex 48.7047 -38.6072 1.26998
    endloop
  endfacet
  facet normal 0 0 -1
    outer loop
      vertex 48.7047 -38.6072 -6.35
      vertex -48.8313 -38.6072 -6.35
      vertex -49.0838 -38.5883 -6.35
    endloop
  endfacet
  facet normal 0 0 1
    outer loop
      vertex 49.9268 38.3283 6.35
      vertex 49.696 38.4324 6.35
      vertex 49.209 38.5694 6.35
    endloop
  endfacet
  facet normal 0.411153 0.911566 0
    outer loop
      vertex 49.9268 38.3283 6.35
      vertex 49.9268 38.3283 -1.27
      vertex 49.696 38.4324 6.35
    endloop
  endfacet
  facet normal 0.499962 0.866047 0
    outer loop
      vertex 50.1461 38.2017 6.35
      vertex 49.9268 38.3283 -1.27
      vertex 49.9268 38.3283 6.35
    endloop
  endfacet
  facet normal 0 0 1
    outer loop
      vertex 50.3517 38.0538 6.35
      vertex 50.1461 38.2017 6.35
      vertex 49.9268 38.3283 6.35
    endloop
  endfacet
  facet normal 0.499962 0.866047 0
    outer loop
      vertex 50.1461 38.2017 6.35
      vertex 50.1461 38.2017 -6.35
      vertex 49.9268 38.3283 -1.27
    endloop
  endfacet
  facet normal 0.411153 0.911566 0
    outer loop
      vertex 49.9268 38.3283 -1.27
      vertex 49.696 38.4324 -6.35
      vertex 49.696 38.4324 6.35
    endloop
  endfacet
  facet normal 1 0 0
    outer loop
      vertex 51.308 -36.068 -6.35
      vertex 51.308 36.068 -6.35
      vertex 51.308 36.068 1.26998
    endloop
  endfacet
  facet normal 0 -0 1
    outer loop
      vertex 51.308 -36.068 6.35
      vertex 51.308 36.068 6.35
      vertex 50.9987 37.2828 6.35
    endloop
  endfacet
  facet normal 0.998761 0.0497603 0
    outer loop
      vertex 51.308 36.068 1.26998
      vertex 51.308 36.068 -6.35
      vertex 51.2954 36.3209 1.26998
    endloop
  endfacet
  facet normal 0.901116 -0.433578 0
    outer loop
      vertex 51.1085 -37.0546 6.35
      vertex 50.9987 -37.2828 -6.35
      vertex 51.1085 -37.0546 -6.35
    endloop
  endfacet
  facet normal 0 0 -1
    outer loop
      vertex 50.3517 38.0538 -6.35
      vertex 50.5415 37.8863 -6.35
      vertex 50.7138 37.7007 -6.35
    endloop
  endfacet
  facet normal 0.853106 0.521738 -0
    outer loop
      vertex 50.8666 37.4988 -6.35
      vertex 50.8666 37.4988 6.35
      vertex 50.9987 37.2828 6.35
    endloop
  endfacet
  facet normal 0.732878 0.68036 0
    outer loop
      vertex 50.7138 37.7007 6.35
      vertex 50.7138 37.7007 -6.35
      vertex 50.5415 37.8863 6.35
    endloop
  endfacet
  facet normal 0.661687 0.74978 0
    outer loop
      vertex 50.3517 38.0538 6.35
      vertex 50.5415 37.8863 6.35
      vertex 50.3517 38.0538 -6.35
    endloop
  endfacet
  facet normal 0.0248836 0.99969 0
    outer loop
      vertex 48.9578 38.6009 1.26998
      vertex 48.9578 38.6009 -6.35
      vertex 48.7047 38.6072 -6.35
    endloop
  endfacet
  facet normal 0.0248836 0.99969 -0
    outer loop
      vertex 48.7047 38.6072 1.26998
      vertex 48.7047 38.6072 6.35
      vertex 48.9578 38.6009 1.26998
    endloop
  endfacet
  facet normal -0 1 0
    outer loop
      vertex -48.8313 38.6072 6.35
      vertex 48.7047 38.6072 6.35
      vertex 48.7047 38.6072 1.26998
    endloop
  endfacet
  facet normal 0 0 1
    outer loop
      vertex 49.209 38.5694 6.35
      vertex 48.7047 38.6072 6.35
      vertex -48.8313 38.6072 6.35
    endloop
  endfacet
  facet normal 0.0248836 0.99969 0
    outer loop
      vertex 48.9578 38.6009 1.26998
      vertex 48.7047 38.6072 -6.35
      vertex 48.7047 38.6072 1.26998
    endloop
  endfacet
  facet normal 0 0 -1
    outer loop
      vertex -50.2507 38.1303 -6.35
      vertex -48.8313 38.6072 -6.35
      vertex 49.209 38.5694 -6.35
    endloop
  endfacet
  facet normal 0 0 1
    outer loop
      vertex -48.8313 38.6072 6.35
      vertex -49.0838 38.5883 6.35
      vertex -49.3332 38.5443 6.35
    endloop
  endfacet
  facet normal 0 0 1
    outer loop
      vertex -49.577 38.4757 6.35
      vertex -49.8127 38.3832 6.35
      vertex -50.038 38.2677 6.35
    endloop
  endfacet
  facet normal -0.698368 -0.715739 -0
    outer loop
      vertex -50.63 -37.7956 1.26998
      vertex -50.63 -37.7956 -6.35
      vertex -50.4487 -37.9725 -6.35
    endloop
  endfacet
  facet normal 0 0 1
    outer loop
      vertex -50.63 -37.7956 6.35
      vertex -50.038 -38.2677 6.35
      vertex -49.0838 -38.5883 6.35
    endloop
  endfacet
  facet normal 0 0 -1
    outer loop
      vertex -51.1548 -36.9367 -6.35
      vertex -51.2295 -36.6948 -6.35
      vertex -51.3049 36.1946 -6.35
    endloop
  endfacet
  facet normal 0 0 -1
    outer loop
      vertex -49.0838 -38.5883 -6.35
      vertex -51.1548 -36.9367 -6.35
      vertex -51.3049 36.1946 -6.35
    endloop
  endfacet
  facet normal -0.698368 -0.715739 0
    outer loop
      vertex -50.63 -37.7956 1.26998
      vertex -50.4487 -37.9725 -6.35
      vertex -50.63 -37.7956 6.35
    endloop
  endfacet
  facet normal -0.27086 -0.962619 0
    outer loop
      vertex -49.3332 -38.5443 1.26998
      vertex -49.577 -38.4757 6.35
      vertex -49.577 -38.4757 1.26998
    endloop
  endfacet
  facet normal -1 0 0
    outer loop
      vertex -51.3049 -36.1946 6.35
      vertex -51.3049 36.1946 6.35
      vertex -51.3049 36.1946 -6.35
    endloop
  endfacet
  facet normal 0 0 1
    outer loop
      vertex -50.2507 38.1303 6.35
      vertex -51.3049 36.1946 6.35
      vertex -51.3049 -36.1946 6.35
    endloop
  endfacet
  facet normal -0.955514 0.294946 0
    outer loop
      vertex -51.2295 36.6947 -6.35
      vertex -51.1548 36.9367 6.35
      vertex -51.1548 36.9367 -6.35
    endloop
  endfacet
  facet normal 0 0 1
    outer loop
      vertex -50.2507 38.1303 6.35
      vertex -50.63 37.7956 6.35
      vertex -50.9354 37.3924 6.35
    endloop
  endfacet
  facet normal 0.411153 -0.911566 0
    outer loop
      vertex 49.9268 -38.3283 1.26998
      vertex 49.696 -38.4324 6.35
      vertex 49.696 -38.4324 1.26998
    endloop
  endfacet
  facet normal -0 0 1
    outer loop
      vertex -49.0838 -38.5883 6.35
      vertex 48.7047 -38.6072 6.35
      vertex 50.3517 -38.0539 6.35
    endloop
  endfacet
  facet normal 0 0 1
    outer loop
      vertex 48.7047 -38.6072 6.35
      vertex 49.209 -38.5694 6.35
      vertex 49.696 -38.4324 6.35
    endloop
  endfacet
  facet normal 0.0248836 -0.99969 0
    outer loop
      vertex 48.7047 -38.6072 1.26998
      vertex 48.9578 -38.6009 1.26998
      vertex 48.7047 -38.6072 6.35
    endloop
  endfacet
  facet normal 0 -1 0
    outer loop
      vertex -48.8313 -38.6072 1.26998
      vertex -48.8313 -38.6072 -6.35
      vertex 48.7047 -38.6072 -6.35
    endloop
  endfacet
  facet normal -0.0746427 -0.99721 0
    outer loop
      vertex -49.0838 -38.5883 -6.35
      vertex -48.8313 -38.6072 -6.35
      vertex -48.8313 -38.6072 1.26998
    endloop
  endfacet
  facet normal 0 0 1
    outer loop
      vertex 49.696 38.4324 6.35
      vertex 49.4559 38.513 6.35
      vertex 49.209 38.5694 6.35
    endloop
  endfacet
  facet normal 0.318241 0.94801 -0
    outer loop
      vertex 49.4559 38.513 1.26998
      vertex 49.4559 38.513 6.35
      vertex 49.696 38.4324 6.35
    endloop
  endfacet
  facet normal 0 0 -1
    outer loop
      vertex 49.209 38.5694 -6.35
      vertex 49.696 38.4324 -6.35
      vertex 50.3517 38.0538 -6.35
    endloop
  endfacet
  facet normal 0 0 -1
    outer loop
      vertex 49.209 38.5694 -6.35
      vertex 49.4559 38.513 -6.35
      vertex 49.696 38.4324 -6.35
    endloop
  endfacet
  facet normal 0.583961 0.811781 0
    outer loop
      vertex 50.3517 38.0538 -6.35
      vertex 50.1461 38.2017 -6.35
      vertex 50.1461 38.2017 6.35
    endloop
  endfacet
  facet normal 0 0 -1
    outer loop
      vertex 49.696 38.4324 -6.35
      vertex 50.1461 38.2017 -6.35
      vertex 50.3517 38.0538 -6.35
    endloop
  endfacet
  facet normal 0 0 -1
    outer loop
      vertex 51.1085 37.0546 -6.35
      vertex 51.308 36.068 -6.35
      vertex 51.308 -36.068 -6.35
    endloop
  endfacet
  facet normal 0.939678 0.34206 -0
    outer loop
      vertex 51.1085 37.0546 1.26998
      vertex 51.1085 37.0546 6.35
      vertex 51.1951 36.8167 1.26998
    endloop
  endfacet
  facet normal 0.969065 0.246807 0
    outer loop
      vertex 51.2576 36.5713 1.26998
      vertex 51.1951 36.8167 -1.27
      vertex 51.1951 36.8167 1.26998
    endloop
  endfacet
  facet normal 0.939678 0.34206 -0
    outer loop
      vertex 51.1085 37.0546 -6.35
      vertex 51.1085 37.0546 1.26998
      vertex 51.1951 36.8167 1.26998
    endloop
  endfacet
  facet normal 1 0 0
    outer loop
      vertex 51.308 36.068 1.26998
      vertex 51.308 -36.068 6.35
      vertex 51.308 -36.068 -6.35
    endloop
  endfacet
  facet normal 0.988797 0.149267 -0
    outer loop
      vertex 51.2576 36.5713 1.26998
      vertex 51.2576 36.5713 6.35
      vertex 51.2954 36.3209 1.26998
    endloop
  endfacet
  facet normal 0 0 -1
    outer loop
      vertex 51.308 -36.068 -6.35
      vertex 51.1085 -37.0546 -6.35
      vertex 50.3517 -38.0539 -6.35
    endloop
  endfacet
  facet normal 0 0 1
    outer loop
      vertex 51.1085 -37.0546 6.35
      vertex 51.2576 -36.5713 6.35
      vertex 51.308 -36.068 6.35
    endloop
  endfacet
  facet normal 0.998761 0.0497603 0
    outer loop
      vertex 51.308 36.068 -6.35
      vertex 51.2954 36.3209 -6.35
      vertex 51.2954 36.3209 1.26998
    endloop
  endfacet
  facet normal 0.969065 0.246807 0
    outer loop
      vertex 51.2576 36.5713 -6.35
      vertex 51.1951 36.8167 -6.35
      vertex 51.1951 36.8167 -1.27
    endloop
  endfacet
  facet normal 0 0 -1
    outer loop
      vertex 50.8666 37.4988 -6.35
      vertex 50.9987 37.2828 -6.35
      vertex 51.1085 37.0546 -6.35
    endloop
  endfacet
  facet normal 0.853106 0.521738 0
    outer loop
      vertex 50.9987 37.2828 6.35
      vertex 50.9987 37.2828 -6.35
      vertex 50.8666 37.4988 -6.35
    endloop
  endfacet
  facet normal 0.797386 0.60347 0
    outer loop
      vertex 50.8666 37.4988 -6.35
      vertex 50.7138 37.7007 -6.35
      vertex 50.7138 37.7007 6.35
    endloop
  endfacet
  facet normal 0 0 -1
    outer loop
      vertex 50.3517 38.0538 -6.35
      vertex 50.7138 37.7007 -6.35
      vertex 50.8666 37.4988 -6.35
    endloop
  endfacet
  facet normal 0.797386 0.60347 0
    outer loop
      vertex 50.7138 37.7007 6.35
      vertex 50.8666 37.4988 6.35
      vertex 50.8666 37.4988 -6.35
    endloop
  endfacet
  facet normal 0 0 1
    outer loop
      vertex 50.9987 37.2828 6.35
      vertex 50.8666 37.4988 6.35
      vertex 50.7138 37.7007 6.35
    endloop
  endfacet
  facet normal 0.0248836 0.99969 0
    outer loop
      vertex 48.7047 38.6072 6.35
      vertex 48.9578 38.6009 6.35
      vertex 48.9578 38.6009 1.26998
    endloop
  endfacet
  facet normal 0 0 1
    outer loop
      vertex 49.209 38.5694 6.35
      vertex 48.9578 38.6009 6.35
      vertex 48.7047 38.6072 6.35
    endloop
  endfacet
  facet normal 0 0 -1
    outer loop
      vertex -48.8313 38.6072 -6.35
      vertex 48.7047 38.6072 -6.35
      vertex 49.209 38.5694 -6.35
    endloop
  endfacet
  facet normal 0 1 0
    outer loop
      vertex 48.7047 38.6072 1.26998
      vertex 48.7047 38.6072 -6.35
      vertex -48.8313 38.6072 -6.35
    endloop
  endfacet
  facet normal 0 0 1
    outer loop
      vertex -49.577 38.4757 6.35
      vertex -50.038 38.2677 6.35
      vertex -50.2507 38.1303 6.35
    endloop
  endfacet
  facet normal -0.27086 0.962619 0
    outer loop
      vertex -49.3332 38.5443 6.35
      vertex -49.577 38.4757 -6.35
      vertex -49.577 38.4757 6.35
    endloop
  endfacet
  facet normal -0.17374 0.984792 0
    outer loop
      vertex -49.0838 38.5883 6.35
      vertex -49.3332 38.5443 -6.35
      vertex -49.3332 38.5443 6.35
    endloop
  endfacet
  facet normal 0 0 1
    outer loop
      vertex -48.8313 38.6072 6.35
      vertex -49.3332 38.5443 6.35
      vertex -49.577 38.4757 6.35
    endloop
  endfacet
  facet normal 0 0 -1
    outer loop
      vertex -50.2507 38.1303 -6.35
      vertex -49.577 38.4757 -6.35
      vertex -48.8313 38.6072 -6.35
    endloop
  endfacet
  facet normal -0.456196 0.889879 0
    outer loop
      vertex -49.8127 38.3832 6.35
      vertex -50.038 38.2677 -6.35
      vertex -50.038 38.2677 6.35
    endloop
  endfacet
  facet normal -0.542613 -0.839983 0
    outer loop
      vertex -50.038 -38.2677 6.35
      vertex -50.2507 -38.1303 6.35
      vertex -50.2507 -38.1303 -6.35
    endloop
  endfacet
  facet normal 0 0 1
    outer loop
      vertex -50.63 -37.7956 6.35
      vertex -50.2507 -38.1303 6.35
      vertex -50.038 -38.2677 6.35
    endloop
  endfacet
  facet normal 0 0 -1
    outer loop
      vertex -49.0838 -38.5883 -6.35
      vertex -50.2507 -38.1303 -6.35
      vertex -51.1548 -36.9367 -6.35
    endloop
  endfacet
  facet normal -0.456196 -0.889879 0
    outer loop
      vertex -50.038 -38.2677 1.26998
      vertex -49.8127 -38.3832 -6.35
      vertex -50.038 -38.2677 6.35
    endloop
  endfacet
  facet normal -0.921598 -0.388145 0
    outer loop
      vertex -51.1548 -36.9367 -6.35
      vertex -51.0565 -37.1701 -1.27
      vertex -51.1548 -36.9367 6.35
    endloop
  endfacet
  facet normal 0 0 1
    outer loop
      vertex -51.3049 -36.1946 6.35
      vertex -51.2796 -36.4466 6.35
      vertex -51.2295 -36.6948 6.35
    endloop
  endfacet
  facet normal 0 0 1
    outer loop
      vertex -51.3049 -36.1946 6.35
      vertex -51.1548 -36.9367 6.35
      vertex -50.63 -37.7956 6.35
    endloop
  endfacet
  facet normal -0.95548 -0.295057 0
    outer loop
      vertex -51.1548 -36.9367 6.35
      vertex -51.2295 -36.6948 6.35
      vertex -51.2295 -36.6948 -6.35
    endloop
  endfacet
  facet normal -0.542613 -0.839983 0
    outer loop
      vertex -50.038 -38.2677 1.26998
      vertex -50.038 -38.2677 6.35
      vertex -50.2507 -38.1303 -6.35
    endloop
  endfacet
  facet normal 0 0 -1
    outer loop
      vertex -49.8127 -38.3832 -6.35
      vertex -50.038 -38.2677 -6.35
      vertex -50.2507 -38.1303 -6.35
    endloop
  endfacet
  facet normal 0 0 1
    outer loop
      vertex -50.2507 38.1303 6.35
      vertex -50.9354 37.3924 6.35
      vertex -51.3049 36.1946 6.35
    endloop
  endfacet
  facet normal 0 0 -1
    outer loop
      vertex -51.3049 36.1946 -6.35
      vertex -51.1548 36.9367 -6.35
      vertex -50.9354 37.3924 -6.35
    endloop
  endfacet
  facet normal -0.698166 0.715936 0
    outer loop
      vertex -50.63 37.7956 6.35
      vertex -50.4487 37.9724 -6.35
      vertex -50.63 37.7956 -6.35
    endloop
  endfacet
  facet normal -0.921598 0.388145 0
    outer loop
      vertex -51.1548 36.9367 6.35
      vertex -51.0565 37.1701 -6.35
      vertex -51.1548 36.9367 -6.35
    endloop
  endfacet
  facet normal 0 0 -1
    outer loop
      vertex -50.9354 37.3924 -6.35
      vertex -50.63 37.7956 -6.35
      vertex -50.2507 38.1303 -6.35
    endloop
  endfacet
  facet normal 0 0 1
    outer loop
      vertex -50.63 37.7956 6.35
      vertex -50.7927 37.6016 6.35
      vertex -50.9354 37.3924 6.35
    endloop
  endfacet
  facet normal -0 -1 0
    outer loop
      vertex 48.7047 -38.6072 6.35
      vertex -48.8313 -38.6072 6.35
      vertex -48.8313 -38.6072 1.26998
    endloop
  endfacet
  facet normal 0 0 1
    outer loop
      vertex -49.0838 -38.5883 6.35
      vertex -48.8313 -38.6072 6.35
      vertex 48.7047 -38.6072 6.35
    endloop
  endfacet
  facet normal 0 0 -1
    outer loop
      vertex 50.3517 -38.0539 -6.35
      vertex 49.9268 -38.3283 -6.35
      vertex 49.696 -38.4324 -6.35
    endloop
  endfacet
  facet normal 0.499962 -0.866047 0
    outer loop
      vertex 50.1461 -38.2017 1.26998
      vertex 49.9268 -38.3283 6.35
      vertex 49.9268 -38.3283 1.26998
    endloop
  endfacet
  facet normal 0 0 1
    outer loop
      vertex 48.7047 -38.6072 6.35
      vertex 49.696 -38.4324 6.35
      vertex 50.3517 -38.0539 6.35
    endloop
  endfacet
  facet normal 0.124424 -0.992229 0
    outer loop
      vertex 49.209 -38.5694 6.35
      vertex 48.9578 -38.6009 1.26998
      vertex 49.209 -38.5694 1.26998
    endloop
  endfacet
  facet normal 0 0 1
    outer loop
      vertex 48.7047 -38.6072 6.35
      vertex 48.9578 -38.6009 6.35
      vertex 49.209 -38.5694 6.35
    endloop
  endfacet
  facet normal 0 0 -1
    outer loop
      vertex 50.3517 -38.0539 -6.35
      vertex 49.696 -38.4324 -6.35
      vertex 48.7047 -38.6072 -6.35
    endloop
  endfacet
  facet normal 0.411153 -0.911566 0
    outer loop
      vertex 49.696 -38.4324 -6.35
      vertex 49.9268 -38.3283 -6.35
      vertex 49.9268 -38.3283 1.26998
    endloop
  endfacet
  facet normal 0.411153 -0.911566 0
    outer loop
      vertex 49.696 -38.4324 1.26998
      vertex 49.696 -38.4324 -6.35
      vertex 49.9268 -38.3283 1.26998
    endloop
  endfacet
  facet normal 0.222696 0.974888 0
    outer loop
      vertex 49.4559 38.513 1.26998
      vertex 49.4559 38.513 -6.35
      vertex 49.209 38.5694 -6.35
    endloop
  endfacet
  facet normal 0.318241 0.94801 0
    outer loop
      vertex 49.696 38.4324 -6.35
      vertex 49.4559 38.513 -6.35
      vertex 49.4559 38.513 1.26998
    endloop
  endfacet
  facet normal 0.499962 0.866047 0
    outer loop
      vertex 50.1461 38.2017 -6.35
      vertex 49.9268 38.3283 -6.35
      vertex 49.9268 38.3283 -1.27
    endloop
  endfacet
  facet normal 0 0 -1
    outer loop
      vertex 49.696 38.4324 -6.35
      vertex 49.9268 38.3283 -6.35
      vertex 50.1461 38.2017 -6.35
    endloop
  endfacet
  facet normal 0 0 -1
    outer loop
      vertex 51.1085 37.0546 -6.35
      vertex 51.2576 36.5713 -6.35
      vertex 51.308 36.068 -6.35
    endloop
  endfacet
  facet normal 0.939678 0.34206 0
    outer loop
      vertex 51.1951 36.8167 1.26998
      vertex 51.1951 36.8167 -1.27
      vertex 51.1085 37.0546 -6.35
    endloop
  endfacet
  facet normal 0.901116 0.433578 0
    outer loop
      vertex 50.9987 37.2828 6.35
      vertex 51.1085 37.0546 1.26998
      vertex 51.1085 37.0546 -6.35
    endloop
  endfacet
  facet normal 0.901116 0.433578 0
    outer loop
      vertex 50.9987 37.2828 6.35
      vertex 51.1085 37.0546 6.35
      vertex 51.1085 37.0546 1.26998
    endloop
  endfacet
  facet normal 1 0 -0
    outer loop
      vertex 51.308 36.068 1.26998
      vertex 51.308 36.068 6.35
      vertex 51.308 -36.068 6.35
    endloop
  endfacet
  facet normal 0.998761 0.0497603 0
    outer loop
      vertex 51.2954 36.3209 1.26998
      vertex 51.308 36.068 6.35
      vertex 51.308 36.068 1.26998
    endloop
  endfacet
  facet normal 0 0 1
    outer loop
      vertex 50.3517 -38.0539 6.35
      vertex 50.7138 -37.7007 6.35
      vertex 51.1085 -37.0546 6.35
    endloop
  endfacet
  facet normal 0 0 -1
    outer loop
      vertex 51.2576 -36.5713 -6.35
      vertex 51.1951 -36.8167 -6.35
      vertex 51.1085 -37.0546 -6.35
    endloop
  endfacet
  facet normal 0.732878 -0.68036 0
    outer loop
      vertex 50.7138 -37.7007 6.35
      vertex 50.5415 -37.8863 -6.35
      vertex 50.7138 -37.7007 -6.35
    endloop
  endfacet
  facet normal 0 0 -1
    outer loop
      vertex 51.1085 -37.0546 -6.35
      vertex 50.7138 -37.7007 -6.35
      vertex 50.3517 -38.0539 -6.35
    endloop
  endfacet
  facet normal 0 0 -1
    outer loop
      vertex 51.308 -36.068 -6.35
      vertex 51.2576 -36.5713 -6.35
      vertex 51.1085 -37.0546 -6.35
    endloop
  endfacet
  facet normal 0 0 1
    outer loop
      vertex 51.2576 -36.5713 6.35
      vertex 51.2954 -36.3209 6.35
      vertex 51.308 -36.068 6.35
    endloop
  endfacet
  facet normal 0.661687 0.74978 0
    outer loop
      vertex 50.5415 37.8863 6.35
      vertex 50.5415 37.8863 -6.35
      vertex 50.3517 38.0538 -6.35
    endloop
  endfacet
  facet normal 0.732878 0.68036 0
    outer loop
      vertex 50.7138 37.7007 -6.35
      vertex 50.5415 37.8863 -6.35
      vertex 50.5415 37.8863 6.35
    endloop
  endfacet
  facet normal 0.124424 0.992229 0
    outer loop
      vertex 49.209 38.5694 -6.35
      vertex 48.9578 38.6009 -6.35
      vertex 48.9578 38.6009 1.26998
    endloop
  endfacet
  facet normal 0 0 -1
    outer loop
      vertex 48.7047 38.6072 -6.35
      vertex 48.9578 38.6009 -6.35
      vertex 49.209 38.5694 -6.35
    endloop
  endfacet
  facet normal -0.0746427 0.99721 0
    outer loop
      vertex -48.8313 38.6072 -6.35
      vertex -49.0838 38.5883 6.35
      vertex -48.8313 38.6072 6.35
    endloop
  endfacet
  facet normal -0.0746427 0.99721 0
    outer loop
      vertex -48.8313 38.6072 -6.35
      vertex -49.0838 38.5883 -6.35
      vertex -49.0838 38.5883 6.35
    endloop
  endfacet
  facet normal -0.365322 0.930881 0
    outer loop
      vertex -49.577 38.4757 -6.35
      vertex -49.8127 38.3832 6.35
      vertex -49.577 38.4757 6.35
    endloop
  endfacet
  facet normal 0 0 -1
    outer loop
      vertex -50.038 38.2677 -6.35
      vertex -49.8127 38.3832 -6.35
      vertex -49.577 38.4757 -6.35
    endloop
  endfacet
  facet normal 0 0 -1
    outer loop
      vertex -49.577 38.4757 -6.35
      vertex -49.3332 38.5443 -6.35
      vertex -48.8313 38.6072 -6.35
    endloop
  endfacet
  facet normal -0.27086 0.962619 0
    outer loop
      vertex -49.3332 38.5443 6.35
      vertex -49.3332 38.5443 -6.35
      vertex -49.577 38.4757 -6.35
    endloop
  endfacet
  facet normal 0 0 -1
    outer loop
      vertex -50.2507 38.1303 -6.35
      vertex -50.038 38.2677 -6.35
      vertex -49.577 38.4757 -6.35
    endloop
  endfacet
  facet normal -0.542613 0.839983 0
    outer loop
      vertex -50.038 38.2677 6.35
      vertex -50.038 38.2677 -6.35
      vertex -50.2507 38.1303 -6.35
    endloop
  endfacet
  facet normal -0.17374 -0.984792 -0
    outer loop
      vertex -49.0838 -38.5883 6.35
      vertex -49.3332 -38.5443 1.26998
      vertex -49.0838 -38.5883 -6.35
    endloop
  endfacet
  facet normal 0 0 1
    outer loop
      vertex -50.038 -38.2677 6.35
      vertex -49.577 -38.4757 6.35
      vertex -49.0838 -38.5883 6.35
    endloop
  endfacet
  facet normal -0.365322 -0.930881 0
    outer loop
      vertex -49.8127 -38.3832 -6.35
      vertex -49.577 -38.4757 -6.35
      vertex -49.577 -38.4757 1.26998
    endloop
  endfacet
  facet normal 0 0 -1
    outer loop
      vertex -49.0838 -38.5883 -6.35
      vertex -49.3332 -38.5443 -6.35
      vertex -49.8127 -38.3832 -6.35
    endloop
  endfacet
  facet normal -0.766047 -0.642784 0
    outer loop
      vertex -50.7927 -37.6017 6.35
      vertex -50.63 -37.7956 -6.35
      vertex -50.63 -37.7956 1.26998
    endloop
  endfacet
  facet normal 0 0 -1
    outer loop
      vertex -50.2507 -38.1303 -6.35
      vertex -50.4487 -37.9725 -6.35
      vertex -51.1548 -36.9367 -6.35
    endloop
  endfacet
  facet normal -1 0 0
    outer loop
      vertex -51.3049 36.1946 -6.35
      vertex -51.3049 -36.1946 -6.35
      vertex -51.3049 -36.1946 1.26998
    endloop
  endfacet
  facet normal 0 0 -1
    outer loop
      vertex -51.2295 -36.6948 -6.35
      vertex -51.3049 -36.1946 -6.35
      vertex -51.3049 36.1946 -6.35
    endloop
  endfacet
  facet normal -0.878152 -0.478382 0
    outer loop
      vertex -50.9354 -37.3924 -1.27
      vertex -51.0565 -37.1701 6.35
      vertex -51.0565 -37.1701 -1.27
    endloop
  endfacet
  facet normal -0.826236 -0.563325 0
    outer loop
      vertex -50.9354 -37.3924 -6.35
      vertex -50.7927 -37.6017 6.35
      vertex -50.9354 -37.3924 -1.27
    endloop
  endfacet
  facet normal 0 0 1
    outer loop
      vertex -51.3049 -36.1946 6.35
      vertex -51.2295 -36.6948 6.35
      vertex -51.1548 -36.9367 6.35
    endloop
  endfacet
  facet normal -0.994998 -0.0998946 0
    outer loop
      vertex -51.3049 -36.1946 1.26998
      vertex -51.2796 -36.4466 -6.35
      vertex -51.3049 -36.1946 6.35
    endloop
  endfacet
  facet normal -0.456196 -0.889879 0
    outer loop
      vertex -49.8127 -38.3832 -6.35
      vertex -49.8127 -38.3832 6.35
      vertex -50.038 -38.2677 6.35
    endloop
  endfacet
  facet normal -0.365322 -0.930881 0
    outer loop
      vertex -49.577 -38.4757 1.26998
      vertex -49.577 -38.4757 6.35
      vertex -49.8127 -38.3832 -6.35
    endloop
  endfacet
  facet normal -0.623249 -0.782023 0
    outer loop
      vertex -50.2507 -38.1303 6.35
      vertex -50.4487 -37.9725 6.35
      vertex -50.4487 -37.9725 -6.35
    endloop
  endfacet
  facet normal -0.623249 -0.782023 0
    outer loop
      vertex -50.2507 -38.1303 -6.35
      vertex -50.2507 -38.1303 6.35
      vertex -50.4487 -37.9725 -6.35
    endloop
  endfacet
  facet normal 0 0 -1
    outer loop
      vertex -51.3049 36.1946 -6.35
      vertex -51.2796 36.4466 -6.35
      vertex -51.2295 36.6947 -6.35
    endloop
  endfacet
  facet normal -0.980214 0.197939 0
    outer loop
      vertex -51.2796 36.4466 -6.35
      vertex -51.2295 36.6947 6.35
      vertex -51.2295 36.6947 -6.35
    endloop
  endfacet
  facet normal 0 0 1
    outer loop
      vertex -50.9354 37.3924 6.35
      vertex -51.1548 36.9367 6.35
      vertex -51.3049 36.1946 6.35
    endloop
  endfacet
  facet normal -0.878152 0.478382 0
    outer loop
      vertex -51.0565 37.1701 -6.35
      vertex -51.0565 37.1701 6.35
      vertex -50.9354 37.3924 6.35
    endloop
  endfacet
  facet normal -0.878152 0.478382 0
    outer loop
      vertex -50.9354 37.3924 -6.35
      vertex -51.0565 37.1701 -6.35
      vertex -50.9354 37.3924 6.35
    endloop
  endfacet
  facet normal 0 0 -1
    outer loop
      vertex -51.1548 36.9367 -6.35
      vertex -51.0565 37.1701 -6.35
      vertex -50.9354 37.3924 -6.35
    endloop
  endfacet
  facet normal 0 0 1
    outer loop
      vertex -50.2507 38.1303 6.35
      vertex -50.4487 37.9724 6.35
      vertex -50.63 37.7956 6.35
    endloop
  endfacet
  facet normal -0.76621 0.64259 0
    outer loop
      vertex -50.63 37.7956 -6.35
      vertex -50.7927 37.6016 -6.35
      vertex -50.63 37.7956 6.35
    endloop
  endfacet
  facet normal -0.62349 0.781831 0
    outer loop
      vertex -50.2507 38.1303 -6.35
      vertex -50.4487 37.9724 -6.35
      vertex -50.2507 38.1303 6.35
    endloop
  endfacet
  facet normal 0 0 -1
    outer loop
      vertex -50.63 37.7956 -6.35
      vertex -50.4487 37.9724 -6.35
      vertex -50.2507 38.1303 -6.35
    endloop
  endfacet
  facet normal 0 0 -1
    outer loop
      vertex -50.9354 37.3924 -6.35
      vertex -50.7927 37.6016 -6.35
      vertex -50.63 37.7956 -6.35
    endloop
  endfacet
  facet normal -0.82611 0.563508 0
    outer loop
      vertex -50.9354 37.3924 6.35
      vertex -50.7927 37.6016 -6.35
      vertex -50.9354 37.3924 -6.35
    endloop
  endfacet
  facet normal 0.583701 -0.811969 0
    outer loop
      vertex 50.3517 -38.0539 6.35
      vertex 50.1461 -38.2017 1.26998
      vertex 50.3517 -38.0539 -6.35
    endloop
  endfacet
  facet normal 0.583701 -0.811969 0
    outer loop
      vertex 50.3517 -38.0539 6.35
      vertex 50.1461 -38.2017 6.35
      vertex 50.1461 -38.2017 1.26998
    endloop
  endfacet
  facet normal 0 0 1
    outer loop
      vertex 49.696 -38.4324 6.35
      vertex 49.9268 -38.3283 6.35
      vertex 50.3517 -38.0539 6.35
    endloop
  endfacet
  facet normal 0.411153 -0.911566 0
    outer loop
      vertex 49.9268 -38.3283 1.26998
      vertex 49.9268 -38.3283 6.35
      vertex 49.696 -38.4324 6.35
    endloop
  endfacet
  facet normal 0.0248836 -0.99969 0
    outer loop
      vertex 48.7047 -38.6072 -6.35
      vertex 48.9578 -38.6009 -6.35
      vertex 48.9578 -38.6009 1.26998
    endloop
  endfacet
  facet normal 0.318596 -0.947891 0
    outer loop
      vertex 49.696 -38.4324 1.26998
      vertex 49.4559 -38.5131 1.26998
      vertex 49.696 -38.4324 -6.35
    endloop
  endfacet
  facet normal 0.222321 -0.974974 0
    outer loop
      vertex 49.4559 -38.5131 1.26998
      vertex 49.209 -38.5694 6.35
      vertex 49.209 -38.5694 1.26998
    endloop
  endfacet
  facet normal 0 0 1
    outer loop
      vertex 49.209 -38.5694 6.35
      vertex 49.4559 -38.5131 6.35
      vertex 49.696 -38.4324 6.35
    endloop
  endfacet
  facet normal 0.0248836 -0.99969 0
    outer loop
      vertex 48.7047 -38.6072 -6.35
      vertex 48.9578 -38.6009 1.26998
      vertex 48.7047 -38.6072 1.26998
    endloop
  endfacet
  facet normal 0 0 -1
    outer loop
      vertex 49.696 -38.4324 -6.35
      vertex 49.209 -38.5694 -6.35
      vertex 48.7047 -38.6072 -6.35
    endloop
  endfacet
  facet normal 0.318596 -0.947891 0
    outer loop
      vertex 49.4559 -38.5131 1.26998
      vertex 49.4559 -38.5131 -6.35
      vertex 49.696 -38.4324 -6.35
    endloop
  endfacet
  facet normal 0.222321 -0.974974 0
    outer loop
      vertex 49.209 -38.5694 1.26998
      vertex 49.209 -38.5694 -6.35
      vertex 49.4559 -38.5131 1.26998
    endloop
  endfacet
  facet normal 0.499962 -0.866047 0
    outer loop
      vertex 49.9268 -38.3283 -6.35
      vertex 50.1461 -38.2017 -6.35
      vertex 50.1461 -38.2017 1.26998
    endloop
  endfacet
  facet normal 0.499962 -0.866047 0
    outer loop
      vertex 49.9268 -38.3283 1.26998
      vertex 49.9268 -38.3283 -6.35
      vertex 50.1461 -38.2017 1.26998
    endloop
  endfacet
  facet normal 0.969065 0.246807 0
    outer loop
      vertex 51.2576 36.5713 1.26998
      vertex 51.2576 36.5713 -6.35
      vertex 51.1951 36.8167 -1.27
    endloop
  endfacet
  facet normal 0.988797 0.149267 0
    outer loop
      vertex 51.2954 36.3209 1.26998
      vertex 51.2576 36.5713 -6.35
      vertex 51.2576 36.5713 1.26998
    endloop
  endfacet
  facet normal 0 0 1
    outer loop
      vertex 51.308 36.068 6.35
      vertex 51.2576 36.5713 6.35
      vertex 50.9987 37.2828 6.35
    endloop
  endfacet
  facet normal 0.988797 0.149267 0
    outer loop
      vertex 51.2576 36.5713 6.35
      vertex 51.2954 36.3209 6.35
      vertex 51.2954 36.3209 1.26998
    endloop
  endfacet
  facet normal 0 0 1
    outer loop
      vertex 50.3517 -38.0539 6.35
      vertex 50.5415 -37.8863 6.35
      vertex 50.7138 -37.7007 6.35
    endloop
  endfacet
  facet normal 0 0 -1
    outer loop
      vertex 51.1085 -37.0546 -6.35
      vertex 50.9987 -37.2828 -6.35
      vertex 50.7138 -37.7007 -6.35
    endloop
  endfacet
  facet normal 0 0 -1
    outer loop
      vertex 50.9987 -37.2828 -6.35
      vertex 50.8666 -37.4988 -6.35
      vertex 50.7138 -37.7007 -6.35
    endloop
  endfacet
  facet normal 0 0 1
    outer loop
      vertex 50.7138 -37.7007 6.35
      vertex 50.9987 -37.2828 6.35
      vertex 51.1085 -37.0546 6.35
    endloop
  endfacet
  facet normal 0.661909 -0.749584 0
    outer loop
      vertex 50.3517 -38.0539 -6.35
      vertex 50.5415 -37.8863 -6.35
      vertex 50.3517 -38.0539 6.35
    endloop
  endfacet
  facet normal 0 0 -1
    outer loop
      vertex 50.7138 -37.7007 -6.35
      vertex 50.5415 -37.8863 -6.35
      vertex 50.3517 -38.0539 -6.35
    endloop
  endfacet
  facet normal 0.969065 -0.246807 0
    outer loop
      vertex 51.2576 -36.5713 6.35
      vertex 51.1951 -36.8167 -6.35
      vertex 51.2576 -36.5713 -6.35
    endloop
  endfacet
  facet normal 0.988797 -0.149267 0
    outer loop
      vertex 51.2576 -36.5713 -6.35
      vertex 51.2954 -36.3209 -6.35
      vertex 51.2576 -36.5713 6.35
    endloop
  endfacet
  facet normal 0.939678 -0.34206 0
    outer loop
      vertex 51.1951 -36.8167 -6.35
      vertex 51.1951 -36.8167 6.35
      vertex 51.1085 -37.0546 6.35
    endloop
  endfacet
  facet normal 0.939678 -0.34206 0
    outer loop
      vertex 51.1085 -37.0546 -6.35
      vertex 51.1951 -36.8167 -6.35
      vertex 51.1085 -37.0546 6.35
    endloop
  endfacet
  facet normal 0 0 -1
    outer loop
      vertex 51.308 -36.068 -6.35
      vertex 51.2954 -36.3209 -6.35
      vertex 51.2576 -36.5713 -6.35
    endloop
  endfacet
  facet normal 0.998761 -0.0497603 0
    outer loop
      vertex 51.308 -36.068 6.35
      vertex 51.2954 -36.3209 -6.35
      vertex 51.308 -36.068 -6.35
    endloop
  endfacet
  facet normal 0 0 -1
    outer loop
      vertex -49.3332 38.5443 -6.35
      vertex -49.0838 38.5883 -6.35
      vertex -48.8313 38.6072 -6.35
    endloop
  endfacet
  facet normal -0.17374 0.984792 0
    outer loop
      vertex -49.0838 38.5883 6.35
      vertex -49.0838 38.5883 -6.35
      vertex -49.3332 38.5443 -6.35
    endloop
  endfacet
  facet normal -0.456196 0.889879 0
    outer loop
      vertex -49.8127 38.3832 6.35
      vertex -49.8127 38.3832 -6.35
      vertex -50.038 38.2677 -6.35
    endloop
  endfacet
  facet normal -0.365322 0.930881 0
    outer loop
      vertex -49.577 38.4757 -6.35
      vertex -49.8127 38.3832 -6.35
      vertex -49.8127 38.3832 6.35
    endloop
  endfacet
  facet normal -0.456196 -0.889879 -0
    outer loop
      vertex -50.038 -38.2677 1.26998
      vertex -50.038 -38.2677 -6.35
      vertex -49.8127 -38.3832 -6.35
    endloop
  endfacet
  facet normal -0.542613 -0.839983 0
    outer loop
      vertex -50.2507 -38.1303 -6.35
      vertex -50.038 -38.2677 -6.35
      vertex -50.038 -38.2677 1.26998
    endloop
  endfacet
  facet normal -0.17374 -0.984792 -0
    outer loop
      vertex -49.3332 -38.5443 1.26998
      vertex -49.3332 -38.5443 -6.35
      vertex -49.0838 -38.5883 -6.35
    endloop
  endfacet
  facet normal -0.27086 -0.962619 0
    outer loop
      vertex -49.577 -38.4757 1.26998
      vertex -49.3332 -38.5443 -6.35
      vertex -49.3332 -38.5443 1.26998
    endloop
  endfacet
  facet normal -0.994998 -0.0998946 0
    outer loop
      vertex -51.3049 -36.1946 -6.35
      vertex -51.2796 -36.4466 -6.35
      vertex -51.3049 -36.1946 1.26998
    endloop
  endfacet
  facet normal 0 0 -1
    outer loop
      vertex -51.2295 -36.6948 -6.35
      vertex -51.2796 -36.4466 -6.35
      vertex -51.3049 -36.1946 -6.35
    endloop
  endfacet
  facet normal -0.878152 -0.478382 0
    outer loop
      vertex -51.0565 -37.1701 -1.27
      vertex -50.9354 -37.3924 -6.35
      vertex -50.9354 -37.3924 -1.27
    endloop
  endfacet
  facet normal -0.921598 -0.388145 0
    outer loop
      vertex -51.0565 -37.1701 -1.27
      vertex -51.0565 -37.1701 6.35
      vertex -51.1548 -36.9367 6.35
    endloop
  endfacet
  facet normal -0.921598 -0.388145 0
    outer loop
      vertex -51.1548 -36.9367 -6.35
      vertex -51.0565 -37.1701 -6.35
      vertex -51.0565 -37.1701 -1.27
    endloop
  endfacet
  facet normal 0 0 -1
    outer loop
      vertex -50.4487 -37.9725 -6.35
      vertex -50.9354 -37.3924 -6.35
      vertex -51.1548 -36.9367 -6.35
    endloop
  endfacet
  facet normal -0.766047 -0.642784 -0
    outer loop
      vertex -50.63 -37.7956 6.35
      vertex -50.7927 -37.6017 6.35
      vertex -50.63 -37.7956 1.26998
    endloop
  endfacet
  facet normal 0 0 1
    outer loop
      vertex -51.1548 -36.9367 6.35
      vertex -50.7927 -37.6017 6.35
      vertex -50.63 -37.7956 6.35
    endloop
  endfacet
  facet normal 0 0 1
    outer loop
      vertex -49.577 -38.4757 6.35
      vertex -49.3332 -38.5443 6.35
      vertex -49.0838 -38.5883 6.35
    endloop
  endfacet
  facet normal -0.27086 -0.962619 0
    outer loop
      vertex -49.3332 -38.5443 1.26998
      vertex -49.3332 -38.5443 6.35
      vertex -49.577 -38.4757 6.35
    endloop
  endfacet
  facet normal -0.365322 -0.930881 0
    outer loop
      vertex -49.577 -38.4757 6.35
      vertex -49.8127 -38.3832 6.35
      vertex -49.8127 -38.3832 -6.35
    endloop
  endfacet
  facet normal 0 0 1
    outer loop
      vertex -50.038 -38.2677 6.35
      vertex -49.8127 -38.3832 6.35
      vertex -49.577 -38.4757 6.35
    endloop
  endfacet
  facet normal 0 0 1
    outer loop
      vertex -50.63 -37.7956 6.35
      vertex -50.4487 -37.9725 6.35
      vertex -50.2507 -38.1303 6.35
    endloop
  endfacet
  facet normal -0.698368 -0.715739 0
    outer loop
      vertex -50.4487 -37.9725 -6.35
      vertex -50.4487 -37.9725 6.35
      vertex -50.63 -37.7956 6.35
    endloop
  endfacet
  facet normal -0.994998 0.0998946 0
    outer loop
      vertex -51.3049 36.1946 6.35
      vertex -51.2796 36.4466 -6.35
      vertex -51.3049 36.1946 -6.35
    endloop
  endfacet
  facet normal -0.994998 0.0998946 0
    outer loop
      vertex -51.3049 36.1946 6.35
      vertex -51.2796 36.4466 6.35
      vertex -51.2796 36.4466 -6.35
    endloop
  endfacet
  facet normal 0 0 1
    outer loop
      vertex -51.1548 36.9367 6.35
      vertex -51.2295 36.6947 6.35
      vertex -51.3049 36.1946 6.35
    endloop
  endfacet
  facet normal -0.955514 0.294946 0
    outer loop
      vertex -51.2295 36.6947 -6.35
      vertex -51.2295 36.6947 6.35
      vertex -51.1548 36.9367 6.35
    endloop
  endfacet
  facet normal -0.921598 0.388145 0
    outer loop
      vertex -51.1548 36.9367 6.35
      vertex -51.0565 37.1701 6.35
      vertex -51.0565 37.1701 -6.35
    endloop
  endfacet
  facet normal 0 0 1
    outer loop
      vertex -50.9354 37.3924 6.35
      vertex -51.0565 37.1701 6.35
      vertex -51.1548 36.9367 6.35
    endloop
  endfacet
  facet normal -0.62349 0.781831 0
    outer loop
      vertex -50.4487 37.9724 -6.35
      vertex -50.4487 37.9724 6.35
      vertex -50.2507 38.1303 6.35
    endloop
  endfacet
  facet normal -0.698166 0.715936 0
    outer loop
      vertex -50.63 37.7956 6.35
      vertex -50.4487 37.9724 6.35
      vertex -50.4487 37.9724 -6.35
    endloop
  endfacet
  facet normal -0.76621 0.64259 0
    outer loop
      vertex -50.7927 37.6016 -6.35
      vertex -50.7927 37.6016 6.35
      vertex -50.63 37.7956 6.35
    endloop
  endfacet
  facet normal -0.82611 0.563508 0
    outer loop
      vertex -50.9354 37.3924 6.35
      vertex -50.7927 37.6016 6.35
      vertex -50.7927 37.6016 -6.35
    endloop
  endfacet
  facet normal 0 0 1
    outer loop
      vertex 49.9268 -38.3283 6.35
      vertex 50.1461 -38.2017 6.35
      vertex 50.3517 -38.0539 6.35
    endloop
  endfacet
  facet normal 0.499962 -0.866047 0
    outer loop
      vertex 50.1461 -38.2017 1.26998
      vertex 50.1461 -38.2017 6.35
      vertex 49.9268 -38.3283 6.35
    endloop
  endfacet
  facet normal 0.222321 -0.974974 0
    outer loop
      vertex 49.4559 -38.5131 1.26998
      vertex 49.4559 -38.5131 6.35
      vertex 49.209 -38.5694 6.35
    endloop
  endfacet
  facet normal 0.318596 -0.947891 0
    outer loop
      vertex 49.696 -38.4324 6.35
      vertex 49.4559 -38.5131 6.35
      vertex 49.4559 -38.5131 1.26998
    endloop
  endfacet
  facet normal 0.0248836 -0.99969 0
    outer loop
      vertex 48.9578 -38.6009 1.26998
      vertex 48.9578 -38.6009 6.35
      vertex 48.7047 -38.6072 6.35
    endloop
  endfacet
  facet normal 0.124424 -0.992229 0
    outer loop
      vertex 49.209 -38.5694 6.35
      vertex 48.9578 -38.6009 6.35
      vertex 48.9578 -38.6009 1.26998
    endloop
  endfacet
  facet normal 0 0 -1
    outer loop
      vertex 49.209 -38.5694 -6.35
      vertex 48.9578 -38.6009 -6.35
      vertex 48.7047 -38.6072 -6.35
    endloop
  endfacet
  facet normal 0.124424 -0.992229 0
    outer loop
      vertex 48.9578 -38.6009 1.26998
      vertex 48.9578 -38.6009 -6.35
      vertex 49.209 -38.5694 -6.35
    endloop
  endfacet
  facet normal 0.222321 -0.974974 0
    outer loop
      vertex 49.209 -38.5694 -6.35
      vertex 49.4559 -38.5131 -6.35
      vertex 49.4559 -38.5131 1.26998
    endloop
  endfacet
  facet normal 0 0 -1
    outer loop
      vertex 49.696 -38.4324 -6.35
      vertex 49.4559 -38.5131 -6.35
      vertex 49.209 -38.5694 -6.35
    endloop
  endfacet
  facet normal 0 0 -1
    outer loop
      vertex 50.3517 -38.0539 -6.35
      vertex 50.1461 -38.2017 -6.35
      vertex 49.9268 -38.3283 -6.35
    endloop
  endfacet
  facet normal 0.583701 -0.811969 0
    outer loop
      vertex 50.1461 -38.2017 1.26998
      vertex 50.1461 -38.2017 -6.35
      vertex 50.3517 -38.0539 -6.35
    endloop
  endfacet
  facet normal 0 0 -1
    outer loop
      vertex 51.2576 36.5713 -6.35
      vertex 51.2954 36.3209 -6.35
      vertex 51.308 36.068 -6.35
    endloop
  endfacet
  facet normal 0.988797 0.149267 0
    outer loop
      vertex 51.2954 36.3209 1.26998
      vertex 51.2954 36.3209 -6.35
      vertex 51.2576 36.5713 -6.35
    endloop
  endfacet
  facet normal 0 0 -1
    outer loop
      vertex 51.1085 37.0546 -6.35
      vertex 51.1951 36.8167 -6.35
      vertex 51.2576 36.5713 -6.35
    endloop
  endfacet
  facet normal 0.939678 0.34206 0
    outer loop
      vertex 51.1951 36.8167 -1.27
      vertex 51.1951 36.8167 -6.35
      vertex 51.1085 37.0546 -6.35
    endloop
  endfacet
  facet normal 0 0 1
    outer loop
      vertex 51.2576 36.5713 6.35
      vertex 51.1085 37.0546 6.35
      vertex 50.9987 37.2828 6.35
    endloop
  endfacet
  facet normal 0.939678 0.34206 0
    outer loop
      vertex 51.1085 37.0546 6.35
      vertex 51.1951 36.8167 6.35
      vertex 51.1951 36.8167 1.26998
    endloop
  endfacet
  facet normal 0 0 1
    outer loop
      vertex 51.308 36.068 6.35
      vertex 51.2954 36.3209 6.35
      vertex 51.2576 36.5713 6.35
    endloop
  endfacet
  facet normal 0.998761 0.0497603 -0
    outer loop
      vertex 51.2954 36.3209 1.26998
      vertex 51.2954 36.3209 6.35
      vertex 51.308 36.068 6.35
    endloop
  endfacet
  facet normal 0.797386 -0.60347 0
    outer loop
      vertex 50.8666 -37.4988 -6.35
      vertex 50.8666 -37.4988 6.35
      vertex 50.7138 -37.7007 6.35
    endloop
  endfacet
  facet normal 0.797386 -0.60347 0
    outer loop
      vertex 50.7138 -37.7007 -6.35
      vertex 50.8666 -37.4988 -6.35
      vertex 50.7138 -37.7007 6.35
    endloop
  endfacet
  facet normal 0.853106 -0.521738 0
    outer loop
      vertex 50.9987 -37.2828 -6.35
      vertex 50.9987 -37.2828 6.35
      vertex 50.8666 -37.4988 -6.35
    endloop
  endfacet
  facet normal 0.901116 -0.433578 0
    outer loop
      vertex 51.1085 -37.0546 6.35
      vertex 50.9987 -37.2828 6.35
      vertex 50.9987 -37.2828 -6.35
    endloop
  endfacet
  facet normal 0.661909 -0.749584 0
    outer loop
      vertex 50.5415 -37.8863 -6.35
      vertex 50.5415 -37.8863 6.35
      vertex 50.3517 -38.0539 6.35
    endloop
  endfacet
  facet normal 0.732878 -0.68036 0
    outer loop
      vertex 50.7138 -37.7007 6.35
      vertex 50.5415 -37.8863 6.35
      vertex 50.5415 -37.8863 -6.35
    endloop
  endfacet
  facet normal 0.969065 -0.246807 0
    outer loop
      vertex 51.2576 -36.5713 6.35
      vertex 51.1951 -36.8167 6.35
      vertex 51.1951 -36.8167 -6.35
    endloop
  endfacet
  facet normal 0 0 1
    outer loop
      vertex 51.1085 -37.0546 6.35
      vertex 51.1951 -36.8167 6.35
      vertex 51.2576 -36.5713 6.35
    endloop
  endfacet
  facet normal 0.988797 -0.149267 0
    outer loop
      vertex 51.2954 -36.3209 -6.35
      vertex 51.2954 -36.3209 6.35
      vertex 51.2576 -36.5713 6.35
    endloop
  endfacet
  facet normal 0.998761 -0.0497603 0
    outer loop
      vertex 51.308 -36.068 6.35
      vertex 51.2954 -36.3209 6.35
      vertex 51.2954 -36.3209 -6.35
    endloop
  endfacet
  facet normal 0 0 -1
    outer loop
      vertex -49.3332 -38.5443 -6.35
      vertex -49.577 -38.4757 -6.35
      vertex -49.8127 -38.3832 -6.35
    endloop
  endfacet
  facet normal -0.27086 -0.962619 -0
    outer loop
      vertex -49.577 -38.4757 1.26998
      vertex -49.577 -38.4757 -6.35
      vertex -49.3332 -38.5443 -6.35
    endloop
  endfacet
  facet normal -0.994998 -0.0998946 0
    outer loop
      vertex -51.2796 -36.4466 -6.35
      vertex -51.2796 -36.4466 6.35
      vertex -51.3049 -36.1946 6.35
    endloop
  endfacet
  facet normal -0.98023 -0.197863 0
    outer loop
      vertex -51.2295 -36.6948 6.35
      vertex -51.2796 -36.4466 6.35
      vertex -51.2796 -36.4466 -6.35
    endloop
  endfacet
  facet normal -0.826236 -0.563325 0
    outer loop
      vertex -50.7927 -37.6017 6.35
      vertex -50.9354 -37.3924 6.35
      vertex -50.9354 -37.3924 -1.27
    endloop
  endfacet
  facet normal 0 0 1
    outer loop
      vertex -51.1548 -36.9367 6.35
      vertex -51.0565 -37.1701 6.35
      vertex -50.7927 -37.6017 6.35
    endloop
  endfacet
  facet normal 0 0 -1
    outer loop
      vertex -50.63 -37.7956 -6.35
      vertex -50.7927 -37.6017 -6.35
      vertex -50.9354 -37.3924 -6.35
    endloop
  endfacet
  facet normal 0 0 -1
    outer loop
      vertex -50.4487 -37.9725 -6.35
      vertex -50.63 -37.7956 -6.35
      vertex -50.9354 -37.3924 -6.35
    endloop
  endfacet
  facet normal 0 0 -1
    outer loop
      vertex -50.9354 -37.3924 -6.35
      vertex -51.0565 -37.1701 -6.35
      vertex -51.1548 -36.9367 -6.35
    endloop
  endfacet
  facet normal -0.878152 -0.478382 -0
    outer loop
      vertex -51.0565 -37.1701 -1.27
      vertex -51.0565 -37.1701 -6.35
      vertex -50.9354 -37.3924 -6.35
    endloop
  endfacet
  facet normal 0 0 1
    outer loop
      vertex -51.2295 36.6947 6.35
      vertex -51.2796 36.4466 6.35
      vertex -51.3049 36.1946 6.35
    endloop
  endfacet
  facet normal -0.980214 0.197939 0
    outer loop
      vertex -51.2796 36.4466 -6.35
      vertex -51.2796 36.4466 6.35
      vertex -51.2295 36.6947 6.35
    endloop
  endfacet
  facet normal 0 0 1
    outer loop
      vertex 51.2576 36.5713 6.35
      vertex 51.1951 36.8167 6.35
      vertex 51.1085 37.0546 6.35
    endloop
  endfacet
  facet normal 0.969065 0.246807 -0
    outer loop
      vertex 51.1951 36.8167 1.26998
      vertex 51.1951 36.8167 6.35
      vertex 51.2576 36.5713 6.35
    endloop
  endfacet
  facet normal 0.853106 -0.521738 0
    outer loop
      vertex 50.9987 -37.2828 6.35
      vertex 50.8666 -37.4988 6.35
      vertex 50.8666 -37.4988 -6.35
    endloop
  endfacet
  facet normal 0 0 1
    outer loop
      vertex 50.7138 -37.7007 6.35
      vertex 50.8666 -37.4988 6.35
      vertex 50.9987 -37.2828 6.35
    endloop
  endfacet
  facet normal 0 0 1
    outer loop
      vertex -51.0565 -37.1701 6.35
      vertex -50.9354 -37.3924 6.35
      vertex -50.7927 -37.6017 6.35
    endloop
  endfacet
  facet normal -0.878152 -0.478382 0
    outer loop
      vertex -50.9354 -37.3924 -1.27
      vertex -50.9354 -37.3924 6.35
      vertex -51.0565 -37.1701 6.35
    endloop
  endfacet
  facet normal -0.766047 -0.642784 -0
    outer loop
      vertex -50.7927 -37.6017 6.35
      vertex -50.7927 -37.6017 -6.35
      vertex -50.63 -37.7956 -6.35
    endloop
  endfacet
  facet normal -0.826236 -0.563325 0
    outer loop
      vertex -50.9354 -37.3924 -6.35
      vertex -50.7927 -37.6017 -6.35
      vertex -50.7927 -37.6017 6.35
    endloop
  endfacet
endsolid OpenSCAD_Model
