solid OpenSCAD_Model
  facet normal 0 0 -1
    outer loop
      vertex 62.6268 12.9283 -6.35
      vertex 62.8461 12.8017 -6.35
      vertex 63.0517 12.6538 -6.35
    endloop
  endfacet
  facet normal 0.998761 0.0497603 -0
    outer loop
      vertex 63.9954 10.9209 1.26998
      vertex 63.9954 10.9209 6.35
      vertex 64.008 10.668 6.35
    endloop
  endfacet
  facet normal 0 0 -1
    outer loop
      vertex 61.4047 13.2072 -6.35
      vertex 63.0517 12.6538 -6.35
      vertex 63.8951 11.4167 -6.35
    endloop
  endfacet
  facet normal 0.901116 0.433578 0
    outer loop
      vertex 63.6987 11.8828 6.35
      vertex 63.8085 11.6546 6.35
      vertex 63.8085 11.6546 1.26998
    endloop
  endfacet
  facet normal -0 0 -1
    outer loop
      vertex 61.909 -13.1694 -6.35
      vertex -61.5313 -13.2072 -6.35
      vertex -63.9295 -11.2948 -6.35
    endloop
  endfacet
  facet normal 0 0 1
    outer loop
      vertex 63.6987 11.8828 6.35
      vertex -63.8548 -11.5367 6.35
      vertex 63.8951 11.4167 6.35
    endloop
  endfacet
  facet normal 0.939678 0.34206 0
    outer loop
      vertex 63.8951 11.4167 6.35
      vertex 63.8951 11.4167 -6.35
      vertex 63.8085 11.6546 1.26998
    endloop
  endfacet
  facet normal 1 0 0
    outer loop
      vertex 64.008 -10.668 -6.35
      vertex 64.008 10.668 -6.35
      vertex 64.008 10.668 6.35
    endloop
  endfacet
  facet normal 0 0 1
    outer loop
      vertex 63.8951 11.4167 6.35
      vertex 63.8085 11.6546 6.35
      vertex 63.6987 11.8828 6.35
    endloop
  endfacet
  facet normal 0.939678 0.34206 -0
    outer loop
      vertex 63.8085 11.6546 1.26998
      vertex 63.8085 11.6546 6.35
      vertex 63.8951 11.4167 6.35
    endloop
  endfacet
  facet normal 0 0 -1
    outer loop
      vertex -63.9295 -11.2948 -6.35
      vertex -62.0332 13.1443 -6.35
      vertex 63.8951 11.4167 -6.35
    endloop
  endfacet
  facet normal 0 0 1
    outer loop
      vertex -63.8548 -11.5367 6.35
      vertex 63.9954 -10.9209 6.35
      vertex 63.8951 11.4167 6.35
    endloop
  endfacet
  facet normal 0 0 -1
    outer loop
      vertex 63.8951 11.4167 -6.35
      vertex 61.909 -13.1694 -6.35
      vertex -63.9295 -11.2948 -6.35
    endloop
  endfacet
  facet normal 0 0 1
    outer loop
      vertex -63.8548 -11.5367 6.35
      vertex -61.5313 -13.2072 6.35
      vertex 61.4047 -13.2072 6.35
    endloop
  endfacet
  facet normal 0 0 1
    outer loop
      vertex 62.6268 12.9283 6.35
      vertex 61.909 13.1694 6.35
      vertex 61.4047 13.2072 6.35
    endloop
  endfacet
  facet normal 0 0 -1
    outer loop
      vertex -62.0332 13.1443 -6.35
      vertex -61.7838 13.1883 -6.35
      vertex -61.5313 13.2072 -6.35
    endloop
  endfacet
  facet normal 0.969065 0.246807 0
    outer loop
      vertex 63.8951 11.4167 6.35
      vertex 63.9576 11.1713 1.26998
      vertex 63.8951 11.4167 -6.35
    endloop
  endfacet
  facet normal 0.988797 0.149267 -0
    outer loop
      vertex 63.9576 11.1713 1.26998
      vertex 63.9576 11.1713 6.35
      vertex 63.9954 10.9209 1.26998
    endloop
  endfacet
  facet normal 0 0 1
    outer loop
      vertex 63.9954 -10.9209 6.35
      vertex 64.008 -10.668 6.35
      vertex 64.008 10.668 6.35
    endloop
  endfacet
  facet normal 0.988797 -0.149267 0
    outer loop
      vertex 63.9954 -10.9209 6.35
      vertex 63.9576 -11.1713 -6.35
      vertex 63.9954 -10.9209 -6.35
    endloop
  endfacet
  facet normal 0 -1 0
    outer loop
      vertex -61.5313 -13.2072 -6.35
      vertex 61.4047 -13.2072 -6.35
      vertex 61.4047 -13.2072 6.35
    endloop
  endfacet
  facet normal 0 0 -1
    outer loop
      vertex -61.5313 -13.2072 -6.35
      vertex -62.9507 -12.7303 -6.35
      vertex -63.9295 -11.2948 -6.35
    endloop
  endfacet
  facet normal 0 0 -1
    outer loop
      vertex -62.0332 13.1443 -6.35
      vertex 61.4047 13.2072 -6.35
      vertex 63.8951 11.4167 -6.35
    endloop
  endfacet
  facet normal 0 0 1
    outer loop
      vertex 63.6987 11.8828 6.35
      vertex 61.4047 13.2072 6.35
      vertex -64.0049 10.7946 6.35
    endloop
  endfacet
  facet normal -1 0 0
    outer loop
      vertex -64.0049 10.7946 -6.35
      vertex -64.0049 -10.7946 6.35
      vertex -64.0049 10.7946 6.35
    endloop
  endfacet
  facet normal 0 0 1
    outer loop
      vertex 63.6987 11.8828 6.35
      vertex -64.0049 10.7946 6.35
      vertex -63.8548 -11.5367 6.35
    endloop
  endfacet
  facet normal 0.969065 0.246807 0
    outer loop
      vertex 63.9576 11.1713 1.26998
      vertex 63.9576 11.1713 -1.27
      vertex 63.8951 11.4167 -6.35
    endloop
  endfacet
  facet normal 0.988797 0.149267 0
    outer loop
      vertex 63.9954 10.9209 1.26998
      vertex 63.9576 11.1713 -1.27
      vertex 63.9576 11.1713 1.26998
    endloop
  endfacet
  facet normal 0 -0 1
    outer loop
      vertex 63.9954 -10.9209 6.35
      vertex 64.008 10.668 6.35
      vertex 63.8951 11.4167 6.35
    endloop
  endfacet
  facet normal 0 -0 -1
    outer loop
      vertex 63.8951 11.4167 -6.35
      vertex 63.9954 -10.9209 -6.35
      vertex 61.909 -13.1694 -6.35
    endloop
  endfacet
  facet normal 0.0248836 -0.99969 0
    outer loop
      vertex 61.6578 -13.2009 -1.27
      vertex 61.6578 -13.2009 6.35
      vertex 61.4047 -13.2072 6.35
    endloop
  endfacet
  facet normal -0 0 1
    outer loop
      vertex -63.8548 -11.5367 6.35
      vertex 61.4047 -13.2072 6.35
      vertex 63.9954 -10.9209 6.35
    endloop
  endfacet
  facet normal 0 0 -1
    outer loop
      vertex 63.8951 11.4167 -6.35
      vertex 64.008 -10.668 -6.35
      vertex 63.9954 -10.9209 -6.35
    endloop
  endfacet
  facet normal 0.998761 -0.0497603 0
    outer loop
      vertex 63.9954 -10.9209 -6.35
      vertex 64.008 -10.668 -6.35
      vertex 63.9954 -10.9209 6.35
    endloop
  endfacet
  facet normal 0 0 1
    outer loop
      vertex -62.9507 -12.7303 6.35
      vertex -62.277 -13.0757 6.35
      vertex -61.5313 -13.2072 6.35
    endloop
  endfacet
  facet normal 0 0 1
    outer loop
      vertex -63.8548 -11.5367 6.35
      vertex -62.9507 -12.7303 6.35
      vertex -61.5313 -13.2072 6.35
    endloop
  endfacet
  facet normal 0 0 -1
    outer loop
      vertex 61.4047 13.2072 -6.35
      vertex 62.396 13.0324 -6.35
      vertex 63.0517 12.6538 -6.35
    endloop
  endfacet
  facet normal 0.853106 0.521738 0
    outer loop
      vertex 63.6987 11.8828 6.35
      vertex 63.6987 11.8828 -6.35
      vertex 63.5666 12.0988 -6.35
    endloop
  endfacet
  facet normal 0 0 1
    outer loop
      vertex 61.4047 13.2072 6.35
      vertex -61.5313 13.2072 6.35
      vertex -64.0049 10.7946 6.35
    endloop
  endfacet
  facet normal 0 1 -0
    outer loop
      vertex 61.4047 13.2072 -6.35
      vertex -61.5313 13.2072 -6.35
      vertex 61.4047 13.2072 6.35
    endloop
  endfacet
  facet normal 0 0 -1
    outer loop
      vertex -63.9295 -11.2948 -6.35
      vertex -64.0049 10.7946 -6.35
      vertex -62.0332 13.1443 -6.35
    endloop
  endfacet
  facet normal 0 0 -1
    outer loop
      vertex -63.9295 -11.2948 -6.35
      vertex -64.0049 -10.7946 -6.35
      vertex -64.0049 10.7946 -6.35
    endloop
  endfacet
  facet normal 0 0 -1
    outer loop
      vertex -63.9295 -11.2948 -6.35
      vertex -63.9796 -11.0466 -6.35
      vertex -64.0049 -10.7946 -6.35
    endloop
  endfacet
  facet normal 0 0 1
    outer loop
      vertex -64.0049 10.7946 6.35
      vertex -64.0049 -10.7946 6.35
      vertex -63.8548 -11.5367 6.35
    endloop
  endfacet
  facet normal 0.969065 0.246807 0
    outer loop
      vertex 63.8951 11.4167 6.35
      vertex 63.9576 11.1713 6.35
      vertex 63.9576 11.1713 1.26998
    endloop
  endfacet
  facet normal 0 0 1
    outer loop
      vertex 64.008 10.668 6.35
      vertex 63.9576 11.1713 6.35
      vertex 63.8951 11.4167 6.35
    endloop
  endfacet
  facet normal 0 0 -1
    outer loop
      vertex -61.5313 -13.2072 -6.35
      vertex -62.277 -13.0757 -6.35
      vertex -62.9507 -12.7303 -6.35
    endloop
  endfacet
  facet normal -0 -1 0
    outer loop
      vertex 61.4047 -13.2072 6.35
      vertex -61.5313 -13.2072 6.35
      vertex -61.5313 -13.2072 -6.35
    endloop
  endfacet
  facet normal 0 0 -1
    outer loop
      vertex 61.909 -13.1694 -6.35
      vertex 61.4047 -13.2072 -6.35
      vertex -61.5313 -13.2072 -6.35
    endloop
  endfacet
  facet normal 0.0248836 -0.99969 0
    outer loop
      vertex 61.4047 -13.2072 -6.35
      vertex 61.6578 -13.2009 -1.27
      vertex 61.4047 -13.2072 6.35
    endloop
  endfacet
  facet normal 0.732878 -0.68036 0
    outer loop
      vertex 63.2415 -12.4863 -1.27
      vertex 63.2415 -12.4863 -6.35
      vertex 63.4138 -12.3007 -6.35
    endloop
  endfacet
  facet normal 0 0 1
    outer loop
      vertex 61.4047 -13.2072 6.35
      vertex 63.0517 -12.6539 6.35
      vertex 63.9954 -10.9209 6.35
    endloop
  endfacet
  facet normal 0.988797 0.149267 0
    outer loop
      vertex 63.9954 10.9209 1.26998
      vertex 63.9954 10.9209 -6.35
      vertex 63.9576 11.1713 -1.27
    endloop
  endfacet
  facet normal 0.998761 0.0497603 0
    outer loop
      vertex 64.008 10.668 6.35
      vertex 64.008 10.668 -6.35
      vertex 63.9954 10.9209 1.26998
    endloop
  endfacet
  facet normal 0 0 1
    outer loop
      vertex -63.8548 -11.5367 6.35
      vertex -63.6354 -11.9924 6.35
      vertex -63.4927 -12.2017 6.35
    endloop
  endfacet
  facet normal 0 0 -1
    outer loop
      vertex -62.9507 -12.7303 -6.35
      vertex -63.6354 -11.9924 -6.35
      vertex -63.9295 -11.2948 -6.35
    endloop
  endfacet
  facet normal 0.901116 0.433578 0
    outer loop
      vertex 63.8085 11.6546 1.26998
      vertex 63.6987 11.8828 -6.35
      vertex 63.6987 11.8828 6.35
    endloop
  endfacet
  facet normal 0 0 -1
    outer loop
      vertex 63.0517 12.6538 -6.35
      vertex 63.5666 12.0988 -6.35
      vertex 63.8951 11.4167 -6.35
    endloop
  endfacet
  facet normal 0 0 1
    outer loop
      vertex 63.6987 11.8828 6.35
      vertex 62.6268 12.9283 6.35
      vertex 61.4047 13.2072 6.35
    endloop
  endfacet
  facet normal 0 0 1
    outer loop
      vertex 63.6987 11.8828 6.35
      vertex 63.0517 12.6538 6.35
      vertex 62.6268 12.9283 6.35
    endloop
  endfacet
  facet normal 0 0 -1
    outer loop
      vertex -62.0332 13.1443 -6.35
      vertex -61.5313 13.2072 -6.35
      vertex 61.4047 13.2072 -6.35
    endloop
  endfacet
  facet normal 0 1 0
    outer loop
      vertex -61.5313 13.2072 -6.35
      vertex -61.5313 13.2072 6.35
      vertex 61.4047 13.2072 6.35
    endloop
  endfacet
  facet normal 0 0 -1
    outer loop
      vertex -64.0049 10.7946 -6.35
      vertex -63.33 12.3956 -6.35
      vertex -62.0332 13.1443 -6.35
    endloop
  endfacet
  facet normal 0 0 1
    outer loop
      vertex -61.5313 13.2072 6.35
      vertex -62.738 12.8677 6.35
      vertex -63.7565 11.7701 6.35
    endloop
  endfacet
  facet normal -0.994998 -0.0998946 0
    outer loop
      vertex -64.0049 -10.7946 -6.35
      vertex -63.9796 -11.0466 -1.27
      vertex -64.0049 -10.7946 6.35
    endloop
  endfacet
  facet normal -1 0 0
    outer loop
      vertex -64.0049 10.7946 -6.35
      vertex -64.0049 -10.7946 -6.35
      vertex -64.0049 -10.7946 6.35
    endloop
  endfacet
  facet normal -0.95548 -0.295057 0
    outer loop
      vertex -63.8548 -11.5367 6.35
      vertex -63.9295 -11.2948 6.35
      vertex -63.9295 -11.2948 -6.35
    endloop
  endfacet
  facet normal 0 0 1
    outer loop
      vertex -64.0049 -10.7946 6.35
      vertex -63.9295 -11.2948 6.35
      vertex -63.8548 -11.5367 6.35
    endloop
  endfacet
  facet normal 0.988797 0.149267 0
    outer loop
      vertex 63.9576 11.1713 6.35
      vertex 63.9954 10.9209 6.35
      vertex 63.9954 10.9209 1.26998
    endloop
  endfacet
  facet normal 0 0 1
    outer loop
      vertex 64.008 10.668 6.35
      vertex 63.9954 10.9209 6.35
      vertex 63.9576 11.1713 6.35
    endloop
  endfacet
  facet normal -0.623249 -0.782023 -0
    outer loop
      vertex -62.9507 -12.7303 6.35
      vertex -63.1487 -12.5725 6.35
      vertex -62.9507 -12.7303 -6.35
    endloop
  endfacet
  facet normal 0 0 1
    outer loop
      vertex -63.8548 -11.5367 6.35
      vertex -63.4927 -12.2017 6.35
      vertex -62.9507 -12.7303 6.35
    endloop
  endfacet
  facet normal -0.542613 -0.839983 0
    outer loop
      vertex -62.738 -12.8677 -6.35
      vertex -62.738 -12.8677 6.35
      vertex -62.9507 -12.7303 6.35
    endloop
  endfacet
  facet normal 0 0 -1
    outer loop
      vertex -62.277 -13.0757 -6.35
      vertex -62.738 -12.8677 -6.35
      vertex -62.9507 -12.7303 -6.35
    endloop
  endfacet
  facet normal 0 0 -1
    outer loop
      vertex 61.909 -13.1694 -6.35
      vertex 61.6578 -13.2009 -6.35
      vertex 61.4047 -13.2072 -6.35
    endloop
  endfacet
  facet normal 0.124424 -0.992229 0
    outer loop
      vertex 61.909 -13.1694 -6.35
      vertex 61.909 -13.1694 6.35
      vertex 61.6578 -13.2009 -1.27
    endloop
  endfacet
  facet normal 0 0 1
    outer loop
      vertex 62.396 -13.0324 6.35
      vertex 62.6268 -12.9283 6.35
      vertex 63.0517 -12.6539 6.35
    endloop
  endfacet
  facet normal 0 0 1
    outer loop
      vertex 61.4047 -13.2072 6.35
      vertex 62.396 -13.0324 6.35
      vertex 63.0517 -12.6539 6.35
    endloop
  endfacet
  facet normal 0.222321 -0.974974 0
    outer loop
      vertex 61.909 -13.1694 -6.35
      vertex 62.1559 -13.1131 -1.27
      vertex 61.909 -13.1694 6.35
    endloop
  endfacet
  facet normal 0 0 -1
    outer loop
      vertex 63.9954 -10.9209 -6.35
      vertex 63.4138 -12.3007 -6.35
      vertex 61.909 -13.1694 -6.35
    endloop
  endfacet
  facet normal 0.998761 -0.0497603 0
    outer loop
      vertex 64.008 -10.668 -6.35
      vertex 64.008 -10.668 6.35
      vertex 63.9954 -10.9209 6.35
    endloop
  endfacet
  facet normal 1 0 0
    outer loop
      vertex 64.008 10.668 6.35
      vertex 64.008 -10.668 6.35
      vertex 64.008 -10.668 -6.35
    endloop
  endfacet
  facet normal 0 0 -1
    outer loop
      vertex 63.8951 11.4167 -6.35
      vertex 64.008 10.668 -6.35
      vertex 64.008 -10.668 -6.35
    endloop
  endfacet
  facet normal 0.998761 0.0497603 0
    outer loop
      vertex 64.008 10.668 -6.35
      vertex 63.9954 10.9209 -6.35
      vertex 63.9954 10.9209 1.26998
    endloop
  endfacet
  facet normal -0.95548 -0.295057 0
    outer loop
      vertex -63.9295 -11.2948 -6.35
      vertex -63.8548 -11.5367 -6.35
      vertex -63.8548 -11.5367 6.35
    endloop
  endfacet
  facet normal 0 0 -1
    outer loop
      vertex -63.6354 -11.9924 -6.35
      vertex -63.8548 -11.5367 -6.35
      vertex -63.9295 -11.2948 -6.35
    endloop
  endfacet
  facet normal 0.797386 0.60347 0
    outer loop
      vertex 63.4138 12.3007 1.26998
      vertex 63.5666 12.0988 1.26998
      vertex 63.5666 12.0988 -6.35
    endloop
  endfacet
  facet normal 0.732878 0.68036 -0
    outer loop
      vertex 63.4138 12.3007 1.26998
      vertex 63.2415 12.4863 -1.27
      vertex 63.4138 12.3007 6.35
    endloop
  endfacet
  facet normal 0.939678 0.34206 0
    outer loop
      vertex 63.8951 11.4167 -6.35
      vertex 63.8085 11.6546 -6.35
      vertex 63.8085 11.6546 1.26998
    endloop
  endfacet
  facet normal 0 0 -1
    outer loop
      vertex 63.5666 12.0988 -6.35
      vertex 63.6987 11.8828 -6.35
      vertex 63.8951 11.4167 -6.35
    endloop
  endfacet
  facet normal 0.411153 0.911566 -0
    outer loop
      vertex 62.396 13.0324 -6.35
      vertex 62.396 13.0324 6.35
      vertex 62.6268 12.9283 6.35
    endloop
  endfacet
  facet normal 0 0 -1
    outer loop
      vertex 62.396 13.0324 -6.35
      vertex 62.6268 12.9283 -6.35
      vertex 63.0517 12.6538 -6.35
    endloop
  endfacet
  facet normal 0 0 -1
    outer loop
      vertex -63.6354 11.9924 -6.35
      vertex -63.4927 12.2016 -6.35
      vertex -63.33 12.3956 -6.35
    endloop
  endfacet
  facet normal 0 0 1
    outer loop
      vertex -61.5313 13.2072 6.35
      vertex -63.7565 11.7701 6.35
      vertex -64.0049 10.7946 6.35
    endloop
  endfacet
  facet normal 0 0 -1
    outer loop
      vertex -64.0049 10.7946 -6.35
      vertex -63.8548 11.5367 -6.35
      vertex -63.33 12.3956 -6.35
    endloop
  endfacet
  facet normal 0 0 1
    outer loop
      vertex -63.7565 11.7701 6.35
      vertex -63.9295 11.2947 6.35
      vertex -64.0049 10.7946 6.35
    endloop
  endfacet
  facet normal -0.98023 -0.197863 -0
    outer loop
      vertex -63.9295 -11.2948 6.35
      vertex -63.9796 -11.0466 -1.27
      vertex -63.9295 -11.2948 -6.35
    endloop
  endfacet
  facet normal -0.994998 -0.0998946 0
    outer loop
      vertex -63.9796 -11.0466 -1.27
      vertex -63.9796 -11.0466 6.35
      vertex -64.0049 -10.7946 6.35
    endloop
  endfacet
  facet normal -0.826236 -0.563325 0
    outer loop
      vertex -63.4927 -12.2017 6.35
      vertex -63.6354 -11.9924 6.35
      vertex -63.6354 -11.9924 -6.35
    endloop
  endfacet
  facet normal 0 0 1
    outer loop
      vertex -63.4927 -12.2017 6.35
      vertex -63.33 -12.3956 6.35
      vertex -62.9507 -12.7303 6.35
    endloop
  endfacet
  facet normal 0 0 -1
    outer loop
      vertex -61.5313 -13.2072 -6.35
      vertex -62.0332 -13.1443 -6.35
      vertex -62.277 -13.0757 -6.35
    endloop
  endfacet
  facet normal 0 0 1
    outer loop
      vertex -62.277 -13.0757 6.35
      vertex -62.0332 -13.1443 6.35
      vertex -61.5313 -13.2072 6.35
    endloop
  endfacet
  facet normal -0.365322 -0.930881 -0
    outer loop
      vertex -62.277 -13.0757 6.35
      vertex -62.5127 -12.9832 -6.35
      vertex -62.277 -13.0757 -6.35
    endloop
  endfacet
  facet normal -0.542613 -0.839983 0
    outer loop
      vertex -62.9507 -12.7303 -6.35
      vertex -62.738 -12.8677 -6.35
      vertex -62.9507 -12.7303 6.35
    endloop
  endfacet
  facet normal 0.124424 -0.992229 0
    outer loop
      vertex 61.6578 -13.2009 -1.27
      vertex 61.6578 -13.2009 -6.35
      vertex 61.909 -13.1694 -6.35
    endloop
  endfacet
  facet normal 0.0248836 -0.99969 0
    outer loop
      vertex 61.4047 -13.2072 -6.35
      vertex 61.6578 -13.2009 -6.35
      vertex 61.6578 -13.2009 -1.27
    endloop
  endfacet
  facet normal 0 0 1
    outer loop
      vertex 61.909 -13.1694 6.35
      vertex 62.1559 -13.1131 6.35
      vertex 62.396 -13.0324 6.35
    endloop
  endfacet
  facet normal 0 0 1
    outer loop
      vertex 61.4047 -13.2072 6.35
      vertex 61.909 -13.1694 6.35
      vertex 62.396 -13.0324 6.35
    endloop
  endfacet
  facet normal 0 0 -1
    outer loop
      vertex 63.8951 -11.4167 -6.35
      vertex 63.8085 -11.6546 -6.35
      vertex 63.6987 -11.8828 -6.35
    endloop
  endfacet
  facet normal 0.988797 -0.149267 0
    outer loop
      vertex 63.9954 -10.9209 6.35
      vertex 63.9576 -11.1713 6.35
      vertex 63.9576 -11.1713 -6.35
    endloop
  endfacet
  facet normal 0 0 -1
    outer loop
      vertex 63.4138 -12.3007 -6.35
      vertex 62.6268 -12.9283 -6.35
      vertex 61.909 -13.1694 -6.35
    endloop
  endfacet
  facet normal 0.499962 -0.866047 0
    outer loop
      vertex 62.6268 -12.9283 -6.35
      vertex 62.8461 -12.8017 -1.27
      vertex 62.6268 -12.9283 6.35
    endloop
  endfacet
  facet normal 0 0 -1
    outer loop
      vertex 63.8951 11.4167 -6.35
      vertex 63.9954 10.9209 -6.35
      vertex 64.008 10.668 -6.35
    endloop
  endfacet
  facet normal 0.988797 0.149267 0
    outer loop
      vertex 63.9954 10.9209 -6.35
      vertex 63.9576 11.1713 -6.35
      vertex 63.9576 11.1713 -1.27
    endloop
  endfacet
  facet normal -0.921598 -0.388145 0
    outer loop
      vertex -63.8548 -11.5367 -6.35
      vertex -63.7565 -11.7701 -6.35
      vertex -63.8548 -11.5367 6.35
    endloop
  endfacet
  facet normal 0 0 -1
    outer loop
      vertex -63.6354 -11.9924 -6.35
      vertex -63.7565 -11.7701 -6.35
      vertex -63.8548 -11.5367 -6.35
    endloop
  endfacet
  facet normal 0.853106 0.521738 -0
    outer loop
      vertex 63.5666 12.0988 1.26998
      vertex 63.5666 12.0988 6.35
      vertex 63.6987 11.8828 6.35
    endloop
  endfacet
  facet normal 0.661687 0.74978 0
    outer loop
      vertex 63.0517 12.6538 6.35
      vertex 63.2415 12.4863 -1.27
      vertex 63.0517 12.6538 -6.35
    endloop
  endfacet
  facet normal 0.797386 0.60347 -0
    outer loop
      vertex 63.4138 12.3007 1.26998
      vertex 63.4138 12.3007 6.35
      vertex 63.5666 12.0988 1.26998
    endloop
  endfacet
  facet normal 0.853106 0.521738 -0
    outer loop
      vertex 63.5666 12.0988 -6.35
      vertex 63.5666 12.0988 1.26998
      vertex 63.6987 11.8828 6.35
    endloop
  endfacet
  facet normal 0.797386 0.60347 0
    outer loop
      vertex 63.5666 12.0988 -6.35
      vertex 63.4138 12.3007 -6.35
      vertex 63.4138 12.3007 1.26998
    endloop
  endfacet
  facet normal 0 0 -1
    outer loop
      vertex 63.0517 12.6538 -6.35
      vertex 63.4138 12.3007 -6.35
      vertex 63.5666 12.0988 -6.35
    endloop
  endfacet
  facet normal 0 0 -1
    outer loop
      vertex 63.6987 11.8828 -6.35
      vertex 63.8085 11.6546 -6.35
      vertex 63.8951 11.4167 -6.35
    endloop
  endfacet
  facet normal 0.901116 0.433578 0
    outer loop
      vertex 63.8085 11.6546 1.26998
      vertex 63.8085 11.6546 -6.35
      vertex 63.6987 11.8828 -6.35
    endloop
  endfacet
  facet normal 0.124424 0.992229 -0
    outer loop
      vertex 61.909 13.1694 -6.35
      vertex 61.6578 13.2009 6.35
      vertex 61.909 13.1694 6.35
    endloop
  endfacet
  facet normal 0 0 1
    outer loop
      vertex 61.909 13.1694 6.35
      vertex 61.6578 13.2009 6.35
      vertex 61.4047 13.2072 6.35
    endloop
  endfacet
  facet normal 0.411153 0.911566 0
    outer loop
      vertex 62.6268 12.9283 6.35
      vertex 62.6268 12.9283 -6.35
      vertex 62.396 13.0324 -6.35
    endloop
  endfacet
  facet normal 0.499962 0.866047 0
    outer loop
      vertex 62.6268 12.9283 6.35
      vertex 62.8461 12.8017 6.35
      vertex 62.6268 12.9283 -6.35
    endloop
  endfacet
  facet normal 0 0 1
    outer loop
      vertex -61.5313 13.2072 6.35
      vertex -62.0332 13.1443 6.35
      vertex -62.738 12.8677 6.35
    endloop
  endfacet
  facet normal -0.0746427 0.99721 0
    outer loop
      vertex -61.5313 13.2072 -6.35
      vertex -61.7838 13.1883 1.26998
      vertex -61.5313 13.2072 6.35
    endloop
  endfacet
  facet normal 0 0 -1
    outer loop
      vertex -63.8548 11.5367 -6.35
      vertex -63.6354 11.9924 -6.35
      vertex -63.33 12.3956 -6.35
    endloop
  endfacet
  facet normal 0 0 1
    outer loop
      vertex -63.7565 11.7701 6.35
      vertex -63.8548 11.5367 6.35
      vertex -63.9295 11.2947 6.35
    endloop
  endfacet
  facet normal 0 0 -1
    outer loop
      vertex -64.0049 10.7946 -6.35
      vertex -63.9295 11.2947 -6.35
      vertex -63.8548 11.5367 -6.35
    endloop
  endfacet
  facet normal 0 0 1
    outer loop
      vertex -63.9295 11.2947 6.35
      vertex -63.9796 11.0466 6.35
      vertex -64.0049 10.7946 6.35
    endloop
  endfacet
  facet normal -0.98023 -0.197863 -0
    outer loop
      vertex -63.9796 -11.0466 -1.27
      vertex -63.9796 -11.0466 -6.35
      vertex -63.9295 -11.2948 -6.35
    endloop
  endfacet
  facet normal -0.994998 -0.0998946 0
    outer loop
      vertex -64.0049 -10.7946 -6.35
      vertex -63.9796 -11.0466 -6.35
      vertex -63.9796 -11.0466 -1.27
    endloop
  endfacet
  facet normal -0.98023 -0.197863 0
    outer loop
      vertex -63.9295 -11.2948 6.35
      vertex -63.9796 -11.0466 6.35
      vertex -63.9796 -11.0466 -1.27
    endloop
  endfacet
  facet normal 0 0 1
    outer loop
      vertex -64.0049 -10.7946 6.35
      vertex -63.9796 -11.0466 6.35
      vertex -63.9295 -11.2948 6.35
    endloop
  endfacet
  facet normal -0.623249 -0.782023 -0
    outer loop
      vertex -63.1487 -12.5725 6.35
      vertex -63.1487 -12.5725 -6.35
      vertex -62.9507 -12.7303 -6.35
    endloop
  endfacet
  facet normal -0.698368 -0.715739 -0
    outer loop
      vertex -63.33 -12.3956 6.35
      vertex -63.33 -12.3956 -6.35
      vertex -63.1487 -12.5725 6.35
    endloop
  endfacet
  facet normal -0.921598 -0.388145 0
    outer loop
      vertex -63.7565 -11.7701 -6.35
      vertex -63.7565 -11.7701 6.35
      vertex -63.8548 -11.5367 6.35
    endloop
  endfacet
  facet normal -0.878152 -0.478382 0
    outer loop
      vertex -63.6354 -11.9924 -6.35
      vertex -63.6354 -11.9924 6.35
      vertex -63.7565 -11.7701 -6.35
    endloop
  endfacet
  facet normal -0.27086 -0.962619 0
    outer loop
      vertex -62.0332 -13.1443 -1.27
      vertex -62.277 -13.0757 6.35
      vertex -62.277 -13.0757 -6.35
    endloop
  endfacet
  facet normal -0.27086 -0.962619 0
    outer loop
      vertex -62.0332 -13.1443 -1.27
      vertex -62.0332 -13.1443 6.35
      vertex -62.277 -13.0757 6.35
    endloop
  endfacet
  facet normal -0.17374 -0.984792 0
    outer loop
      vertex -62.0332 -13.1443 -6.35
      vertex -61.7838 -13.1883 1.26998
      vertex -62.0332 -13.1443 -1.27
    endloop
  endfacet
  facet normal -0.27086 -0.962619 0
    outer loop
      vertex -62.277 -13.0757 -6.35
      vertex -62.0332 -13.1443 -6.35
      vertex -62.0332 -13.1443 -1.27
    endloop
  endfacet
  facet normal -0.0746427 -0.99721 -0
    outer loop
      vertex -61.7838 -13.1883 1.26998
      vertex -61.7838 -13.1883 -6.35
      vertex -61.5313 -13.2072 -6.35
    endloop
  endfacet
  facet normal -0.0746427 -0.99721 -0
    outer loop
      vertex -61.5313 -13.2072 6.35
      vertex -61.7838 -13.1883 1.26998
      vertex -61.5313 -13.2072 -6.35
    endloop
  endfacet
  facet normal 0.124424 -0.992229 0
    outer loop
      vertex 61.909 -13.1694 6.35
      vertex 61.6578 -13.2009 6.35
      vertex 61.6578 -13.2009 -1.27
    endloop
  endfacet
  facet normal 0 0 1
    outer loop
      vertex 61.4047 -13.2072 6.35
      vertex 61.6578 -13.2009 6.35
      vertex 61.909 -13.1694 6.35
    endloop
  endfacet
  facet normal 0.318596 -0.947891 0
    outer loop
      vertex 62.1559 -13.1131 -1.27
      vertex 62.1559 -13.1131 -6.35
      vertex 62.396 -13.0324 6.35
    endloop
  endfacet
  facet normal 0.222321 -0.974974 0
    outer loop
      vertex 61.909 -13.1694 -6.35
      vertex 62.1559 -13.1131 -6.35
      vertex 62.1559 -13.1131 -1.27
    endloop
  endfacet
  facet normal 0 0 -1
    outer loop
      vertex 63.8951 -11.4167 -6.35
      vertex 63.6987 -11.8828 -6.35
      vertex 63.4138 -12.3007 -6.35
    endloop
  endfacet
  facet normal 0 0 -1
    outer loop
      vertex 63.9954 -10.9209 -6.35
      vertex 63.8951 -11.4167 -6.35
      vertex 63.4138 -12.3007 -6.35
    endloop
  endfacet
  facet normal 0 0 1
    outer loop
      vertex 63.6987 -11.8828 6.35
      vertex 63.8085 -11.6546 6.35
      vertex 63.8951 -11.4167 6.35
    endloop
  endfacet
  facet normal 0 0 1
    outer loop
      vertex 63.0517 -12.6539 6.35
      vertex 63.6987 -11.8828 6.35
      vertex 63.9954 -10.9209 6.35
    endloop
  endfacet
  facet normal 0.411153 -0.911566 0
    outer loop
      vertex 62.6268 -12.9283 -6.35
      vertex 62.6268 -12.9283 6.35
      vertex 62.396 -13.0324 6.35
    endloop
  endfacet
  facet normal 0 0 1
    outer loop
      vertex 62.6268 -12.9283 6.35
      vertex 62.8461 -12.8017 6.35
      vertex 63.0517 -12.6539 6.35
    endloop
  endfacet
  facet normal 0 0 -1
    outer loop
      vertex 63.4138 -12.3007 -6.35
      vertex 63.0517 -12.6539 -6.35
      vertex 62.6268 -12.9283 -6.35
    endloop
  endfacet
  facet normal 0.661909 -0.749584 0
    outer loop
      vertex 63.0517 -12.6539 -6.35
      vertex 63.2415 -12.4863 -1.27
      vertex 63.0517 -12.6539 6.35
    endloop
  endfacet
  facet normal 0 0 -1
    outer loop
      vertex 63.8951 11.4167 -6.35
      vertex 63.9576 11.1713 -6.35
      vertex 63.9954 10.9209 -6.35
    endloop
  endfacet
  facet normal 0.969065 0.246807 0
    outer loop
      vertex 63.9576 11.1713 -1.27
      vertex 63.9576 11.1713 -6.35
      vertex 63.8951 11.4167 -6.35
    endloop
  endfacet
  facet normal 0 0 1
    outer loop
      vertex 63.0517 12.6538 6.35
      vertex 62.8461 12.8017 6.35
      vertex 62.6268 12.9283 6.35
    endloop
  endfacet
  facet normal 0.583961 0.811781 -0
    outer loop
      vertex 63.0517 12.6538 -6.35
      vertex 62.8461 12.8017 6.35
      vertex 63.0517 12.6538 6.35
    endloop
  endfacet
  facet normal 0 0 1
    outer loop
      vertex 63.4138 12.3007 6.35
      vertex 63.2415 12.4863 6.35
      vertex 63.0517 12.6538 6.35
    endloop
  endfacet
  facet normal 0 0 1
    outer loop
      vertex 63.6987 11.8828 6.35
      vertex 63.4138 12.3007 6.35
      vertex 63.0517 12.6538 6.35
    endloop
  endfacet
  facet normal 0.732878 0.68036 -0
    outer loop
      vertex 63.4138 12.3007 -6.35
      vertex 63.2415 12.4863 -1.27
      vertex 63.4138 12.3007 1.26998
    endloop
  endfacet
  facet normal 0.661687 0.74978 0
    outer loop
      vertex 63.2415 12.4863 -1.27
      vertex 63.2415 12.4863 -6.35
      vertex 63.0517 12.6538 -6.35
    endloop
  endfacet
  facet normal 0.318241 0.94801 0
    outer loop
      vertex 62.396 13.0324 -6.35
      vertex 62.1559 13.113 -6.35
      vertex 62.1559 13.113 -1.27
    endloop
  endfacet
  facet normal 0 0 1
    outer loop
      vertex 62.6268 12.9283 6.35
      vertex 62.396 13.0324 6.35
      vertex 61.909 13.1694 6.35
    endloop
  endfacet
  facet normal 0.222696 0.974888 0
    outer loop
      vertex 61.909 13.1694 6.35
      vertex 62.1559 13.113 -1.27
      vertex 61.909 13.1694 -6.35
    endloop
  endfacet
  facet normal 0 0 -1
    outer loop
      vertex 61.4047 13.2072 -6.35
      vertex 61.909 13.1694 -6.35
      vertex 62.396 13.0324 -6.35
    endloop
  endfacet
  facet normal 0.0248836 0.99969 0
    outer loop
      vertex 61.6578 13.2009 6.35
      vertex 61.6578 13.2009 -6.35
      vertex 61.4047 13.2072 -6.35
    endloop
  endfacet
  facet normal 0.0248836 0.99969 0
    outer loop
      vertex 61.4047 13.2072 6.35
      vertex 61.6578 13.2009 6.35
      vertex 61.4047 13.2072 -6.35
    endloop
  endfacet
  facet normal -0.17374 0.984792 0
    outer loop
      vertex -61.7838 13.1883 1.26998
      vertex -61.7838 13.1883 -6.35
      vertex -62.0332 13.1443 -6.35
    endloop
  endfacet
  facet normal -0.0746427 0.99721 0
    outer loop
      vertex -61.5313 13.2072 -6.35
      vertex -61.7838 13.1883 -6.35
      vertex -61.7838 13.1883 1.26998
    endloop
  endfacet
  facet normal 0 0 1
    outer loop
      vertex -61.5313 13.2072 6.35
      vertex -61.7838 13.1883 6.35
      vertex -62.0332 13.1443 6.35
    endloop
  endfacet
  facet normal 0 0 1
    outer loop
      vertex -62.738 12.8677 6.35
      vertex -63.1487 12.5724 6.35
      vertex -63.33 12.3956 6.35
    endloop
  endfacet
  facet normal 0 0 -1
    outer loop
      vertex -63.8548 11.5367 -6.35
      vertex -63.7565 11.7701 -6.35
      vertex -63.6354 11.9924 -6.35
    endloop
  endfacet
  facet normal -0.878152 0.478382 0
    outer loop
      vertex -63.7565 11.7701 6.35
      vertex -63.6354 11.9924 6.35
      vertex -63.6354 11.9924 -6.35
    endloop
  endfacet
  facet normal -0.955514 0.294946 0
    outer loop
      vertex -63.9295 11.2947 -6.35
      vertex -63.9295 11.2947 6.35
      vertex -63.8548 11.5367 -6.35
    endloop
  endfacet
  facet normal -0.980214 0.197939 0
    outer loop
      vertex -63.9295 11.2947 -6.35
      vertex -63.9796 11.0466 -6.35
      vertex -63.9295 11.2947 6.35
    endloop
  endfacet
  facet normal 0 0 -1
    outer loop
      vertex -64.0049 10.7946 -6.35
      vertex -63.9796 11.0466 -6.35
      vertex -63.9295 11.2947 -6.35
    endloop
  endfacet
  facet normal -0.994998 0.0998946 0
    outer loop
      vertex -64.0049 10.7946 6.35
      vertex -63.9796 11.0466 -6.35
      vertex -64.0049 10.7946 -6.35
    endloop
  endfacet
  facet normal 0 0 1
    outer loop
      vertex -63.33 -12.3956 6.35
      vertex -63.1487 -12.5725 6.35
      vertex -62.9507 -12.7303 6.35
    endloop
  endfacet
  facet normal -0.766047 -0.642784 0
    outer loop
      vertex -63.4927 -12.2017 6.35
      vertex -63.33 -12.3956 -6.35
      vertex -63.33 -12.3956 6.35
    endloop
  endfacet
  facet normal 0 0 -1
    outer loop
      vertex -63.33 -12.3956 -6.35
      vertex -63.4927 -12.2017 -6.35
      vertex -63.6354 -11.9924 -6.35
    endloop
  endfacet
  facet normal 0 0 -1
    outer loop
      vertex -62.9507 -12.7303 -6.35
      vertex -63.33 -12.3956 -6.35
      vertex -63.6354 -11.9924 -6.35
    endloop
  endfacet
  facet normal -0.878152 -0.478382 0
    outer loop
      vertex -63.6354 -11.9924 6.35
      vertex -63.7565 -11.7701 6.35
      vertex -63.7565 -11.7701 -6.35
    endloop
  endfacet
  facet normal 0 0 1
    outer loop
      vertex -63.8548 -11.5367 6.35
      vertex -63.7565 -11.7701 6.35
      vertex -63.6354 -11.9924 6.35
    endloop
  endfacet
  facet normal -0.456196 -0.889879 0
    outer loop
      vertex -62.5127 -12.9832 -6.35
      vertex -62.5127 -12.9832 6.35
      vertex -62.738 -12.8677 6.35
    endloop
  endfacet
  facet normal 0 0 1
    outer loop
      vertex -62.9507 -12.7303 6.35
      vertex -62.738 -12.8677 6.35
      vertex -62.277 -13.0757 6.35
    endloop
  endfacet
  facet normal -0.456196 -0.889879 0
    outer loop
      vertex -62.738 -12.8677 -6.35
      vertex -62.5127 -12.9832 -6.35
      vertex -62.738 -12.8677 6.35
    endloop
  endfacet
  facet normal 0 0 -1
    outer loop
      vertex -62.277 -13.0757 -6.35
      vertex -62.5127 -12.9832 -6.35
      vertex -62.738 -12.8677 -6.35
    endloop
  endfacet
  facet normal -0.17374 -0.984792 0
    outer loop
      vertex -61.7838 -13.1883 1.26998
      vertex -62.0332 -13.1443 6.35
      vertex -62.0332 -13.1443 -1.27
    endloop
  endfacet
  facet normal 0 0 1
    outer loop
      vertex -62.0332 -13.1443 6.35
      vertex -61.7838 -13.1883 6.35
      vertex -61.5313 -13.2072 6.35
    endloop
  endfacet
  facet normal -0.17374 -0.984792 0
    outer loop
      vertex -62.0332 -13.1443 -6.35
      vertex -61.7838 -13.1883 -6.35
      vertex -61.7838 -13.1883 1.26998
    endloop
  endfacet
  facet normal 0 0 -1
    outer loop
      vertex -61.5313 -13.2072 -6.35
      vertex -61.7838 -13.1883 -6.35
      vertex -62.0332 -13.1443 -6.35
    endloop
  endfacet
  facet normal 0.222321 -0.974974 0
    outer loop
      vertex 62.1559 -13.1131 -1.27
      vertex 62.1559 -13.1131 6.35
      vertex 61.909 -13.1694 6.35
    endloop
  endfacet
  facet normal 0.318596 -0.947891 0
    outer loop
      vertex 62.396 -13.0324 6.35
      vertex 62.1559 -13.1131 6.35
      vertex 62.1559 -13.1131 -1.27
    endloop
  endfacet
  facet normal 0 0 -1
    outer loop
      vertex 62.6268 -12.9283 -6.35
      vertex 62.1559 -13.1131 -6.35
      vertex 61.909 -13.1694 -6.35
    endloop
  endfacet
  facet normal 0.318596 -0.947891 0
    outer loop
      vertex 62.1559 -13.1131 -6.35
      vertex 62.396 -13.0324 -6.35
      vertex 62.396 -13.0324 6.35
    endloop
  endfacet
  facet normal 0 0 1
    outer loop
      vertex 63.6987 -11.8828 6.35
      vertex 63.8951 -11.4167 6.35
      vertex 63.9954 -10.9209 6.35
    endloop
  endfacet
  facet normal 0 0 -1
    outer loop
      vertex 63.9954 -10.9209 -6.35
      vertex 63.9576 -11.1713 -6.35
      vertex 63.8951 -11.4167 -6.35
    endloop
  endfacet
  facet normal 0.939678 -0.34206 0
    outer loop
      vertex 63.8951 -11.4167 -6.35
      vertex 63.8951 -11.4167 6.35
      vertex 63.8085 -11.6546 -1.27
    endloop
  endfacet
  facet normal 0.969065 -0.246807 0
    outer loop
      vertex 63.9576 -11.1713 -6.35
      vertex 63.8951 -11.4167 6.35
      vertex 63.8951 -11.4167 -6.35
    endloop
  endfacet
  facet normal 0.901116 -0.433578 0
    outer loop
      vertex 63.6987 -11.8828 6.35
      vertex 63.6987 -11.8828 -6.35
      vertex 63.8085 -11.6546 -1.27
    endloop
  endfacet
  facet normal 0 0 -1
    outer loop
      vertex 63.6987 -11.8828 -6.35
      vertex 63.5666 -12.0988 -6.35
      vertex 63.4138 -12.3007 -6.35
    endloop
  endfacet
  facet normal 0.853106 -0.521738 0
    outer loop
      vertex 63.6987 -11.8828 6.35
      vertex 63.5666 -12.0988 -6.35
      vertex 63.6987 -11.8828 -6.35
    endloop
  endfacet
  facet normal 0 0 1
    outer loop
      vertex 63.0517 -12.6539 6.35
      vertex 63.4138 -12.3007 6.35
      vertex 63.6987 -11.8828 6.35
    endloop
  endfacet
  facet normal 0.499962 -0.866047 0
    outer loop
      vertex 62.6268 -12.9283 -6.35
      vertex 62.8461 -12.8017 -6.35
      vertex 62.8461 -12.8017 -1.27
    endloop
  endfacet
  facet normal 0.583701 -0.811969 0
    outer loop
      vertex 63.0517 -12.6539 6.35
      vertex 62.8461 -12.8017 -1.27
      vertex 63.0517 -12.6539 -6.35
    endloop
  endfacet
  facet normal 0.732878 -0.68036 0
    outer loop
      vertex 63.4138 -12.3007 6.35
      vertex 63.2415 -12.4863 -1.27
      vertex 63.4138 -12.3007 -6.35
    endloop
  endfacet
  facet normal 0.661909 -0.749584 0
    outer loop
      vertex 63.2415 -12.4863 -1.27
      vertex 63.2415 -12.4863 6.35
      vertex 63.0517 -12.6539 6.35
    endloop
  endfacet
  facet normal 0.499962 0.866047 0
    outer loop
      vertex 62.8461 12.8017 6.35
      vertex 62.8461 12.8017 -6.35
      vertex 62.6268 12.9283 -6.35
    endloop
  endfacet
  facet normal 0.583961 0.811781 0
    outer loop
      vertex 63.0517 12.6538 -6.35
      vertex 62.8461 12.8017 -6.35
      vertex 62.8461 12.8017 6.35
    endloop
  endfacet
  facet normal 0.797386 0.60347 0
    outer loop
      vertex 63.4138 12.3007 6.35
      vertex 63.5666 12.0988 6.35
      vertex 63.5666 12.0988 1.26998
    endloop
  endfacet
  facet normal 0 0 1
    outer loop
      vertex 63.6987 11.8828 6.35
      vertex 63.5666 12.0988 6.35
      vertex 63.4138 12.3007 6.35
    endloop
  endfacet
  facet normal 0.732878 0.68036 -0
    outer loop
      vertex 63.2415 12.4863 -1.27
      vertex 63.2415 12.4863 6.35
      vertex 63.4138 12.3007 6.35
    endloop
  endfacet
  facet normal 0.661687 0.74978 0
    outer loop
      vertex 63.0517 12.6538 6.35
      vertex 63.2415 12.4863 6.35
      vertex 63.2415 12.4863 -1.27
    endloop
  endfacet
  facet normal 0.732878 0.68036 0
    outer loop
      vertex 63.4138 12.3007 -6.35
      vertex 63.2415 12.4863 -6.35
      vertex 63.2415 12.4863 -1.27
    endloop
  endfacet
  facet normal 0 0 -1
    outer loop
      vertex 63.0517 12.6538 -6.35
      vertex 63.2415 12.4863 -6.35
      vertex 63.4138 12.3007 -6.35
    endloop
  endfacet
  facet normal 0.222696 0.974888 0
    outer loop
      vertex 61.909 13.1694 6.35
      vertex 62.1559 13.113 6.35
      vertex 62.1559 13.113 -1.27
    endloop
  endfacet
  facet normal 0.318241 0.94801 -0
    outer loop
      vertex 62.396 13.0324 -6.35
      vertex 62.1559 13.113 -1.27
      vertex 62.396 13.0324 6.35
    endloop
  endfacet
  facet normal 0.124424 0.992229 0
    outer loop
      vertex 61.909 13.1694 -6.35
      vertex 61.6578 13.2009 -6.35
      vertex 61.6578 13.2009 6.35
    endloop
  endfacet
  facet normal 0 0 -1
    outer loop
      vertex 61.4047 13.2072 -6.35
      vertex 61.6578 13.2009 -6.35
      vertex 61.909 13.1694 -6.35
    endloop
  endfacet
  facet normal 0 0 1
    outer loop
      vertex -62.738 12.8677 6.35
      vertex -63.33 12.3956 6.35
      vertex -63.7565 11.7701 6.35
    endloop
  endfacet
  facet normal -0.698166 0.715936 0
    outer loop
      vertex -63.33 12.3956 6.35
      vertex -63.1487 12.5724 6.35
      vertex -63.33 12.3956 -6.35
    endloop
  endfacet
  facet normal -0.17374 0.984792 0
    outer loop
      vertex -62.0332 13.1443 -6.35
      vertex -62.0332 13.1443 6.35
      vertex -61.7838 13.1883 1.26998
    endloop
  endfacet
  facet normal 0 0 1
    outer loop
      vertex -62.0332 13.1443 6.35
      vertex -62.277 13.0757 6.35
      vertex -62.738 12.8677 6.35
    endloop
  endfacet
  facet normal -0.27086 0.962619 0
    outer loop
      vertex -62.0332 13.1443 -6.35
      vertex -62.277 13.0757 6.35
      vertex -62.0332 13.1443 6.35
    endloop
  endfacet
  facet normal 0 0 -1
    outer loop
      vertex -63.33 12.3956 -6.35
      vertex -62.738 12.8677 -6.35
      vertex -62.0332 13.1443 -6.35
    endloop
  endfacet
  facet normal -0.921598 0.388145 0
    outer loop
      vertex -63.7565 11.7701 6.35
      vertex -63.7565 11.7701 -6.35
      vertex -63.8548 11.5367 -6.35
    endloop
  endfacet
  facet normal -0.878152 0.478382 0
    outer loop
      vertex -63.6354 11.9924 -6.35
      vertex -63.7565 11.7701 -6.35
      vertex -63.7565 11.7701 6.35
    endloop
  endfacet
  facet normal -0.921598 0.388145 0
    outer loop
      vertex -63.8548 11.5367 -6.35
      vertex -63.8548 11.5367 6.35
      vertex -63.7565 11.7701 6.35
    endloop
  endfacet
  facet normal -0.955514 0.294946 0
    outer loop
      vertex -63.9295 11.2947 6.35
      vertex -63.8548 11.5367 6.35
      vertex -63.8548 11.5367 -6.35
    endloop
  endfacet
  facet normal -0.980214 0.197939 0
    outer loop
      vertex -63.9796 11.0466 -6.35
      vertex -63.9796 11.0466 6.35
      vertex -63.9295 11.2947 6.35
    endloop
  endfacet
  facet normal -0.994998 0.0998946 0
    outer loop
      vertex -64.0049 10.7946 6.35
      vertex -63.9796 11.0466 6.35
      vertex -63.9796 11.0466 -6.35
    endloop
  endfacet
  facet normal -0.698368 -0.715739 0
    outer loop
      vertex -63.33 -12.3956 -6.35
      vertex -63.1487 -12.5725 -6.35
      vertex -63.1487 -12.5725 6.35
    endloop
  endfacet
  facet normal 0 0 -1
    outer loop
      vertex -62.9507 -12.7303 -6.35
      vertex -63.1487 -12.5725 -6.35
      vertex -63.33 -12.3956 -6.35
    endloop
  endfacet
  facet normal -0.766047 -0.642784 -0
    outer loop
      vertex -63.4927 -12.2017 6.35
      vertex -63.4927 -12.2017 -6.35
      vertex -63.33 -12.3956 -6.35
    endloop
  endfacet
  facet normal -0.826236 -0.563325 0
    outer loop
      vertex -63.6354 -11.9924 -6.35
      vertex -63.4927 -12.2017 -6.35
      vertex -63.4927 -12.2017 6.35
    endloop
  endfacet
  facet normal -0.365322 -0.930881 0
    outer loop
      vertex -62.277 -13.0757 6.35
      vertex -62.5127 -12.9832 6.35
      vertex -62.5127 -12.9832 -6.35
    endloop
  endfacet
  facet normal 0 0 1
    outer loop
      vertex -62.738 -12.8677 6.35
      vertex -62.5127 -12.9832 6.35
      vertex -62.277 -13.0757 6.35
    endloop
  endfacet
  facet normal -0.17374 -0.984792 0
    outer loop
      vertex -61.7838 -13.1883 1.26998
      vertex -61.7838 -13.1883 6.35
      vertex -62.0332 -13.1443 6.35
    endloop
  endfacet
  facet normal -0.0746427 -0.99721 0
    outer loop
      vertex -61.5313 -13.2072 6.35
      vertex -61.7838 -13.1883 6.35
      vertex -61.7838 -13.1883 1.26998
    endloop
  endfacet
  facet normal 0 0 -1
    outer loop
      vertex 62.6268 -12.9283 -6.35
      vertex 62.396 -13.0324 -6.35
      vertex 62.1559 -13.1131 -6.35
    endloop
  endfacet
  facet normal 0.411153 -0.911566 0
    outer loop
      vertex 62.396 -13.0324 6.35
      vertex 62.396 -13.0324 -6.35
      vertex 62.6268 -12.9283 -6.35
    endloop
  endfacet
  facet normal 0 0 1
    outer loop
      vertex 63.8951 -11.4167 6.35
      vertex 63.9576 -11.1713 6.35
      vertex 63.9954 -10.9209 6.35
    endloop
  endfacet
  facet normal 0.969065 -0.246807 0
    outer loop
      vertex 63.9576 -11.1713 -6.35
      vertex 63.9576 -11.1713 6.35
      vertex 63.8951 -11.4167 6.35
    endloop
  endfacet
  facet normal 0.901116 -0.433578 0
    outer loop
      vertex 63.8085 -11.6546 -1.27
      vertex 63.8085 -11.6546 6.35
      vertex 63.6987 -11.8828 6.35
    endloop
  endfacet
  facet normal 0.939678 -0.34206 0
    outer loop
      vertex 63.8951 -11.4167 6.35
      vertex 63.8085 -11.6546 6.35
      vertex 63.8085 -11.6546 -1.27
    endloop
  endfacet
  facet normal 0.939678 -0.34206 0
    outer loop
      vertex 63.8085 -11.6546 -1.27
      vertex 63.8085 -11.6546 -6.35
      vertex 63.8951 -11.4167 -6.35
    endloop
  endfacet
  facet normal 0.901116 -0.433578 0
    outer loop
      vertex 63.6987 -11.8828 -6.35
      vertex 63.8085 -11.6546 -6.35
      vertex 63.8085 -11.6546 -1.27
    endloop
  endfacet
  facet normal 0.797386 -0.60347 0
    outer loop
      vertex 63.5666 -12.0988 -6.35
      vertex 63.5666 -12.0988 6.35
      vertex 63.4138 -12.3007 6.35
    endloop
  endfacet
  facet normal 0.797386 -0.60347 0
    outer loop
      vertex 63.4138 -12.3007 -6.35
      vertex 63.5666 -12.0988 -6.35
      vertex 63.4138 -12.3007 6.35
    endloop
  endfacet
  facet normal 0.499962 -0.866047 0
    outer loop
      vertex 62.8461 -12.8017 -1.27
      vertex 62.8461 -12.8017 6.35
      vertex 62.6268 -12.9283 6.35
    endloop
  endfacet
  facet normal 0.583701 -0.811969 0
    outer loop
      vertex 63.0517 -12.6539 6.35
      vertex 62.8461 -12.8017 6.35
      vertex 62.8461 -12.8017 -1.27
    endloop
  endfacet
  facet normal 0 0 -1
    outer loop
      vertex 63.0517 -12.6539 -6.35
      vertex 62.8461 -12.8017 -6.35
      vertex 62.6268 -12.9283 -6.35
    endloop
  endfacet
  facet normal 0.583701 -0.811969 0
    outer loop
      vertex 62.8461 -12.8017 -1.27
      vertex 62.8461 -12.8017 -6.35
      vertex 63.0517 -12.6539 -6.35
    endloop
  endfacet
  facet normal 0.661909 -0.749584 0
    outer loop
      vertex 63.0517 -12.6539 -6.35
      vertex 63.2415 -12.4863 -6.35
      vertex 63.2415 -12.4863 -1.27
    endloop
  endfacet
  facet normal 0 0 -1
    outer loop
      vertex 63.4138 -12.3007 -6.35
      vertex 63.2415 -12.4863 -6.35
      vertex 63.0517 -12.6539 -6.35
    endloop
  endfacet
  facet normal 0.732878 -0.68036 0
    outer loop
      vertex 63.4138 -12.3007 6.35
      vertex 63.2415 -12.4863 6.35
      vertex 63.2415 -12.4863 -1.27
    endloop
  endfacet
  facet normal 0 0 1
    outer loop
      vertex 63.0517 -12.6539 6.35
      vertex 63.2415 -12.4863 6.35
      vertex 63.4138 -12.3007 6.35
    endloop
  endfacet
  facet normal 0 0 -1
    outer loop
      vertex 61.909 13.1694 -6.35
      vertex 62.1559 13.113 -6.35
      vertex 62.396 13.0324 -6.35
    endloop
  endfacet
  facet normal 0.222696 0.974888 0
    outer loop
      vertex 62.1559 13.113 -1.27
      vertex 62.1559 13.113 -6.35
      vertex 61.909 13.1694 -6.35
    endloop
  endfacet
  facet normal 0 0 1
    outer loop
      vertex 62.396 13.0324 6.35
      vertex 62.1559 13.113 6.35
      vertex 61.909 13.1694 6.35
    endloop
  endfacet
  facet normal 0.318241 0.94801 -0
    outer loop
      vertex 62.1559 13.113 -1.27
      vertex 62.1559 13.113 6.35
      vertex 62.396 13.0324 6.35
    endloop
  endfacet
  facet normal 0 0 1
    outer loop
      vertex -63.33 12.3956 6.35
      vertex -63.4927 12.2016 6.35
      vertex -63.7565 11.7701 6.35
    endloop
  endfacet
  facet normal -0.76621 0.64259 0
    outer loop
      vertex -63.33 12.3956 -6.35
      vertex -63.4927 12.2016 6.35
      vertex -63.33 12.3956 6.35
    endloop
  endfacet
  facet normal -0.542613 0.839983 0
    outer loop
      vertex -62.738 12.8677 -6.35
      vertex -62.9507 12.7303 1.26998
      vertex -62.738 12.8677 6.35
    endloop
  endfacet
  facet normal -0.698166 0.715936 0
    outer loop
      vertex -63.1487 12.5724 6.35
      vertex -63.1487 12.5724 -6.35
      vertex -63.33 12.3956 -6.35
    endloop
  endfacet
  facet normal -0.0746427 0.99721 0
    outer loop
      vertex -61.7838 13.1883 1.26998
      vertex -61.7838 13.1883 6.35
      vertex -61.5313 13.2072 6.35
    endloop
  endfacet
  facet normal -0.17374 0.984792 0
    outer loop
      vertex -62.0332 13.1443 6.35
      vertex -61.7838 13.1883 6.35
      vertex -61.7838 13.1883 1.26998
    endloop
  endfacet
  facet normal -0.365322 0.930881 0
    outer loop
      vertex -62.277 13.0757 -6.35
      vertex -62.5127 12.9832 6.35
      vertex -62.277 13.0757 6.35
    endloop
  endfacet
  facet normal 0 0 1
    outer loop
      vertex -62.277 13.0757 6.35
      vertex -62.5127 12.9832 6.35
      vertex -62.738 12.8677 6.35
    endloop
  endfacet
  facet normal 0.853106 -0.521738 0
    outer loop
      vertex 63.6987 -11.8828 6.35
      vertex 63.5666 -12.0988 6.35
      vertex 63.5666 -12.0988 -6.35
    endloop
  endfacet
  facet normal 0 0 1
    outer loop
      vertex 63.4138 -12.3007 6.35
      vertex 63.5666 -12.0988 6.35
      vertex 63.6987 -11.8828 6.35
    endloop
  endfacet
  facet normal -0.82611 0.563508 0
    outer loop
      vertex -63.4927 12.2016 6.35
      vertex -63.4927 12.2016 -6.35
      vertex -63.6354 11.9924 -6.35
    endloop
  endfacet
  facet normal -0.76621 0.64259 0
    outer loop
      vertex -63.33 12.3956 -6.35
      vertex -63.4927 12.2016 -6.35
      vertex -63.4927 12.2016 6.35
    endloop
  endfacet
  facet normal 0 0 1
    outer loop
      vertex -63.4927 12.2016 6.35
      vertex -63.6354 11.9924 6.35
      vertex -63.7565 11.7701 6.35
    endloop
  endfacet
  facet normal -0.82611 0.563508 0
    outer loop
      vertex -63.6354 11.9924 -6.35
      vertex -63.6354 11.9924 6.35
      vertex -63.4927 12.2016 6.35
    endloop
  endfacet
  facet normal -0.542613 0.839983 0
    outer loop
      vertex -62.9507 12.7303 1.26998
      vertex -62.9507 12.7303 6.35
      vertex -62.738 12.8677 6.35
    endloop
  endfacet
  facet normal -0.62349 0.781831 0
    outer loop
      vertex -62.9507 12.7303 1.26998
      vertex -62.9507 12.7303 -6.35
      vertex -63.1487 12.5724 6.35
    endloop
  endfacet
  facet normal -0.542613 0.839983 0
    outer loop
      vertex -62.738 12.8677 -6.35
      vertex -62.9507 12.7303 -6.35
      vertex -62.9507 12.7303 1.26998
    endloop
  endfacet
  facet normal 0 0 -1
    outer loop
      vertex -63.33 12.3956 -6.35
      vertex -62.9507 12.7303 -6.35
      vertex -62.738 12.8677 -6.35
    endloop
  endfacet
  facet normal -0.27086 0.962619 0
    outer loop
      vertex -62.0332 13.1443 -6.35
      vertex -62.277 13.0757 -6.35
      vertex -62.277 13.0757 6.35
    endloop
  endfacet
  facet normal 0 0 -1
    outer loop
      vertex -62.738 12.8677 -6.35
      vertex -62.277 13.0757 -6.35
      vertex -62.0332 13.1443 -6.35
    endloop
  endfacet
  facet normal -0.456196 0.889879 0
    outer loop
      vertex -62.5127 12.9832 6.35
      vertex -62.5127 12.9832 -6.35
      vertex -62.738 12.8677 -6.35
    endloop
  endfacet
  facet normal -0.456196 0.889879 0
    outer loop
      vertex -62.738 12.8677 6.35
      vertex -62.5127 12.9832 6.35
      vertex -62.738 12.8677 -6.35
    endloop
  endfacet
  facet normal -0.62349 0.781831 0
    outer loop
      vertex -63.1487 12.5724 6.35
      vertex -62.9507 12.7303 6.35
      vertex -62.9507 12.7303 1.26998
    endloop
  endfacet
  facet normal 0 0 1
    outer loop
      vertex -62.738 12.8677 6.35
      vertex -62.9507 12.7303 6.35
      vertex -63.1487 12.5724 6.35
    endloop
  endfacet
  facet normal -0.62349 0.781831 0
    outer loop
      vertex -62.9507 12.7303 -6.35
      vertex -63.1487 12.5724 -6.35
      vertex -63.1487 12.5724 6.35
    endloop
  endfacet
  facet normal 0 0 -1
    outer loop
      vertex -63.33 12.3956 -6.35
      vertex -63.1487 12.5724 -6.35
      vertex -62.9507 12.7303 -6.35
    endloop
  endfacet
  facet normal -0.365322 0.930881 0
    outer loop
      vertex -62.277 13.0757 -6.35
      vertex -62.5127 12.9832 -6.35
      vertex -62.5127 12.9832 6.35
    endloop
  endfacet
  facet normal 0 0 -1
    outer loop
      vertex -62.738 12.8677 -6.35
      vertex -62.5127 12.9832 -6.35
      vertex -62.277 13.0757 -6.35
    endloop
  endfacet
endsolid OpenSCAD_Model
