solid OpenSCAD_Model
  facet normal 0.988832 0.149036 -0
    outer loop
      vertex 7.82364 5.83728 1.26998
      vertex 7.82364 5.83728 6.35
      vertex 7.86138 5.58688 6.35
    endloop
  endfacet
  facet normal 0.988832 0.149036 -0
    outer loop
      vertex 7.86138 5.58688 -6.35
      vertex 7.82364 5.83728 1.26998
      vertex 7.86138 5.58688 1.26998
    endloop
  endfacet
  facet normal 0.939697 0.342009 0
    outer loop
      vertex 7.76114 6.08266 1.26998
      vertex 7.76114 6.08266 -6.35
      vertex 7.67454 6.3206 -6.35
    endloop
  endfacet
  facet normal 0.998757 0.0498411 0
    outer loop
      vertex 7.86138 5.58688 6.35
      vertex 7.874 5.33399 1.26998
      vertex 7.86138 5.58688 1.26998
    endloop
  endfacet
  facet normal 0 0 -1
    outer loop
      vertex 6.91766 7.31984 -6.35
      vertex 7.27975 6.96666 -6.35
      vertex 7.67454 6.3206 -6.35
    endloop
  endfacet
  facet normal 0 0 -1
    outer loop
      vertex -7.19596 -3.60638 -6.35
      vertex -6.81672 7.39631 -6.35
      vertex 6.91766 7.31984 -6.35
    endloop
  endfacet
  facet normal 0.66172 0.749751 0
    outer loop
      vertex 6.91766 7.31984 6.35
      vertex 7.1075 7.15229 6.35
      vertex 6.91766 7.31984 -6.35
    endloop
  endfacet
  facet normal 0 0 -1
    outer loop
      vertex 7.67454 6.3206 -6.35
      vertex 7.76114 6.08266 -6.35
      vertex 7.86138 5.58688 -6.35
    endloop
  endfacet
  facet normal 0.318466 0.947934 0
    outer loop
      vertex 6.26196 7.6984 1.26998
      vertex 6.02193 7.77904 -6.35
      vertex 6.02193 7.77904 1.26998
    endloop
  endfacet
  facet normal 0.998757 0.0498411 0
    outer loop
      vertex 7.874 5.33399 1.26998
      vertex 7.874 5.33399 -6.35
      vertex 7.86138 5.58688 -6.35
    endloop
  endfacet
  facet normal -0 0 -1
    outer loop
      vertex 7.86138 5.58688 -6.35
      vertex -7.19596 -3.60638 -6.35
      vertex 6.91766 7.31984 -6.35
    endloop
  endfacet
  facet normal 0 0 1
    outer loop
      vertex 6.49276 7.59427 6.35
      vertex -5.39733 -7.87322 6.35
      vertex 7.86138 5.58688 6.35
    endloop
  endfacet
  facet normal 0 0 1
    outer loop
      vertex 6.91766 7.31984 6.35
      vertex 6.49276 7.59427 6.35
      vertex 7.86138 5.58688 6.35
    endloop
  endfacet
  facet normal 0.96906 0.246826 0
    outer loop
      vertex 7.76114 6.08266 1.26998
      vertex 7.82364 5.83728 6.35
      vertex 7.82364 5.83728 1.26998
    endloop
  endfacet
  facet normal 0 0 1
    outer loop
      vertex 7.86138 5.58688 6.35
      vertex 7.67454 6.3206 6.35
      vertex 6.91766 7.31984 6.35
    endloop
  endfacet
  facet normal 0.988832 0.149036 -0
    outer loop
      vertex 7.86138 5.58688 1.26998
      vertex 7.82364 5.83728 1.26998
      vertex 7.86138 5.58688 6.35
    endloop
  endfacet
  facet normal 0 0 -1
    outer loop
      vertex 6.91766 7.31984 -6.35
      vertex 7.67454 6.3206 -6.35
      vertex 7.86138 5.58688 -6.35
    endloop
  endfacet
  facet normal 0.900978 0.433864 0
    outer loop
      vertex 7.67454 6.3206 -6.35
      vertex 7.56467 6.54876 -6.35
      vertex 7.56467 6.54876 1.26998
    endloop
  endfacet
  facet normal 0.939697 0.342009 -0
    outer loop
      vertex 7.67454 6.3206 -6.35
      vertex 7.67454 6.3206 6.35
      vertex 7.76114 6.08266 1.26998
    endloop
  endfacet
  facet normal 0.900978 0.433864 0
    outer loop
      vertex 7.56467 6.54876 1.26998
      vertex 7.67454 6.3206 6.35
      vertex 7.67454 6.3206 -6.35
    endloop
  endfacet
  facet normal 0 0 1
    outer loop
      vertex -5.39733 -7.87322 6.35
      vertex 6.26196 -7.69843 6.35
      vertex 7.56467 -6.54877 6.35
    endloop
  endfacet
  facet normal 0 0 1
    outer loop
      vertex -5.39733 -7.87322 6.35
      vertex 7.56467 -6.54877 6.35
      vertex 7.86138 5.58688 6.35
    endloop
  endfacet
  facet normal 0 0 1
    outer loop
      vertex 6.49276 7.59427 6.35
      vertex -7.87085 5.4606 6.35
      vertex -5.39733 -7.87322 6.35
    endloop
  endfacet
  facet normal -0.456179 -0.889888 -0
    outer loop
      vertex -6.60402 -7.53371 6.35
      vertex -6.60402 -7.53371 -6.35
      vertex -6.37867 -7.64923 1.26998
    endloop
  endfacet
  facet normal 0 0 1
    outer loop
      vertex 7.67454 6.3206 6.35
      vertex 7.27975 6.96666 6.35
      vertex 6.91766 7.31984 6.35
    endloop
  endfacet
  facet normal 0.797181 0.603741 0
    outer loop
      vertex 7.27975 6.96666 6.35
      vertex 7.43262 6.76481 1.26998
      vertex 7.27975 6.96666 -6.35
    endloop
  endfacet
  facet normal 0.500038 0.866003 0
    outer loop
      vertex 6.71205 7.46765 6.35
      vertex 6.49276 7.59427 -1.27
      vertex 6.49276 7.59427 6.35
    endloop
  endfacet
  facet normal 0 0 1
    outer loop
      vertex 6.49276 7.59427 6.35
      vertex 6.26196 7.6984 6.35
      vertex -5.64984 7.85428 6.35
    endloop
  endfacet
  facet normal 0.96906 0.246826 0
    outer loop
      vertex 7.82364 5.83728 1.26998
      vertex 7.76114 6.08266 -6.35
      vertex 7.76114 6.08266 1.26998
    endloop
  endfacet
  facet normal 0 0 -1
    outer loop
      vertex 7.76114 6.08266 -6.35
      vertex 7.82364 5.83728 -6.35
      vertex 7.86138 5.58688 -6.35
    endloop
  endfacet
  facet normal 0 0 1
    outer loop
      vertex 7.27975 6.96666 6.35
      vertex 7.1075 7.15229 6.35
      vertex 6.91766 7.31984 6.35
    endloop
  endfacet
  facet normal 0.853248 0.521506 -0
    outer loop
      vertex 7.56467 6.54876 -6.35
      vertex 7.43262 6.76481 1.26998
      vertex 7.56467 6.54876 1.26998
    endloop
  endfacet
  facet normal 0.939697 0.342009 0
    outer loop
      vertex 7.67454 6.3206 6.35
      vertex 7.76114 6.08266 6.35
      vertex 7.76114 6.08266 1.26998
    endloop
  endfacet
  facet normal 0 0 1
    outer loop
      vertex 7.86138 5.58688 6.35
      vertex 7.82364 5.83728 6.35
      vertex 7.67454 6.3206 6.35
    endloop
  endfacet
  facet normal 0.661742 -0.749732 0
    outer loop
      vertex 7.1075 -7.15231 -6.35
      vertex 6.91766 -7.31987 6.35
      vertex 6.91766 -7.31987 1.26998
    endloop
  endfacet
  facet normal 0 0 1
    outer loop
      vertex 7.56467 -6.54877 6.35
      vertex 7.874 -5.33401 6.35
      vertex 7.86138 5.58688 6.35
    endloop
  endfacet
  facet normal -0.698245 -0.715859 0
    outer loop
      vertex -7.0147 -7.23845 6.35
      vertex -7.19596 -7.06165 6.35
      vertex -7.19596 -7.06165 1.26998
    endloop
  endfacet
  facet normal 0.583708 -0.811963 0
    outer loop
      vertex 6.71205 -7.46768 -6.35
      vertex 6.91766 -7.31987 -6.35
      vertex 6.91766 -7.31987 1.26998
    endloop
  endfacet
  facet normal 0 0 -1
    outer loop
      vertex 5.27067 7.8732 -6.35
      vertex 5.77505 7.83541 -6.35
      vertex 6.02193 7.77904 -6.35
    endloop
  endfacet
  facet normal -0.0747183 0.997205 0
    outer loop
      vertex -5.64984 7.85428 6.35
      vertex -5.39733 7.8732 6.35
      vertex -5.39733 7.8732 -6.35
    endloop
  endfacet
  facet normal -0 0 -1
    outer loop
      vertex 6.71205 -7.46768 -6.35
      vertex -5.64984 -7.85431 -6.35
      vertex -7.19596 -3.60638 -6.35
    endloop
  endfacet
  facet normal 0 0 -1
    outer loop
      vertex 7.86138 5.58688 -6.35
      vertex 6.71205 -7.46768 -6.35
      vertex -7.19596 -3.60638 -6.35
    endloop
  endfacet
  facet normal 0.733031 0.680195 -0
    outer loop
      vertex 7.27975 6.96666 -6.35
      vertex 7.1075 7.15229 6.35
      vertex 7.27975 6.96666 6.35
    endloop
  endfacet
  facet normal 0.66172 0.749751 0
    outer loop
      vertex 7.1075 7.15229 6.35
      vertex 7.1075 7.15229 -6.35
      vertex 6.91766 7.31984 -6.35
    endloop
  endfacet
  facet normal 0 0 1
    outer loop
      vertex 7.67454 6.3206 6.35
      vertex 7.56467 6.54876 6.35
      vertex 7.27975 6.96666 6.35
    endloop
  endfacet
  facet normal 0.900978 0.433864 -0
    outer loop
      vertex 7.56467 6.54876 1.26998
      vertex 7.56467 6.54876 6.35
      vertex 7.67454 6.3206 6.35
    endloop
  endfacet
  facet normal 0 0 1
    outer loop
      vertex 6.91766 7.31984 6.35
      vertex 6.71205 7.46765 6.35
      vertex 6.49276 7.59427 6.35
    endloop
  endfacet
  facet normal 0.583708 0.811963 -0
    outer loop
      vertex 6.91766 7.31984 -6.35
      vertex 6.71205 7.46765 6.35
      vertex 6.91766 7.31984 6.35
    endloop
  endfacet
  facet normal 0.411251 0.911522 0
    outer loop
      vertex 6.49276 7.59427 -1.27
      vertex 6.49276 7.59427 -6.35
      vertex 6.26196 7.6984 -6.35
    endloop
  endfacet
  facet normal 0 0 -1
    outer loop
      vertex 6.02193 7.77904 -6.35
      vertex 6.26196 7.6984 -6.35
      vertex 6.91766 7.31984 -6.35
    endloop
  endfacet
  facet normal 0.96906 0.246826 0
    outer loop
      vertex 7.82364 5.83728 1.26998
      vertex 7.82364 5.83728 -6.35
      vertex 7.76114 6.08266 -6.35
    endloop
  endfacet
  facet normal 0.988832 0.149036 0
    outer loop
      vertex 7.86138 5.58688 -6.35
      vertex 7.82364 5.83728 -6.35
      vertex 7.82364 5.83728 1.26998
    endloop
  endfacet
  facet normal 0 0 -1
    outer loop
      vertex 7.27975 6.96666 -6.35
      vertex 7.56467 6.54876 -6.35
      vertex 7.67454 6.3206 -6.35
    endloop
  endfacet
  facet normal 0.797181 0.603741 0
    outer loop
      vertex 7.43262 6.76481 1.26998
      vertex 7.43262 6.76481 -6.35
      vertex 7.27975 6.96666 -6.35
    endloop
  endfacet
  facet normal 0 0 1
    outer loop
      vertex 7.56467 6.54876 6.35
      vertex 7.43262 6.76481 6.35
      vertex 7.27975 6.96666 6.35
    endloop
  endfacet
  facet normal 0.853248 0.521506 -0
    outer loop
      vertex 7.56467 6.54876 1.26998
      vertex 7.43262 6.76481 1.26998
      vertex 7.56467 6.54876 6.35
    endloop
  endfacet
  facet normal 0 0 1
    outer loop
      vertex 7.82364 5.83728 6.35
      vertex 7.76114 6.08266 6.35
      vertex 7.67454 6.3206 6.35
    endloop
  endfacet
  facet normal 0.96906 0.246826 -0
    outer loop
      vertex 7.76114 6.08266 1.26998
      vertex 7.76114 6.08266 6.35
      vertex 7.82364 5.83728 6.35
    endloop
  endfacet
  facet normal 0 0 -1
    outer loop
      vertex 7.76114 -6.08268 -6.35
      vertex 7.1075 -7.15231 -6.35
      vertex 6.71205 -7.46768 -6.35
    endloop
  endfacet
  facet normal 0.998757 0.0498411 0
    outer loop
      vertex 7.86138 5.58688 1.26998
      vertex 7.874 5.33399 1.26998
      vertex 7.86138 5.58688 -6.35
    endloop
  endfacet
  facet normal 0 0 1
    outer loop
      vertex 7.56467 -6.54877 6.35
      vertex 7.82364 -5.8373 6.35
      vertex 7.874 -5.33401 6.35
    endloop
  endfacet
  facet normal 0.998757 -0.0498391 0
    outer loop
      vertex 7.86138 -5.58691 -6.35
      vertex 7.874 -5.33401 6.35
      vertex 7.86138 -5.58691 1.26998
    endloop
  endfacet
  facet normal 0 0 -1
    outer loop
      vertex -6.81672 7.39631 -6.35
      vertex 5.27067 7.8732 -6.35
      vertex 6.91766 7.31984 -6.35
    endloop
  endfacet
  facet normal 0 0 1
    outer loop
      vertex 6.49276 7.59427 6.35
      vertex -5.64984 7.85428 6.35
      vertex -7.87085 5.4606 6.35
    endloop
  endfacet
  facet normal -0 0 -1
    outer loop
      vertex -7.19596 -3.60638 -6.35
      vertex -7.72084 -6.20274 -6.35
      vertex -7.87085 5.4606 -6.35
    endloop
  endfacet
  facet normal 0 0 1
    outer loop
      vertex -7.87085 5.4606 6.35
      vertex -7.84563 -5.71258 6.35
      vertex -5.39733 -7.87322 6.35
    endloop
  endfacet
  facet normal 0 0 -1
    outer loop
      vertex -6.81672 7.39631 -6.35
      vertex -6.14298 7.74171 -6.35
      vertex -5.39733 7.8732 -6.35
    endloop
  endfacet
  facet normal -0.995027 0.0996015 0
    outer loop
      vertex -7.87085 5.4606 6.35
      vertex -7.84563 5.71255 6.35
      vertex -7.87085 5.4606 -6.35
    endloop
  endfacet
  facet normal 0 0 -1
    outer loop
      vertex 7.86138 -5.58691 -6.35
      vertex 7.82364 -5.8373 -6.35
      vertex 7.76114 -6.08268 -6.35
    endloop
  endfacet
  facet normal 0 -0 -1
    outer loop
      vertex 7.86138 5.58688 -6.35
      vertex 7.86138 -5.58691 -6.35
      vertex 6.71205 -7.46768 -6.35
    endloop
  endfacet
  facet normal 0.0249596 -0.999688 0
    outer loop
      vertex 5.5238 -7.8669 1.26998
      vertex 5.5238 -7.8669 6.35
      vertex 5.27067 -7.87322 6.35
    endloop
  endfacet
  facet normal 0 0 1
    outer loop
      vertex -5.39733 -7.87322 6.35
      vertex 5.27067 -7.87322 6.35
      vertex 6.26196 -7.69843 6.35
    endloop
  endfacet
  facet normal 0 -1 0
    outer loop
      vertex -5.39733 -7.87322 6.35
      vertex -5.39733 -7.87322 -6.35
      vertex 5.27067 -7.87322 6.35
    endloop
  endfacet
  facet normal 0 0 -1
    outer loop
      vertex -5.64984 -7.85431 -6.35
      vertex -6.81672 -7.39634 -6.35
      vertex -7.72084 -6.20274 -6.35
    endloop
  endfacet
  facet normal 0.733031 0.680195 0
    outer loop
      vertex 7.27975 6.96666 -6.35
      vertex 7.1075 7.15229 -6.35
      vertex 7.1075 7.15229 6.35
    endloop
  endfacet
  facet normal 0 0 -1
    outer loop
      vertex 6.91766 7.31984 -6.35
      vertex 7.1075 7.15229 -6.35
      vertex 7.27975 6.96666 -6.35
    endloop
  endfacet
  facet normal 0.411251 0.911522 -0
    outer loop
      vertex 6.49276 7.59427 -1.27
      vertex 6.26196 7.6984 1.26998
      vertex 6.49276 7.59427 6.35
    endloop
  endfacet
  facet normal 0.318466 0.947934 0
    outer loop
      vertex 6.26196 7.6984 1.26998
      vertex 6.26196 7.6984 -6.35
      vertex 6.02193 7.77904 -6.35
    endloop
  endfacet
  facet normal 0.500038 0.866003 0
    outer loop
      vertex 6.71205 7.46765 6.35
      vertex 6.71205 7.46765 -1.27
      vertex 6.49276 7.59427 -1.27
    endloop
  endfacet
  facet normal 0.583708 0.811963 0
    outer loop
      vertex 6.91766 7.31984 -6.35
      vertex 6.71205 7.46765 -1.27
      vertex 6.71205 7.46765 6.35
    endloop
  endfacet
  facet normal 0.853248 0.521506 0
    outer loop
      vertex 7.56467 6.54876 -6.35
      vertex 7.43262 6.76481 -6.35
      vertex 7.43262 6.76481 1.26998
    endloop
  endfacet
  facet normal 0 0 -1
    outer loop
      vertex 7.27975 6.96666 -6.35
      vertex 7.43262 6.76481 -6.35
      vertex 7.56467 6.54876 -6.35
    endloop
  endfacet
  facet normal 0.853248 0.521506 -0
    outer loop
      vertex 7.43262 6.76481 1.26998
      vertex 7.43262 6.76481 6.35
      vertex 7.56467 6.54876 6.35
    endloop
  endfacet
  facet normal 0.797181 0.603741 0
    outer loop
      vertex 7.27975 6.96666 6.35
      vertex 7.43262 6.76481 6.35
      vertex 7.43262 6.76481 1.26998
    endloop
  endfacet
  facet normal 1 0 0
    outer loop
      vertex 7.874 -5.33401 6.35
      vertex 7.874 5.33399 -6.35
      vertex 7.874 5.33399 1.26998
    endloop
  endfacet
  facet normal 0 -0 1
    outer loop
      vertex 7.874 -5.33401 6.35
      vertex 7.874 5.33399 6.35
      vertex 7.86138 5.58688 6.35
    endloop
  endfacet
  facet normal 0 0 -1
    outer loop
      vertex 7.86138 -5.58691 -6.35
      vertex 7.76114 -6.08268 -6.35
      vertex 6.71205 -7.46768 -6.35
    endloop
  endfacet
  facet normal 0 0 1
    outer loop
      vertex 6.26196 -7.69843 6.35
      vertex 6.91766 -7.31987 6.35
      vertex 7.56467 -6.54877 6.35
    endloop
  endfacet
  facet normal 0 0 -1
    outer loop
      vertex 5.27067 7.8732 -6.35
      vertex 6.02193 7.77904 -6.35
      vertex 6.91766 7.31984 -6.35
    endloop
  endfacet
  facet normal 0.222601 0.97491 -0
    outer loop
      vertex 6.02193 7.77904 -6.35
      vertex 5.77505 7.83541 -1.27
      vertex 6.02193 7.77904 1.26998
    endloop
  endfacet
  facet normal 0 0 1
    outer loop
      vertex -7.87085 5.4606 6.35
      vertex -7.87085 -5.2074 6.35
      vertex -7.84563 -5.71258 6.35
    endloop
  endfacet
  facet normal -1 0 0
    outer loop
      vertex -7.87085 5.4606 -6.35
      vertex -7.87085 -5.2074 6.35
      vertex -7.87085 5.4606 6.35
    endloop
  endfacet
  facet normal 0 0 1
    outer loop
      vertex -5.64984 7.85428 6.35
      vertex -7.19596 7.06162 6.35
      vertex -7.87085 5.4606 6.35
    endloop
  endfacet
  facet normal 0 0 -1
    outer loop
      vertex -7.19596 -3.60638 -6.35
      vertex -7.87085 5.4606 -6.35
      vertex -6.81672 7.39631 -6.35
    endloop
  endfacet
  facet normal 0.998757 -0.0498391 0
    outer loop
      vertex 7.86138 -5.58691 -6.35
      vertex 7.874 -5.33401 -6.35
      vertex 7.874 -5.33401 6.35
    endloop
  endfacet
  facet normal 0 0 -1
    outer loop
      vertex 7.86138 5.58688 -6.35
      vertex 7.874 5.33399 -6.35
      vertex 7.86138 -5.58691 -6.35
    endloop
  endfacet
  facet normal 0.96906 -0.246826 0
    outer loop
      vertex 7.82364 -5.8373 6.35
      vertex 7.76114 -6.08268 6.35
      vertex 7.76114 -6.08268 -6.35
    endloop
  endfacet
  facet normal 0.733013 -0.680215 0
    outer loop
      vertex 7.1075 -7.15231 -6.35
      vertex 7.27975 -6.96669 -6.35
      vertex 7.27975 -6.96669 -1.27
    endloop
  endfacet
  facet normal 0.0249596 -0.999688 0
    outer loop
      vertex 5.27067 -7.87322 6.35
      vertex 5.27067 -7.87322 -6.35
      vertex 5.5238 -7.8669 -6.35
    endloop
  endfacet
  facet normal 0.733013 -0.680215 0
    outer loop
      vertex 7.27975 -6.96669 1.26998
      vertex 7.1075 -7.15231 6.35
      vertex 7.1075 -7.15231 -6.35
    endloop
  endfacet
  facet normal 0 0 -1
    outer loop
      vertex -5.64984 -7.85431 -6.35
      vertex -7.72084 -6.20274 -6.35
      vertex -7.19596 -3.60638 -6.35
    endloop
  endfacet
  facet normal 0 0 -1
    outer loop
      vertex -7.50137 -6.65845 -6.35
      vertex -7.62247 -6.43608 -6.35
      vertex -7.72084 -6.20274 -6.35
    endloop
  endfacet
  facet normal 0 0 -1
    outer loop
      vertex 6.71205 -7.46768 -6.35
      vertex 5.5238 -7.8669 -6.35
      vertex -5.64984 -7.85431 -6.35
    endloop
  endfacet
  facet normal 0.12436 -0.992237 0
    outer loop
      vertex 5.5238 -7.8669 -6.35
      vertex 5.77505 -7.83541 6.35
      vertex 5.5238 -7.8669 1.26998
    endloop
  endfacet
  facet normal 0 0 -1
    outer loop
      vertex -5.64984 -7.85431 -6.35
      vertex -6.14298 -7.74174 -6.35
      vertex -6.81672 -7.39634 -6.35
    endloop
  endfacet
  facet normal -0.270901 -0.962607 0
    outer loop
      vertex -6.14298 -7.74174 -6.35
      vertex -5.89922 -7.81034 -6.35
      vertex -5.89922 -7.81034 1.26998
    endloop
  endfacet
  facet normal 0.988831 -0.149041 0
    outer loop
      vertex 7.86138 -5.58691 1.26998
      vertex 7.82364 -5.8373 6.35
      vertex 7.86138 -5.58691 -6.35
    endloop
  endfacet
  facet normal 0 0 1
    outer loop
      vertex 7.82364 -5.8373 6.35
      vertex 7.86138 -5.58691 6.35
      vertex 7.874 -5.33401 6.35
    endloop
  endfacet
  facet normal 1 0 -0
    outer loop
      vertex 7.874 5.33399 1.26998
      vertex 7.874 5.33399 6.35
      vertex 7.874 -5.33401 6.35
    endloop
  endfacet
  facet normal 0.998757 0.0498411 0
    outer loop
      vertex 7.86138 5.58688 6.35
      vertex 7.874 5.33399 6.35
      vertex 7.874 5.33399 1.26998
    endloop
  endfacet
  facet normal 0 0 -1
    outer loop
      vertex 7.76114 -6.08268 -6.35
      vertex 7.43262 -6.76484 -6.35
      vertex 7.1075 -7.15231 -6.35
    endloop
  endfacet
  facet normal 0.733013 -0.680215 0
    outer loop
      vertex 7.27975 -6.96669 -1.27
      vertex 7.27975 -6.96669 1.26998
      vertex 7.1075 -7.15231 -6.35
    endloop
  endfacet
  facet normal 0.853269 -0.521471 0
    outer loop
      vertex 7.56467 -6.54877 6.35
      vertex 7.43262 -6.76484 -6.35
      vertex 7.56467 -6.54877 -1.27
    endloop
  endfacet
  facet normal 0.797181 -0.603741 0
    outer loop
      vertex 7.43262 -6.76484 1.26998
      vertex 7.27975 -6.96669 6.35
      vertex 7.27975 -6.96669 1.26998
    endloop
  endfacet
  facet normal 0.411251 0.911522 0
    outer loop
      vertex 6.49276 7.59427 -1.27
      vertex 6.26196 7.6984 -6.35
      vertex 6.26196 7.6984 1.26998
    endloop
  endfacet
  facet normal 0 0 -1
    outer loop
      vertex 6.26196 7.6984 -6.35
      vertex 6.49276 7.59427 -6.35
      vertex 6.91766 7.31984 -6.35
    endloop
  endfacet
  facet normal 0.222601 0.97491 -0
    outer loop
      vertex 5.77505 7.83541 -1.27
      vertex 5.77505 7.83541 6.35
      vertex 6.02193 7.77904 1.26998
    endloop
  endfacet
  facet normal 0 0 -1
    outer loop
      vertex 5.27067 7.8732 -6.35
      vertex 5.5238 7.86688 -6.35
      vertex 5.77505 7.83541 -6.35
    endloop
  endfacet
  facet normal 0 0 1
    outer loop
      vertex -7.84563 -5.71258 6.35
      vertex -7.0147 -7.23845 6.35
      vertex -5.39733 -7.87322 6.35
    endloop
  endfacet
  facet normal 0 0 1
    outer loop
      vertex -7.84563 -5.71258 6.35
      vertex -7.50137 -6.65845 6.35
      vertex -7.0147 -7.23845 6.35
    endloop
  endfacet
  facet normal 0 1 0
    outer loop
      vertex -5.39733 7.8732 -6.35
      vertex 5.27067 7.8732 6.35
      vertex 5.27067 7.8732 -6.35
    endloop
  endfacet
  facet normal 0 0 -1
    outer loop
      vertex -6.81672 7.39631 -6.35
      vertex -5.39733 7.8732 -6.35
      vertex 5.27067 7.8732 -6.35
    endloop
  endfacet
  facet normal 0 0 1
    outer loop
      vertex -5.64984 7.85428 6.35
      vertex -6.60402 7.53368 6.35
      vertex -7.19596 7.06162 6.35
    endloop
  endfacet
  facet normal 0 0 1
    outer loop
      vertex -7.19596 7.06162 6.35
      vertex -7.79547 5.96074 6.35
      vertex -7.87085 5.4606 6.35
    endloop
  endfacet
  facet normal 0.411251 0.911522 -0
    outer loop
      vertex 6.26196 7.6984 1.26998
      vertex 6.26196 7.6984 6.35
      vertex 6.49276 7.59427 6.35
    endloop
  endfacet
  facet normal 0.318466 0.947934 0
    outer loop
      vertex 6.02193 7.77904 1.26998
      vertex 6.26196 7.6984 6.35
      vertex 6.26196 7.6984 1.26998
    endloop
  endfacet
  facet normal 0 0 1
    outer loop
      vertex -7.87085 -5.2074 6.35
      vertex -7.87085 -5.46063 6.35
      vertex -7.84563 -5.71258 6.35
    endloop
  endfacet
  facet normal -1 0 0
    outer loop
      vertex -7.87085 5.4606 -6.35
      vertex -7.87085 -5.46063 -6.35
      vertex -7.87085 -5.2074 6.35
    endloop
  endfacet
  facet normal 0 -0 -1
    outer loop
      vertex 7.874 5.33399 -6.35
      vertex 7.874 -5.33401 -6.35
      vertex 7.86138 -5.58691 -6.35
    endloop
  endfacet
  facet normal 1 0 0
    outer loop
      vertex 7.874 -5.33401 6.35
      vertex 7.874 -5.33401 -6.35
      vertex 7.874 5.33399 -6.35
    endloop
  endfacet
  facet normal 0 0 1
    outer loop
      vertex 7.56467 -6.54877 6.35
      vertex 7.67454 -6.32063 6.35
      vertex 7.82364 -5.8373 6.35
    endloop
  endfacet
  facet normal 0.900963 -0.433895 0
    outer loop
      vertex 7.56467 -6.54877 -1.27
      vertex 7.67454 -6.32063 -1.27
      vertex 7.67454 -6.32063 6.35
    endloop
  endfacet
  facet normal 0 0 -1
    outer loop
      vertex 6.71205 -7.46768 -6.35
      vertex 6.26196 -7.69843 -6.35
      vertex 5.5238 -7.8669 -6.35
    endloop
  endfacet
  facet normal 0.583708 -0.811963 0
    outer loop
      vertex 6.91766 -7.31987 1.26998
      vertex 6.91766 -7.31987 6.35
      vertex 6.71205 -7.46768 -6.35
    endloop
  endfacet
  facet normal 0.0249596 -0.999688 0
    outer loop
      vertex 5.5238 -7.8669 1.26998
      vertex 5.27067 -7.87322 6.35
      vertex 5.5238 -7.8669 -6.35
    endloop
  endfacet
  facet normal 0 0 1
    outer loop
      vertex 5.27067 -7.87322 6.35
      vertex 5.77505 -7.83541 6.35
      vertex 6.26196 -7.69843 6.35
    endloop
  endfacet
  facet normal 0 0 -1
    outer loop
      vertex -7.72084 -6.20274 -6.35
      vertex -7.79547 -5.96077 -6.35
      vertex -7.87085 -5.46063 -6.35
    endloop
  endfacet
  facet normal -0.766061 -0.642768 -0
    outer loop
      vertex -7.19596 -7.06165 6.35
      vertex -7.35872 -6.86767 -1.27
      vertex -7.19596 -7.06165 1.26998
    endloop
  endfacet
  facet normal -0.36537 -0.930862 0
    outer loop
      vertex -6.14298 -7.74174 6.35
      vertex -6.37867 -7.64923 6.35
      vertex -6.37867 -7.64923 1.26998
    endloop
  endfacet
  facet normal -0.826227 -0.563337 0
    outer loop
      vertex -7.35872 -6.86767 -1.27
      vertex -7.35872 -6.86767 6.35
      vertex -7.50137 -6.65845 6.35
    endloop
  endfacet
  facet normal 0.318466 -0.947934 0
    outer loop
      vertex 6.02193 -7.77907 -1.27
      vertex 6.26196 -7.69843 -6.35
      vertex 6.26196 -7.69843 6.35
    endloop
  endfacet
  facet normal 0.222488 -0.974935 0
    outer loop
      vertex 5.77505 -7.83541 -6.35
      vertex 6.02193 -7.77907 -6.35
      vertex 6.02193 -7.77907 -1.27
    endloop
  endfacet
  facet normal -0.074679 -0.997208 0
    outer loop
      vertex -5.64984 -7.85431 -6.35
      vertex -5.39733 -7.87322 -6.35
      vertex -5.39733 -7.87322 6.35
    endloop
  endfacet
  facet normal -0 0 -1
    outer loop
      vertex 5.5238 -7.8669 -6.35
      vertex -5.39733 -7.87322 -6.35
      vertex -5.64984 -7.85431 -6.35
    endloop
  endfacet
  facet normal -0.173639 -0.984809 0
    outer loop
      vertex -5.64984 -7.85431 -6.35
      vertex -5.64984 -7.85431 1.26998
      vertex -5.89922 -7.81034 1.26998
    endloop
  endfacet
  facet normal -0.173639 -0.984809 0
    outer loop
      vertex -5.64984 -7.85431 1.26998
      vertex -5.89922 -7.81034 6.35
      vertex -5.89922 -7.81034 1.26998
    endloop
  endfacet
  facet normal 0.900963 -0.433895 0
    outer loop
      vertex 7.56467 -6.54877 -1.27
      vertex 7.67454 -6.32063 6.35
      vertex 7.56467 -6.54877 6.35
    endloop
  endfacet
  facet normal 0.939701 -0.341997 0
    outer loop
      vertex 7.67454 -6.32063 6.35
      vertex 7.67454 -6.32063 -1.27
      vertex 7.76114 -6.08268 -6.35
    endloop
  endfacet
  facet normal 0.988831 -0.149041 0
    outer loop
      vertex 7.82364 -5.8373 6.35
      vertex 7.82364 -5.8373 -6.35
      vertex 7.86138 -5.58691 -6.35
    endloop
  endfacet
  facet normal 0.96906 -0.246826 0
    outer loop
      vertex 7.76114 -6.08268 -6.35
      vertex 7.82364 -5.8373 -6.35
      vertex 7.82364 -5.8373 6.35
    endloop
  endfacet
  facet normal 0.988831 -0.149041 0
    outer loop
      vertex 7.86138 -5.58691 1.26998
      vertex 7.86138 -5.58691 6.35
      vertex 7.82364 -5.8373 6.35
    endloop
  endfacet
  facet normal 0.998757 -0.0498391 0
    outer loop
      vertex 7.874 -5.33401 6.35
      vertex 7.86138 -5.58691 6.35
      vertex 7.86138 -5.58691 1.26998
    endloop
  endfacet
  facet normal 0 0 -1
    outer loop
      vertex 7.1075 -7.15231 -6.35
      vertex 6.91766 -7.31987 -6.35
      vertex 6.71205 -7.46768 -6.35
    endloop
  endfacet
  facet normal 0.661742 -0.749732 0
    outer loop
      vertex 6.91766 -7.31987 1.26998
      vertex 6.91766 -7.31987 -6.35
      vertex 7.1075 -7.15231 -6.35
    endloop
  endfacet
  facet normal 0.500038 0.866003 0
    outer loop
      vertex 6.71205 7.46765 -1.27
      vertex 6.49276 7.59427 -6.35
      vertex 6.49276 7.59427 -1.27
    endloop
  endfacet
  facet normal 0 0 -1
    outer loop
      vertex 6.49276 7.59427 -6.35
      vertex 6.71205 7.46765 -6.35
      vertex 6.91766 7.31984 -6.35
    endloop
  endfacet
  facet normal 0.124283 0.992247 -0
    outer loop
      vertex 5.77505 7.83541 -6.35
      vertex 5.5238 7.86688 -6.35
      vertex 5.77505 7.83541 -1.27
    endloop
  endfacet
  facet normal 0.222601 0.97491 0
    outer loop
      vertex 6.02193 7.77904 -6.35
      vertex 5.77505 7.83541 -6.35
      vertex 5.77505 7.83541 -1.27
    endloop
  endfacet
  facet normal 0 0 1
    outer loop
      vertex 6.26196 7.6984 6.35
      vertex 5.27067 7.8732 6.35
      vertex -5.64984 7.85428 6.35
    endloop
  endfacet
  facet normal 0 0 1
    outer loop
      vertex 5.77505 7.83541 6.35
      vertex 5.5238 7.86688 6.35
      vertex 5.27067 7.8732 6.35
    endloop
  endfacet
  facet normal 0 0 1
    outer loop
      vertex -7.0147 -7.23845 6.35
      vertex -6.14298 -7.74174 6.35
      vertex -5.39733 -7.87322 6.35
    endloop
  endfacet
  facet normal 0 0 1
    outer loop
      vertex -7.0147 -7.23845 6.35
      vertex -6.60402 -7.53371 6.35
      vertex -6.14298 -7.74174 6.35
    endloop
  endfacet
  facet normal 0 0 -1
    outer loop
      vertex -6.60402 7.53368 -6.35
      vertex -6.37867 7.6492 -6.35
      vertex -6.14298 7.74171 -6.35
    endloop
  endfacet
  facet normal 0 0 -1
    outer loop
      vertex -6.14298 7.74171 -6.35
      vertex -5.89922 7.81031 -6.35
      vertex -5.39733 7.8732 -6.35
    endloop
  endfacet
  facet normal -0.955582 0.294727 0
    outer loop
      vertex -7.72084 6.20271 1.26998
      vertex -7.79547 5.96074 -6.35
      vertex -7.79547 5.96074 6.35
    endloop
  endfacet
  facet normal -0.955582 0.294727 0
    outer loop
      vertex -7.79547 5.96074 6.35
      vertex -7.72084 6.20271 6.35
      vertex -7.72084 6.20271 1.26998
    endloop
  endfacet
  facet normal 0 0 -1
    outer loop
      vertex -6.81672 7.39631 -6.35
      vertex -6.60402 7.53368 -6.35
      vertex -6.14298 7.74171 -6.35
    endloop
  endfacet
  facet normal 0 0 1
    outer loop
      vertex -6.60402 7.53368 6.35
      vertex -6.81672 7.39631 6.35
      vertex -7.19596 7.06162 6.35
    endloop
  endfacet
  facet normal 0 0 -1
    outer loop
      vertex -7.72084 -6.20274 -6.35
      vertex -7.87085 -5.46063 -6.35
      vertex -7.87085 5.4606 -6.35
    endloop
  endfacet
  facet normal -0.995027 -0.0996015 0
    outer loop
      vertex -7.87085 -5.46063 -6.35
      vertex -7.84563 -5.71258 -6.35
      vertex -7.84563 -5.71258 6.35
    endloop
  endfacet
  facet normal 0.797181 -0.603741 0
    outer loop
      vertex 7.43262 -6.76484 -6.35
      vertex 7.43262 -6.76484 1.26998
      vertex 7.27975 -6.96669 1.26998
    endloop
  endfacet
  facet normal 0.797181 -0.603741 0
    outer loop
      vertex 7.27975 -6.96669 -1.27
      vertex 7.43262 -6.76484 -6.35
      vertex 7.27975 -6.96669 1.26998
    endloop
  endfacet
  facet normal 0 0 1
    outer loop
      vertex 6.91766 -7.31987 6.35
      vertex 7.1075 -7.15231 6.35
      vertex 7.56467 -6.54877 6.35
    endloop
  endfacet
  facet normal 0.661742 -0.749732 0
    outer loop
      vertex 7.1075 -7.15231 -6.35
      vertex 7.1075 -7.15231 6.35
      vertex 6.91766 -7.31987 6.35
    endloop
  endfacet
  facet normal 0 0 1
    outer loop
      vertex 6.49276 -7.59429 6.35
      vertex 6.71205 -7.46768 6.35
      vertex 6.91766 -7.31987 6.35
    endloop
  endfacet
  facet normal 0 0 1
    outer loop
      vertex 6.26196 -7.69843 6.35
      vertex 6.49276 -7.59429 6.35
      vertex 6.91766 -7.31987 6.35
    endloop
  endfacet
  facet normal 0 0 -1
    outer loop
      vertex 6.26196 -7.69843 -6.35
      vertex 5.77505 -7.83541 -6.35
      vertex 5.5238 -7.8669 -6.35
    endloop
  endfacet
  facet normal 0 0 1
    outer loop
      vertex 5.77505 -7.83541 6.35
      vertex 6.02193 -7.77907 6.35
      vertex 6.26196 -7.69843 6.35
    endloop
  endfacet
  facet normal -0.921464 -0.388465 0
    outer loop
      vertex -7.62247 -6.43608 1.26998
      vertex -7.72084 -6.20274 1.26998
      vertex -7.72084 -6.20274 -6.35
    endloop
  endfacet
  facet normal -0.878215 -0.478265 0
    outer loop
      vertex -7.62247 -6.43608 1.26998
      vertex -7.50137 -6.65845 -6.35
      vertex -7.50137 -6.65845 6.35
    endloop
  endfacet
  facet normal -0.955582 -0.294727 0
    outer loop
      vertex -7.72084 -6.20274 1.26998
      vertex -7.79547 -5.96077 6.35
      vertex -7.79547 -5.96077 -6.35
    endloop
  endfacet
  facet normal -0.921464 -0.388465 0
    outer loop
      vertex -7.62247 -6.43608 1.26998
      vertex -7.62247 -6.43608 6.35
      vertex -7.72084 -6.20274 1.26998
    endloop
  endfacet
  facet normal 0 0 -1
    outer loop
      vertex -6.81672 -7.39634 -6.35
      vertex -7.50137 -6.65845 -6.35
      vertex -7.72084 -6.20274 -6.35
    endloop
  endfacet
  facet normal 0 0 -1
    outer loop
      vertex -6.81672 -7.39634 -6.35
      vertex -7.19596 -7.06165 -6.35
      vertex -7.50137 -6.65845 -6.35
    endloop
  endfacet
  facet normal -0.270901 -0.962607 -0
    outer loop
      vertex -6.14298 -7.74174 6.35
      vertex -6.14298 -7.74174 -6.35
      vertex -5.89922 -7.81034 1.26998
    endloop
  endfacet
  facet normal -0.36537 -0.930862 0
    outer loop
      vertex -6.37867 -7.64923 1.26998
      vertex -6.14298 -7.74174 -6.35
      vertex -6.14298 -7.74174 6.35
    endloop
  endfacet
  facet normal -0.623505 -0.78182 0
    outer loop
      vertex -6.81672 -7.39634 -6.35
      vertex -6.81672 -7.39634 6.35
      vertex -7.0147 -7.23845 6.35
    endloop
  endfacet
  facet normal -0.542529 -0.840037 0
    outer loop
      vertex -6.81672 -7.39634 -6.35
      vertex -6.60402 -7.53371 -6.35
      vertex -6.60402 -7.53371 6.35
    endloop
  endfacet
  facet normal -0.623505 -0.78182 -0
    outer loop
      vertex -7.0147 -7.23845 6.35
      vertex -7.0147 -7.23845 -1.27
      vertex -6.81672 -7.39634 -6.35
    endloop
  endfacet
  facet normal -0.698245 -0.715859 0
    outer loop
      vertex -7.19596 -7.06165 1.26998
      vertex -7.0147 -7.23845 -1.27
      vertex -7.0147 -7.23845 6.35
    endloop
  endfacet
  facet normal 0.411284 -0.911507 0
    outer loop
      vertex 6.26196 -7.69843 -6.35
      vertex 6.49276 -7.59429 -6.35
      vertex 6.49276 -7.59429 6.35
    endloop
  endfacet
  facet normal 0.411284 -0.911507 0
    outer loop
      vertex 6.26196 -7.69843 6.35
      vertex 6.26196 -7.69843 -6.35
      vertex 6.49276 -7.59429 6.35
    endloop
  endfacet
  facet normal 0 -1 0
    outer loop
      vertex -5.39733 -7.87322 -6.35
      vertex 5.27067 -7.87322 -6.35
      vertex 5.27067 -7.87322 6.35
    endloop
  endfacet
  facet normal 0 0 -1
    outer loop
      vertex 5.5238 -7.8669 -6.35
      vertex 5.27067 -7.87322 -6.35
      vertex -5.39733 -7.87322 -6.35
    endloop
  endfacet
  facet normal -0.074679 -0.997208 0
    outer loop
      vertex -5.39733 -7.87322 6.35
      vertex -5.64984 -7.85431 1.26998
      vertex -5.64984 -7.85431 -6.35
    endloop
  endfacet
  facet normal -0.074679 -0.997208 0
    outer loop
      vertex -5.39733 -7.87322 6.35
      vertex -5.64984 -7.85431 6.35
      vertex -5.64984 -7.85431 1.26998
    endloop
  endfacet
  facet normal 0 0 1
    outer loop
      vertex 7.67454 -6.32063 6.35
      vertex 7.76114 -6.08268 6.35
      vertex 7.82364 -5.8373 6.35
    endloop
  endfacet
  facet normal 0.939701 -0.341997 0
    outer loop
      vertex 7.76114 -6.08268 -6.35
      vertex 7.76114 -6.08268 6.35
      vertex 7.67454 -6.32063 6.35
    endloop
  endfacet
  facet normal 0.939701 -0.341997 0
    outer loop
      vertex 7.67454 -6.32063 -1.27
      vertex 7.67454 -6.32063 -6.35
      vertex 7.76114 -6.08268 -6.35
    endloop
  endfacet
  facet normal 0.900963 -0.433895 0
    outer loop
      vertex 7.56467 -6.54877 -1.27
      vertex 7.67454 -6.32063 -6.35
      vertex 7.67454 -6.32063 -1.27
    endloop
  endfacet
  facet normal 0.500038 0.866003 0
    outer loop
      vertex 6.71205 7.46765 -1.27
      vertex 6.71205 7.46765 -6.35
      vertex 6.49276 7.59427 -6.35
    endloop
  endfacet
  facet normal 0.583708 0.811963 0
    outer loop
      vertex 6.91766 7.31984 -6.35
      vertex 6.71205 7.46765 -6.35
      vertex 6.71205 7.46765 -1.27
    endloop
  endfacet
  facet normal 0.0249596 0.999688 0
    outer loop
      vertex 5.27067 7.8732 6.35
      vertex 5.5238 7.86688 -6.35
      vertex 5.27067 7.8732 -6.35
    endloop
  endfacet
  facet normal 0.124283 0.992247 0
    outer loop
      vertex 5.5238 7.86688 -6.35
      vertex 5.77505 7.83541 6.35
      vertex 5.77505 7.83541 -1.27
    endloop
  endfacet
  facet normal 0 0 1
    outer loop
      vertex 6.26196 7.6984 6.35
      vertex 5.77505 7.83541 6.35
      vertex 5.27067 7.8732 6.35
    endloop
  endfacet
  facet normal 0.222601 0.97491 0
    outer loop
      vertex 5.77505 7.83541 6.35
      vertex 6.02193 7.77904 6.35
      vertex 6.02193 7.77904 1.26998
    endloop
  endfacet
  facet normal 0 0 1
    outer loop
      vertex 5.27067 7.8732 6.35
      vertex -5.39733 7.8732 6.35
      vertex -5.64984 7.85428 6.35
    endloop
  endfacet
  facet normal 0 1 0
    outer loop
      vertex -5.39733 7.8732 -6.35
      vertex -5.39733 7.8732 6.35
      vertex 5.27067 7.8732 6.35
    endloop
  endfacet
  facet normal 0 0 1
    outer loop
      vertex -6.14298 -7.74174 6.35
      vertex -5.89922 -7.81034 6.35
      vertex -5.39733 -7.87322 6.35
    endloop
  endfacet
  facet normal -0.270901 -0.962607 0
    outer loop
      vertex -5.89922 -7.81034 1.26998
      vertex -5.89922 -7.81034 6.35
      vertex -6.14298 -7.74174 6.35
    endloop
  endfacet
  facet normal 0 0 1
    outer loop
      vertex -5.64984 7.85428 6.35
      vertex -6.14298 7.74171 6.35
      vertex -6.60402 7.53368 6.35
    endloop
  endfacet
  facet normal 0 0 -1
    outer loop
      vertex -5.89922 7.81031 -6.35
      vertex -5.64984 7.85428 -6.35
      vertex -5.39733 7.8732 -6.35
    endloop
  endfacet
  facet normal -0.766028 0.642807 0
    outer loop
      vertex -7.19596 7.06162 -6.35
      vertex -7.35872 6.86766 6.35
      vertex -7.19596 7.06162 6.35
    endloop
  endfacet
  facet normal -0.995027 0.0996015 0
    outer loop
      vertex -7.84563 5.71255 6.35
      vertex -7.84563 5.71255 -6.35
      vertex -7.87085 5.4606 -6.35
    endloop
  endfacet
  facet normal -0.623481 0.781839 0
    outer loop
      vertex -6.81672 7.39631 -6.35
      vertex -7.0147 7.23843 1.26998
      vertex -6.81672 7.39631 6.35
    endloop
  endfacet
  facet normal 0 0 -1
    outer loop
      vertex -7.87085 5.4606 -6.35
      vertex -7.50137 6.65842 -6.35
      vertex -6.81672 7.39631 -6.35
    endloop
  endfacet
  facet normal -0.270901 0.962607 0
    outer loop
      vertex -6.14298 7.74171 6.35
      vertex -5.89922 7.81031 6.35
      vertex -5.89922 7.81031 -6.35
    endloop
  endfacet
  facet normal -0.270901 0.962607 0
    outer loop
      vertex -6.14298 7.74171 -6.35
      vertex -6.14298 7.74171 6.35
      vertex -5.89922 7.81031 -6.35
    endloop
  endfacet
  facet normal -0.542529 0.840037 0
    outer loop
      vertex -6.60402 7.53368 6.35
      vertex -6.60402 7.53368 -6.35
      vertex -6.81672 7.39631 -6.35
    endloop
  endfacet
  facet normal -0.456179 0.889888 0
    outer loop
      vertex -6.60402 7.53368 6.35
      vertex -6.37867 7.6492 1.26998
      vertex -6.60402 7.53368 -6.35
    endloop
  endfacet
  facet normal -0.542529 0.840037 0
    outer loop
      vertex -6.81672 7.39631 -6.35
      vertex -6.81672 7.39631 6.35
      vertex -6.60402 7.53368 6.35
    endloop
  endfacet
  facet normal 0 0 1
    outer loop
      vertex -6.81672 7.39631 6.35
      vertex -7.0147 7.23843 6.35
      vertex -7.19596 7.06162 6.35
    endloop
  endfacet
  facet normal -1 0 0
    outer loop
      vertex -7.87085 -5.46063 -6.35
      vertex -7.87085 -5.46063 6.35
      vertex -7.87085 -5.2074 6.35
    endloop
  endfacet
  facet normal -0.995027 -0.0996015 0
    outer loop
      vertex -7.84563 -5.71258 6.35
      vertex -7.87085 -5.46063 6.35
      vertex -7.87085 -5.46063 -6.35
    endloop
  endfacet
  facet normal -0.955582 -0.294727 -0
    outer loop
      vertex -7.72084 -6.20274 1.26998
      vertex -7.79547 -5.96077 -6.35
      vertex -7.72084 -6.20274 -6.35
    endloop
  endfacet
  facet normal -0.980182 -0.198098 0
    outer loop
      vertex -7.79547 -5.96077 -6.35
      vertex -7.79547 -5.96077 6.35
      vertex -7.84563 -5.71258 6.35
    endloop
  endfacet
  facet normal 0 0 -1
    outer loop
      vertex 7.43262 -6.76484 -6.35
      vertex 7.27975 -6.96669 -6.35
      vertex 7.1075 -7.15231 -6.35
    endloop
  endfacet
  facet normal 0.797181 -0.603741 0
    outer loop
      vertex 7.27975 -6.96669 -1.27
      vertex 7.27975 -6.96669 -6.35
      vertex 7.43262 -6.76484 -6.35
    endloop
  endfacet
  facet normal 0.853269 -0.521471 0
    outer loop
      vertex 7.56467 -6.54877 6.35
      vertex 7.43262 -6.76484 1.26998
      vertex 7.43262 -6.76484 -6.35
    endloop
  endfacet
  facet normal 0.853269 -0.521471 0
    outer loop
      vertex 7.56467 -6.54877 6.35
      vertex 7.43262 -6.76484 6.35
      vertex 7.43262 -6.76484 1.26998
    endloop
  endfacet
  facet normal 0 0 1
    outer loop
      vertex 7.1075 -7.15231 6.35
      vertex 7.27975 -6.96669 6.35
      vertex 7.56467 -6.54877 6.35
    endloop
  endfacet
  facet normal 0.733013 -0.680215 0
    outer loop
      vertex 7.27975 -6.96669 1.26998
      vertex 7.27975 -6.96669 6.35
      vertex 7.1075 -7.15231 6.35
    endloop
  endfacet
  facet normal 0.500008 -0.866021 0
    outer loop
      vertex 6.71205 -7.46768 -6.35
      vertex 6.71205 -7.46768 6.35
      vertex 6.49276 -7.59429 6.35
    endloop
  endfacet
  facet normal 0.583708 -0.811963 0
    outer loop
      vertex 6.91766 -7.31987 6.35
      vertex 6.71205 -7.46768 6.35
      vertex 6.71205 -7.46768 -6.35
    endloop
  endfacet
  facet normal 0.12436 -0.992237 0
    outer loop
      vertex 5.77505 -7.83541 6.35
      vertex 5.5238 -7.8669 6.35
      vertex 5.5238 -7.8669 1.26998
    endloop
  endfacet
  facet normal 0 0 1
    outer loop
      vertex 5.27067 -7.87322 6.35
      vertex 5.5238 -7.8669 6.35
      vertex 5.77505 -7.83541 6.35
    endloop
  endfacet
  facet normal 0.222488 -0.974935 0
    outer loop
      vertex 5.77505 -7.83541 6.35
      vertex 5.77505 -7.83541 -6.35
      vertex 6.02193 -7.77907 -1.27
    endloop
  endfacet
  facet normal 0.12436 -0.992237 0
    outer loop
      vertex 5.5238 -7.8669 -6.35
      vertex 5.77505 -7.83541 -6.35
      vertex 5.77505 -7.83541 6.35
    endloop
  endfacet
  facet normal 0.222488 -0.974935 0
    outer loop
      vertex 6.02193 -7.77907 -1.27
      vertex 6.02193 -7.77907 6.35
      vertex 5.77505 -7.83541 6.35
    endloop
  endfacet
  facet normal 0.318466 -0.947934 0
    outer loop
      vertex 6.26196 -7.69843 6.35
      vertex 6.02193 -7.77907 6.35
      vertex 6.02193 -7.77907 -1.27
    endloop
  endfacet
  facet normal 0 0 1
    outer loop
      vertex -7.50137 -6.65845 6.35
      vertex -7.19596 -7.06165 6.35
      vertex -7.0147 -7.23845 6.35
    endloop
  endfacet
  facet normal -0.826227 -0.563337 0
    outer loop
      vertex -7.50137 -6.65845 -6.35
      vertex -7.35872 -6.86767 -1.27
      vertex -7.50137 -6.65845 6.35
    endloop
  endfacet
  facet normal -0.878215 -0.478265 0
    outer loop
      vertex -7.50137 -6.65845 6.35
      vertex -7.62247 -6.43608 6.35
      vertex -7.62247 -6.43608 1.26998
    endloop
  endfacet
  facet normal 0 0 1
    outer loop
      vertex -7.84563 -5.71258 6.35
      vertex -7.62247 -6.43608 6.35
      vertex -7.50137 -6.65845 6.35
    endloop
  endfacet
  facet normal -0.766061 -0.642768 0
    outer loop
      vertex -7.35872 -6.86767 -1.27
      vertex -7.19596 -7.06165 -6.35
      vertex -7.19596 -7.06165 1.26998
    endloop
  endfacet
  facet normal 0 0 -1
    outer loop
      vertex -7.19596 -7.06165 -6.35
      vertex -7.35872 -6.86767 -6.35
      vertex -7.50137 -6.65845 -6.35
    endloop
  endfacet
  facet normal -0.878215 -0.478265 -0
    outer loop
      vertex -7.62247 -6.43608 1.26998
      vertex -7.62247 -6.43608 -6.35
      vertex -7.50137 -6.65845 -6.35
    endloop
  endfacet
  facet normal -0.921464 -0.388465 0
    outer loop
      vertex -7.72084 -6.20274 -6.35
      vertex -7.62247 -6.43608 -6.35
      vertex -7.62247 -6.43608 1.26998
    endloop
  endfacet
  facet normal 0 0 -1
    outer loop
      vertex -6.14298 -7.74174 -6.35
      vertex -6.60402 -7.53371 -6.35
      vertex -6.81672 -7.39634 -6.35
    endloop
  endfacet
  facet normal -0.456179 -0.889888 0
    outer loop
      vertex -6.60402 -7.53371 -6.35
      vertex -6.37867 -7.64923 -6.35
      vertex -6.37867 -7.64923 1.26998
    endloop
  endfacet
  facet normal 0 0 -1
    outer loop
      vertex -5.64984 -7.85431 -6.35
      vertex -5.89922 -7.81034 -6.35
      vertex -6.14298 -7.74174 -6.35
    endloop
  endfacet
  facet normal -0.173639 -0.984809 -0
    outer loop
      vertex -5.89922 -7.81034 1.26998
      vertex -5.89922 -7.81034 -6.35
      vertex -5.64984 -7.85431 -6.35
    endloop
  endfacet
  facet normal 0 0 1
    outer loop
      vertex -6.60402 -7.53371 6.35
      vertex -6.37867 -7.64923 6.35
      vertex -6.14298 -7.74174 6.35
    endloop
  endfacet
  facet normal -0.456179 -0.889888 0
    outer loop
      vertex -6.37867 -7.64923 1.26998
      vertex -6.37867 -7.64923 6.35
      vertex -6.60402 -7.53371 6.35
    endloop
  endfacet
  facet normal -0.542529 -0.840037 0
    outer loop
      vertex -6.60402 -7.53371 6.35
      vertex -6.81672 -7.39634 6.35
      vertex -6.81672 -7.39634 -6.35
    endloop
  endfacet
  facet normal 0 0 1
    outer loop
      vertex -7.0147 -7.23845 6.35
      vertex -6.81672 -7.39634 6.35
      vertex -6.60402 -7.53371 6.35
    endloop
  endfacet
  facet normal 0 0 -1
    outer loop
      vertex 6.71205 -7.46768 -6.35
      vertex 6.49276 -7.59429 -6.35
      vertex 6.26196 -7.69843 -6.35
    endloop
  endfacet
  facet normal 0.500008 -0.866021 0
    outer loop
      vertex 6.49276 -7.59429 6.35
      vertex 6.49276 -7.59429 -6.35
      vertex 6.71205 -7.46768 -6.35
    endloop
  endfacet
  facet normal 0.853269 -0.521471 0
    outer loop
      vertex 7.43262 -6.76484 -6.35
      vertex 7.56467 -6.54877 -6.35
      vertex 7.56467 -6.54877 -1.27
    endloop
  endfacet
  facet normal 0 0 -1
    outer loop
      vertex 7.76114 -6.08268 -6.35
      vertex 7.67454 -6.32063 -6.35
      vertex 7.43262 -6.76484 -6.35
    endloop
  endfacet
  facet normal 0.124283 0.992247 -0
    outer loop
      vertex 5.5238 7.86688 -6.35
      vertex 5.5238 7.86688 6.35
      vertex 5.77505 7.83541 6.35
    endloop
  endfacet
  facet normal 0.0249596 0.999688 0
    outer loop
      vertex 5.27067 7.8732 6.35
      vertex 5.5238 7.86688 6.35
      vertex 5.5238 7.86688 -6.35
    endloop
  endfacet
  facet normal 0 0 1
    outer loop
      vertex 6.26196 7.6984 6.35
      vertex 6.02193 7.77904 6.35
      vertex 5.77505 7.83541 6.35
    endloop
  endfacet
  facet normal 0.318466 0.947934 -0
    outer loop
      vertex 6.02193 7.77904 1.26998
      vertex 6.02193 7.77904 6.35
      vertex 6.26196 7.6984 6.35
    endloop
  endfacet
  facet normal 0 0 1
    outer loop
      vertex -5.89922 -7.81034 6.35
      vertex -5.64984 -7.85431 6.35
      vertex -5.39733 -7.87322 6.35
    endloop
  endfacet
  facet normal -0.173639 -0.984809 0
    outer loop
      vertex -5.64984 -7.85431 1.26998
      vertex -5.64984 -7.85431 6.35
      vertex -5.89922 -7.81034 6.35
    endloop
  endfacet
  facet normal -0.173639 0.984809 0
    outer loop
      vertex -5.64984 7.85428 6.35
      vertex -5.64984 7.85428 -6.35
      vertex -5.89922 7.81031 -6.35
    endloop
  endfacet
  facet normal -0.0747183 0.997205 0
    outer loop
      vertex -5.39733 7.8732 -6.35
      vertex -5.64984 7.85428 -6.35
      vertex -5.64984 7.85428 6.35
    endloop
  endfacet
  facet normal 0 0 1
    outer loop
      vertex -7.79547 5.96074 6.35
      vertex -7.84563 5.71255 6.35
      vertex -7.87085 5.4606 6.35
    endloop
  endfacet
  facet normal -0.980182 0.198098 0
    outer loop
      vertex -7.79547 5.96074 6.35
      vertex -7.79547 5.96074 -6.35
      vertex -7.84563 5.71255 6.35
    endloop
  endfacet
  facet normal 0 0 1
    outer loop
      vertex -7.50137 6.65842 6.35
      vertex -7.62247 6.43605 6.35
      vertex -7.79547 5.96074 6.35
    endloop
  endfacet
  facet normal 0 0 1
    outer loop
      vertex -7.19596 7.06162 6.35
      vertex -7.50137 6.65842 6.35
      vertex -7.79547 5.96074 6.35
    endloop
  endfacet
  facet normal -0.921464 0.388465 0
    outer loop
      vertex -7.62247 6.43605 6.35
      vertex -7.72084 6.20271 -6.35
      vertex -7.72084 6.20271 1.26998
    endloop
  endfacet
  facet normal 0 0 -1
    outer loop
      vertex -7.87085 5.4606 -6.35
      vertex -7.79547 5.96074 -6.35
      vertex -7.50137 6.65842 -6.35
    endloop
  endfacet
  facet normal 0 0 -1
    outer loop
      vertex -7.50137 6.65842 -6.35
      vertex -7.19596 7.06162 -6.35
      vertex -6.81672 7.39631 -6.35
    endloop
  endfacet
  facet normal -0.826252 0.5633 0
    outer loop
      vertex -7.35872 6.86766 6.35
      vertex -7.35872 6.86766 -6.35
      vertex -7.50137 6.65842 -6.35
    endloop
  endfacet
  facet normal 0 0 1
    outer loop
      vertex -6.14298 7.74171 6.35
      vertex -6.37867 7.6492 6.35
      vertex -6.60402 7.53368 6.35
    endloop
  endfacet
  facet normal -0.36537 0.930862 0
    outer loop
      vertex -6.14298 7.74171 -6.35
      vertex -6.37867 7.6492 1.26998
      vertex -6.14298 7.74171 6.35
    endloop
  endfacet
  facet normal 0 0 1
    outer loop
      vertex -5.64984 7.85428 6.35
      vertex -5.89922 7.81031 6.35
      vertex -6.14298 7.74171 6.35
    endloop
  endfacet
  facet normal -0.173639 0.984809 0
    outer loop
      vertex -5.89922 7.81031 -6.35
      vertex -5.89922 7.81031 6.35
      vertex -5.64984 7.85428 6.35
    endloop
  endfacet
  facet normal -0.698265 0.715839 0
    outer loop
      vertex -7.0147 7.23843 1.26998
      vertex -7.0147 7.23843 -6.35
      vertex -7.19596 7.06162 -6.35
    endloop
  endfacet
  facet normal -0.698265 0.715839 0
    outer loop
      vertex -7.19596 7.06162 6.35
      vertex -7.0147 7.23843 1.26998
      vertex -7.19596 7.06162 -6.35
    endloop
  endfacet
  facet normal 0 0 -1
    outer loop
      vertex -7.79547 -5.96077 -6.35
      vertex -7.84563 -5.71258 -6.35
      vertex -7.87085 -5.46063 -6.35
    endloop
  endfacet
  facet normal -0.980182 -0.198098 -0
    outer loop
      vertex -7.84563 -5.71258 6.35
      vertex -7.84563 -5.71258 -6.35
      vertex -7.79547 -5.96077 -6.35
    endloop
  endfacet
  facet normal -0.921464 -0.388465 0
    outer loop
      vertex -7.62247 -6.43608 6.35
      vertex -7.72084 -6.20274 6.35
      vertex -7.72084 -6.20274 1.26998
    endloop
  endfacet
  facet normal 0 0 1
    outer loop
      vertex -7.84563 -5.71258 6.35
      vertex -7.79547 -5.96077 6.35
      vertex -7.62247 -6.43608 6.35
    endloop
  endfacet
  facet normal 0 0 1
    outer loop
      vertex 7.27975 -6.96669 6.35
      vertex 7.43262 -6.76484 6.35
      vertex 7.56467 -6.54877 6.35
    endloop
  endfacet
  facet normal 0.797181 -0.603741 0
    outer loop
      vertex 7.43262 -6.76484 1.26998
      vertex 7.43262 -6.76484 6.35
      vertex 7.27975 -6.96669 6.35
    endloop
  endfacet
  facet normal 0 0 -1
    outer loop
      vertex 6.26196 -7.69843 -6.35
      vertex 6.02193 -7.77907 -6.35
      vertex 5.77505 -7.83541 -6.35
    endloop
  endfacet
  facet normal 0.318466 -0.947934 0
    outer loop
      vertex 6.02193 -7.77907 -1.27
      vertex 6.02193 -7.77907 -6.35
      vertex 6.26196 -7.69843 -6.35
    endloop
  endfacet
  facet normal -0.766061 -0.642768 0
    outer loop
      vertex -7.19596 -7.06165 6.35
      vertex -7.35872 -6.86767 6.35
      vertex -7.35872 -6.86767 -1.27
    endloop
  endfacet
  facet normal 0 0 1
    outer loop
      vertex -7.50137 -6.65845 6.35
      vertex -7.35872 -6.86767 6.35
      vertex -7.19596 -7.06165 6.35
    endloop
  endfacet
  facet normal -0.623505 -0.78182 -0
    outer loop
      vertex -7.0147 -7.23845 -1.27
      vertex -7.0147 -7.23845 -6.35
      vertex -6.81672 -7.39634 -6.35
    endloop
  endfacet
  facet normal -0.698245 -0.715859 -0
    outer loop
      vertex -7.19596 -7.06165 1.26998
      vertex -7.19596 -7.06165 -6.35
      vertex -7.0147 -7.23845 -1.27
    endloop
  endfacet
  facet normal 0 0 -1
    outer loop
      vertex -6.14298 -7.74174 -6.35
      vertex -6.37867 -7.64923 -6.35
      vertex -6.60402 -7.53371 -6.35
    endloop
  endfacet
  facet normal -0.36537 -0.930862 -0
    outer loop
      vertex -6.37867 -7.64923 1.26998
      vertex -6.37867 -7.64923 -6.35
      vertex -6.14298 -7.74174 -6.35
    endloop
  endfacet
  facet normal 0 0 -1
    outer loop
      vertex 7.67454 -6.32063 -6.35
      vertex 7.56467 -6.54877 -6.35
      vertex 7.43262 -6.76484 -6.35
    endloop
  endfacet
  facet normal 0.900963 -0.433895 0
    outer loop
      vertex 7.56467 -6.54877 -1.27
      vertex 7.56467 -6.54877 -6.35
      vertex 7.67454 -6.32063 -6.35
    endloop
  endfacet
  facet normal -0.826252 0.5633 0
    outer loop
      vertex -7.50137 6.65842 6.35
      vertex -7.35872 6.86766 6.35
      vertex -7.50137 6.65842 -6.35
    endloop
  endfacet
  facet normal 0 0 1
    outer loop
      vertex -7.19596 7.06162 6.35
      vertex -7.35872 6.86766 6.35
      vertex -7.50137 6.65842 6.35
    endloop
  endfacet
  facet normal -0.878215 0.478265 0
    outer loop
      vertex -7.50137 6.65842 -6.35
      vertex -7.62247 6.43605 6.35
      vertex -7.50137 6.65842 6.35
    endloop
  endfacet
  facet normal 0 0 -1
    outer loop
      vertex -7.72084 6.20271 -6.35
      vertex -7.62247 6.43605 -6.35
      vertex -7.50137 6.65842 -6.35
    endloop
  endfacet
  facet normal -0.980182 0.198098 0
    outer loop
      vertex -7.79547 5.96074 -6.35
      vertex -7.84563 5.71255 -6.35
      vertex -7.84563 5.71255 6.35
    endloop
  endfacet
  facet normal 0 0 -1
    outer loop
      vertex -7.87085 5.4606 -6.35
      vertex -7.84563 5.71255 -6.35
      vertex -7.79547 5.96074 -6.35
    endloop
  endfacet
  facet normal 0 0 -1
    outer loop
      vertex -7.79547 5.96074 -6.35
      vertex -7.72084 6.20271 -6.35
      vertex -7.50137 6.65842 -6.35
    endloop
  endfacet
  facet normal -0.955582 0.294727 0
    outer loop
      vertex -7.72084 6.20271 1.26998
      vertex -7.72084 6.20271 -6.35
      vertex -7.79547 5.96074 -6.35
    endloop
  endfacet
  facet normal -0.456179 0.889888 0
    outer loop
      vertex -6.37867 7.6492 1.26998
      vertex -6.37867 7.6492 -6.35
      vertex -6.60402 7.53368 -6.35
    endloop
  endfacet
  facet normal -0.36537 0.930862 0
    outer loop
      vertex -6.14298 7.74171 -6.35
      vertex -6.37867 7.6492 -6.35
      vertex -6.37867 7.6492 1.26998
    endloop
  endfacet
  facet normal -0.36537 0.930862 0
    outer loop
      vertex -6.37867 7.6492 1.26998
      vertex -6.37867 7.6492 6.35
      vertex -6.14298 7.74171 6.35
    endloop
  endfacet
  facet normal -0.456179 0.889888 0
    outer loop
      vertex -6.60402 7.53368 6.35
      vertex -6.37867 7.6492 6.35
      vertex -6.37867 7.6492 1.26998
    endloop
  endfacet
  facet normal -0.623481 0.781839 0
    outer loop
      vertex -7.0147 7.23843 1.26998
      vertex -7.0147 7.23843 6.35
      vertex -6.81672 7.39631 6.35
    endloop
  endfacet
  facet normal -0.698265 0.715839 0
    outer loop
      vertex -7.19596 7.06162 6.35
      vertex -7.0147 7.23843 6.35
      vertex -7.0147 7.23843 1.26998
    endloop
  endfacet
  facet normal -0.623481 0.781839 0
    outer loop
      vertex -6.81672 7.39631 -6.35
      vertex -7.0147 7.23843 -6.35
      vertex -7.0147 7.23843 1.26998
    endloop
  endfacet
  facet normal 0 0 -1
    outer loop
      vertex -7.19596 7.06162 -6.35
      vertex -7.0147 7.23843 -6.35
      vertex -6.81672 7.39631 -6.35
    endloop
  endfacet
  facet normal 0 0 1
    outer loop
      vertex -7.79547 -5.96077 6.35
      vertex -7.72084 -6.20274 6.35
      vertex -7.62247 -6.43608 6.35
    endloop
  endfacet
  facet normal -0.955582 -0.294727 0
    outer loop
      vertex -7.72084 -6.20274 1.26998
      vertex -7.72084 -6.20274 6.35
      vertex -7.79547 -5.96077 6.35
    endloop
  endfacet
  facet normal -0.766061 -0.642768 -0
    outer loop
      vertex -7.35872 -6.86767 -1.27
      vertex -7.35872 -6.86767 -6.35
      vertex -7.19596 -7.06165 -6.35
    endloop
  endfacet
  facet normal -0.826227 -0.563337 0
    outer loop
      vertex -7.50137 -6.65845 -6.35
      vertex -7.35872 -6.86767 -6.35
      vertex -7.35872 -6.86767 -1.27
    endloop
  endfacet
  facet normal -0.698245 -0.715859 0
    outer loop
      vertex -7.19596 -7.06165 -6.35
      vertex -7.0147 -7.23845 -6.35
      vertex -7.0147 -7.23845 -1.27
    endloop
  endfacet
  facet normal 0 0 -1
    outer loop
      vertex -6.81672 -7.39634 -6.35
      vertex -7.0147 -7.23845 -6.35
      vertex -7.19596 -7.06165 -6.35
    endloop
  endfacet
  facet normal -0.766028 0.642807 0
    outer loop
      vertex -7.19596 7.06162 -6.35
      vertex -7.35872 6.86766 -6.35
      vertex -7.35872 6.86766 6.35
    endloop
  endfacet
  facet normal 0 0 -1
    outer loop
      vertex -7.50137 6.65842 -6.35
      vertex -7.35872 6.86766 -6.35
      vertex -7.19596 7.06162 -6.35
    endloop
  endfacet
  facet normal 0 0 1
    outer loop
      vertex -7.62247 6.43605 6.35
      vertex -7.72084 6.20271 6.35
      vertex -7.79547 5.96074 6.35
    endloop
  endfacet
  facet normal -0.921464 0.388465 0
    outer loop
      vertex -7.72084 6.20271 1.26998
      vertex -7.72084 6.20271 6.35
      vertex -7.62247 6.43605 6.35
    endloop
  endfacet
  facet normal -0.921464 0.388465 0
    outer loop
      vertex -7.62247 6.43605 6.35
      vertex -7.62247 6.43605 -6.35
      vertex -7.72084 6.20271 -6.35
    endloop
  endfacet
  facet normal -0.878215 0.478265 0
    outer loop
      vertex -7.50137 6.65842 -6.35
      vertex -7.62247 6.43605 -6.35
      vertex -7.62247 6.43605 6.35
    endloop
  endfacet
endsolid OpenSCAD_Model
