solid OpenSCAD_Model
  facet normal 0 0 -1
    outer loop
      vertex -70.3507 -69.8597 -13.716
      vertex -70.7128 -69.1947 -13.716
      vertex -70.8629 -68.4526 -13.716
    endloop
  endfacet
  facet normal 0 0 1
    outer loop
      vertex 69.0139 70.771 13.716
      vertex 68.2627 -70.8652 13.716
      vertex 70.5567 69.5408 13.716
    endloop
  endfacet
  facet normal 0.500258 0.865876 0
    outer loop
      vertex 69.7041 70.4596 13.716
      vertex 69.4848 70.5863 -13.716
      vertex 69.4848 70.5863 13.716
    endloop
  endfacet
  facet normal 0.318241 0.94801 -0
    outer loop
      vertex 69.0139 70.771 8.63598
      vertex 69.0139 70.771 13.716
      vertex 69.254 70.6904 8.63598
    endloop
  endfacet
  facet normal 0 0 1
    outer loop
      vertex 69.0139 70.771 13.716
      vertex -70.8629 68.4526 13.716
      vertex 68.2627 -70.8652 13.716
    endloop
  endfacet
  facet normal 0.411153 0.911566 0
    outer loop
      vertex 69.4848 70.5863 13.716
      vertex 69.4848 70.5863 -13.716
      vertex 69.254 70.6904 8.63598
    endloop
  endfacet
  facet normal 0.732878 0.68036 0
    outer loop
      vertex 70.2718 69.9587 -13.716
      vertex 70.0995 70.1443 -13.716
      vertex 70.0995 70.1443 13.716
    endloop
  endfacet
  facet normal 0 -0 -1
    outer loop
      vertex 70.6665 -67.3394 -13.716
      vertex 70.6665 -69.3126 -13.716
      vertex 70.2718 -69.9587 -13.716
    endloop
  endfacet
  facet normal 0.318241 0.94801 0
    outer loop
      vertex 69.0139 70.771 13.716
      vertex 69.254 70.6904 13.716
      vertex 69.254 70.6904 8.63598
    endloop
  endfacet
  facet normal 0 0 1
    outer loop
      vertex 70.5567 69.5408 13.716
      vertex 69.9097 70.3118 13.716
      vertex 69.0139 70.771 13.716
    endloop
  endfacet
  facet normal 0 0 -1
    outer loop
      vertex -69.135 -70.7337 -13.716
      vertex 68.2627 70.8652 -13.716
      vertex 70.2718 -69.9587 -13.716
    endloop
  endfacet
  facet normal 0 -1 -0
    outer loop
      vertex 68.2627 -70.8652 13.716
      vertex -68.3893 -70.8652 -13.716
      vertex 68.2627 -70.8652 -13.716
    endloop
  endfacet
  facet normal 0 0 -1
    outer loop
      vertex 70.2718 -69.9587 -13.716
      vertex 68.2627 -70.8652 -13.716
      vertex -69.135 -70.7337 -13.716
    endloop
  endfacet
  facet normal 0 0 1
    outer loop
      vertex 68.2627 -70.8652 13.716
      vertex 70.866 -68.326 13.716
      vertex 70.5567 69.5408 13.716
    endloop
  endfacet
  facet normal 0 0 1
    outer loop
      vertex 70.866 68.326 13.716
      vertex 70.8156 68.8293 13.716
      vertex 70.5567 69.5408 13.716
    endloop
  endfacet
  facet normal -0.76621 0.64259 0
    outer loop
      vertex -70.188 70.0536 -13.716
      vertex -70.3507 69.8596 13.716
      vertex -70.188 70.0536 8.63598
    endloop
  endfacet
  facet normal 0 0 1
    outer loop
      vertex -70.188 -70.0536 13.716
      vertex -69.596 -70.5257 13.716
      vertex -68.8912 -70.8023 13.716
    endloop
  endfacet
  facet normal 0 0 1
    outer loop
      vertex 70.5567 69.5408 13.716
      vertex 70.2718 69.9587 13.716
      vertex 69.9097 70.3118 13.716
    endloop
  endfacet
  facet normal 0 0 1
    outer loop
      vertex 69.9097 70.3118 13.716
      vertex 69.4848 70.5863 13.716
      vertex 69.0139 70.771 13.716
    endloop
  endfacet
  facet normal 0.988797 0.149267 0
    outer loop
      vertex 70.8534 68.5789 13.716
      vertex 70.8156 68.8293 -8.636
      vertex 70.8156 68.8293 13.716
    endloop
  endfacet
  facet normal 0 0 -1
    outer loop
      vertex 68.2627 70.8652 -13.716
      vertex 68.5158 70.8589 -13.716
      vertex 68.767 70.8274 -13.716
    endloop
  endfacet
  facet normal 0.969065 0.246807 0
    outer loop
      vertex 70.8156 68.8293 13.716
      vertex 70.8156 68.8293 -8.636
      vertex 70.7531 69.0747 8.63598
    endloop
  endfacet
  facet normal -0 1 0
    outer loop
      vertex -68.3893 70.8652 8.63598
      vertex -68.3893 70.8652 13.716
      vertex 68.2627 70.8652 -13.716
    endloop
  endfacet
  facet normal -0.0746427 0.99721 0
    outer loop
      vertex -68.3893 70.8652 -13.716
      vertex -68.6418 70.8463 13.716
      vertex -68.3893 70.8652 8.63598
    endloop
  endfacet
  facet normal 0 0 1
    outer loop
      vertex 68.2627 -70.8652 13.716
      vertex 70.0995 -70.1443 13.716
      vertex 70.866 -68.326 13.716
    endloop
  endfacet
  facet normal 0 0 -1
    outer loop
      vertex 68.2627 -70.8652 -13.716
      vertex -68.3893 -70.8652 -13.716
      vertex -69.135 -70.7337 -13.716
    endloop
  endfacet
  facet normal 0.732878 0.68036 0
    outer loop
      vertex 70.2718 69.9587 13.716
      vertex 70.2718 69.9587 -13.716
      vertex 70.0995 70.1443 13.716
    endloop
  endfacet
  facet normal 0 -0 1
    outer loop
      vertex 70.866 -68.326 13.716
      vertex 70.866 68.326 13.716
      vertex 70.5567 69.5408 13.716
    endloop
  endfacet
  facet normal 0 0 1
    outer loop
      vertex 70.2718 69.9587 13.716
      vertex 70.0995 70.1443 13.716
      vertex 69.9097 70.3118 13.716
    endloop
  endfacet
  facet normal 0.853106 0.521738 -0
    outer loop
      vertex 70.4246 69.7568 8.63598
      vertex 70.4246 69.7568 13.716
      vertex 70.5567 69.5408 13.716
    endloop
  endfacet
  facet normal 0 0 1
    outer loop
      vertex 69.4848 70.5863 13.716
      vertex 69.254 70.6904 13.716
      vertex 69.0139 70.771 13.716
    endloop
  endfacet
  facet normal 0.411153 0.911566 -0
    outer loop
      vertex 69.254 70.6904 8.63598
      vertex 69.254 70.6904 13.716
      vertex 69.4848 70.5863 13.716
    endloop
  endfacet
  facet normal 0 0 1
    outer loop
      vertex 69.9097 70.3118 13.716
      vertex 69.7041 70.4596 13.716
      vertex 69.4848 70.5863 13.716
    endloop
  endfacet
  facet normal 0.583701 0.811969 0
    outer loop
      vertex 69.9097 70.3118 13.716
      vertex 69.9097 70.3118 -13.716
      vertex 69.7041 70.4596 13.716
    endloop
  endfacet
  facet normal 0.124424 0.992229 -0
    outer loop
      vertex 68.767 70.8274 -13.716
      vertex 68.5158 70.8589 13.716
      vertex 68.767 70.8274 13.716
    endloop
  endfacet
  facet normal 0 0 -1
    outer loop
      vertex 68.2627 70.8652 -13.716
      vertex 69.4848 70.5863 -13.716
      vertex 69.9097 70.3118 -13.716
    endloop
  endfacet
  facet normal 0 0 1
    outer loop
      vertex -70.8629 68.4526 13.716
      vertex -70.188 -70.0536 13.716
      vertex 68.2627 -70.8652 13.716
    endloop
  endfacet
  facet normal -1 0 0
    outer loop
      vertex -70.8629 68.4526 8.63598
      vertex -70.8629 68.1994 13.716
      vertex -70.8629 68.4526 13.716
    endloop
  endfacet
  facet normal 0 0 1
    outer loop
      vertex -68.3893 70.8652 13.716
      vertex -69.3707 70.6412 13.716
      vertex -70.8629 68.4526 13.716
    endloop
  endfacet
  facet normal 0 0 1
    outer loop
      vertex 69.0139 70.771 13.716
      vertex -68.3893 70.8652 13.716
      vertex -70.8629 68.4526 13.716
    endloop
  endfacet
  facet normal 0 0 1
    outer loop
      vertex -70.4934 69.6504 13.716
      vertex -70.7128 69.1947 13.716
      vertex -70.8629 68.4526 13.716
    endloop
  endfacet
  facet normal -0.921598 0.388145 0
    outer loop
      vertex -70.7128 69.1947 8.63598
      vertex -70.7128 69.1947 13.716
      vertex -70.6145 69.4281 8.63598
    endloop
  endfacet
  facet normal 0.0248836 -0.99969 0
    outer loop
      vertex 68.2627 -70.8652 -13.716
      vertex 68.5158 -70.8589 -8.636
      vertex 68.2627 -70.8652 13.716
    endloop
  endfacet
  facet normal 0 0 -1
    outer loop
      vertex 70.2718 -69.9587 -13.716
      vertex 69.4848 -70.5863 -13.716
      vertex 68.2627 -70.8652 -13.716
    endloop
  endfacet
  facet normal 0 0 -1
    outer loop
      vertex -68.3893 -70.8652 -13.716
      vertex -68.8912 -70.8023 -13.716
      vertex -69.135 -70.7337 -13.716
    endloop
  endfacet
  facet normal -0 -1 0
    outer loop
      vertex 68.2627 -70.8652 13.716
      vertex -68.3893 -70.8652 13.716
      vertex -68.3893 -70.8652 -13.716
    endloop
  endfacet
  facet normal 0.0248836 -0.99969 0
    outer loop
      vertex 68.2627 -70.8652 -13.716
      vertex 68.5158 -70.8589 -13.716
      vertex 68.5158 -70.8589 -8.636
    endloop
  endfacet
  facet normal 0.732878 -0.68036 0
    outer loop
      vertex 70.0995 -70.1443 13.716
      vertex 70.0995 -70.1443 -13.716
      vertex 70.2718 -69.9587 -13.716
    endloop
  endfacet
  facet normal 1 0 0
    outer loop
      vertex 70.866 -68.326 13.716
      vertex 70.866 -68.326 -8.636
      vertex 70.866 68.326 8.63598
    endloop
  endfacet
  facet normal 0 0 -1
    outer loop
      vertex 70.8534 68.5789 -13.716
      vertex 70.6665 -69.3126 -13.716
      vertex 70.6665 -67.3394 -13.716
    endloop
  endfacet
  facet normal 1 0 -0
    outer loop
      vertex 70.866 68.326 8.63598
      vertex 70.866 68.326 13.716
      vertex 70.866 -68.326 13.716
    endloop
  endfacet
  facet normal 1 -0 0
    outer loop
      vertex 70.866 -68.326 -8.636
      vertex 70.866 68.326 -13.716
      vertex 70.866 68.326 8.63598
    endloop
  endfacet
  facet normal 0.661687 0.74978 0
    outer loop
      vertex 70.0995 70.1443 13.716
      vertex 69.9097 70.3118 -13.716
      vertex 69.9097 70.3118 13.716
    endloop
  endfacet
  facet normal 0 0 -1
    outer loop
      vertex 69.9097 70.3118 -13.716
      vertex 70.2718 69.9587 -13.716
      vertex 70.2718 -69.9587 -13.716
    endloop
  endfacet
  facet normal 0 0 -1
    outer loop
      vertex 70.2718 69.9587 -13.716
      vertex 70.6665 -67.3394 -13.716
      vertex 70.2718 -69.9587 -13.716
    endloop
  endfacet
  facet normal 1 0 0
    outer loop
      vertex 70.866 -68.326 -8.636
      vertex 70.866 -68.326 -13.716
      vertex 70.866 68.326 -13.716
    endloop
  endfacet
  facet normal 0.797386 0.60347 0
    outer loop
      vertex 70.2718 69.9587 13.716
      vertex 70.4246 69.7568 13.716
      vertex 70.4246 69.7568 8.63598
    endloop
  endfacet
  facet normal 0 0 1
    outer loop
      vertex 70.5567 69.5408 13.716
      vertex 70.4246 69.7568 13.716
      vertex 70.2718 69.9587 13.716
    endloop
  endfacet
  facet normal 0 0 -1
    outer loop
      vertex 68.2627 70.8652 -13.716
      vertex 69.9097 70.3118 -13.716
      vertex 70.2718 -69.9587 -13.716
    endloop
  endfacet
  facet normal 0.583701 0.811969 0
    outer loop
      vertex 69.9097 70.3118 -13.716
      vertex 69.7041 70.4596 -13.716
      vertex 69.7041 70.4596 13.716
    endloop
  endfacet
  facet normal 0 1 0
    outer loop
      vertex 68.2627 70.8652 -13.716
      vertex -68.3893 70.8652 -13.716
      vertex -68.3893 70.8652 8.63598
    endloop
  endfacet
  facet normal 0 0 -1
    outer loop
      vertex -69.135 -70.7337 -13.716
      vertex -70.188 70.0536 -13.716
      vertex 68.2627 70.8652 -13.716
    endloop
  endfacet
  facet normal -0 1 0
    outer loop
      vertex -68.3893 70.8652 13.716
      vertex 68.2627 70.8652 13.716
      vertex 68.2627 70.8652 -13.716
    endloop
  endfacet
  facet normal 0 0 1
    outer loop
      vertex 69.0139 70.771 13.716
      vertex 68.2627 70.8652 13.716
      vertex -68.3893 70.8652 13.716
    endloop
  endfacet
  facet normal 0 0 -1
    outer loop
      vertex -70.188 70.0536 -13.716
      vertex -68.3893 70.8652 -13.716
      vertex 68.2627 70.8652 -13.716
    endloop
  endfacet
  facet normal -0.82611 0.563508 0
    outer loop
      vertex -70.3507 69.8596 13.716
      vertex -70.3507 69.8596 8.63598
      vertex -70.4934 69.6504 13.716
    endloop
  endfacet
  facet normal -1 -0 0
    outer loop
      vertex -70.8629 68.4526 8.63598
      vertex -70.8629 -68.4526 -13.716
      vertex -70.8629 68.1994 13.716
    endloop
  endfacet
  facet normal 0 0 1
    outer loop
      vertex -70.8629 68.4526 13.716
      vertex -70.8629 68.1994 13.716
      vertex -70.188 -70.0536 13.716
    endloop
  endfacet
  facet normal -0.955514 0.294946 0
    outer loop
      vertex -70.7128 69.1947 8.63598
      vertex -70.7128 69.1947 -13.716
      vertex -70.7875 68.9527 8.63598
    endloop
  endfacet
  facet normal -0.82611 0.563508 0
    outer loop
      vertex -70.3507 69.8596 8.63598
      vertex -70.4934 69.6504 8.63598
      vertex -70.4934 69.6504 13.716
    endloop
  endfacet
  facet normal 0.222321 -0.974974 0
    outer loop
      vertex 69.0139 -70.7711 -8.636
      vertex 68.767 -70.8274 13.716
      vertex 69.0139 -70.7711 -13.716
    endloop
  endfacet
  facet normal 0.411153 -0.911566 0
    outer loop
      vertex 69.4848 -70.5863 13.716
      vertex 69.254 -70.6904 -13.716
      vertex 69.4848 -70.5863 -13.716
    endloop
  endfacet
  facet normal 0 0 1
    outer loop
      vertex -70.188 -70.0536 13.716
      vertex -68.3893 -70.8652 13.716
      vertex 68.2627 -70.8652 13.716
    endloop
  endfacet
  facet normal -0.17374 -0.984792 0
    outer loop
      vertex -68.8912 -70.8023 -13.716
      vertex -68.6418 -70.8463 13.716
      vertex -68.8912 -70.8023 13.716
    endloop
  endfacet
  facet normal 0 0 1
    outer loop
      vertex 70.0995 -70.1443 13.716
      vertex 70.6665 -69.3126 13.716
      vertex 70.866 -68.326 13.716
    endloop
  endfacet
  facet normal 0.939678 -0.34206 0
    outer loop
      vertex 70.6665 -69.3126 13.716
      vertex 70.6665 -69.3126 -13.716
      vertex 70.7531 -69.0747 -8.636
    endloop
  endfacet
  facet normal 0.499962 -0.866047 0
    outer loop
      vertex 69.4848 -70.5863 -13.716
      vertex 69.7041 -70.4597 8.63598
      vertex 69.4848 -70.5863 13.716
    endloop
  endfacet
  facet normal 0 0 -1
    outer loop
      vertex 70.2718 -69.9587 -13.716
      vertex 69.9097 -70.3119 -13.716
      vertex 69.4848 -70.5863 -13.716
    endloop
  endfacet
  facet normal 0 0 1
    outer loop
      vertex 70.8156 68.8293 13.716
      vertex 70.7531 69.0747 13.716
      vertex 70.6665 69.3126 13.716
    endloop
  endfacet
  facet normal 0 0 1
    outer loop
      vertex 70.8156 68.8293 13.716
      vertex 70.6665 69.3126 13.716
      vertex 70.5567 69.5408 13.716
    endloop
  endfacet
  facet normal 0.411153 0.911566 0
    outer loop
      vertex 69.4848 70.5863 -13.716
      vertex 69.254 70.6904 -13.716
      vertex 69.254 70.6904 8.63598
    endloop
  endfacet
  facet normal 0 0 -1
    outer loop
      vertex 68.2627 70.8652 -13.716
      vertex 68.767 70.8274 -13.716
      vertex 69.4848 70.5863 -13.716
    endloop
  endfacet
  facet normal 0.797386 0.60347 0
    outer loop
      vertex 70.4246 69.7568 8.63598
      vertex 70.2718 69.9587 -13.716
      vertex 70.2718 69.9587 13.716
    endloop
  endfacet
  facet normal 0 0 -1
    outer loop
      vertex 70.2718 69.9587 -13.716
      vertex 70.6665 69.3126 -13.716
      vertex 70.8534 68.5789 -13.716
    endloop
  endfacet
  facet normal -1 0 -0
    outer loop
      vertex -70.8629 68.4526 8.63598
      vertex -70.8629 68.4526 -13.716
      vertex -70.8629 -68.4526 -13.716
    endloop
  endfacet
  facet normal 0 0 -1
    outer loop
      vertex -69.135 -70.7337 -13.716
      vertex -70.8629 -68.4526 -13.716
      vertex -70.188 70.0536 -13.716
    endloop
  endfacet
  facet normal 0 0 -1
    outer loop
      vertex -70.188 70.0536 -13.716
      vertex -69.3707 70.6412 -13.716
      vertex -68.3893 70.8652 -13.716
    endloop
  endfacet
  facet normal -0.456196 0.889879 0
    outer loop
      vertex -69.3707 70.6412 -13.716
      vertex -69.596 70.5257 8.63598
      vertex -69.3707 70.6412 13.716
    endloop
  endfacet
  facet normal 0 0 1
    outer loop
      vertex 69.0139 70.771 13.716
      vertex 68.767 70.8274 13.716
      vertex 68.2627 70.8652 13.716
    endloop
  endfacet
  facet normal 0.222696 0.974888 -0
    outer loop
      vertex 69.0139 70.771 8.63598
      vertex 68.767 70.8274 13.716
      vertex 69.0139 70.771 13.716
    endloop
  endfacet
  facet normal 0 0 1
    outer loop
      vertex -69.3707 70.6412 13.716
      vertex -70.4934 69.6504 13.716
      vertex -70.8629 68.4526 13.716
    endloop
  endfacet
  facet normal 0 0 1
    outer loop
      vertex -69.3707 70.6412 13.716
      vertex -70.3507 69.8596 13.716
      vertex -70.4934 69.6504 13.716
    endloop
  endfacet
  facet normal 0 0 1
    outer loop
      vertex -68.3893 70.8652 13.716
      vertex -68.8912 70.8023 13.716
      vertex -69.3707 70.6412 13.716
    endloop
  endfacet
  facet normal -0.27086 0.962619 0
    outer loop
      vertex -68.8912 70.8023 13.716
      vertex -68.8912 70.8023 -13.716
      vertex -69.135 70.7337 13.716
    endloop
  endfacet
  facet normal -0.542613 0.839983 0
    outer loop
      vertex -69.8087 70.3883 13.716
      vertex -69.596 70.5257 13.716
      vertex -69.596 70.5257 8.63598
    endloop
  endfacet
  facet normal -0.62349 0.781831 0
    outer loop
      vertex -69.8087 70.3883 8.63598
      vertex -70.0067 70.2304 -13.716
      vertex -69.8087 70.3883 13.716
    endloop
  endfacet
  facet normal -0.955514 0.294946 0
    outer loop
      vertex -70.7875 68.9527 8.63598
      vertex -70.7875 68.9527 13.716
      vertex -70.7128 69.1947 13.716
    endloop
  endfacet
  facet normal -0.921598 0.388145 0
    outer loop
      vertex -70.6145 69.4281 8.63598
      vertex -70.7128 69.1947 -13.716
      vertex -70.7128 69.1947 8.63598
    endloop
  endfacet
  facet normal 0 0 -1
    outer loop
      vertex 69.4848 -70.5863 -13.716
      vertex 69.0139 -70.7711 -13.716
      vertex 68.2627 -70.8652 -13.716
    endloop
  endfacet
  facet normal 0.0248836 -0.99969 0
    outer loop
      vertex 68.5158 -70.8589 -8.636
      vertex 68.5158 -70.8589 13.716
      vertex 68.2627 -70.8652 13.716
    endloop
  endfacet
  facet normal 0 0 -1
    outer loop
      vertex 69.4848 -70.5863 -13.716
      vertex 69.254 -70.6904 -13.716
      vertex 69.0139 -70.7711 -13.716
    endloop
  endfacet
  facet normal 0 0 -1
    outer loop
      vertex 69.0139 -70.7711 -13.716
      vertex 68.5158 -70.8589 -13.716
      vertex 68.2627 -70.8652 -13.716
    endloop
  endfacet
  facet normal 0.499962 -0.866047 0
    outer loop
      vertex 69.4848 -70.5863 -13.716
      vertex 69.7041 -70.4597 -13.716
      vertex 69.7041 -70.4597 8.63598
    endloop
  endfacet
  facet normal 0 0 1
    outer loop
      vertex 68.2627 -70.8652 13.716
      vertex 69.4848 -70.5863 13.716
      vertex 70.0995 -70.1443 13.716
    endloop
  endfacet
  facet normal 0 0 1
    outer loop
      vertex -70.188 -70.0536 13.716
      vertex -68.8912 -70.8023 13.716
      vertex -68.3893 -70.8652 13.716
    endloop
  endfacet
  facet normal -0.27086 -0.962619 0
    outer loop
      vertex -68.8912 -70.8023 13.716
      vertex -69.135 -70.7337 13.716
      vertex -69.135 -70.7337 -13.716
    endloop
  endfacet
  facet normal 0.998761 -0.0497603 0
    outer loop
      vertex 70.866 -68.326 13.716
      vertex 70.8534 -68.5789 13.716
      vertex 70.866 -68.326 -8.636
    endloop
  endfacet
  facet normal 0.988797 -0.149267 0
    outer loop
      vertex 70.8156 -68.8293 -13.716
      vertex 70.8534 -68.5789 -13.716
      vertex 70.8534 -68.5789 -8.636
    endloop
  endfacet
  facet normal 0 0 1
    outer loop
      vertex 70.0995 -70.1443 13.716
      vertex 70.4246 -69.7568 13.716
      vertex 70.6665 -69.3126 13.716
    endloop
  endfacet
  facet normal 0.797386 -0.60347 0
    outer loop
      vertex 70.4246 -69.7568 13.716
      vertex 70.2718 -69.9587 13.716
      vertex 70.2718 -69.9587 -13.716
    endloop
  endfacet
  facet normal 0.661909 -0.749584 0
    outer loop
      vertex 69.9097 -70.3119 -13.716
      vertex 70.0995 -70.1443 -13.716
      vertex 70.0995 -70.1443 13.716
    endloop
  endfacet
  facet normal 0 0 -1
    outer loop
      vertex 70.2718 -69.9587 -13.716
      vertex 70.0995 -70.1443 -13.716
      vertex 69.9097 -70.3119 -13.716
    endloop
  endfacet
  facet normal 0 0 1
    outer loop
      vertex 70.866 68.326 13.716
      vertex 70.8534 68.5789 13.716
      vertex 70.8156 68.8293 13.716
    endloop
  endfacet
  facet normal 0.998761 0.0497603 -0
    outer loop
      vertex 70.866 68.326 8.63598
      vertex 70.8534 68.5789 13.716
      vertex 70.866 68.326 13.716
    endloop
  endfacet
  facet normal 0 0 -1
    outer loop
      vertex 70.6665 69.3126 -13.716
      vertex 70.7531 69.0747 -13.716
      vertex 70.8534 68.5789 -13.716
    endloop
  endfacet
  facet normal 0.901116 0.433578 0
    outer loop
      vertex 70.6665 69.3126 13.716
      vertex 70.6665 69.3126 -13.716
      vertex 70.5567 69.5408 13.716
    endloop
  endfacet
  facet normal 0.939678 0.34206 0
    outer loop
      vertex 70.7531 69.0747 8.63598
      vertex 70.6665 69.3126 -13.716
      vertex 70.6665 69.3126 13.716
    endloop
  endfacet
  facet normal 0.988797 0.149267 0
    outer loop
      vertex 70.8534 68.5789 -13.716
      vertex 70.8156 68.8293 -13.716
      vertex 70.8156 68.8293 -8.636
    endloop
  endfacet
  facet normal 0 0 -1
    outer loop
      vertex 69.4848 70.5863 -13.716
      vertex 69.7041 70.4596 -13.716
      vertex 69.9097 70.3118 -13.716
    endloop
  endfacet
  facet normal 0.500258 0.865876 0
    outer loop
      vertex 69.7041 70.4596 13.716
      vertex 69.7041 70.4596 -13.716
      vertex 69.4848 70.5863 -13.716
    endloop
  endfacet
  facet normal 0.222696 0.974888 0
    outer loop
      vertex 69.0139 70.771 8.63598
      vertex 68.767 70.8274 -13.716
      vertex 68.767 70.8274 13.716
    endloop
  endfacet
  facet normal 0 0 -1
    outer loop
      vertex 68.767 70.8274 -13.716
      vertex 69.254 70.6904 -13.716
      vertex 69.4848 70.5863 -13.716
    endloop
  endfacet
  facet normal 0 0 -1
    outer loop
      vertex 70.2718 69.9587 -13.716
      vertex 70.8534 68.5789 -13.716
      vertex 70.6665 -67.3394 -13.716
    endloop
  endfacet
  facet normal 0 -0 -1
    outer loop
      vertex 70.866 68.326 -13.716
      vertex 70.866 -68.326 -13.716
      vertex 70.6665 -69.3126 -13.716
    endloop
  endfacet
  facet normal 0 0 -1
    outer loop
      vertex 69.9097 70.3118 -13.716
      vertex 70.0995 70.1443 -13.716
      vertex 70.2718 69.9587 -13.716
    endloop
  endfacet
  facet normal 0.661687 0.74978 0
    outer loop
      vertex 70.0995 70.1443 13.716
      vertex 70.0995 70.1443 -13.716
      vertex 69.9097 70.3118 -13.716
    endloop
  endfacet
  facet normal -0.766047 -0.642784 0
    outer loop
      vertex -70.188 -70.0536 13.716
      vertex -70.3507 -69.8597 13.716
      vertex -70.3507 -69.8597 -13.716
    endloop
  endfacet
  facet normal 0 0 -1
    outer loop
      vertex -69.135 -70.7337 -13.716
      vertex -70.3507 -69.8597 -13.716
      vertex -70.8629 -68.4526 -13.716
    endloop
  endfacet
  facet normal 0 0 1
    outer loop
      vertex -70.8629 68.1994 13.716
      vertex -70.8629 -68.4526 13.716
      vertex -70.188 -70.0536 13.716
    endloop
  endfacet
  facet normal -1 0 0
    outer loop
      vertex -70.8629 -68.4526 -13.716
      vertex -70.8629 -68.4526 13.716
      vertex -70.8629 68.1994 13.716
    endloop
  endfacet
  facet normal -0.878152 0.478382 0
    outer loop
      vertex -70.4934 69.6504 8.63598
      vertex -70.6145 69.4281 -13.716
      vertex -70.6145 69.4281 8.63598
    endloop
  endfacet
  facet normal 0 0 -1
    outer loop
      vertex -70.8629 -68.4526 -13.716
      vertex -70.8629 68.4526 -13.716
      vertex -70.188 70.0536 -13.716
    endloop
  endfacet
  facet normal -0.365322 0.930881 0
    outer loop
      vertex -69.135 70.7337 13.716
      vertex -69.135 70.7337 -13.716
      vertex -69.3707 70.6412 -13.716
    endloop
  endfacet
  facet normal 0 0 -1
    outer loop
      vertex -69.3707 70.6412 -13.716
      vertex -68.8912 70.8023 -13.716
      vertex -68.3893 70.8652 -13.716
    endloop
  endfacet
  facet normal 0.0248836 0.99969 0
    outer loop
      vertex 68.2627 70.8652 13.716
      vertex 68.5158 70.8589 13.716
      vertex 68.2627 70.8652 -13.716
    endloop
  endfacet
  facet normal 0 0 1
    outer loop
      vertex 68.767 70.8274 13.716
      vertex 68.5158 70.8589 13.716
      vertex 68.2627 70.8652 13.716
    endloop
  endfacet
  facet normal -0.76621 0.64259 0
    outer loop
      vertex -70.3507 69.8596 13.716
      vertex -70.188 70.0536 13.716
      vertex -70.188 70.0536 8.63598
    endloop
  endfacet
  facet normal 0 0 1
    outer loop
      vertex -69.3707 70.6412 13.716
      vertex -69.8087 70.3883 13.716
      vertex -70.3507 69.8596 13.716
    endloop
  endfacet
  facet normal 0 0 -1
    outer loop
      vertex -70.8629 68.4526 -13.716
      vertex -70.8376 68.7046 -13.716
      vertex -70.188 70.0536 -13.716
    endloop
  endfacet
  facet normal -0.878152 0.478382 0
    outer loop
      vertex -70.6145 69.4281 8.63598
      vertex -70.6145 69.4281 13.716
      vertex -70.4934 69.6504 13.716
    endloop
  endfacet
  facet normal -0.955514 0.294946 0
    outer loop
      vertex -70.7875 68.9527 8.63598
      vertex -70.7128 69.1947 13.716
      vertex -70.7128 69.1947 8.63598
    endloop
  endfacet
  facet normal 0 0 1
    outer loop
      vertex -70.7128 69.1947 13.716
      vertex -70.7875 68.9527 13.716
      vertex -70.8629 68.4526 13.716
    endloop
  endfacet
  facet normal 0 0 1
    outer loop
      vertex -68.3893 70.8652 13.716
      vertex -68.6418 70.8463 13.716
      vertex -68.8912 70.8023 13.716
    endloop
  endfacet
  facet normal -0.0746427 0.99721 0
    outer loop
      vertex -68.3893 70.8652 8.63598
      vertex -68.6418 70.8463 13.716
      vertex -68.3893 70.8652 13.716
    endloop
  endfacet
  facet normal 0 0 1
    outer loop
      vertex 68.767 -70.8274 13.716
      vertex 69.0139 -70.7711 13.716
      vertex 69.4848 -70.5863 13.716
    endloop
  endfacet
  facet normal 0 0 1
    outer loop
      vertex 68.2627 -70.8652 13.716
      vertex 68.767 -70.8274 13.716
      vertex 69.4848 -70.5863 13.716
    endloop
  endfacet
  facet normal 0.222321 -0.974974 0
    outer loop
      vertex 68.767 -70.8274 13.716
      vertex 68.767 -70.8274 -13.716
      vertex 69.0139 -70.7711 -13.716
    endloop
  endfacet
  facet normal 0.124424 -0.992229 0
    outer loop
      vertex 68.5158 -70.8589 -8.636
      vertex 68.5158 -70.8589 -13.716
      vertex 68.767 -70.8274 13.716
    endloop
  endfacet
  facet normal 0.222321 -0.974974 0
    outer loop
      vertex 69.0139 -70.7711 -8.636
      vertex 69.0139 -70.7711 13.716
      vertex 68.767 -70.8274 13.716
    endloop
  endfacet
  facet normal 0.318596 -0.947891 0
    outer loop
      vertex 69.0139 -70.7711 -13.716
      vertex 69.254 -70.6904 -13.716
      vertex 69.0139 -70.7711 -8.636
    endloop
  endfacet
  facet normal 0.499962 -0.866047 0
    outer loop
      vertex 69.7041 -70.4597 8.63598
      vertex 69.7041 -70.4597 13.716
      vertex 69.4848 -70.5863 13.716
    endloop
  endfacet
  facet normal 0.583701 -0.811969 0
    outer loop
      vertex 69.9097 -70.3119 -13.716
      vertex 69.9097 -70.3119 13.716
      vertex 69.7041 -70.4597 8.63598
    endloop
  endfacet
  facet normal 0 0 -1
    outer loop
      vertex -68.3893 -70.8652 -13.716
      vertex -68.6418 -70.8463 -13.716
      vertex -68.8912 -70.8023 -13.716
    endloop
  endfacet
  facet normal -0.27086 -0.962619 0
    outer loop
      vertex -69.135 -70.7337 -13.716
      vertex -68.8912 -70.8023 -13.716
      vertex -68.8912 -70.8023 13.716
    endloop
  endfacet
  facet normal -0.0746427 -0.99721 -0
    outer loop
      vertex -68.3893 -70.8652 13.716
      vertex -68.6418 -70.8463 13.716
      vertex -68.3893 -70.8652 -13.716
    endloop
  endfacet
  facet normal 0 0 1
    outer loop
      vertex -68.8912 -70.8023 13.716
      vertex -68.6418 -70.8463 13.716
      vertex -68.3893 -70.8652 13.716
    endloop
  endfacet
  facet normal -0.365322 -0.930881 -0
    outer loop
      vertex -69.3707 -70.6412 13.716
      vertex -69.3707 -70.6412 -13.716
      vertex -69.135 -70.7337 -13.716
    endloop
  endfacet
  facet normal 0 0 1
    outer loop
      vertex -70.188 -70.0536 13.716
      vertex -69.8087 -70.3883 13.716
      vertex -69.596 -70.5257 13.716
    endloop
  endfacet
  facet normal 0.988797 -0.149267 0
    outer loop
      vertex 70.8534 -68.5789 13.716
      vertex 70.8156 -68.8293 13.716
      vertex 70.8156 -68.8293 -8.636
    endloop
  endfacet
  facet normal 0.939678 -0.34206 0
    outer loop
      vertex 70.6665 -69.3126 -13.716
      vertex 70.7531 -69.0747 -13.716
      vertex 70.7531 -69.0747 -8.636
    endloop
  endfacet
  facet normal 0.853106 -0.521738 0
    outer loop
      vertex 70.5567 -69.5408 -8.636
      vertex 70.5567 -69.5408 13.716
      vertex 70.4246 -69.7568 13.716
    endloop
  endfacet
  facet normal 0.901116 -0.433578 0
    outer loop
      vertex 70.5567 -69.5408 -8.636
      vertex 70.5567 -69.5408 -13.716
      vertex 70.6665 -69.3126 -13.716
    endloop
  endfacet
  facet normal 0 0 1
    outer loop
      vertex 70.0995 -70.1443 13.716
      vertex 70.2718 -69.9587 13.716
      vertex 70.4246 -69.7568 13.716
    endloop
  endfacet
  facet normal 0.732878 -0.68036 0
    outer loop
      vertex 70.2718 -69.9587 -13.716
      vertex 70.2718 -69.9587 13.716
      vertex 70.0995 -70.1443 13.716
    endloop
  endfacet
  facet normal 0.988797 0.149267 0
    outer loop
      vertex 70.8534 68.5789 13.716
      vertex 70.8534 68.5789 -13.716
      vertex 70.8156 68.8293 -8.636
    endloop
  endfacet
  facet normal 0.998761 0.0497603 0
    outer loop
      vertex 70.866 68.326 8.63598
      vertex 70.8534 68.5789 -13.716
      vertex 70.8534 68.5789 13.716
    endloop
  endfacet
  facet normal 0.969065 0.246807 -0
    outer loop
      vertex 70.7531 69.0747 8.63598
      vertex 70.7531 69.0747 13.716
      vertex 70.8156 68.8293 13.716
    endloop
  endfacet
  facet normal 0.939678 0.34206 0
    outer loop
      vertex 70.6665 69.3126 13.716
      vertex 70.7531 69.0747 13.716
      vertex 70.7531 69.0747 8.63598
    endloop
  endfacet
  facet normal 0.901116 0.433578 0
    outer loop
      vertex 70.6665 69.3126 -13.716
      vertex 70.5567 69.5408 -13.716
      vertex 70.5567 69.5408 13.716
    endloop
  endfacet
  facet normal 0 0 -1
    outer loop
      vertex 70.2718 69.9587 -13.716
      vertex 70.5567 69.5408 -13.716
      vertex 70.6665 69.3126 -13.716
    endloop
  endfacet
  facet normal 0.318241 0.94801 0
    outer loop
      vertex 69.254 70.6904 -13.716
      vertex 69.0139 70.771 -13.716
      vertex 69.0139 70.771 8.63598
    endloop
  endfacet
  facet normal 0.318241 0.94801 0
    outer loop
      vertex 69.254 70.6904 8.63598
      vertex 69.254 70.6904 -13.716
      vertex 69.0139 70.771 8.63598
    endloop
  endfacet
  facet normal 0 0 1
    outer loop
      vertex -70.8629 -68.4526 13.716
      vertex -70.7128 -69.1947 13.716
      vertex -70.188 -70.0536 13.716
    endloop
  endfacet
  facet normal 0 0 -1
    outer loop
      vertex -70.7128 -69.1947 -13.716
      vertex -70.7875 -68.9528 -13.716
      vertex -70.8629 -68.4526 -13.716
    endloop
  endfacet
  facet normal -0.994998 0.0998946 0
    outer loop
      vertex -70.8629 68.4526 8.63598
      vertex -70.8376 68.7046 -13.716
      vertex -70.8629 68.4526 -13.716
    endloop
  endfacet
  facet normal -0.994998 0.0998946 0
    outer loop
      vertex -70.8629 68.4526 13.716
      vertex -70.8376 68.7046 -13.716
      vertex -70.8629 68.4526 8.63598
    endloop
  endfacet
  facet normal 0 0 -1
    outer loop
      vertex -70.188 70.0536 -13.716
      vertex -69.8087 70.3883 -13.716
      vertex -69.3707 70.6412 -13.716
    endloop
  endfacet
  facet normal 0 0 1
    outer loop
      vertex -69.8087 70.3883 13.716
      vertex -70.188 70.0536 13.716
      vertex -70.3507 69.8596 13.716
    endloop
  endfacet
  facet normal 0 0 -1
    outer loop
      vertex -69.8087 70.3883 -13.716
      vertex -69.596 70.5257 -13.716
      vertex -69.3707 70.6412 -13.716
    endloop
  endfacet
  facet normal -0.542613 0.839983 0
    outer loop
      vertex -69.8087 70.3883 8.63598
      vertex -69.596 70.5257 8.63598
      vertex -69.8087 70.3883 -13.716
    endloop
  endfacet
  facet normal -0.365322 0.930881 0
    outer loop
      vertex -69.3707 70.6412 13.716
      vertex -69.135 70.7337 13.716
      vertex -69.3707 70.6412 -13.716
    endloop
  endfacet
  facet normal 0 0 1
    outer loop
      vertex -68.8912 70.8023 13.716
      vertex -69.135 70.7337 13.716
      vertex -69.3707 70.6412 13.716
    endloop
  endfacet
  facet normal -0.17374 0.984792 0
    outer loop
      vertex -68.6418 70.8463 13.716
      vertex -68.8912 70.8023 -13.716
      vertex -68.8912 70.8023 13.716
    endloop
  endfacet
  facet normal 0 0 -1
    outer loop
      vertex -68.8912 70.8023 -13.716
      vertex -68.6418 70.8463 -13.716
      vertex -68.3893 70.8652 -13.716
    endloop
  endfacet
  facet normal 0.0248836 0.99969 0
    outer loop
      vertex 68.5158 70.8589 13.716
      vertex 68.5158 70.8589 -13.716
      vertex 68.2627 70.8652 -13.716
    endloop
  endfacet
  facet normal 0.124424 0.992229 0
    outer loop
      vertex 68.767 70.8274 -13.716
      vertex 68.5158 70.8589 -13.716
      vertex 68.5158 70.8589 13.716
    endloop
  endfacet
  facet normal -0.76621 0.64259 0
    outer loop
      vertex -70.188 70.0536 -13.716
      vertex -70.3507 69.8596 8.63598
      vertex -70.3507 69.8596 13.716
    endloop
  endfacet
  facet normal 0 0 -1
    outer loop
      vertex -70.6145 69.4281 -13.716
      vertex -70.4934 69.6504 -13.716
      vertex -70.188 70.0536 -13.716
    endloop
  endfacet
  facet normal -0.542613 0.839983 0
    outer loop
      vertex -69.8087 70.3883 8.63598
      vertex -69.8087 70.3883 13.716
      vertex -69.596 70.5257 8.63598
    endloop
  endfacet
  facet normal -0.62349 0.781831 0
    outer loop
      vertex -69.8087 70.3883 -13.716
      vertex -70.0067 70.2304 -13.716
      vertex -69.8087 70.3883 8.63598
    endloop
  endfacet
  facet normal -0.82611 0.563508 0
    outer loop
      vertex -70.3507 69.8596 8.63598
      vertex -70.3507 69.8596 -13.716
      vertex -70.4934 69.6504 -13.716
    endloop
  endfacet
  facet normal -0.878152 0.478382 0
    outer loop
      vertex -70.4934 69.6504 13.716
      vertex -70.4934 69.6504 8.63598
      vertex -70.6145 69.4281 8.63598
    endloop
  endfacet
  facet normal -0.921598 0.388145 0
    outer loop
      vertex -70.7128 69.1947 13.716
      vertex -70.6145 69.4281 13.716
      vertex -70.6145 69.4281 8.63598
    endloop
  endfacet
  facet normal 0 0 1
    outer loop
      vertex -70.4934 69.6504 13.716
      vertex -70.6145 69.4281 13.716
      vertex -70.7128 69.1947 13.716
    endloop
  endfacet
  facet normal -0.980214 0.197939 0
    outer loop
      vertex -70.8376 68.7046 -13.716
      vertex -70.7875 68.9527 13.716
      vertex -70.7875 68.9527 8.63598
    endloop
  endfacet
  facet normal 0 0 1
    outer loop
      vertex -70.7875 68.9527 13.716
      vertex -70.8376 68.7046 13.716
      vertex -70.8629 68.4526 13.716
    endloop
  endfacet
  facet normal 0.124424 -0.992229 0
    outer loop
      vertex 68.767 -70.8274 13.716
      vertex 68.5158 -70.8589 13.716
      vertex 68.5158 -70.8589 -8.636
    endloop
  endfacet
  facet normal 0 0 1
    outer loop
      vertex 68.2627 -70.8652 13.716
      vertex 68.5158 -70.8589 13.716
      vertex 68.767 -70.8274 13.716
    endloop
  endfacet
  facet normal 0.318596 -0.947891 0
    outer loop
      vertex 69.254 -70.6904 -13.716
      vertex 69.0139 -70.7711 13.716
      vertex 69.0139 -70.7711 -8.636
    endloop
  endfacet
  facet normal 0 0 1
    outer loop
      vertex 69.0139 -70.7711 13.716
      vertex 69.254 -70.6904 13.716
      vertex 69.4848 -70.5863 13.716
    endloop
  endfacet
  facet normal 0.124424 -0.992229 0
    outer loop
      vertex 68.5158 -70.8589 -13.716
      vertex 68.767 -70.8274 -13.716
      vertex 68.767 -70.8274 13.716
    endloop
  endfacet
  facet normal 0 0 -1
    outer loop
      vertex 69.0139 -70.7711 -13.716
      vertex 68.767 -70.8274 -13.716
      vertex 68.5158 -70.8589 -13.716
    endloop
  endfacet
  facet normal 0 0 -1
    outer loop
      vertex 69.9097 -70.3119 -13.716
      vertex 69.7041 -70.4597 -13.716
      vertex 69.4848 -70.5863 -13.716
    endloop
  endfacet
  facet normal 0.583701 -0.811969 0
    outer loop
      vertex 69.7041 -70.4597 8.63598
      vertex 69.7041 -70.4597 -13.716
      vertex 69.9097 -70.3119 -13.716
    endloop
  endfacet
  facet normal 0.661909 -0.749584 0
    outer loop
      vertex 70.0995 -70.1443 13.716
      vertex 69.9097 -70.3119 13.716
      vertex 69.9097 -70.3119 -13.716
    endloop
  endfacet
  facet normal 0 0 1
    outer loop
      vertex 69.4848 -70.5863 13.716
      vertex 69.9097 -70.3119 13.716
      vertex 70.0995 -70.1443 13.716
    endloop
  endfacet
  facet normal -0.0746427 -0.99721 -0
    outer loop
      vertex -68.6418 -70.8463 13.716
      vertex -68.6418 -70.8463 -13.716
      vertex -68.3893 -70.8652 -13.716
    endloop
  endfacet
  facet normal -0.17374 -0.984792 0
    outer loop
      vertex -68.8912 -70.8023 -13.716
      vertex -68.6418 -70.8463 -13.716
      vertex -68.6418 -70.8463 13.716
    endloop
  endfacet
  facet normal 0 0 1
    outer loop
      vertex -69.596 -70.5257 13.716
      vertex -69.135 -70.7337 13.716
      vertex -68.8912 -70.8023 13.716
    endloop
  endfacet
  facet normal -0.365322 -0.930881 -0
    outer loop
      vertex -69.135 -70.7337 13.716
      vertex -69.3707 -70.6412 13.716
      vertex -69.135 -70.7337 -13.716
    endloop
  endfacet
  facet normal 0 0 -1
    outer loop
      vertex -69.8087 -70.3883 -13.716
      vertex -70.188 -70.0536 -13.716
      vertex -70.3507 -69.8597 -13.716
    endloop
  endfacet
  facet normal 0 0 -1
    outer loop
      vertex -69.135 -70.7337 -13.716
      vertex -69.8087 -70.3883 -13.716
      vertex -70.3507 -69.8597 -13.716
    endloop
  endfacet
  facet normal 0.901116 -0.433578 0
    outer loop
      vertex 70.5567 -69.5408 -8.636
      vertex 70.6665 -69.3126 -13.716
      vertex 70.6665 -69.3126 13.716
    endloop
  endfacet
  facet normal 0 0 -1
    outer loop
      vertex 70.6665 -69.3126 -13.716
      vertex 70.5567 -69.5408 -13.716
      vertex 70.2718 -69.9587 -13.716
    endloop
  endfacet
  facet normal 0 0 1
    outer loop
      vertex 70.6665 -69.3126 13.716
      vertex 70.8534 -68.5789 13.716
      vertex 70.866 -68.326 13.716
    endloop
  endfacet
  facet normal 0.969065 -0.246807 0
    outer loop
      vertex 70.8156 -68.8293 -8.636
      vertex 70.8156 -68.8293 13.716
      vertex 70.7531 -69.0747 -8.636
    endloop
  endfacet
  facet normal 0.901116 -0.433578 0
    outer loop
      vertex 70.6665 -69.3126 13.716
      vertex 70.5567 -69.5408 13.716
      vertex 70.5567 -69.5408 -8.636
    endloop
  endfacet
  facet normal 0 0 1
    outer loop
      vertex 70.4246 -69.7568 13.716
      vertex 70.5567 -69.5408 13.716
      vertex 70.6665 -69.3126 13.716
    endloop
  endfacet
  facet normal 0.853106 -0.521738 0
    outer loop
      vertex 70.4246 -69.7568 13.716
      vertex 70.4246 -69.7568 -8.636
      vertex 70.5567 -69.5408 -8.636
    endloop
  endfacet
  facet normal 0.797386 -0.60347 0
    outer loop
      vertex 70.2718 -69.9587 -13.716
      vertex 70.4246 -69.7568 -8.636
      vertex 70.4246 -69.7568 13.716
    endloop
  endfacet
  facet normal 0 -0 -1
    outer loop
      vertex 70.8534 68.5789 -13.716
      vertex 70.866 68.326 -13.716
      vertex 70.6665 -69.3126 -13.716
    endloop
  endfacet
  facet normal 0.998761 0.0497603 0
    outer loop
      vertex 70.866 68.326 8.63598
      vertex 70.866 68.326 -13.716
      vertex 70.8534 68.5789 -13.716
    endloop
  endfacet
  facet normal 0.939678 0.34206 0
    outer loop
      vertex 70.7531 69.0747 8.63598
      vertex 70.7531 69.0747 -13.716
      vertex 70.6665 69.3126 -13.716
    endloop
  endfacet
  facet normal 0.969065 0.246807 0
    outer loop
      vertex 70.8156 68.8293 -8.636
      vertex 70.7531 69.0747 -13.716
      vertex 70.7531 69.0747 8.63598
    endloop
  endfacet
  facet normal 0 0 -1
    outer loop
      vertex 70.2718 69.9587 -13.716
      vertex 70.4246 69.7568 -13.716
      vertex 70.5567 69.5408 -13.716
    endloop
  endfacet
  facet normal 0.853106 0.521738 0
    outer loop
      vertex 70.5567 69.5408 13.716
      vertex 70.5567 69.5408 -13.716
      vertex 70.4246 69.7568 8.63598
    endloop
  endfacet
  facet normal 0 0 -1
    outer loop
      vertex 68.767 70.8274 -13.716
      vertex 69.0139 70.771 -13.716
      vertex 69.254 70.6904 -13.716
    endloop
  endfacet
  facet normal 0.222696 0.974888 0
    outer loop
      vertex 69.0139 70.771 8.63598
      vertex 69.0139 70.771 -13.716
      vertex 68.767 70.8274 -13.716
    endloop
  endfacet
  facet normal 0 0 1
    outer loop
      vertex -70.7128 -69.1947 13.716
      vertex -70.4934 -69.6505 13.716
      vertex -70.188 -70.0536 13.716
    endloop
  endfacet
  facet normal -0.95548 -0.295057 -0
    outer loop
      vertex -70.7128 -69.1947 13.716
      vertex -70.7875 -68.9528 13.716
      vertex -70.7128 -69.1947 -13.716
    endloop
  endfacet
  facet normal -0.921598 -0.388145 0
    outer loop
      vertex -70.7128 -69.1947 -13.716
      vertex -70.6145 -69.4281 13.716
      vertex -70.7128 -69.1947 13.716
    endloop
  endfacet
  facet normal -0.82611 -0.563508 -0
    outer loop
      vertex -70.4934 -69.6505 13.716
      vertex -70.4934 -69.6505 -13.716
      vertex -70.3507 -69.8597 -13.716
    endloop
  endfacet
  facet normal 0 0 1
    outer loop
      vertex -70.8629 -68.4526 13.716
      vertex -70.7875 -68.9528 13.716
      vertex -70.7128 -69.1947 13.716
    endloop
  endfacet
  facet normal 0 0 -1
    outer loop
      vertex -70.7875 -68.9528 -13.716
      vertex -70.8376 -68.7046 -13.716
      vertex -70.8629 -68.4526 -13.716
    endloop
  endfacet
  facet normal 0 0 -1
    outer loop
      vertex -70.8376 68.7046 -13.716
      vertex -70.7128 69.1947 -13.716
      vertex -70.188 70.0536 -13.716
    endloop
  endfacet
  facet normal -0.955514 0.294946 0
    outer loop
      vertex -70.7128 69.1947 -13.716
      vertex -70.7875 68.9527 -13.716
      vertex -70.7875 68.9527 8.63598
    endloop
  endfacet
  facet normal 0 0 -1
    outer loop
      vertex -70.188 70.0536 -13.716
      vertex -70.0067 70.2304 -13.716
      vertex -69.8087 70.3883 -13.716
    endloop
  endfacet
  facet normal -0.698166 0.715936 0
    outer loop
      vertex -70.188 70.0536 8.63598
      vertex -70.0067 70.2304 -13.716
      vertex -70.188 70.0536 -13.716
    endloop
  endfacet
  facet normal -0.542613 0.839983 0
    outer loop
      vertex -69.596 70.5257 8.63598
      vertex -69.596 70.5257 -13.716
      vertex -69.8087 70.3883 -13.716
    endloop
  endfacet
  facet normal -0.456196 0.889879 0
    outer loop
      vertex -69.3707 70.6412 -13.716
      vertex -69.596 70.5257 -13.716
      vertex -69.596 70.5257 8.63598
    endloop
  endfacet
  facet normal -0.27086 0.962619 0
    outer loop
      vertex -68.8912 70.8023 -13.716
      vertex -69.135 70.7337 -13.716
      vertex -69.135 70.7337 13.716
    endloop
  endfacet
  facet normal 0 0 -1
    outer loop
      vertex -69.3707 70.6412 -13.716
      vertex -69.135 70.7337 -13.716
      vertex -68.8912 70.8023 -13.716
    endloop
  endfacet
  facet normal -0.17374 0.984792 0
    outer loop
      vertex -68.6418 70.8463 13.716
      vertex -68.6418 70.8463 -13.716
      vertex -68.8912 70.8023 -13.716
    endloop
  endfacet
  facet normal -0.0746427 0.99721 0
    outer loop
      vertex -68.3893 70.8652 -13.716
      vertex -68.6418 70.8463 -13.716
      vertex -68.6418 70.8463 13.716
    endloop
  endfacet
  facet normal -0.62349 0.781831 0
    outer loop
      vertex -70.0067 70.2304 -13.716
      vertex -70.0067 70.2304 13.716
      vertex -69.8087 70.3883 13.716
    endloop
  endfacet
  facet normal -0.698166 0.715936 0
    outer loop
      vertex -70.188 70.0536 8.63598
      vertex -70.188 70.0536 13.716
      vertex -70.0067 70.2304 -13.716
    endloop
  endfacet
  facet normal 0 0 1
    outer loop
      vertex -69.3707 70.6412 13.716
      vertex -69.596 70.5257 13.716
      vertex -69.8087 70.3883 13.716
    endloop
  endfacet
  facet normal -0.456196 0.889879 0
    outer loop
      vertex -69.596 70.5257 8.63598
      vertex -69.596 70.5257 13.716
      vertex -69.3707 70.6412 13.716
    endloop
  endfacet
  facet normal -0.980214 0.197939 0
    outer loop
      vertex -70.8376 68.7046 -13.716
      vertex -70.8376 68.7046 13.716
      vertex -70.7875 68.9527 13.716
    endloop
  endfacet
  facet normal -0.994998 0.0998946 0
    outer loop
      vertex -70.8629 68.4526 13.716
      vertex -70.8376 68.7046 13.716
      vertex -70.8376 68.7046 -13.716
    endloop
  endfacet
  facet normal 0.318596 -0.947891 0
    outer loop
      vertex 69.254 -70.6904 -13.716
      vertex 69.254 -70.6904 13.716
      vertex 69.0139 -70.7711 13.716
    endloop
  endfacet
  facet normal 0.411153 -0.911566 0
    outer loop
      vertex 69.4848 -70.5863 13.716
      vertex 69.254 -70.6904 13.716
      vertex 69.254 -70.6904 -13.716
    endloop
  endfacet
  facet normal 0.583701 -0.811969 0
    outer loop
      vertex 69.9097 -70.3119 13.716
      vertex 69.7041 -70.4597 13.716
      vertex 69.7041 -70.4597 8.63598
    endloop
  endfacet
  facet normal 0 0 1
    outer loop
      vertex 69.4848 -70.5863 13.716
      vertex 69.7041 -70.4597 13.716
      vertex 69.9097 -70.3119 13.716
    endloop
  endfacet
  facet normal 0 0 1
    outer loop
      vertex -69.596 -70.5257 13.716
      vertex -69.3707 -70.6412 13.716
      vertex -69.135 -70.7337 13.716
    endloop
  endfacet
  facet normal -0.456196 -0.889879 -0
    outer loop
      vertex -69.596 -70.5257 13.716
      vertex -69.596 -70.5257 -13.716
      vertex -69.3707 -70.6412 13.716
    endloop
  endfacet
  facet normal -0.542613 -0.839983 0
    outer loop
      vertex -69.8087 -70.3883 -13.716
      vertex -69.596 -70.5257 -13.716
      vertex -69.596 -70.5257 13.716
    endloop
  endfacet
  facet normal 0 0 -1
    outer loop
      vertex -69.135 -70.7337 -13.716
      vertex -69.596 -70.5257 -13.716
      vertex -69.8087 -70.3883 -13.716
    endloop
  endfacet
  facet normal -0.623249 -0.782023 -0
    outer loop
      vertex -69.8087 -70.3883 13.716
      vertex -70.0067 -70.2305 13.716
      vertex -69.8087 -70.3883 -13.716
    endloop
  endfacet
  facet normal -0.542613 -0.839983 0
    outer loop
      vertex -69.596 -70.5257 13.716
      vertex -69.8087 -70.3883 13.716
      vertex -69.8087 -70.3883 -13.716
    endloop
  endfacet
  facet normal 0 0 1
    outer loop
      vertex -70.188 -70.0536 13.716
      vertex -70.0067 -70.2305 13.716
      vertex -69.8087 -70.3883 13.716
    endloop
  endfacet
  facet normal -0.766047 -0.642784 0
    outer loop
      vertex -70.3507 -69.8597 -13.716
      vertex -70.188 -70.0536 -13.716
      vertex -70.188 -70.0536 13.716
    endloop
  endfacet
  facet normal 0.998761 -0.0497603 0
    outer loop
      vertex 70.8534 -68.5789 13.716
      vertex 70.8534 -68.5789 -8.636
      vertex 70.866 -68.326 -8.636
    endloop
  endfacet
  facet normal 0.988797 -0.149267 0
    outer loop
      vertex 70.8156 -68.8293 -8.636
      vertex 70.8534 -68.5789 -8.636
      vertex 70.8534 -68.5789 13.716
    endloop
  endfacet
  facet normal 0.853106 -0.521738 0
    outer loop
      vertex 70.4246 -69.7568 -8.636
      vertex 70.5567 -69.5408 -13.716
      vertex 70.5567 -69.5408 -8.636
    endloop
  endfacet
  facet normal 0 0 -1
    outer loop
      vertex 70.5567 -69.5408 -13.716
      vertex 70.4246 -69.7568 -13.716
      vertex 70.2718 -69.9587 -13.716
    endloop
  endfacet
  facet normal 0 0 1
    outer loop
      vertex 70.6665 -69.3126 13.716
      vertex 70.8156 -68.8293 13.716
      vertex 70.8534 -68.5789 13.716
    endloop
  endfacet
  facet normal 0.969065 -0.246807 0
    outer loop
      vertex 70.8156 -68.8293 13.716
      vertex 70.7531 -69.0747 13.716
      vertex 70.7531 -69.0747 -8.636
    endloop
  endfacet
  facet normal 0.998761 -0.0497603 0
    outer loop
      vertex 70.8534 -68.5789 -8.636
      vertex 70.866 -68.326 -13.716
      vertex 70.866 -68.326 -8.636
    endloop
  endfacet
  facet normal 0 0 -1
    outer loop
      vertex 70.866 -68.326 -13.716
      vertex 70.8156 -68.8293 -13.716
      vertex 70.6665 -69.3126 -13.716
    endloop
  endfacet
  facet normal 0 0 -1
    outer loop
      vertex 70.7531 69.0747 -13.716
      vertex 70.8156 68.8293 -13.716
      vertex 70.8534 68.5789 -13.716
    endloop
  endfacet
  facet normal 0.969065 0.246807 0
    outer loop
      vertex 70.8156 68.8293 -8.636
      vertex 70.8156 68.8293 -13.716
      vertex 70.7531 69.0747 -13.716
    endloop
  endfacet
  facet normal 0.797386 0.60347 0
    outer loop
      vertex 70.4246 69.7568 8.63598
      vertex 70.4246 69.7568 -13.716
      vertex 70.2718 69.9587 -13.716
    endloop
  endfacet
  facet normal 0.853106 0.521738 0
    outer loop
      vertex 70.5567 69.5408 -13.716
      vertex 70.4246 69.7568 -13.716
      vertex 70.4246 69.7568 8.63598
    endloop
  endfacet
  facet normal 0 0 1
    outer loop
      vertex -70.4934 -69.6505 13.716
      vertex -70.3507 -69.8597 13.716
      vertex -70.188 -70.0536 13.716
    endloop
  endfacet
  facet normal -0.82611 -0.563508 0
    outer loop
      vertex -70.3507 -69.8597 -13.716
      vertex -70.3507 -69.8597 13.716
      vertex -70.4934 -69.6505 13.716
    endloop
  endfacet
  facet normal -0.878242 -0.478216 0
    outer loop
      vertex -70.6145 -69.4281 13.716
      vertex -70.4934 -69.6505 -13.716
      vertex -70.4934 -69.6505 13.716
    endloop
  endfacet
  facet normal 0 0 1
    outer loop
      vertex -70.7128 -69.1947 13.716
      vertex -70.6145 -69.4281 13.716
      vertex -70.4934 -69.6505 13.716
    endloop
  endfacet
  facet normal 0 0 -1
    outer loop
      vertex -70.4934 -69.6505 -13.716
      vertex -70.6145 -69.4281 -13.716
      vertex -70.7128 -69.1947 -13.716
    endloop
  endfacet
  facet normal 0 0 -1
    outer loop
      vertex -70.3507 -69.8597 -13.716
      vertex -70.4934 -69.6505 -13.716
      vertex -70.7128 -69.1947 -13.716
    endloop
  endfacet
  facet normal -0.95548 -0.295057 -0
    outer loop
      vertex -70.7875 -68.9528 13.716
      vertex -70.7875 -68.9528 -13.716
      vertex -70.7128 -69.1947 -13.716
    endloop
  endfacet
  facet normal -0.98023 -0.197863 -0
    outer loop
      vertex -70.7875 -68.9528 13.716
      vertex -70.8376 -68.7046 13.716
      vertex -70.7875 -68.9528 -13.716
    endloop
  endfacet
  facet normal 0 0 1
    outer loop
      vertex -70.8629 -68.4526 13.716
      vertex -70.8376 -68.7046 13.716
      vertex -70.7875 -68.9528 13.716
    endloop
  endfacet
  facet normal -0.994998 -0.0998946 0
    outer loop
      vertex -70.8629 -68.4526 -13.716
      vertex -70.8376 -68.7046 13.716
      vertex -70.8629 -68.4526 13.716
    endloop
  endfacet
  facet normal 0 0 -1
    outer loop
      vertex -70.7128 69.1947 -13.716
      vertex -70.6145 69.4281 -13.716
      vertex -70.188 70.0536 -13.716
    endloop
  endfacet
  facet normal -0.921598 0.388145 0
    outer loop
      vertex -70.6145 69.4281 8.63598
      vertex -70.6145 69.4281 -13.716
      vertex -70.7128 69.1947 -13.716
    endloop
  endfacet
  facet normal 0 0 -1
    outer loop
      vertex -70.8376 68.7046 -13.716
      vertex -70.7875 68.9527 -13.716
      vertex -70.7128 69.1947 -13.716
    endloop
  endfacet
  facet normal -0.980214 0.197939 0
    outer loop
      vertex -70.7875 68.9527 8.63598
      vertex -70.7875 68.9527 -13.716
      vertex -70.8376 68.7046 -13.716
    endloop
  endfacet
  facet normal -0.698166 0.715936 0
    outer loop
      vertex -70.188 70.0536 13.716
      vertex -70.0067 70.2304 13.716
      vertex -70.0067 70.2304 -13.716
    endloop
  endfacet
  facet normal 0 0 1
    outer loop
      vertex -69.8087 70.3883 13.716
      vertex -70.0067 70.2304 13.716
      vertex -70.188 70.0536 13.716
    endloop
  endfacet
  facet normal -0.456196 -0.889879 0
    outer loop
      vertex -69.596 -70.5257 -13.716
      vertex -69.3707 -70.6412 -13.716
      vertex -69.3707 -70.6412 13.716
    endloop
  endfacet
  facet normal 0 0 -1
    outer loop
      vertex -69.135 -70.7337 -13.716
      vertex -69.3707 -70.6412 -13.716
      vertex -69.596 -70.5257 -13.716
    endloop
  endfacet
  facet normal -0.698368 -0.715739 0
    outer loop
      vertex -70.188 -70.0536 -13.716
      vertex -70.0067 -70.2305 13.716
      vertex -70.188 -70.0536 13.716
    endloop
  endfacet
  facet normal -0.623249 -0.782023 -0
    outer loop
      vertex -70.0067 -70.2305 13.716
      vertex -70.0067 -70.2305 -13.716
      vertex -69.8087 -70.3883 -13.716
    endloop
  endfacet
  facet normal 0.853106 -0.521738 0
    outer loop
      vertex 70.4246 -69.7568 -8.636
      vertex 70.4246 -69.7568 -13.716
      vertex 70.5567 -69.5408 -13.716
    endloop
  endfacet
  facet normal 0.797386 -0.60347 0
    outer loop
      vertex 70.2718 -69.9587 -13.716
      vertex 70.4246 -69.7568 -13.716
      vertex 70.4246 -69.7568 -8.636
    endloop
  endfacet
  facet normal 0 0 1
    outer loop
      vertex 70.6665 -69.3126 13.716
      vertex 70.7531 -69.0747 13.716
      vertex 70.8156 -68.8293 13.716
    endloop
  endfacet
  facet normal 0.939678 -0.34206 0
    outer loop
      vertex 70.7531 -69.0747 -8.636
      vertex 70.7531 -69.0747 13.716
      vertex 70.6665 -69.3126 13.716
    endloop
  endfacet
  facet normal 0.988797 -0.149267 0
    outer loop
      vertex 70.8156 -68.8293 -8.636
      vertex 70.8156 -68.8293 -13.716
      vertex 70.8534 -68.5789 -8.636
    endloop
  endfacet
  facet normal 0.969065 -0.246807 0
    outer loop
      vertex 70.7531 -69.0747 -8.636
      vertex 70.8156 -68.8293 -13.716
      vertex 70.8156 -68.8293 -8.636
    endloop
  endfacet
  facet normal -0.878242 -0.478216 -0
    outer loop
      vertex -70.6145 -69.4281 13.716
      vertex -70.6145 -69.4281 -13.716
      vertex -70.4934 -69.6505 -13.716
    endloop
  endfacet
  facet normal -0.921598 -0.388145 0
    outer loop
      vertex -70.7128 -69.1947 -13.716
      vertex -70.6145 -69.4281 -13.716
      vertex -70.6145 -69.4281 13.716
    endloop
  endfacet
  facet normal -0.98023 -0.197863 -0
    outer loop
      vertex -70.8376 -68.7046 13.716
      vertex -70.8376 -68.7046 -13.716
      vertex -70.7875 -68.9528 -13.716
    endloop
  endfacet
  facet normal -0.994998 -0.0998946 0
    outer loop
      vertex -70.8629 -68.4526 -13.716
      vertex -70.8376 -68.7046 -13.716
      vertex -70.8376 -68.7046 13.716
    endloop
  endfacet
  facet normal -0.878152 0.478382 0
    outer loop
      vertex -70.4934 69.6504 8.63598
      vertex -70.4934 69.6504 -13.716
      vertex -70.6145 69.4281 -13.716
    endloop
  endfacet
  facet normal -0.82611 0.563508 0
    outer loop
      vertex -70.3507 69.8596 8.63598
      vertex -70.4934 69.6504 -13.716
      vertex -70.4934 69.6504 8.63598
    endloop
  endfacet
  facet normal -0.698368 -0.715739 0
    outer loop
      vertex -70.188 -70.0536 -13.716
      vertex -70.0067 -70.2305 -13.716
      vertex -70.0067 -70.2305 13.716
    endloop
  endfacet
  facet normal 0 0 -1
    outer loop
      vertex -69.8087 -70.3883 -13.716
      vertex -70.0067 -70.2305 -13.716
      vertex -70.188 -70.0536 -13.716
    endloop
  endfacet
  facet normal 0 0 -1
    outer loop
      vertex 70.8156 -68.8293 -13.716
      vertex 70.7531 -69.0747 -13.716
      vertex 70.6665 -69.3126 -13.716
    endloop
  endfacet
  facet normal 0.969065 -0.246807 0
    outer loop
      vertex 70.7531 -69.0747 -8.636
      vertex 70.7531 -69.0747 -13.716
      vertex 70.8156 -68.8293 -13.716
    endloop
  endfacet
  facet normal 0 0 -1
    outer loop
      vertex 70.866 -68.326 -13.716
      vertex 70.8534 -68.5789 -13.716
      vertex 70.8156 -68.8293 -13.716
    endloop
  endfacet
  facet normal 0.998761 -0.0497603 0
    outer loop
      vertex 70.8534 -68.5789 -8.636
      vertex 70.8534 -68.5789 -13.716
      vertex 70.866 -68.326 -13.716
    endloop
  endfacet
  facet normal -0.76621 0.64259 0
    outer loop
      vertex -70.188 70.0536 -13.716
      vertex -70.3507 69.8596 -13.716
      vertex -70.3507 69.8596 8.63598
    endloop
  endfacet
  facet normal 0 0 -1
    outer loop
      vertex -70.4934 69.6504 -13.716
      vertex -70.3507 69.8596 -13.716
      vertex -70.188 70.0536 -13.716
    endloop
  endfacet
endsolid OpenSCAD_Model
