solid OpenSCAD_Model
  facet normal 0.998761 0.0497603 0
    outer loop
      vertex 71.3614 43.6869 6.35
      vertex 71.374 43.434 1.26998
      vertex 71.3614 43.6869 1.26998
    endloop
  endfacet
  facet normal 0 0 -1
    outer loop
      vertex 70.6075 -45.2523 -6.35
      vertex -71.1225 -44.5361 -6.35
      vertex -68.8973 45.9732 -6.35
    endloop
  endfacet
  facet normal 0 0 1
    outer loop
      vertex -68.8973 45.9732 6.35
      vertex -68.8973 -45.9732 6.35
      vertex 71.3614 43.6869 6.35
    endloop
  endfacet
  facet normal 0 0 1
    outer loop
      vertex -68.8973 -45.9732 6.35
      vertex 70.6075 -45.2523 6.35
      vertex 71.3614 43.6869 6.35
    endloop
  endfacet
  facet normal 0 1 0
    outer loop
      vertex 68.7707 45.9732 6.35
      vertex -68.8973 45.9732 -6.35
      vertex -68.8973 45.9732 6.35
    endloop
  endfacet
  facet normal 0.222321 -0.974974 0
    outer loop
      vertex 69.275 -45.9354 -1.27
      vertex 69.5219 -45.8791 -6.35
      vertex 69.5219 -45.8791 -1.27
    endloop
  endfacet
  facet normal 0 0 1
    outer loop
      vertex 71.3614 43.6869 6.35
      vertex 68.7707 45.9732 6.35
      vertex -68.8973 45.9732 6.35
    endloop
  endfacet
  facet normal 0 1 0
    outer loop
      vertex 68.7707 45.9732 6.35
      vertex 68.7707 45.9732 1.26998
      vertex -68.8973 45.9732 -6.35
    endloop
  endfacet
  facet normal 0 0 -1
    outer loop
      vertex 71.1745 44.4206 -6.35
      vertex 71.2611 44.1827 -6.35
      vertex 71.3614 43.6869 -6.35
    endloop
  endfacet
  facet normal 0 0 1
    outer loop
      vertex 70.6075 -45.2523 6.35
      vertex 71.374 43.434 6.35
      vertex 71.3614 43.6869 6.35
    endloop
  endfacet
  facet normal 0.0248836 -0.99969 0
    outer loop
      vertex 68.7707 -45.9732 1.26998
      vertex 69.0238 -45.9669 -1.27
      vertex 68.7707 -45.9732 6.35
    endloop
  endfacet
  facet normal 0.318596 -0.947891 0
    outer loop
      vertex 69.5219 -45.8791 -1.27
      vertex 69.5219 -45.8791 -6.35
      vertex 69.762 -45.7984 -1.27
    endloop
  endfacet
  facet normal 0 0 1
    outer loop
      vertex 71.3614 43.6869 6.35
      vertex 70.4177 45.4198 6.35
      vertex 68.7707 45.9732 6.35
    endloop
  endfacet
  facet normal 0.500258 0.865876 0
    outer loop
      vertex 70.2121 45.5676 6.35
      vertex 69.9928 45.6943 -6.35
      vertex 69.9928 45.6943 6.35
    endloop
  endfacet
  facet normal 0 0 1
    outer loop
      vertex 70.4177 45.4198 6.35
      vertex 69.762 45.7984 6.35
      vertex 68.7707 45.9732 6.35
    endloop
  endfacet
  facet normal 0 0 -1
    outer loop
      vertex -68.8973 45.9732 -6.35
      vertex 71.3614 43.6869 -6.35
      vertex 70.6075 -45.2523 -6.35
    endloop
  endfacet
  facet normal 0.998761 0.0497603 0
    outer loop
      vertex 71.374 43.434 1.26998
      vertex 71.3614 43.6869 -6.35
      vertex 71.3614 43.6869 1.26998
    endloop
  endfacet
  facet normal -0 0 -1
    outer loop
      vertex 70.6075 -45.2523 -6.35
      vertex -68.8973 -45.9732 -6.35
      vertex -71.1225 -44.5361 -6.35
    endloop
  endfacet
  facet normal 0.969065 -0.246807 0
    outer loop
      vertex 71.3236 -43.9373 6.35
      vertex 71.2611 -44.1827 1.26998
      vertex 71.3236 -43.9373 1.26998
    endloop
  endfacet
  facet normal 0 0 1
    outer loop
      vertex 70.6075 -45.2523 6.35
      vertex 71.374 -43.434 6.35
      vertex 71.374 43.434 6.35
    endloop
  endfacet
  facet normal 1 -0 0
    outer loop
      vertex 71.374 -43.434 1.26998
      vertex 71.374 -43.434 -6.35
      vertex 71.374 43.434 1.26998
    endloop
  endfacet
  facet normal 0.998761 0.0497603 0
    outer loop
      vertex 71.374 43.434 1.26998
      vertex 71.374 43.434 -6.35
      vertex 71.3614 43.6869 -6.35
    endloop
  endfacet
  facet normal 0 0 1
    outer loop
      vertex -68.8973 45.9732 6.35
      vertex -71.3708 -43.5606 6.35
      vertex -68.8973 -45.9732 6.35
    endloop
  endfacet
  facet normal -0.921598 -0.388145 -0
    outer loop
      vertex -71.1225 -44.5361 6.35
      vertex -71.2208 -44.3027 -6.35
      vertex -71.1225 -44.5361 -6.35
    endloop
  endfacet
  facet normal 0 0 1
    outer loop
      vertex 71.3614 43.6869 6.35
      vertex 71.0647 44.6488 6.35
      vertex 70.4177 45.4198 6.35
    endloop
  endfacet
  facet normal 0 0 1
    outer loop
      vertex 71.3614 43.6869 6.35
      vertex 71.2611 44.1827 6.35
      vertex 71.0647 44.6488 6.35
    endloop
  endfacet
  facet normal 0.0248836 0.99969 0
    outer loop
      vertex 69.0238 45.9669 1.26998
      vertex 68.7707 45.9732 1.26998
      vertex 68.7707 45.9732 6.35
    endloop
  endfacet
  facet normal 0.0248836 0.99969 0
    outer loop
      vertex 69.0238 45.9669 1.26998
      vertex 68.7707 45.9732 -6.35
      vertex 68.7707 45.9732 1.26998
    endloop
  endfacet
  facet normal 0 0 1
    outer loop
      vertex 70.4177 45.4198 6.35
      vertex 69.9928 45.6943 6.35
      vertex 69.762 45.7984 6.35
    endloop
  endfacet
  facet normal 0.411153 0.911566 0
    outer loop
      vertex 69.9928 45.6943 6.35
      vertex 69.762 45.7984 -6.35
      vertex 69.762 45.7984 6.35
    endloop
  endfacet
  facet normal 1 0 -0
    outer loop
      vertex 71.374 43.434 1.26998
      vertex 71.374 43.434 6.35
      vertex 71.374 -43.434 1.26998
    endloop
  endfacet
  facet normal 0.998761 0.0497603 0
    outer loop
      vertex 71.3614 43.6869 6.35
      vertex 71.374 43.434 6.35
      vertex 71.374 43.434 1.26998
    endloop
  endfacet
  facet normal 0 0 1
    outer loop
      vertex -68.8973 -45.9732 6.35
      vertex 68.7707 -45.9732 6.35
      vertex 70.6075 -45.2523 6.35
    endloop
  endfacet
  facet normal 0 -1 0
    outer loop
      vertex 68.7707 -45.9732 1.26998
      vertex 68.7707 -45.9732 6.35
      vertex -68.8973 -45.9732 6.35
    endloop
  endfacet
  facet normal 0.318241 0.94801 0
    outer loop
      vertex 69.762 45.7984 -6.35
      vertex 69.5219 45.879 -6.35
      vertex 69.5219 45.879 6.35
    endloop
  endfacet
  facet normal 0.939678 0.34206 0
    outer loop
      vertex 71.2611 44.1827 6.35
      vertex 71.2611 44.1827 -6.35
      vertex 71.1745 44.4206 -6.35
    endloop
  endfacet
  facet normal 0 0 1
    outer loop
      vertex 70.6075 -45.2523 6.35
      vertex 71.1745 -44.4206 6.35
      vertex 71.374 -43.434 6.35
    endloop
  endfacet
  facet normal 0.988797 -0.149267 0
    outer loop
      vertex 71.3236 -43.9373 1.26998
      vertex 71.3236 -43.9373 -6.35
      vertex 71.3614 -43.6869 1.26998
    endloop
  endfacet
  facet normal 0 0 -1
    outer loop
      vertex 70.6075 -45.2523 -6.35
      vertex 69.5219 -45.8791 -6.35
      vertex 68.7707 -45.9732 -6.35
    endloop
  endfacet
  facet normal 0.0248836 -0.99969 0
    outer loop
      vertex 69.0238 -45.9669 -1.27
      vertex 69.0238 -45.9669 6.35
      vertex 68.7707 -45.9732 6.35
    endloop
  endfacet
  facet normal 0 -1 0
    outer loop
      vertex -68.8973 -45.9732 6.35
      vertex -68.8973 -45.9732 -6.35
      vertex 68.7707 -45.9732 1.26998
    endloop
  endfacet
  facet normal 0 0 1
    outer loop
      vertex -68.8973 45.9732 6.35
      vertex -71.3708 43.5606 6.35
      vertex -71.3708 -43.5606 6.35
    endloop
  endfacet
  facet normal 0 0 1
    outer loop
      vertex -68.8973 45.9732 6.35
      vertex -70.5147 45.3384 6.35
      vertex -71.3708 43.5606 6.35
    endloop
  endfacet
  facet normal -1 -0 0
    outer loop
      vertex -71.3708 43.5606 6.35
      vertex -71.3708 -43.3074 -6.35
      vertex -71.3708 -43.5606 6.35
    endloop
  endfacet
  facet normal 0 0 1
    outer loop
      vertex 71.3614 43.6869 6.35
      vertex 71.3236 43.9373 6.35
      vertex 71.2611 44.1827 6.35
    endloop
  endfacet
  facet normal 0 0 1
    outer loop
      vertex 71.2611 44.1827 6.35
      vertex 71.1745 44.4206 6.35
      vertex 71.0647 44.6488 6.35
    endloop
  endfacet
  facet normal 0 0 1
    outer loop
      vertex 70.4177 45.4198 6.35
      vertex 70.2121 45.5676 6.35
      vertex 69.9928 45.6943 6.35
    endloop
  endfacet
  facet normal 0.797196 0.603721 0
    outer loop
      vertex 70.9326 44.8648 6.35
      vertex 70.9326 44.8648 -6.35
      vertex 70.7797 45.0667 6.35
    endloop
  endfacet
  facet normal 0.124424 0.992229 -0
    outer loop
      vertex 69.0238 45.9669 1.26998
      vertex 69.0238 45.9669 6.35
      vertex 69.275 45.9354 6.35
    endloop
  endfacet
  facet normal 0 0 1
    outer loop
      vertex 69.762 45.7984 6.35
      vertex 69.275 45.9354 6.35
      vertex 68.7707 45.9732 6.35
    endloop
  endfacet
  facet normal 0 0 -1
    outer loop
      vertex 71.374 -43.434 -6.35
      vertex 71.1745 -44.4206 -6.35
      vertex 70.6075 -45.2523 -6.35
    endloop
  endfacet
  facet normal 1 0 0
    outer loop
      vertex 71.374 43.434 6.35
      vertex 71.374 -43.434 6.35
      vertex 71.374 -43.434 1.26998
    endloop
  endfacet
  facet normal 0 0 1
    outer loop
      vertex 70.6075 -45.2523 6.35
      vertex 70.9326 -44.8648 6.35
      vertex 71.1745 -44.4206 6.35
    endloop
  endfacet
  facet normal 0 -0 -1
    outer loop
      vertex 71.3614 43.6869 -6.35
      vertex 71.374 -43.434 -6.35
      vertex 70.6075 -45.2523 -6.35
    endloop
  endfacet
  facet normal 0 0 -1
    outer loop
      vertex -68.8973 45.9732 -6.35
      vertex 68.7707 45.9732 -6.35
      vertex 71.3614 43.6869 -6.35
    endloop
  endfacet
  facet normal 0 1 0
    outer loop
      vertex 68.7707 45.9732 1.26998
      vertex 68.7707 45.9732 -6.35
      vertex -68.8973 45.9732 -6.35
    endloop
  endfacet
  facet normal 0 0 -1
    outer loop
      vertex 68.7707 45.9732 -6.35
      vertex 71.1745 44.4206 -6.35
      vertex 71.3614 43.6869 -6.35
    endloop
  endfacet
  facet normal 0 0 1
    outer loop
      vertex 71.0647 44.6488 6.35
      vertex 70.7797 45.0667 6.35
      vertex 70.4177 45.4198 6.35
    endloop
  endfacet
  facet normal 0.853106 -0.521738 0
    outer loop
      vertex 70.9326 -44.8648 -1.27
      vertex 71.0647 -44.6488 -1.27
      vertex 70.9326 -44.8648 6.35
    endloop
  endfacet
  facet normal 0.733075 -0.680148 0
    outer loop
      vertex 70.6075 -45.2523 -6.35
      vertex 70.7797 -45.0667 -6.35
      vertex 70.7797 -45.0667 -1.27
    endloop
  endfacet
  facet normal 0.318596 -0.947891 0
    outer loop
      vertex 69.762 -45.7984 6.35
      vertex 69.5219 -45.8791 -1.27
      vertex 69.762 -45.7984 -1.27
    endloop
  endfacet
  facet normal 0.124424 -0.992229 0
    outer loop
      vertex 69.275 -45.9354 -1.27
      vertex 69.275 -45.9354 6.35
      vertex 69.0238 -45.9669 -1.27
    endloop
  endfacet
  facet normal 0 0 -1
    outer loop
      vertex 70.6075 -45.2523 -6.35
      vertex 70.4177 -45.4199 -6.35
      vertex 69.9928 -45.6943 -6.35
    endloop
  endfacet
  facet normal 0.499962 -0.866047 0
    outer loop
      vertex 69.9928 -45.6943 -6.35
      vertex 70.2121 -45.5677 -6.35
      vertex 70.2121 -45.5677 -1.27
    endloop
  endfacet
  facet normal 0.583701 -0.811969 0
    outer loop
      vertex 70.4177 -45.4199 -1.27
      vertex 70.2121 -45.5677 6.35
      vertex 70.2121 -45.5677 -1.27
    endloop
  endfacet
  facet normal 0 0 1
    outer loop
      vertex 68.7707 -45.9732 6.35
      vertex 69.762 -45.7984 6.35
      vertex 70.6075 -45.2523 6.35
    endloop
  endfacet
  facet normal 0 0 1
    outer loop
      vertex -71.3708 -43.5606 6.35
      vertex -70.5147 -45.3385 6.35
      vertex -68.8973 -45.9732 6.35
    endloop
  endfacet
  facet normal 0 0 1
    outer loop
      vertex -71.1225 -44.5361 6.35
      vertex -70.8587 -44.9677 6.35
      vertex -70.5147 -45.3385 6.35
    endloop
  endfacet
  facet normal 0 0 1
    outer loop
      vertex -70.5147 45.3384 6.35
      vertex -71.1225 44.5361 6.35
      vertex -71.3708 43.5606 6.35
    endloop
  endfacet
  facet normal 0 0 -1
    outer loop
      vertex -71.1225 -44.5361 -6.35
      vertex -71.3708 -43.3074 -6.35
      vertex -68.8973 45.9732 -6.35
    endloop
  endfacet
  facet normal 0 0 1
    outer loop
      vertex -68.8973 45.9732 6.35
      vertex -69.643 45.8417 6.35
      vertex -70.5147 45.3384 6.35
    endloop
  endfacet
  facet normal 0 0 1
    outer loop
      vertex -69.643 45.8417 6.35
      vertex -70.104 45.6337 6.35
      vertex -70.5147 45.3384 6.35
    endloop
  endfacet
  facet normal 0.988797 0.149267 -0
    outer loop
      vertex 71.3614 43.6869 1.26998
      vertex 71.3236 43.9373 6.35
      vertex 71.3614 43.6869 6.35
    endloop
  endfacet
  facet normal 0.988797 0.149267 -0
    outer loop
      vertex 71.3614 43.6869 -6.35
      vertex 71.3236 43.9373 6.35
      vertex 71.3614 43.6869 1.26998
    endloop
  endfacet
  facet normal 0 0 -1
    outer loop
      vertex 70.4177 45.4198 -6.35
      vertex 70.6075 45.2523 -6.35
      vertex 71.1745 44.4206 -6.35
    endloop
  endfacet
  facet normal 0.901116 0.433578 0
    outer loop
      vertex 71.1745 44.4206 -6.35
      vertex 71.0647 44.6488 1.26998
      vertex 71.0647 44.6488 6.35
    endloop
  endfacet
  facet normal 0.222696 0.974888 0
    outer loop
      vertex 69.5219 45.879 6.35
      vertex 69.275 45.9354 -6.35
      vertex 69.275 45.9354 6.35
    endloop
  endfacet
  facet normal 0 0 1
    outer loop
      vertex 69.762 45.7984 6.35
      vertex 69.5219 45.879 6.35
      vertex 69.275 45.9354 6.35
    endloop
  endfacet
  facet normal 0.0248836 0.99969 0
    outer loop
      vertex 68.7707 45.9732 6.35
      vertex 69.0238 45.9669 6.35
      vertex 69.0238 45.9669 1.26998
    endloop
  endfacet
  facet normal 0 0 1
    outer loop
      vertex 69.275 45.9354 6.35
      vertex 69.0238 45.9669 6.35
      vertex 68.7707 45.9732 6.35
    endloop
  endfacet
  facet normal 0 0 1
    outer loop
      vertex 70.9326 -44.8648 6.35
      vertex 71.0647 -44.6488 6.35
      vertex 71.1745 -44.4206 6.35
    endloop
  endfacet
  facet normal 0.901116 -0.433578 0
    outer loop
      vertex 71.1745 -44.4206 6.35
      vertex 71.0647 -44.6488 -1.27
      vertex 71.1745 -44.4206 1.26998
    endloop
  endfacet
  facet normal 0 0 1
    outer loop
      vertex 71.1745 -44.4206 6.35
      vertex 71.3236 -43.9373 6.35
      vertex 71.374 -43.434 6.35
    endloop
  endfacet
  facet normal 0.969065 -0.246807 0
    outer loop
      vertex 71.3236 -43.9373 1.26998
      vertex 71.2611 -44.1827 1.26998
      vertex 71.3236 -43.9373 -6.35
    endloop
  endfacet
  facet normal 1 0 0
    outer loop
      vertex 71.374 -43.434 -6.35
      vertex 71.374 43.434 -6.35
      vertex 71.374 43.434 1.26998
    endloop
  endfacet
  facet normal 0 0 -1
    outer loop
      vertex 71.3614 43.6869 -6.35
      vertex 71.374 43.434 -6.35
      vertex 71.374 -43.434 -6.35
    endloop
  endfacet
  facet normal 0 0 -1
    outer loop
      vertex 68.7707 45.9732 -6.35
      vertex 70.4177 45.4198 -6.35
      vertex 71.1745 44.4206 -6.35
    endloop
  endfacet
  facet normal 0 0 -1
    outer loop
      vertex 68.7707 45.9732 -6.35
      vertex 69.762 45.7984 -6.35
      vertex 70.4177 45.4198 -6.35
    endloop
  endfacet
  facet normal 0.733075 -0.680148 0
    outer loop
      vertex 70.6075 -45.2523 -6.35
      vertex 70.7797 -45.0667 -1.27
      vertex 70.6075 -45.2523 6.35
    endloop
  endfacet
  facet normal 0.797196 -0.603721 0
    outer loop
      vertex 70.7797 -45.0667 -1.27
      vertex 70.7797 -45.0667 -6.35
      vertex 70.9326 -44.8648 -1.27
    endloop
  endfacet
  facet normal 0.998761 -0.0497603 0
    outer loop
      vertex 71.3614 -43.6869 1.26998
      vertex 71.3614 -43.6869 -6.35
      vertex 71.374 -43.434 -6.35
    endloop
  endfacet
  facet normal 0.939678 -0.34206 0
    outer loop
      vertex 71.1745 -44.4206 -6.35
      vertex 71.2611 -44.1827 1.26998
      vertex 71.1745 -44.4206 1.26998
    endloop
  endfacet
  facet normal 0.0248836 -0.99969 0
    outer loop
      vertex 68.7707 -45.9732 -6.35
      vertex 69.0238 -45.9669 -6.35
      vertex 69.0238 -45.9669 -1.27
    endloop
  endfacet
  facet normal 0.222321 -0.974974 0
    outer loop
      vertex 69.5219 -45.8791 -1.27
      vertex 69.275 -45.9354 6.35
      vertex 69.275 -45.9354 -1.27
    endloop
  endfacet
  facet normal 0.0248836 -0.99969 0
    outer loop
      vertex 68.7707 -45.9732 1.26998
      vertex 68.7707 -45.9732 -6.35
      vertex 69.0238 -45.9669 -1.27
    endloop
  endfacet
  facet normal 0 -1 0
    outer loop
      vertex -68.8973 -45.9732 -6.35
      vertex 68.7707 -45.9732 -6.35
      vertex 68.7707 -45.9732 1.26998
    endloop
  endfacet
  facet normal 0.661909 -0.749584 0
    outer loop
      vertex 70.6075 -45.2523 6.35
      vertex 70.4177 -45.4199 6.35
      vertex 70.4177 -45.4199 -1.27
    endloop
  endfacet
  facet normal 0.411153 -0.911566 0
    outer loop
      vertex 69.762 -45.7984 -1.27
      vertex 69.9928 -45.6943 -1.27
      vertex 69.762 -45.7984 6.35
    endloop
  endfacet
  facet normal 0.661909 -0.749584 0
    outer loop
      vertex 70.6075 -45.2523 6.35
      vertex 70.4177 -45.4199 -1.27
      vertex 70.6075 -45.2523 -6.35
    endloop
  endfacet
  facet normal 0 0 1
    outer loop
      vertex 69.762 -45.7984 6.35
      vertex 70.2121 -45.5677 6.35
      vertex 70.6075 -45.2523 6.35
    endloop
  endfacet
  facet normal 0 0 1
    outer loop
      vertex 69.275 -45.9354 6.35
      vertex 69.5219 -45.8791 6.35
      vertex 69.762 -45.7984 6.35
    endloop
  endfacet
  facet normal 0 0 1
    outer loop
      vertex 68.7707 -45.9732 6.35
      vertex 69.275 -45.9354 6.35
      vertex 69.762 -45.7984 6.35
    endloop
  endfacet
  facet normal 0.411153 -0.911566 0
    outer loop
      vertex 69.9928 -45.6943 -1.27
      vertex 69.9928 -45.6943 6.35
      vertex 69.762 -45.7984 6.35
    endloop
  endfacet
  facet normal 0.499962 -0.866047 0
    outer loop
      vertex 70.2121 -45.5677 -1.27
      vertex 70.2121 -45.5677 6.35
      vertex 69.9928 -45.6943 -1.27
    endloop
  endfacet
  facet normal -0.623249 -0.782023 0
    outer loop
      vertex -70.5147 -45.3385 1.26998
      vertex -70.3167 -45.4963 6.35
      vertex -70.5147 -45.3385 6.35
    endloop
  endfacet
  facet normal -0.623249 -0.782023 0
    outer loop
      vertex -70.5147 -45.3385 -6.35
      vertex -70.3167 -45.4963 6.35
      vertex -70.5147 -45.3385 1.26998
    endloop
  endfacet
  facet normal 0 0 1
    outer loop
      vertex -71.3708 -43.5606 6.35
      vertex -71.1225 -44.5361 6.35
      vertex -70.5147 -45.3385 6.35
    endloop
  endfacet
  facet normal 0 0 1
    outer loop
      vertex -71.3708 -43.5606 6.35
      vertex -71.2955 -44.0608 6.35
      vertex -71.1225 -44.5361 6.35
    endloop
  endfacet
  facet normal 0 0 -1
    outer loop
      vertex -71.2955 -44.0608 -6.35
      vertex -71.3708 -43.5606 -6.35
      vertex -71.3708 -43.3074 -6.35
    endloop
  endfacet
  facet normal 0 0 -1
    outer loop
      vertex -71.1225 -44.5361 -6.35
      vertex -71.2955 -44.0608 -6.35
      vertex -71.3708 -43.3074 -6.35
    endloop
  endfacet
  facet normal 0 0 -1
    outer loop
      vertex -71.3708 -43.3074 -6.35
      vertex -71.3708 43.5606 -6.35
      vertex -68.8973 45.9732 -6.35
    endloop
  endfacet
  facet normal -1 0 -0
    outer loop
      vertex -71.3708 43.5606 6.35
      vertex -71.3708 43.5606 -6.35
      vertex -71.3708 -43.3074 -6.35
    endloop
  endfacet
  facet normal 0 0 1
    outer loop
      vertex -68.8973 45.9732 6.35
      vertex -69.3992 45.9103 6.35
      vertex -69.643 45.8417 6.35
    endloop
  endfacet
  facet normal 0 0 -1
    outer loop
      vertex -71.3708 43.5606 -6.35
      vertex -70.5147 45.3384 -6.35
      vertex -68.8973 45.9732 -6.35
    endloop
  endfacet
  facet normal 0.939678 0.34206 -0
    outer loop
      vertex 71.1745 44.4206 -6.35
      vertex 71.1745 44.4206 6.35
      vertex 71.2611 44.1827 6.35
    endloop
  endfacet
  facet normal 0.901116 0.433578 0
    outer loop
      vertex 71.0647 44.6488 6.35
      vertex 71.1745 44.4206 6.35
      vertex 71.1745 44.4206 -6.35
    endloop
  endfacet
  facet normal 0.969065 0.246807 0
    outer loop
      vertex 71.3236 43.9373 6.35
      vertex 71.2611 44.1827 -6.35
      vertex 71.2611 44.1827 6.35
    endloop
  endfacet
  facet normal 0 0 -1
    outer loop
      vertex 71.2611 44.1827 -6.35
      vertex 71.3236 43.9373 -6.35
      vertex 71.3614 43.6869 -6.35
    endloop
  endfacet
  facet normal 0 0 -1
    outer loop
      vertex 70.9326 44.8648 -6.35
      vertex 71.0647 44.6488 -6.35
      vertex 71.1745 44.4206 -6.35
    endloop
  endfacet
  facet normal 0.853106 0.521738 -0
    outer loop
      vertex 71.0647 44.6488 1.26998
      vertex 70.9326 44.8648 6.35
      vertex 71.0647 44.6488 6.35
    endloop
  endfacet
  facet normal 0 0 -1
    outer loop
      vertex 68.7707 45.9732 -6.35
      vertex 69.275 45.9354 -6.35
      vertex 69.762 45.7984 -6.35
    endloop
  endfacet
  facet normal 0.318241 0.94801 0
    outer loop
      vertex 69.762 45.7984 6.35
      vertex 69.762 45.7984 -6.35
      vertex 69.5219 45.879 6.35
    endloop
  endfacet
  facet normal 0.797196 -0.603721 0
    outer loop
      vertex 70.9326 -44.8648 6.35
      vertex 70.7797 -45.0667 6.35
      vertex 70.7797 -45.0667 -1.27
    endloop
  endfacet
  facet normal 0.797196 -0.603721 0
    outer loop
      vertex 70.9326 -44.8648 -1.27
      vertex 70.9326 -44.8648 6.35
      vertex 70.7797 -45.0667 -1.27
    endloop
  endfacet
  facet normal 0 0 -1
    outer loop
      vertex 71.1745 -44.4206 -6.35
      vertex 70.7797 -45.0667 -6.35
      vertex 70.6075 -45.2523 -6.35
    endloop
  endfacet
  facet normal 0.901116 -0.433578 0
    outer loop
      vertex 71.1745 -44.4206 1.26998
      vertex 71.0647 -44.6488 -1.27
      vertex 71.1745 -44.4206 -6.35
    endloop
  endfacet
  facet normal 0.998761 -0.0497603 0
    outer loop
      vertex 71.374 -43.434 1.26998
      vertex 71.3614 -43.6869 1.26998
      vertex 71.374 -43.434 -6.35
    endloop
  endfacet
  facet normal 0.998761 -0.0497603 0
    outer loop
      vertex 71.374 -43.434 6.35
      vertex 71.3614 -43.6869 1.26998
      vertex 71.374 -43.434 1.26998
    endloop
  endfacet
  facet normal 0.988797 -0.149267 0
    outer loop
      vertex 71.3614 -43.6869 1.26998
      vertex 71.3236 -43.9373 6.35
      vertex 71.3236 -43.9373 1.26998
    endloop
  endfacet
  facet normal 0 0 1
    outer loop
      vertex 71.3236 -43.9373 6.35
      vertex 71.3614 -43.6869 6.35
      vertex 71.374 -43.434 6.35
    endloop
  endfacet
  facet normal 0.583701 0.811969 -0
    outer loop
      vertex 70.4177 45.4198 -6.35
      vertex 70.2121 45.5676 6.35
      vertex 70.4177 45.4198 6.35
    endloop
  endfacet
  facet normal 0 0 -1
    outer loop
      vertex 69.9928 45.6943 -6.35
      vertex 70.2121 45.5676 -6.35
      vertex 70.4177 45.4198 -6.35
    endloop
  endfacet
  facet normal 0.661687 0.74978 0
    outer loop
      vertex 70.4177 45.4198 6.35
      vertex 70.6075 45.2523 -6.35
      vertex 70.4177 45.4198 -6.35
    endloop
  endfacet
  facet normal 0.733075 0.680148 -0
    outer loop
      vertex 70.6075 45.2523 -6.35
      vertex 70.6075 45.2523 6.35
      vertex 70.7797 45.0667 6.35
    endloop
  endfacet
  facet normal 0.797196 -0.603721 0
    outer loop
      vertex 70.7797 -45.0667 -6.35
      vertex 70.9326 -44.8648 -6.35
      vertex 70.9326 -44.8648 -1.27
    endloop
  endfacet
  facet normal 0 0 -1
    outer loop
      vertex 71.1745 -44.4206 -6.35
      vertex 71.0647 -44.6488 -6.35
      vertex 70.7797 -45.0667 -6.35
    endloop
  endfacet
  facet normal 0 0 -1
    outer loop
      vertex 71.3236 -43.9373 -6.35
      vertex 71.2611 -44.1827 -6.35
      vertex 71.1745 -44.4206 -6.35
    endloop
  endfacet
  facet normal 0 0 -1
    outer loop
      vertex 71.374 -43.434 -6.35
      vertex 71.3236 -43.9373 -6.35
      vertex 71.1745 -44.4206 -6.35
    endloop
  endfacet
  facet normal 0.939678 -0.34206 0
    outer loop
      vertex 71.2611 -44.1827 1.26998
      vertex 71.2611 -44.1827 6.35
      vertex 71.1745 -44.4206 6.35
    endloop
  endfacet
  facet normal 0.939678 -0.34206 0
    outer loop
      vertex 71.1745 -44.4206 1.26998
      vertex 71.2611 -44.1827 1.26998
      vertex 71.1745 -44.4206 6.35
    endloop
  endfacet
  facet normal 0 0 -1
    outer loop
      vertex -68.8973 -45.9732 -6.35
      vertex -69.643 -45.8417 -6.35
      vertex -70.5147 -45.3385 -6.35
    endloop
  endfacet
  facet normal 0 0 -1
    outer loop
      vertex -68.8973 -45.9732 -6.35
      vertex -70.5147 -45.3385 -6.35
      vertex -71.1225 -44.5361 -6.35
    endloop
  endfacet
  facet normal 0.124424 -0.992229 0
    outer loop
      vertex 69.275 -45.9354 6.35
      vertex 69.0238 -45.9669 6.35
      vertex 69.0238 -45.9669 -1.27
    endloop
  endfacet
  facet normal 0 0 1
    outer loop
      vertex 68.7707 -45.9732 6.35
      vertex 69.0238 -45.9669 6.35
      vertex 69.275 -45.9354 6.35
    endloop
  endfacet
  facet normal 0.222321 -0.974974 0
    outer loop
      vertex 69.5219 -45.8791 -1.27
      vertex 69.5219 -45.8791 6.35
      vertex 69.275 -45.9354 6.35
    endloop
  endfacet
  facet normal 0.318596 -0.947891 0
    outer loop
      vertex 69.762 -45.7984 6.35
      vertex 69.5219 -45.8791 6.35
      vertex 69.5219 -45.8791 -1.27
    endloop
  endfacet
  facet normal 0 0 1
    outer loop
      vertex 70.2121 -45.5677 6.35
      vertex 70.4177 -45.4199 6.35
      vertex 70.6075 -45.2523 6.35
    endloop
  endfacet
  facet normal 0.583701 -0.811969 0
    outer loop
      vertex 70.4177 -45.4199 -1.27
      vertex 70.4177 -45.4199 6.35
      vertex 70.2121 -45.5677 6.35
    endloop
  endfacet
  facet normal 0.499962 -0.866047 0
    outer loop
      vertex 70.2121 -45.5677 6.35
      vertex 69.9928 -45.6943 6.35
      vertex 69.9928 -45.6943 -1.27
    endloop
  endfacet
  facet normal 0 0 1
    outer loop
      vertex 69.762 -45.7984 6.35
      vertex 69.9928 -45.6943 6.35
      vertex 70.2121 -45.5677 6.35
    endloop
  endfacet
  facet normal -0.27086 -0.962619 0
    outer loop
      vertex -69.643 -45.8417 -6.35
      vertex -69.3992 -45.9103 -6.35
      vertex -69.3992 -45.9103 6.35
    endloop
  endfacet
  facet normal 0 0 1
    outer loop
      vertex -70.5147 -45.3385 6.35
      vertex -69.643 -45.8417 6.35
      vertex -68.8973 -45.9732 6.35
    endloop
  endfacet
  facet normal -0.826236 -0.563325 0
    outer loop
      vertex -70.8587 -44.9677 6.35
      vertex -71.0014 -44.7584 6.35
      vertex -71.0014 -44.7584 -1.27
    endloop
  endfacet
  facet normal -0.766047 -0.642784 -0
    outer loop
      vertex -70.8587 -44.9677 -1.27
      vertex -70.8587 -44.9677 -6.35
      vertex -70.696 -45.1616 1.26998
    endloop
  endfacet
  facet normal -0.98023 -0.197863 -0
    outer loop
      vertex -71.2955 -44.0608 6.35
      vertex -71.3456 -43.8126 1.26998
      vertex -71.2955 -44.0608 -6.35
    endloop
  endfacet
  facet normal 0 0 -1
    outer loop
      vertex -71.1225 -44.5361 -6.35
      vertex -71.2208 -44.3027 -6.35
      vertex -71.2955 -44.0608 -6.35
    endloop
  endfacet
  facet normal -0.95548 -0.295057 0
    outer loop
      vertex -71.2208 -44.3027 -6.35
      vertex -71.2955 -44.0608 6.35
      vertex -71.2955 -44.0608 -6.35
    endloop
  endfacet
  facet normal 0 0 1
    outer loop
      vertex -71.2955 -44.0608 6.35
      vertex -71.2208 -44.3027 6.35
      vertex -71.1225 -44.5361 6.35
    endloop
  endfacet
  facet normal -0.98023 -0.197863 0
    outer loop
      vertex -71.2955 -44.0608 6.35
      vertex -71.3456 -43.8126 6.35
      vertex -71.3456 -43.8126 1.26998
    endloop
  endfacet
  facet normal -1 0 0
    outer loop
      vertex -71.3708 -43.3074 -6.35
      vertex -71.3708 -43.5606 -6.35
      vertex -71.3708 -43.5606 6.35
    endloop
  endfacet
  facet normal 0 0 1
    outer loop
      vertex -69.643 45.8417 6.35
      vertex -69.8787 45.7492 6.35
      vertex -70.104 45.6337 6.35
    endloop
  endfacet
  facet normal 0 0 1
    outer loop
      vertex -71.1225 44.5361 6.35
      vertex -71.2955 44.0607 6.35
      vertex -71.3708 43.5606 6.35
    endloop
  endfacet
  facet normal 0 0 1
    outer loop
      vertex -71.1225 44.5361 6.35
      vertex -71.2208 44.3027 6.35
      vertex -71.2955 44.0607 6.35
    endloop
  endfacet
  facet normal -0.698166 0.715936 0
    outer loop
      vertex -70.5147 45.3384 -6.35
      vertex -70.696 45.1616 6.35
      vertex -70.5147 45.3384 6.35
    endloop
  endfacet
  facet normal 0 0 1
    outer loop
      vertex -68.8973 45.9732 6.35
      vertex -69.1498 45.9543 6.35
      vertex -69.3992 45.9103 6.35
    endloop
  endfacet
  facet normal -0.27086 0.962619 0
    outer loop
      vertex -69.3992 45.9103 6.35
      vertex -69.3992 45.9103 -6.35
      vertex -69.643 45.8417 -6.35
    endloop
  endfacet
  facet normal 0.969065 0.246807 0
    outer loop
      vertex 71.3236 43.9373 6.35
      vertex 71.3236 43.9373 -6.35
      vertex 71.2611 44.1827 -6.35
    endloop
  endfacet
  facet normal 0.988797 0.149267 0
    outer loop
      vertex 71.3614 43.6869 -6.35
      vertex 71.3236 43.9373 -6.35
      vertex 71.3236 43.9373 6.35
    endloop
  endfacet
  facet normal 0.853106 0.521738 0
    outer loop
      vertex 71.0647 44.6488 1.26998
      vertex 70.9326 44.8648 -6.35
      vertex 70.9326 44.8648 6.35
    endloop
  endfacet
  facet normal 0 0 1
    outer loop
      vertex 71.0647 44.6488 6.35
      vertex 70.9326 44.8648 6.35
      vertex 70.7797 45.0667 6.35
    endloop
  endfacet
  facet normal 0 0 -1
    outer loop
      vertex 69.762 45.7984 -6.35
      vertex 69.9928 45.6943 -6.35
      vertex 70.4177 45.4198 -6.35
    endloop
  endfacet
  facet normal 0.411153 0.911566 0
    outer loop
      vertex 69.9928 45.6943 6.35
      vertex 69.9928 45.6943 -6.35
      vertex 69.762 45.7984 -6.35
    endloop
  endfacet
  facet normal 0.0248836 0.99969 0
    outer loop
      vertex 69.0238 45.9669 1.26998
      vertex 69.0238 45.9669 -6.35
      vertex 68.7707 45.9732 -6.35
    endloop
  endfacet
  facet normal 0.124424 0.992229 0
    outer loop
      vertex 69.275 45.9354 6.35
      vertex 69.275 45.9354 -6.35
      vertex 69.0238 45.9669 1.26998
    endloop
  endfacet
  facet normal 0 0 1
    outer loop
      vertex 70.6075 -45.2523 6.35
      vertex 70.7797 -45.0667 6.35
      vertex 70.9326 -44.8648 6.35
    endloop
  endfacet
  facet normal 0.733075 -0.680148 0
    outer loop
      vertex 70.7797 -45.0667 -1.27
      vertex 70.7797 -45.0667 6.35
      vertex 70.6075 -45.2523 6.35
    endloop
  endfacet
  facet normal 0.853106 -0.521738 0
    outer loop
      vertex 71.0647 -44.6488 -1.27
      vertex 71.0647 -44.6488 6.35
      vertex 70.9326 -44.8648 6.35
    endloop
  endfacet
  facet normal 0.901116 -0.433578 0
    outer loop
      vertex 71.1745 -44.4206 6.35
      vertex 71.0647 -44.6488 6.35
      vertex 71.0647 -44.6488 -1.27
    endloop
  endfacet
  facet normal 0.988797 -0.149267 0
    outer loop
      vertex 71.3614 -43.6869 1.26998
      vertex 71.3614 -43.6869 6.35
      vertex 71.3236 -43.9373 6.35
    endloop
  endfacet
  facet normal 0.998761 -0.0497603 0
    outer loop
      vertex 71.374 -43.434 6.35
      vertex 71.3614 -43.6869 6.35
      vertex 71.3614 -43.6869 1.26998
    endloop
  endfacet
  facet normal 0.661687 0.74978 0
    outer loop
      vertex 70.4177 45.4198 6.35
      vertex 70.6075 45.2523 6.35
      vertex 70.6075 45.2523 -6.35
    endloop
  endfacet
  facet normal 0 0 1
    outer loop
      vertex 70.7797 45.0667 6.35
      vertex 70.6075 45.2523 6.35
      vertex 70.4177 45.4198 6.35
    endloop
  endfacet
  facet normal 0.901116 -0.433578 0
    outer loop
      vertex 71.0647 -44.6488 -1.27
      vertex 71.0647 -44.6488 -6.35
      vertex 71.1745 -44.4206 -6.35
    endloop
  endfacet
  facet normal 0.853106 -0.521738 0
    outer loop
      vertex 70.9326 -44.8648 -1.27
      vertex 71.0647 -44.6488 -6.35
      vertex 71.0647 -44.6488 -1.27
    endloop
  endfacet
  facet normal 0.988797 -0.149267 0
    outer loop
      vertex 71.3236 -43.9373 -6.35
      vertex 71.3614 -43.6869 -6.35
      vertex 71.3614 -43.6869 1.26998
    endloop
  endfacet
  facet normal 0 0 -1
    outer loop
      vertex 71.374 -43.434 -6.35
      vertex 71.3614 -43.6869 -6.35
      vertex 71.3236 -43.9373 -6.35
    endloop
  endfacet
  facet normal 0.969065 -0.246807 0
    outer loop
      vertex 71.2611 -44.1827 1.26998
      vertex 71.2611 -44.1827 -6.35
      vertex 71.3236 -43.9373 -6.35
    endloop
  endfacet
  facet normal 0.939678 -0.34206 0
    outer loop
      vertex 71.1745 -44.4206 -6.35
      vertex 71.2611 -44.1827 -6.35
      vertex 71.2611 -44.1827 1.26998
    endloop
  endfacet
  facet normal 0.969065 -0.246807 0
    outer loop
      vertex 71.3236 -43.9373 6.35
      vertex 71.2611 -44.1827 6.35
      vertex 71.2611 -44.1827 1.26998
    endloop
  endfacet
  facet normal 0 0 1
    outer loop
      vertex 71.1745 -44.4206 6.35
      vertex 71.2611 -44.1827 6.35
      vertex 71.3236 -43.9373 6.35
    endloop
  endfacet
  facet normal 0 0 -1
    outer loop
      vertex 70.6075 -45.2523 -6.35
      vertex 68.7707 -45.9732 -6.35
      vertex -68.8973 -45.9732 -6.35
    endloop
  endfacet
  facet normal 0.124424 -0.992229 0
    outer loop
      vertex 69.0238 -45.9669 -1.27
      vertex 69.0238 -45.9669 -6.35
      vertex 69.275 -45.9354 -1.27
    endloop
  endfacet
  facet normal -0.698368 -0.715739 -0
    outer loop
      vertex -70.696 -45.1616 1.26998
      vertex -70.696 -45.1616 -6.35
      vertex -70.5147 -45.3385 -6.35
    endloop
  endfacet
  facet normal 0 0 -1
    outer loop
      vertex -70.5147 -45.3385 -6.35
      vertex -70.8587 -44.9677 -6.35
      vertex -71.1225 -44.5361 -6.35
    endloop
  endfacet
  facet normal 0 0 -1
    outer loop
      vertex -68.8973 -45.9732 -6.35
      vertex -69.3992 -45.9103 -6.35
      vertex -69.643 -45.8417 -6.35
    endloop
  endfacet
  facet normal 0 0 1
    outer loop
      vertex -70.5147 -45.3385 6.35
      vertex -70.104 -45.6337 6.35
      vertex -69.643 -45.8417 6.35
    endloop
  endfacet
  facet normal 0 0 1
    outer loop
      vertex -69.643 -45.8417 6.35
      vertex -69.3992 -45.9103 6.35
      vertex -68.8973 -45.9732 6.35
    endloop
  endfacet
  facet normal -0.27086 -0.962619 -0
    outer loop
      vertex -69.643 -45.8417 6.35
      vertex -69.643 -45.8417 -6.35
      vertex -69.3992 -45.9103 6.35
    endloop
  endfacet
  facet normal -0.698368 -0.715739 -0
    outer loop
      vertex -70.5147 -45.3385 1.26998
      vertex -70.696 -45.1616 1.26998
      vertex -70.5147 -45.3385 -6.35
    endloop
  endfacet
  facet normal -0.698368 -0.715739 -0
    outer loop
      vertex -70.5147 -45.3385 6.35
      vertex -70.696 -45.1616 1.26998
      vertex -70.5147 -45.3385 1.26998
    endloop
  endfacet
  facet normal -0.826236 -0.563325 0
    outer loop
      vertex -70.8587 -44.9677 -1.27
      vertex -70.8587 -44.9677 6.35
      vertex -71.0014 -44.7584 -1.27
    endloop
  endfacet
  facet normal -0.878152 -0.478382 0
    outer loop
      vertex -71.1225 -44.5361 -6.35
      vertex -71.0014 -44.7584 -1.27
      vertex -71.1225 -44.5361 6.35
    endloop
  endfacet
  facet normal -0.995037 -0.0995037 0
    outer loop
      vertex -71.3708 -43.5606 -6.35
      vertex -71.3456 -43.8126 1.26998
      vertex -71.3708 -43.5606 6.35
    endloop
  endfacet
  facet normal -0.995037 -0.0995037 0
    outer loop
      vertex -71.3708 -43.5606 -6.35
      vertex -71.3456 -43.8126 -6.35
      vertex -71.3456 -43.8126 1.26998
    endloop
  endfacet
  facet normal -0.95548 -0.295057 0
    outer loop
      vertex -71.2208 -44.3027 -6.35
      vertex -71.2208 -44.3027 6.35
      vertex -71.2955 -44.0608 6.35
    endloop
  endfacet
  facet normal -0.921598 -0.388145 0
    outer loop
      vertex -71.1225 -44.5361 6.35
      vertex -71.2208 -44.3027 6.35
      vertex -71.2208 -44.3027 -6.35
    endloop
  endfacet
  facet normal 0 0 1
    outer loop
      vertex -70.8587 44.9677 6.35
      vertex -71.0014 44.7584 6.35
      vertex -71.1225 44.5361 6.35
    endloop
  endfacet
  facet normal 0 0 1
    outer loop
      vertex -71.2955 44.0607 6.35
      vertex -71.3456 43.8125 6.35
      vertex -71.3708 43.5606 6.35
    endloop
  endfacet
  facet normal -0.27086 0.962619 0
    outer loop
      vertex -69.3992 45.9103 6.35
      vertex -69.643 45.8417 -6.35
      vertex -69.643 45.8417 6.35
    endloop
  endfacet
  facet normal 0 0 1
    outer loop
      vertex -70.104 45.6337 6.35
      vertex -70.3167 45.4963 6.35
      vertex -70.5147 45.3384 6.35
    endloop
  endfacet
  facet normal 0 0 -1
    outer loop
      vertex -70.5147 45.3384 -6.35
      vertex -69.643 45.8417 -6.35
      vertex -68.8973 45.9732 -6.35
    endloop
  endfacet
  facet normal -0.456196 0.889879 0
    outer loop
      vertex -69.8787 45.7492 6.35
      vertex -70.104 45.6337 -6.35
      vertex -70.104 45.6337 6.35
    endloop
  endfacet
  facet normal 0 0 -1
    outer loop
      vertex -71.3708 43.5606 -6.35
      vertex -71.1225 44.5361 -6.35
      vertex -70.5147 45.3384 -6.35
    endloop
  endfacet
  facet normal -0.921598 0.388145 0
    outer loop
      vertex -71.1225 44.5361 -6.35
      vertex -71.2208 44.3027 -6.35
      vertex -71.1225 44.5361 6.35
    endloop
  endfacet
  facet normal -0.878152 0.478382 0
    outer loop
      vertex -71.1225 44.5361 6.35
      vertex -71.0014 44.7584 6.35
      vertex -71.1225 44.5361 -6.35
    endloop
  endfacet
  facet normal 0 0 1
    outer loop
      vertex -70.5147 45.3384 6.35
      vertex -70.8587 44.9677 6.35
      vertex -71.1225 44.5361 6.35
    endloop
  endfacet
  facet normal -0.0746427 0.99721 0
    outer loop
      vertex -68.8973 45.9732 -6.35
      vertex -69.1498 45.9543 6.35
      vertex -68.8973 45.9732 6.35
    endloop
  endfacet
  facet normal -0.17374 0.984792 0
    outer loop
      vertex -69.1498 45.9543 6.35
      vertex -69.3992 45.9103 -6.35
      vertex -69.3992 45.9103 6.35
    endloop
  endfacet
  facet normal 0 0 -1
    outer loop
      vertex 70.6075 45.2523 -6.35
      vertex 70.9326 44.8648 -6.35
      vertex 71.1745 44.4206 -6.35
    endloop
  endfacet
  facet normal 0.797196 0.603721 0
    outer loop
      vertex 70.9326 44.8648 -6.35
      vertex 70.7797 45.0667 -6.35
      vertex 70.7797 45.0667 6.35
    endloop
  endfacet
  facet normal 0.500258 0.865876 0
    outer loop
      vertex 70.2121 45.5676 6.35
      vertex 70.2121 45.5676 -6.35
      vertex 69.9928 45.6943 -6.35
    endloop
  endfacet
  facet normal 0.583701 0.811969 0
    outer loop
      vertex 70.4177 45.4198 -6.35
      vertex 70.2121 45.5676 -6.35
      vertex 70.2121 45.5676 6.35
    endloop
  endfacet
  facet normal 0 0 -1
    outer loop
      vertex 69.275 45.9354 -6.35
      vertex 69.5219 45.879 -6.35
      vertex 69.762 45.7984 -6.35
    endloop
  endfacet
  facet normal 0.222696 0.974888 0
    outer loop
      vertex 69.5219 45.879 6.35
      vertex 69.5219 45.879 -6.35
      vertex 69.275 45.9354 -6.35
    endloop
  endfacet
  facet normal 0.124424 0.992229 0
    outer loop
      vertex 69.275 45.9354 -6.35
      vertex 69.0238 45.9669 -6.35
      vertex 69.0238 45.9669 1.26998
    endloop
  endfacet
  facet normal 0 0 -1
    outer loop
      vertex 68.7707 45.9732 -6.35
      vertex 69.0238 45.9669 -6.35
      vertex 69.275 45.9354 -6.35
    endloop
  endfacet
  facet normal 0 0 -1
    outer loop
      vertex 71.0647 -44.6488 -6.35
      vertex 70.9326 -44.8648 -6.35
      vertex 70.7797 -45.0667 -6.35
    endloop
  endfacet
  facet normal 0.853106 -0.521738 0
    outer loop
      vertex 70.9326 -44.8648 -1.27
      vertex 70.9326 -44.8648 -6.35
      vertex 71.0647 -44.6488 -6.35
    endloop
  endfacet
  facet normal 0.318596 -0.947891 0
    outer loop
      vertex 69.5219 -45.8791 -6.35
      vertex 69.762 -45.7984 -6.35
      vertex 69.762 -45.7984 -1.27
    endloop
  endfacet
  facet normal 0 0 -1
    outer loop
      vertex 70.6075 -45.2523 -6.35
      vertex 69.9928 -45.6943 -6.35
      vertex 69.5219 -45.8791 -6.35
    endloop
  endfacet
  facet normal -0.365322 -0.930881 -0
    outer loop
      vertex -69.8787 -45.7492 6.35
      vertex -69.8787 -45.7492 -6.35
      vertex -69.643 -45.8417 -6.35
    endloop
  endfacet
  facet normal 0 0 -1
    outer loop
      vertex -69.643 -45.8417 -6.35
      vertex -70.104 -45.6337 -6.35
      vertex -70.5147 -45.3385 -6.35
    endloop
  endfacet
  facet normal -0.826236 -0.563325 0
    outer loop
      vertex -71.0014 -44.7584 -1.27
      vertex -70.8587 -44.9677 -6.35
      vertex -70.8587 -44.9677 -1.27
    endloop
  endfacet
  facet normal 0 0 -1
    outer loop
      vertex -70.8587 -44.9677 -6.35
      vertex -71.0014 -44.7584 -6.35
      vertex -71.1225 -44.5361 -6.35
    endloop
  endfacet
  facet normal -0.456196 -0.889879 -0
    outer loop
      vertex -70.104 -45.6337 6.35
      vertex -70.104 -45.6337 -6.35
      vertex -69.8787 -45.7492 6.35
    endloop
  endfacet
  facet normal 0 0 1
    outer loop
      vertex -70.5147 -45.3385 6.35
      vertex -70.3167 -45.4963 6.35
      vertex -70.104 -45.6337 6.35
    endloop
  endfacet
  facet normal -0.0746427 -0.99721 -0
    outer loop
      vertex -68.8973 -45.9732 6.35
      vertex -69.1498 -45.9543 1.26998
      vertex -68.8973 -45.9732 -6.35
    endloop
  endfacet
  facet normal -0.17374 -0.984792 0
    outer loop
      vertex -69.1498 -45.9543 1.26998
      vertex -69.1498 -45.9543 6.35
      vertex -69.3992 -45.9103 6.35
    endloop
  endfacet
  facet normal -0.766047 -0.642784 0
    outer loop
      vertex -70.696 -45.1616 1.26998
      vertex -70.8587 -44.9677 6.35
      vertex -70.8587 -44.9677 -1.27
    endloop
  endfacet
  facet normal 0 0 1
    outer loop
      vertex -70.8587 -44.9677 6.35
      vertex -70.696 -45.1616 6.35
      vertex -70.5147 -45.3385 6.35
    endloop
  endfacet
  facet normal 0 0 1
    outer loop
      vertex -71.3708 -43.5606 6.35
      vertex -71.3456 -43.8126 6.35
      vertex -71.2955 -44.0608 6.35
    endloop
  endfacet
  facet normal -0.995037 -0.0995037 0
    outer loop
      vertex -71.3456 -43.8126 1.26998
      vertex -71.3456 -43.8126 6.35
      vertex -71.3708 -43.5606 6.35
    endloop
  endfacet
  facet normal 0 0 -1
    outer loop
      vertex -71.2955 -44.0608 -6.35
      vertex -71.3456 -43.8126 -6.35
      vertex -71.3708 -43.5606 -6.35
    endloop
  endfacet
  facet normal -0.98023 -0.197863 -0
    outer loop
      vertex -71.3456 -43.8126 1.26998
      vertex -71.3456 -43.8126 -6.35
      vertex -71.2955 -44.0608 -6.35
    endloop
  endfacet
  facet normal 0 0 -1
    outer loop
      vertex -71.3708 43.5606 -6.35
      vertex -71.2955 44.0607 -6.35
      vertex -71.2208 44.3027 -6.35
    endloop
  endfacet
  facet normal -0.995033 0.0995428 0
    outer loop
      vertex -71.3708 43.5606 6.35
      vertex -71.3456 43.8125 6.35
      vertex -71.3708 43.5606 -6.35
    endloop
  endfacet
  facet normal 0 0 -1
    outer loop
      vertex -70.5147 45.3384 -6.35
      vertex -70.104 45.6337 -6.35
      vertex -69.643 45.8417 -6.35
    endloop
  endfacet
  facet normal -0.62349 0.781831 0
    outer loop
      vertex -70.5147 45.3384 6.35
      vertex -70.3167 45.4963 6.35
      vertex -70.5147 45.3384 -6.35
    endloop
  endfacet
  facet normal -0.365322 0.930881 0
    outer loop
      vertex -69.643 45.8417 -6.35
      vertex -69.8787 45.7492 6.35
      vertex -69.643 45.8417 6.35
    endloop
  endfacet
  facet normal 0 0 -1
    outer loop
      vertex -70.104 45.6337 -6.35
      vertex -69.8787 45.7492 -6.35
      vertex -69.643 45.8417 -6.35
    endloop
  endfacet
  facet normal -0.0746427 0.99721 0
    outer loop
      vertex -68.8973 45.9732 -6.35
      vertex -69.1498 45.9543 -6.35
      vertex -69.1498 45.9543 6.35
    endloop
  endfacet
  facet normal 0 0 -1
    outer loop
      vertex -69.643 45.8417 -6.35
      vertex -69.3992 45.9103 -6.35
      vertex -68.8973 45.9732 -6.35
    endloop
  endfacet
  facet normal -0.542613 0.839983 0
    outer loop
      vertex -70.104 45.6337 -6.35
      vertex -70.3167 45.4963 -6.35
      vertex -70.3167 45.4963 6.35
    endloop
  endfacet
  facet normal -0.542613 0.839983 0
    outer loop
      vertex -70.104 45.6337 6.35
      vertex -70.104 45.6337 -6.35
      vertex -70.3167 45.4963 6.35
    endloop
  endfacet
  facet normal 0 0 -1
    outer loop
      vertex -71.3708 43.5606 -6.35
      vertex -71.2208 44.3027 -6.35
      vertex -71.1225 44.5361 -6.35
    endloop
  endfacet
  facet normal -0.955514 0.294946 0
    outer loop
      vertex -71.2208 44.3027 -6.35
      vertex -71.2955 44.0607 -6.35
      vertex -71.2955 44.0607 6.35
    endloop
  endfacet
  facet normal -0.766047 0.642784 0
    outer loop
      vertex -70.696 45.1616 6.35
      vertex -70.8587 44.9677 -6.35
      vertex -70.8587 44.9677 6.35
    endloop
  endfacet
  facet normal 0 0 1
    outer loop
      vertex -70.5147 45.3384 6.35
      vertex -70.696 45.1616 6.35
      vertex -70.8587 44.9677 6.35
    endloop
  endfacet
  facet normal -0.698166 0.715936 0
    outer loop
      vertex -70.5147 45.3384 -6.35
      vertex -70.696 45.1616 -6.35
      vertex -70.696 45.1616 6.35
    endloop
  endfacet
  facet normal 0 0 -1
    outer loop
      vertex -71.1225 44.5361 -6.35
      vertex -70.8587 44.9677 -6.35
      vertex -70.5147 45.3384 -6.35
    endloop
  endfacet
  facet normal -0.826236 0.563325 0
    outer loop
      vertex -70.8587 44.9677 -6.35
      vertex -71.0014 44.7584 6.35
      vertex -70.8587 44.9677 6.35
    endloop
  endfacet
  facet normal -0.878152 0.478382 0
    outer loop
      vertex -71.0014 44.7584 6.35
      vertex -71.0014 44.7584 -6.35
      vertex -71.1225 44.5361 -6.35
    endloop
  endfacet
  facet normal 0.853106 0.521738 0
    outer loop
      vertex 71.0647 44.6488 1.26998
      vertex 71.0647 44.6488 -6.35
      vertex 70.9326 44.8648 -6.35
    endloop
  endfacet
  facet normal 0.901116 0.433578 0
    outer loop
      vertex 71.1745 44.4206 -6.35
      vertex 71.0647 44.6488 -6.35
      vertex 71.0647 44.6488 1.26998
    endloop
  endfacet
  facet normal 0 0 -1
    outer loop
      vertex 70.6075 45.2523 -6.35
      vertex 70.7797 45.0667 -6.35
      vertex 70.9326 44.8648 -6.35
    endloop
  endfacet
  facet normal 0.733075 0.680148 0
    outer loop
      vertex 70.7797 45.0667 6.35
      vertex 70.7797 45.0667 -6.35
      vertex 70.6075 45.2523 -6.35
    endloop
  endfacet
  facet normal 0 0 -1
    outer loop
      vertex 69.5219 -45.8791 -6.35
      vertex 69.0238 -45.9669 -6.35
      vertex 68.7707 -45.9732 -6.35
    endloop
  endfacet
  facet normal 0.124424 -0.992229 0
    outer loop
      vertex 69.0238 -45.9669 -6.35
      vertex 69.275 -45.9354 -6.35
      vertex 69.275 -45.9354 -1.27
    endloop
  endfacet
  facet normal 0.499962 -0.866047 0
    outer loop
      vertex 69.9928 -45.6943 -1.27
      vertex 69.9928 -45.6943 -6.35
      vertex 70.2121 -45.5677 -1.27
    endloop
  endfacet
  facet normal 0.411153 -0.911566 0
    outer loop
      vertex 69.762 -45.7984 -1.27
      vertex 69.9928 -45.6943 -6.35
      vertex 69.9928 -45.6943 -1.27
    endloop
  endfacet
  facet normal -0.365322 -0.930881 -0
    outer loop
      vertex -69.643 -45.8417 6.35
      vertex -69.8787 -45.7492 6.35
      vertex -69.643 -45.8417 -6.35
    endloop
  endfacet
  facet normal 0 0 1
    outer loop
      vertex -70.104 -45.6337 6.35
      vertex -69.8787 -45.7492 6.35
      vertex -69.643 -45.8417 6.35
    endloop
  endfacet
  facet normal -0.542613 -0.839983 0
    outer loop
      vertex -70.3167 -45.4963 6.35
      vertex -70.104 -45.6337 -6.35
      vertex -70.104 -45.6337 6.35
    endloop
  endfacet
  facet normal 0 0 -1
    outer loop
      vertex -70.104 -45.6337 -6.35
      vertex -70.3167 -45.4963 -6.35
      vertex -70.5147 -45.3385 -6.35
    endloop
  endfacet
  facet normal -0.766047 -0.642784 0
    outer loop
      vertex -70.8587 -44.9677 -6.35
      vertex -70.696 -45.1616 -6.35
      vertex -70.696 -45.1616 1.26998
    endloop
  endfacet
  facet normal 0 0 -1
    outer loop
      vertex -70.5147 -45.3385 -6.35
      vertex -70.696 -45.1616 -6.35
      vertex -70.8587 -44.9677 -6.35
    endloop
  endfacet
  facet normal -0.826236 -0.563325 -0
    outer loop
      vertex -71.0014 -44.7584 -1.27
      vertex -71.0014 -44.7584 -6.35
      vertex -70.8587 -44.9677 -6.35
    endloop
  endfacet
  facet normal -0.878152 -0.478382 0
    outer loop
      vertex -71.1225 -44.5361 -6.35
      vertex -71.0014 -44.7584 -6.35
      vertex -71.0014 -44.7584 -1.27
    endloop
  endfacet
  facet normal -0.17374 -0.984792 0
    outer loop
      vertex -69.3992 -45.9103 -6.35
      vertex -69.1498 -45.9543 -6.35
      vertex -69.1498 -45.9543 1.26998
    endloop
  endfacet
  facet normal -0.17374 -0.984792 -0
    outer loop
      vertex -69.3992 -45.9103 6.35
      vertex -69.3992 -45.9103 -6.35
      vertex -69.1498 -45.9543 1.26998
    endloop
  endfacet
  facet normal -0.0746427 -0.99721 0
    outer loop
      vertex -68.8973 -45.9732 6.35
      vertex -69.1498 -45.9543 6.35
      vertex -69.1498 -45.9543 1.26998
    endloop
  endfacet
  facet normal 0 0 1
    outer loop
      vertex -69.3992 -45.9103 6.35
      vertex -69.1498 -45.9543 6.35
      vertex -68.8973 -45.9732 6.35
    endloop
  endfacet
  facet normal 0 0 1
    outer loop
      vertex -71.1225 -44.5361 6.35
      vertex -71.0014 -44.7584 6.35
      vertex -70.8587 -44.9677 6.35
    endloop
  endfacet
  facet normal -0.878152 -0.478382 0
    outer loop
      vertex -71.0014 -44.7584 -1.27
      vertex -71.0014 -44.7584 6.35
      vertex -71.1225 -44.5361 6.35
    endloop
  endfacet
  facet normal -0.766047 -0.642784 0
    outer loop
      vertex -70.696 -45.1616 1.26998
      vertex -70.696 -45.1616 6.35
      vertex -70.8587 -44.9677 6.35
    endloop
  endfacet
  facet normal -0.698368 -0.715739 0
    outer loop
      vertex -70.5147 -45.3385 6.35
      vertex -70.696 -45.1616 6.35
      vertex -70.696 -45.1616 1.26998
    endloop
  endfacet
  facet normal 0 0 -1
    outer loop
      vertex -69.3992 45.9103 -6.35
      vertex -69.1498 45.9543 -6.35
      vertex -68.8973 45.9732 -6.35
    endloop
  endfacet
  facet normal -0.17374 0.984792 0
    outer loop
      vertex -69.1498 45.9543 6.35
      vertex -69.1498 45.9543 -6.35
      vertex -69.3992 45.9103 -6.35
    endloop
  endfacet
  facet normal -0.456196 0.889879 0
    outer loop
      vertex -69.8787 45.7492 6.35
      vertex -69.8787 45.7492 -6.35
      vertex -70.104 45.6337 -6.35
    endloop
  endfacet
  facet normal -0.365322 0.930881 0
    outer loop
      vertex -69.643 45.8417 -6.35
      vertex -69.8787 45.7492 -6.35
      vertex -69.8787 45.7492 6.35
    endloop
  endfacet
  facet normal 0 0 -1
    outer loop
      vertex -70.5147 45.3384 -6.35
      vertex -70.3167 45.4963 -6.35
      vertex -70.104 45.6337 -6.35
    endloop
  endfacet
  facet normal -0.62349 0.781831 0
    outer loop
      vertex -70.3167 45.4963 6.35
      vertex -70.3167 45.4963 -6.35
      vertex -70.5147 45.3384 -6.35
    endloop
  endfacet
  facet normal -0.921598 0.388145 0
    outer loop
      vertex -71.2208 44.3027 -6.35
      vertex -71.2208 44.3027 6.35
      vertex -71.1225 44.5361 6.35
    endloop
  endfacet
  facet normal -0.955514 0.294946 0
    outer loop
      vertex -71.2955 44.0607 6.35
      vertex -71.2208 44.3027 6.35
      vertex -71.2208 44.3027 -6.35
    endloop
  endfacet
  facet normal -0.98023 0.197863 0
    outer loop
      vertex -71.2955 44.0607 -6.35
      vertex -71.3456 43.8125 -6.35
      vertex -71.3456 43.8125 6.35
    endloop
  endfacet
  facet normal -0.98023 0.197863 0
    outer loop
      vertex -71.2955 44.0607 6.35
      vertex -71.2955 44.0607 -6.35
      vertex -71.3456 43.8125 6.35
    endloop
  endfacet
  facet normal 0 0 -1
    outer loop
      vertex -70.8587 44.9677 -6.35
      vertex -70.696 45.1616 -6.35
      vertex -70.5147 45.3384 -6.35
    endloop
  endfacet
  facet normal -0.766047 0.642784 0
    outer loop
      vertex -70.696 45.1616 6.35
      vertex -70.696 45.1616 -6.35
      vertex -70.8587 44.9677 -6.35
    endloop
  endfacet
  facet normal -0.826236 0.563325 0
    outer loop
      vertex -70.8587 44.9677 -6.35
      vertex -71.0014 44.7584 -6.35
      vertex -71.0014 44.7584 6.35
    endloop
  endfacet
  facet normal 0 0 -1
    outer loop
      vertex -71.1225 44.5361 -6.35
      vertex -71.0014 44.7584 -6.35
      vertex -70.8587 44.9677 -6.35
    endloop
  endfacet
  facet normal 0 0 -1
    outer loop
      vertex 69.5219 -45.8791 -6.35
      vertex 69.275 -45.9354 -6.35
      vertex 69.0238 -45.9669 -6.35
    endloop
  endfacet
  facet normal 0.222321 -0.974974 0
    outer loop
      vertex 69.275 -45.9354 -1.27
      vertex 69.275 -45.9354 -6.35
      vertex 69.5219 -45.8791 -6.35
    endloop
  endfacet
  facet normal 0 0 -1
    outer loop
      vertex 69.9928 -45.6943 -6.35
      vertex 69.762 -45.7984 -6.35
      vertex 69.5219 -45.8791 -6.35
    endloop
  endfacet
  facet normal 0.411153 -0.911566 0
    outer loop
      vertex 69.762 -45.7984 -1.27
      vertex 69.762 -45.7984 -6.35
      vertex 69.9928 -45.6943 -6.35
    endloop
  endfacet
  facet normal 0.661909 -0.749584 0
    outer loop
      vertex 70.4177 -45.4199 -1.27
      vertex 70.4177 -45.4199 -6.35
      vertex 70.6075 -45.2523 -6.35
    endloop
  endfacet
  facet normal 0.583701 -0.811969 0
    outer loop
      vertex 70.2121 -45.5677 -1.27
      vertex 70.4177 -45.4199 -6.35
      vertex 70.4177 -45.4199 -1.27
    endloop
  endfacet
  facet normal -0.456196 -0.889879 0
    outer loop
      vertex -70.104 -45.6337 -6.35
      vertex -69.8787 -45.7492 -6.35
      vertex -69.8787 -45.7492 6.35
    endloop
  endfacet
  facet normal 0 0 -1
    outer loop
      vertex -69.643 -45.8417 -6.35
      vertex -69.8787 -45.7492 -6.35
      vertex -70.104 -45.6337 -6.35
    endloop
  endfacet
  facet normal -0.542613 -0.839983 -0
    outer loop
      vertex -70.3167 -45.4963 6.35
      vertex -70.3167 -45.4963 -6.35
      vertex -70.104 -45.6337 -6.35
    endloop
  endfacet
  facet normal -0.623249 -0.782023 0
    outer loop
      vertex -70.5147 -45.3385 -6.35
      vertex -70.3167 -45.4963 -6.35
      vertex -70.3167 -45.4963 6.35
    endloop
  endfacet
  facet normal 0 0 -1
    outer loop
      vertex -68.8973 -45.9732 -6.35
      vertex -69.1498 -45.9543 -6.35
      vertex -69.3992 -45.9103 -6.35
    endloop
  endfacet
  facet normal -0.0746427 -0.99721 -0
    outer loop
      vertex -69.1498 -45.9543 1.26998
      vertex -69.1498 -45.9543 -6.35
      vertex -68.8973 -45.9732 -6.35
    endloop
  endfacet
  facet normal 0 0 -1
    outer loop
      vertex -71.3708 43.5606 -6.35
      vertex -71.3456 43.8125 -6.35
      vertex -71.2955 44.0607 -6.35
    endloop
  endfacet
  facet normal -0.995033 0.0995428 0
    outer loop
      vertex -71.3456 43.8125 6.35
      vertex -71.3456 43.8125 -6.35
      vertex -71.3708 43.5606 -6.35
    endloop
  endfacet
  facet normal 0 0 -1
    outer loop
      vertex 70.4177 -45.4199 -6.35
      vertex 70.2121 -45.5677 -6.35
      vertex 69.9928 -45.6943 -6.35
    endloop
  endfacet
  facet normal 0.583701 -0.811969 0
    outer loop
      vertex 70.2121 -45.5677 -1.27
      vertex 70.2121 -45.5677 -6.35
      vertex 70.4177 -45.4199 -6.35
    endloop
  endfacet
endsolid OpenSCAD_Model
