solid OpenSCAD_Model
  facet normal 0 0 -1
    outer loop
      vertex 62.4207 65.0232 -6.35
      vertex 63.412 64.8484 -6.35
      vertex 64.2575 64.3023 -6.35
    endloop
  endfacet
  facet normal 0 0 1
    outer loop
      vertex -64.346 64.2116 6.35
      vertex 62.4207 -65.0232 6.35
      vertex 64.7147 63.6988 6.35
    endloop
  endfacet
  facet normal 0.797196 0.603721 0
    outer loop
      vertex 64.4297 64.1167 6.35
      vertex 64.5826 63.9148 6.35
      vertex 64.4297 64.1167 1.26998
    endloop
  endfacet
  facet normal 0.318241 0.94801 -0
    outer loop
      vertex 63.1719 64.929 1.26998
      vertex 63.1719 64.929 6.35
      vertex 63.412 64.8484 1.26998
    endloop
  endfacet
  facet normal 0 0 1
    outer loop
      vertex 63.1719 64.929 6.35
      vertex -64.346 64.2116 6.35
      vertex 64.7147 63.6988 6.35
    endloop
  endfacet
  facet normal 0 0 1
    outer loop
      vertex 63.1719 64.929 6.35
      vertex 62.4207 65.0232 6.35
      vertex -62.5473 65.0232 6.35
    endloop
  endfacet
  facet normal 0 0 -1
    outer loop
      vertex -63.293 -64.8917 -6.35
      vertex -62.5473 65.0232 -6.35
      vertex 64.2575 -64.3023 -6.35
    endloop
  endfacet
  facet normal 0 0 1
    outer loop
      vertex 62.4207 -65.0232 6.35
      vertex 64.4297 -64.1167 6.35
      vertex 65.024 -62.484 6.35
    endloop
  endfacet
  facet normal 0.318241 0.94801 0
    outer loop
      vertex 63.1719 64.929 6.35
      vertex 63.412 64.8484 6.35
      vertex 63.412 64.8484 1.26998
    endloop
  endfacet
  facet normal 0 0 1
    outer loop
      vertex 64.7147 63.6988 6.35
      vertex 64.0677 64.4698 6.35
      vertex 63.1719 64.929 6.35
    endloop
  endfacet
  facet normal 0 0 -1
    outer loop
      vertex -63.293 -64.8917 -6.35
      vertex -65.0209 -62.6106 -6.35
      vertex -65.0209 62.6106 -6.35
    endloop
  endfacet
  facet normal -0 -1 -0
    outer loop
      vertex 62.4207 -65.0232 6.35
      vertex -62.5473 -65.0232 6.35
      vertex 62.4207 -65.0232 -6.35
    endloop
  endfacet
  facet normal 0 0 -1
    outer loop
      vertex 64.2575 -64.3023 -6.35
      vertex 62.4207 -65.0232 -6.35
      vertex -63.293 -64.8917 -6.35
    endloop
  endfacet
  facet normal 0 0 1
    outer loop
      vertex 62.4207 -65.0232 6.35
      vertex 65.024 -62.484 6.35
      vertex 64.7147 63.6988 6.35
    endloop
  endfacet
  facet normal 0 0 -1
    outer loop
      vertex -62.5473 65.0232 -6.35
      vertex 62.4207 65.0232 -6.35
      vertex 64.2575 64.3023 -6.35
    endloop
  endfacet
  facet normal 0 0 -1
    outer loop
      vertex 65.024 62.484 -6.35
      vertex 64.8245 -63.4706 -6.35
      vertex 64.2575 -64.3023 -6.35
    endloop
  endfacet
  facet normal 0 0 -1
    outer loop
      vertex -62.5473 65.0232 -6.35
      vertex 64.2575 64.3023 -6.35
      vertex 64.2575 -64.3023 -6.35
    endloop
  endfacet
  facet normal 0 1 0
    outer loop
      vertex -62.5473 65.0232 6.35
      vertex 62.4207 65.0232 1.26998
      vertex -62.5473 65.0232 -6.35
    endloop
  endfacet
  facet normal 0 0 1
    outer loop
      vertex 63.1719 64.929 6.35
      vertex 62.925 64.9854 6.35
      vertex 62.4207 65.0232 6.35
    endloop
  endfacet
  facet normal 0 0 1
    outer loop
      vertex 64.7147 63.6988 6.35
      vertex 64.4297 64.1167 6.35
      vertex 64.0677 64.4698 6.35
    endloop
  endfacet
  facet normal 0 0 1
    outer loop
      vertex 64.0677 64.4698 6.35
      vertex 63.6428 64.7443 6.35
      vertex 63.1719 64.929 6.35
    endloop
  endfacet
  facet normal 0.411153 0.911566 0
    outer loop
      vertex 63.6428 64.7443 1.26998
      vertex 63.412 64.8484 -6.35
      vertex 63.412 64.8484 1.26998
    endloop
  endfacet
  facet normal 0 0 1
    outer loop
      vertex -64.346 64.2116 6.35
      vertex -64.346 -64.2116 6.35
      vertex 62.4207 -65.0232 6.35
    endloop
  endfacet
  facet normal -1 0 0
    outer loop
      vertex -65.0209 -62.6106 -6.35
      vertex -65.0209 62.3574 6.35
      vertex -65.0209 62.6106 -6.35
    endloop
  endfacet
  facet normal 0 0 -1
    outer loop
      vertex 64.2575 -64.3023 -6.35
      vertex 63.412 -64.8484 -6.35
      vertex 62.4207 -65.0232 -6.35
    endloop
  endfacet
  facet normal 0 0 1
    outer loop
      vertex -64.346 -64.2116 6.35
      vertex -62.5473 -65.0232 6.35
      vertex 62.4207 -65.0232 6.35
    endloop
  endfacet
  facet normal 0 0 -1
    outer loop
      vertex 64.2575 -64.3023 -6.35
      vertex 63.8621 -64.6177 -6.35
      vertex 63.412 -64.8484 -6.35
    endloop
  endfacet
  facet normal 1 0 -0
    outer loop
      vertex 65.024 62.484 1.26998
      vertex 65.024 62.484 6.35
      vertex 65.024 -62.484 6.35
    endloop
  endfacet
  facet normal 0.661687 0.74978 0
    outer loop
      vertex 64.0677 64.4698 6.35
      vertex 64.2575 64.3023 6.35
      vertex 64.2575 64.3023 -6.35
    endloop
  endfacet
  facet normal 0.733075 0.680148 0
    outer loop
      vertex 64.4297 64.1167 6.35
      vertex 64.4297 64.1167 1.26998
      vertex 64.2575 64.3023 -6.35
    endloop
  endfacet
  facet normal 0 0 1
    outer loop
      vertex -64.346 64.2116 6.35
      vertex -64.8708 63.3527 6.35
      vertex -65.0209 62.3574 6.35
    endloop
  endfacet
  facet normal 0 0 -1
    outer loop
      vertex -63.293 -64.8917 -6.35
      vertex -65.0209 62.6106 -6.35
      vertex -62.5473 65.0232 -6.35
    endloop
  endfacet
  facet normal -0.0746427 0.99721 0
    outer loop
      vertex -62.5473 65.0232 -6.35
      vertex -62.7998 65.0043 -1.27
      vertex -62.5473 65.0232 6.35
    endloop
  endfacet
  facet normal 0 0 1
    outer loop
      vertex 63.1719 64.929 6.35
      vertex -62.5473 65.0232 6.35
      vertex -64.346 64.2116 6.35
    endloop
  endfacet
  facet normal 0.0248836 0.99969 0
    outer loop
      vertex 62.4207 65.0232 6.35
      vertex 62.6738 65.0169 1.26998
      vertex 62.4207 65.0232 1.26998
    endloop
  endfacet
  facet normal 0 1 0
    outer loop
      vertex 62.4207 65.0232 1.26998
      vertex 62.4207 65.0232 -6.35
      vertex -62.5473 65.0232 -6.35
    endloop
  endfacet
  facet normal 0 0 1
    outer loop
      vertex 63.6428 64.7443 6.35
      vertex 63.412 64.8484 6.35
      vertex 63.1719 64.929 6.35
    endloop
  endfacet
  facet normal 0.411153 0.911566 -0
    outer loop
      vertex 63.412 64.8484 1.26998
      vertex 63.412 64.8484 6.35
      vertex 63.6428 64.7443 6.35
    endloop
  endfacet
  facet normal 0 0 1
    outer loop
      vertex -64.346 -64.2116 6.35
      vertex -63.5287 -64.7992 6.35
      vertex -62.5473 -65.0232 6.35
    endloop
  endfacet
  facet normal 0 -1 0
    outer loop
      vertex -62.5473 -65.0232 6.35
      vertex -62.5473 -65.0232 -6.35
      vertex 62.4207 -65.0232 -6.35
    endloop
  endfacet
  facet normal 0.411153 -0.911566 0
    outer loop
      vertex 63.412 -64.8484 -6.35
      vertex 63.6428 -64.7443 6.35
      vertex 63.412 -64.8484 1.26998
    endloop
  endfacet
  facet normal 0 0 -1
    outer loop
      vertex 63.412 -64.8484 -6.35
      vertex 62.925 -64.9854 -6.35
      vertex 62.4207 -65.0232 -6.35
    endloop
  endfacet
  facet normal 0.998761 0.0497603 -0
    outer loop
      vertex 65.024 62.484 1.26998
      vertex 65.0114 62.7369 -1.27
      vertex 65.024 62.484 6.35
    endloop
  endfacet
  facet normal 1 0 0
    outer loop
      vertex 65.024 -62.484 6.35
      vertex 65.024 -62.484 -1.27
      vertex 65.024 62.484 1.26998
    endloop
  endfacet
  facet normal 0.969065 0.246807 0
    outer loop
      vertex 64.9736 62.9873 6.35
      vertex 64.9736 62.9873 -6.35
      vertex 64.9111 63.2327 -6.35
    endloop
  endfacet
  facet normal 0 -0 1
    outer loop
      vertex 65.024 -62.484 6.35
      vertex 65.024 62.484 6.35
      vertex 64.7147 63.6988 6.35
    endloop
  endfacet
  facet normal 0 -0 -1
    outer loop
      vertex 64.9111 63.2327 -6.35
      vertex 65.024 62.484 -6.35
      vertex 64.2575 -64.3023 -6.35
    endloop
  endfacet
  facet normal 0 0 -1
    outer loop
      vertex 64.2575 64.3023 -6.35
      vertex 64.9111 63.2327 -6.35
      vertex 64.2575 -64.3023 -6.35
    endloop
  endfacet
  facet normal 0.499962 0.866047 0
    outer loop
      vertex 63.6428 64.7443 6.35
      vertex 63.8621 64.6177 6.35
      vertex 63.8621 64.6177 -1.27
    endloop
  endfacet
  facet normal 0.499962 0.866047 0
    outer loop
      vertex 63.8621 64.6177 -1.27
      vertex 63.6428 64.7443 -6.35
      vertex 63.6428 64.7443 1.26998
    endloop
  endfacet
  facet normal 0 0 1
    outer loop
      vertex 64.4297 64.1167 6.35
      vertex 64.2575 64.3023 6.35
      vertex 64.0677 64.4698 6.35
    endloop
  endfacet
  facet normal 0.733075 0.680148 -0
    outer loop
      vertex 64.2575 64.3023 -6.35
      vertex 64.2575 64.3023 6.35
      vertex 64.4297 64.1167 6.35
    endloop
  endfacet
  facet normal 0.733075 0.680148 0
    outer loop
      vertex 64.4297 64.1167 1.26998
      vertex 64.4297 64.1167 -6.35
      vertex 64.2575 64.3023 -6.35
    endloop
  endfacet
  facet normal 0.797196 0.603721 0
    outer loop
      vertex 64.5826 63.9148 6.35
      vertex 64.4297 64.1167 -6.35
      vertex 64.4297 64.1167 1.26998
    endloop
  endfacet
  facet normal 0 0 -1
    outer loop
      vertex -63.293 -64.8917 -6.35
      vertex -64.5087 -64.0177 -6.35
      vertex -65.0209 -62.6106 -6.35
    endloop
  endfacet
  facet normal 0 0 -1
    outer loop
      vertex -64.5087 -64.0177 -6.35
      vertex -64.8708 -63.3527 -6.35
      vertex -65.0209 -62.6106 -6.35
    endloop
  endfacet
  facet normal 0 0 1
    outer loop
      vertex -64.346 64.2116 6.35
      vertex -65.0209 62.3574 6.35
      vertex -64.346 -64.2116 6.35
    endloop
  endfacet
  facet normal -1 0 0
    outer loop
      vertex -65.0209 62.3574 6.35
      vertex -65.0209 62.6106 6.35
      vertex -65.0209 62.6106 -6.35
    endloop
  endfacet
  facet normal 0 0 -1
    outer loop
      vertex -64.1647 64.3884 -6.35
      vertex -63.0492 64.9603 -6.35
      vertex -62.5473 65.0232 -6.35
    endloop
  endfacet
  facet normal 0 0 -1
    outer loop
      vertex -65.0209 62.6106 -6.35
      vertex -64.1647 64.3884 -6.35
      vertex -62.5473 65.0232 -6.35
    endloop
  endfacet
  facet normal 0.0248836 0.99969 0
    outer loop
      vertex 62.6738 65.0169 1.26998
      vertex 62.6738 65.0169 -6.35
      vertex 62.4207 65.0232 -6.35
    endloop
  endfacet
  facet normal 0.318241 0.94801 0
    outer loop
      vertex 63.412 64.8484 1.26998
      vertex 63.412 64.8484 -6.35
      vertex 63.1719 64.929 1.26998
    endloop
  endfacet
  facet normal 0.222696 0.974888 -0
    outer loop
      vertex 63.1719 64.929 1.26998
      vertex 62.925 64.9854 1.26998
      vertex 63.1719 64.929 6.35
    endloop
  endfacet
  facet normal -0 1 0
    outer loop
      vertex -62.5473 65.0232 6.35
      vertex 62.4207 65.0232 6.35
      vertex 62.4207 65.0232 1.26998
    endloop
  endfacet
  facet normal 0.124424 0.992229 0
    outer loop
      vertex 62.925 64.9854 1.26998
      vertex 62.925 64.9854 -6.35
      vertex 62.6738 65.0169 1.26998
    endloop
  endfacet
  facet normal 0.222696 0.974888 -0
    outer loop
      vertex 62.925 64.9854 1.26998
      vertex 62.925 64.9854 6.35
      vertex 63.1719 64.929 6.35
    endloop
  endfacet
  facet normal 0 0 1
    outer loop
      vertex -64.346 -64.2116 6.35
      vertex -63.9667 -64.5463 6.35
      vertex -63.5287 -64.7992 6.35
    endloop
  endfacet
  facet normal 0 0 1
    outer loop
      vertex -63.5287 -64.7992 6.35
      vertex -63.0492 -64.9603 6.35
      vertex -62.5473 -65.0232 6.35
    endloop
  endfacet
  facet normal -0.365322 -0.930881 0
    outer loop
      vertex -63.293 -64.8917 -6.35
      vertex -63.293 -64.8917 6.35
      vertex -63.5287 -64.7992 6.35
    endloop
  endfacet
  facet normal 0 0 -1
    outer loop
      vertex 62.4207 -65.0232 -6.35
      vertex -62.5473 -65.0232 -6.35
      vertex -63.293 -64.8917 -6.35
    endloop
  endfacet
  facet normal 0 0 1
    outer loop
      vertex 62.4207 -65.0232 6.35
      vertex 63.6428 -64.7443 6.35
      vertex 64.4297 -64.1167 6.35
    endloop
  endfacet
  facet normal 0.411153 -0.911566 0
    outer loop
      vertex 63.6428 -64.7443 6.35
      vertex 63.412 -64.8484 6.35
      vertex 63.412 -64.8484 1.26998
    endloop
  endfacet
  facet normal 0 0 1
    outer loop
      vertex 64.4297 -64.1167 6.35
      vertex 64.8245 -63.4706 6.35
      vertex 65.024 -62.484 6.35
    endloop
  endfacet
  facet normal 0.733075 -0.680148 0
    outer loop
      vertex 64.2575 -64.3023 -6.35
      vertex 64.4297 -64.1167 -6.35
      vertex 64.4297 -64.1167 6.35
    endloop
  endfacet
  facet normal 0 0 1
    outer loop
      vertex 63.6428 -64.7443 6.35
      vertex 63.8621 -64.6177 6.35
      vertex 64.0677 -64.4699 6.35
    endloop
  endfacet
  facet normal 0 0 -1
    outer loop
      vertex 62.925 -64.9854 -6.35
      vertex 62.6738 -65.0169 -6.35
      vertex 62.4207 -65.0232 -6.35
    endloop
  endfacet
  facet normal 0 0 -1
    outer loop
      vertex 64.7147 63.6988 -6.35
      vertex 64.8245 63.4706 -6.35
      vertex 64.9111 63.2327 -6.35
    endloop
  endfacet
  facet normal 0 0 1
    outer loop
      vertex 65.024 62.484 6.35
      vertex 64.9736 62.9873 6.35
      vertex 64.7147 63.6988 6.35
    endloop
  endfacet
  facet normal 0.998761 0.0497603 -0
    outer loop
      vertex 65.024 62.484 -6.35
      vertex 65.0114 62.7369 -1.27
      vertex 65.024 62.484 1.26998
    endloop
  endfacet
  facet normal 1 -0 0
    outer loop
      vertex 65.024 -62.484 -1.27
      vertex 65.024 62.484 -6.35
      vertex 65.024 62.484 1.26998
    endloop
  endfacet
  facet normal 0.411153 0.911566 0
    outer loop
      vertex 63.6428 64.7443 6.35
      vertex 63.6428 64.7443 1.26998
      vertex 63.412 64.8484 1.26998
    endloop
  endfacet
  facet normal 0.499962 0.866047 0
    outer loop
      vertex 63.8621 64.6177 -1.27
      vertex 63.6428 64.7443 1.26998
      vertex 63.6428 64.7443 6.35
    endloop
  endfacet
  facet normal 0 0 1
    outer loop
      vertex 64.0677 64.4698 6.35
      vertex 63.8621 64.6177 6.35
      vertex 63.6428 64.7443 6.35
    endloop
  endfacet
  facet normal 0.583961 0.811781 -0
    outer loop
      vertex 63.8621 64.6177 -1.27
      vertex 63.8621 64.6177 6.35
      vertex 64.0677 64.4698 6.35
    endloop
  endfacet
  facet normal 0.583961 0.811781 0
    outer loop
      vertex 64.0677 64.4698 6.35
      vertex 64.0677 64.4698 -1.27
      vertex 63.8621 64.6177 -1.27
    endloop
  endfacet
  facet normal 0.661687 0.74978 0
    outer loop
      vertex 64.2575 64.3023 -6.35
      vertex 64.0677 64.4698 -1.27
      vertex 64.0677 64.4698 6.35
    endloop
  endfacet
  facet normal 0 0 1
    outer loop
      vertex 64.7147 63.6988 6.35
      vertex 64.5826 63.9148 6.35
      vertex 64.4297 64.1167 6.35
    endloop
  endfacet
  facet normal 0.853106 0.521738 0
    outer loop
      vertex 64.7147 63.6988 6.35
      vertex 64.7147 63.6988 -6.35
      vertex 64.5826 63.9148 6.35
    endloop
  endfacet
  facet normal 0.901116 0.433578 0
    outer loop
      vertex 64.7147 63.6988 6.35
      vertex 64.8245 63.4706 6.35
      vertex 64.7147 63.6988 -6.35
    endloop
  endfacet
  facet normal 0 0 -1
    outer loop
      vertex 64.2575 64.3023 -6.35
      vertex 64.7147 63.6988 -6.35
      vertex 64.9111 63.2327 -6.35
    endloop
  endfacet
  facet normal 0 0 -1
    outer loop
      vertex -63.293 -64.8917 -6.35
      vertex -63.754 -64.6837 -6.35
      vertex -63.9667 -64.5463 -6.35
    endloop
  endfacet
  facet normal 0 0 -1
    outer loop
      vertex -64.5087 -64.0177 -6.35
      vertex -64.6514 -63.8084 -6.35
      vertex -64.8708 -63.3527 -6.35
    endloop
  endfacet
  facet normal 0 0 1
    outer loop
      vertex -65.0209 62.3574 6.35
      vertex -65.0209 -62.6106 6.35
      vertex -64.346 -64.2116 6.35
    endloop
  endfacet
  facet normal -1 0 0
    outer loop
      vertex -65.0209 -62.6106 -6.35
      vertex -65.0209 -62.6106 6.35
      vertex -65.0209 62.3574 6.35
    endloop
  endfacet
  facet normal -0.98023 0.197863 0
    outer loop
      vertex -64.9956 62.8625 6.35
      vertex -64.9455 63.1107 -1.27
      vertex -64.9956 62.8625 -6.35
    endloop
  endfacet
  facet normal -0.826236 0.563325 0
    outer loop
      vertex -64.6514 63.8084 6.35
      vertex -64.5087 64.0177 -6.35
      vertex -64.6514 63.8084 -6.35
    endloop
  endfacet
  facet normal -0.698166 0.715936 0
    outer loop
      vertex -64.346 64.2116 6.35
      vertex -64.1647 64.3884 6.35
      vertex -64.1647 64.3884 -6.35
    endloop
  endfacet
  facet normal 0 0 1
    outer loop
      vertex -62.5473 65.0232 6.35
      vertex -63.5287 64.7992 6.35
      vertex -64.346 64.2116 6.35
    endloop
  endfacet
  facet normal 0 0 -1
    outer loop
      vertex 63.412 64.8484 -6.35
      vertex 63.6428 64.7443 -6.35
      vertex 64.2575 64.3023 -6.35
    endloop
  endfacet
  facet normal 0.411153 0.911566 0
    outer loop
      vertex 63.6428 64.7443 1.26998
      vertex 63.6428 64.7443 -6.35
      vertex 63.412 64.8484 -6.35
    endloop
  endfacet
  facet normal 0.222696 0.974888 0
    outer loop
      vertex 63.1719 64.929 1.26998
      vertex 62.925 64.9854 -6.35
      vertex 62.925 64.9854 1.26998
    endloop
  endfacet
  facet normal 0.0248836 0.99969 0
    outer loop
      vertex 62.4207 65.0232 1.26998
      vertex 62.6738 65.0169 1.26998
      vertex 62.4207 65.0232 -6.35
    endloop
  endfacet
  facet normal 0.124424 0.992229 0
    outer loop
      vertex 62.6738 65.0169 1.26998
      vertex 62.925 64.9854 6.35
      vertex 62.925 64.9854 1.26998
    endloop
  endfacet
  facet normal 0 0 1
    outer loop
      vertex 62.925 64.9854 6.35
      vertex 62.6738 65.0169 6.35
      vertex 62.4207 65.0232 6.35
    endloop
  endfacet
  facet normal -0.623249 -0.782023 -0
    outer loop
      vertex -63.9667 -64.5463 6.35
      vertex -64.1647 -64.3885 -6.35
      vertex -63.9667 -64.5463 1.26998
    endloop
  endfacet
  facet normal 0 0 1
    outer loop
      vertex -63.9667 -64.5463 6.35
      vertex -63.754 -64.6837 6.35
      vertex -63.5287 -64.7992 6.35
    endloop
  endfacet
  facet normal -0.17374 -0.984792 0
    outer loop
      vertex -63.0492 -64.9603 -6.35
      vertex -62.7998 -65.0043 6.35
      vertex -63.0492 -64.9603 6.35
    endloop
  endfacet
  facet normal 0 0 1
    outer loop
      vertex -63.0492 -64.9603 6.35
      vertex -62.7998 -65.0043 6.35
      vertex -62.5473 -65.0232 6.35
    endloop
  endfacet
  facet normal 0 0 1
    outer loop
      vertex 63.6428 -64.7443 6.35
      vertex 64.0677 -64.4699 6.35
      vertex 64.4297 -64.1167 6.35
    endloop
  endfacet
  facet normal 0 0 -1
    outer loop
      vertex 63.8621 -64.6177 -6.35
      vertex 63.6428 -64.7443 -6.35
      vertex 63.412 -64.8484 -6.35
    endloop
  endfacet
  facet normal 0.222321 -0.974974 0
    outer loop
      vertex 62.925 -64.9854 -6.35
      vertex 63.1719 -64.9291 1.26998
      vertex 62.925 -64.9854 1.26998
    endloop
  endfacet
  facet normal 0 0 1
    outer loop
      vertex 62.4207 -65.0232 6.35
      vertex 63.412 -64.8484 6.35
      vertex 63.6428 -64.7443 6.35
    endloop
  endfacet
  facet normal 0.939678 -0.34206 0
    outer loop
      vertex 64.8245 -63.4706 -6.35
      vertex 64.9111 -63.2327 1.26998
      vertex 64.8245 -63.4706 6.35
    endloop
  endfacet
  facet normal 0 0 1
    outer loop
      vertex 64.8245 -63.4706 6.35
      vertex 64.9736 -62.9873 6.35
      vertex 65.024 -62.484 6.35
    endloop
  endfacet
  facet normal 0.222321 -0.974974 0
    outer loop
      vertex 63.1719 -64.9291 1.26998
      vertex 62.925 -64.9854 6.35
      vertex 62.925 -64.9854 1.26998
    endloop
  endfacet
  facet normal 0.124424 -0.992229 0
    outer loop
      vertex 62.925 -64.9854 1.26998
      vertex 62.6738 -65.0169 1.26998
      vertex 62.925 -64.9854 -6.35
    endloop
  endfacet
  facet normal 0.318596 -0.947891 0
    outer loop
      vertex 63.1719 -64.9291 1.26998
      vertex 63.1719 -64.9291 -6.35
      vertex 63.412 -64.8484 -6.35
    endloop
  endfacet
  facet normal 0.318596 -0.947891 0
    outer loop
      vertex 63.412 -64.8484 1.26998
      vertex 63.1719 -64.9291 1.26998
      vertex 63.412 -64.8484 -6.35
    endloop
  endfacet
  facet normal 0 0 1
    outer loop
      vertex 62.4207 -65.0232 6.35
      vertex 62.925 -64.9854 6.35
      vertex 63.412 -64.8484 6.35
    endloop
  endfacet
  facet normal 0.0248836 -0.99969 0
    outer loop
      vertex 62.4207 -65.0232 -6.35
      vertex 62.6738 -65.0169 1.26998
      vertex 62.4207 -65.0232 6.35
    endloop
  endfacet
  facet normal 0.988797 0.149267 0
    outer loop
      vertex 65.0114 62.7369 -1.27
      vertex 64.9736 62.9873 -6.35
      vertex 64.9736 62.9873 6.35
    endloop
  endfacet
  facet normal 0.998761 0.0497603 -0
    outer loop
      vertex 65.0114 62.7369 -1.27
      vertex 65.0114 62.7369 6.35
      vertex 65.024 62.484 6.35
    endloop
  endfacet
  facet normal 0 0 1
    outer loop
      vertex 64.9736 62.9873 6.35
      vertex 64.8245 63.4706 6.35
      vertex 64.7147 63.6988 6.35
    endloop
  endfacet
  facet normal 0.939678 0.34206 0
    outer loop
      vertex 64.8245 63.4706 6.35
      vertex 64.9111 63.2327 6.35
      vertex 64.9111 63.2327 -6.35
    endloop
  endfacet
  facet normal 0.853106 0.521738 0
    outer loop
      vertex 64.7147 63.6988 -6.35
      vertex 64.5826 63.9148 -6.35
      vertex 64.5826 63.9148 6.35
    endloop
  endfacet
  facet normal 0 0 -1
    outer loop
      vertex 64.2575 64.3023 -6.35
      vertex 64.4297 64.1167 -6.35
      vertex 64.7147 63.6988 -6.35
    endloop
  endfacet
  facet normal 0 0 1
    outer loop
      vertex -65.0209 -62.6106 6.35
      vertex -64.8708 -63.3527 6.35
      vertex -64.346 -64.2116 6.35
    endloop
  endfacet
  facet normal 0 0 -1
    outer loop
      vertex -64.8708 -63.3527 -6.35
      vertex -64.9455 -63.1108 -6.35
      vertex -65.0209 -62.6106 -6.35
    endloop
  endfacet
  facet normal 0 0 1
    outer loop
      vertex -64.8708 63.3527 6.35
      vertex -64.9956 62.8625 6.35
      vertex -65.0209 62.3574 6.35
    endloop
  endfacet
  facet normal -0.994994 0.0999339 0
    outer loop
      vertex -64.9956 62.8625 6.35
      vertex -64.9956 62.8625 -6.35
      vertex -65.0209 62.6106 -6.35
    endloop
  endfacet
  facet normal 0 0 -1
    outer loop
      vertex -64.6514 63.8084 -6.35
      vertex -64.5087 64.0177 -6.35
      vertex -64.1647 64.3884 -6.35
    endloop
  endfacet
  facet normal 0 0 -1
    outer loop
      vertex -65.0209 62.6106 -6.35
      vertex -64.6514 63.8084 -6.35
      vertex -64.1647 64.3884 -6.35
    endloop
  endfacet
  facet normal -0.62349 0.781831 0
    outer loop
      vertex -63.9667 64.5463 6.35
      vertex -63.9667 64.5463 -6.35
      vertex -64.1647 64.3884 -6.35
    endloop
  endfacet
  facet normal -0.0746427 0.99721 0
    outer loop
      vertex -62.5473 65.0232 -6.35
      vertex -62.7998 65.0043 -6.35
      vertex -62.7998 65.0043 -1.27
    endloop
  endfacet
  facet normal 0 0 1
    outer loop
      vertex -63.5287 64.7992 6.35
      vertex -63.9667 64.5463 6.35
      vertex -64.346 64.2116 6.35
    endloop
  endfacet
  facet normal -0.542613 0.839983 0
    outer loop
      vertex -63.9667 64.5463 6.35
      vertex -63.754 64.6837 6.35
      vertex -63.754 64.6837 -6.35
    endloop
  endfacet
  facet normal 0.318241 0.94801 0
    outer loop
      vertex 63.412 64.8484 -6.35
      vertex 63.1719 64.929 -6.35
      vertex 63.1719 64.929 1.26998
    endloop
  endfacet
  facet normal 0 0 -1
    outer loop
      vertex 62.4207 65.0232 -6.35
      vertex 62.925 64.9854 -6.35
      vertex 63.412 64.8484 -6.35
    endloop
  endfacet
  facet normal 0 0 -1
    outer loop
      vertex 63.6428 64.7443 -6.35
      vertex 63.8621 64.6177 -6.35
      vertex 64.2575 64.3023 -6.35
    endloop
  endfacet
  facet normal 0.499962 0.866047 0
    outer loop
      vertex 63.8621 64.6177 -1.27
      vertex 63.8621 64.6177 -6.35
      vertex 63.6428 64.7443 -6.35
    endloop
  endfacet
  facet normal 0.124424 0.992229 -0
    outer loop
      vertex 62.6738 65.0169 1.26998
      vertex 62.6738 65.0169 6.35
      vertex 62.925 64.9854 6.35
    endloop
  endfacet
  facet normal 0.0248836 0.99969 0
    outer loop
      vertex 62.4207 65.0232 6.35
      vertex 62.6738 65.0169 6.35
      vertex 62.6738 65.0169 1.26998
    endloop
  endfacet
  facet normal -0.698368 -0.715739 0
    outer loop
      vertex -64.1647 -64.3885 -6.35
      vertex -64.1647 -64.3885 6.35
      vertex -64.346 -64.2116 6.35
    endloop
  endfacet
  facet normal -0.542613 -0.839983 0
    outer loop
      vertex -63.9667 -64.5463 1.26998
      vertex -63.754 -64.6837 1.26998
      vertex -63.9667 -64.5463 6.35
    endloop
  endfacet
  facet normal -0.766047 -0.642784 0
    outer loop
      vertex -64.5087 -64.0177 -6.35
      vertex -64.346 -64.2116 -6.35
      vertex -64.346 -64.2116 6.35
    endloop
  endfacet
  facet normal 0 0 -1
    outer loop
      vertex -63.293 -64.8917 -6.35
      vertex -64.1647 -64.3885 -6.35
      vertex -64.5087 -64.0177 -6.35
    endloop
  endfacet
  facet normal -0.542613 -0.839983 -0
    outer loop
      vertex -63.9667 -64.5463 1.26998
      vertex -63.9667 -64.5463 -6.35
      vertex -63.754 -64.6837 1.26998
    endloop
  endfacet
  facet normal -0.456196 -0.889879 0
    outer loop
      vertex -63.754 -64.6837 1.26998
      vertex -63.5287 -64.7992 1.26998
      vertex -63.5287 -64.7992 6.35
    endloop
  endfacet
  facet normal -0.27086 -0.962619 0
    outer loop
      vertex -63.0492 -64.9603 6.35
      vertex -63.293 -64.8917 6.35
      vertex -63.293 -64.8917 -6.35
    endloop
  endfacet
  facet normal 0 0 1
    outer loop
      vertex -63.5287 -64.7992 6.35
      vertex -63.293 -64.8917 6.35
      vertex -63.0492 -64.9603 6.35
    endloop
  endfacet
  facet normal -0.27086 -0.962619 0
    outer loop
      vertex -63.293 -64.8917 -6.35
      vertex -63.0492 -64.9603 -6.35
      vertex -63.0492 -64.9603 6.35
    endloop
  endfacet
  facet normal 0 0 -1
    outer loop
      vertex -62.5473 -65.0232 -6.35
      vertex -63.0492 -64.9603 -6.35
      vertex -63.293 -64.8917 -6.35
    endloop
  endfacet
  facet normal -0.0746427 -0.99721 -0
    outer loop
      vertex -62.7998 -65.0043 6.35
      vertex -62.7998 -65.0043 -6.35
      vertex -62.5473 -65.0232 -6.35
    endloop
  endfacet
  facet normal -0.0746427 -0.99721 -0
    outer loop
      vertex -62.5473 -65.0232 6.35
      vertex -62.7998 -65.0043 6.35
      vertex -62.5473 -65.0232 -6.35
    endloop
  endfacet
  facet normal 0.661909 -0.749584 0
    outer loop
      vertex 64.0677 -64.4699 1.26998
      vertex 64.0677 -64.4699 -6.35
      vertex 64.2575 -64.3023 -6.35
    endloop
  endfacet
  facet normal 0.583701 -0.811969 0
    outer loop
      vertex 64.0677 -64.4699 1.26998
      vertex 64.0677 -64.4699 6.35
      vertex 63.8621 -64.6177 -6.35
    endloop
  endfacet
  facet normal 0.499962 -0.866047 0
    outer loop
      vertex 63.6428 -64.7443 6.35
      vertex 63.6428 -64.7443 -6.35
      vertex 63.8621 -64.6177 -6.35
    endloop
  endfacet
  facet normal 0.411153 -0.911566 0
    outer loop
      vertex 63.412 -64.8484 -6.35
      vertex 63.6428 -64.7443 -6.35
      vertex 63.6428 -64.7443 6.35
    endloop
  endfacet
  facet normal 0 0 -1
    outer loop
      vertex 64.8245 -63.4706 -6.35
      vertex 64.5826 -63.9148 -6.35
      vertex 64.2575 -64.3023 -6.35
    endloop
  endfacet
  facet normal 0 0 1
    outer loop
      vertex 64.8245 -63.4706 6.35
      vertex 64.9111 -63.2327 6.35
      vertex 64.9736 -62.9873 6.35
    endloop
  endfacet
  facet normal 0.797196 -0.603721 0
    outer loop
      vertex 64.5826 -63.9148 -6.35
      vertex 64.5826 -63.9148 6.35
      vertex 64.4297 -64.1167 6.35
    endloop
  endfacet
  facet normal 0 0 -1
    outer loop
      vertex 64.8245 -63.4706 -6.35
      vertex 64.7147 -63.6988 -6.35
      vertex 64.5826 -63.9148 -6.35
    endloop
  endfacet
  facet normal 0 -0 -1
    outer loop
      vertex 65.024 62.484 -6.35
      vertex 65.024 -62.484 -6.35
      vertex 64.8245 -63.4706 -6.35
    endloop
  endfacet
  facet normal 1 0 0
    outer loop
      vertex 65.024 -62.484 -1.27
      vertex 65.024 -62.484 -6.35
      vertex 65.024 62.484 -6.35
    endloop
  endfacet
  facet normal 0.998761 -0.0497603 0
    outer loop
      vertex 65.024 -62.484 -1.27
      vertex 65.0114 -62.7369 -1.27
      vertex 65.024 -62.484 -6.35
    endloop
  endfacet
  facet normal 0.998761 -0.0497603 0
    outer loop
      vertex 65.024 -62.484 6.35
      vertex 65.0114 -62.7369 -1.27
      vertex 65.024 -62.484 -1.27
    endloop
  endfacet
  facet normal 0.222321 -0.974974 0
    outer loop
      vertex 63.1719 -64.9291 1.26998
      vertex 63.1719 -64.9291 6.35
      vertex 62.925 -64.9854 6.35
    endloop
  endfacet
  facet normal 0.318596 -0.947891 0
    outer loop
      vertex 63.412 -64.8484 1.26998
      vertex 63.412 -64.8484 6.35
      vertex 63.1719 -64.9291 1.26998
    endloop
  endfacet
  facet normal 0.222321 -0.974974 0
    outer loop
      vertex 62.925 -64.9854 -6.35
      vertex 63.1719 -64.9291 -6.35
      vertex 63.1719 -64.9291 1.26998
    endloop
  endfacet
  facet normal 0 0 -1
    outer loop
      vertex 63.412 -64.8484 -6.35
      vertex 63.1719 -64.9291 -6.35
      vertex 62.925 -64.9854 -6.35
    endloop
  endfacet
  facet normal 0.124424 -0.992229 0
    outer loop
      vertex 62.6738 -65.0169 1.26998
      vertex 62.6738 -65.0169 -6.35
      vertex 62.925 -64.9854 -6.35
    endloop
  endfacet
  facet normal 0.0248836 -0.99969 0
    outer loop
      vertex 62.4207 -65.0232 -6.35
      vertex 62.6738 -65.0169 -6.35
      vertex 62.6738 -65.0169 1.26998
    endloop
  endfacet
  facet normal 0 0 -1
    outer loop
      vertex 64.9736 62.9873 -6.35
      vertex 65.0114 62.7369 -6.35
      vertex 65.024 62.484 -6.35
    endloop
  endfacet
  facet normal 0 0 -1
    outer loop
      vertex 64.9111 63.2327 -6.35
      vertex 64.9736 62.9873 -6.35
      vertex 65.024 62.484 -6.35
    endloop
  endfacet
  facet normal 0.988797 0.149267 0
    outer loop
      vertex 64.9736 62.9873 6.35
      vertex 65.0114 62.7369 6.35
      vertex 65.0114 62.7369 -1.27
    endloop
  endfacet
  facet normal 0 0 1
    outer loop
      vertex 65.024 62.484 6.35
      vertex 65.0114 62.7369 6.35
      vertex 64.9736 62.9873 6.35
    endloop
  endfacet
  facet normal 0.901116 0.433578 0
    outer loop
      vertex 64.8245 63.4706 6.35
      vertex 64.8245 63.4706 -6.35
      vertex 64.7147 63.6988 -6.35
    endloop
  endfacet
  facet normal 0.939678 0.34206 0
    outer loop
      vertex 64.9111 63.2327 -6.35
      vertex 64.8245 63.4706 -6.35
      vertex 64.8245 63.4706 6.35
    endloop
  endfacet
  facet normal 0 0 1
    outer loop
      vertex 64.9736 62.9873 6.35
      vertex 64.9111 63.2327 6.35
      vertex 64.8245 63.4706 6.35
    endloop
  endfacet
  facet normal 0.969065 0.246807 -0
    outer loop
      vertex 64.9111 63.2327 -6.35
      vertex 64.9111 63.2327 6.35
      vertex 64.9736 62.9873 6.35
    endloop
  endfacet
  facet normal 0 0 -1
    outer loop
      vertex 64.4297 64.1167 -6.35
      vertex 64.5826 63.9148 -6.35
      vertex 64.7147 63.6988 -6.35
    endloop
  endfacet
  facet normal 0.797196 0.603721 0
    outer loop
      vertex 64.5826 63.9148 6.35
      vertex 64.5826 63.9148 -6.35
      vertex 64.4297 64.1167 -6.35
    endloop
  endfacet
  facet normal -0.826236 -0.563325 0
    outer loop
      vertex -64.5087 -64.0177 -6.35
      vertex -64.5087 -64.0177 6.35
      vertex -64.6514 -63.8084 6.35
    endloop
  endfacet
  facet normal -0.95548 -0.295057 -0
    outer loop
      vertex -64.8708 -63.3527 6.35
      vertex -64.9455 -63.1108 6.35
      vertex -64.8708 -63.3527 -6.35
    endloop
  endfacet
  facet normal 0 0 1
    outer loop
      vertex -64.8708 -63.3527 6.35
      vertex -64.6514 -63.8084 6.35
      vertex -64.346 -64.2116 6.35
    endloop
  endfacet
  facet normal 0 0 -1
    outer loop
      vertex -64.6514 -63.8084 -6.35
      vertex -64.7725 -63.5861 -6.35
      vertex -64.8708 -63.3527 -6.35
    endloop
  endfacet
  facet normal 0 0 1
    outer loop
      vertex -65.0209 -62.6106 6.35
      vertex -64.9455 -63.1108 6.35
      vertex -64.8708 -63.3527 6.35
    endloop
  endfacet
  facet normal 0 0 -1
    outer loop
      vertex -64.9455 -63.1108 -6.35
      vertex -64.9956 -62.8626 -6.35
      vertex -65.0209 -62.6106 -6.35
    endloop
  endfacet
  facet normal 0 0 1
    outer loop
      vertex -64.9956 62.8625 6.35
      vertex -65.0209 62.6106 6.35
      vertex -65.0209 62.3574 6.35
    endloop
  endfacet
  facet normal -0.994994 0.0999339 0
    outer loop
      vertex -65.0209 62.6106 -6.35
      vertex -65.0209 62.6106 6.35
      vertex -64.9956 62.8625 6.35
    endloop
  endfacet
  facet normal -0.98023 0.197863 0
    outer loop
      vertex -64.9956 62.8625 6.35
      vertex -64.9455 63.1107 6.35
      vertex -64.9455 63.1107 -1.27
    endloop
  endfacet
  facet normal 0 0 -1
    outer loop
      vertex -65.0209 62.6106 -6.35
      vertex -64.9956 62.8625 -6.35
      vertex -64.6514 63.8084 -6.35
    endloop
  endfacet
  facet normal -0.878152 0.478382 0
    outer loop
      vertex -64.6514 63.8084 -6.35
      vertex -64.7725 63.5861 6.35
      vertex -64.6514 63.8084 6.35
    endloop
  endfacet
  facet normal 0 0 1
    outer loop
      vertex -64.346 64.2116 6.35
      vertex -64.6514 63.8084 6.35
      vertex -64.8708 63.3527 6.35
    endloop
  endfacet
  facet normal 0 0 1
    outer loop
      vertex -64.346 64.2116 6.35
      vertex -64.5087 64.0177 6.35
      vertex -64.6514 63.8084 6.35
    endloop
  endfacet
  facet normal 0 0 -1
    outer loop
      vertex -64.5087 64.0177 -6.35
      vertex -64.346 64.2116 -6.35
      vertex -64.1647 64.3884 -6.35
    endloop
  endfacet
  facet normal -0.0746427 0.99721 0
    outer loop
      vertex -62.7998 65.0043 -1.27
      vertex -62.7998 65.0043 6.35
      vertex -62.5473 65.0232 6.35
    endloop
  endfacet
  facet normal -0.17374 0.984792 0
    outer loop
      vertex -63.0492 64.9603 -6.35
      vertex -63.0492 64.9603 6.35
      vertex -62.7998 65.0043 -1.27
    endloop
  endfacet
  facet normal -0.456196 0.889879 0
    outer loop
      vertex -63.5287 64.7992 6.35
      vertex -63.5287 64.7992 -6.35
      vertex -63.754 64.6837 -6.35
    endloop
  endfacet
  facet normal 0 0 -1
    outer loop
      vertex -64.1647 64.3884 -6.35
      vertex -63.754 64.6837 -6.35
      vertex -63.0492 64.9603 -6.35
    endloop
  endfacet
  facet normal 0 0 1
    outer loop
      vertex -63.9667 64.5463 6.35
      vertex -64.1647 64.3884 6.35
      vertex -64.346 64.2116 6.35
    endloop
  endfacet
  facet normal -0.62349 0.781831 0
    outer loop
      vertex -64.1647 64.3884 -6.35
      vertex -64.1647 64.3884 6.35
      vertex -63.9667 64.5463 6.35
    endloop
  endfacet
  facet normal 0.124424 0.992229 0
    outer loop
      vertex 62.925 64.9854 -6.35
      vertex 62.6738 65.0169 -6.35
      vertex 62.6738 65.0169 1.26998
    endloop
  endfacet
  facet normal 0 0 -1
    outer loop
      vertex 62.4207 65.0232 -6.35
      vertex 62.6738 65.0169 -6.35
      vertex 62.925 64.9854 -6.35
    endloop
  endfacet
  facet normal 0 0 -1
    outer loop
      vertex 62.925 64.9854 -6.35
      vertex 63.1719 64.929 -6.35
      vertex 63.412 64.8484 -6.35
    endloop
  endfacet
  facet normal 0.222696 0.974888 0
    outer loop
      vertex 63.1719 64.929 1.26998
      vertex 63.1719 64.929 -6.35
      vertex 62.925 64.9854 -6.35
    endloop
  endfacet
  facet normal 0.583961 0.811781 0
    outer loop
      vertex 64.0677 64.4698 -1.27
      vertex 63.8621 64.6177 -6.35
      vertex 63.8621 64.6177 -1.27
    endloop
  endfacet
  facet normal 0 0 -1
    outer loop
      vertex 63.8621 64.6177 -6.35
      vertex 64.0677 64.4698 -6.35
      vertex 64.2575 64.3023 -6.35
    endloop
  endfacet
  facet normal -0.623249 -0.782023 0
    outer loop
      vertex -63.9667 -64.5463 6.35
      vertex -64.1647 -64.3885 6.35
      vertex -64.1647 -64.3885 -6.35
    endloop
  endfacet
  facet normal 0 0 1
    outer loop
      vertex -64.346 -64.2116 6.35
      vertex -64.1647 -64.3885 6.35
      vertex -63.9667 -64.5463 6.35
    endloop
  endfacet
  facet normal 0 0 -1
    outer loop
      vertex -64.1647 -64.3885 -6.35
      vertex -64.346 -64.2116 -6.35
      vertex -64.5087 -64.0177 -6.35
    endloop
  endfacet
  facet normal -0.698368 -0.715739 -0
    outer loop
      vertex -64.346 -64.2116 6.35
      vertex -64.346 -64.2116 -6.35
      vertex -64.1647 -64.3885 -6.35
    endloop
  endfacet
  facet normal -0.542613 -0.839983 0
    outer loop
      vertex -63.754 -64.6837 1.26998
      vertex -63.754 -64.6837 6.35
      vertex -63.9667 -64.5463 6.35
    endloop
  endfacet
  facet normal -0.456196 -0.889879 0
    outer loop
      vertex -63.5287 -64.7992 6.35
      vertex -63.754 -64.6837 6.35
      vertex -63.754 -64.6837 1.26998
    endloop
  endfacet
  facet normal -0.623249 -0.782023 0
    outer loop
      vertex -64.1647 -64.3885 -6.35
      vertex -63.9667 -64.5463 -6.35
      vertex -63.9667 -64.5463 1.26998
    endloop
  endfacet
  facet normal 0 0 -1
    outer loop
      vertex -63.293 -64.8917 -6.35
      vertex -63.9667 -64.5463 -6.35
      vertex -64.1647 -64.3885 -6.35
    endloop
  endfacet
  facet normal -0.456196 -0.889879 0
    outer loop
      vertex -63.754 -64.6837 -6.35
      vertex -63.5287 -64.7992 -6.35
      vertex -63.5287 -64.7992 1.26998
    endloop
  endfacet
  facet normal -0.365322 -0.930881 -0
    outer loop
      vertex -63.5287 -64.7992 6.35
      vertex -63.5287 -64.7992 1.26998
      vertex -63.293 -64.8917 -6.35
    endloop
  endfacet
  facet normal -0.17374 -0.984792 0
    outer loop
      vertex -63.0492 -64.9603 -6.35
      vertex -62.7998 -65.0043 -6.35
      vertex -62.7998 -65.0043 6.35
    endloop
  endfacet
  facet normal 0 0 -1
    outer loop
      vertex -62.5473 -65.0232 -6.35
      vertex -62.7998 -65.0043 -6.35
      vertex -63.0492 -64.9603 -6.35
    endloop
  endfacet
  facet normal 0.661909 -0.749584 0
    outer loop
      vertex 64.2575 -64.3023 -6.35
      vertex 64.0677 -64.4699 6.35
      vertex 64.0677 -64.4699 1.26998
    endloop
  endfacet
  facet normal 0 0 1
    outer loop
      vertex 64.0677 -64.4699 6.35
      vertex 64.2575 -64.3023 6.35
      vertex 64.4297 -64.1167 6.35
    endloop
  endfacet
  facet normal 0.583701 -0.811969 0
    outer loop
      vertex 63.8621 -64.6177 -6.35
      vertex 64.0677 -64.4699 -6.35
      vertex 64.0677 -64.4699 1.26998
    endloop
  endfacet
  facet normal 0 0 -1
    outer loop
      vertex 64.2575 -64.3023 -6.35
      vertex 64.0677 -64.4699 -6.35
      vertex 63.8621 -64.6177 -6.35
    endloop
  endfacet
  facet normal 0 0 -1
    outer loop
      vertex 64.5826 -63.9148 -6.35
      vertex 64.4297 -64.1167 -6.35
      vertex 64.2575 -64.3023 -6.35
    endloop
  endfacet
  facet normal 0.797196 -0.603721 0
    outer loop
      vertex 64.4297 -64.1167 6.35
      vertex 64.4297 -64.1167 -6.35
      vertex 64.5826 -63.9148 -6.35
    endloop
  endfacet
  facet normal 0.901116 -0.433578 0
    outer loop
      vertex 64.8245 -63.4706 6.35
      vertex 64.7147 -63.6988 -6.35
      vertex 64.8245 -63.4706 -6.35
    endloop
  endfacet
  facet normal 0.853106 -0.521738 0
    outer loop
      vertex 64.7147 -63.6988 -6.35
      vertex 64.7147 -63.6988 6.35
      vertex 64.5826 -63.9148 -6.35
    endloop
  endfacet
  facet normal 0 0 -1
    outer loop
      vertex 65.024 -62.484 -6.35
      vertex 65.0114 -62.7369 -6.35
      vertex 64.8245 -63.4706 -6.35
    endloop
  endfacet
  facet normal 0 0 1
    outer loop
      vertex 64.9736 -62.9873 6.35
      vertex 65.0114 -62.7369 6.35
      vertex 65.024 -62.484 6.35
    endloop
  endfacet
  facet normal 0.998761 -0.0497603 0
    outer loop
      vertex 65.0114 -62.7369 -1.27
      vertex 65.0114 -62.7369 -6.35
      vertex 65.024 -62.484 -6.35
    endloop
  endfacet
  facet normal 0.988797 -0.149267 0
    outer loop
      vertex 64.9736 -62.9873 6.35
      vertex 65.0114 -62.7369 -6.35
      vertex 65.0114 -62.7369 -1.27
    endloop
  endfacet
  facet normal 0 0 1
    outer loop
      vertex 62.4207 -65.0232 6.35
      vertex 62.6738 -65.0169 6.35
      vertex 62.925 -64.9854 6.35
    endloop
  endfacet
  facet normal 0.124424 -0.992229 0
    outer loop
      vertex 62.925 -64.9854 1.26998
      vertex 62.925 -64.9854 6.35
      vertex 62.6738 -65.0169 1.26998
    endloop
  endfacet
  facet normal 0.988797 0.149267 0
    outer loop
      vertex 65.0114 62.7369 -1.27
      vertex 65.0114 62.7369 -6.35
      vertex 64.9736 62.9873 -6.35
    endloop
  endfacet
  facet normal 0.998761 0.0497603 0
    outer loop
      vertex 65.024 62.484 -6.35
      vertex 65.0114 62.7369 -6.35
      vertex 65.0114 62.7369 -1.27
    endloop
  endfacet
  facet normal -0.826236 -0.563325 -0
    outer loop
      vertex -64.6514 -63.8084 6.35
      vertex -64.6514 -63.8084 -6.35
      vertex -64.5087 -64.0177 -6.35
    endloop
  endfacet
  facet normal -0.878152 -0.478382 -0
    outer loop
      vertex -64.6514 -63.8084 6.35
      vertex -64.7725 -63.5861 6.35
      vertex -64.6514 -63.8084 -6.35
    endloop
  endfacet
  facet normal -0.766047 -0.642784 0
    outer loop
      vertex -64.346 -64.2116 6.35
      vertex -64.5087 -64.0177 6.35
      vertex -64.5087 -64.0177 -6.35
    endloop
  endfacet
  facet normal 0 0 1
    outer loop
      vertex -64.6514 -63.8084 6.35
      vertex -64.5087 -64.0177 6.35
      vertex -64.346 -64.2116 6.35
    endloop
  endfacet
  facet normal 0 0 1
    outer loop
      vertex -64.8708 -63.3527 6.35
      vertex -64.7725 -63.5861 6.35
      vertex -64.6514 -63.8084 6.35
    endloop
  endfacet
  facet normal -0.921598 -0.388145 0
    outer loop
      vertex -64.8708 -63.3527 -6.35
      vertex -64.7725 -63.5861 6.35
      vertex -64.8708 -63.3527 6.35
    endloop
  endfacet
  facet normal -0.95548 -0.295057 -0
    outer loop
      vertex -64.9455 -63.1108 6.35
      vertex -64.9455 -63.1108 -6.35
      vertex -64.8708 -63.3527 -6.35
    endloop
  endfacet
  facet normal -0.98023 -0.197863 -0
    outer loop
      vertex -64.9455 -63.1108 6.35
      vertex -64.9956 -62.8626 6.35
      vertex -64.9455 -63.1108 -6.35
    endloop
  endfacet
  facet normal 0 0 1
    outer loop
      vertex -65.0209 -62.6106 6.35
      vertex -64.9956 -62.8626 6.35
      vertex -64.9455 -63.1108 6.35
    endloop
  endfacet
  facet normal -0.994998 -0.0998946 0
    outer loop
      vertex -65.0209 -62.6106 -6.35
      vertex -64.9956 -62.8626 6.35
      vertex -65.0209 -62.6106 6.35
    endloop
  endfacet
  facet normal -0.98023 0.197863 0
    outer loop
      vertex -64.9455 63.1107 -1.27
      vertex -64.9455 63.1107 -6.35
      vertex -64.9956 62.8625 -6.35
    endloop
  endfacet
  facet normal -0.955514 0.294946 0
    outer loop
      vertex -64.8708 63.3527 6.35
      vertex -64.8708 63.3527 -6.35
      vertex -64.9455 63.1107 -1.27
    endloop
  endfacet
  facet normal -0.921598 0.388145 0
    outer loop
      vertex -64.7725 63.5861 6.35
      vertex -64.8708 63.3527 -6.35
      vertex -64.8708 63.3527 6.35
    endloop
  endfacet
  facet normal 0 0 1
    outer loop
      vertex -64.6514 63.8084 6.35
      vertex -64.7725 63.5861 6.35
      vertex -64.8708 63.3527 6.35
    endloop
  endfacet
  facet normal -0.766047 0.642784 0
    outer loop
      vertex -64.5087 64.0177 -6.35
      vertex -64.5087 64.0177 6.35
      vertex -64.346 64.2116 6.35
    endloop
  endfacet
  facet normal -0.826236 0.563325 0
    outer loop
      vertex -64.6514 63.8084 6.35
      vertex -64.5087 64.0177 6.35
      vertex -64.5087 64.0177 -6.35
    endloop
  endfacet
  facet normal -0.766047 0.642784 0
    outer loop
      vertex -64.346 64.2116 6.35
      vertex -64.346 64.2116 -6.35
      vertex -64.5087 64.0177 -6.35
    endloop
  endfacet
  facet normal -0.698166 0.715936 0
    outer loop
      vertex -64.1647 64.3884 -6.35
      vertex -64.346 64.2116 -6.35
      vertex -64.346 64.2116 6.35
    endloop
  endfacet
  facet normal 0 0 -1
    outer loop
      vertex -63.0492 64.9603 -6.35
      vertex -62.7998 65.0043 -6.35
      vertex -62.5473 65.0232 -6.35
    endloop
  endfacet
  facet normal -0.17374 0.984792 0
    outer loop
      vertex -62.7998 65.0043 -1.27
      vertex -62.7998 65.0043 -6.35
      vertex -63.0492 64.9603 -6.35
    endloop
  endfacet
  facet normal -0.27086 0.962619 0
    outer loop
      vertex -63.293 64.8917 -6.35
      vertex -63.293 64.8917 6.35
      vertex -63.0492 64.9603 6.35
    endloop
  endfacet
  facet normal 0 0 1
    outer loop
      vertex -62.5473 65.0232 6.35
      vertex -63.0492 64.9603 6.35
      vertex -63.5287 64.7992 6.35
    endloop
  endfacet
  facet normal -0.542613 0.839983 0
    outer loop
      vertex -63.754 64.6837 -6.35
      vertex -63.9667 64.5463 -6.35
      vertex -63.9667 64.5463 6.35
    endloop
  endfacet
  facet normal 0 0 -1
    outer loop
      vertex -64.1647 64.3884 -6.35
      vertex -63.9667 64.5463 -6.35
      vertex -63.754 64.6837 -6.35
    endloop
  endfacet
  facet normal 0 0 1
    outer loop
      vertex -63.5287 64.7992 6.35
      vertex -63.754 64.6837 6.35
      vertex -63.9667 64.5463 6.35
    endloop
  endfacet
  facet normal -0.456196 0.889879 0
    outer loop
      vertex -63.754 64.6837 -6.35
      vertex -63.754 64.6837 6.35
      vertex -63.5287 64.7992 6.35
    endloop
  endfacet
  facet normal -0.27086 0.962619 0
    outer loop
      vertex -63.0492 64.9603 -6.35
      vertex -63.293 64.8917 -6.35
      vertex -63.0492 64.9603 6.35
    endloop
  endfacet
  facet normal 0 0 -1
    outer loop
      vertex -63.754 64.6837 -6.35
      vertex -63.293 64.8917 -6.35
      vertex -63.0492 64.9603 -6.35
    endloop
  endfacet
  facet normal 0.583961 0.811781 0
    outer loop
      vertex 64.0677 64.4698 -1.27
      vertex 64.0677 64.4698 -6.35
      vertex 63.8621 64.6177 -6.35
    endloop
  endfacet
  facet normal 0.661687 0.74978 0
    outer loop
      vertex 64.2575 64.3023 -6.35
      vertex 64.0677 64.4698 -6.35
      vertex 64.0677 64.4698 -1.27
    endloop
  endfacet
  facet normal -0.456196 -0.889879 -0
    outer loop
      vertex -63.754 -64.6837 1.26998
      vertex -63.754 -64.6837 -6.35
      vertex -63.5287 -64.7992 1.26998
    endloop
  endfacet
  facet normal -0.542613 -0.839983 0
    outer loop
      vertex -63.9667 -64.5463 -6.35
      vertex -63.754 -64.6837 -6.35
      vertex -63.754 -64.6837 1.26998
    endloop
  endfacet
  facet normal 0.499962 -0.866047 0
    outer loop
      vertex 63.8621 -64.6177 -6.35
      vertex 63.8621 -64.6177 6.35
      vertex 63.6428 -64.7443 6.35
    endloop
  endfacet
  facet normal 0.583701 -0.811969 0
    outer loop
      vertex 64.0677 -64.4699 6.35
      vertex 63.8621 -64.6177 6.35
      vertex 63.8621 -64.6177 -6.35
    endloop
  endfacet
  facet normal 0.661909 -0.749584 0
    outer loop
      vertex 64.2575 -64.3023 -6.35
      vertex 64.2575 -64.3023 6.35
      vertex 64.0677 -64.4699 6.35
    endloop
  endfacet
  facet normal 0.733075 -0.680148 0
    outer loop
      vertex 64.4297 -64.1167 6.35
      vertex 64.2575 -64.3023 6.35
      vertex 64.2575 -64.3023 -6.35
    endloop
  endfacet
  facet normal 0.901116 -0.433578 0
    outer loop
      vertex 64.8245 -63.4706 6.35
      vertex 64.7147 -63.6988 6.35
      vertex 64.7147 -63.6988 -6.35
    endloop
  endfacet
  facet normal 0 0 1
    outer loop
      vertex 64.4297 -64.1167 6.35
      vertex 64.7147 -63.6988 6.35
      vertex 64.8245 -63.4706 6.35
    endloop
  endfacet
  facet normal 0.969065 -0.246807 0
    outer loop
      vertex 64.9111 -63.2327 1.26998
      vertex 64.9736 -62.9873 -6.35
      vertex 64.9736 -62.9873 6.35
    endloop
  endfacet
  facet normal 0.939678 -0.34206 0
    outer loop
      vertex 64.8245 -63.4706 -6.35
      vertex 64.9111 -63.2327 -6.35
      vertex 64.9111 -63.2327 1.26998
    endloop
  endfacet
  facet normal 0.988797 -0.149267 0
    outer loop
      vertex 65.0114 -62.7369 -1.27
      vertex 65.0114 -62.7369 6.35
      vertex 64.9736 -62.9873 6.35
    endloop
  endfacet
  facet normal 0.998761 -0.0497603 0
    outer loop
      vertex 65.024 -62.484 6.35
      vertex 65.0114 -62.7369 6.35
      vertex 65.0114 -62.7369 -1.27
    endloop
  endfacet
  facet normal 0.318596 -0.947891 0
    outer loop
      vertex 63.412 -64.8484 6.35
      vertex 63.1719 -64.9291 6.35
      vertex 63.1719 -64.9291 1.26998
    endloop
  endfacet
  facet normal 0 0 1
    outer loop
      vertex 62.925 -64.9854 6.35
      vertex 63.1719 -64.9291 6.35
      vertex 63.412 -64.8484 6.35
    endloop
  endfacet
  facet normal 0.0248836 -0.99969 0
    outer loop
      vertex 62.6738 -65.0169 1.26998
      vertex 62.6738 -65.0169 6.35
      vertex 62.4207 -65.0232 6.35
    endloop
  endfacet
  facet normal 0.124424 -0.992229 0
    outer loop
      vertex 62.925 -64.9854 6.35
      vertex 62.6738 -65.0169 6.35
      vertex 62.6738 -65.0169 1.26998
    endloop
  endfacet
  facet normal -0.878152 -0.478382 -0
    outer loop
      vertex -64.7725 -63.5861 6.35
      vertex -64.7725 -63.5861 -6.35
      vertex -64.6514 -63.8084 -6.35
    endloop
  endfacet
  facet normal -0.921598 -0.388145 0
    outer loop
      vertex -64.8708 -63.3527 -6.35
      vertex -64.7725 -63.5861 -6.35
      vertex -64.7725 -63.5861 6.35
    endloop
  endfacet
  facet normal -0.98023 -0.197863 -0
    outer loop
      vertex -64.9956 -62.8626 6.35
      vertex -64.9956 -62.8626 -6.35
      vertex -64.9455 -63.1108 -6.35
    endloop
  endfacet
  facet normal -0.994998 -0.0998946 0
    outer loop
      vertex -65.0209 -62.6106 -6.35
      vertex -64.9956 -62.8626 -6.35
      vertex -64.9956 -62.8626 6.35
    endloop
  endfacet
  facet normal 0 0 1
    outer loop
      vertex -64.8708 63.3527 6.35
      vertex -64.9455 63.1107 6.35
      vertex -64.9956 62.8625 6.35
    endloop
  endfacet
  facet normal -0.955514 0.294946 0
    outer loop
      vertex -64.9455 63.1107 -1.27
      vertex -64.9455 63.1107 6.35
      vertex -64.8708 63.3527 6.35
    endloop
  endfacet
  facet normal -0.878152 0.478382 0
    outer loop
      vertex -64.6514 63.8084 -6.35
      vertex -64.7725 63.5861 -6.35
      vertex -64.7725 63.5861 6.35
    endloop
  endfacet
  facet normal 0 0 -1
    outer loop
      vertex -64.9956 62.8625 -6.35
      vertex -64.8708 63.3527 -6.35
      vertex -64.6514 63.8084 -6.35
    endloop
  endfacet
  facet normal -0.17374 0.984792 0
    outer loop
      vertex -63.0492 64.9603 6.35
      vertex -62.7998 65.0043 6.35
      vertex -62.7998 65.0043 -1.27
    endloop
  endfacet
  facet normal 0 0 1
    outer loop
      vertex -62.5473 65.0232 6.35
      vertex -62.7998 65.0043 6.35
      vertex -63.0492 64.9603 6.35
    endloop
  endfacet
  facet normal -0.365322 0.930881 0
    outer loop
      vertex -63.293 64.8917 -6.35
      vertex -63.5287 64.7992 -6.35
      vertex -63.5287 64.7992 6.35
    endloop
  endfacet
  facet normal 0 0 -1
    outer loop
      vertex -63.754 64.6837 -6.35
      vertex -63.5287 64.7992 -6.35
      vertex -63.293 64.8917 -6.35
    endloop
  endfacet
  facet normal -0.365322 0.930881 0
    outer loop
      vertex -63.5287 64.7992 6.35
      vertex -63.293 64.8917 6.35
      vertex -63.293 64.8917 -6.35
    endloop
  endfacet
  facet normal 0 0 1
    outer loop
      vertex -63.0492 64.9603 6.35
      vertex -63.293 64.8917 6.35
      vertex -63.5287 64.7992 6.35
    endloop
  endfacet
  facet normal 0 0 -1
    outer loop
      vertex -63.293 -64.8917 -6.35
      vertex -63.5287 -64.7992 -6.35
      vertex -63.754 -64.6837 -6.35
    endloop
  endfacet
  facet normal -0.365322 -0.930881 -0
    outer loop
      vertex -63.5287 -64.7992 1.26998
      vertex -63.5287 -64.7992 -6.35
      vertex -63.293 -64.8917 -6.35
    endloop
  endfacet
  facet normal 0.853106 -0.521738 0
    outer loop
      vertex 64.7147 -63.6988 6.35
      vertex 64.5826 -63.9148 6.35
      vertex 64.5826 -63.9148 -6.35
    endloop
  endfacet
  facet normal 0 0 1
    outer loop
      vertex 64.4297 -64.1167 6.35
      vertex 64.5826 -63.9148 6.35
      vertex 64.7147 -63.6988 6.35
    endloop
  endfacet
  facet normal 0.939678 -0.34206 0
    outer loop
      vertex 64.9111 -63.2327 1.26998
      vertex 64.9111 -63.2327 6.35
      vertex 64.8245 -63.4706 6.35
    endloop
  endfacet
  facet normal 0.969065 -0.246807 0
    outer loop
      vertex 64.9736 -62.9873 6.35
      vertex 64.9111 -63.2327 6.35
      vertex 64.9111 -63.2327 1.26998
    endloop
  endfacet
  facet normal 0 0 -1
    outer loop
      vertex 65.0114 -62.7369 -6.35
      vertex 64.9736 -62.9873 -6.35
      vertex 64.8245 -63.4706 -6.35
    endloop
  endfacet
  facet normal 0.988797 -0.149267 0
    outer loop
      vertex 64.9736 -62.9873 6.35
      vertex 64.9736 -62.9873 -6.35
      vertex 65.0114 -62.7369 -6.35
    endloop
  endfacet
  facet normal -0.955514 0.294946 0
    outer loop
      vertex -64.8708 63.3527 -6.35
      vertex -64.9455 63.1107 -6.35
      vertex -64.9455 63.1107 -1.27
    endloop
  endfacet
  facet normal 0 0 -1
    outer loop
      vertex -64.9956 62.8625 -6.35
      vertex -64.9455 63.1107 -6.35
      vertex -64.8708 63.3527 -6.35
    endloop
  endfacet
  facet normal 0 0 -1
    outer loop
      vertex -64.8708 63.3527 -6.35
      vertex -64.7725 63.5861 -6.35
      vertex -64.6514 63.8084 -6.35
    endloop
  endfacet
  facet normal -0.921598 0.388145 0
    outer loop
      vertex -64.7725 63.5861 6.35
      vertex -64.7725 63.5861 -6.35
      vertex -64.8708 63.3527 -6.35
    endloop
  endfacet
  facet normal 0 0 -1
    outer loop
      vertex 64.9736 -62.9873 -6.35
      vertex 64.9111 -63.2327 -6.35
      vertex 64.8245 -63.4706 -6.35
    endloop
  endfacet
  facet normal 0.969065 -0.246807 0
    outer loop
      vertex 64.9111 -63.2327 1.26998
      vertex 64.9111 -63.2327 -6.35
      vertex 64.9736 -62.9873 -6.35
    endloop
  endfacet
endsolid OpenSCAD_Model
