solid OpenSCAD_Model
  facet normal 0.998761 0.0497603 0
    outer loop
      vertex 77.2034 55.8789 13.716
      vertex 77.216 55.626 13.716
      vertex 77.2034 55.8789 8.63598
    endloop
  endfacet
  facet normal -0 0 -1
    outer loop
      vertex 76.4495 -57.4443 -13.716
      vertex -74.7393 -58.1652 -13.716
      vertex 74.6127 58.1652 -13.716
    endloop
  endfacet
  facet normal 0 1 0
    outer loop
      vertex -74.7393 58.1652 8.63598
      vertex 74.6127 58.1652 13.716
      vertex 74.6127 58.1652 8.63598
    endloop
  endfacet
  facet normal 0 0 1
    outer loop
      vertex -76.1587 -57.6883 13.716
      vertex 77.216 55.626 13.716
      vertex 77.2034 55.8789 13.716
    endloop
  endfacet
  facet normal 0 1 0
    outer loop
      vertex 74.6127 58.1652 -13.716
      vertex -74.7393 58.1652 -13.716
      vertex -74.7393 58.1652 8.63598
    endloop
  endfacet
  facet normal 0 1 0
    outer loop
      vertex 74.6127 58.1652 8.63598
      vertex 74.6127 58.1652 -13.716
      vertex -74.7393 58.1652 8.63598
    endloop
  endfacet
  facet normal 0.901116 0.433578 0
    outer loop
      vertex 76.9067 56.8408 8.63598
      vertex 77.0165 56.6126 13.716
      vertex 76.9067 56.8408 -13.716
    endloop
  endfacet
  facet normal 0.988797 0.149267 -0
    outer loop
      vertex 77.2034 55.8789 -13.716
      vertex 77.1656 56.1293 8.63598
      vertex 77.2034 55.8789 8.63598
    endloop
  endfacet
  facet normal 1 -0 0
    outer loop
      vertex 77.216 -55.626 8.63598
      vertex 77.216 55.626 -13.716
      vertex 77.216 55.626 13.716
    endloop
  endfacet
  facet normal 0 -1 0
    outer loop
      vertex -74.7393 -58.1652 -13.716
      vertex 74.6127 -58.1652 -13.716
      vertex 74.6127 -58.1652 8.63598
    endloop
  endfacet
  facet normal 0 0 1
    outer loop
      vertex 76.2597 -57.6119 13.716
      vertex 77.0165 -56.6126 13.716
      vertex 77.216 55.626 13.716
    endloop
  endfacet
  facet normal 1 0 0
    outer loop
      vertex 77.216 55.626 13.716
      vertex 77.216 -55.626 13.716
      vertex 77.216 -55.626 8.63598
    endloop
  endfacet
  facet normal -0 0 1
    outer loop
      vertex -76.1587 -57.6883 13.716
      vertex 74.6127 -58.1652 13.716
      vertex 76.2597 -57.6119 13.716
    endloop
  endfacet
  facet normal 0 0 1
    outer loop
      vertex 77.2034 55.8789 13.716
      vertex 74.6127 58.1652 13.716
      vertex -76.1587 -57.6883 13.716
    endloop
  endfacet
  facet normal 0.661687 0.74978 0
    outer loop
      vertex 76.4495 57.4443 13.716
      vertex 76.4495 57.4443 -13.716
      vertex 76.2597 57.6118 -13.716
    endloop
  endfacet
  facet normal 0.583961 0.811781 -0
    outer loop
      vertex 76.2597 57.6118 -13.716
      vertex 76.0541 57.7597 8.63598
      vertex 76.2597 57.6118 8.63598
    endloop
  endfacet
  facet normal 0.0248836 0.99969 0
    outer loop
      vertex 74.8658 58.1589 13.716
      vertex 74.8658 58.1589 -13.716
      vertex 74.6127 58.1652 -13.716
    endloop
  endfacet
  facet normal 0 0 -1
    outer loop
      vertex 74.6127 58.1652 -13.716
      vertex 76.2597 57.6118 -13.716
      vertex 77.2034 55.8789 -13.716
    endloop
  endfacet
  facet normal 0.998761 0.0497603 0
    outer loop
      vertex 77.216 55.626 13.716
      vertex 77.216 55.626 -13.716
      vertex 77.2034 55.8789 -13.716
    endloop
  endfacet
  facet normal 0.998761 0.0497603 0
    outer loop
      vertex 77.2034 55.8789 8.63598
      vertex 77.216 55.626 13.716
      vertex 77.2034 55.8789 -13.716
    endloop
  endfacet
  facet normal 0 0 -1
    outer loop
      vertex 76.4495 -57.4443 -13.716
      vertex 74.6127 -58.1652 -13.716
      vertex -74.7393 -58.1652 -13.716
    endloop
  endfacet
  facet normal -0 0 -1
    outer loop
      vertex 77.2034 55.8789 -13.716
      vertex 76.4495 -57.4443 -13.716
      vertex 74.6127 58.1652 -13.716
    endloop
  endfacet
  facet normal 0 0 1
    outer loop
      vertex 74.6127 58.1652 13.716
      vertex -76.1587 57.6883 13.716
      vertex -76.1587 -57.6883 13.716
    endloop
  endfacet
  facet normal 0 0 -1
    outer loop
      vertex -76.1587 57.6883 -13.716
      vertex -74.7393 58.1652 -13.716
      vertex 74.6127 58.1652 -13.716
    endloop
  endfacet
  facet normal 0.0248836 0.99969 0
    outer loop
      vertex 74.6127 58.1652 13.716
      vertex 74.8658 58.1589 13.716
      vertex 74.6127 58.1652 8.63598
    endloop
  endfacet
  facet normal 0.853106 0.521738 -0
    outer loop
      vertex 76.9067 56.8408 -13.716
      vertex 76.7746 57.0568 8.63598
      vertex 76.9067 56.8408 8.63598
    endloop
  endfacet
  facet normal 0 0 1
    outer loop
      vertex 75.604 57.9904 13.716
      vertex 75.1171 58.1274 13.716
      vertex 74.6127 58.1652 13.716
    endloop
  endfacet
  facet normal 0 0 1
    outer loop
      vertex 77.2034 55.8789 13.716
      vertex 75.604 57.9904 13.716
      vertex 74.6127 58.1652 13.716
    endloop
  endfacet
  facet normal 0.583961 0.811781 -0
    outer loop
      vertex 76.0541 57.7597 8.63598
      vertex 76.0541 57.7597 13.716
      vertex 76.2597 57.6118 8.63598
    endloop
  endfacet
  facet normal 0 0 -1
    outer loop
      vertex 76.2597 57.6118 -13.716
      vertex 76.9067 56.8408 -13.716
      vertex 77.2034 55.8789 -13.716
    endloop
  endfacet
  facet normal 0 0 1
    outer loop
      vertex -76.1587 -57.6883 13.716
      vertex 76.2597 -57.6119 13.716
      vertex 77.216 55.626 13.716
    endloop
  endfacet
  facet normal 0.0248836 -0.99969 0
    outer loop
      vertex 74.6127 -58.1652 -13.716
      vertex 74.8658 -58.1589 13.716
      vertex 74.6127 -58.1652 8.63598
    endloop
  endfacet
  facet normal 0.998761 -0.0497603 0
    outer loop
      vertex 77.216 -55.626 13.716
      vertex 77.2034 -55.8789 -13.716
      vertex 77.216 -55.626 8.63598
    endloop
  endfacet
  facet normal 0 -0 -1
    outer loop
      vertex 77.2034 55.8789 -13.716
      vertex 77.216 55.626 -13.716
      vertex 76.4495 -57.4443 -13.716
    endloop
  endfacet
  facet normal 0 0 1
    outer loop
      vertex -76.1587 57.6883 13.716
      vertex -77.2129 -55.7526 13.716
      vertex -76.1587 -57.6883 13.716
    endloop
  endfacet
  facet normal 0 0 -1
    outer loop
      vertex -74.7393 -58.1652 -13.716
      vertex -76.1587 57.6883 -13.716
      vertex 74.6127 58.1652 -13.716
    endloop
  endfacet
  facet normal 0 0 1
    outer loop
      vertex 74.6127 58.1652 13.716
      vertex -74.7393 58.1652 13.716
      vertex -76.1587 57.6883 13.716
    endloop
  endfacet
  facet normal 0 1 0
    outer loop
      vertex -74.7393 58.1652 8.63598
      vertex -74.7393 58.1652 13.716
      vertex 74.6127 58.1652 13.716
    endloop
  endfacet
  facet normal 0.988797 0.149267 -0
    outer loop
      vertex 77.1656 56.1293 8.63598
      vertex 77.1656 56.1293 13.716
      vertex 77.2034 55.8789 13.716
    endloop
  endfacet
  facet normal 0.939678 0.34206 0
    outer loop
      vertex 77.1031 56.3747 8.63598
      vertex 77.1031 56.3747 -13.716
      vertex 77.0165 56.6126 13.716
    endloop
  endfacet
  facet normal 0.499962 0.866047 0
    outer loop
      vertex 75.8348 57.8863 -13.716
      vertex 76.0541 57.7597 13.716
      vertex 76.0541 57.7597 8.63598
    endloop
  endfacet
  facet normal 0 0 1
    outer loop
      vertex 77.2034 55.8789 13.716
      vertex 76.6217 57.2587 13.716
      vertex 75.604 57.9904 13.716
    endloop
  endfacet
  facet normal 0.318241 0.94801 -0
    outer loop
      vertex 75.604 57.9904 -13.716
      vertex 75.3639 58.071 8.63598
      vertex 75.604 57.9904 13.716
    endloop
  endfacet
  facet normal 0 0 1
    outer loop
      vertex 75.1171 58.1274 13.716
      vertex 74.8658 58.1589 13.716
      vertex 74.6127 58.1652 13.716
    endloop
  endfacet
  facet normal 0.499962 0.866047 -0
    outer loop
      vertex 75.8348 57.8863 -13.716
      vertex 75.8348 57.8863 13.716
      vertex 76.0541 57.7597 13.716
    endloop
  endfacet
  facet normal 0 0 -1
    outer loop
      vertex 74.6127 58.1652 -13.716
      vertex 75.604 57.9904 -13.716
      vertex 76.2597 57.6118 -13.716
    endloop
  endfacet
  facet normal 0 0 -1
    outer loop
      vertex 75.8348 57.8863 -13.716
      vertex 76.0541 57.7597 -13.716
      vertex 76.2597 57.6118 -13.716
    endloop
  endfacet
  facet normal 0 0 1
    outer loop
      vertex 76.6217 57.2587 13.716
      vertex 76.4495 57.4443 13.716
      vertex 75.604 57.9904 13.716
    endloop
  endfacet
  facet normal 0.901116 0.433578 0
    outer loop
      vertex 77.0165 56.6126 13.716
      vertex 77.0165 56.6126 -13.716
      vertex 76.9067 56.8408 -13.716
    endloop
  endfacet
  facet normal 0 0 -1
    outer loop
      vertex 76.9067 56.8408 -13.716
      vertex 77.1031 56.3747 -13.716
      vertex 77.2034 55.8789 -13.716
    endloop
  endfacet
  facet normal 0.661909 -0.749584 0
    outer loop
      vertex 76.2597 -57.6119 13.716
      vertex 76.2597 -57.6119 -8.636
      vertex 76.4495 -57.4443 -13.716
    endloop
  endfacet
  facet normal 0.583701 -0.811969 0
    outer loop
      vertex 76.0541 -57.7597 -8.636
      vertex 76.0541 -57.7597 -13.716
      vertex 76.2597 -57.6119 -8.636
    endloop
  endfacet
  facet normal 0 0 -1
    outer loop
      vertex 77.1656 -56.1293 -13.716
      vertex 76.9067 -56.8408 -13.716
      vertex 76.4495 -57.4443 -13.716
    endloop
  endfacet
  facet normal 0 0 1
    outer loop
      vertex 77.0165 -56.6126 13.716
      vertex 77.1656 -56.1293 13.716
      vertex 77.216 -55.626 13.716
    endloop
  endfacet
  facet normal 0 0 -1
    outer loop
      vertex -74.7393 -58.1652 -13.716
      vertex -76.3567 -57.5305 -13.716
      vertex -77.2129 -55.7526 -13.716
    endloop
  endfacet
  facet normal -0 -1 0
    outer loop
      vertex 74.6127 -58.1652 8.63598
      vertex 74.6127 -58.1652 13.716
      vertex -74.7393 -58.1652 -13.716
    endloop
  endfacet
  facet normal 0 -0 -1
    outer loop
      vertex 77.216 55.626 -13.716
      vertex 77.216 -55.626 -13.716
      vertex 76.4495 -57.4443 -13.716
    endloop
  endfacet
  facet normal 1 0 0
    outer loop
      vertex 77.216 -55.626 8.63598
      vertex 77.216 -55.626 -13.716
      vertex 77.216 55.626 -13.716
    endloop
  endfacet
  facet normal -0.62349 0.781831 0
    outer loop
      vertex -76.1587 57.6883 -13.716
      vertex -76.3567 57.5304 -13.716
      vertex -76.1587 57.6883 13.716
    endloop
  endfacet
  facet normal 0 0 1
    outer loop
      vertex -75.485 58.0337 13.716
      vertex -75.946 57.8257 13.716
      vertex -76.1587 57.6883 13.716
    endloop
  endfacet
  facet normal 0 0 1
    outer loop
      vertex -74.7393 58.1652 13.716
      vertex -75.485 58.0337 13.716
      vertex -76.1587 57.6883 13.716
    endloop
  endfacet
  facet normal -0.27086 0.962619 0
    outer loop
      vertex -75.485 58.0337 13.716
      vertex -75.2412 58.1023 13.716
      vertex -75.485 58.0337 -13.716
    endloop
  endfacet
  facet normal 0.969065 0.246807 0
    outer loop
      vertex 77.1031 56.3747 8.63598
      vertex 77.1656 56.1293 13.716
      vertex 77.1656 56.1293 8.63598
    endloop
  endfacet
  facet normal 0.988797 0.149267 -0
    outer loop
      vertex 77.2034 55.8789 8.63598
      vertex 77.1656 56.1293 8.63598
      vertex 77.2034 55.8789 13.716
    endloop
  endfacet
  facet normal 0.853106 0.521738 0
    outer loop
      vertex 76.7746 57.0568 8.63598
      vertex 76.9067 56.8408 13.716
      vertex 76.9067 56.8408 8.63598
    endloop
  endfacet
  facet normal 0 0 1
    outer loop
      vertex 77.2034 55.8789 13.716
      vertex 77.0165 56.6126 13.716
      vertex 76.6217 57.2587 13.716
    endloop
  endfacet
  facet normal 0.733075 0.680148 0
    outer loop
      vertex 76.6217 57.2587 13.716
      vertex 76.6217 57.2587 -13.716
      vertex 76.4495 57.4443 13.716
    endloop
  endfacet
  facet normal 0.661687 0.74978 0
    outer loop
      vertex 76.2597 57.6118 8.63598
      vertex 76.4495 57.4443 13.716
      vertex 76.2597 57.6118 -13.716
    endloop
  endfacet
  facet normal 0.124375 0.992235 0
    outer loop
      vertex 75.1171 58.1274 13.716
      vertex 75.1171 58.1274 -13.716
      vertex 74.8658 58.1589 13.716
    endloop
  endfacet
  facet normal 0.0248836 0.99969 0
    outer loop
      vertex 74.6127 58.1652 8.63598
      vertex 74.8658 58.1589 13.716
      vertex 74.6127 58.1652 -13.716
    endloop
  endfacet
  facet normal 0 0 -1
    outer loop
      vertex 75.1171 58.1274 -13.716
      vertex 75.3639 58.071 -13.716
      vertex 75.604 57.9904 -13.716
    endloop
  endfacet
  facet normal 0 0 -1
    outer loop
      vertex 74.6127 58.1652 -13.716
      vertex 75.1171 58.1274 -13.716
      vertex 75.604 57.9904 -13.716
    endloop
  endfacet
  facet normal 0.222782 0.974868 0
    outer loop
      vertex 75.1171 58.1274 13.716
      vertex 75.3639 58.071 8.63598
      vertex 75.1171 58.1274 -13.716
    endloop
  endfacet
  facet normal 0.318241 0.94801 -0
    outer loop
      vertex 75.3639 58.071 8.63598
      vertex 75.3639 58.071 13.716
      vertex 75.604 57.9904 13.716
    endloop
  endfacet
  facet normal 0 0 -1
    outer loop
      vertex 75.604 57.9904 -13.716
      vertex 75.8348 57.8863 -13.716
      vertex 76.2597 57.6118 -13.716
    endloop
  endfacet
  facet normal 0.411153 0.911566 0
    outer loop
      vertex 75.604 57.9904 13.716
      vertex 75.8348 57.8863 -13.716
      vertex 75.604 57.9904 -13.716
    endloop
  endfacet
  facet normal 0 0 -1
    outer loop
      vertex 76.6217 57.2587 -13.716
      vertex 76.7746 57.0568 -13.716
      vertex 76.9067 56.8408 -13.716
    endloop
  endfacet
  facet normal 0 0 -1
    outer loop
      vertex 76.2597 57.6118 -13.716
      vertex 76.6217 57.2587 -13.716
      vertex 76.9067 56.8408 -13.716
    endloop
  endfacet
  facet normal 0.797196 0.603721 0
    outer loop
      vertex 76.6217 57.2587 13.716
      vertex 76.7746 57.0568 8.63598
      vertex 76.6217 57.2587 -13.716
    endloop
  endfacet
  facet normal 0.853106 0.521738 -0
    outer loop
      vertex 76.7746 57.0568 8.63598
      vertex 76.7746 57.0568 13.716
      vertex 76.9067 56.8408 13.716
    endloop
  endfacet
  facet normal 0.969065 0.246807 0
    outer loop
      vertex 77.1656 56.1293 8.63598
      vertex 77.1031 56.3747 -13.716
      vertex 77.1031 56.3747 8.63598
    endloop
  endfacet
  facet normal 0 0 -1
    outer loop
      vertex 77.1031 56.3747 -13.716
      vertex 77.1656 56.1293 -13.716
      vertex 77.2034 55.8789 -13.716
    endloop
  endfacet
  facet normal 0.661909 -0.749584 0
    outer loop
      vertex 76.2597 -57.6119 -8.636
      vertex 76.2597 -57.6119 -13.716
      vertex 76.4495 -57.4443 -13.716
    endloop
  endfacet
  facet normal 0 0 1
    outer loop
      vertex 74.6127 -58.1652 13.716
      vertex 76.0541 -57.7597 13.716
      vertex 76.2597 -57.6119 13.716
    endloop
  endfacet
  facet normal 0.583701 -0.811969 0
    outer loop
      vertex 76.2597 -57.6119 13.716
      vertex 76.0541 -57.7597 13.716
      vertex 76.0541 -57.7597 -8.636
    endloop
  endfacet
  facet normal 0.318596 -0.947891 0
    outer loop
      vertex 75.604 -57.9904 -13.716
      vertex 75.604 -57.9904 -8.636
      vertex 75.3639 -58.0711 8.63598
    endloop
  endfacet
  facet normal 0 0 1
    outer loop
      vertex 77.0165 -56.6126 13.716
      vertex 77.216 -55.626 13.716
      vertex 77.216 55.626 13.716
    endloop
  endfacet
  facet normal 0 0 1
    outer loop
      vertex 77.0165 -56.6126 13.716
      vertex 77.1031 -56.3747 13.716
      vertex 77.1656 -56.1293 13.716
    endloop
  endfacet
  facet normal 0 0 1
    outer loop
      vertex 76.2597 -57.6119 13.716
      vertex 76.6217 -57.2587 13.716
      vertex 77.0165 -56.6126 13.716
    endloop
  endfacet
  facet normal 0.733075 -0.680148 0
    outer loop
      vertex 76.6217 -57.2587 13.716
      vertex 76.4495 -57.4443 13.716
      vertex 76.4495 -57.4443 -13.716
    endloop
  endfacet
  facet normal 0.318596 -0.947891 0
    outer loop
      vertex 75.604 -57.9904 -8.636
      vertex 75.604 -57.9904 13.716
      vertex 75.3639 -58.0711 8.63598
    endloop
  endfacet
  facet normal 0.0248836 -0.99969 0
    outer loop
      vertex 74.6127 -58.1652 -13.716
      vertex 74.8658 -58.1589 -13.716
      vertex 74.8658 -58.1589 13.716
    endloop
  endfacet
  facet normal -0 -1 0
    outer loop
      vertex 74.6127 -58.1652 13.716
      vertex -74.7393 -58.1652 13.716
      vertex -74.7393 -58.1652 -13.716
    endloop
  endfacet
  facet normal 0 0 1
    outer loop
      vertex -76.1587 -57.6883 13.716
      vertex -74.7393 -58.1652 13.716
      vertex 74.6127 -58.1652 13.716
    endloop
  endfacet
  facet normal 0 0 -1
    outer loop
      vertex 77.216 -55.626 -13.716
      vertex 77.1656 -56.1293 -13.716
      vertex 76.4495 -57.4443 -13.716
    endloop
  endfacet
  facet normal 0.969065 -0.246807 0
    outer loop
      vertex 77.1656 -56.1293 13.716
      vertex 77.1031 -56.3747 8.63598
      vertex 77.1656 -56.1293 -13.716
    endloop
  endfacet
  facet normal 0 0 -1
    outer loop
      vertex -76.1587 57.6883 -13.716
      vertex -75.485 58.0337 -13.716
      vertex -74.7393 58.1652 -13.716
    endloop
  endfacet
  facet normal -0.0746427 0.99721 0
    outer loop
      vertex -74.7393 58.1652 -13.716
      vertex -74.9918 58.1463 13.716
      vertex -74.7393 58.1652 8.63598
    endloop
  endfacet
  facet normal 0 0 -1
    outer loop
      vertex -74.7393 -58.1652 -13.716
      vertex -77.2129 -55.7526 -13.716
      vertex -76.1587 57.6883 -13.716
    endloop
  endfacet
  facet normal 0 0 1
    outer loop
      vertex -77.2129 -55.7526 13.716
      vertex -76.8434 -56.9505 13.716
      vertex -76.1587 -57.6883 13.716
    endloop
  endfacet
  facet normal 0 0 1
    outer loop
      vertex -75.485 58.0337 13.716
      vertex -75.7207 57.9412 13.716
      vertex -75.946 57.8257 13.716
    endloop
  endfacet
  facet normal -0.542613 0.839983 0
    outer loop
      vertex -76.1587 57.6883 13.716
      vertex -75.946 57.8257 13.716
      vertex -76.1587 57.6883 -13.716
    endloop
  endfacet
  facet normal 0.969065 0.246807 -0
    outer loop
      vertex 77.1031 56.3747 8.63598
      vertex 77.1031 56.3747 13.716
      vertex 77.1656 56.1293 13.716
    endloop
  endfacet
  facet normal 0 0 1
    outer loop
      vertex 77.2034 55.8789 13.716
      vertex 77.1656 56.1293 13.716
      vertex 77.0165 56.6126 13.716
    endloop
  endfacet
  facet normal 0 0 1
    outer loop
      vertex 77.0165 56.6126 13.716
      vertex 76.9067 56.8408 13.716
      vertex 76.6217 57.2587 13.716
    endloop
  endfacet
  facet normal 0.901116 0.433578 -0
    outer loop
      vertex 76.9067 56.8408 8.63598
      vertex 76.9067 56.8408 13.716
      vertex 77.0165 56.6126 13.716
    endloop
  endfacet
  facet normal 0 0 1
    outer loop
      vertex 76.4495 57.4443 13.716
      vertex 76.0541 57.7597 13.716
      vertex 75.604 57.9904 13.716
    endloop
  endfacet
  facet normal 0.583961 0.811781 0
    outer loop
      vertex 76.0541 57.7597 13.716
      vertex 76.2597 57.6118 13.716
      vertex 76.2597 57.6118 8.63598
    endloop
  endfacet
  facet normal 0.124375 0.992235 0
    outer loop
      vertex 75.1171 58.1274 -13.716
      vertex 74.8658 58.1589 -13.716
      vertex 74.8658 58.1589 13.716
    endloop
  endfacet
  facet normal 0 0 -1
    outer loop
      vertex 74.6127 58.1652 -13.716
      vertex 74.8658 58.1589 -13.716
      vertex 75.1171 58.1274 -13.716
    endloop
  endfacet
  facet normal 0.222782 0.974868 0
    outer loop
      vertex 75.3639 58.071 8.63598
      vertex 75.3639 58.071 -13.716
      vertex 75.1171 58.1274 -13.716
    endloop
  endfacet
  facet normal 0.318241 0.94801 0
    outer loop
      vertex 75.604 57.9904 -13.716
      vertex 75.3639 58.071 -13.716
      vertex 75.3639 58.071 8.63598
    endloop
  endfacet
  facet normal 0.222782 0.974868 0
    outer loop
      vertex 75.1171 58.1274 13.716
      vertex 75.3639 58.071 13.716
      vertex 75.3639 58.071 8.63598
    endloop
  endfacet
  facet normal 0 0 1
    outer loop
      vertex 75.604 57.9904 13.716
      vertex 75.3639 58.071 13.716
      vertex 75.1171 58.1274 13.716
    endloop
  endfacet
  facet normal 0.499962 0.866047 0
    outer loop
      vertex 76.0541 57.7597 8.63598
      vertex 76.0541 57.7597 -13.716
      vertex 75.8348 57.8863 -13.716
    endloop
  endfacet
  facet normal 0.583961 0.811781 0
    outer loop
      vertex 76.2597 57.6118 -13.716
      vertex 76.0541 57.7597 -13.716
      vertex 76.0541 57.7597 8.63598
    endloop
  endfacet
  facet normal 0.733075 0.680148 0
    outer loop
      vertex 76.6217 57.2587 -13.716
      vertex 76.4495 57.4443 -13.716
      vertex 76.4495 57.4443 13.716
    endloop
  endfacet
  facet normal 0 0 -1
    outer loop
      vertex 76.2597 57.6118 -13.716
      vertex 76.4495 57.4443 -13.716
      vertex 76.6217 57.2587 -13.716
    endloop
  endfacet
  facet normal 0.797196 0.603721 0
    outer loop
      vertex 76.7746 57.0568 8.63598
      vertex 76.7746 57.0568 -13.716
      vertex 76.6217 57.2587 -13.716
    endloop
  endfacet
  facet normal 0.853106 0.521738 0
    outer loop
      vertex 76.9067 56.8408 -13.716
      vertex 76.7746 57.0568 -13.716
      vertex 76.7746 57.0568 8.63598
    endloop
  endfacet
  facet normal 0.939678 0.34206 0
    outer loop
      vertex 77.1031 56.3747 -13.716
      vertex 77.0165 56.6126 -13.716
      vertex 77.0165 56.6126 13.716
    endloop
  endfacet
  facet normal 0 0 -1
    outer loop
      vertex 76.9067 56.8408 -13.716
      vertex 77.0165 56.6126 -13.716
      vertex 77.1031 56.3747 -13.716
    endloop
  endfacet
  facet normal 0.969065 0.246807 0
    outer loop
      vertex 77.1656 56.1293 8.63598
      vertex 77.1656 56.1293 -13.716
      vertex 77.1031 56.3747 -13.716
    endloop
  endfacet
  facet normal 0.988797 0.149267 0
    outer loop
      vertex 77.2034 55.8789 -13.716
      vertex 77.1656 56.1293 -13.716
      vertex 77.1656 56.1293 8.63598
    endloop
  endfacet
  facet normal 0.222406 -0.974954 0
    outer loop
      vertex 75.3639 -58.0711 8.63598
      vertex 75.3639 -58.0711 13.716
      vertex 75.1171 -58.1274 13.716
    endloop
  endfacet
  facet normal 0 0 -1
    outer loop
      vertex 76.4495 -57.4443 -13.716
      vertex 75.604 -57.9904 -13.716
      vertex 74.6127 -58.1652 -13.716
    endloop
  endfacet
  facet normal 0.583701 -0.811969 0
    outer loop
      vertex 76.0541 -57.7597 -8.636
      vertex 76.2597 -57.6119 -8.636
      vertex 76.2597 -57.6119 13.716
    endloop
  endfacet
  facet normal 0.499962 -0.866047 0
    outer loop
      vertex 75.8348 -57.8863 -8.636
      vertex 76.0541 -57.7597 -13.716
      vertex 76.0541 -57.7597 -8.636
    endloop
  endfacet
  facet normal 0.411153 -0.911566 0
    outer loop
      vertex 75.8348 -57.8863 -8.636
      vertex 75.604 -57.9904 -8.636
      vertex 75.604 -57.9904 -13.716
    endloop
  endfacet
  facet normal 0.499962 -0.866047 0
    outer loop
      vertex 76.0541 -57.7597 -8.636
      vertex 76.0541 -57.7597 13.716
      vertex 75.8348 -57.8863 -8.636
    endloop
  endfacet
  facet normal 0 0 1
    outer loop
      vertex 76.6217 -57.2587 13.716
      vertex 76.7746 -57.0568 13.716
      vertex 76.9067 -56.8408 13.716
    endloop
  endfacet
  facet normal 0.733075 -0.680148 0
    outer loop
      vertex 76.4495 -57.4443 -13.716
      vertex 76.6217 -57.2587 -8.636
      vertex 76.6217 -57.2587 13.716
    endloop
  endfacet
  facet normal 0 0 1
    outer loop
      vertex 76.2597 -57.6119 13.716
      vertex 76.4495 -57.4443 13.716
      vertex 76.6217 -57.2587 13.716
    endloop
  endfacet
  facet normal 0.661909 -0.749584 0
    outer loop
      vertex 76.4495 -57.4443 -13.716
      vertex 76.4495 -57.4443 13.716
      vertex 76.2597 -57.6119 13.716
    endloop
  endfacet
  facet normal 0 0 1
    outer loop
      vertex 74.6127 -58.1652 13.716
      vertex 74.8658 -58.1589 13.716
      vertex 76.0541 -57.7597 13.716
    endloop
  endfacet
  facet normal 0.0248836 -0.99969 0
    outer loop
      vertex 74.6127 -58.1652 8.63598
      vertex 74.8658 -58.1589 13.716
      vertex 74.6127 -58.1652 13.716
    endloop
  endfacet
  facet normal 0 0 1
    outer loop
      vertex -75.485 -58.0337 13.716
      vertex -75.2412 -58.1023 13.716
      vertex -74.7393 -58.1652 13.716
    endloop
  endfacet
  facet normal 0 0 1
    outer loop
      vertex -76.1587 -57.6883 13.716
      vertex -75.485 -58.0337 13.716
      vertex -74.7393 -58.1652 13.716
    endloop
  endfacet
  facet normal 0 0 -1
    outer loop
      vertex 77.216 -55.626 -13.716
      vertex 77.2034 -55.8789 -13.716
      vertex 77.1656 -56.1293 -13.716
    endloop
  endfacet
  facet normal 0.998761 -0.0497603 0
    outer loop
      vertex 77.216 -55.626 8.63598
      vertex 77.2034 -55.8789 -13.716
      vertex 77.216 -55.626 -13.716
    endloop
  endfacet
  facet normal 0.988797 -0.149267 0
    outer loop
      vertex 77.2034 -55.8789 -13.716
      vertex 77.1656 -56.1293 13.716
      vertex 77.1656 -56.1293 -13.716
    endloop
  endfacet
  facet normal 0 0 1
    outer loop
      vertex 77.1656 -56.1293 13.716
      vertex 77.2034 -55.8789 13.716
      vertex 77.216 -55.626 13.716
    endloop
  endfacet
  facet normal -0.456196 0.889879 0
    outer loop
      vertex -75.946 57.8257 13.716
      vertex -75.7207 57.9412 13.716
      vertex -75.946 57.8257 -13.716
    endloop
  endfacet
  facet normal -0.0746427 0.99721 0
    outer loop
      vertex -74.7393 58.1652 -13.716
      vertex -74.9918 58.1463 -13.716
      vertex -74.9918 58.1463 13.716
    endloop
  endfacet
  facet normal 0 0 1
    outer loop
      vertex -74.7393 58.1652 13.716
      vertex -75.2412 58.1023 13.716
      vertex -75.485 58.0337 13.716
    endloop
  endfacet
  facet normal 0 0 -1
    outer loop
      vertex -75.485 58.0337 -13.716
      vertex -75.2412 58.1023 -13.716
      vertex -74.7393 58.1652 -13.716
    endloop
  endfacet
  facet normal 0 0 -1
    outer loop
      vertex -77.2129 -55.7526 -13.716
      vertex -77.2129 55.7526 -13.716
      vertex -76.1587 57.6883 -13.716
    endloop
  endfacet
  facet normal 0 0 1
    outer loop
      vertex -77.2129 -55.7526 13.716
      vertex -77.0628 -56.4947 13.716
      vertex -76.8434 -56.9505 13.716
    endloop
  endfacet
  facet normal -1 0 0
    outer loop
      vertex -77.2129 -55.7526 13.716
      vertex -77.2129 55.7526 -13.716
      vertex -77.2129 -55.7526 -13.716
    endloop
  endfacet
  facet normal -0.62349 0.781831 0
    outer loop
      vertex -76.3567 57.5304 -13.716
      vertex -76.3567 57.5304 13.716
      vertex -76.1587 57.6883 13.716
    endloop
  endfacet
  facet normal -0.623249 -0.782023 0
    outer loop
      vertex -76.3567 -57.5305 -13.716
      vertex -76.1587 -57.6883 -13.716
      vertex -76.1587 -57.6883 13.716
    endloop
  endfacet
  facet normal 0 0 -1
    outer loop
      vertex -74.7393 -58.1652 -13.716
      vertex -75.485 -58.0337 -13.716
      vertex -76.3567 -57.5305 -13.716
    endloop
  endfacet
  facet normal 0.939678 0.34206 0
    outer loop
      vertex 77.0165 56.6126 13.716
      vertex 77.1031 56.3747 13.716
      vertex 77.1031 56.3747 8.63598
    endloop
  endfacet
  facet normal 0 0 1
    outer loop
      vertex 77.1656 56.1293 13.716
      vertex 77.1031 56.3747 13.716
      vertex 77.0165 56.6126 13.716
    endloop
  endfacet
  facet normal 0.797196 0.603721 0
    outer loop
      vertex 76.6217 57.2587 13.716
      vertex 76.7746 57.0568 13.716
      vertex 76.7746 57.0568 8.63598
    endloop
  endfacet
  facet normal 0 0 1
    outer loop
      vertex 76.9067 56.8408 13.716
      vertex 76.7746 57.0568 13.716
      vertex 76.6217 57.2587 13.716
    endloop
  endfacet
  facet normal 0.411153 0.911566 0
    outer loop
      vertex 75.604 57.9904 13.716
      vertex 75.8348 57.8863 13.716
      vertex 75.8348 57.8863 -13.716
    endloop
  endfacet
  facet normal 0 0 1
    outer loop
      vertex 76.0541 57.7597 13.716
      vertex 75.8348 57.8863 13.716
      vertex 75.604 57.9904 13.716
    endloop
  endfacet
  facet normal 0 0 1
    outer loop
      vertex 76.4495 57.4443 13.716
      vertex 76.2597 57.6118 13.716
      vertex 76.0541 57.7597 13.716
    endloop
  endfacet
  facet normal 0.661687 0.74978 -0
    outer loop
      vertex 76.2597 57.6118 8.63598
      vertex 76.2597 57.6118 13.716
      vertex 76.4495 57.4443 13.716
    endloop
  endfacet
  facet normal 0 0 -1
    outer loop
      vertex 76.0541 -57.7597 -13.716
      vertex 75.8348 -57.8863 -13.716
      vertex 75.604 -57.9904 -13.716
    endloop
  endfacet
  facet normal 0 0 -1
    outer loop
      vertex 76.4495 -57.4443 -13.716
      vertex 76.0541 -57.7597 -13.716
      vertex 75.604 -57.9904 -13.716
    endloop
  endfacet
  facet normal 0 0 1
    outer loop
      vertex 75.604 -57.9904 13.716
      vertex 75.8348 -57.8863 13.716
      vertex 76.0541 -57.7597 13.716
    endloop
  endfacet
  facet normal 0.411153 -0.911566 0
    outer loop
      vertex 75.8348 -57.8863 -8.636
      vertex 75.604 -57.9904 13.716
      vertex 75.604 -57.9904 -8.636
    endloop
  endfacet
  facet normal 0 0 -1
    outer loop
      vertex 75.604 -57.9904 -13.716
      vertex 75.1171 -58.1274 -13.716
      vertex 74.6127 -58.1652 -13.716
    endloop
  endfacet
  facet normal 0.222406 -0.974954 0
    outer loop
      vertex 75.1171 -58.1274 -13.716
      vertex 75.3639 -58.0711 -13.716
      vertex 75.3639 -58.0711 8.63598
    endloop
  endfacet
  facet normal 0 0 -1
    outer loop
      vertex 76.9067 -56.8408 -13.716
      vertex 76.7746 -57.0568 -13.716
      vertex 76.4495 -57.4443 -13.716
    endloop
  endfacet
  facet normal 0.853106 -0.521738 0
    outer loop
      vertex 76.9067 -56.8408 13.716
      vertex 76.7746 -57.0568 -13.716
      vertex 76.9067 -56.8408 -13.716
    endloop
  endfacet
  facet normal 0 0 1
    outer loop
      vertex 74.8658 -58.1589 13.716
      vertex 75.604 -57.9904 13.716
      vertex 76.0541 -57.7597 13.716
    endloop
  endfacet
  facet normal 0 0 1
    outer loop
      vertex 74.8658 -58.1589 13.716
      vertex 75.1171 -58.1274 13.716
      vertex 75.604 -57.9904 13.716
    endloop
  endfacet
  facet normal 0 0 -1
    outer loop
      vertex -74.7393 -58.1652 -13.716
      vertex -75.2412 -58.1023 -13.716
      vertex -75.485 -58.0337 -13.716
    endloop
  endfacet
  facet normal 0 0 1
    outer loop
      vertex -75.2412 -58.1023 13.716
      vertex -74.9918 -58.1463 13.716
      vertex -74.7393 -58.1652 13.716
    endloop
  endfacet
  facet normal 0 0 -1
    outer loop
      vertex 77.1656 -56.1293 -13.716
      vertex 77.1031 -56.3747 -13.716
      vertex 77.0165 -56.6126 -13.716
    endloop
  endfacet
  facet normal 0.939678 -0.34206 0
    outer loop
      vertex 77.0165 -56.6126 13.716
      vertex 77.0165 -56.6126 -13.716
      vertex 77.1031 -56.3747 8.63598
    endloop
  endfacet
  facet normal 0.988797 -0.149267 0
    outer loop
      vertex 77.2034 -55.8789 -13.716
      vertex 77.2034 -55.8789 13.716
      vertex 77.1656 -56.1293 13.716
    endloop
  endfacet
  facet normal 0.998761 -0.0497603 0
    outer loop
      vertex 77.216 -55.626 13.716
      vertex 77.2034 -55.8789 13.716
      vertex 77.2034 -55.8789 -13.716
    endloop
  endfacet
  facet normal 0 0 -1
    outer loop
      vertex -76.1587 57.6883 -13.716
      vertex -75.946 57.8257 -13.716
      vertex -75.485 58.0337 -13.716
    endloop
  endfacet
  facet normal -0.542613 0.839983 0
    outer loop
      vertex -75.946 57.8257 13.716
      vertex -75.946 57.8257 -13.716
      vertex -76.1587 57.6883 -13.716
    endloop
  endfacet
  facet normal -0.365322 0.930881 0
    outer loop
      vertex -75.485 58.0337 -13.716
      vertex -75.7207 57.9412 13.716
      vertex -75.485 58.0337 13.716
    endloop
  endfacet
  facet normal -0.456196 0.889879 0
    outer loop
      vertex -75.7207 57.9412 13.716
      vertex -75.7207 57.9412 -13.716
      vertex -75.946 57.8257 -13.716
    endloop
  endfacet
  facet normal 0 0 1
    outer loop
      vertex -74.7393 58.1652 13.716
      vertex -74.9918 58.1463 13.716
      vertex -75.2412 58.1023 13.716
    endloop
  endfacet
  facet normal -0.0746427 0.99721 0
    outer loop
      vertex -74.7393 58.1652 8.63598
      vertex -74.9918 58.1463 13.716
      vertex -74.7393 58.1652 13.716
    endloop
  endfacet
  facet normal -0.27086 0.962619 0
    outer loop
      vertex -75.2412 58.1023 13.716
      vertex -75.2412 58.1023 -13.716
      vertex -75.485 58.0337 -13.716
    endloop
  endfacet
  facet normal -0.17374 0.984792 0
    outer loop
      vertex -74.9918 58.1463 13.716
      vertex -75.2412 58.1023 -13.716
      vertex -75.2412 58.1023 13.716
    endloop
  endfacet
  facet normal 0 0 -1
    outer loop
      vertex -77.2129 55.7526 -13.716
      vertex -76.8434 56.9504 -13.716
      vertex -76.1587 57.6883 -13.716
    endloop
  endfacet
  facet normal 0 0 -1
    outer loop
      vertex -77.2129 55.7526 -13.716
      vertex -77.0628 56.4947 -13.716
      vertex -76.8434 56.9504 -13.716
    endloop
  endfacet
  facet normal -1 0 0
    outer loop
      vertex -77.2129 -55.7526 13.716
      vertex -77.2129 55.7526 13.716
      vertex -77.2129 55.7526 -13.716
    endloop
  endfacet
  facet normal 0 0 1
    outer loop
      vertex -76.1587 57.6883 13.716
      vertex -77.2129 55.7526 13.716
      vertex -77.2129 -55.7526 13.716
    endloop
  endfacet
  facet normal -0.95548 -0.295057 -0
    outer loop
      vertex -77.0628 -56.4947 13.716
      vertex -77.1375 -56.2528 -13.716
      vertex -77.0628 -56.4947 -13.716
    endloop
  endfacet
  facet normal 0 0 1
    outer loop
      vertex -76.8434 -56.9505 13.716
      vertex -76.538 -57.3536 13.716
      vertex -76.1587 -57.6883 13.716
    endloop
  endfacet
  facet normal -0.27086 -0.962619 -0
    outer loop
      vertex -75.485 -58.0337 13.716
      vertex -75.485 -58.0337 -13.716
      vertex -75.2412 -58.1023 13.716
    endloop
  endfacet
  facet normal 0 0 -1
    outer loop
      vertex -75.485 -58.0337 -13.716
      vertex -75.946 -57.8257 -13.716
      vertex -76.3567 -57.5305 -13.716
    endloop
  endfacet
  facet normal 0.583701 -0.811969 0
    outer loop
      vertex 76.0541 -57.7597 -13.716
      vertex 76.2597 -57.6119 -13.716
      vertex 76.2597 -57.6119 -8.636
    endloop
  endfacet
  facet normal 0 0 -1
    outer loop
      vertex 76.4495 -57.4443 -13.716
      vertex 76.2597 -57.6119 -13.716
      vertex 76.0541 -57.7597 -13.716
    endloop
  endfacet
  facet normal 0.499962 -0.866047 0
    outer loop
      vertex 75.8348 -57.8863 -8.636
      vertex 75.8348 -57.8863 -13.716
      vertex 76.0541 -57.7597 -13.716
    endloop
  endfacet
  facet normal 0.411153 -0.911566 0
    outer loop
      vertex 75.604 -57.9904 -13.716
      vertex 75.8348 -57.8863 -13.716
      vertex 75.8348 -57.8863 -8.636
    endloop
  endfacet
  facet normal 0.124375 -0.992235 0
    outer loop
      vertex 75.1171 -58.1274 -13.716
      vertex 75.1171 -58.1274 13.716
      vertex 74.8658 -58.1589 13.716
    endloop
  endfacet
  facet normal 0.222406 -0.974954 0
    outer loop
      vertex 75.3639 -58.0711 8.63598
      vertex 75.1171 -58.1274 13.716
      vertex 75.1171 -58.1274 -13.716
    endloop
  endfacet
  facet normal 0 0 -1
    outer loop
      vertex 75.1171 -58.1274 -13.716
      vertex 74.8658 -58.1589 -13.716
      vertex 74.6127 -58.1652 -13.716
    endloop
  endfacet
  facet normal 0.124375 -0.992235 0
    outer loop
      vertex 74.8658 -58.1589 13.716
      vertex 74.8658 -58.1589 -13.716
      vertex 75.1171 -58.1274 -13.716
    endloop
  endfacet
  facet normal 0 0 -1
    outer loop
      vertex 75.604 -57.9904 -13.716
      vertex 75.3639 -58.0711 -13.716
      vertex 75.1171 -58.1274 -13.716
    endloop
  endfacet
  facet normal 0.318596 -0.947891 0
    outer loop
      vertex 75.3639 -58.0711 8.63598
      vertex 75.3639 -58.0711 -13.716
      vertex 75.604 -57.9904 -13.716
    endloop
  endfacet
  facet normal 0.901116 -0.433578 0
    outer loop
      vertex 77.0165 -56.6126 13.716
      vertex 76.9067 -56.8408 13.716
      vertex 76.9067 -56.8408 -13.716
    endloop
  endfacet
  facet normal 0 0 1
    outer loop
      vertex 76.6217 -57.2587 13.716
      vertex 76.9067 -56.8408 13.716
      vertex 77.0165 -56.6126 13.716
    endloop
  endfacet
  facet normal 0.797196 -0.603721 0
    outer loop
      vertex 76.6217 -57.2587 -8.636
      vertex 76.7746 -57.0568 -13.716
      vertex 76.6217 -57.2587 13.716
    endloop
  endfacet
  facet normal 0 0 -1
    outer loop
      vertex 76.7746 -57.0568 -13.716
      vertex 76.6217 -57.2587 -13.716
      vertex 76.4495 -57.4443 -13.716
    endloop
  endfacet
  facet normal 0.411153 -0.911566 0
    outer loop
      vertex 75.8348 -57.8863 -8.636
      vertex 75.8348 -57.8863 13.716
      vertex 75.604 -57.9904 13.716
    endloop
  endfacet
  facet normal 0.499962 -0.866047 0
    outer loop
      vertex 76.0541 -57.7597 13.716
      vertex 75.8348 -57.8863 13.716
      vertex 75.8348 -57.8863 -8.636
    endloop
  endfacet
  facet normal -0.17374 -0.984792 0
    outer loop
      vertex -75.2412 -58.1023 -13.716
      vertex -74.9918 -58.1463 -13.716
      vertex -74.9918 -58.1463 13.716
    endloop
  endfacet
  facet normal -0.0746427 -0.99721 -0
    outer loop
      vertex -74.7393 -58.1652 13.716
      vertex -74.9918 -58.1463 13.716
      vertex -74.7393 -58.1652 -13.716
    endloop
  endfacet
  facet normal 0.939678 -0.34206 0
    outer loop
      vertex 77.1031 -56.3747 8.63598
      vertex 77.1031 -56.3747 13.716
      vertex 77.0165 -56.6126 13.716
    endloop
  endfacet
  facet normal 0.969065 -0.246807 0
    outer loop
      vertex 77.1656 -56.1293 13.716
      vertex 77.1031 -56.3747 13.716
      vertex 77.1031 -56.3747 8.63598
    endloop
  endfacet
  facet normal 0.901116 -0.433578 0
    outer loop
      vertex 76.9067 -56.8408 -13.716
      vertex 77.0165 -56.6126 -13.716
      vertex 77.0165 -56.6126 13.716
    endloop
  endfacet
  facet normal 0 0 -1
    outer loop
      vertex 77.1656 -56.1293 -13.716
      vertex 77.0165 -56.6126 -13.716
      vertex 76.9067 -56.8408 -13.716
    endloop
  endfacet
  facet normal -0.365322 0.930881 0
    outer loop
      vertex -75.485 58.0337 -13.716
      vertex -75.7207 57.9412 -13.716
      vertex -75.7207 57.9412 13.716
    endloop
  endfacet
  facet normal 0 0 -1
    outer loop
      vertex -75.946 57.8257 -13.716
      vertex -75.7207 57.9412 -13.716
      vertex -75.485 58.0337 -13.716
    endloop
  endfacet
  facet normal 0 0 -1
    outer loop
      vertex -75.2412 58.1023 -13.716
      vertex -74.9918 58.1463 -13.716
      vertex -74.7393 58.1652 -13.716
    endloop
  endfacet
  facet normal -0.17374 0.984792 0
    outer loop
      vertex -74.9918 58.1463 13.716
      vertex -74.9918 58.1463 -13.716
      vertex -75.2412 58.1023 -13.716
    endloop
  endfacet
  facet normal 0 0 -1
    outer loop
      vertex -76.8434 56.9504 -13.716
      vertex -76.538 57.3536 -13.716
      vertex -76.1587 57.6883 -13.716
    endloop
  endfacet
  facet normal -0.82611 0.563508 0
    outer loop
      vertex -76.8434 56.9504 13.716
      vertex -76.7007 57.1596 -8.636
      vertex -76.8434 56.9504 -13.716
    endloop
  endfacet
  facet normal -0.921598 0.388145 0
    outer loop
      vertex -77.0628 56.4947 13.716
      vertex -76.9645 56.7281 -13.716
      vertex -77.0628 56.4947 -13.716
    endloop
  endfacet
  facet normal 0 0 1
    outer loop
      vertex -76.1587 57.6883 13.716
      vertex -76.8434 56.9504 13.716
      vertex -77.2129 55.7526 13.716
    endloop
  endfacet
  facet normal 0 0 1
    outer loop
      vertex -76.8434 56.9504 13.716
      vertex -77.0628 56.4947 13.716
      vertex -77.2129 55.7526 13.716
    endloop
  endfacet
  facet normal 0 0 -1
    outer loop
      vertex -77.0628 56.4947 -13.716
      vertex -76.9645 56.7281 -13.716
      vertex -76.8434 56.9504 -13.716
    endloop
  endfacet
  facet normal 0 0 -1
    outer loop
      vertex -76.3567 -57.5305 -13.716
      vertex -77.0628 -56.4947 -13.716
      vertex -77.2129 -55.7526 -13.716
    endloop
  endfacet
  facet normal -0.921598 -0.388145 0
    outer loop
      vertex -77.0628 -56.4947 -13.716
      vertex -76.9645 -56.7281 8.63598
      vertex -77.0628 -56.4947 13.716
    endloop
  endfacet
  facet normal 0 0 -1
    outer loop
      vertex -76.3567 -57.5305 -13.716
      vertex -76.8434 -56.9505 -13.716
      vertex -77.0628 -56.4947 -13.716
    endloop
  endfacet
  facet normal 0 0 1
    outer loop
      vertex -76.538 -57.3536 13.716
      vertex -76.3567 -57.5305 13.716
      vertex -76.1587 -57.6883 13.716
    endloop
  endfacet
  facet normal -0.365322 -0.930881 -0
    outer loop
      vertex -75.485 -58.0337 13.716
      vertex -75.7207 -57.9412 -13.716
      vertex -75.485 -58.0337 -13.716
    endloop
  endfacet
  facet normal -0.542613 -0.839983 0
    outer loop
      vertex -75.946 -57.8257 -13.716
      vertex -75.946 -57.8257 13.716
      vertex -76.1587 -57.6883 13.716
    endloop
  endfacet
  facet normal -0.17374 -0.984792 -0
    outer loop
      vertex -75.2412 -58.1023 13.716
      vertex -75.2412 -58.1023 -13.716
      vertex -74.9918 -58.1463 13.716
    endloop
  endfacet
  facet normal -0.27086 -0.962619 0
    outer loop
      vertex -75.485 -58.0337 -13.716
      vertex -75.2412 -58.1023 -13.716
      vertex -75.2412 -58.1023 13.716
    endloop
  endfacet
  facet normal 0.318596 -0.947891 0
    outer loop
      vertex 75.604 -57.9904 13.716
      vertex 75.3639 -58.0711 13.716
      vertex 75.3639 -58.0711 8.63598
    endloop
  endfacet
  facet normal 0 0 1
    outer loop
      vertex 75.1171 -58.1274 13.716
      vertex 75.3639 -58.0711 13.716
      vertex 75.604 -57.9904 13.716
    endloop
  endfacet
  facet normal 0.797196 -0.603721 0
    outer loop
      vertex 76.7746 -57.0568 -13.716
      vertex 76.7746 -57.0568 13.716
      vertex 76.6217 -57.2587 13.716
    endloop
  endfacet
  facet normal 0.853106 -0.521738 0
    outer loop
      vertex 76.9067 -56.8408 13.716
      vertex 76.7746 -57.0568 13.716
      vertex 76.7746 -57.0568 -13.716
    endloop
  endfacet
  facet normal 0.797196 -0.603721 0
    outer loop
      vertex 76.6217 -57.2587 -8.636
      vertex 76.6217 -57.2587 -13.716
      vertex 76.7746 -57.0568 -13.716
    endloop
  endfacet
  facet normal 0.733075 -0.680148 0
    outer loop
      vertex 76.4495 -57.4443 -13.716
      vertex 76.6217 -57.2587 -13.716
      vertex 76.6217 -57.2587 -8.636
    endloop
  endfacet
  facet normal 0.969065 -0.246807 0
    outer loop
      vertex 77.1031 -56.3747 8.63598
      vertex 77.1031 -56.3747 -13.716
      vertex 77.1656 -56.1293 -13.716
    endloop
  endfacet
  facet normal 0.939678 -0.34206 0
    outer loop
      vertex 77.0165 -56.6126 -13.716
      vertex 77.1031 -56.3747 -13.716
      vertex 77.1031 -56.3747 8.63598
    endloop
  endfacet
  facet normal 0 0 -1
    outer loop
      vertex -76.538 57.3536 -13.716
      vertex -76.3567 57.5304 -13.716
      vertex -76.1587 57.6883 -13.716
    endloop
  endfacet
  facet normal -0.698166 0.715936 0
    outer loop
      vertex -76.538 57.3536 -13.716
      vertex -76.538 57.3536 13.716
      vertex -76.3567 57.5304 -13.716
    endloop
  endfacet
  facet normal 0 0 1
    outer loop
      vertex -76.538 57.3536 13.716
      vertex -76.7007 57.1596 13.716
      vertex -76.8434 56.9504 13.716
    endloop
  endfacet
  facet normal 0 0 1
    outer loop
      vertex -76.1587 57.6883 13.716
      vertex -76.538 57.3536 13.716
      vertex -76.8434 56.9504 13.716
    endloop
  endfacet
  facet normal -0.76621 0.64259 0
    outer loop
      vertex -76.538 57.3536 -13.716
      vertex -76.7007 57.1596 -8.636
      vertex -76.538 57.3536 13.716
    endloop
  endfacet
  facet normal -0.82611 0.563508 0
    outer loop
      vertex -76.7007 57.1596 -8.636
      vertex -76.7007 57.1596 -13.716
      vertex -76.8434 56.9504 -13.716
    endloop
  endfacet
  facet normal 0 0 -1
    outer loop
      vertex -77.2129 55.7526 -13.716
      vertex -77.1375 56.2527 -13.716
      vertex -77.0628 56.4947 -13.716
    endloop
  endfacet
  facet normal -0.955514 0.294946 0
    outer loop
      vertex -77.1375 56.2527 -13.716
      vertex -77.1375 56.2527 13.716
      vertex -77.0628 56.4947 13.716
    endloop
  endfacet
  facet normal -0.955514 0.294946 0
    outer loop
      vertex -77.1375 56.2527 -13.716
      vertex -77.0628 56.4947 13.716
      vertex -77.0628 56.4947 -13.716
    endloop
  endfacet
  facet normal 0 0 1
    outer loop
      vertex -77.0628 56.4947 13.716
      vertex -77.1375 56.2527 13.716
      vertex -77.2129 55.7526 13.716
    endloop
  endfacet
  facet normal -0.878152 0.478382 0
    outer loop
      vertex -76.9645 56.7281 -13.716
      vertex -76.9645 56.7281 13.716
      vertex -76.8434 56.9504 13.716
    endloop
  endfacet
  facet normal -0.878152 0.478382 0
    outer loop
      vertex -76.8434 56.9504 -13.716
      vertex -76.9645 56.7281 -13.716
      vertex -76.8434 56.9504 13.716
    endloop
  endfacet
  facet normal 0 0 1
    outer loop
      vertex -77.2129 -55.7526 13.716
      vertex -77.1375 -56.2528 13.716
      vertex -77.0628 -56.4947 13.716
    endloop
  endfacet
  facet normal 0 0 1
    outer loop
      vertex -77.0628 -56.4947 13.716
      vertex -76.9645 -56.7281 13.716
      vertex -76.8434 -56.9505 13.716
    endloop
  endfacet
  facet normal -0.98023 -0.197863 -0
    outer loop
      vertex -77.1375 -56.2528 13.716
      vertex -77.1876 -56.0046 -13.716
      vertex -77.1375 -56.2528 -13.716
    endloop
  endfacet
  facet normal 0 0 -1
    outer loop
      vertex -77.0628 -56.4947 -13.716
      vertex -77.1375 -56.2528 -13.716
      vertex -77.2129 -55.7526 -13.716
    endloop
  endfacet
  facet normal 0 0 -1
    outer loop
      vertex -76.538 -57.3536 -13.716
      vertex -76.7007 -57.1597 -13.716
      vertex -76.8434 -56.9505 -13.716
    endloop
  endfacet
  facet normal -0.82611 -0.563508 0
    outer loop
      vertex -76.8434 -56.9505 -13.716
      vertex -76.7007 -57.1597 13.716
      vertex -76.8434 -56.9505 13.716
    endloop
  endfacet
  facet normal -0.698368 -0.715739 0
    outer loop
      vertex -76.3567 -57.5305 -13.716
      vertex -76.3567 -57.5305 13.716
      vertex -76.538 -57.3536 13.716
    endloop
  endfacet
  facet normal -0.623249 -0.782023 0
    outer loop
      vertex -76.1587 -57.6883 13.716
      vertex -76.3567 -57.5305 13.716
      vertex -76.3567 -57.5305 -13.716
    endloop
  endfacet
  facet normal 0 0 -1
    outer loop
      vertex -75.946 -57.8257 -13.716
      vertex -76.1587 -57.6883 -13.716
      vertex -76.3567 -57.5305 -13.716
    endloop
  endfacet
  facet normal -0.542613 -0.839983 -0
    outer loop
      vertex -76.1587 -57.6883 13.716
      vertex -76.1587 -57.6883 -13.716
      vertex -75.946 -57.8257 -13.716
    endloop
  endfacet
  facet normal -0.456196 -0.889879 0
    outer loop
      vertex -75.7207 -57.9412 -13.716
      vertex -75.946 -57.8257 13.716
      vertex -75.946 -57.8257 -13.716
    endloop
  endfacet
  facet normal 0 0 -1
    outer loop
      vertex -75.485 -58.0337 -13.716
      vertex -75.7207 -57.9412 -13.716
      vertex -75.946 -57.8257 -13.716
    endloop
  endfacet
  facet normal -0.365322 -0.930881 0
    outer loop
      vertex -75.485 -58.0337 13.716
      vertex -75.7207 -57.9412 13.716
      vertex -75.7207 -57.9412 -13.716
    endloop
  endfacet
  facet normal 0 0 1
    outer loop
      vertex -76.1587 -57.6883 13.716
      vertex -75.946 -57.8257 13.716
      vertex -75.485 -58.0337 13.716
    endloop
  endfacet
  facet normal 0 0 -1
    outer loop
      vertex -74.7393 -58.1652 -13.716
      vertex -74.9918 -58.1463 -13.716
      vertex -75.2412 -58.1023 -13.716
    endloop
  endfacet
  facet normal -0.0746427 -0.99721 -0
    outer loop
      vertex -74.9918 -58.1463 13.716
      vertex -74.9918 -58.1463 -13.716
      vertex -74.7393 -58.1652 -13.716
    endloop
  endfacet
  facet normal -0.698166 0.715936 0
    outer loop
      vertex -76.538 57.3536 13.716
      vertex -76.3567 57.5304 13.716
      vertex -76.3567 57.5304 -13.716
    endloop
  endfacet
  facet normal 0 0 1
    outer loop
      vertex -76.1587 57.6883 13.716
      vertex -76.3567 57.5304 13.716
      vertex -76.538 57.3536 13.716
    endloop
  endfacet
  facet normal -0.76621 0.64259 0
    outer loop
      vertex -76.7007 57.1596 -8.636
      vertex -76.7007 57.1596 13.716
      vertex -76.538 57.3536 13.716
    endloop
  endfacet
  facet normal -0.82611 0.563508 0
    outer loop
      vertex -76.8434 56.9504 13.716
      vertex -76.7007 57.1596 13.716
      vertex -76.7007 57.1596 -8.636
    endloop
  endfacet
  facet normal -0.76621 0.64259 0
    outer loop
      vertex -76.538 57.3536 -13.716
      vertex -76.7007 57.1596 -13.716
      vertex -76.7007 57.1596 -8.636
    endloop
  endfacet
  facet normal 0 0 -1
    outer loop
      vertex -76.8434 56.9504 -13.716
      vertex -76.7007 57.1596 -13.716
      vertex -76.538 57.3536 -13.716
    endloop
  endfacet
  facet normal 0 0 -1
    outer loop
      vertex -77.2129 55.7526 -13.716
      vertex -77.1876 56.0046 -13.716
      vertex -77.1375 56.2527 -13.716
    endloop
  endfacet
  facet normal -0.994998 0.0998946 0
    outer loop
      vertex -77.2129 55.7526 13.716
      vertex -77.1876 56.0046 -13.716
      vertex -77.2129 55.7526 -13.716
    endloop
  endfacet
  facet normal -0.980214 0.197939 0
    outer loop
      vertex -77.1876 56.0046 -13.716
      vertex -77.1375 56.2527 13.716
      vertex -77.1375 56.2527 -13.716
    endloop
  endfacet
  facet normal 0 0 1
    outer loop
      vertex -77.1375 56.2527 13.716
      vertex -77.1876 56.0046 13.716
      vertex -77.2129 55.7526 13.716
    endloop
  endfacet
  facet normal -0.921598 0.388145 0
    outer loop
      vertex -77.0628 56.4947 13.716
      vertex -76.9645 56.7281 13.716
      vertex -76.9645 56.7281 -13.716
    endloop
  endfacet
  facet normal 0 0 1
    outer loop
      vertex -76.8434 56.9504 13.716
      vertex -76.9645 56.7281 13.716
      vertex -77.0628 56.4947 13.716
    endloop
  endfacet
  facet normal 0 0 -1
    outer loop
      vertex -76.8434 -56.9505 -13.716
      vertex -76.9645 -56.7281 -13.716
      vertex -77.0628 -56.4947 -13.716
    endloop
  endfacet
  facet normal -0.878242 -0.478216 -0
    outer loop
      vertex -76.8434 -56.9505 13.716
      vertex -76.9645 -56.7281 8.63598
      vertex -76.8434 -56.9505 -13.716
    endloop
  endfacet
  facet normal 0 0 1
    outer loop
      vertex -77.2129 -55.7526 13.716
      vertex -77.1876 -56.0046 13.716
      vertex -77.1375 -56.2528 13.716
    endloop
  endfacet
  facet normal -0.95548 -0.295057 0
    outer loop
      vertex -77.0628 -56.4947 13.716
      vertex -77.1375 -56.2528 13.716
      vertex -77.1375 -56.2528 -13.716
    endloop
  endfacet
  facet normal -0.994998 -0.0998946 0
    outer loop
      vertex -77.2129 -55.7526 -13.716
      vertex -77.1876 -56.0046 -13.716
      vertex -77.2129 -55.7526 13.716
    endloop
  endfacet
  facet normal 0 0 -1
    outer loop
      vertex -77.1375 -56.2528 -13.716
      vertex -77.1876 -56.0046 -13.716
      vertex -77.2129 -55.7526 -13.716
    endloop
  endfacet
  facet normal 0 0 -1
    outer loop
      vertex -76.3567 -57.5305 -13.716
      vertex -76.538 -57.3536 -13.716
      vertex -76.8434 -56.9505 -13.716
    endloop
  endfacet
  facet normal -0.698368 -0.715739 -0
    outer loop
      vertex -76.538 -57.3536 13.716
      vertex -76.538 -57.3536 -13.716
      vertex -76.3567 -57.5305 -13.716
    endloop
  endfacet
  facet normal -0.766047 -0.642784 -0
    outer loop
      vertex -76.538 -57.3536 13.716
      vertex -76.7007 -57.1597 13.716
      vertex -76.538 -57.3536 -13.716
    endloop
  endfacet
  facet normal 0 0 1
    outer loop
      vertex -76.8434 -56.9505 13.716
      vertex -76.7007 -57.1597 13.716
      vertex -76.538 -57.3536 13.716
    endloop
  endfacet
  facet normal 0 0 1
    outer loop
      vertex -75.946 -57.8257 13.716
      vertex -75.7207 -57.9412 13.716
      vertex -75.485 -58.0337 13.716
    endloop
  endfacet
  facet normal -0.456196 -0.889879 0
    outer loop
      vertex -75.7207 -57.9412 -13.716
      vertex -75.7207 -57.9412 13.716
      vertex -75.946 -57.8257 13.716
    endloop
  endfacet
  facet normal -0.980214 0.197939 0
    outer loop
      vertex -77.1876 56.0046 -13.716
      vertex -77.1876 56.0046 13.716
      vertex -77.1375 56.2527 13.716
    endloop
  endfacet
  facet normal -0.994998 0.0998946 0
    outer loop
      vertex -77.2129 55.7526 13.716
      vertex -77.1876 56.0046 13.716
      vertex -77.1876 56.0046 -13.716
    endloop
  endfacet
  facet normal -0.921598 -0.388145 0
    outer loop
      vertex -76.9645 -56.7281 8.63598
      vertex -76.9645 -56.7281 13.716
      vertex -77.0628 -56.4947 13.716
    endloop
  endfacet
  facet normal -0.878242 -0.478216 0
    outer loop
      vertex -76.8434 -56.9505 13.716
      vertex -76.9645 -56.7281 13.716
      vertex -76.9645 -56.7281 8.63598
    endloop
  endfacet
  facet normal -0.878242 -0.478216 -0
    outer loop
      vertex -76.9645 -56.7281 8.63598
      vertex -76.9645 -56.7281 -13.716
      vertex -76.8434 -56.9505 -13.716
    endloop
  endfacet
  facet normal -0.921598 -0.388145 0
    outer loop
      vertex -77.0628 -56.4947 -13.716
      vertex -76.9645 -56.7281 -13.716
      vertex -76.9645 -56.7281 8.63598
    endloop
  endfacet
  facet normal -0.994998 -0.0998946 0
    outer loop
      vertex -77.1876 -56.0046 -13.716
      vertex -77.1876 -56.0046 13.716
      vertex -77.2129 -55.7526 13.716
    endloop
  endfacet
  facet normal -0.98023 -0.197863 0
    outer loop
      vertex -77.1375 -56.2528 13.716
      vertex -77.1876 -56.0046 13.716
      vertex -77.1876 -56.0046 -13.716
    endloop
  endfacet
  facet normal -0.766047 -0.642784 -0
    outer loop
      vertex -76.7007 -57.1597 13.716
      vertex -76.7007 -57.1597 -13.716
      vertex -76.538 -57.3536 -13.716
    endloop
  endfacet
  facet normal -0.82611 -0.563508 0
    outer loop
      vertex -76.8434 -56.9505 -13.716
      vertex -76.7007 -57.1597 -13.716
      vertex -76.7007 -57.1597 13.716
    endloop
  endfacet
endsolid OpenSCAD_Model
