solid OpenSCAD_Model
  facet normal 0.939678 0.34206 0
    outer loop
      vertex 58.0531 30.9747 8.63598
      vertex 57.9665 31.2126 -13.716
      vertex 57.9665 31.2126 8.63598
    endloop
  endfacet
  facet normal 0.988797 0.149267 0
    outer loop
      vertex 58.1156 30.7293 13.716
      vertex 58.1534 30.4789 13.716
      vertex 58.1534 30.4789 8.63598
    endloop
  endfacet
  facet normal 0 0 -1
    outer loop
      vertex 55.5627 32.7652 -13.716
      vertex 57.2097 32.2118 -13.716
      vertex 58.1156 30.7293 -13.716
    endloop
  endfacet
  facet normal 0.901116 0.433578 0
    outer loop
      vertex 57.8567 31.4408 13.716
      vertex 57.9665 31.2126 13.716
      vertex 57.9665 31.2126 8.63598
    endloop
  endfacet
  facet normal -0 0 -1
    outer loop
      vertex 56.7848 -32.4863 -13.716
      vertex -55.6893 -32.7652 -13.716
      vertex -58.0875 -30.8528 -13.716
    endloop
  endfacet
  facet normal 0 0 1
    outer loop
      vertex 57.8567 31.4408 13.716
      vertex -58.0128 -31.0947 13.716
      vertex 58.1156 30.7293 13.716
    endloop
  endfacet
  facet normal 0.939678 0.34206 0
    outer loop
      vertex 57.9665 31.2126 13.716
      vertex 58.0531 30.9747 8.63598
      vertex 57.9665 31.2126 8.63598
    endloop
  endfacet
  facet normal 0.988797 0.149267 0
    outer loop
      vertex 58.1534 30.4789 8.63598
      vertex 58.1156 30.7293 -13.716
      vertex 58.1156 30.7293 13.716
    endloop
  endfacet
  facet normal 0 0 1
    outer loop
      vertex 58.1156 30.7293 13.716
      vertex 57.9665 31.2126 13.716
      vertex 57.8567 31.4408 13.716
    endloop
  endfacet
  facet normal 0.969065 0.246807 -0
    outer loop
      vertex 58.0531 30.9747 8.63598
      vertex 58.0531 30.9747 13.716
      vertex 58.1156 30.7293 13.716
    endloop
  endfacet
  facet normal 0 0 -1
    outer loop
      vertex -58.0875 -30.8528 -13.716
      vertex -56.896 32.4257 -13.716
      vertex 58.1156 30.7293 -13.716
    endloop
  endfacet
  facet normal 0 0 1
    outer loop
      vertex -58.0128 -31.0947 13.716
      vertex 58.166 -30.226 13.716
      vertex 58.1156 30.7293 13.716
    endloop
  endfacet
  facet normal 0 0 -1
    outer loop
      vertex 58.1156 30.7293 -13.716
      vertex 56.7848 -32.4863 -13.716
      vertex -58.0875 -30.8528 -13.716
    endloop
  endfacet
  facet normal -0.921598 -0.388145 0
    outer loop
      vertex -57.9145 -31.3281 -13.716
      vertex -57.9145 -31.3281 13.716
      vertex -58.0128 -31.0947 13.716
    endloop
  endfacet
  facet normal 0 0 -1
    outer loop
      vertex -57.7934 31.5504 -13.716
      vertex -57.3067 32.1304 -13.716
      vertex -56.896 32.4257 -13.716
    endloop
  endfacet
  facet normal 0 0 1
    outer loop
      vertex -58.1628 30.3526 13.716
      vertex -58.1628 -30.3526 13.716
      vertex -58.0128 -31.0947 13.716
    endloop
  endfacet
  facet normal 0.969065 0.246807 -0
    outer loop
      vertex 58.1156 30.7293 -13.716
      vertex 58.0531 30.9747 8.63598
      vertex 58.1156 30.7293 13.716
    endloop
  endfacet
  facet normal 0 0 -1
    outer loop
      vertex 57.9665 31.2126 -13.716
      vertex 58.0531 30.9747 -13.716
      vertex 58.1156 30.7293 -13.716
    endloop
  endfacet
  facet normal 0.998761 0.0497603 0
    outer loop
      vertex 58.166 30.226 13.716
      vertex 58.166 30.226 -13.716
      vertex 58.1534 30.4789 8.63598
    endloop
  endfacet
  facet normal 0 -0 1
    outer loop
      vertex 58.166 -30.226 13.716
      vertex 58.166 30.226 13.716
      vertex 58.1156 30.7293 13.716
    endloop
  endfacet
  facet normal 0 0 -1
    outer loop
      vertex 57.3995 -32.0443 -13.716
      vertex 57.2097 -32.2119 -13.716
      vertex 56.7848 -32.4863 -13.716
    endloop
  endfacet
  facet normal 0 0 -1
    outer loop
      vertex -55.6893 -32.7652 -13.716
      vertex -57.1087 -32.2883 -13.716
      vertex -58.0875 -30.8528 -13.716
    endloop
  endfacet
  facet normal 0 0 -1
    outer loop
      vertex -56.896 32.4257 -13.716
      vertex 55.5627 32.7652 -13.716
      vertex 58.1156 30.7293 -13.716
    endloop
  endfacet
  facet normal 0 0 -1
    outer loop
      vertex 57.2097 32.2118 -13.716
      vertex 57.7246 31.6568 -13.716
      vertex 57.8567 31.4408 -13.716
    endloop
  endfacet
  facet normal -0.95548 -0.295057 0
    outer loop
      vertex -58.0128 -31.0947 13.716
      vertex -58.0875 -30.8528 13.716
      vertex -58.0875 -30.8528 -13.716
    endloop
  endfacet
  facet normal 0 0 1
    outer loop
      vertex 57.8567 31.4408 13.716
      vertex -58.1628 30.3526 13.716
      vertex -58.0128 -31.0947 13.716
    endloop
  endfacet
  facet normal 0.939678 0.34206 0
    outer loop
      vertex 57.9665 31.2126 13.716
      vertex 58.0531 30.9747 13.716
      vertex 58.0531 30.9747 8.63598
    endloop
  endfacet
  facet normal 0 0 1
    outer loop
      vertex 58.1156 30.7293 13.716
      vertex 58.0531 30.9747 13.716
      vertex 57.9665 31.2126 13.716
    endloop
  endfacet
  facet normal 1 -0 0
    outer loop
      vertex 58.166 -30.226 13.716
      vertex 58.166 -30.226 -13.716
      vertex 58.166 30.226 13.716
    endloop
  endfacet
  facet normal 1 0 0
    outer loop
      vertex 58.166 -30.226 -13.716
      vertex 58.166 30.226 -13.716
      vertex 58.166 30.226 13.716
    endloop
  endfacet
  facet normal 0 0 -1
    outer loop
      vertex 58.166 -30.226 -13.716
      vertex 57.8567 -31.4408 -13.716
      vertex 56.7848 -32.4863 -13.716
    endloop
  endfacet
  facet normal -0 0 1
    outer loop
      vertex -58.0128 -31.0947 13.716
      vertex 55.5627 -32.7652 13.716
      vertex 58.166 -30.226 13.716
    endloop
  endfacet
  facet normal 0.732878 -0.68036 0
    outer loop
      vertex 57.3995 -32.0443 -13.716
      vertex 57.5718 -31.8587 13.716
      vertex 57.3995 -32.0443 13.716
    endloop
  endfacet
  facet normal 0 -0 -1
    outer loop
      vertex 58.1156 30.7293 -13.716
      vertex 58.166 -30.226 -13.716
      vertex 56.7848 -32.4863 -13.716
    endloop
  endfacet
  facet normal -0.0746427 -0.99721 -0
    outer loop
      vertex -55.6893 -32.7652 13.716
      vertex -55.9418 -32.7463 -8.636
      vertex -55.6893 -32.7652 -13.716
    endloop
  endfacet
  facet normal 0 0 -1
    outer loop
      vertex -57.1087 -32.2883 -13.716
      vertex -57.7934 -31.5504 -13.716
      vertex -58.0875 -30.8528 -13.716
    endloop
  endfacet
  facet normal 0.0248836 0.99969 0
    outer loop
      vertex 55.5627 32.7652 13.716
      vertex 55.8158 32.7589 -13.716
      vertex 55.5627 32.7652 -13.716
    endloop
  endfacet
  facet normal 0 0 -1
    outer loop
      vertex 57.2097 32.2118 -13.716
      vertex 57.8567 31.4408 -13.716
      vertex 58.1156 30.7293 -13.716
    endloop
  endfacet
  facet normal 0 0 1
    outer loop
      vertex -57.3067 32.1304 13.716
      vertex -57.9145 31.3281 13.716
      vertex -58.1628 30.3526 13.716
    endloop
  endfacet
  facet normal 0 0 1
    outer loop
      vertex 57.8567 31.4408 13.716
      vertex 55.5627 32.7652 13.716
      vertex -58.1628 30.3526 13.716
    endloop
  endfacet
  facet normal 0 0 -1
    outer loop
      vertex -58.1628 30.3526 -13.716
      vertex -57.7934 31.5504 -13.716
      vertex -56.896 32.4257 -13.716
    endloop
  endfacet
  facet normal 0 0 -1
    outer loop
      vertex -58.0875 -30.8528 -13.716
      vertex -58.1628 30.3526 -13.716
      vertex -56.896 32.4257 -13.716
    endloop
  endfacet
  facet normal -1 0 0
    outer loop
      vertex -58.1628 30.3526 -13.716
      vertex -58.1628 -30.3526 13.716
      vertex -58.1628 30.3526 13.716
    endloop
  endfacet
  facet normal 0 0 1
    outer loop
      vertex -58.1628 -30.3526 13.716
      vertex -58.1376 -30.6046 13.716
      vertex -58.0875 -30.8528 13.716
    endloop
  endfacet
  facet normal 0 0 1
    outer loop
      vertex 58.166 30.226 13.716
      vertex 58.1534 30.4789 13.716
      vertex 58.1156 30.7293 13.716
    endloop
  endfacet
  facet normal 0.998761 0.0497603 -0
    outer loop
      vertex 58.1534 30.4789 8.63598
      vertex 58.1534 30.4789 13.716
      vertex 58.166 30.226 13.716
    endloop
  endfacet
  facet normal -0 -1 0
    outer loop
      vertex 55.5627 -32.7652 13.716
      vertex -55.6893 -32.7652 13.716
      vertex -55.6893 -32.7652 -13.716
    endloop
  endfacet
  facet normal 0 0 1
    outer loop
      vertex -58.0128 -31.0947 13.716
      vertex -55.6893 -32.7652 13.716
      vertex 55.5627 -32.7652 13.716
    endloop
  endfacet
  facet normal 0 -1 0
    outer loop
      vertex -55.6893 -32.7652 -13.716
      vertex 55.5627 -32.7652 -13.716
      vertex 55.5627 -32.7652 13.716
    endloop
  endfacet
  facet normal 0 0 -1
    outer loop
      vertex 56.7848 -32.4863 -13.716
      vertex 55.5627 -32.7652 -13.716
      vertex -55.6893 -32.7652 -13.716
    endloop
  endfacet
  facet normal 0 0 1
    outer loop
      vertex 55.5627 -32.7652 13.716
      vertex 57.3995 -32.0443 13.716
      vertex 58.166 -30.226 13.716
    endloop
  endfacet
  facet normal 0 0 1
    outer loop
      vertex 55.5627 -32.7652 13.716
      vertex 56.7848 -32.4863 13.716
      vertex 57.3995 -32.0443 13.716
    endloop
  endfacet
  facet normal 0 0 -1
    outer loop
      vertex 58.1156 30.7293 -13.716
      vertex 58.166 30.226 -13.716
      vertex 58.166 -30.226 -13.716
    endloop
  endfacet
  facet normal 0.998761 0.0497603 0
    outer loop
      vertex 58.166 30.226 -13.716
      vertex 58.1534 30.4789 -13.716
      vertex 58.1534 30.4789 8.63598
    endloop
  endfacet
  facet normal -0.623249 -0.782023 -0
    outer loop
      vertex -57.1087 -32.2883 13.716
      vertex -57.3067 -32.1305 13.716
      vertex -57.1087 -32.2883 -13.716
    endloop
  endfacet
  facet normal 0 0 -1
    outer loop
      vertex -57.7934 -31.5504 -13.716
      vertex -58.0128 -31.0947 -13.716
      vertex -58.0875 -30.8528 -13.716
    endloop
  endfacet
  facet normal 0.853106 0.521738 -0
    outer loop
      vertex 57.8567 31.4408 -13.716
      vertex 57.7246 31.6568 -13.716
      vertex 57.8567 31.4408 13.716
    endloop
  endfacet
  facet normal 0.901116 0.433578 0
    outer loop
      vertex 57.9665 31.2126 8.63598
      vertex 57.8567 31.4408 -13.716
      vertex 57.8567 31.4408 13.716
    endloop
  endfacet
  facet normal 0 0 1
    outer loop
      vertex 56.7848 32.4863 13.716
      vertex 56.067 32.7274 13.716
      vertex 55.5627 32.7652 13.716
    endloop
  endfacet
  facet normal 0 0 1
    outer loop
      vertex 57.8567 31.4408 13.716
      vertex 56.7848 32.4863 13.716
      vertex 55.5627 32.7652 13.716
    endloop
  endfacet
  facet normal 0 1 -0
    outer loop
      vertex 55.5627 32.7652 -13.716
      vertex -55.6893 32.7652 -13.716
      vertex 55.5627 32.7652 13.716
    endloop
  endfacet
  facet normal 0 0 -1
    outer loop
      vertex -56.896 32.4257 -13.716
      vertex -55.6893 32.7652 -13.716
      vertex 55.5627 32.7652 -13.716
    endloop
  endfacet
  facet normal -0.698166 0.715936 0
    outer loop
      vertex -57.3067 32.1304 -13.716
      vertex -57.488 31.9536 8.63598
      vertex -57.3067 32.1304 13.716
    endloop
  endfacet
  facet normal 0 0 1
    outer loop
      vertex 55.5627 32.7652 13.716
      vertex -56.1912 32.7023 13.716
      vertex -58.1628 30.3526 13.716
    endloop
  endfacet
  facet normal 0 0 1
    outer loop
      vertex -58.1628 -30.3526 13.716
      vertex -58.0875 -30.8528 13.716
      vertex -58.0128 -31.0947 13.716
    endloop
  endfacet
  facet normal -0.98023 -0.197863 -0
    outer loop
      vertex -58.0875 -30.8528 13.716
      vertex -58.1376 -30.6046 13.716
      vertex -58.0875 -30.8528 -13.716
    endloop
  endfacet
  facet normal -1 0 0
    outer loop
      vertex -58.1628 30.3526 -13.716
      vertex -58.1628 -30.3526 -13.716
      vertex -58.1628 -30.3526 13.716
    endloop
  endfacet
  facet normal 0 0 -1
    outer loop
      vertex -58.0875 -30.8528 -13.716
      vertex -58.1628 -30.3526 -13.716
      vertex -58.1628 30.3526 -13.716
    endloop
  endfacet
  facet normal 0 0 1
    outer loop
      vertex -57.1087 -32.2883 13.716
      vertex -56.435 -32.6337 13.716
      vertex -55.6893 -32.7652 13.716
    endloop
  endfacet
  facet normal 0 0 1
    outer loop
      vertex -58.0128 -31.0947 13.716
      vertex -57.1087 -32.2883 13.716
      vertex -55.6893 -32.7652 13.716
    endloop
  endfacet
  facet normal -0.0746427 -0.99721 -0
    outer loop
      vertex -55.9418 -32.7463 -8.636
      vertex -55.9418 -32.7463 -13.716
      vertex -55.6893 -32.7652 -13.716
    endloop
  endfacet
  facet normal -0.17374 -0.984792 -0
    outer loop
      vertex -56.1912 -32.7023 -8.636
      vertex -56.1912 -32.7023 -13.716
      vertex -55.9418 -32.7463 -8.636
    endloop
  endfacet
  facet normal 0.0248836 -0.99969 0
    outer loop
      vertex 55.5627 -32.7652 -13.716
      vertex 55.8158 -32.7589 -8.636
      vertex 55.5627 -32.7652 13.716
    endloop
  endfacet
  facet normal 0.318596 -0.947891 0
    outer loop
      vertex 56.3139 -32.6711 -8.636
      vertex 56.554 -32.5904 -8.636
      vertex 56.3139 -32.6711 13.716
    endloop
  endfacet
  facet normal 0 0 1
    outer loop
      vertex 57.3995 -32.0443 13.716
      vertex 57.8567 -31.4408 13.716
      vertex 58.166 -30.226 13.716
    endloop
  endfacet
  facet normal 0 0 -1
    outer loop
      vertex 57.8567 -31.4408 -13.716
      vertex 57.3995 -32.0443 -13.716
      vertex 56.7848 -32.4863 -13.716
    endloop
  endfacet
  facet normal 0 0 -1
    outer loop
      vertex 58.1156 30.7293 -13.716
      vertex 58.1534 30.4789 -13.716
      vertex 58.166 30.226 -13.716
    endloop
  endfacet
  facet normal 0.988797 0.149267 0
    outer loop
      vertex 58.1534 30.4789 8.63598
      vertex 58.1534 30.4789 -13.716
      vertex 58.1156 30.7293 -13.716
    endloop
  endfacet
  facet normal -0.921598 -0.388145 0
    outer loop
      vertex -58.0128 -31.0947 -13.716
      vertex -57.9145 -31.3281 -13.716
      vertex -58.0128 -31.0947 13.716
    endloop
  endfacet
  facet normal -0.95548 -0.295057 0
    outer loop
      vertex -58.0875 -30.8528 -13.716
      vertex -58.0128 -31.0947 -13.716
      vertex -58.0128 -31.0947 13.716
    endloop
  endfacet
  facet normal 0 0 -1
    outer loop
      vertex 57.8567 31.4408 -13.716
      vertex 57.9665 31.2126 -13.716
      vertex 58.1156 30.7293 -13.716
    endloop
  endfacet
  facet normal 0.901116 0.433578 0
    outer loop
      vertex 57.9665 31.2126 8.63598
      vertex 57.9665 31.2126 -13.716
      vertex 57.8567 31.4408 -13.716
    endloop
  endfacet
  facet normal 0.797386 0.60347 0
    outer loop
      vertex 57.5718 31.8587 -8.636
      vertex 57.7246 31.6568 13.716
      vertex 57.7246 31.6568 -13.716
    endloop
  endfacet
  facet normal 0.732878 0.68036 0
    outer loop
      vertex 57.5718 31.8587 -8.636
      vertex 57.5718 31.8587 -13.716
      vertex 57.3995 32.0443 13.716
    endloop
  endfacet
  facet normal 0 0 -1
    outer loop
      vertex 56.554 32.5904 -13.716
      vertex 56.7848 32.4863 -13.716
      vertex 57.2097 32.2118 -13.716
    endloop
  endfacet
  facet normal 0 0 -1
    outer loop
      vertex 55.5627 32.7652 -13.716
      vertex 56.554 32.5904 -13.716
      vertex 57.2097 32.2118 -13.716
    endloop
  endfacet
  facet normal 0 1 0
    outer loop
      vertex -55.6893 32.7652 -13.716
      vertex -55.6893 32.7652 13.716
      vertex 55.5627 32.7652 13.716
    endloop
  endfacet
  facet normal -0.456196 0.889879 0
    outer loop
      vertex -56.896 32.4257 13.716
      vertex -56.6707 32.5412 -13.716
      vertex -56.896 32.4257 -13.716
    endloop
  endfacet
  facet normal 0 0 -1
    outer loop
      vertex -58.1628 30.3526 -13.716
      vertex -58.0128 31.0947 -13.716
      vertex -57.7934 31.5504 -13.716
    endloop
  endfacet
  facet normal -0.878152 0.478382 0
    outer loop
      vertex -57.7934 31.5504 -13.716
      vertex -57.9145 31.3281 -13.716
      vertex -57.9145 31.3281 13.716
    endloop
  endfacet
  facet normal -0.995037 -0.0995037 0
    outer loop
      vertex -58.1628 -30.3526 -13.716
      vertex -58.1376 -30.6046 13.716
      vertex -58.1628 -30.3526 13.716
    endloop
  endfacet
  facet normal -0.98023 -0.197863 -0
    outer loop
      vertex -58.1376 -30.6046 13.716
      vertex -58.1376 -30.6046 -13.716
      vertex -58.0875 -30.8528 -13.716
    endloop
  endfacet
  facet normal 0 0 1
    outer loop
      vertex -57.6507 -31.7597 13.716
      vertex -57.3067 -32.1305 13.716
      vertex -57.1087 -32.2883 13.716
    endloop
  endfacet
  facet normal 0 0 1
    outer loop
      vertex -58.0128 -31.0947 13.716
      vertex -57.6507 -31.7597 13.716
      vertex -57.1087 -32.2883 13.716
    endloop
  endfacet
  facet normal -0.542613 -0.839983 0
    outer loop
      vertex -56.896 -32.4257 -13.716
      vertex -56.896 -32.4257 13.716
      vertex -57.1087 -32.2883 13.716
    endloop
  endfacet
  facet normal -0.365322 -0.930881 -0
    outer loop
      vertex -56.6707 -32.5412 -8.636
      vertex -56.6707 -32.5412 -13.716
      vertex -56.435 -32.6337 -13.716
    endloop
  endfacet
  facet normal -0.27086 -0.962619 0
    outer loop
      vertex -56.1912 -32.7023 -8.636
      vertex -56.435 -32.6337 13.716
      vertex -56.435 -32.6337 -8.636
    endloop
  endfacet
  facet normal 0 0 1
    outer loop
      vertex -56.435 -32.6337 13.716
      vertex -56.1912 -32.7023 13.716
      vertex -55.6893 -32.7652 13.716
    endloop
  endfacet
  facet normal -0.542613 -0.839983 0
    outer loop
      vertex -57.1087 -32.2883 -13.716
      vertex -56.896 -32.4257 -13.716
      vertex -57.1087 -32.2883 13.716
    endloop
  endfacet
  facet normal 0 0 -1
    outer loop
      vertex -55.6893 -32.7652 -13.716
      vertex -56.896 -32.4257 -13.716
      vertex -57.1087 -32.2883 -13.716
    endloop
  endfacet
  facet normal 0.0248836 -0.99969 0
    outer loop
      vertex 55.8158 -32.7589 -8.636
      vertex 55.8158 -32.7589 13.716
      vertex 55.5627 -32.7652 13.716
    endloop
  endfacet
  facet normal 0.411153 -0.911566 0
    outer loop
      vertex 56.7848 -32.4863 13.716
      vertex 56.554 -32.5904 -8.636
      vertex 56.7848 -32.4863 -13.716
    endloop
  endfacet
  facet normal 0.222321 -0.974974 0
    outer loop
      vertex 56.3139 -32.6711 13.716
      vertex 56.067 -32.7274 -8.636
      vertex 56.3139 -32.6711 -8.636
    endloop
  endfacet
  facet normal 0.124424 -0.992229 0
    outer loop
      vertex 56.067 -32.7274 -8.636
      vertex 55.8158 -32.7589 13.716
      vertex 55.8158 -32.7589 -8.636
    endloop
  endfacet
  facet normal 0 0 -1
    outer loop
      vertex 56.3139 -32.6711 -13.716
      vertex 55.8158 -32.7589 -13.716
      vertex 55.5627 -32.7652 -13.716
    endloop
  endfacet
  facet normal 0 0 -1
    outer loop
      vertex 56.7848 -32.4863 -13.716
      vertex 56.3139 -32.6711 -13.716
      vertex 55.5627 -32.7652 -13.716
    endloop
  endfacet
  facet normal 0 0 -1
    outer loop
      vertex 58.166 -30.226 -13.716
      vertex 58.1156 -30.7293 -13.716
      vertex 57.8567 -31.4408 -13.716
    endloop
  endfacet
  facet normal 0.969065 -0.246807 0
    outer loop
      vertex 58.1156 -30.7293 13.716
      vertex 58.0531 -30.9747 8.63598
      vertex 58.1156 -30.7293 -13.716
    endloop
  endfacet
  facet normal 0 0 1
    outer loop
      vertex 57.8567 -31.4408 13.716
      vertex 57.9665 -31.2126 13.716
      vertex 58.166 -30.226 13.716
    endloop
  endfacet
  facet normal 0.901116 -0.433578 0
    outer loop
      vertex 57.8567 -31.4408 -13.716
      vertex 57.9665 -31.2126 13.716
      vertex 57.8567 -31.4408 13.716
    endloop
  endfacet
  facet normal 0.853106 -0.521738 0
    outer loop
      vertex 57.8567 -31.4408 13.716
      vertex 57.7246 -31.6568 13.716
      vertex 57.8567 -31.4408 -13.716
    endloop
  endfacet
  facet normal 0.661909 -0.749584 0
    outer loop
      vertex 57.3995 -32.0443 13.716
      vertex 57.2097 -32.2119 13.716
      vertex 57.3995 -32.0443 -13.716
    endloop
  endfacet
  facet normal 0 0 -1
    outer loop
      vertex -57.7934 -31.5504 -13.716
      vertex -57.9145 -31.3281 -13.716
      vertex -58.0128 -31.0947 -13.716
    endloop
  endfacet
  facet normal -0.878152 -0.478382 0
    outer loop
      vertex -57.7934 -31.5504 -13.716
      vertex -57.7934 -31.5504 13.716
      vertex -57.9145 -31.3281 -13.716
    endloop
  endfacet
  facet normal 0.939678 0.34206 0
    outer loop
      vertex 58.0531 30.9747 8.63598
      vertex 58.0531 30.9747 -13.716
      vertex 57.9665 31.2126 -13.716
    endloop
  endfacet
  facet normal 0.969065 0.246807 0
    outer loop
      vertex 58.1156 30.7293 -13.716
      vertex 58.0531 30.9747 -13.716
      vertex 58.0531 30.9747 8.63598
    endloop
  endfacet
  facet normal 0.661687 0.74978 0
    outer loop
      vertex 57.3995 32.0443 13.716
      vertex 57.3995 32.0443 -13.716
      vertex 57.2097 32.2118 -13.716
    endloop
  endfacet
  facet normal 0.853106 0.521738 -0
    outer loop
      vertex 57.7246 31.6568 -13.716
      vertex 57.7246 31.6568 13.716
      vertex 57.8567 31.4408 13.716
    endloop
  endfacet
  facet normal 0.499962 0.866047 0
    outer loop
      vertex 56.7848 32.4863 13.716
      vertex 57.0041 32.3597 -13.716
      vertex 56.7848 32.4863 -13.716
    endloop
  endfacet
  facet normal 0 0 1
    outer loop
      vertex 57.8567 31.4408 13.716
      vertex 57.3995 32.0443 13.716
      vertex 56.7848 32.4863 13.716
    endloop
  endfacet
  facet normal 0.411153 0.911566 -0
    outer loop
      vertex 56.554 32.5904 -13.716
      vertex 56.554 32.5904 13.716
      vertex 56.7848 32.4863 13.716
    endloop
  endfacet
  facet normal 0 0 1
    outer loop
      vertex 56.067 32.7274 13.716
      vertex 55.8158 32.7589 13.716
      vertex 55.5627 32.7652 13.716
    endloop
  endfacet
  facet normal 0.411153 0.911566 0
    outer loop
      vertex 56.7848 32.4863 13.716
      vertex 56.7848 32.4863 -13.716
      vertex 56.554 32.5904 -13.716
    endloop
  endfacet
  facet normal 0 0 -1
    outer loop
      vertex 56.7848 32.4863 -13.716
      vertex 57.0041 32.3597 -13.716
      vertex 57.2097 32.2118 -13.716
    endloop
  endfacet
  facet normal 0 0 1
    outer loop
      vertex -56.1912 32.7023 13.716
      vertex -57.3067 32.1304 13.716
      vertex -58.1628 30.3526 13.716
    endloop
  endfacet
  facet normal -0.62349 0.781831 0
    outer loop
      vertex -57.3067 32.1304 13.716
      vertex -57.1087 32.2883 -8.636
      vertex -57.3067 32.1304 -13.716
    endloop
  endfacet
  facet normal -0.0746427 0.99721 0
    outer loop
      vertex -55.6893 32.7652 -13.716
      vertex -55.9418 32.7463 -13.716
      vertex -55.9418 32.7463 8.63598
    endloop
  endfacet
  facet normal 0 0 1
    outer loop
      vertex 55.5627 32.7652 13.716
      vertex -55.6893 32.7652 13.716
      vertex -56.1912 32.7023 13.716
    endloop
  endfacet
  facet normal -0.17374 0.984792 0
    outer loop
      vertex -56.1912 32.7023 13.716
      vertex -55.9418 32.7463 8.63598
      vertex -56.1912 32.7023 -13.716
    endloop
  endfacet
  facet normal 0 0 -1
    outer loop
      vertex -56.896 32.4257 -13.716
      vertex -56.1912 32.7023 -13.716
      vertex -55.6893 32.7652 -13.716
    endloop
  endfacet
  facet normal 0 0 -1
    outer loop
      vertex -58.1628 30.3526 -13.716
      vertex -58.0875 30.8527 -13.716
      vertex -58.0128 31.0947 -13.716
    endloop
  endfacet
  facet normal -0.995037 0.0995037 0
    outer loop
      vertex -58.1628 30.3526 13.716
      vertex -58.1376 30.6046 -8.636
      vertex -58.1376 30.6046 -13.716
    endloop
  endfacet
  facet normal -0.995037 -0.0995037 0
    outer loop
      vertex -58.1628 -30.3526 -13.716
      vertex -58.1376 -30.6046 -13.716
      vertex -58.1376 -30.6046 13.716
    endloop
  endfacet
  facet normal 0 0 -1
    outer loop
      vertex -58.0875 -30.8528 -13.716
      vertex -58.1376 -30.6046 -13.716
      vertex -58.1628 -30.3526 -13.716
    endloop
  endfacet
  facet normal -0.826236 -0.563325 0
    outer loop
      vertex -57.6507 -31.7597 13.716
      vertex -57.7934 -31.5504 13.716
      vertex -57.7934 -31.5504 -13.716
    endloop
  endfacet
  facet normal 0 0 1
    outer loop
      vertex -58.0128 -31.0947 13.716
      vertex -57.7934 -31.5504 13.716
      vertex -57.6507 -31.7597 13.716
    endloop
  endfacet
  facet normal 0 0 -1
    outer loop
      vertex -57.488 -31.9536 -13.716
      vertex -57.6507 -31.7597 -13.716
      vertex -57.7934 -31.5504 -13.716
    endloop
  endfacet
  facet normal 0 0 -1
    outer loop
      vertex -57.1087 -32.2883 -13.716
      vertex -57.488 -31.9536 -13.716
      vertex -57.7934 -31.5504 -13.716
    endloop
  endfacet
  facet normal -0.27086 -0.962619 0
    outer loop
      vertex -56.1912 -32.7023 -8.636
      vertex -56.1912 -32.7023 13.716
      vertex -56.435 -32.6337 13.716
    endloop
  endfacet
  facet normal -0.27086 -0.962619 0
    outer loop
      vertex -56.435 -32.6337 -8.636
      vertex -56.1912 -32.7023 -13.716
      vertex -56.1912 -32.7023 -8.636
    endloop
  endfacet
  facet normal -0.17374 -0.984792 0
    outer loop
      vertex -55.9418 -32.7463 -8.636
      vertex -56.1912 -32.7023 13.716
      vertex -56.1912 -32.7023 -8.636
    endloop
  endfacet
  facet normal 0 0 1
    outer loop
      vertex -56.1912 -32.7023 13.716
      vertex -55.9418 -32.7463 13.716
      vertex -55.6893 -32.7652 13.716
    endloop
  endfacet
  facet normal -0.365322 -0.930881 0
    outer loop
      vertex -56.6707 -32.5412 -8.636
      vertex -56.435 -32.6337 -13.716
      vertex -56.435 -32.6337 -8.636
    endloop
  endfacet
  facet normal 0 0 -1
    outer loop
      vertex -55.6893 -32.7652 -13.716
      vertex -56.1912 -32.7023 -13.716
      vertex -56.896 -32.4257 -13.716
    endloop
  endfacet
  facet normal -0.365322 -0.930881 -0
    outer loop
      vertex -56.435 -32.6337 13.716
      vertex -56.6707 -32.5412 -8.636
      vertex -56.435 -32.6337 -8.636
    endloop
  endfacet
  facet normal -0.456196 -0.889879 0
    outer loop
      vertex -56.6707 -32.5412 -8.636
      vertex -56.896 -32.4257 13.716
      vertex -56.896 -32.4257 -13.716
    endloop
  endfacet
  facet normal 0 0 1
    outer loop
      vertex 56.7848 -32.4863 13.716
      vertex 57.2097 -32.2119 13.716
      vertex 57.3995 -32.0443 13.716
    endloop
  endfacet
  facet normal 0 0 -1
    outer loop
      vertex 57.2097 -32.2119 -13.716
      vertex 57.0041 -32.3597 -13.716
      vertex 56.7848 -32.4863 -13.716
    endloop
  endfacet
  facet normal 0 0 1
    outer loop
      vertex 56.3139 -32.6711 13.716
      vertex 56.554 -32.5904 13.716
      vertex 56.7848 -32.4863 13.716
    endloop
  endfacet
  facet normal 0 0 1
    outer loop
      vertex 55.5627 -32.7652 13.716
      vertex 56.3139 -32.6711 13.716
      vertex 56.7848 -32.4863 13.716
    endloop
  endfacet
  facet normal 0.318596 -0.947891 0
    outer loop
      vertex 56.3139 -32.6711 -13.716
      vertex 56.554 -32.5904 -8.636
      vertex 56.3139 -32.6711 -8.636
    endloop
  endfacet
  facet normal 0.411153 -0.911566 0
    outer loop
      vertex 56.554 -32.5904 -8.636
      vertex 56.554 -32.5904 -13.716
      vertex 56.7848 -32.4863 -13.716
    endloop
  endfacet
  facet normal 0.222321 -0.974974 0
    outer loop
      vertex 56.067 -32.7274 -8.636
      vertex 56.067 -32.7274 -13.716
      vertex 56.3139 -32.6711 -13.716
    endloop
  endfacet
  facet normal 0.222321 -0.974974 0
    outer loop
      vertex 56.3139 -32.6711 -8.636
      vertex 56.067 -32.7274 -8.636
      vertex 56.3139 -32.6711 -13.716
    endloop
  endfacet
  facet normal 0.124424 -0.992229 0
    outer loop
      vertex 55.8158 -32.7589 -8.636
      vertex 55.8158 -32.7589 -13.716
      vertex 56.067 -32.7274 -8.636
    endloop
  endfacet
  facet normal 0.0248836 -0.99969 0
    outer loop
      vertex 55.5627 -32.7652 -13.716
      vertex 55.8158 -32.7589 -13.716
      vertex 55.8158 -32.7589 -8.636
    endloop
  endfacet
  facet normal 0 0 -1
    outer loop
      vertex 58.166 -30.226 -13.716
      vertex 58.1534 -30.4789 -13.716
      vertex 58.1156 -30.7293 -13.716
    endloop
  endfacet
  facet normal 0.998761 -0.0497603 0
    outer loop
      vertex 58.166 -30.226 13.716
      vertex 58.1534 -30.4789 -13.716
      vertex 58.166 -30.226 -13.716
    endloop
  endfacet
  facet normal 0 0 -1
    outer loop
      vertex 57.8567 -31.4408 -13.716
      vertex 57.7246 -31.6568 -13.716
      vertex 57.5718 -31.8587 -13.716
    endloop
  endfacet
  facet normal 0 0 1
    outer loop
      vertex 57.3995 -32.0443 13.716
      vertex 57.5718 -31.8587 13.716
      vertex 57.8567 -31.4408 13.716
    endloop
  endfacet
  facet normal 0 0 -1
    outer loop
      vertex 58.1156 -30.7293 -13.716
      vertex 57.9665 -31.2126 -13.716
      vertex 57.8567 -31.4408 -13.716
    endloop
  endfacet
  facet normal 0 0 1
    outer loop
      vertex 57.9665 -31.2126 13.716
      vertex 58.1156 -30.7293 13.716
      vertex 58.166 -30.226 13.716
    endloop
  endfacet
  facet normal 0.797386 0.60347 0
    outer loop
      vertex 57.7246 31.6568 -13.716
      vertex 57.5718 31.8587 -13.716
      vertex 57.5718 31.8587 -8.636
    endloop
  endfacet
  facet normal 0 0 -1
    outer loop
      vertex 57.2097 32.2118 -13.716
      vertex 57.5718 31.8587 -13.716
      vertex 57.7246 31.6568 -13.716
    endloop
  endfacet
  facet normal 0.732878 0.68036 0
    outer loop
      vertex 57.3995 32.0443 13.716
      vertex 57.5718 31.8587 13.716
      vertex 57.5718 31.8587 -8.636
    endloop
  endfacet
  facet normal 0 0 1
    outer loop
      vertex 57.8567 31.4408 13.716
      vertex 57.7246 31.6568 13.716
      vertex 57.3995 32.0443 13.716
    endloop
  endfacet
  facet normal 0 0 1
    outer loop
      vertex 57.3995 32.0443 13.716
      vertex 57.2097 32.2118 13.716
      vertex 56.7848 32.4863 13.716
    endloop
  endfacet
  facet normal 0.661687 0.74978 -0
    outer loop
      vertex 57.2097 32.2118 -13.716
      vertex 57.2097 32.2118 13.716
      vertex 57.3995 32.0443 13.716
    endloop
  endfacet
  facet normal 0 0 -1
    outer loop
      vertex 55.8158 32.7589 -13.716
      vertex 56.067 32.7274 -13.716
      vertex 56.554 32.5904 -13.716
    endloop
  endfacet
  facet normal 0 0 -1
    outer loop
      vertex 55.5627 32.7652 -13.716
      vertex 55.8158 32.7589 -13.716
      vertex 56.554 32.5904 -13.716
    endloop
  endfacet
  facet normal 0.222696 0.974888 0
    outer loop
      vertex 56.067 32.7274 13.716
      vertex 56.3139 32.671 13.716
      vertex 56.067 32.7274 -13.716
    endloop
  endfacet
  facet normal 0 0 1
    outer loop
      vertex 56.7848 32.4863 13.716
      vertex 56.554 32.5904 13.716
      vertex 56.067 32.7274 13.716
    endloop
  endfacet
  facet normal 0 0 1
    outer loop
      vertex 57.2097 32.2118 13.716
      vertex 57.0041 32.3597 13.716
      vertex 56.7848 32.4863 13.716
    endloop
  endfacet
  facet normal 0.583961 0.811781 -0
    outer loop
      vertex 57.2097 32.2118 -13.716
      vertex 57.0041 32.3597 -13.716
      vertex 57.2097 32.2118 13.716
    endloop
  endfacet
  facet normal 0 0 1
    outer loop
      vertex -57.3067 32.1304 13.716
      vertex -57.6507 31.7596 13.716
      vertex -57.9145 31.3281 13.716
    endloop
  endfacet
  facet normal 0 0 -1
    outer loop
      vertex -57.3067 32.1304 -13.716
      vertex -57.1087 32.2883 -13.716
      vertex -56.896 32.4257 -13.716
    endloop
  endfacet
  facet normal -0.921598 0.388145 0
    outer loop
      vertex -58.0128 31.0947 -13.716
      vertex -58.0128 31.0947 13.716
      vertex -57.9145 31.3281 13.716
    endloop
  endfacet
  facet normal -0.955514 0.294946 0
    outer loop
      vertex -58.0875 30.8527 -13.716
      vertex -58.0128 31.0947 13.716
      vertex -58.0128 31.0947 -13.716
    endloop
  endfacet
  facet normal 0 0 1
    outer loop
      vertex -56.1912 32.7023 13.716
      vertex -56.896 32.4257 13.716
      vertex -57.3067 32.1304 13.716
    endloop
  endfacet
  facet normal 0 0 1
    outer loop
      vertex -56.1912 32.7023 13.716
      vertex -56.435 32.6337 13.716
      vertex -56.896 32.4257 13.716
    endloop
  endfacet
  facet normal -0.17374 0.984792 0
    outer loop
      vertex -56.1912 32.7023 13.716
      vertex -55.9418 32.7463 13.716
      vertex -55.9418 32.7463 8.63598
    endloop
  endfacet
  facet normal -0.0746427 0.99721 0
    outer loop
      vertex -55.6893 32.7652 -13.716
      vertex -55.9418 32.7463 8.63598
      vertex -55.6893 32.7652 13.716
    endloop
  endfacet
  facet normal -0.27086 0.962619 0
    outer loop
      vertex -56.1912 32.7023 -13.716
      vertex -56.435 32.6337 -13.716
      vertex -56.1912 32.7023 13.716
    endloop
  endfacet
  facet normal 0 0 -1
    outer loop
      vertex -56.896 32.4257 -13.716
      vertex -56.435 32.6337 -13.716
      vertex -56.1912 32.7023 -13.716
    endloop
  endfacet
  facet normal 0 0 -1
    outer loop
      vertex -58.1628 30.3526 -13.716
      vertex -58.1376 30.6046 -13.716
      vertex -58.0875 30.8527 -13.716
    endloop
  endfacet
  facet normal -0.995037 0.0995037 0
    outer loop
      vertex -58.1628 30.3526 13.716
      vertex -58.1376 30.6046 -13.716
      vertex -58.1628 30.3526 -13.716
    endloop
  endfacet
  facet normal -0.878152 -0.478382 0
    outer loop
      vertex -57.7934 -31.5504 13.716
      vertex -57.9145 -31.3281 13.716
      vertex -57.9145 -31.3281 -13.716
    endloop
  endfacet
  facet normal 0 0 1
    outer loop
      vertex -58.0128 -31.0947 13.716
      vertex -57.9145 -31.3281 13.716
      vertex -57.7934 -31.5504 13.716
    endloop
  endfacet
  facet normal 0 0 1
    outer loop
      vertex -57.6507 -31.7597 13.716
      vertex -57.488 -31.9536 13.716
      vertex -57.3067 -32.1305 13.716
    endloop
  endfacet
  facet normal -0.698368 -0.715739 0
    outer loop
      vertex -57.488 -31.9536 -13.716
      vertex -57.3067 -32.1305 -13.716
      vertex -57.3067 -32.1305 13.716
    endloop
  endfacet
  facet normal -0.766047 -0.642784 -0
    outer loop
      vertex -57.6507 -31.7597 13.716
      vertex -57.6507 -31.7597 -13.716
      vertex -57.488 -31.9536 -13.716
    endloop
  endfacet
  facet normal -0.826236 -0.563325 0
    outer loop
      vertex -57.7934 -31.5504 -13.716
      vertex -57.6507 -31.7597 -13.716
      vertex -57.6507 -31.7597 13.716
    endloop
  endfacet
  facet normal -0.17374 -0.984792 0
    outer loop
      vertex -55.9418 -32.7463 -8.636
      vertex -55.9418 -32.7463 13.716
      vertex -56.1912 -32.7023 13.716
    endloop
  endfacet
  facet normal -0.0746427 -0.99721 0
    outer loop
      vertex -55.6893 -32.7652 13.716
      vertex -55.9418 -32.7463 13.716
      vertex -55.9418 -32.7463 -8.636
    endloop
  endfacet
  facet normal -0.17374 -0.984792 0
    outer loop
      vertex -56.1912 -32.7023 -13.716
      vertex -55.9418 -32.7463 -13.716
      vertex -55.9418 -32.7463 -8.636
    endloop
  endfacet
  facet normal 0 0 -1
    outer loop
      vertex -55.6893 -32.7652 -13.716
      vertex -55.9418 -32.7463 -13.716
      vertex -56.1912 -32.7023 -13.716
    endloop
  endfacet
  facet normal 0 0 -1
    outer loop
      vertex -56.1912 -32.7023 -13.716
      vertex -56.435 -32.6337 -13.716
      vertex -56.896 -32.4257 -13.716
    endloop
  endfacet
  facet normal -0.27086 -0.962619 -0
    outer loop
      vertex -56.435 -32.6337 -8.636
      vertex -56.435 -32.6337 -13.716
      vertex -56.1912 -32.7023 -13.716
    endloop
  endfacet
  facet normal -0.456196 -0.889879 0
    outer loop
      vertex -56.6707 -32.5412 -8.636
      vertex -56.6707 -32.5412 13.716
      vertex -56.896 -32.4257 13.716
    endloop
  endfacet
  facet normal 0 0 1
    outer loop
      vertex -57.1087 -32.2883 13.716
      vertex -56.896 -32.4257 13.716
      vertex -56.435 -32.6337 13.716
    endloop
  endfacet
  facet normal 0.661909 -0.749584 0
    outer loop
      vertex 57.2097 -32.2119 13.716
      vertex 57.2097 -32.2119 -13.716
      vertex 57.3995 -32.0443 -13.716
    endloop
  endfacet
  facet normal 0.583701 -0.811969 0
    outer loop
      vertex 57.2097 -32.2119 13.716
      vertex 57.0041 -32.3597 13.716
      vertex 57.2097 -32.2119 -13.716
    endloop
  endfacet
  facet normal 0 0 1
    outer loop
      vertex 56.7848 -32.4863 13.716
      vertex 57.0041 -32.3597 13.716
      vertex 57.2097 -32.2119 13.716
    endloop
  endfacet
  facet normal 0.499962 -0.866047 0
    outer loop
      vertex 56.7848 -32.4863 -13.716
      vertex 57.0041 -32.3597 13.716
      vertex 56.7848 -32.4863 13.716
    endloop
  endfacet
  facet normal 0.124424 -0.992229 0
    outer loop
      vertex 56.067 -32.7274 -8.636
      vertex 56.067 -32.7274 13.716
      vertex 55.8158 -32.7589 13.716
    endloop
  endfacet
  facet normal 0 0 1
    outer loop
      vertex 55.5627 -32.7652 13.716
      vertex 55.8158 -32.7589 13.716
      vertex 56.3139 -32.6711 13.716
    endloop
  endfacet
  facet normal 0.318596 -0.947891 0
    outer loop
      vertex 56.554 -32.5904 -8.636
      vertex 56.554 -32.5904 13.716
      vertex 56.3139 -32.6711 13.716
    endloop
  endfacet
  facet normal 0.411153 -0.911566 0
    outer loop
      vertex 56.7848 -32.4863 13.716
      vertex 56.554 -32.5904 13.716
      vertex 56.554 -32.5904 -8.636
    endloop
  endfacet
  facet normal 0.318596 -0.947891 0
    outer loop
      vertex 56.3139 -32.6711 -13.716
      vertex 56.554 -32.5904 -13.716
      vertex 56.554 -32.5904 -8.636
    endloop
  endfacet
  facet normal 0 0 -1
    outer loop
      vertex 56.7848 -32.4863 -13.716
      vertex 56.554 -32.5904 -13.716
      vertex 56.3139 -32.6711 -13.716
    endloop
  endfacet
  facet normal 0.124424 -0.992229 0
    outer loop
      vertex 55.8158 -32.7589 -13.716
      vertex 56.067 -32.7274 -13.716
      vertex 56.067 -32.7274 -8.636
    endloop
  endfacet
  facet normal 0 0 -1
    outer loop
      vertex 56.3139 -32.6711 -13.716
      vertex 56.067 -32.7274 -13.716
      vertex 55.8158 -32.7589 -13.716
    endloop
  endfacet
  facet normal 0.988797 -0.149267 0
    outer loop
      vertex 58.1534 -30.4789 -13.716
      vertex 58.1534 -30.4789 -8.636
      vertex 58.1156 -30.7293 -13.716
    endloop
  endfacet
  facet normal 0.998761 -0.0497603 0
    outer loop
      vertex 58.166 -30.226 13.716
      vertex 58.1534 -30.4789 -8.636
      vertex 58.1534 -30.4789 -13.716
    endloop
  endfacet
  facet normal 0.732878 -0.68036 0
    outer loop
      vertex 57.3995 -32.0443 -13.716
      vertex 57.5718 -31.8587 -13.716
      vertex 57.5718 -31.8587 13.716
    endloop
  endfacet
  facet normal 0 0 -1
    outer loop
      vertex 57.8567 -31.4408 -13.716
      vertex 57.5718 -31.8587 -13.716
      vertex 57.3995 -32.0443 -13.716
    endloop
  endfacet
  facet normal 0 0 1
    outer loop
      vertex 57.5718 -31.8587 13.716
      vertex 57.7246 -31.6568 13.716
      vertex 57.8567 -31.4408 13.716
    endloop
  endfacet
  facet normal 0.797386 -0.60347 0
    outer loop
      vertex 57.5718 -31.8587 -13.716
      vertex 57.7246 -31.6568 13.716
      vertex 57.5718 -31.8587 13.716
    endloop
  endfacet
  facet normal 0 0 -1
    outer loop
      vertex 58.1156 -30.7293 -13.716
      vertex 58.0531 -30.9747 -13.716
      vertex 57.9665 -31.2126 -13.716
    endloop
  endfacet
  facet normal 0.901116 -0.433578 0
    outer loop
      vertex 57.8567 -31.4408 -13.716
      vertex 57.9665 -31.2126 -13.716
      vertex 57.9665 -31.2126 13.716
    endloop
  endfacet
  facet normal 0.988797 -0.149267 0
    outer loop
      vertex 58.1534 -30.4789 -8.636
      vertex 58.1156 -30.7293 13.716
      vertex 58.1156 -30.7293 -13.716
    endloop
  endfacet
  facet normal 0 0 1
    outer loop
      vertex 58.1156 -30.7293 13.716
      vertex 58.1534 -30.4789 13.716
      vertex 58.166 -30.226 13.716
    endloop
  endfacet
  facet normal 0.732878 0.68036 0
    outer loop
      vertex 57.5718 31.8587 -13.716
      vertex 57.3995 32.0443 -13.716
      vertex 57.3995 32.0443 13.716
    endloop
  endfacet
  facet normal 0 0 -1
    outer loop
      vertex 57.2097 32.2118 -13.716
      vertex 57.3995 32.0443 -13.716
      vertex 57.5718 31.8587 -13.716
    endloop
  endfacet
  facet normal 0 0 1
    outer loop
      vertex 57.7246 31.6568 13.716
      vertex 57.5718 31.8587 13.716
      vertex 57.3995 32.0443 13.716
    endloop
  endfacet
  facet normal 0.797386 0.60347 -0
    outer loop
      vertex 57.5718 31.8587 -8.636
      vertex 57.5718 31.8587 13.716
      vertex 57.7246 31.6568 13.716
    endloop
  endfacet
  facet normal 0.124424 0.992229 -0
    outer loop
      vertex 55.8158 32.7589 -13.716
      vertex 55.8158 32.7589 13.716
      vertex 56.067 32.7274 13.716
    endloop
  endfacet
  facet normal 0.0248836 0.99969 0
    outer loop
      vertex 55.5627 32.7652 13.716
      vertex 55.8158 32.7589 13.716
      vertex 55.8158 32.7589 -13.716
    endloop
  endfacet
  facet normal 0.124424 0.992229 0
    outer loop
      vertex 56.067 32.7274 13.716
      vertex 56.067 32.7274 -13.716
      vertex 55.8158 32.7589 -13.716
    endloop
  endfacet
  facet normal 0 0 1
    outer loop
      vertex 56.554 32.5904 13.716
      vertex 56.3139 32.671 13.716
      vertex 56.067 32.7274 13.716
    endloop
  endfacet
  facet normal 0.318241 0.94801 -0
    outer loop
      vertex 56.554 32.5904 -13.716
      vertex 56.3139 32.671 13.716
      vertex 56.554 32.5904 13.716
    endloop
  endfacet
  facet normal 0.222696 0.974888 0
    outer loop
      vertex 56.3139 32.671 13.716
      vertex 56.3139 32.671 -13.716
      vertex 56.067 32.7274 -13.716
    endloop
  endfacet
  facet normal 0.583961 0.811781 -0
    outer loop
      vertex 57.0041 32.3597 -13.716
      vertex 57.0041 32.3597 13.716
      vertex 57.2097 32.2118 13.716
    endloop
  endfacet
  facet normal 0.499962 0.866047 0
    outer loop
      vertex 56.7848 32.4863 13.716
      vertex 57.0041 32.3597 13.716
      vertex 57.0041 32.3597 -13.716
    endloop
  endfacet
  facet normal -0.698166 0.715936 0
    outer loop
      vertex -57.3067 32.1304 -13.716
      vertex -57.488 31.9536 -13.716
      vertex -57.488 31.9536 8.63598
    endloop
  endfacet
  facet normal -0.76621 0.64259 0
    outer loop
      vertex -57.6507 31.7596 13.716
      vertex -57.488 31.9536 13.716
      vertex -57.488 31.9536 8.63598
    endloop
  endfacet
  facet normal -0.542613 0.839983 0
    outer loop
      vertex -57.1087 32.2883 -8.636
      vertex -57.1087 32.2883 13.716
      vertex -56.896 32.4257 13.716
    endloop
  endfacet
  facet normal -0.542613 0.839983 0
    outer loop
      vertex -56.896 32.4257 -13.716
      vertex -57.1087 32.2883 -8.636
      vertex -56.896 32.4257 13.716
    endloop
  endfacet
  facet normal 0 0 -1
    outer loop
      vertex -58.0128 31.0947 -13.716
      vertex -57.9145 31.3281 -13.716
      vertex -57.7934 31.5504 -13.716
    endloop
  endfacet
  facet normal -0.921598 0.388145 0
    outer loop
      vertex -57.9145 31.3281 13.716
      vertex -57.9145 31.3281 -13.716
      vertex -58.0128 31.0947 -13.716
    endloop
  endfacet
  facet normal -0.955514 0.294946 0
    outer loop
      vertex -58.0875 30.8527 -13.716
      vertex -58.0875 30.8527 13.716
      vertex -58.0128 31.0947 13.716
    endloop
  endfacet
  facet normal 0 0 1
    outer loop
      vertex -57.9145 31.3281 13.716
      vertex -58.0128 31.0947 13.716
      vertex -58.1628 30.3526 13.716
    endloop
  endfacet
  facet normal 0 0 -1
    outer loop
      vertex -56.1912 32.7023 -13.716
      vertex -55.9418 32.7463 -13.716
      vertex -55.6893 32.7652 -13.716
    endloop
  endfacet
  facet normal -0.17374 0.984792 0
    outer loop
      vertex -55.9418 32.7463 8.63598
      vertex -55.9418 32.7463 -13.716
      vertex -56.1912 32.7023 -13.716
    endloop
  endfacet
  facet normal 0 0 1
    outer loop
      vertex -55.6893 32.7652 13.716
      vertex -55.9418 32.7463 13.716
      vertex -56.1912 32.7023 13.716
    endloop
  endfacet
  facet normal -0.0746427 0.99721 0
    outer loop
      vertex -55.9418 32.7463 8.63598
      vertex -55.9418 32.7463 13.716
      vertex -55.6893 32.7652 13.716
    endloop
  endfacet
  facet normal -0.27086 0.962619 0
    outer loop
      vertex -56.435 32.6337 -13.716
      vertex -56.435 32.6337 13.716
      vertex -56.1912 32.7023 13.716
    endloop
  endfacet
  facet normal 0 0 -1
    outer loop
      vertex -56.896 32.4257 -13.716
      vertex -56.6707 32.5412 -13.716
      vertex -56.435 32.6337 -13.716
    endloop
  endfacet
  facet normal -0.365322 0.930881 0
    outer loop
      vertex -56.6707 32.5412 -13.716
      vertex -56.435 32.6337 13.716
      vertex -56.435 32.6337 -13.716
    endloop
  endfacet
  facet normal 0 0 1
    outer loop
      vertex -56.435 32.6337 13.716
      vertex -56.6707 32.5412 13.716
      vertex -56.896 32.4257 13.716
    endloop
  endfacet
  facet normal -0.980214 0.197939 0
    outer loop
      vertex -58.1376 30.6046 -8.636
      vertex -58.0875 30.8527 13.716
      vertex -58.0875 30.8527 -13.716
    endloop
  endfacet
  facet normal -0.980214 0.197939 0
    outer loop
      vertex -58.1376 30.6046 -13.716
      vertex -58.1376 30.6046 -8.636
      vertex -58.0875 30.8527 -13.716
    endloop
  endfacet
  facet normal -0.766047 -0.642784 0
    outer loop
      vertex -57.488 -31.9536 -13.716
      vertex -57.488 -31.9536 13.716
      vertex -57.6507 -31.7597 13.716
    endloop
  endfacet
  facet normal -0.698368 -0.715739 0
    outer loop
      vertex -57.3067 -32.1305 13.716
      vertex -57.488 -31.9536 13.716
      vertex -57.488 -31.9536 -13.716
    endloop
  endfacet
  facet normal 0 0 -1
    outer loop
      vertex -57.1087 -32.2883 -13.716
      vertex -57.3067 -32.1305 -13.716
      vertex -57.488 -31.9536 -13.716
    endloop
  endfacet
  facet normal -0.623249 -0.782023 -0
    outer loop
      vertex -57.3067 -32.1305 13.716
      vertex -57.3067 -32.1305 -13.716
      vertex -57.1087 -32.2883 -13.716
    endloop
  endfacet
  facet normal -0.456196 -0.889879 0
    outer loop
      vertex -56.896 -32.4257 -13.716
      vertex -56.6707 -32.5412 -13.716
      vertex -56.6707 -32.5412 -8.636
    endloop
  endfacet
  facet normal 0 0 -1
    outer loop
      vertex -56.435 -32.6337 -13.716
      vertex -56.6707 -32.5412 -13.716
      vertex -56.896 -32.4257 -13.716
    endloop
  endfacet
  facet normal -0.365322 -0.930881 0
    outer loop
      vertex -56.435 -32.6337 13.716
      vertex -56.6707 -32.5412 13.716
      vertex -56.6707 -32.5412 -8.636
    endloop
  endfacet
  facet normal 0 0 1
    outer loop
      vertex -56.896 -32.4257 13.716
      vertex -56.6707 -32.5412 13.716
      vertex -56.435 -32.6337 13.716
    endloop
  endfacet
  facet normal 0.583701 -0.811969 0
    outer loop
      vertex 57.0041 -32.3597 13.716
      vertex 57.0041 -32.3597 -13.716
      vertex 57.2097 -32.2119 -13.716
    endloop
  endfacet
  facet normal 0.499962 -0.866047 0
    outer loop
      vertex 56.7848 -32.4863 -13.716
      vertex 57.0041 -32.3597 -13.716
      vertex 57.0041 -32.3597 13.716
    endloop
  endfacet
  facet normal 0.222321 -0.974974 0
    outer loop
      vertex 56.3139 -32.6711 13.716
      vertex 56.067 -32.7274 13.716
      vertex 56.067 -32.7274 -8.636
    endloop
  endfacet
  facet normal 0 0 1
    outer loop
      vertex 55.8158 -32.7589 13.716
      vertex 56.067 -32.7274 13.716
      vertex 56.3139 -32.6711 13.716
    endloop
  endfacet
  facet normal 0.853106 -0.521738 0
    outer loop
      vertex 57.7246 -31.6568 13.716
      vertex 57.7246 -31.6568 -13.716
      vertex 57.8567 -31.4408 -13.716
    endloop
  endfacet
  facet normal 0.797386 -0.60347 0
    outer loop
      vertex 57.5718 -31.8587 -13.716
      vertex 57.7246 -31.6568 -13.716
      vertex 57.7246 -31.6568 13.716
    endloop
  endfacet
  facet normal 0 0 1
    outer loop
      vertex 57.9665 -31.2126 13.716
      vertex 58.0531 -30.9747 13.716
      vertex 58.1156 -30.7293 13.716
    endloop
  endfacet
  facet normal 0.939678 -0.34206 0
    outer loop
      vertex 57.9665 -31.2126 -13.716
      vertex 58.0531 -30.9747 8.63598
      vertex 57.9665 -31.2126 13.716
    endloop
  endfacet
  facet normal 0.988797 -0.149267 0
    outer loop
      vertex 58.1534 -30.4789 -8.636
      vertex 58.1534 -30.4789 13.716
      vertex 58.1156 -30.7293 13.716
    endloop
  endfacet
  facet normal 0.998761 -0.0497603 0
    outer loop
      vertex 58.166 -30.226 13.716
      vertex 58.1534 -30.4789 13.716
      vertex 58.1534 -30.4789 -8.636
    endloop
  endfacet
  facet normal 0.318241 0.94801 0
    outer loop
      vertex 56.554 32.5904 -13.716
      vertex 56.3139 32.671 -13.716
      vertex 56.3139 32.671 13.716
    endloop
  endfacet
  facet normal 0 0 -1
    outer loop
      vertex 56.067 32.7274 -13.716
      vertex 56.3139 32.671 -13.716
      vertex 56.554 32.5904 -13.716
    endloop
  endfacet
  facet normal 0 0 -1
    outer loop
      vertex -57.7934 31.5504 -13.716
      vertex -57.488 31.9536 -13.716
      vertex -57.3067 32.1304 -13.716
    endloop
  endfacet
  facet normal 0 0 1
    outer loop
      vertex -57.6507 31.7596 13.716
      vertex -57.7934 31.5504 13.716
      vertex -57.9145 31.3281 13.716
    endloop
  endfacet
  facet normal -0.76621 0.64259 0
    outer loop
      vertex -57.488 31.9536 -13.716
      vertex -57.6507 31.7596 -13.716
      vertex -57.6507 31.7596 13.716
    endloop
  endfacet
  facet normal -0.76621 0.64259 0
    outer loop
      vertex -57.488 31.9536 8.63598
      vertex -57.488 31.9536 -13.716
      vertex -57.6507 31.7596 13.716
    endloop
  endfacet
  facet normal -0.62349 0.781831 0
    outer loop
      vertex -57.1087 32.2883 -8.636
      vertex -57.1087 32.2883 -13.716
      vertex -57.3067 32.1304 -13.716
    endloop
  endfacet
  facet normal -0.542613 0.839983 0
    outer loop
      vertex -56.896 32.4257 -13.716
      vertex -57.1087 32.2883 -13.716
      vertex -57.1087 32.2883 -8.636
    endloop
  endfacet
  facet normal -0.62349 0.781831 0
    outer loop
      vertex -57.3067 32.1304 13.716
      vertex -57.1087 32.2883 13.716
      vertex -57.1087 32.2883 -8.636
    endloop
  endfacet
  facet normal 0 0 1
    outer loop
      vertex -56.896 32.4257 13.716
      vertex -57.1087 32.2883 13.716
      vertex -57.3067 32.1304 13.716
    endloop
  endfacet
  facet normal -0.365322 0.930881 0
    outer loop
      vertex -56.6707 32.5412 -13.716
      vertex -56.6707 32.5412 13.716
      vertex -56.435 32.6337 13.716
    endloop
  endfacet
  facet normal -0.456196 0.889879 0
    outer loop
      vertex -56.896 32.4257 13.716
      vertex -56.6707 32.5412 13.716
      vertex -56.6707 32.5412 -13.716
    endloop
  endfacet
  facet normal -0.995037 0.0995037 0
    outer loop
      vertex -58.1628 30.3526 13.716
      vertex -58.1376 30.6046 13.716
      vertex -58.1376 30.6046 -8.636
    endloop
  endfacet
  facet normal 0 0 1
    outer loop
      vertex -58.0128 31.0947 13.716
      vertex -58.0875 30.8527 13.716
      vertex -58.1628 30.3526 13.716
    endloop
  endfacet
  facet normal 0.969065 -0.246807 0
    outer loop
      vertex 58.0531 -30.9747 8.63598
      vertex 58.0531 -30.9747 -13.716
      vertex 58.1156 -30.7293 -13.716
    endloop
  endfacet
  facet normal 0.939678 -0.34206 0
    outer loop
      vertex 57.9665 -31.2126 -13.716
      vertex 58.0531 -30.9747 -13.716
      vertex 58.0531 -30.9747 8.63598
    endloop
  endfacet
  facet normal 0.939678 -0.34206 0
    outer loop
      vertex 58.0531 -30.9747 8.63598
      vertex 58.0531 -30.9747 13.716
      vertex 57.9665 -31.2126 13.716
    endloop
  endfacet
  facet normal 0.969065 -0.246807 0
    outer loop
      vertex 58.1156 -30.7293 13.716
      vertex 58.0531 -30.9747 13.716
      vertex 58.0531 -30.9747 8.63598
    endloop
  endfacet
  facet normal 0 0 1
    outer loop
      vertex -57.3067 32.1304 13.716
      vertex -57.488 31.9536 13.716
      vertex -57.6507 31.7596 13.716
    endloop
  endfacet
  facet normal -0.698166 0.715936 0
    outer loop
      vertex -57.488 31.9536 8.63598
      vertex -57.488 31.9536 13.716
      vertex -57.3067 32.1304 13.716
    endloop
  endfacet
  facet normal -0.82611 0.563508 0
    outer loop
      vertex -57.7934 31.5504 -13.716
      vertex -57.7934 31.5504 13.716
      vertex -57.6507 31.7596 13.716
    endloop
  endfacet
  facet normal -0.878152 0.478382 0
    outer loop
      vertex -57.9145 31.3281 13.716
      vertex -57.7934 31.5504 13.716
      vertex -57.7934 31.5504 -13.716
    endloop
  endfacet
  facet normal 0 0 -1
    outer loop
      vertex -57.7934 31.5504 -13.716
      vertex -57.6507 31.7596 -13.716
      vertex -57.488 31.9536 -13.716
    endloop
  endfacet
  facet normal -0.82611 0.563508 0
    outer loop
      vertex -57.6507 31.7596 13.716
      vertex -57.6507 31.7596 -13.716
      vertex -57.7934 31.5504 -13.716
    endloop
  endfacet
  facet normal 0 0 1
    outer loop
      vertex -58.0875 30.8527 13.716
      vertex -58.1376 30.6046 13.716
      vertex -58.1628 30.3526 13.716
    endloop
  endfacet
  facet normal -0.980214 0.197939 0
    outer loop
      vertex -58.1376 30.6046 -8.636
      vertex -58.1376 30.6046 13.716
      vertex -58.0875 30.8527 13.716
    endloop
  endfacet
endsolid OpenSCAD_Model
