solid OpenSCAD_Model
  facet normal 0.988797 0.149267 0
    outer loop
      vertex 13.6656 11.6793 13.716
      vertex 13.7034 11.4289 13.716
      vertex 13.7034 11.4289 8.63598
    endloop
  endfacet
  facet normal 0.998761 0.0497603 0
    outer loop
      vertex 13.716 11.176 8.63598
      vertex 13.7034 11.4289 -13.716
      vertex 13.7034 11.4289 8.63598
    endloop
  endfacet
  facet normal 0 0 -1
    outer loop
      vertex -12.6587 13.2383 -13.716
      vertex 11.3658 13.7089 -13.716
      vertex 13.7034 11.4289 -13.716
    endloop
  endfacet
  facet normal 0 0 -1
    outer loop
      vertex 13.7034 11.4289 -13.716
      vertex -11.2393 -13.7152 -13.716
      vertex -13.7129 -11.3026 -13.716
    endloop
  endfacet
  facet normal 1 0 0
    outer loop
      vertex 13.716 11.176 13.716
      vertex 13.716 -11.176 8.63598
      vertex 13.716 11.176 8.63598
    endloop
  endfacet
  facet normal 0.998761 0.0497603 0
    outer loop
      vertex 13.7034 11.4289 8.63598
      vertex 13.716 11.176 13.716
      vertex 13.716 11.176 8.63598
    endloop
  endfacet
  facet normal -1 0 0
    outer loop
      vertex -13.7129 -11.3026 13.716
      vertex -13.7129 11.3026 -13.716
      vertex -13.7129 -11.3026 -13.716
    endloop
  endfacet
  facet normal 0.998761 0.0497603 0
    outer loop
      vertex 13.716 11.176 -8.636
      vertex 13.716 11.176 -13.716
      vertex 13.7034 11.4289 -13.716
    endloop
  endfacet
  facet normal 0 0 1
    outer loop
      vertex 13.716 11.176 13.716
      vertex 13.7034 11.4289 13.716
      vertex 13.6656 11.6793 13.716
    endloop
  endfacet
  facet normal 0.998761 0.0497603 -0
    outer loop
      vertex 13.7034 11.4289 8.63598
      vertex 13.7034 11.4289 13.716
      vertex 13.716 11.176 13.716
    endloop
  endfacet
  facet normal -0 0 1
    outer loop
      vertex -13.7129 -11.3026 13.716
      vertex 12.7597 -13.1619 13.716
      vertex 13.716 11.176 13.716
    endloop
  endfacet
  facet normal 0 0 1
    outer loop
      vertex 13.6656 11.6793 13.716
      vertex -13.7129 -11.3026 13.716
      vertex 13.716 11.176 13.716
    endloop
  endfacet
  facet normal 0 -0 -1
    outer loop
      vertex -12.6587 13.2383 -13.716
      vertex 13.7034 11.4289 -13.716
      vertex -13.7129 -11.3026 -13.716
    endloop
  endfacet
  facet normal -0.994998 -0.0998946 0
    outer loop
      vertex -13.6876 -11.5546 -13.716
      vertex -13.6876 -11.5546 13.716
      vertex -13.7129 -11.3026 13.716
    endloop
  endfacet
  facet normal 0.988797 0.149267 0
    outer loop
      vertex 13.7034 11.4289 -13.716
      vertex 13.6656 11.6793 -13.716
      vertex 13.6656 11.6793 13.716
    endloop
  endfacet
  facet normal 0.988797 0.149267 0
    outer loop
      vertex 13.7034 11.4289 8.63598
      vertex 13.7034 11.4289 -13.716
      vertex 13.6656 11.6793 13.716
    endloop
  endfacet
  facet normal 0 0 1
    outer loop
      vertex -12.8567 13.0804 13.716
      vertex -13.7129 11.3026 13.716
      vertex -13.7129 -11.3026 13.716
    endloop
  endfacet
  facet normal 0 0 1
    outer loop
      vertex 13.6656 11.6793 13.716
      vertex -12.8567 13.0804 13.716
      vertex -13.7129 -11.3026 13.716
    endloop
  endfacet
  facet normal 0 -1 0
    outer loop
      vertex 11.1127 -13.7152 8.63598
      vertex 11.1127 -13.7152 13.716
      vertex -11.2393 -13.7152 13.716
    endloop
  endfacet
  facet normal 1 -0 0
    outer loop
      vertex 13.716 -11.176 8.63598
      vertex 13.716 11.176 -8.636
      vertex 13.716 11.176 8.63598
    endloop
  endfacet
  facet normal 0 0 -1
    outer loop
      vertex 13.7034 11.4289 -13.716
      vertex 13.5165 -12.1626 -13.716
      vertex -11.2393 -13.7152 -13.716
    endloop
  endfacet
  facet normal 0 0 1
    outer loop
      vertex 12.7597 -13.1619 13.716
      vertex 13.716 -11.176 13.716
      vertex 13.716 11.176 13.716
    endloop
  endfacet
  facet normal 0.583701 -0.811969 0
    outer loop
      vertex 12.7597 -13.1619 13.716
      vertex 12.5541 -13.3097 -13.716
      vertex 12.7597 -13.1619 8.63598
    endloop
  endfacet
  facet normal 0 0 -1
    outer loop
      vertex -11.2393 -13.7152 -13.716
      vertex -12.8567 -13.0805 -13.716
      vertex -13.7129 -11.3026 -13.716
    endloop
  endfacet
  facet normal 0.0248836 0.99969 0
    outer loop
      vertex 11.1127 13.7152 13.716
      vertex 11.3658 13.7089 13.716
      vertex 11.3658 13.7089 -13.716
    endloop
  endfacet
  facet normal 0 0 1
    outer loop
      vertex -11.2393 13.7152 13.716
      vertex -11.985 13.5837 13.716
      vertex -12.8567 13.0804 13.716
    endloop
  endfacet
  facet normal 0 0 -1
    outer loop
      vertex -13.7129 11.3026 -13.716
      vertex -13.3434 12.5004 -13.716
      vertex -12.6587 13.2383 -13.716
    endloop
  endfacet
  facet normal 0 0 -1
    outer loop
      vertex -13.7129 -11.3026 -13.716
      vertex -13.7129 11.3026 -13.716
      vertex -12.6587 13.2383 -13.716
    endloop
  endfacet
  facet normal 0 0 -1
    outer loop
      vertex 11.8639 -13.6211 -13.716
      vertex 11.617 -13.6774 -13.716
      vertex 11.3658 -13.7089 -13.716
    endloop
  endfacet
  facet normal 0.901116 -0.433578 0
    outer loop
      vertex 13.5165 -12.1626 13.716
      vertex 13.4067 -12.3908 8.63598
      vertex 13.5165 -12.1626 -13.716
    endloop
  endfacet
  facet normal 1 0 0
    outer loop
      vertex 13.716 -11.176 8.63598
      vertex 13.716 -11.176 -13.716
      vertex 13.716 11.176 -8.636
    endloop
  endfacet
  facet normal 0.998761 0.0497603 0
    outer loop
      vertex 13.716 11.176 8.63598
      vertex 13.716 11.176 -8.636
      vertex 13.7034 11.4289 -13.716
    endloop
  endfacet
  facet normal 0 0 1
    outer loop
      vertex 13.5165 -12.1626 13.716
      vertex 13.6656 -11.6793 13.716
      vertex 13.716 -11.176 13.716
    endloop
  endfacet
  facet normal 1 0 0
    outer loop
      vertex 13.716 11.176 13.716
      vertex 13.716 -11.176 13.716
      vertex 13.716 -11.176 8.63598
    endloop
  endfacet
  facet normal 0 0 -1
    outer loop
      vertex 11.3658 -13.7089 -13.716
      vertex 11.1127 -13.7152 -13.716
      vertex -11.2393 -13.7152 -13.716
    endloop
  endfacet
  facet normal -0.0746427 -0.99721 -0
    outer loop
      vertex -11.4918 -13.6963 13.716
      vertex -11.4918 -13.6963 -13.716
      vertex -11.2393 -13.7152 -13.716
    endloop
  endfacet
  facet normal -0 0 1
    outer loop
      vertex -11.4918 -13.6963 13.716
      vertex -11.2393 -13.7152 13.716
      vertex 12.7597 -13.1619 13.716
    endloop
  endfacet
  facet normal 0 0 -1
    outer loop
      vertex -12.8567 -13.0805 -13.716
      vertex -13.4645 -12.2781 -13.716
      vertex -13.7129 -11.3026 -13.716
    endloop
  endfacet
  facet normal 0 0 -1
    outer loop
      vertex 11.3658 13.7089 -13.716
      vertex 12.9495 12.9943 -13.716
      vertex 13.7034 11.4289 -13.716
    endloop
  endfacet
  facet normal 0.901116 0.433578 0
    outer loop
      vertex 13.5165 12.1626 8.63598
      vertex 13.5165 12.1626 -13.716
      vertex 13.4067 12.3908 -13.716
    endloop
  endfacet
  facet normal -0.62349 0.781831 0
    outer loop
      vertex -12.8567 13.0804 13.716
      vertex -12.6587 13.2383 13.716
      vertex -12.6587 13.2383 -13.716
    endloop
  endfacet
  facet normal 0 0 1
    outer loop
      vertex 13.6656 11.6793 13.716
      vertex -11.2393 13.7152 13.716
      vertex -12.8567 13.0804 13.716
    endloop
  endfacet
  facet normal -0.82611 0.563508 0
    outer loop
      vertex -13.2007 12.7096 -8.636
      vertex -13.2007 12.7096 -13.716
      vertex -13.3434 12.5004 -13.716
    endloop
  endfacet
  facet normal -1 0 0
    outer loop
      vertex -13.7129 -11.3026 13.716
      vertex -13.7129 11.3026 13.716
      vertex -13.7129 11.3026 -13.716
    endloop
  endfacet
  facet normal 0 0 -1
    outer loop
      vertex -13.7129 11.3026 -13.716
      vertex -13.5628 12.0447 -13.716
      vertex -13.3434 12.5004 -13.716
    endloop
  endfacet
  facet normal 0 0 -1
    outer loop
      vertex -13.3434 12.5004 -13.716
      vertex -13.038 12.9036 -13.716
      vertex -12.6587 13.2383 -13.716
    endloop
  endfacet
  facet normal 0.998761 -0.0497603 0
    outer loop
      vertex 13.716 -11.176 13.716
      vertex 13.7034 -11.4289 -8.636
      vertex 13.716 -11.176 8.63598
    endloop
  endfacet
  facet normal 0 -0 -1
    outer loop
      vertex 13.7034 11.4289 -13.716
      vertex 13.716 -11.176 -13.716
      vertex 13.5165 -12.1626 -13.716
    endloop
  endfacet
  facet normal 0.988797 -0.149267 0
    outer loop
      vertex 13.6656 -11.6793 -8.636
      vertex 13.6656 -11.6793 -13.716
      vertex 13.7034 -11.4289 -8.636
    endloop
  endfacet
  facet normal 0 0 1
    outer loop
      vertex 12.7597 -13.1619 13.716
      vertex 13.5165 -12.1626 13.716
      vertex 13.716 -11.176 13.716
    endloop
  endfacet
  facet normal -0.0746427 -0.99721 0
    outer loop
      vertex -11.2393 -13.7152 -13.716
      vertex -11.2393 -13.7152 13.716
      vertex -11.4918 -13.6963 13.716
    endloop
  endfacet
  facet normal 0 0 1
    outer loop
      vertex -13.7129 -11.3026 13.716
      vertex -11.4918 -13.6963 13.716
      vertex 12.7597 -13.1619 13.716
    endloop
  endfacet
  facet normal 0 0 -1
    outer loop
      vertex 13.5165 -12.1626 -13.716
      vertex 11.3658 -13.7089 -13.716
      vertex -11.2393 -13.7152 -13.716
    endloop
  endfacet
  facet normal 0.0248836 -0.99969 0
    outer loop
      vertex 11.3658 -13.7089 -13.716
      vertex 11.1127 -13.7152 13.716
      vertex 11.1127 -13.7152 8.63598
    endloop
  endfacet
  facet normal -0.698368 -0.715739 -0
    outer loop
      vertex -13.038 -12.9036 13.716
      vertex -13.038 -12.9036 -13.716
      vertex -12.8567 -13.0805 -13.716
    endloop
  endfacet
  facet normal 0 0 -1
    outer loop
      vertex -13.4645 -12.2781 -13.716
      vertex -13.6375 -11.8028 -13.716
      vertex -13.7129 -11.3026 -13.716
    endloop
  endfacet
  facet normal 0 0 -1
    outer loop
      vertex 12.9495 12.9943 -13.716
      vertex 13.4067 12.3908 -13.716
      vertex 13.7034 11.4289 -13.716
    endloop
  endfacet
  facet normal 0.732878 0.68036 0
    outer loop
      vertex 13.1218 12.8087 13.716
      vertex 13.1218 12.8087 -13.716
      vertex 12.9495 12.9943 -13.716
    endloop
  endfacet
  facet normal 0 0 -1
    outer loop
      vertex -11.2393 13.7152 -13.716
      vertex 11.1127 13.7152 -13.716
      vertex 11.3658 13.7089 -13.716
    endloop
  endfacet
  facet normal 0 0 1
    outer loop
      vertex 13.6656 11.6793 13.716
      vertex 12.3348 13.4363 13.716
      vertex -11.2393 13.7152 13.716
    endloop
  endfacet
  facet normal -0 1 0
    outer loop
      vertex -11.2393 13.7152 13.716
      vertex 11.1127 13.7152 13.716
      vertex -11.2393 13.7152 -13.716
    endloop
  endfacet
  facet normal 0 0 -1
    outer loop
      vertex -12.6587 13.2383 -13.716
      vertex -11.2393 13.7152 -13.716
      vertex 11.3658 13.7089 -13.716
    endloop
  endfacet
  facet normal -0.0746427 0.99721 0
    outer loop
      vertex -11.2393 13.7152 -13.716
      vertex -11.4918 13.6963 13.716
      vertex -11.2393 13.7152 13.716
    endloop
  endfacet
  facet normal -0.542613 0.839983 0
    outer loop
      vertex -12.446 13.3757 13.716
      vertex -12.446 13.3757 -13.716
      vertex -12.6587 13.2383 -13.716
    endloop
  endfacet
  facet normal -0.994998 0.0998946 0
    outer loop
      vertex -13.7129 11.3026 13.716
      vertex -13.6876 11.5546 -13.716
      vertex -13.7129 11.3026 -13.716
    endloop
  endfacet
  facet normal 0 0 -1
    outer loop
      vertex -13.5628 12.0447 -13.716
      vertex -13.4645 12.2781 -13.716
      vertex -13.3434 12.5004 -13.716
    endloop
  endfacet
  facet normal -0.698166 0.715936 0
    outer loop
      vertex -13.038 12.9036 -13.716
      vertex -13.038 12.9036 13.716
      vertex -12.8567 13.0804 13.716
    endloop
  endfacet
  facet normal 0 0 -1
    outer loop
      vertex -13.038 12.9036 -13.716
      vertex -12.8567 13.0804 -13.716
      vertex -12.6587 13.2383 -13.716
    endloop
  endfacet
  facet normal 1 0 0
    outer loop
      vertex 13.716 -11.176 -13.716
      vertex 13.716 11.176 -13.716
      vertex 13.716 11.176 -8.636
    endloop
  endfacet
  facet normal 0 0 -1
    outer loop
      vertex 13.7034 11.4289 -13.716
      vertex 13.716 11.176 -13.716
      vertex 13.716 -11.176 -13.716
    endloop
  endfacet
  facet normal 0 0 -1
    outer loop
      vertex 13.716 -11.176 -13.716
      vertex 13.6656 -11.6793 -13.716
      vertex 13.5165 -12.1626 -13.716
    endloop
  endfacet
  facet normal 0.969065 -0.246807 0
    outer loop
      vertex 13.6656 -11.6793 13.716
      vertex 13.6031 -11.9247 -8.636
      vertex 13.6656 -11.6793 -8.636
    endloop
  endfacet
  facet normal 0.661909 -0.749584 0
    outer loop
      vertex 12.9495 -12.9943 8.63598
      vertex 12.9495 -12.9943 13.716
      vertex 12.7597 -13.1619 13.716
    endloop
  endfacet
  facet normal 0 0 -1
    outer loop
      vertex 13.5165 -12.1626 -13.716
      vertex 12.5541 -13.3097 -13.716
      vertex 12.104 -13.5404 -13.716
    endloop
  endfacet
  facet normal 0 0 -1
    outer loop
      vertex -11.985 -13.5837 -13.716
      vertex -12.446 -13.3757 -13.716
      vertex -12.8567 -13.0805 -13.716
    endloop
  endfacet
  facet normal 0 0 1
    outer loop
      vertex -13.7129 -11.3026 13.716
      vertex -13.038 -12.9036 13.716
      vertex -11.4918 -13.6963 13.716
    endloop
  endfacet
  facet normal -0.27086 -0.962619 0
    outer loop
      vertex -11.7412 -13.6523 13.716
      vertex -11.985 -13.5837 13.716
      vertex -11.985 -13.5837 -13.716
    endloop
  endfacet
  facet normal 0 0 -1
    outer loop
      vertex -11.2393 -13.7152 -13.716
      vertex -11.985 -13.5837 -13.716
      vertex -12.8567 -13.0805 -13.716
    endloop
  endfacet
  facet normal -0 -1 0
    outer loop
      vertex 11.1127 -13.7152 8.63598
      vertex -11.2393 -13.7152 13.716
      vertex -11.2393 -13.7152 -13.716
    endloop
  endfacet
  facet normal 0 0 1
    outer loop
      vertex -11.2393 -13.7152 13.716
      vertex 11.1127 -13.7152 13.716
      vertex 12.7597 -13.1619 13.716
    endloop
  endfacet
  facet normal 0 0 -1
    outer loop
      vertex 13.5165 -12.1626 -13.716
      vertex 12.104 -13.5404 -13.716
      vertex 11.3658 -13.7089 -13.716
    endloop
  endfacet
  facet normal 0.583701 -0.811969 0
    outer loop
      vertex 12.5541 -13.3097 -13.716
      vertex 12.7597 -13.1619 -13.716
      vertex 12.7597 -13.1619 8.63598
    endloop
  endfacet
  facet normal 0.0248836 -0.99969 0
    outer loop
      vertex 11.1127 -13.7152 8.63598
      vertex 11.1127 -13.7152 -13.716
      vertex 11.3658 -13.7089 -13.716
    endloop
  endfacet
  facet normal 0 -1 0
    outer loop
      vertex -11.2393 -13.7152 -13.716
      vertex 11.1127 -13.7152 -13.716
      vertex 11.1127 -13.7152 8.63598
    endloop
  endfacet
  facet normal -0.921598 -0.388145 -0
    outer loop
      vertex -13.5628 -12.0447 13.716
      vertex -13.5628 -12.0447 -13.716
      vertex -13.4645 -12.2781 -13.716
    endloop
  endfacet
  facet normal 0 0 -1
    outer loop
      vertex -13.6375 -11.8028 -13.716
      vertex -13.6876 -11.5546 -13.716
      vertex -13.7129 -11.3026 -13.716
    endloop
  endfacet
  facet normal 0 0 -1
    outer loop
      vertex 13.4067 12.3908 -13.716
      vertex 13.6031 11.9247 -13.716
      vertex 13.7034 11.4289 -13.716
    endloop
  endfacet
  facet normal 0.969065 0.246807 -0
    outer loop
      vertex 13.6031 11.9247 -13.716
      vertex 13.6031 11.9247 13.716
      vertex 13.6656 11.6793 13.716
    endloop
  endfacet
  facet normal 0 0 -1
    outer loop
      vertex 12.3348 13.4363 -13.716
      vertex 12.7597 13.1618 -13.716
      vertex 12.9495 12.9943 -13.716
    endloop
  endfacet
  facet normal 0 0 1
    outer loop
      vertex 13.6656 11.6793 13.716
      vertex 13.1218 12.8087 13.716
      vertex 12.3348 13.4363 13.716
    endloop
  endfacet
  facet normal 0 0 1
    outer loop
      vertex 12.7597 13.1618 13.716
      vertex 12.5541 13.3097 13.716
      vertex 12.3348 13.4363 13.716
    endloop
  endfacet
  facet normal 0 0 -1
    outer loop
      vertex 11.3658 13.7089 -13.716
      vertex 12.3348 13.4363 -13.716
      vertex 12.9495 12.9943 -13.716
    endloop
  endfacet
  facet normal 0 0 1
    outer loop
      vertex 12.3348 13.4363 13.716
      vertex 11.1127 13.7152 13.716
      vertex -11.2393 13.7152 13.716
    endloop
  endfacet
  facet normal 0 0 1
    outer loop
      vertex 12.3348 13.4363 13.716
      vertex 11.617 13.6774 13.716
      vertex 11.1127 13.7152 13.716
    endloop
  endfacet
  facet normal 0 0 1
    outer loop
      vertex -11.985 13.5837 13.716
      vertex -12.446 13.3757 13.716
      vertex -12.8567 13.0804 13.716
    endloop
  endfacet
  facet normal -0.365322 0.930881 0
    outer loop
      vertex -11.985 13.5837 -13.716
      vertex -12.2207 13.4912 13.716
      vertex -11.985 13.5837 13.716
    endloop
  endfacet
  facet normal -0.27086 0.962619 0
    outer loop
      vertex -11.7412 13.6523 13.716
      vertex -11.985 13.5837 -13.716
      vertex -11.985 13.5837 13.716
    endloop
  endfacet
  facet normal 0 0 1
    outer loop
      vertex -11.2393 13.7152 13.716
      vertex -11.7412 13.6523 13.716
      vertex -11.985 13.5837 13.716
    endloop
  endfacet
  facet normal 0 0 -1
    outer loop
      vertex -11.985 13.5837 -13.716
      vertex -11.7412 13.6523 -13.716
      vertex -11.2393 13.7152 -13.716
    endloop
  endfacet
  facet normal 0 0 -1
    outer loop
      vertex -12.6587 13.2383 -13.716
      vertex -11.985 13.5837 -13.716
      vertex -11.2393 13.7152 -13.716
    endloop
  endfacet
  facet normal 0 0 1
    outer loop
      vertex -13.4645 12.2781 13.716
      vertex -13.6375 11.8027 13.716
      vertex -13.7129 11.3026 13.716
    endloop
  endfacet
  facet normal 0 0 1
    outer loop
      vertex -12.8567 13.0804 13.716
      vertex -13.4645 12.2781 13.716
      vertex -13.7129 11.3026 13.716
    endloop
  endfacet
  facet normal -0.955514 0.294946 0
    outer loop
      vertex -13.6375 11.8027 13.716
      vertex -13.5628 12.0447 13.716
      vertex -13.5628 12.0447 -13.716
    endloop
  endfacet
  facet normal 0 0 -1
    outer loop
      vertex -13.7129 11.3026 -13.716
      vertex -13.6375 11.8027 -13.716
      vertex -13.5628 12.0447 -13.716
    endloop
  endfacet
  facet normal -0.878152 0.478382 0
    outer loop
      vertex -13.4645 12.2781 13.716
      vertex -13.3434 12.5004 13.716
      vertex -13.3434 12.5004 -13.716
    endloop
  endfacet
  facet normal -0.76621 0.64259 0
    outer loop
      vertex -13.2007 12.7096 -8.636
      vertex -13.038 12.9036 13.716
      vertex -13.038 12.9036 -13.716
    endloop
  endfacet
  facet normal -0.698166 0.715936 0
    outer loop
      vertex -12.8567 13.0804 13.716
      vertex -12.8567 13.0804 -13.716
      vertex -13.038 12.9036 -13.716
    endloop
  endfacet
  facet normal -0.62349 0.781831 0
    outer loop
      vertex -12.6587 13.2383 -13.716
      vertex -12.8567 13.0804 -13.716
      vertex -12.8567 13.0804 13.716
    endloop
  endfacet
  facet normal 0.998761 -0.0497603 0
    outer loop
      vertex 13.7034 -11.4289 -8.636
      vertex 13.7034 -11.4289 -13.716
      vertex 13.716 -11.176 -13.716
    endloop
  endfacet
  facet normal 0.998761 -0.0497603 0
    outer loop
      vertex 13.716 -11.176 8.63598
      vertex 13.7034 -11.4289 -8.636
      vertex 13.716 -11.176 -13.716
    endloop
  endfacet
  facet normal 0.988797 -0.149267 0
    outer loop
      vertex 13.7034 -11.4289 -8.636
      vertex 13.6656 -11.6793 13.716
      vertex 13.6656 -11.6793 -8.636
    endloop
  endfacet
  facet normal 0 0 1
    outer loop
      vertex 13.6656 -11.6793 13.716
      vertex 13.7034 -11.4289 13.716
      vertex 13.716 -11.176 13.716
    endloop
  endfacet
  facet normal 0.939678 -0.34206 0
    outer loop
      vertex 13.6031 -11.9247 -8.636
      vertex 13.6031 -11.9247 13.716
      vertex 13.5165 -12.1626 13.716
    endloop
  endfacet
  facet normal 0.939678 -0.34206 0
    outer loop
      vertex 13.5165 -12.1626 -13.716
      vertex 13.6031 -11.9247 -8.636
      vertex 13.5165 -12.1626 13.716
    endloop
  endfacet
  facet normal 0.969065 -0.246807 0
    outer loop
      vertex 13.6031 -11.9247 -8.636
      vertex 13.6656 -11.6793 -13.716
      vertex 13.6656 -11.6793 -8.636
    endloop
  endfacet
  facet normal 0 0 -1
    outer loop
      vertex 13.6656 -11.6793 -13.716
      vertex 13.6031 -11.9247 -13.716
      vertex 13.5165 -12.1626 -13.716
    endloop
  endfacet
  facet normal 0.732878 -0.68036 0
    outer loop
      vertex 13.1218 -12.8087 8.63598
      vertex 13.1218 -12.8087 13.716
      vertex 12.9495 -12.9943 8.63598
    endloop
  endfacet
  facet normal 0.661909 -0.749584 0
    outer loop
      vertex 12.7597 -13.1619 8.63598
      vertex 12.9495 -12.9943 8.63598
      vertex 12.7597 -13.1619 13.716
    endloop
  endfacet
  facet normal 0.797386 -0.60347 0
    outer loop
      vertex 13.1218 -12.8087 8.63598
      vertex 13.1218 -12.8087 -13.716
      vertex 13.2746 -12.6068 8.63598
    endloop
  endfacet
  facet normal 0.797386 -0.60347 0
    outer loop
      vertex 13.2746 -12.6068 8.63598
      vertex 13.2746 -12.6068 13.716
      vertex 13.1218 -12.8087 13.716
    endloop
  endfacet
  facet normal 0 0 1
    outer loop
      vertex 13.1218 -12.8087 13.716
      vertex 13.4067 -12.3908 13.716
      vertex 13.5165 -12.1626 13.716
    endloop
  endfacet
  facet normal 0 0 1
    outer loop
      vertex 12.7597 -13.1619 13.716
      vertex 13.1218 -12.8087 13.716
      vertex 13.5165 -12.1626 13.716
    endloop
  endfacet
  facet normal 0 0 -1
    outer loop
      vertex -13.2007 -12.7097 -13.716
      vertex -13.3434 -12.5004 -13.716
      vertex -13.4645 -12.2781 -13.716
    endloop
  endfacet
  facet normal 0 0 1
    outer loop
      vertex -13.7129 -11.3026 13.716
      vertex -13.5628 -12.0447 13.716
      vertex -13.038 -12.9036 13.716
    endloop
  endfacet
  facet normal 0 0 1
    outer loop
      vertex -13.3434 -12.5004 13.716
      vertex -13.2007 -12.7097 13.716
      vertex -13.038 -12.9036 13.716
    endloop
  endfacet
  facet normal 0 0 -1
    outer loop
      vertex -12.8567 -13.0805 -13.716
      vertex -13.2007 -12.7097 -13.716
      vertex -13.4645 -12.2781 -13.716
    endloop
  endfacet
  facet normal 0 0 1
    outer loop
      vertex -12.446 -13.3757 13.716
      vertex -11.7412 -13.6523 13.716
      vertex -11.4918 -13.6963 13.716
    endloop
  endfacet
  facet normal 0 0 -1
    outer loop
      vertex -11.2393 -13.7152 -13.716
      vertex -11.7412 -13.6523 -13.716
      vertex -11.985 -13.5837 -13.716
    endloop
  endfacet
  facet normal 0 0 1
    outer loop
      vertex -13.038 -12.9036 13.716
      vertex -12.446 -13.3757 13.716
      vertex -11.4918 -13.6963 13.716
    endloop
  endfacet
  facet normal 0 0 -1
    outer loop
      vertex -12.446 -13.3757 -13.716
      vertex -12.6587 -13.2383 -13.716
      vertex -12.8567 -13.0805 -13.716
    endloop
  endfacet
  facet normal 0 0 1
    outer loop
      vertex 11.1127 -13.7152 13.716
      vertex 11.8639 -13.6211 13.716
      vertex 12.7597 -13.1619 13.716
    endloop
  endfacet
  facet normal 0 0 -1
    outer loop
      vertex 12.104 -13.5404 -13.716
      vertex 11.8639 -13.6211 -13.716
      vertex 11.3658 -13.7089 -13.716
    endloop
  endfacet
  facet normal 0 0 -1
    outer loop
      vertex 12.5541 -13.3097 -13.716
      vertex 12.3348 -13.4363 -13.716
      vertex 12.104 -13.5404 -13.716
    endloop
  endfacet
  facet normal 0 0 1
    outer loop
      vertex 12.104 -13.5404 13.716
      vertex 12.5541 -13.3097 13.716
      vertex 12.7597 -13.1619 13.716
    endloop
  endfacet
  facet normal -0.98023 -0.197863 0
    outer loop
      vertex -13.6375 -11.8028 -13.716
      vertex -13.6375 -11.8028 13.716
      vertex -13.6876 -11.5546 -13.716
    endloop
  endfacet
  facet normal -0.994998 -0.0998946 0
    outer loop
      vertex -13.7129 -11.3026 -13.716
      vertex -13.6876 -11.5546 -13.716
      vertex -13.7129 -11.3026 13.716
    endloop
  endfacet
  facet normal 0 0 -1
    outer loop
      vertex 13.6031 11.9247 -13.716
      vertex 13.6656 11.6793 -13.716
      vertex 13.7034 11.4289 -13.716
    endloop
  endfacet
  facet normal 0.969065 0.246807 0
    outer loop
      vertex 13.6656 11.6793 13.716
      vertex 13.6656 11.6793 -13.716
      vertex 13.6031 11.9247 -13.716
    endloop
  endfacet
  facet normal 0.797386 0.60347 0
    outer loop
      vertex 13.1218 12.8087 13.716
      vertex 13.2746 12.6068 -13.716
      vertex 13.1218 12.8087 -13.716
    endloop
  endfacet
  facet normal 0.939678 0.34206 0
    outer loop
      vertex 13.5165 12.1626 8.63598
      vertex 13.6031 11.9247 13.716
      vertex 13.6031 11.9247 -13.716
    endloop
  endfacet
  facet normal 0 0 -1
    outer loop
      vertex 13.1218 12.8087 -13.716
      vertex 13.2746 12.6068 -13.716
      vertex 13.4067 12.3908 -13.716
    endloop
  endfacet
  facet normal 0 0 -1
    outer loop
      vertex 12.9495 12.9943 -13.716
      vertex 13.1218 12.8087 -13.716
      vertex 13.4067 12.3908 -13.716
    endloop
  endfacet
  facet normal 0 0 1
    outer loop
      vertex 13.1218 12.8087 13.716
      vertex 12.7597 13.1618 13.716
      vertex 12.3348 13.4363 13.716
    endloop
  endfacet
  facet normal 0.661687 0.74978 0
    outer loop
      vertex 12.7597 13.1618 13.716
      vertex 12.9495 12.9943 13.716
      vertex 12.9495 12.9943 -13.716
    endloop
  endfacet
  facet normal 0.411153 0.911566 -0
    outer loop
      vertex 12.3348 13.4363 -13.716
      vertex 12.104 13.5404 -13.716
      vertex 12.3348 13.4363 13.716
    endloop
  endfacet
  facet normal 0 0 -1
    outer loop
      vertex 11.3658 13.7089 -13.716
      vertex 11.8639 13.621 -13.716
      vertex 12.3348 13.4363 -13.716
    endloop
  endfacet
  facet normal 0 1 0
    outer loop
      vertex 11.1127 13.7152 13.716
      vertex 11.1127 13.7152 -13.716
      vertex -11.2393 13.7152 -13.716
    endloop
  endfacet
  facet normal 0.0248836 0.99969 0
    outer loop
      vertex 11.3658 13.7089 -13.716
      vertex 11.1127 13.7152 -13.716
      vertex 11.1127 13.7152 13.716
    endloop
  endfacet
  facet normal 0 0 1
    outer loop
      vertex -12.446 13.3757 13.716
      vertex -12.6587 13.2383 13.716
      vertex -12.8567 13.0804 13.716
    endloop
  endfacet
  facet normal -0.542613 0.839983 0
    outer loop
      vertex -12.6587 13.2383 -13.716
      vertex -12.6587 13.2383 13.716
      vertex -12.446 13.3757 13.716
    endloop
  endfacet
  facet normal -0.27086 0.962619 0
    outer loop
      vertex -11.7412 13.6523 13.716
      vertex -11.7412 13.6523 -13.716
      vertex -11.985 13.5837 -13.716
    endloop
  endfacet
  facet normal 0 0 1
    outer loop
      vertex -11.2393 13.7152 13.716
      vertex -11.4918 13.6963 13.716
      vertex -11.7412 13.6523 13.716
    endloop
  endfacet
  facet normal 0 0 -1
    outer loop
      vertex -12.446 13.3757 -13.716
      vertex -12.2207 13.4912 -13.716
      vertex -11.985 13.5837 -13.716
    endloop
  endfacet
  facet normal 0 0 -1
    outer loop
      vertex -12.6587 13.2383 -13.716
      vertex -12.446 13.3757 -13.716
      vertex -11.985 13.5837 -13.716
    endloop
  endfacet
  facet normal -0.456196 0.889879 0
    outer loop
      vertex -12.446 13.3757 13.716
      vertex -12.2207 13.4912 13.716
      vertex -12.446 13.3757 -13.716
    endloop
  endfacet
  facet normal 0 0 1
    outer loop
      vertex -11.985 13.5837 13.716
      vertex -12.2207 13.4912 13.716
      vertex -12.446 13.3757 13.716
    endloop
  endfacet
  facet normal -0.17374 0.984792 0
    outer loop
      vertex -11.4918 13.6963 13.716
      vertex -11.7412 13.6523 -13.716
      vertex -11.7412 13.6523 13.716
    endloop
  endfacet
  facet normal 0 0 -1
    outer loop
      vertex -11.7412 13.6523 -13.716
      vertex -11.4918 13.6963 -13.716
      vertex -11.2393 13.7152 -13.716
    endloop
  endfacet
  facet normal -0.921598 0.388145 0
    outer loop
      vertex -13.4645 12.2781 13.716
      vertex -13.4645 12.2781 -13.716
      vertex -13.5628 12.0447 -13.716
    endloop
  endfacet
  facet normal -0.878152 0.478382 0
    outer loop
      vertex -13.3434 12.5004 -13.716
      vertex -13.4645 12.2781 -13.716
      vertex -13.4645 12.2781 13.716
    endloop
  endfacet
  facet normal -0.955514 0.294946 0
    outer loop
      vertex -13.6375 11.8027 -13.716
      vertex -13.6375 11.8027 13.716
      vertex -13.5628 12.0447 -13.716
    endloop
  endfacet
  facet normal 0 0 -1
    outer loop
      vertex -13.7129 11.3026 -13.716
      vertex -13.6876 11.5546 -13.716
      vertex -13.6375 11.8027 -13.716
    endloop
  endfacet
  facet normal -0.980214 0.197939 0
    outer loop
      vertex -13.6876 11.5546 -13.716
      vertex -13.6375 11.8027 13.716
      vertex -13.6375 11.8027 -13.716
    endloop
  endfacet
  facet normal 0 0 1
    outer loop
      vertex -13.6375 11.8027 13.716
      vertex -13.6876 11.5546 13.716
      vertex -13.7129 11.3026 13.716
    endloop
  endfacet
  facet normal 0 0 1
    outer loop
      vertex -13.038 12.9036 13.716
      vertex -13.3434 12.5004 13.716
      vertex -13.4645 12.2781 13.716
    endloop
  endfacet
  facet normal 0 0 1
    outer loop
      vertex -12.8567 13.0804 13.716
      vertex -13.038 12.9036 13.716
      vertex -13.4645 12.2781 13.716
    endloop
  endfacet
  facet normal -0.76621 0.64259 0
    outer loop
      vertex -13.038 12.9036 -13.716
      vertex -13.2007 12.7096 -13.716
      vertex -13.2007 12.7096 -8.636
    endloop
  endfacet
  facet normal 0 0 -1
    outer loop
      vertex -13.3434 12.5004 -13.716
      vertex -13.2007 12.7096 -13.716
      vertex -13.038 12.9036 -13.716
    endloop
  endfacet
  facet normal -0.82611 0.563508 0
    outer loop
      vertex -13.3434 12.5004 13.716
      vertex -13.2007 12.7096 13.716
      vertex -13.2007 12.7096 -8.636
    endloop
  endfacet
  facet normal -0.82611 0.563508 0
    outer loop
      vertex -13.3434 12.5004 -13.716
      vertex -13.3434 12.5004 13.716
      vertex -13.2007 12.7096 -8.636
    endloop
  endfacet
  facet normal 0.988797 -0.149267 0
    outer loop
      vertex 13.7034 -11.4289 -8.636
      vertex 13.7034 -11.4289 13.716
      vertex 13.6656 -11.6793 13.716
    endloop
  endfacet
  facet normal 0.998761 -0.0497603 0
    outer loop
      vertex 13.716 -11.176 13.716
      vertex 13.7034 -11.4289 13.716
      vertex 13.7034 -11.4289 -8.636
    endloop
  endfacet
  facet normal 0.969065 -0.246807 0
    outer loop
      vertex 13.6656 -11.6793 13.716
      vertex 13.6031 -11.9247 13.716
      vertex 13.6031 -11.9247 -8.636
    endloop
  endfacet
  facet normal 0 0 1
    outer loop
      vertex 13.5165 -12.1626 13.716
      vertex 13.6031 -11.9247 13.716
      vertex 13.6656 -11.6793 13.716
    endloop
  endfacet
  facet normal 0.988797 -0.149267 0
    outer loop
      vertex 13.6656 -11.6793 -13.716
      vertex 13.7034 -11.4289 -13.716
      vertex 13.7034 -11.4289 -8.636
    endloop
  endfacet
  facet normal 0 0 -1
    outer loop
      vertex 13.716 -11.176 -13.716
      vertex 13.7034 -11.4289 -13.716
      vertex 13.6656 -11.6793 -13.716
    endloop
  endfacet
  facet normal 0.969065 -0.246807 0
    outer loop
      vertex 13.6031 -11.9247 -8.636
      vertex 13.6031 -11.9247 -13.716
      vertex 13.6656 -11.6793 -13.716
    endloop
  endfacet
  facet normal 0.939678 -0.34206 0
    outer loop
      vertex 13.5165 -12.1626 -13.716
      vertex 13.6031 -11.9247 -13.716
      vertex 13.6031 -11.9247 -8.636
    endloop
  endfacet
  facet normal 0.732878 -0.68036 0
    outer loop
      vertex 13.1218 -12.8087 13.716
      vertex 12.9495 -12.9943 13.716
      vertex 12.9495 -12.9943 8.63598
    endloop
  endfacet
  facet normal 0 0 1
    outer loop
      vertex 12.7597 -13.1619 13.716
      vertex 12.9495 -12.9943 13.716
      vertex 13.1218 -12.8087 13.716
    endloop
  endfacet
  facet normal 0.797386 -0.60347 0
    outer loop
      vertex 13.1218 -12.8087 8.63598
      vertex 13.2746 -12.6068 8.63598
      vertex 13.1218 -12.8087 13.716
    endloop
  endfacet
  facet normal 0.901116 -0.433578 0
    outer loop
      vertex 13.4067 -12.3908 8.63598
      vertex 13.4067 -12.3908 -13.716
      vertex 13.5165 -12.1626 -13.716
    endloop
  endfacet
  facet normal 0.853106 -0.521738 0
    outer loop
      vertex 13.4067 -12.3908 8.63598
      vertex 13.4067 -12.3908 13.716
      vertex 13.2746 -12.6068 8.63598
    endloop
  endfacet
  facet normal 0.901116 -0.433578 0
    outer loop
      vertex 13.5165 -12.1626 13.716
      vertex 13.4067 -12.3908 13.716
      vertex 13.4067 -12.3908 8.63598
    endloop
  endfacet
  facet normal -0.95548 -0.295057 0
    outer loop
      vertex -13.5628 -12.0447 13.716
      vertex -13.6375 -11.8028 13.716
      vertex -13.6375 -11.8028 -13.716
    endloop
  endfacet
  facet normal 0 0 1
    outer loop
      vertex -13.7129 -11.3026 13.716
      vertex -13.6375 -11.8028 13.716
      vertex -13.5628 -12.0447 13.716
    endloop
  endfacet
  facet normal -0.95548 -0.295057 0
    outer loop
      vertex -13.6375 -11.8028 -13.716
      vertex -13.5628 -12.0447 -13.716
      vertex -13.5628 -12.0447 13.716
    endloop
  endfacet
  facet normal 0 0 -1
    outer loop
      vertex -13.4645 -12.2781 -13.716
      vertex -13.5628 -12.0447 -13.716
      vertex -13.6375 -11.8028 -13.716
    endloop
  endfacet
  facet normal 0 0 1
    outer loop
      vertex -13.5628 -12.0447 13.716
      vertex -13.3434 -12.5004 13.716
      vertex -13.038 -12.9036 13.716
    endloop
  endfacet
  facet normal -0.878152 -0.478382 0
    outer loop
      vertex -13.3434 -12.5004 13.716
      vertex -13.4645 -12.2781 13.716
      vertex -13.4645 -12.2781 -13.716
    endloop
  endfacet
  facet normal -0.766047 -0.642784 0
    outer loop
      vertex -13.2007 -12.7097 -13.716
      vertex -13.038 -12.9036 -13.716
      vertex -13.038 -12.9036 13.716
    endloop
  endfacet
  facet normal 0 0 -1
    outer loop
      vertex -12.8567 -13.0805 -13.716
      vertex -13.038 -12.9036 -13.716
      vertex -13.2007 -12.7097 -13.716
    endloop
  endfacet
  facet normal -0.17374 -0.984792 0
    outer loop
      vertex -11.7412 -13.6523 -13.716
      vertex -11.4918 -13.6963 -13.716
      vertex -11.4918 -13.6963 13.716
    endloop
  endfacet
  facet normal 0 0 -1
    outer loop
      vertex -11.2393 -13.7152 -13.716
      vertex -11.4918 -13.6963 -13.716
      vertex -11.7412 -13.6523 -13.716
    endloop
  endfacet
  facet normal -0.27086 -0.962619 0
    outer loop
      vertex -11.7412 -13.6523 -13.716
      vertex -11.7412 -13.6523 13.716
      vertex -11.985 -13.5837 -13.716
    endloop
  endfacet
  facet normal -0.17374 -0.984792 0
    outer loop
      vertex -11.4918 -13.6963 13.716
      vertex -11.7412 -13.6523 13.716
      vertex -11.7412 -13.6523 -13.716
    endloop
  endfacet
  facet normal -0.365322 -0.930881 -0
    outer loop
      vertex -11.985 -13.5837 13.716
      vertex -12.2207 -13.4912 -8.636
      vertex -11.985 -13.5837 -13.716
    endloop
  endfacet
  facet normal -0.542613 -0.839983 -0
    outer loop
      vertex -12.446 -13.3757 13.716
      vertex -12.6587 -13.2383 13.716
      vertex -12.446 -13.3757 -13.716
    endloop
  endfacet
  facet normal 0 0 1
    outer loop
      vertex -13.038 -12.9036 13.716
      vertex -12.6587 -13.2383 13.716
      vertex -12.446 -13.3757 13.716
    endloop
  endfacet
  facet normal -0.623249 -0.782023 0
    outer loop
      vertex -12.6587 -13.2383 13.716
      vertex -12.8567 -13.0805 13.716
      vertex -12.8567 -13.0805 -13.716
    endloop
  endfacet
  facet normal 0 0 1
    outer loop
      vertex 11.8639 -13.6211 13.716
      vertex 12.104 -13.5404 13.716
      vertex 12.7597 -13.1619 13.716
    endloop
  endfacet
  facet normal 0.318596 -0.947891 0
    outer loop
      vertex 12.104 -13.5404 -13.716
      vertex 12.104 -13.5404 13.716
      vertex 11.8639 -13.6211 13.716
    endloop
  endfacet
  facet normal 0 0 -1
    outer loop
      vertex 13.5165 -12.1626 -13.716
      vertex 13.1218 -12.8087 -13.716
      vertex 12.5541 -13.3097 -13.716
    endloop
  endfacet
  facet normal 0.853106 -0.521738 0
    outer loop
      vertex 13.2746 -12.6068 8.63598
      vertex 13.4067 -12.3908 -13.716
      vertex 13.4067 -12.3908 8.63598
    endloop
  endfacet
  facet normal 0 0 1
    outer loop
      vertex 13.6031 11.9247 13.716
      vertex 13.4067 12.3908 13.716
      vertex 13.1218 12.8087 13.716
    endloop
  endfacet
  facet normal 0 0 1
    outer loop
      vertex 13.6656 11.6793 13.716
      vertex 13.6031 11.9247 13.716
      vertex 13.1218 12.8087 13.716
    endloop
  endfacet
  facet normal 0.939678 0.34206 0
    outer loop
      vertex 13.6031 11.9247 -13.716
      vertex 13.5165 12.1626 -13.716
      vertex 13.5165 12.1626 8.63598
    endloop
  endfacet
  facet normal 0 0 -1
    outer loop
      vertex 13.4067 12.3908 -13.716
      vertex 13.5165 12.1626 -13.716
      vertex 13.6031 11.9247 -13.716
    endloop
  endfacet
  facet normal 0.901116 0.433578 0
    outer loop
      vertex 13.4067 12.3908 13.716
      vertex 13.5165 12.1626 13.716
      vertex 13.5165 12.1626 8.63598
    endloop
  endfacet
  facet normal 0.901116 0.433578 -0
    outer loop
      vertex 13.4067 12.3908 -13.716
      vertex 13.4067 12.3908 13.716
      vertex 13.5165 12.1626 8.63598
    endloop
  endfacet
  facet normal 0 0 1
    outer loop
      vertex 13.4067 12.3908 13.716
      vertex 13.2746 12.6068 13.716
      vertex 13.1218 12.8087 13.716
    endloop
  endfacet
  facet normal 0.853106 0.521738 -0
    outer loop
      vertex 13.4067 12.3908 -13.716
      vertex 13.2746 12.6068 -13.716
      vertex 13.4067 12.3908 13.716
    endloop
  endfacet
  facet normal 0.583961 0.811781 -0
    outer loop
      vertex 12.7597 13.1618 -13.716
      vertex 12.5541 13.3097 13.716
      vertex 12.7597 13.1618 13.716
    endloop
  endfacet
  facet normal 0.661687 0.74978 0
    outer loop
      vertex 12.9495 12.9943 -13.716
      vertex 12.7597 13.1618 -13.716
      vertex 12.7597 13.1618 13.716
    endloop
  endfacet
  facet normal 0.499962 0.866047 0
    outer loop
      vertex 12.5541 13.3097 13.716
      vertex 12.5541 13.3097 -13.716
      vertex 12.3348 13.4363 -13.716
    endloop
  endfacet
  facet normal 0.499962 0.866047 0
    outer loop
      vertex 12.3348 13.4363 13.716
      vertex 12.5541 13.3097 13.716
      vertex 12.3348 13.4363 -13.716
    endloop
  endfacet
  facet normal 0 0 1
    outer loop
      vertex 13.1218 12.8087 13.716
      vertex 12.9495 12.9943 13.716
      vertex 12.7597 13.1618 13.716
    endloop
  endfacet
  facet normal 0.732878 0.68036 -0
    outer loop
      vertex 12.9495 12.9943 -13.716
      vertex 12.9495 12.9943 13.716
      vertex 13.1218 12.8087 13.716
    endloop
  endfacet
  facet normal 0 0 -1
    outer loop
      vertex 11.8639 13.621 -13.716
      vertex 12.104 13.5404 -13.716
      vertex 12.3348 13.4363 -13.716
    endloop
  endfacet
  facet normal 0.124424 0.992229 0
    outer loop
      vertex 11.617 13.6774 13.716
      vertex 11.617 13.6774 -13.716
      vertex 11.3658 13.7089 -13.716
    endloop
  endfacet
  facet normal 0.411153 0.911566 -0
    outer loop
      vertex 12.104 13.5404 -13.716
      vertex 12.104 13.5404 13.716
      vertex 12.3348 13.4363 13.716
    endloop
  endfacet
  facet normal 0.318241 0.94801 -0
    outer loop
      vertex 11.8639 13.621 -13.716
      vertex 11.8639 13.621 13.716
      vertex 12.104 13.5404 -13.716
    endloop
  endfacet
  facet normal -0.456196 0.889879 0
    outer loop
      vertex -12.2207 13.4912 13.716
      vertex -12.2207 13.4912 -13.716
      vertex -12.446 13.3757 -13.716
    endloop
  endfacet
  facet normal -0.365322 0.930881 0
    outer loop
      vertex -11.985 13.5837 -13.716
      vertex -12.2207 13.4912 -13.716
      vertex -12.2207 13.4912 13.716
    endloop
  endfacet
  facet normal -0.17374 0.984792 0
    outer loop
      vertex -11.4918 13.6963 13.716
      vertex -11.4918 13.6963 -13.716
      vertex -11.7412 13.6523 -13.716
    endloop
  endfacet
  facet normal -0.0746427 0.99721 0
    outer loop
      vertex -11.2393 13.7152 -13.716
      vertex -11.4918 13.6963 -13.716
      vertex -11.4918 13.6963 13.716
    endloop
  endfacet
  facet normal 0 0 1
    outer loop
      vertex -13.4645 12.2781 13.716
      vertex -13.5628 12.0447 13.716
      vertex -13.6375 11.8027 13.716
    endloop
  endfacet
  facet normal -0.921598 0.388145 0
    outer loop
      vertex -13.5628 12.0447 -13.716
      vertex -13.5628 12.0447 13.716
      vertex -13.4645 12.2781 13.716
    endloop
  endfacet
  facet normal -0.980214 0.197939 0
    outer loop
      vertex -13.6876 11.5546 -13.716
      vertex -13.6876 11.5546 13.716
      vertex -13.6375 11.8027 13.716
    endloop
  endfacet
  facet normal -0.994998 0.0998946 0
    outer loop
      vertex -13.7129 11.3026 13.716
      vertex -13.6876 11.5546 13.716
      vertex -13.6876 11.5546 -13.716
    endloop
  endfacet
  facet normal 0 0 1
    outer loop
      vertex -13.038 12.9036 13.716
      vertex -13.2007 12.7096 13.716
      vertex -13.3434 12.5004 13.716
    endloop
  endfacet
  facet normal -0.76621 0.64259 0
    outer loop
      vertex -13.2007 12.7096 -8.636
      vertex -13.2007 12.7096 13.716
      vertex -13.038 12.9036 13.716
    endloop
  endfacet
  facet normal 0.853106 -0.521738 0
    outer loop
      vertex 13.4067 -12.3908 13.716
      vertex 13.2746 -12.6068 13.716
      vertex 13.2746 -12.6068 8.63598
    endloop
  endfacet
  facet normal 0 0 1
    outer loop
      vertex 13.1218 -12.8087 13.716
      vertex 13.2746 -12.6068 13.716
      vertex 13.4067 -12.3908 13.716
    endloop
  endfacet
  facet normal -0.98023 -0.197863 0
    outer loop
      vertex -13.6375 -11.8028 13.716
      vertex -13.6876 -11.5546 13.716
      vertex -13.6876 -11.5546 -13.716
    endloop
  endfacet
  facet normal 0 0 1
    outer loop
      vertex -13.7129 -11.3026 13.716
      vertex -13.6876 -11.5546 13.716
      vertex -13.6375 -11.8028 13.716
    endloop
  endfacet
  facet normal -0.826236 -0.563325 -0
    outer loop
      vertex -13.3434 -12.5004 13.716
      vertex -13.3434 -12.5004 -13.716
      vertex -13.2007 -12.7097 -13.716
    endloop
  endfacet
  facet normal -0.878152 -0.478382 0
    outer loop
      vertex -13.4645 -12.2781 -13.716
      vertex -13.3434 -12.5004 -13.716
      vertex -13.3434 -12.5004 13.716
    endloop
  endfacet
  facet normal -0.826236 -0.563325 0
    outer loop
      vertex -13.2007 -12.7097 -13.716
      vertex -13.2007 -12.7097 13.716
      vertex -13.3434 -12.5004 13.716
    endloop
  endfacet
  facet normal -0.766047 -0.642784 0
    outer loop
      vertex -13.038 -12.9036 13.716
      vertex -13.2007 -12.7097 13.716
      vertex -13.2007 -12.7097 -13.716
    endloop
  endfacet
  facet normal 0 0 1
    outer loop
      vertex -13.5628 -12.0447 13.716
      vertex -13.4645 -12.2781 13.716
      vertex -13.3434 -12.5004 13.716
    endloop
  endfacet
  facet normal -0.921598 -0.388145 0
    outer loop
      vertex -13.4645 -12.2781 -13.716
      vertex -13.4645 -12.2781 13.716
      vertex -13.5628 -12.0447 13.716
    endloop
  endfacet
  facet normal 0 0 1
    outer loop
      vertex -12.446 -13.3757 13.716
      vertex -11.985 -13.5837 13.716
      vertex -11.7412 -13.6523 13.716
    endloop
  endfacet
  facet normal -0.456196 -0.889879 0
    outer loop
      vertex -12.2207 -13.4912 -8.636
      vertex -12.2207 -13.4912 13.716
      vertex -12.446 -13.3757 13.716
    endloop
  endfacet
  facet normal -0.456196 -0.889879 0
    outer loop
      vertex -12.446 -13.3757 -13.716
      vertex -12.2207 -13.4912 -8.636
      vertex -12.446 -13.3757 13.716
    endloop
  endfacet
  facet normal -0.365322 -0.930881 -0
    outer loop
      vertex -12.2207 -13.4912 -8.636
      vertex -12.2207 -13.4912 -13.716
      vertex -11.985 -13.5837 -13.716
    endloop
  endfacet
  facet normal -0.542613 -0.839983 -0
    outer loop
      vertex -12.6587 -13.2383 13.716
      vertex -12.6587 -13.2383 -13.716
      vertex -12.446 -13.3757 -13.716
    endloop
  endfacet
  facet normal -0.623249 -0.782023 0
    outer loop
      vertex -12.8567 -13.0805 -13.716
      vertex -12.6587 -13.2383 -13.716
      vertex -12.6587 -13.2383 13.716
    endloop
  endfacet
  facet normal 0 0 1
    outer loop
      vertex -13.038 -12.9036 13.716
      vertex -12.8567 -13.0805 13.716
      vertex -12.6587 -13.2383 13.716
    endloop
  endfacet
  facet normal -0.698368 -0.715739 0
    outer loop
      vertex -12.8567 -13.0805 -13.716
      vertex -12.8567 -13.0805 13.716
      vertex -13.038 -12.9036 13.716
    endloop
  endfacet
  facet normal 0 0 1
    outer loop
      vertex 11.1127 -13.7152 13.716
      vertex 11.3658 -13.7089 13.716
      vertex 11.8639 -13.6211 13.716
    endloop
  endfacet
  facet normal 0.0248836 -0.99969 0
    outer loop
      vertex 11.3658 -13.7089 -13.716
      vertex 11.3658 -13.7089 13.716
      vertex 11.1127 -13.7152 13.716
    endloop
  endfacet
  facet normal 0.318596 -0.947891 0
    outer loop
      vertex 11.8639 -13.6211 13.716
      vertex 11.8639 -13.6211 -13.716
      vertex 12.104 -13.5404 -13.716
    endloop
  endfacet
  facet normal 0.222321 -0.974974 0
    outer loop
      vertex 11.8639 -13.6211 13.716
      vertex 11.617 -13.6774 13.716
      vertex 11.8639 -13.6211 -13.716
    endloop
  endfacet
  facet normal 0.411153 -0.911566 0
    outer loop
      vertex 12.3348 -13.4363 -8.636
      vertex 12.104 -13.5404 13.716
      vertex 12.104 -13.5404 -13.716
    endloop
  endfacet
  facet normal 0.499962 -0.866047 0
    outer loop
      vertex 12.5541 -13.3097 13.716
      vertex 12.3348 -13.4363 13.716
      vertex 12.3348 -13.4363 -8.636
    endloop
  endfacet
  facet normal 0.499962 -0.866047 0
    outer loop
      vertex 12.5541 -13.3097 -13.716
      vertex 12.5541 -13.3097 13.716
      vertex 12.3348 -13.4363 -8.636
    endloop
  endfacet
  facet normal 0.583701 -0.811969 0
    outer loop
      vertex 12.7597 -13.1619 13.716
      vertex 12.5541 -13.3097 13.716
      vertex 12.5541 -13.3097 -13.716
    endloop
  endfacet
  facet normal 0.499962 -0.866047 0
    outer loop
      vertex 12.3348 -13.4363 -8.636
      vertex 12.3348 -13.4363 -13.716
      vertex 12.5541 -13.3097 -13.716
    endloop
  endfacet
  facet normal 0.411153 -0.911566 0
    outer loop
      vertex 12.104 -13.5404 -13.716
      vertex 12.3348 -13.4363 -13.716
      vertex 12.3348 -13.4363 -8.636
    endloop
  endfacet
  facet normal 0.732878 -0.68036 0
    outer loop
      vertex 12.9495 -12.9943 8.63598
      vertex 13.1218 -12.8087 -13.716
      vertex 13.1218 -12.8087 8.63598
    endloop
  endfacet
  facet normal 0 0 -1
    outer loop
      vertex 13.1218 -12.8087 -13.716
      vertex 12.7597 -13.1619 -13.716
      vertex 12.5541 -13.3097 -13.716
    endloop
  endfacet
  facet normal 0 0 1
    outer loop
      vertex 13.6031 11.9247 13.716
      vertex 13.5165 12.1626 13.716
      vertex 13.4067 12.3908 13.716
    endloop
  endfacet
  facet normal 0.939678 0.34206 -0
    outer loop
      vertex 13.5165 12.1626 8.63598
      vertex 13.5165 12.1626 13.716
      vertex 13.6031 11.9247 13.716
    endloop
  endfacet
  facet normal 0.853106 0.521738 -0
    outer loop
      vertex 13.2746 12.6068 -13.716
      vertex 13.2746 12.6068 13.716
      vertex 13.4067 12.3908 13.716
    endloop
  endfacet
  facet normal 0.797386 0.60347 0
    outer loop
      vertex 13.1218 12.8087 13.716
      vertex 13.2746 12.6068 13.716
      vertex 13.2746 12.6068 -13.716
    endloop
  endfacet
  facet normal 0.583961 0.811781 0
    outer loop
      vertex 12.7597 13.1618 -13.716
      vertex 12.5541 13.3097 -13.716
      vertex 12.5541 13.3097 13.716
    endloop
  endfacet
  facet normal 0 0 -1
    outer loop
      vertex 12.3348 13.4363 -13.716
      vertex 12.5541 13.3097 -13.716
      vertex 12.7597 13.1618 -13.716
    endloop
  endfacet
  facet normal 0 0 1
    outer loop
      vertex 11.617 13.6774 13.716
      vertex 11.3658 13.7089 13.716
      vertex 11.1127 13.7152 13.716
    endloop
  endfacet
  facet normal 0.124424 0.992229 -0
    outer loop
      vertex 11.3658 13.7089 -13.716
      vertex 11.3658 13.7089 13.716
      vertex 11.617 13.6774 13.716
    endloop
  endfacet
  facet normal 0.222696 0.974888 0
    outer loop
      vertex 11.8639 13.621 -13.716
      vertex 11.617 13.6774 -13.716
      vertex 11.617 13.6774 13.716
    endloop
  endfacet
  facet normal 0 0 -1
    outer loop
      vertex 11.3658 13.7089 -13.716
      vertex 11.617 13.6774 -13.716
      vertex 11.8639 13.621 -13.716
    endloop
  endfacet
  facet normal 0.222696 0.974888 0
    outer loop
      vertex 11.617 13.6774 13.716
      vertex 11.8639 13.621 13.716
      vertex 11.8639 13.621 -13.716
    endloop
  endfacet
  facet normal 0 0 1
    outer loop
      vertex 12.3348 13.4363 13.716
      vertex 11.8639 13.621 13.716
      vertex 11.617 13.6774 13.716
    endloop
  endfacet
  facet normal -0.365322 -0.930881 0
    outer loop
      vertex -11.985 -13.5837 13.716
      vertex -12.2207 -13.4912 13.716
      vertex -12.2207 -13.4912 -8.636
    endloop
  endfacet
  facet normal 0 0 1
    outer loop
      vertex -12.446 -13.3757 13.716
      vertex -12.2207 -13.4912 13.716
      vertex -11.985 -13.5837 13.716
    endloop
  endfacet
  facet normal -0.456196 -0.889879 0
    outer loop
      vertex -12.446 -13.3757 -13.716
      vertex -12.2207 -13.4912 -13.716
      vertex -12.2207 -13.4912 -8.636
    endloop
  endfacet
  facet normal 0 0 -1
    outer loop
      vertex -11.985 -13.5837 -13.716
      vertex -12.2207 -13.4912 -13.716
      vertex -12.446 -13.3757 -13.716
    endloop
  endfacet
  facet normal 0 0 1
    outer loop
      vertex 11.3658 -13.7089 13.716
      vertex 11.617 -13.6774 13.716
      vertex 11.8639 -13.6211 13.716
    endloop
  endfacet
  facet normal 0.124424 -0.992229 0
    outer loop
      vertex 11.3658 -13.7089 -13.716
      vertex 11.617 -13.6774 13.716
      vertex 11.3658 -13.7089 13.716
    endloop
  endfacet
  facet normal 0 0 1
    outer loop
      vertex 12.104 -13.5404 13.716
      vertex 12.3348 -13.4363 13.716
      vertex 12.5541 -13.3097 13.716
    endloop
  endfacet
  facet normal 0.411153 -0.911566 0
    outer loop
      vertex 12.3348 -13.4363 -8.636
      vertex 12.3348 -13.4363 13.716
      vertex 12.104 -13.5404 13.716
    endloop
  endfacet
  facet normal 0.661909 -0.749584 0
    outer loop
      vertex 12.7597 -13.1619 -13.716
      vertex 12.9495 -12.9943 -13.716
      vertex 12.9495 -12.9943 8.63598
    endloop
  endfacet
  facet normal 0.661909 -0.749584 0
    outer loop
      vertex 12.7597 -13.1619 8.63598
      vertex 12.7597 -13.1619 -13.716
      vertex 12.9495 -12.9943 8.63598
    endloop
  endfacet
  facet normal 0.797386 -0.60347 0
    outer loop
      vertex 13.1218 -12.8087 -13.716
      vertex 13.2746 -12.6068 -13.716
      vertex 13.2746 -12.6068 8.63598
    endloop
  endfacet
  facet normal 0 0 -1
    outer loop
      vertex 13.5165 -12.1626 -13.716
      vertex 13.4067 -12.3908 -13.716
      vertex 13.1218 -12.8087 -13.716
    endloop
  endfacet
  facet normal 0.318241 0.94801 0
    outer loop
      vertex 11.8639 13.621 13.716
      vertex 12.104 13.5404 13.716
      vertex 12.104 13.5404 -13.716
    endloop
  endfacet
  facet normal 0 0 1
    outer loop
      vertex 12.3348 13.4363 13.716
      vertex 12.104 13.5404 13.716
      vertex 11.8639 13.621 13.716
    endloop
  endfacet
  facet normal 0.222321 -0.974974 0
    outer loop
      vertex 11.617 -13.6774 13.716
      vertex 11.617 -13.6774 -13.716
      vertex 11.8639 -13.6211 -13.716
    endloop
  endfacet
  facet normal 0.124424 -0.992229 0
    outer loop
      vertex 11.3658 -13.7089 -13.716
      vertex 11.617 -13.6774 -13.716
      vertex 11.617 -13.6774 13.716
    endloop
  endfacet
  facet normal 0 0 -1
    outer loop
      vertex 13.1218 -12.8087 -13.716
      vertex 12.9495 -12.9943 -13.716
      vertex 12.7597 -13.1619 -13.716
    endloop
  endfacet
  facet normal 0.732878 -0.68036 0
    outer loop
      vertex 12.9495 -12.9943 8.63598
      vertex 12.9495 -12.9943 -13.716
      vertex 13.1218 -12.8087 -13.716
    endloop
  endfacet
  facet normal 0 0 -1
    outer loop
      vertex 13.4067 -12.3908 -13.716
      vertex 13.2746 -12.6068 -13.716
      vertex 13.1218 -12.8087 -13.716
    endloop
  endfacet
  facet normal 0.853106 -0.521738 0
    outer loop
      vertex 13.2746 -12.6068 8.63598
      vertex 13.2746 -12.6068 -13.716
      vertex 13.4067 -12.3908 -13.716
    endloop
  endfacet
endsolid OpenSCAD_Model
