solid OpenSCAD_Model
  facet normal 0 0 1
    outer loop
      vertex 54.1093 19.5677 6.35
      vertex -58.6456 -18.4126 6.35
      vertex 58.0798 -19.6667 6.35
    endloop
  endfacet
  facet normal 0 0 1
    outer loop
      vertex 54.1093 19.5677 6.35
      vertex -56.943 20.4417 6.35
      vertex -58.6456 -18.4126 6.35
    endloop
  endfacet
  facet normal 0 0 -1
    outer loop
      vertex -58.6456 -18.4126 -6.35
      vertex -56.943 20.4417 -6.35
      vertex 58.0798 19.6667 -6.35
    endloop
  endfacet
  facet normal 0.988797 0.149267 -0
    outer loop
      vertex 58.6614 18.2869 -6.35
      vertex 58.6236 18.5373 1.26998
      vertex 58.6614 18.2869 1.26998
    endloop
  endfacet
  facet normal 0.998761 0.0497603 0
    outer loop
      vertex 58.6614 18.2869 6.35
      vertex 58.674 18.034 1.26998
      vertex 58.6614 18.2869 1.26998
    endloop
  endfacet
  facet normal 0.732878 0.68036 -0
    outer loop
      vertex 58.0798 19.6667 -6.35
      vertex 57.9075 19.8523 1.26998
      vertex 58.0798 19.6667 1.26998
    endloop
  endfacet
  facet normal 0.797386 0.60347 0
    outer loop
      vertex 58.0798 19.6667 6.35
      vertex 58.2326 19.4648 1.26998
      vertex 58.0798 19.6667 1.26998
    endloop
  endfacet
  facet normal 0.411153 0.911566 0
    outer loop
      vertex 57.2928 20.2943 6.35
      vertex 57.2928 20.2943 -6.35
      vertex 57.062 20.3984 1.26998
    endloop
  endfacet
  facet normal 0 -0 1
    outer loop
      vertex 58.0798 -19.6667 6.35
      vertex 58.6614 18.2869 6.35
      vertex 54.1093 19.5677 6.35
    endloop
  endfacet
  facet normal 0 0 -1
    outer loop
      vertex 57.2928 -20.2943 -6.35
      vertex 57.062 -20.3984 -6.35
      vertex 56.8219 -20.4791 -6.35
    endloop
  endfacet
  facet normal 0 0 -1
    outer loop
      vertex 58.0798 19.6667 -6.35
      vertex 58.4745 19.0206 -6.35
      vertex 58.6614 18.2869 -6.35
    endloop
  endfacet
  facet normal 0 0 1
    outer loop
      vertex -58.6456 -18.4126 6.35
      vertex -56.1973 -20.5732 6.35
      vertex 58.0798 -19.6667 6.35
    endloop
  endfacet
  facet normal 0 0 -1
    outer loop
      vertex 58.6614 18.2869 -6.35
      vertex 58.4745 -19.0206 -6.35
      vertex 56.8219 -20.4791 -6.35
    endloop
  endfacet
  facet normal 0.998761 0.0497603 0
    outer loop
      vertex 58.6614 18.2869 1.26998
      vertex 58.674 18.034 1.26998
      vertex 58.6614 18.2869 -6.35
    endloop
  endfacet
  facet normal 0 0 1
    outer loop
      vertex 58.6614 18.2869 6.35
      vertex 56.8219 20.479 6.35
      vertex 54.1093 19.5677 6.35
    endloop
  endfacet
  facet normal 0.318241 0.94801 0
    outer loop
      vertex 56.8219 20.479 6.35
      vertex 57.062 20.3984 6.35
      vertex 57.062 20.3984 1.26998
    endloop
  endfacet
  facet normal 0 0 1
    outer loop
      vertex 58.6614 18.2869 6.35
      vertex 58.0798 19.6667 6.35
      vertex 56.8219 20.479 6.35
    endloop
  endfacet
  facet normal 0 0 1
    outer loop
      vertex 56.8219 20.479 6.35
      vertex 56.0707 20.5732 6.35
      vertex -56.1973 20.5732 6.35
    endloop
  endfacet
  facet normal -0.994998 -0.0998946 -0
    outer loop
      vertex -58.6456 -18.4126 6.35
      vertex -58.6709 -18.1606 6.35
      vertex -58.6456 -18.4126 -6.35
    endloop
  endfacet
  facet normal 0 0 -1
    outer loop
      vertex 56.8219 -20.4791 -6.35
      vertex -57.8147 -19.9385 -6.35
      vertex -58.6456 -18.4126 -6.35
    endloop
  endfacet
  facet normal 0 0 -1
    outer loop
      vertex 58.6614 18.2869 -6.35
      vertex 56.8219 -20.4791 -6.35
      vertex -58.6456 -18.4126 -6.35
    endloop
  endfacet
  facet normal 0.998761 0.0497603 0
    outer loop
      vertex 58.674 18.034 1.26998
      vertex 58.674 18.034 -1.27
      vertex 58.6614 18.2869 -6.35
    endloop
  endfacet
  facet normal 0 -0 1
    outer loop
      vertex 58.674 -18.034 6.35
      vertex 58.674 18.034 6.35
      vertex 58.6614 18.2869 6.35
    endloop
  endfacet
  facet normal 0 0 1
    outer loop
      vertex 58.0798 -19.6667 6.35
      vertex 58.674 -18.034 6.35
      vertex 58.6614 18.2869 6.35
    endloop
  endfacet
  facet normal 0.988797 0.149267 -0
    outer loop
      vertex 58.6236 18.5373 1.26998
      vertex 58.6236 18.5373 6.35
      vertex 58.6614 18.2869 6.35
    endloop
  endfacet
  facet normal 0.901116 0.433578 0
    outer loop
      vertex 58.4745 19.0206 1.26998
      vertex 58.4745 19.0206 -6.35
      vertex 58.3647 19.2488 1.26998
    endloop
  endfacet
  facet normal 0 0 -1
    outer loop
      vertex -58.6456 -18.4126 -6.35
      vertex 58.0798 19.6667 -6.35
      vertex 58.6614 18.2869 -6.35
    endloop
  endfacet
  facet normal 0 0 -1
    outer loop
      vertex -56.943 20.4417 -6.35
      vertex -56.1973 20.5732 -6.35
      vertex 56.8219 20.479 -6.35
    endloop
  endfacet
  facet normal 0 0 -1
    outer loop
      vertex -58.6709 18.1606 -6.35
      vertex -58.1587 19.5677 -6.35
      vertex -56.943 20.4417 -6.35
    endloop
  endfacet
  facet normal 0.318241 0.94801 0
    outer loop
      vertex 57.062 20.3984 1.26998
      vertex 56.8219 20.479 -6.35
      vertex 56.8219 20.479 6.35
    endloop
  endfacet
  facet normal 0.969065 0.246807 0
    outer loop
      vertex 58.5611 18.7827 1.26998
      vertex 58.6236 18.5373 6.35
      vertex 58.6236 18.5373 1.26998
    endloop
  endfacet
  facet normal 0 0 1
    outer loop
      vertex 58.0798 19.6667 6.35
      vertex 57.2928 20.2943 6.35
      vertex 56.8219 20.479 6.35
    endloop
  endfacet
  facet normal 0.222321 -0.974974 0
    outer loop
      vertex 56.8219 -20.4791 6.35
      vertex 56.575 -20.5354 -6.35
      vertex 56.8219 -20.4791 -6.35
    endloop
  endfacet
  facet normal 0 0 1
    outer loop
      vertex -56.1973 -20.5732 6.35
      vertex 56.0707 -20.5732 6.35
      vertex 58.0798 -19.6667 6.35
    endloop
  endfacet
  facet normal 0.998761 0.0497603 0
    outer loop
      vertex 58.674 18.034 -1.27
      vertex 58.674 18.034 -6.35
      vertex 58.6614 18.2869 -6.35
    endloop
  endfacet
  facet normal 0.797386 -0.60347 0
    outer loop
      vertex 58.0798 -19.6667 -6.35
      vertex 58.2326 -19.4648 6.35
      vertex 58.0798 -19.6667 6.35
    endloop
  endfacet
  facet normal 1 0 0
    outer loop
      vertex 58.674 -18.034 6.35
      vertex 58.674 18.034 -1.27
      vertex 58.674 18.034 1.26998
    endloop
  endfacet
  facet normal 1 0 0
    outer loop
      vertex 58.674 -18.034 6.35
      vertex 58.674 -18.034 -6.35
      vertex 58.674 18.034 -1.27
    endloop
  endfacet
  facet normal 1 0 -0
    outer loop
      vertex 58.674 18.034 1.26998
      vertex 58.674 18.034 6.35
      vertex 58.674 -18.034 6.35
    endloop
  endfacet
  facet normal 0.998761 0.0497603 0
    outer loop
      vertex 58.6614 18.2869 6.35
      vertex 58.674 18.034 6.35
      vertex 58.674 18.034 1.26998
    endloop
  endfacet
  facet normal 0.901116 0.433578 0
    outer loop
      vertex 58.3647 19.2488 1.26998
      vertex 58.4745 19.0206 6.35
      vertex 58.4745 19.0206 1.26998
    endloop
  endfacet
  facet normal 0.988797 0.149267 -0
    outer loop
      vertex 58.6614 18.2869 1.26998
      vertex 58.6236 18.5373 1.26998
      vertex 58.6614 18.2869 6.35
    endloop
  endfacet
  facet normal 0.583961 0.811781 -0
    outer loop
      vertex 57.5121 20.1677 -1.27
      vertex 57.5121 20.1677 6.35
      vertex 57.7177 20.0198 6.35
    endloop
  endfacet
  facet normal 0.499962 0.866047 0
    outer loop
      vertex 57.2928 20.2943 6.35
      vertex 57.5121 20.1677 -1.27
      vertex 57.2928 20.2943 -6.35
    endloop
  endfacet
  facet normal 0.797386 0.60347 0
    outer loop
      vertex 58.2326 19.4648 1.26998
      vertex 58.2326 19.4648 -6.35
      vertex 58.0798 19.6667 -6.35
    endloop
  endfacet
  facet normal 0.901116 0.433578 -0
    outer loop
      vertex 58.3647 19.2488 1.26998
      vertex 58.3647 19.2488 6.35
      vertex 58.4745 19.0206 6.35
    endloop
  endfacet
  facet normal 0.939678 0.34206 0
    outer loop
      vertex 58.4745 19.0206 6.35
      vertex 58.5611 18.7827 1.26998
      vertex 58.4745 19.0206 1.26998
    endloop
  endfacet
  facet normal 0 0 -1
    outer loop
      vertex 58.4745 19.0206 -6.35
      vertex 58.6236 18.5373 -6.35
      vertex 58.6614 18.2869 -6.35
    endloop
  endfacet
  facet normal 0 0 1
    outer loop
      vertex -56.943 20.4417 6.35
      vertex -58.6709 -18.1606 6.35
      vertex -58.6456 -18.4126 6.35
    endloop
  endfacet
  facet normal 0 0 -1
    outer loop
      vertex -58.6456 -18.4126 -6.35
      vertex -58.6709 18.1606 -6.35
      vertex -56.943 20.4417 -6.35
    endloop
  endfacet
  facet normal 0 0 1
    outer loop
      vertex 56.8219 20.479 6.35
      vertex -56.943 20.4417 6.35
      vertex 54.1093 19.5677 6.35
    endloop
  endfacet
  facet normal 0 0 -1
    outer loop
      vertex -56.943 20.4417 -6.35
      vertex -56.6992 20.5103 -6.35
      vertex -56.1973 20.5732 -6.35
    endloop
  endfacet
  facet normal 0 0 1
    outer loop
      vertex 58.4745 19.0206 6.35
      vertex 58.3647 19.2488 6.35
      vertex 58.0798 19.6667 6.35
    endloop
  endfacet
  facet normal 0 0 1
    outer loop
      vertex 58.6614 18.2869 6.35
      vertex 58.4745 19.0206 6.35
      vertex 58.0798 19.6667 6.35
    endloop
  endfacet
  facet normal 0 0 -1
    outer loop
      vertex -56.943 20.4417 -6.35
      vertex 56.8219 20.479 -6.35
      vertex 58.0798 19.6667 -6.35
    endloop
  endfacet
  facet normal 0.222696 0.974888 0
    outer loop
      vertex 56.8219 20.479 -6.35
      vertex 56.575 20.5354 -6.35
      vertex 56.575 20.5354 -1.27
    endloop
  endfacet
  facet normal 0 0 -1
    outer loop
      vertex -57.996 -19.7616 -6.35
      vertex -58.1587 -19.5677 -6.35
      vertex -58.3014 -19.3584 -6.35
    endloop
  endfacet
  facet normal 0 0 -1
    outer loop
      vertex -57.8147 -19.9385 -6.35
      vertex -58.3014 -19.3584 -6.35
      vertex -58.6456 -18.4126 -6.35
    endloop
  endfacet
  facet normal 0 -1 0
    outer loop
      vertex -56.1973 -20.5732 6.35
      vertex -56.1973 -20.5732 -6.35
      vertex 56.0707 -20.5732 6.35
    endloop
  endfacet
  facet normal 0 0 1
    outer loop
      vertex 56.0707 -20.5732 6.35
      vertex 57.2928 -20.2943 6.35
      vertex 58.0798 -19.6667 6.35
    endloop
  endfacet
  facet normal 0 0 -1
    outer loop
      vertex 58.4745 -19.0206 -6.35
      vertex 57.7177 -20.0199 -6.35
      vertex 56.8219 -20.4791 -6.35
    endloop
  endfacet
  facet normal 0 0 1
    outer loop
      vertex 57.7177 -20.0199 6.35
      vertex 57.9075 -19.8523 6.35
      vertex 58.0798 -19.6667 6.35
    endloop
  endfacet
  facet normal 0 0 1
    outer loop
      vertex 58.4745 -19.0206 6.35
      vertex 58.6236 -18.5373 6.35
      vertex 58.674 -18.034 6.35
    endloop
  endfacet
  facet normal 0 -0 -1
    outer loop
      vertex 58.6614 18.2869 -6.35
      vertex 58.674 -18.034 -6.35
      vertex 58.4745 -19.0206 -6.35
    endloop
  endfacet
  facet normal 0.969065 -0.246807 0
    outer loop
      vertex 58.6236 -18.5373 6.35
      vertex 58.5611 -18.7827 -1.27
      vertex 58.6236 -18.5373 1.26998
    endloop
  endfacet
  facet normal 0 0 1
    outer loop
      vertex 58.0798 -19.6667 6.35
      vertex 58.4745 -19.0206 6.35
      vertex 58.674 -18.034 6.35
    endloop
  endfacet
  facet normal 0 0 1
    outer loop
      vertex 58.0798 19.6667 6.35
      vertex 57.9075 19.8523 6.35
      vertex 57.7177 20.0198 6.35
    endloop
  endfacet
  facet normal 0.661687 0.74978 0
    outer loop
      vertex 57.9075 19.8523 1.26998
      vertex 57.9075 19.8523 -1.27
      vertex 57.7177 20.0198 1.26998
    endloop
  endfacet
  facet normal 0.661687 0.74978 -0
    outer loop
      vertex 57.7177 20.0198 1.26998
      vertex 57.7177 20.0198 6.35
      vertex 57.9075 19.8523 1.26998
    endloop
  endfacet
  facet normal 0.732878 0.68036 -0
    outer loop
      vertex 58.0798 19.6667 1.26998
      vertex 57.9075 19.8523 1.26998
      vertex 58.0798 19.6667 6.35
    endloop
  endfacet
  facet normal 0.853106 0.521738 0
    outer loop
      vertex 58.3647 19.2488 1.26998
      vertex 58.3647 19.2488 -6.35
      vertex 58.2326 19.4648 1.26998
    endloop
  endfacet
  facet normal 0.797386 0.60347 0
    outer loop
      vertex 58.0798 19.6667 1.26998
      vertex 58.2326 19.4648 1.26998
      vertex 58.0798 19.6667 -6.35
    endloop
  endfacet
  facet normal 0.901116 0.433578 0
    outer loop
      vertex 58.4745 19.0206 -6.35
      vertex 58.3647 19.2488 -6.35
      vertex 58.3647 19.2488 1.26998
    endloop
  endfacet
  facet normal 0 0 -1
    outer loop
      vertex 58.0798 19.6667 -6.35
      vertex 58.3647 19.2488 -6.35
      vertex 58.4745 19.0206 -6.35
    endloop
  endfacet
  facet normal 0.939678 0.34206 0
    outer loop
      vertex 58.5611 18.7827 1.26998
      vertex 58.5611 18.7827 -6.35
      vertex 58.4745 19.0206 -6.35
    endloop
  endfacet
  facet normal 0.939678 0.34206 0
    outer loop
      vertex 58.4745 19.0206 1.26998
      vertex 58.5611 18.7827 1.26998
      vertex 58.4745 19.0206 -6.35
    endloop
  endfacet
  facet normal 0.969065 0.246807 0
    outer loop
      vertex 58.6236 18.5373 1.26998
      vertex 58.6236 18.5373 -6.35
      vertex 58.5611 18.7827 1.26998
    endloop
  endfacet
  facet normal 0.988797 0.149267 0
    outer loop
      vertex 58.6614 18.2869 -6.35
      vertex 58.6236 18.5373 -6.35
      vertex 58.6236 18.5373 1.26998
    endloop
  endfacet
  facet normal -1 0 0
    outer loop
      vertex -58.6709 -18.1606 6.35
      vertex -58.6709 18.1606 6.35
      vertex -58.6709 18.1606 -6.35
    endloop
  endfacet
  facet normal -0.994998 -0.0998946 -0
    outer loop
      vertex -58.6709 -18.1606 6.35
      vertex -58.6709 -18.1606 -6.35
      vertex -58.6456 -18.4126 -6.35
    endloop
  endfacet
  facet normal 0 0 1
    outer loop
      vertex 56.8219 20.479 6.35
      vertex -56.1973 20.5732 6.35
      vertex -56.943 20.4417 6.35
    endloop
  endfacet
  facet normal -0 1 0
    outer loop
      vertex -56.1973 20.5732 6.35
      vertex 56.0707 20.5732 6.35
      vertex 56.0707 20.5732 -1.27
    endloop
  endfacet
  facet normal 0 0 1
    outer loop
      vertex -56.943 20.4417 6.35
      vertex -58.6709 18.1606 6.35
      vertex -58.6709 -18.1606 6.35
    endloop
  endfacet
  facet normal 0 0 -1
    outer loop
      vertex -58.1587 19.5677 -6.35
      vertex -57.6167 20.0963 -6.35
      vertex -56.943 20.4417 -6.35
    endloop
  endfacet
  facet normal 0.969065 0.246807 -0
    outer loop
      vertex 58.5611 18.7827 1.26998
      vertex 58.5611 18.7827 6.35
      vertex 58.6236 18.5373 6.35
    endloop
  endfacet
  facet normal 0 0 1
    outer loop
      vertex 58.6614 18.2869 6.35
      vertex 58.6236 18.5373 6.35
      vertex 58.4745 19.0206 6.35
    endloop
  endfacet
  facet normal 0.853106 0.521738 0
    outer loop
      vertex 58.2326 19.4648 1.26998
      vertex 58.3647 19.2488 6.35
      vertex 58.3647 19.2488 1.26998
    endloop
  endfacet
  facet normal 0.853106 0.521738 -0
    outer loop
      vertex 58.2326 19.4648 1.26998
      vertex 58.2326 19.4648 6.35
      vertex 58.3647 19.2488 6.35
    endloop
  endfacet
  facet normal 0.222696 0.974888 -0
    outer loop
      vertex 56.8219 20.479 -6.35
      vertex 56.575 20.5354 -1.27
      vertex 56.8219 20.479 6.35
    endloop
  endfacet
  facet normal 0.0248836 0.99969 0
    outer loop
      vertex 56.0707 20.5732 6.35
      vertex 56.3238 20.5669 -6.35
      vertex 56.0707 20.5732 -1.27
    endloop
  endfacet
  facet normal 0 0 -1
    outer loop
      vertex 56.8219 20.479 -6.35
      vertex 57.2928 20.2943 -6.35
      vertex 58.0798 19.6667 -6.35
    endloop
  endfacet
  facet normal 0.411153 0.911566 0
    outer loop
      vertex 57.2928 20.2943 -6.35
      vertex 57.062 20.3984 -6.35
      vertex 57.062 20.3984 1.26998
    endloop
  endfacet
  facet normal -0.27086 0.962619 0
    outer loop
      vertex -56.943 20.4417 6.35
      vertex -56.6992 20.5103 6.35
      vertex -56.943 20.4417 -6.35
    endloop
  endfacet
  facet normal 0 1 0
    outer loop
      vertex 56.0707 20.5732 -1.27
      vertex -56.1973 20.5732 -6.35
      vertex -56.1973 20.5732 6.35
    endloop
  endfacet
  facet normal 0 0 -1
    outer loop
      vertex -56.1973 -20.5732 -6.35
      vertex -56.4498 -20.5543 -6.35
      vertex -56.6992 -20.5103 -6.35
    endloop
  endfacet
  facet normal -0 0 -1
    outer loop
      vertex 56.8219 -20.4791 -6.35
      vertex -56.1973 -20.5732 -6.35
      vertex -57.8147 -19.9385 -6.35
    endloop
  endfacet
  facet normal -0.17374 -0.984792 0
    outer loop
      vertex -56.4498 -20.5543 -6.35
      vertex -56.6992 -20.5103 6.35
      vertex -56.6992 -20.5103 -6.35
    endloop
  endfacet
  facet normal 0 0 1
    outer loop
      vertex -58.6456 -18.4126 6.35
      vertex -57.8147 -19.9385 6.35
      vertex -56.1973 -20.5732 6.35
    endloop
  endfacet
  facet normal -0.878152 -0.478382 -0
    outer loop
      vertex -58.3014 -19.3584 6.35
      vertex -58.4225 -19.1361 -6.35
      vertex -58.3014 -19.3584 -6.35
    endloop
  endfacet
  facet normal 0 0 -1
    outer loop
      vertex -58.3014 -19.3584 -6.35
      vertex -58.5208 -18.9027 -6.35
      vertex -58.6456 -18.4126 -6.35
    endloop
  endfacet
  facet normal 0 0 -1
    outer loop
      vertex 57.7177 -20.0199 -6.35
      vertex 57.2928 -20.2943 -6.35
      vertex 56.8219 -20.4791 -6.35
    endloop
  endfacet
  facet normal 0 0 1
    outer loop
      vertex 57.2928 -20.2943 6.35
      vertex 57.7177 -20.0199 6.35
      vertex 58.0798 -19.6667 6.35
    endloop
  endfacet
  facet normal 0 0 -1
    outer loop
      vertex 58.4745 -19.0206 -6.35
      vertex 58.0798 -19.6667 -6.35
      vertex 57.7177 -20.0199 -6.35
    endloop
  endfacet
  facet normal 0 0 -1
    outer loop
      vertex 58.4745 -19.0206 -6.35
      vertex 58.3647 -19.2488 -6.35
      vertex 58.0798 -19.6667 -6.35
    endloop
  endfacet
  facet normal 1 0 0
    outer loop
      vertex 58.674 -18.034 -6.35
      vertex 58.674 18.034 -6.35
      vertex 58.674 18.034 -1.27
    endloop
  endfacet
  facet normal 0 0 -1
    outer loop
      vertex 58.6614 18.2869 -6.35
      vertex 58.674 18.034 -6.35
      vertex 58.674 -18.034 -6.35
    endloop
  endfacet
  facet normal 0 0 1
    outer loop
      vertex 58.4745 -19.0206 6.35
      vertex 58.5611 -18.7827 6.35
      vertex 58.6236 -18.5373 6.35
    endloop
  endfacet
  facet normal 0 0 1
    outer loop
      vertex 58.6236 -18.5373 6.35
      vertex 58.6614 -18.2869 6.35
      vertex 58.674 -18.034 6.35
    endloop
  endfacet
  facet normal 0.901116 -0.433578 0
    outer loop
      vertex 58.4745 -19.0206 6.35
      vertex 58.3647 -19.2488 6.35
      vertex 58.4745 -19.0206 -6.35
    endloop
  endfacet
  facet normal 0 0 1
    outer loop
      vertex 58.0798 -19.6667 6.35
      vertex 58.3647 -19.2488 6.35
      vertex 58.4745 -19.0206 6.35
    endloop
  endfacet
  facet normal 0 0 1
    outer loop
      vertex 57.2928 20.2943 6.35
      vertex 57.062 20.3984 6.35
      vertex 56.8219 20.479 6.35
    endloop
  endfacet
  facet normal 0.411153 0.911566 -0
    outer loop
      vertex 57.062 20.3984 1.26998
      vertex 57.062 20.3984 6.35
      vertex 57.2928 20.2943 6.35
    endloop
  endfacet
  facet normal 0.583961 0.811781 -0
    outer loop
      vertex 57.7177 20.0198 1.26998
      vertex 57.5121 20.1677 -1.27
      vertex 57.7177 20.0198 6.35
    endloop
  endfacet
  facet normal 0 0 1
    outer loop
      vertex 58.0798 19.6667 6.35
      vertex 57.7177 20.0198 6.35
      vertex 57.2928 20.2943 6.35
    endloop
  endfacet
  facet normal 0.732878 0.68036 0
    outer loop
      vertex 58.0798 19.6667 -6.35
      vertex 57.9075 19.8523 -1.27
      vertex 57.9075 19.8523 1.26998
    endloop
  endfacet
  facet normal 0 0 -1
    outer loop
      vertex 57.2928 20.2943 -6.35
      vertex 57.5121 20.1677 -6.35
      vertex 57.7177 20.0198 -6.35
    endloop
  endfacet
  facet normal 0.853106 0.521738 0
    outer loop
      vertex 58.3647 19.2488 -6.35
      vertex 58.2326 19.4648 -6.35
      vertex 58.2326 19.4648 1.26998
    endloop
  endfacet
  facet normal 0 0 -1
    outer loop
      vertex 58.0798 19.6667 -6.35
      vertex 58.2326 19.4648 -6.35
      vertex 58.3647 19.2488 -6.35
    endloop
  endfacet
  facet normal 0.969065 0.246807 0
    outer loop
      vertex 58.6236 18.5373 -6.35
      vertex 58.5611 18.7827 -6.35
      vertex 58.5611 18.7827 1.26998
    endloop
  endfacet
  facet normal 0 0 -1
    outer loop
      vertex 58.4745 19.0206 -6.35
      vertex 58.5611 18.7827 -6.35
      vertex 58.6236 18.5373 -6.35
    endloop
  endfacet
  facet normal 0 0 1
    outer loop
      vertex -56.943 20.4417 6.35
      vertex -58.1587 19.5677 6.35
      vertex -58.6709 18.1606 6.35
    endloop
  endfacet
  facet normal 0 0 1
    outer loop
      vertex -58.1587 19.5677 6.35
      vertex -58.5208 18.9027 6.35
      vertex -58.6709 18.1606 6.35
    endloop
  endfacet
  facet normal -1 0 0
    outer loop
      vertex -58.6709 18.1606 -6.35
      vertex -58.6709 -18.1606 -6.35
      vertex -58.6709 -18.1606 6.35
    endloop
  endfacet
  facet normal 0 0 -1
    outer loop
      vertex -58.6456 -18.4126 -6.35
      vertex -58.6709 -18.1606 -6.35
      vertex -58.6709 18.1606 -6.35
    endloop
  endfacet
  facet normal 0 0 1
    outer loop
      vertex -56.1973 20.5732 6.35
      vertex -56.6992 20.5103 6.35
      vertex -56.943 20.4417 6.35
    endloop
  endfacet
  facet normal -0.0746427 0.99721 0
    outer loop
      vertex -56.1973 20.5732 -6.35
      vertex -56.4498 20.5543 -6.35
      vertex -56.4498 20.5543 6.35
    endloop
  endfacet
  facet normal 0.222696 0.974888 -0
    outer loop
      vertex 56.575 20.5354 -1.27
      vertex 56.575 20.5354 6.35
      vertex 56.8219 20.479 6.35
    endloop
  endfacet
  facet normal 0.124424 0.992229 0
    outer loop
      vertex 56.3238 20.5669 -6.35
      vertex 56.575 20.5354 6.35
      vertex 56.575 20.5354 -1.27
    endloop
  endfacet
  facet normal -0.542613 0.839983 0
    outer loop
      vertex -57.6167 20.0963 -6.35
      vertex -57.6167 20.0963 6.35
      vertex -57.404 20.2337 -6.35
    endloop
  endfacet
  facet normal 0 0 -1
    outer loop
      vertex -58.1587 19.5677 -6.35
      vertex -57.8147 19.9384 -6.35
      vertex -57.6167 20.0963 -6.35
    endloop
  endfacet
  facet normal 0.939678 0.34206 0
    outer loop
      vertex 58.4745 19.0206 6.35
      vertex 58.5611 18.7827 6.35
      vertex 58.5611 18.7827 1.26998
    endloop
  endfacet
  facet normal 0 0 1
    outer loop
      vertex 58.6236 18.5373 6.35
      vertex 58.5611 18.7827 6.35
      vertex 58.4745 19.0206 6.35
    endloop
  endfacet
  facet normal 0.797386 0.60347 0
    outer loop
      vertex 58.0798 19.6667 6.35
      vertex 58.2326 19.4648 6.35
      vertex 58.2326 19.4648 1.26998
    endloop
  endfacet
  facet normal 0 0 1
    outer loop
      vertex 58.3647 19.2488 6.35
      vertex 58.2326 19.4648 6.35
      vertex 58.0798 19.6667 6.35
    endloop
  endfacet
  facet normal 0 0 -1
    outer loop
      vertex -56.1973 20.5732 -6.35
      vertex 56.3238 20.5669 -6.35
      vertex 56.8219 20.479 -6.35
    endloop
  endfacet
  facet normal 0.0248836 0.99969 0
    outer loop
      vertex 56.3238 20.5669 -6.35
      vertex 56.0707 20.5732 -6.35
      vertex 56.0707 20.5732 -1.27
    endloop
  endfacet
  facet normal 0.583961 0.811781 0
    outer loop
      vertex 57.7177 20.0198 1.26998
      vertex 57.7177 20.0198 -6.35
      vertex 57.5121 20.1677 -1.27
    endloop
  endfacet
  facet normal 0.661687 0.74978 0
    outer loop
      vertex 57.9075 19.8523 -1.27
      vertex 57.7177 20.0198 -6.35
      vertex 57.7177 20.0198 1.26998
    endloop
  endfacet
  facet normal 0 0 -1
    outer loop
      vertex 56.8219 20.479 -6.35
      vertex 57.062 20.3984 -6.35
      vertex 57.2928 20.2943 -6.35
    endloop
  endfacet
  facet normal 0.318241 0.94801 0
    outer loop
      vertex 57.062 20.3984 1.26998
      vertex 57.062 20.3984 -6.35
      vertex 56.8219 20.479 -6.35
    endloop
  endfacet
  facet normal 0 -1 0
    outer loop
      vertex -56.1973 -20.5732 -6.35
      vertex 56.0707 -20.5732 -6.35
      vertex 56.0707 -20.5732 6.35
    endloop
  endfacet
  facet normal 0 0 -1
    outer loop
      vertex 56.8219 -20.4791 -6.35
      vertex 56.0707 -20.5732 -6.35
      vertex -56.1973 -20.5732 -6.35
    endloop
  endfacet
  facet normal 0 0 1
    outer loop
      vertex -57.8147 -19.9385 6.35
      vertex -57.404 -20.2337 6.35
      vertex -56.943 -20.4417 6.35
    endloop
  endfacet
  facet normal 0 0 -1
    outer loop
      vertex -56.1973 -20.5732 -6.35
      vertex -56.943 -20.4417 -6.35
      vertex -57.8147 -19.9385 -6.35
    endloop
  endfacet
  facet normal 0 0 -1
    outer loop
      vertex -57.8147 -19.9385 -6.35
      vertex -57.996 -19.7616 -6.35
      vertex -58.3014 -19.3584 -6.35
    endloop
  endfacet
  facet normal -0.698368 -0.715739 -0
    outer loop
      vertex -57.8147 -19.9385 6.35
      vertex -57.996 -19.7616 -6.35
      vertex -57.8147 -19.9385 -6.35
    endloop
  endfacet
  facet normal -0.766047 -0.642784 0
    outer loop
      vertex -57.996 -19.7616 -6.35
      vertex -57.996 -19.7616 6.35
      vertex -58.1587 -19.5677 -6.35
    endloop
  endfacet
  facet normal 0 0 1
    outer loop
      vertex -58.6456 -18.4126 6.35
      vertex -58.3014 -19.3584 6.35
      vertex -57.8147 -19.9385 6.35
    endloop
  endfacet
  facet normal -0.95548 -0.295057 -0
    outer loop
      vertex -58.5208 -18.9027 6.35
      vertex -58.5955 -18.6608 -6.35
      vertex -58.5208 -18.9027 -6.35
    endloop
  endfacet
  facet normal 0 0 -1
    outer loop
      vertex -58.5208 -18.9027 -6.35
      vertex -58.5955 -18.6608 -6.35
      vertex -58.6456 -18.4126 -6.35
    endloop
  endfacet
  facet normal 0 0 1
    outer loop
      vertex 56.0707 -20.5732 6.35
      vertex 56.8219 -20.4791 6.35
      vertex 57.2928 -20.2943 6.35
    endloop
  endfacet
  facet normal 0.124424 -0.992229 0
    outer loop
      vertex 56.575 -20.5354 -6.35
      vertex 56.3238 -20.5669 6.35
      vertex 56.3238 -20.5669 -6.35
    endloop
  endfacet
  facet normal 0.499962 -0.866047 0
    outer loop
      vertex 57.2928 -20.2943 -6.35
      vertex 57.5121 -20.1677 1.26998
      vertex 57.2928 -20.2943 6.35
    endloop
  endfacet
  facet normal 0.411153 -0.911566 0
    outer loop
      vertex 57.2928 -20.2943 6.35
      vertex 57.062 -20.3984 1.26998
      vertex 57.2928 -20.2943 -6.35
    endloop
  endfacet
  facet normal 0.499962 -0.866047 0
    outer loop
      vertex 57.2928 -20.2943 -6.35
      vertex 57.5121 -20.1677 -6.35
      vertex 57.5121 -20.1677 1.26998
    endloop
  endfacet
  facet normal 0.661909 -0.749584 0
    outer loop
      vertex 57.7177 -20.0199 -6.35
      vertex 57.9075 -19.8523 -6.35
      vertex 57.7177 -20.0199 6.35
    endloop
  endfacet
  facet normal 0 0 -1
    outer loop
      vertex 58.0798 -19.6667 -6.35
      vertex 57.9075 -19.8523 -6.35
      vertex 57.7177 -20.0199 -6.35
    endloop
  endfacet
  facet normal 0.732878 -0.68036 0
    outer loop
      vertex 58.0798 -19.6667 6.35
      vertex 57.9075 -19.8523 -6.35
      vertex 58.0798 -19.6667 -6.35
    endloop
  endfacet
  facet normal 0.939678 -0.34206 0
    outer loop
      vertex 58.4745 -19.0206 -6.35
      vertex 58.5611 -18.7827 -1.27
      vertex 58.4745 -19.0206 6.35
    endloop
  endfacet
  facet normal 0.988797 -0.149267 0
    outer loop
      vertex 58.6236 -18.5373 1.26998
      vertex 58.6614 -18.2869 1.26998
      vertex 58.6236 -18.5373 6.35
    endloop
  endfacet
  facet normal 0.969065 -0.246807 0
    outer loop
      vertex 58.5611 -18.7827 -1.27
      vertex 58.6236 -18.5373 -6.35
      vertex 58.6236 -18.5373 1.26998
    endloop
  endfacet
  facet normal 0.969065 -0.246807 0
    outer loop
      vertex 58.5611 -18.7827 -1.27
      vertex 58.5611 -18.7827 -6.35
      vertex 58.6236 -18.5373 -6.35
    endloop
  endfacet
  facet normal 0 0 -1
    outer loop
      vertex 58.674 -18.034 -6.35
      vertex 58.6236 -18.5373 -6.35
      vertex 58.4745 -19.0206 -6.35
    endloop
  endfacet
  facet normal 0.998761 -0.0497603 0
    outer loop
      vertex 58.674 -18.034 6.35
      vertex 58.6614 -18.2869 1.26998
      vertex 58.674 -18.034 -6.35
    endloop
  endfacet
  facet normal 0.901116 -0.433578 0
    outer loop
      vertex 58.3647 -19.2488 6.35
      vertex 58.3647 -19.2488 -6.35
      vertex 58.4745 -19.0206 -6.35
    endloop
  endfacet
  facet normal 0 0 1
    outer loop
      vertex 58.0798 -19.6667 6.35
      vertex 58.2326 -19.4648 6.35
      vertex 58.3647 -19.2488 6.35
    endloop
  endfacet
  facet normal 0.853106 -0.521738 0
    outer loop
      vertex 58.2326 -19.4648 6.35
      vertex 58.3647 -19.2488 -6.35
      vertex 58.3647 -19.2488 6.35
    endloop
  endfacet
  facet normal 0 0 -1
    outer loop
      vertex 58.3647 -19.2488 -6.35
      vertex 58.2326 -19.4648 -6.35
      vertex 58.0798 -19.6667 -6.35
    endloop
  endfacet
  facet normal 0.732878 0.68036 -0
    outer loop
      vertex 57.9075 19.8523 1.26998
      vertex 57.9075 19.8523 6.35
      vertex 58.0798 19.6667 6.35
    endloop
  endfacet
  facet normal 0.661687 0.74978 0
    outer loop
      vertex 57.7177 20.0198 6.35
      vertex 57.9075 19.8523 6.35
      vertex 57.9075 19.8523 1.26998
    endloop
  endfacet
  facet normal -0.62349 0.781831 0
    outer loop
      vertex -57.6167 20.0963 -6.35
      vertex -57.8147 19.9384 -6.35
      vertex -57.6167 20.0963 6.35
    endloop
  endfacet
  facet normal 0 0 1
    outer loop
      vertex -58.1587 19.5677 6.35
      vertex -58.3014 19.3584 6.35
      vertex -58.5208 18.9027 6.35
    endloop
  endfacet
  facet normal 0 0 -1
    outer loop
      vertex -58.6709 18.1606 -6.35
      vertex -58.5208 18.9027 -6.35
      vertex -58.1587 19.5677 -6.35
    endloop
  endfacet
  facet normal -0.955514 0.294946 0
    outer loop
      vertex -58.5208 18.9027 -6.35
      vertex -58.5955 18.6607 -6.35
      vertex -58.5208 18.9027 6.35
    endloop
  endfacet
  facet normal -0.27086 0.962619 0
    outer loop
      vertex -56.6992 20.5103 6.35
      vertex -56.6992 20.5103 -6.35
      vertex -56.943 20.4417 -6.35
    endloop
  endfacet
  facet normal -0.17374 0.984792 0
    outer loop
      vertex -56.6992 20.5103 6.35
      vertex -56.4498 20.5543 6.35
      vertex -56.6992 20.5103 -6.35
    endloop
  endfacet
  facet normal 0 0 1
    outer loop
      vertex -56.1973 20.5732 6.35
      vertex -56.4498 20.5543 6.35
      vertex -56.6992 20.5103 6.35
    endloop
  endfacet
  facet normal -0.0746427 0.99721 0
    outer loop
      vertex -56.1973 20.5732 -6.35
      vertex -56.4498 20.5543 6.35
      vertex -56.1973 20.5732 6.35
    endloop
  endfacet
  facet normal 0.124424 0.992229 -0
    outer loop
      vertex 56.3238 20.5669 -6.35
      vertex 56.3238 20.5669 6.35
      vertex 56.575 20.5354 6.35
    endloop
  endfacet
  facet normal 0 0 1
    outer loop
      vertex 56.8219 20.479 6.35
      vertex 56.575 20.5354 6.35
      vertex 56.0707 20.5732 6.35
    endloop
  endfacet
  facet normal 0 0 1
    outer loop
      vertex -56.943 20.4417 6.35
      vertex -57.404 20.2337 6.35
      vertex -57.6167 20.0963 6.35
    endloop
  endfacet
  facet normal 0 0 -1
    outer loop
      vertex -57.6167 20.0963 -6.35
      vertex -57.404 20.2337 -6.35
      vertex -56.943 20.4417 -6.35
    endloop
  endfacet
  facet normal 0 0 -1
    outer loop
      vertex 56.3238 20.5669 -6.35
      vertex 56.575 20.5354 -6.35
      vertex 56.8219 20.479 -6.35
    endloop
  endfacet
  facet normal 0.124424 0.992229 0
    outer loop
      vertex 56.575 20.5354 -1.27
      vertex 56.575 20.5354 -6.35
      vertex 56.3238 20.5669 -6.35
    endloop
  endfacet
  facet normal 0 0 -1
    outer loop
      vertex -56.1973 20.5732 -6.35
      vertex 56.0707 20.5732 -6.35
      vertex 56.3238 20.5669 -6.35
    endloop
  endfacet
  facet normal 0 1 0
    outer loop
      vertex 56.0707 20.5732 -1.27
      vertex 56.0707 20.5732 -6.35
      vertex -56.1973 20.5732 -6.35
    endloop
  endfacet
  facet normal 0.499962 0.866047 0
    outer loop
      vertex 57.2928 20.2943 6.35
      vertex 57.5121 20.1677 6.35
      vertex 57.5121 20.1677 -1.27
    endloop
  endfacet
  facet normal 0 0 1
    outer loop
      vertex 57.7177 20.0198 6.35
      vertex 57.5121 20.1677 6.35
      vertex 57.2928 20.2943 6.35
    endloop
  endfacet
  facet normal 0.661687 0.74978 0
    outer loop
      vertex 57.9075 19.8523 -1.27
      vertex 57.9075 19.8523 -6.35
      vertex 57.7177 20.0198 -6.35
    endloop
  endfacet
  facet normal 0 0 -1
    outer loop
      vertex 57.2928 20.2943 -6.35
      vertex 57.7177 20.0198 -6.35
      vertex 58.0798 19.6667 -6.35
    endloop
  endfacet
  facet normal 0.0248836 -0.99969 0
    outer loop
      vertex 56.0707 -20.5732 -6.35
      vertex 56.3238 -20.5669 -6.35
      vertex 56.0707 -20.5732 6.35
    endloop
  endfacet
  facet normal 0 0 -1
    outer loop
      vertex 56.8219 -20.4791 -6.35
      vertex 56.3238 -20.5669 -6.35
      vertex 56.0707 -20.5732 -6.35
    endloop
  endfacet
  facet normal 0 0 1
    outer loop
      vertex -57.8147 -19.9385 6.35
      vertex -56.943 -20.4417 6.35
      vertex -56.1973 -20.5732 6.35
    endloop
  endfacet
  facet normal 0 0 -1
    outer loop
      vertex -56.1973 -20.5732 -6.35
      vertex -56.6992 -20.5103 -6.35
      vertex -56.943 -20.4417 -6.35
    endloop
  endfacet
  facet normal -0.542613 -0.839983 -0
    outer loop
      vertex -57.404 -20.2337 6.35
      vertex -57.6167 -20.0963 -6.35
      vertex -57.404 -20.2337 -6.35
    endloop
  endfacet
  facet normal -0.27086 -0.962619 0
    outer loop
      vertex -56.6992 -20.5103 -6.35
      vertex -56.943 -20.4417 6.35
      vertex -56.943 -20.4417 -6.35
    endloop
  endfacet
  facet normal 0 0 -1
    outer loop
      vertex -56.943 -20.4417 -6.35
      vertex -57.404 -20.2337 -6.35
      vertex -57.8147 -19.9385 -6.35
    endloop
  endfacet
  facet normal 0 0 1
    outer loop
      vertex -57.404 -20.2337 6.35
      vertex -57.1787 -20.3492 6.35
      vertex -56.943 -20.4417 6.35
    endloop
  endfacet
  facet normal -0.698368 -0.715739 0
    outer loop
      vertex -57.8147 -19.9385 6.35
      vertex -57.996 -19.7616 6.35
      vertex -57.996 -19.7616 -6.35
    endloop
  endfacet
  facet normal -0.826236 -0.563325 0
    outer loop
      vertex -58.3014 -19.3584 -6.35
      vertex -58.1587 -19.5677 -6.35
      vertex -58.3014 -19.3584 6.35
    endloop
  endfacet
  facet normal 0 0 1
    outer loop
      vertex -58.3014 -19.3584 6.35
      vertex -57.996 -19.7616 6.35
      vertex -57.8147 -19.9385 6.35
    endloop
  endfacet
  facet normal -0.766047 -0.642784 0
    outer loop
      vertex -57.996 -19.7616 6.35
      vertex -58.1587 -19.5677 6.35
      vertex -58.1587 -19.5677 -6.35
    endloop
  endfacet
  facet normal -0.921598 -0.388145 0
    outer loop
      vertex -58.4225 -19.1361 -6.35
      vertex -58.5208 -18.9027 6.35
      vertex -58.5208 -18.9027 -6.35
    endloop
  endfacet
  facet normal 0 0 -1
    outer loop
      vertex -58.3014 -19.3584 -6.35
      vertex -58.4225 -19.1361 -6.35
      vertex -58.5208 -18.9027 -6.35
    endloop
  endfacet
  facet normal -0.878152 -0.478382 0
    outer loop
      vertex -58.3014 -19.3584 6.35
      vertex -58.4225 -19.1361 6.35
      vertex -58.4225 -19.1361 -6.35
    endloop
  endfacet
  facet normal 0 0 1
    outer loop
      vertex -58.6456 -18.4126 6.35
      vertex -58.5208 -18.9027 6.35
      vertex -58.3014 -19.3584 6.35
    endloop
  endfacet
  facet normal -0.98023 -0.197863 0
    outer loop
      vertex -58.5955 -18.6608 -6.35
      vertex -58.5955 -18.6608 6.35
      vertex -58.6456 -18.4126 6.35
    endloop
  endfacet
  facet normal -0.98023 -0.197863 0
    outer loop
      vertex -58.6456 -18.4126 -6.35
      vertex -58.5955 -18.6608 -6.35
      vertex -58.6456 -18.4126 6.35
    endloop
  endfacet
  facet normal 0.411153 -0.911566 0
    outer loop
      vertex 57.2928 -20.2943 6.35
      vertex 57.062 -20.3984 6.35
      vertex 57.062 -20.3984 1.26998
    endloop
  endfacet
  facet normal 0.318596 -0.947891 0
    outer loop
      vertex 56.8219 -20.4791 -6.35
      vertex 57.062 -20.3984 1.26998
      vertex 56.8219 -20.4791 6.35
    endloop
  endfacet
  facet normal 0.583701 -0.811969 0
    outer loop
      vertex 57.7177 -20.0199 6.35
      vertex 57.5121 -20.1677 1.26998
      vertex 57.7177 -20.0199 -6.35
    endloop
  endfacet
  facet normal 0.583701 -0.811969 0
    outer loop
      vertex 57.7177 -20.0199 6.35
      vertex 57.5121 -20.1677 6.35
      vertex 57.5121 -20.1677 1.26998
    endloop
  endfacet
  facet normal 0.661909 -0.749584 0
    outer loop
      vertex 57.9075 -19.8523 -6.35
      vertex 57.9075 -19.8523 6.35
      vertex 57.7177 -20.0199 6.35
    endloop
  endfacet
  facet normal 0.732878 -0.68036 0
    outer loop
      vertex 58.0798 -19.6667 6.35
      vertex 57.9075 -19.8523 6.35
      vertex 57.9075 -19.8523 -6.35
    endloop
  endfacet
  facet normal 0.939678 -0.34206 0
    outer loop
      vertex 58.5611 -18.7827 -1.27
      vertex 58.5611 -18.7827 6.35
      vertex 58.4745 -19.0206 6.35
    endloop
  endfacet
  facet normal 0.969065 -0.246807 0
    outer loop
      vertex 58.6236 -18.5373 6.35
      vertex 58.5611 -18.7827 6.35
      vertex 58.5611 -18.7827 -1.27
    endloop
  endfacet
  facet normal 0 0 -1
    outer loop
      vertex 58.674 -18.034 -6.35
      vertex 58.6614 -18.2869 -6.35
      vertex 58.6236 -18.5373 -6.35
    endloop
  endfacet
  facet normal 0.988797 -0.149267 0
    outer loop
      vertex 58.6236 -18.5373 1.26998
      vertex 58.6236 -18.5373 -6.35
      vertex 58.6614 -18.2869 1.26998
    endloop
  endfacet
  facet normal 0.988797 -0.149267 0
    outer loop
      vertex 58.6614 -18.2869 1.26998
      vertex 58.6614 -18.2869 6.35
      vertex 58.6236 -18.5373 6.35
    endloop
  endfacet
  facet normal 0.998761 -0.0497603 0
    outer loop
      vertex 58.674 -18.034 6.35
      vertex 58.6614 -18.2869 6.35
      vertex 58.6614 -18.2869 1.26998
    endloop
  endfacet
  facet normal 0.853106 -0.521738 0
    outer loop
      vertex 58.2326 -19.4648 6.35
      vertex 58.2326 -19.4648 -6.35
      vertex 58.3647 -19.2488 -6.35
    endloop
  endfacet
  facet normal 0.797386 -0.60347 0
    outer loop
      vertex 58.0798 -19.6667 -6.35
      vertex 58.2326 -19.4648 -6.35
      vertex 58.2326 -19.4648 6.35
    endloop
  endfacet
  facet normal 0 0 1
    outer loop
      vertex -56.943 20.4417 6.35
      vertex -57.6167 20.0963 6.35
      vertex -58.1587 19.5677 6.35
    endloop
  endfacet
  facet normal -0.542613 0.839983 0
    outer loop
      vertex -57.6167 20.0963 6.35
      vertex -57.404 20.2337 6.35
      vertex -57.404 20.2337 -6.35
    endloop
  endfacet
  facet normal -0.62349 0.781831 0
    outer loop
      vertex -57.8147 19.9384 -6.35
      vertex -57.8147 19.9384 6.35
      vertex -57.6167 20.0963 6.35
    endloop
  endfacet
  facet normal 0 0 -1
    outer loop
      vertex -58.1587 19.5677 -6.35
      vertex -57.996 19.7616 -6.35
      vertex -57.8147 19.9384 -6.35
    endloop
  endfacet
  facet normal -0.826236 0.563325 0
    outer loop
      vertex -58.1587 19.5677 -6.35
      vertex -58.3014 19.3584 -6.35
      vertex -58.1587 19.5677 6.35
    endloop
  endfacet
  facet normal 0 0 -1
    outer loop
      vertex -58.6709 18.1606 -6.35
      vertex -58.5955 18.6607 -6.35
      vertex -58.5208 18.9027 -6.35
    endloop
  endfacet
  facet normal 0 0 -1
    outer loop
      vertex -58.5208 18.9027 -6.35
      vertex -58.3014 19.3584 -6.35
      vertex -58.1587 19.5677 -6.35
    endloop
  endfacet
  facet normal 0 0 1
    outer loop
      vertex -58.3014 19.3584 6.35
      vertex -58.4225 19.1361 6.35
      vertex -58.5208 18.9027 6.35
    endloop
  endfacet
  facet normal 0 0 -1
    outer loop
      vertex -58.6709 18.1606 -6.35
      vertex -58.6456 18.4125 -6.35
      vertex -58.5955 18.6607 -6.35
    endloop
  endfacet
  facet normal -0.955514 0.294946 0
    outer loop
      vertex -58.5955 18.6607 -6.35
      vertex -58.5955 18.6607 6.35
      vertex -58.5208 18.9027 6.35
    endloop
  endfacet
  facet normal 0 0 -1
    outer loop
      vertex -56.6992 20.5103 -6.35
      vertex -56.4498 20.5543 -6.35
      vertex -56.1973 20.5732 -6.35
    endloop
  endfacet
  facet normal -0.17374 0.984792 0
    outer loop
      vertex -56.4498 20.5543 6.35
      vertex -56.4498 20.5543 -6.35
      vertex -56.6992 20.5103 -6.35
    endloop
  endfacet
  facet normal 0.0248836 0.99969 0
    outer loop
      vertex 56.0707 20.5732 6.35
      vertex 56.3238 20.5669 6.35
      vertex 56.3238 20.5669 -6.35
    endloop
  endfacet
  facet normal 0 0 1
    outer loop
      vertex 56.575 20.5354 6.35
      vertex 56.3238 20.5669 6.35
      vertex 56.0707 20.5732 6.35
    endloop
  endfacet
  facet normal -0.365322 0.930881 0
    outer loop
      vertex -56.943 20.4417 -6.35
      vertex -57.1787 20.3492 -6.35
      vertex -56.943 20.4417 6.35
    endloop
  endfacet
  facet normal 0 0 -1
    outer loop
      vertex -57.404 20.2337 -6.35
      vertex -57.1787 20.3492 -6.35
      vertex -56.943 20.4417 -6.35
    endloop
  endfacet
  facet normal 0.499962 0.866047 0
    outer loop
      vertex 57.5121 20.1677 -1.27
      vertex 57.5121 20.1677 -6.35
      vertex 57.2928 20.2943 -6.35
    endloop
  endfacet
  facet normal 0.583961 0.811781 0
    outer loop
      vertex 57.7177 20.0198 -6.35
      vertex 57.5121 20.1677 -6.35
      vertex 57.5121 20.1677 -1.27
    endloop
  endfacet
  facet normal 0.732878 0.68036 0
    outer loop
      vertex 58.0798 19.6667 -6.35
      vertex 57.9075 19.8523 -6.35
      vertex 57.9075 19.8523 -1.27
    endloop
  endfacet
  facet normal 0 0 -1
    outer loop
      vertex 57.7177 20.0198 -6.35
      vertex 57.9075 19.8523 -6.35
      vertex 58.0798 19.6667 -6.35
    endloop
  endfacet
  facet normal 0.222321 -0.974974 0
    outer loop
      vertex 56.8219 -20.4791 6.35
      vertex 56.575 -20.5354 6.35
      vertex 56.575 -20.5354 -6.35
    endloop
  endfacet
  facet normal 0 0 -1
    outer loop
      vertex 56.8219 -20.4791 -6.35
      vertex 56.575 -20.5354 -6.35
      vertex 56.3238 -20.5669 -6.35
    endloop
  endfacet
  facet normal 0 0 1
    outer loop
      vertex 56.0707 -20.5732 6.35
      vertex 56.3238 -20.5669 6.35
      vertex 56.8219 -20.4791 6.35
    endloop
  endfacet
  facet normal 0.0248836 -0.99969 0
    outer loop
      vertex 56.3238 -20.5669 -6.35
      vertex 56.3238 -20.5669 6.35
      vertex 56.0707 -20.5732 6.35
    endloop
  endfacet
  facet normal -0.0746427 -0.99721 -0
    outer loop
      vertex -56.1973 -20.5732 6.35
      vertex -56.4498 -20.5543 -6.35
      vertex -56.1973 -20.5732 -6.35
    endloop
  endfacet
  facet normal -0.0746427 -0.99721 0
    outer loop
      vertex -56.1973 -20.5732 6.35
      vertex -56.4498 -20.5543 6.35
      vertex -56.4498 -20.5543 -6.35
    endloop
  endfacet
  facet normal 0 0 1
    outer loop
      vertex -56.943 -20.4417 6.35
      vertex -56.6992 -20.5103 6.35
      vertex -56.1973 -20.5732 6.35
    endloop
  endfacet
  facet normal -0.27086 -0.962619 0
    outer loop
      vertex -56.6992 -20.5103 -6.35
      vertex -56.6992 -20.5103 6.35
      vertex -56.943 -20.4417 6.35
    endloop
  endfacet
  facet normal 0 0 1
    outer loop
      vertex -57.8147 -19.9385 6.35
      vertex -57.6167 -20.0963 6.35
      vertex -57.404 -20.2337 6.35
    endloop
  endfacet
  facet normal -0.456196 -0.889879 0
    outer loop
      vertex -57.404 -20.2337 -6.35
      vertex -57.1787 -20.3492 -6.35
      vertex -57.404 -20.2337 6.35
    endloop
  endfacet
  facet normal -0.623249 -0.782023 0
    outer loop
      vertex -57.8147 -19.9385 -6.35
      vertex -57.6167 -20.0963 -6.35
      vertex -57.8147 -19.9385 6.35
    endloop
  endfacet
  facet normal 0 0 -1
    outer loop
      vertex -57.404 -20.2337 -6.35
      vertex -57.6167 -20.0963 -6.35
      vertex -57.8147 -19.9385 -6.35
    endloop
  endfacet
  facet normal 0 0 -1
    outer loop
      vertex -56.943 -20.4417 -6.35
      vertex -57.1787 -20.3492 -6.35
      vertex -57.404 -20.2337 -6.35
    endloop
  endfacet
  facet normal -0.365322 -0.930881 -0
    outer loop
      vertex -56.943 -20.4417 6.35
      vertex -57.1787 -20.3492 -6.35
      vertex -56.943 -20.4417 -6.35
    endloop
  endfacet
  facet normal 0 0 1
    outer loop
      vertex -58.3014 -19.3584 6.35
      vertex -58.1587 -19.5677 6.35
      vertex -57.996 -19.7616 6.35
    endloop
  endfacet
  facet normal -0.826236 -0.563325 0
    outer loop
      vertex -58.1587 -19.5677 -6.35
      vertex -58.1587 -19.5677 6.35
      vertex -58.3014 -19.3584 6.35
    endloop
  endfacet
  facet normal 0 0 1
    outer loop
      vertex -58.5208 -18.9027 6.35
      vertex -58.4225 -19.1361 6.35
      vertex -58.3014 -19.3584 6.35
    endloop
  endfacet
  facet normal -0.921598 -0.388145 0
    outer loop
      vertex -58.4225 -19.1361 -6.35
      vertex -58.4225 -19.1361 6.35
      vertex -58.5208 -18.9027 6.35
    endloop
  endfacet
  facet normal -0.95548 -0.295057 0
    outer loop
      vertex -58.5208 -18.9027 6.35
      vertex -58.5955 -18.6608 6.35
      vertex -58.5955 -18.6608 -6.35
    endloop
  endfacet
  facet normal 0 0 1
    outer loop
      vertex -58.6456 -18.4126 6.35
      vertex -58.5955 -18.6608 6.35
      vertex -58.5208 -18.9027 6.35
    endloop
  endfacet
  facet normal 0.411153 -0.911566 0
    outer loop
      vertex 57.062 -20.3984 1.26998
      vertex 57.062 -20.3984 -6.35
      vertex 57.2928 -20.2943 -6.35
    endloop
  endfacet
  facet normal 0.318596 -0.947891 0
    outer loop
      vertex 56.8219 -20.4791 -6.35
      vertex 57.062 -20.3984 -6.35
      vertex 57.062 -20.3984 1.26998
    endloop
  endfacet
  facet normal 0 0 1
    outer loop
      vertex 56.8219 -20.4791 6.35
      vertex 57.062 -20.3984 6.35
      vertex 57.2928 -20.2943 6.35
    endloop
  endfacet
  facet normal 0.318596 -0.947891 0
    outer loop
      vertex 57.062 -20.3984 1.26998
      vertex 57.062 -20.3984 6.35
      vertex 56.8219 -20.4791 6.35
    endloop
  endfacet
  facet normal 0 0 -1
    outer loop
      vertex 57.7177 -20.0199 -6.35
      vertex 57.5121 -20.1677 -6.35
      vertex 57.2928 -20.2943 -6.35
    endloop
  endfacet
  facet normal 0.583701 -0.811969 0
    outer loop
      vertex 57.5121 -20.1677 1.26998
      vertex 57.5121 -20.1677 -6.35
      vertex 57.7177 -20.0199 -6.35
    endloop
  endfacet
  facet normal 0 0 1
    outer loop
      vertex 57.2928 -20.2943 6.35
      vertex 57.5121 -20.1677 6.35
      vertex 57.7177 -20.0199 6.35
    endloop
  endfacet
  facet normal 0.499962 -0.866047 0
    outer loop
      vertex 57.5121 -20.1677 1.26998
      vertex 57.5121 -20.1677 6.35
      vertex 57.2928 -20.2943 6.35
    endloop
  endfacet
  facet normal 0.939678 -0.34206 0
    outer loop
      vertex 58.4745 -19.0206 -6.35
      vertex 58.5611 -18.7827 -6.35
      vertex 58.5611 -18.7827 -1.27
    endloop
  endfacet
  facet normal 0 0 -1
    outer loop
      vertex 58.6236 -18.5373 -6.35
      vertex 58.5611 -18.7827 -6.35
      vertex 58.4745 -19.0206 -6.35
    endloop
  endfacet
  facet normal 0.998761 -0.0497603 0
    outer loop
      vertex 58.6614 -18.2869 1.26998
      vertex 58.6614 -18.2869 -6.35
      vertex 58.674 -18.034 -6.35
    endloop
  endfacet
  facet normal 0.988797 -0.149267 0
    outer loop
      vertex 58.6236 -18.5373 -6.35
      vertex 58.6614 -18.2869 -6.35
      vertex 58.6614 -18.2869 1.26998
    endloop
  endfacet
  facet normal -0.456196 0.889879 0
    outer loop
      vertex -57.404 20.2337 6.35
      vertex -57.1787 20.3492 6.35
      vertex -57.1787 20.3492 -6.35
    endloop
  endfacet
  facet normal -0.456196 0.889879 0
    outer loop
      vertex -57.404 20.2337 -6.35
      vertex -57.404 20.2337 6.35
      vertex -57.1787 20.3492 -6.35
    endloop
  endfacet
  facet normal -0.766047 0.642784 0
    outer loop
      vertex -58.1587 19.5677 6.35
      vertex -57.996 19.7616 -1.27
      vertex -58.1587 19.5677 -6.35
    endloop
  endfacet
  facet normal -0.698166 0.715936 0
    outer loop
      vertex -57.996 19.7616 -1.27
      vertex -57.8147 19.9384 6.35
      vertex -57.8147 19.9384 -6.35
    endloop
  endfacet
  facet normal -0.826236 0.563325 0
    outer loop
      vertex -58.3014 19.3584 -6.35
      vertex -58.3014 19.3584 6.35
      vertex -58.1587 19.5677 6.35
    endloop
  endfacet
  facet normal -0.878152 0.478382 0
    outer loop
      vertex -58.3014 19.3584 -6.35
      vertex -58.4225 19.1361 -6.35
      vertex -58.3014 19.3584 6.35
    endloop
  endfacet
  facet normal 0 0 -1
    outer loop
      vertex -58.5208 18.9027 -6.35
      vertex -58.4225 19.1361 -6.35
      vertex -58.3014 19.3584 -6.35
    endloop
  endfacet
  facet normal -0.921598 0.388145 0
    outer loop
      vertex -58.5208 18.9027 6.35
      vertex -58.4225 19.1361 -6.35
      vertex -58.5208 18.9027 -6.35
    endloop
  endfacet
  facet normal -0.994994 0.0999339 0
    outer loop
      vertex -58.6709 18.1606 6.35
      vertex -58.6456 18.4125 -6.35
      vertex -58.6709 18.1606 -6.35
    endloop
  endfacet
  facet normal -0.98023 0.197863 0
    outer loop
      vertex -58.6456 18.4125 -6.35
      vertex -58.5955 18.6607 6.35
      vertex -58.5955 18.6607 -6.35
    endloop
  endfacet
  facet normal -0.994994 0.0999339 0
    outer loop
      vertex -58.6709 18.1606 6.35
      vertex -58.6456 18.4125 6.35
      vertex -58.6456 18.4125 -6.35
    endloop
  endfacet
  facet normal 0 0 1
    outer loop
      vertex -58.5208 18.9027 6.35
      vertex -58.5955 18.6607 6.35
      vertex -58.6709 18.1606 6.35
    endloop
  endfacet
  facet normal 0 0 1
    outer loop
      vertex 56.3238 -20.5669 6.35
      vertex 56.575 -20.5354 6.35
      vertex 56.8219 -20.4791 6.35
    endloop
  endfacet
  facet normal 0.124424 -0.992229 0
    outer loop
      vertex 56.575 -20.5354 -6.35
      vertex 56.575 -20.5354 6.35
      vertex 56.3238 -20.5669 6.35
    endloop
  endfacet
  facet normal 0 0 1
    outer loop
      vertex -56.6992 -20.5103 6.35
      vertex -56.4498 -20.5543 6.35
      vertex -56.1973 -20.5732 6.35
    endloop
  endfacet
  facet normal -0.17374 -0.984792 0
    outer loop
      vertex -56.4498 -20.5543 -6.35
      vertex -56.4498 -20.5543 6.35
      vertex -56.6992 -20.5103 6.35
    endloop
  endfacet
  facet normal -0.623249 -0.782023 0
    outer loop
      vertex -57.6167 -20.0963 -6.35
      vertex -57.6167 -20.0963 6.35
      vertex -57.8147 -19.9385 6.35
    endloop
  endfacet
  facet normal -0.542613 -0.839983 0
    outer loop
      vertex -57.404 -20.2337 6.35
      vertex -57.6167 -20.0963 6.35
      vertex -57.6167 -20.0963 -6.35
    endloop
  endfacet
  facet normal -0.456196 -0.889879 0
    outer loop
      vertex -57.1787 -20.3492 -6.35
      vertex -57.1787 -20.3492 6.35
      vertex -57.404 -20.2337 6.35
    endloop
  endfacet
  facet normal -0.365322 -0.930881 0
    outer loop
      vertex -56.943 -20.4417 6.35
      vertex -57.1787 -20.3492 6.35
      vertex -57.1787 -20.3492 -6.35
    endloop
  endfacet
  facet normal 0 0 1
    outer loop
      vertex -56.943 20.4417 6.35
      vertex -57.1787 20.3492 6.35
      vertex -57.404 20.2337 6.35
    endloop
  endfacet
  facet normal -0.365322 0.930881 0
    outer loop
      vertex -57.1787 20.3492 -6.35
      vertex -57.1787 20.3492 6.35
      vertex -56.943 20.4417 6.35
    endloop
  endfacet
  facet normal -0.766047 0.642784 0
    outer loop
      vertex -58.1587 19.5677 6.35
      vertex -57.996 19.7616 6.35
      vertex -57.996 19.7616 -1.27
    endloop
  endfacet
  facet normal 0 0 1
    outer loop
      vertex -57.6167 20.0963 6.35
      vertex -57.8147 19.9384 6.35
      vertex -58.1587 19.5677 6.35
    endloop
  endfacet
  facet normal -0.766047 0.642784 0
    outer loop
      vertex -57.996 19.7616 -1.27
      vertex -57.996 19.7616 -6.35
      vertex -58.1587 19.5677 -6.35
    endloop
  endfacet
  facet normal -0.698166 0.715936 0
    outer loop
      vertex -57.8147 19.9384 -6.35
      vertex -57.996 19.7616 -6.35
      vertex -57.996 19.7616 -1.27
    endloop
  endfacet
  facet normal -0.878152 0.478382 0
    outer loop
      vertex -58.4225 19.1361 -6.35
      vertex -58.4225 19.1361 6.35
      vertex -58.3014 19.3584 6.35
    endloop
  endfacet
  facet normal -0.921598 0.388145 0
    outer loop
      vertex -58.5208 18.9027 6.35
      vertex -58.4225 19.1361 6.35
      vertex -58.4225 19.1361 -6.35
    endloop
  endfacet
  facet normal 0 0 1
    outer loop
      vertex -58.5955 18.6607 6.35
      vertex -58.6456 18.4125 6.35
      vertex -58.6709 18.1606 6.35
    endloop
  endfacet
  facet normal -0.98023 0.197863 0
    outer loop
      vertex -58.6456 18.4125 -6.35
      vertex -58.6456 18.4125 6.35
      vertex -58.5955 18.6607 6.35
    endloop
  endfacet
  facet normal 0 0 1
    outer loop
      vertex -57.8147 19.9384 6.35
      vertex -57.996 19.7616 6.35
      vertex -58.1587 19.5677 6.35
    endloop
  endfacet
  facet normal -0.698166 0.715936 0
    outer loop
      vertex -57.996 19.7616 -1.27
      vertex -57.996 19.7616 6.35
      vertex -57.8147 19.9384 6.35
    endloop
  endfacet
endsolid OpenSCAD_Model
