solid OpenSCAD_Model
  facet normal -0 0 1
    outer loop
      vertex -45.1147 -32.6385 6.35
      vertex 44.8121 -32.8677 6.35
      vertex 45.6647 31.9488 6.35
    endloop
  endfacet
  facet normal 0 0 1
    outer loop
      vertex -44.9167 32.7963 6.35
      vertex -45.9709 30.8606 6.35
      vertex -45.1147 -32.6385 6.35
    endloop
  endfacet
  facet normal 0.124424 0.992229 0
    outer loop
      vertex 43.875 33.2354 -1.27
      vertex 43.6238 33.2669 -6.35
      vertex 43.6238 33.2669 1.26998
    endloop
  endfacet
  facet normal 0 0 1
    outer loop
      vertex 45.6647 31.9488 6.35
      vertex 44.5928 32.9943 6.35
      vertex -45.1147 -32.6385 6.35
    endloop
  endfacet
  facet normal 0.0248836 0.99969 0
    outer loop
      vertex 43.3707 33.2732 6.35
      vertex 43.6238 33.2669 6.35
      vertex 43.6238 33.2669 1.26998
    endloop
  endfacet
  facet normal 0 0 1
    outer loop
      vertex 45.974 30.734 6.35
      vertex 45.9236 31.2373 6.35
      vertex 45.6647 31.9488 6.35
    endloop
  endfacet
  facet normal 0 0 1
    outer loop
      vertex 44.5928 32.9943 6.35
      vertex -44.9167 32.7963 6.35
      vertex -45.1147 -32.6385 6.35
    endloop
  endfacet
  facet normal 0 0 1
    outer loop
      vertex -43.4973 33.2732 6.35
      vertex -44.243 33.1417 6.35
      vertex -44.9167 32.7963 6.35
    endloop
  endfacet
  facet normal 0 0 -1
    outer loop
      vertex -45.9709 30.8606 -6.35
      vertex 44.8121 32.8676 -6.35
      vertex 45.2075 32.5523 -6.35
    endloop
  endfacet
  facet normal 0 0 1
    outer loop
      vertex 44.8121 -32.8677 6.35
      vertex 45.974 -30.734 6.35
      vertex 45.6647 31.9488 6.35
    endloop
  endfacet
  facet normal 0.500258 0.865876 0
    outer loop
      vertex 44.8121 32.8676 -6.35
      vertex 44.5928 32.9943 -1.27
      vertex 44.5928 32.9943 6.35
    endloop
  endfacet
  facet normal 0.661687 0.74978 -0
    outer loop
      vertex 45.2075 32.5523 -6.35
      vertex 45.0177 32.7198 6.35
      vertex 45.2075 32.5523 6.35
    endloop
  endfacet
  facet normal 0 0 1
    outer loop
      vertex 45.2075 32.5523 6.35
      vertex 45.0177 32.7198 6.35
      vertex 44.5928 32.9943 6.35
    endloop
  endfacet
  facet normal 0 0 1
    outer loop
      vertex 45.6647 31.9488 6.35
      vertex 45.2075 32.5523 6.35
      vertex 44.5928 32.9943 6.35
    endloop
  endfacet
  facet normal 0 0 1
    outer loop
      vertex 44.5928 32.9943 6.35
      vertex 43.3707 33.2732 6.35
      vertex -44.9167 32.7963 6.35
    endloop
  endfacet
  facet normal 0 0 1
    outer loop
      vertex 44.5928 32.9943 6.35
      vertex 43.875 33.2354 6.35
      vertex 43.3707 33.2732 6.35
    endloop
  endfacet
  facet normal 0 0 -1
    outer loop
      vertex 44.8121 -32.8677 -6.35
      vertex -44.9167 -32.7963 -6.35
      vertex -45.9709 30.8606 -6.35
    endloop
  endfacet
  facet normal 0 0 -1
    outer loop
      vertex 45.974 -30.734 -6.35
      vertex 45.6647 -31.9488 -6.35
      vertex 44.8121 -32.8677 -6.35
    endloop
  endfacet
  facet normal 0 0 -1
    outer loop
      vertex 44.8121 -32.8677 -6.35
      vertex -45.9709 30.8606 -6.35
      vertex 45.2075 32.5523 -6.35
    endloop
  endfacet
  facet normal -1 0 0
    outer loop
      vertex -45.9709 30.8606 -6.35
      vertex -45.9709 -30.8606 6.35
      vertex -45.9709 30.8606 6.35
    endloop
  endfacet
  facet normal 0 -0 -1
    outer loop
      vertex 45.2075 32.5523 -6.35
      vertex 45.974 -30.734 -6.35
      vertex 44.8121 -32.8677 -6.35
    endloop
  endfacet
  facet normal 0 -0 1
    outer loop
      vertex 45.974 -30.734 6.35
      vertex 45.974 30.734 6.35
      vertex 45.6647 31.9488 6.35
    endloop
  endfacet
  facet normal 0.411153 0.911566 -0
    outer loop
      vertex 44.362 33.0984 -1.27
      vertex 44.362 33.0984 1.26998
      vertex 44.5928 32.9943 6.35
    endloop
  endfacet
  facet normal 0.124424 0.992229 0
    outer loop
      vertex 43.875 33.2354 6.35
      vertex 43.875 33.2354 -1.27
      vertex 43.6238 33.2669 1.26998
    endloop
  endfacet
  facet normal 0.411153 0.911566 0
    outer loop
      vertex 44.5928 32.9943 -1.27
      vertex 44.5928 32.9943 -6.35
      vertex 44.362 33.0984 -6.35
    endloop
  endfacet
  facet normal 0.222696 0.974888 0
    outer loop
      vertex 44.1219 33.179 1.26998
      vertex 44.1219 33.179 -6.35
      vertex 43.875 33.2354 -1.27
    endloop
  endfacet
  facet normal 0.733075 0.680148 0
    outer loop
      vertex 45.2075 32.5523 6.35
      vertex 45.3797 32.3667 6.35
      vertex 45.2075 32.5523 -6.35
    endloop
  endfacet
  facet normal 0 0 1
    outer loop
      vertex 45.6647 31.9488 6.35
      vertex 45.3797 32.3667 6.35
      vertex 45.2075 32.5523 6.35
    endloop
  endfacet
  facet normal 0.499962 -0.866047 0
    outer loop
      vertex 44.8121 -32.8677 6.35
      vertex 44.5928 -32.9943 6.35
      vertex 44.8121 -32.8677 -6.35
    endloop
  endfacet
  facet normal 0 0 1
    outer loop
      vertex -45.1147 -32.6385 6.35
      vertex -43.4973 -33.2732 6.35
      vertex 44.8121 -32.8677 6.35
    endloop
  endfacet
  facet normal 0 0 -1
    outer loop
      vertex -45.9709 30.8606 -6.35
      vertex -45.1147 32.6384 -6.35
      vertex -43.4973 33.2732 -6.35
    endloop
  endfacet
  facet normal 0 0 1
    outer loop
      vertex -45.9709 30.8606 6.35
      vertex -45.9709 -30.8606 6.35
      vertex -45.1147 -32.6385 6.35
    endloop
  endfacet
  facet normal 0.499962 -0.866047 0
    outer loop
      vertex 44.5928 -32.9943 6.35
      vertex 44.5928 -32.9943 -6.35
      vertex 44.8121 -32.8677 -6.35
    endloop
  endfacet
  facet normal -0.623249 -0.782023 0
    outer loop
      vertex -44.9167 -32.7963 -6.35
      vertex -44.9167 -32.7963 6.35
      vertex -45.1147 -32.6385 6.35
    endloop
  endfacet
  facet normal 0.998761 -0.0497603 0
    outer loop
      vertex 45.974 -30.734 6.35
      vertex 45.9614 -30.9869 -6.35
      vertex 45.974 -30.734 -6.35
    endloop
  endfacet
  facet normal 1 0 0
    outer loop
      vertex 45.974 -30.734 -6.35
      vertex 45.974 30.734 -6.35
      vertex 45.974 -30.734 6.35
    endloop
  endfacet
  facet normal 0.853106 -0.521738 0
    outer loop
      vertex 45.6647 -31.9488 6.35
      vertex 45.5326 -32.1648 -6.35
      vertex 45.6647 -31.9488 -6.35
    endloop
  endfacet
  facet normal 0 0 -1
    outer loop
      vertex 45.6647 -31.9488 -6.35
      vertex 45.3797 -32.3667 -6.35
      vertex 44.8121 -32.8677 -6.35
    endloop
  endfacet
  facet normal 0 0 -1
    outer loop
      vertex 45.2075 32.5523 -6.35
      vertex 45.974 30.734 -6.35
      vertex 45.974 -30.734 -6.35
    endloop
  endfacet
  facet normal 0.998761 0.0497603 0
    outer loop
      vertex 45.974 30.734 -6.35
      vertex 45.9614 30.9869 -6.35
      vertex 45.9614 30.9869 -1.27
    endloop
  endfacet
  facet normal 0.318241 0.94801 0
    outer loop
      vertex 44.1219 33.179 1.26998
      vertex 44.362 33.0984 1.26998
      vertex 44.362 33.0984 -1.27
    endloop
  endfacet
  facet normal 0.222696 0.974888 0
    outer loop
      vertex 44.1219 33.179 1.26998
      vertex 43.875 33.2354 -1.27
      vertex 43.875 33.2354 6.35
    endloop
  endfacet
  facet normal 0.411153 0.911566 -0
    outer loop
      vertex 44.362 33.0984 1.26998
      vertex 44.362 33.0984 6.35
      vertex 44.5928 32.9943 6.35
    endloop
  endfacet
  facet normal 0.318241 0.94801 -0
    outer loop
      vertex 44.1219 33.179 1.26998
      vertex 44.1219 33.179 6.35
      vertex 44.362 33.0984 1.26998
    endloop
  endfacet
  facet normal 0.318241 0.94801 0
    outer loop
      vertex 44.362 33.0984 -1.27
      vertex 44.1219 33.179 -6.35
      vertex 44.1219 33.179 1.26998
    endloop
  endfacet
  facet normal 0 0 -1
    outer loop
      vertex -45.9709 30.8606 -6.35
      vertex -43.4973 33.2732 -6.35
      vertex 44.8121 32.8676 -6.35
    endloop
  endfacet
  facet normal 0.411153 0.911566 0
    outer loop
      vertex 44.5928 32.9943 -1.27
      vertex 44.362 33.0984 -6.35
      vertex 44.362 33.0984 -1.27
    endloop
  endfacet
  facet normal 0.411153 0.911566 0
    outer loop
      vertex 44.5928 32.9943 6.35
      vertex 44.5928 32.9943 -1.27
      vertex 44.362 33.0984 -1.27
    endloop
  endfacet
  facet normal 0 0 -1
    outer loop
      vertex 44.8121 32.8676 -6.35
      vertex 45.0177 32.7198 -6.35
      vertex 45.2075 32.5523 -6.35
    endloop
  endfacet
  facet normal 0 0 1
    outer loop
      vertex 45.0177 32.7198 6.35
      vertex 44.8121 32.8676 6.35
      vertex 44.5928 32.9943 6.35
    endloop
  endfacet
  facet normal 0 0 1
    outer loop
      vertex 43.3707 33.2732 6.35
      vertex -43.4973 33.2732 6.35
      vertex -44.9167 32.7963 6.35
    endloop
  endfacet
  facet normal 0 0 -1
    outer loop
      vertex -43.4973 33.2732 -6.35
      vertex 43.6238 33.2669 -6.35
      vertex 44.1219 33.179 -6.35
    endloop
  endfacet
  facet normal 0.733075 0.680148 0
    outer loop
      vertex 45.3797 32.3667 6.35
      vertex 45.3797 32.3667 -1.27
      vertex 45.2075 32.5523 -6.35
    endloop
  endfacet
  facet normal 0.733075 0.680148 0
    outer loop
      vertex 45.3797 32.3667 -1.27
      vertex 45.3797 32.3667 -6.35
      vertex 45.2075 32.5523 -6.35
    endloop
  endfacet
  facet normal 0 0 1
    outer loop
      vertex -43.4973 -33.2732 6.35
      vertex 43.3707 -33.2732 6.35
      vertex 44.8121 -32.8677 6.35
    endloop
  endfacet
  facet normal 0 -1 0
    outer loop
      vertex -43.4973 -33.2732 6.35
      vertex -43.4973 -33.2732 -6.35
      vertex 43.3707 -33.2732 6.35
    endloop
  endfacet
  facet normal -0.994994 0.0999339 0
    outer loop
      vertex -45.9709 30.8606 6.35
      vertex -45.9456 31.1125 1.26998
      vertex -45.9709 30.8606 -6.35
    endloop
  endfacet
  facet normal 0 0 1
    outer loop
      vertex -44.9167 32.7963 6.35
      vertex -45.6014 32.0584 6.35
      vertex -45.9709 30.8606 6.35
    endloop
  endfacet
  facet normal 0 0 1
    outer loop
      vertex -45.9709 -30.8606 6.35
      vertex -45.7225 -31.8361 6.35
      vertex -45.1147 -32.6385 6.35
    endloop
  endfacet
  facet normal -1 0 0
    outer loop
      vertex -45.9709 30.8606 -6.35
      vertex -45.9709 -30.8606 -6.35
      vertex -45.9709 -30.8606 6.35
    endloop
  endfacet
  facet normal -0.542613 -0.839983 0
    outer loop
      vertex -44.9167 -32.7963 -6.35
      vertex -44.704 -32.9337 -6.35
      vertex -44.704 -32.9337 6.35
    endloop
  endfacet
  facet normal -0 0 -1
    outer loop
      vertex 44.8121 -32.8677 -6.35
      vertex -43.4973 -33.2732 -6.35
      vertex -44.9167 -32.7963 -6.35
    endloop
  endfacet
  facet normal 0 0 -1
    outer loop
      vertex -43.4973 -33.2732 -6.35
      vertex -43.9992 -33.2103 -6.35
      vertex -44.243 -33.1417 -6.35
    endloop
  endfacet
  facet normal 0 0 1
    outer loop
      vertex -45.1147 -32.6385 6.35
      vertex -44.243 -33.1417 6.35
      vertex -43.4973 -33.2732 6.35
    endloop
  endfacet
  facet normal 0 0 -1
    outer loop
      vertex 45.9236 -31.2373 -6.35
      vertex 45.7745 -31.7206 -6.35
      vertex 45.6647 -31.9488 -6.35
    endloop
  endfacet
  facet normal 0 0 -1
    outer loop
      vertex 45.974 -30.734 -6.35
      vertex 45.9236 -31.2373 -6.35
      vertex 45.6647 -31.9488 -6.35
    endloop
  endfacet
  facet normal 0.998761 -0.0497603 0
    outer loop
      vertex 45.974 -30.734 6.35
      vertex 45.9614 -30.9869 6.35
      vertex 45.9614 -30.9869 -6.35
    endloop
  endfacet
  facet normal 0 0 1
    outer loop
      vertex 44.8121 -32.8677 6.35
      vertex 45.6647 -31.9488 6.35
      vertex 45.974 -30.734 6.35
    endloop
  endfacet
  facet normal 0.661909 -0.749584 0
    outer loop
      vertex 45.2075 -32.5523 -6.35
      vertex 45.0177 -32.7199 6.35
      vertex 45.0177 -32.7199 -6.35
    endloop
  endfacet
  facet normal 0 0 -1
    outer loop
      vertex 45.3797 -32.3667 -6.35
      vertex 45.0177 -32.7199 -6.35
      vertex 44.8121 -32.8677 -6.35
    endloop
  endfacet
  facet normal 1 0 -0
    outer loop
      vertex 45.974 30.734 -6.35
      vertex 45.974 30.734 6.35
      vertex 45.974 -30.734 6.35
    endloop
  endfacet
  facet normal 0 0 -1
    outer loop
      vertex 45.2075 32.5523 -6.35
      vertex 45.7745 31.7206 -6.35
      vertex 45.974 30.734 -6.35
    endloop
  endfacet
  facet normal 0 0 1
    outer loop
      vertex 43.875 33.2354 6.35
      vertex 43.6238 33.2669 6.35
      vertex 43.3707 33.2732 6.35
    endloop
  endfacet
  facet normal 0.124424 0.992229 -0
    outer loop
      vertex 43.6238 33.2669 1.26998
      vertex 43.6238 33.2669 6.35
      vertex 43.875 33.2354 6.35
    endloop
  endfacet
  facet normal 0.222696 0.974888 0
    outer loop
      vertex 43.875 33.2354 6.35
      vertex 44.1219 33.179 6.35
      vertex 44.1219 33.179 1.26998
    endloop
  endfacet
  facet normal 0 0 1
    outer loop
      vertex 44.5928 32.9943 6.35
      vertex 44.1219 33.179 6.35
      vertex 43.875 33.2354 6.35
    endloop
  endfacet
  facet normal 0 0 -1
    outer loop
      vertex -43.4973 33.2732 -6.35
      vertex 44.1219 33.179 -6.35
      vertex 44.8121 32.8676 -6.35
    endloop
  endfacet
  facet normal 0.124424 0.992229 0
    outer loop
      vertex 43.875 33.2354 -1.27
      vertex 43.875 33.2354 -6.35
      vertex 43.6238 33.2669 -6.35
    endloop
  endfacet
  facet normal 0.583701 0.811969 0
    outer loop
      vertex 45.0177 32.7198 6.35
      vertex 45.0177 32.7198 -6.35
      vertex 44.8121 32.8676 -6.35
    endloop
  endfacet
  facet normal 0.661687 0.74978 0
    outer loop
      vertex 45.2075 32.5523 -6.35
      vertex 45.0177 32.7198 -6.35
      vertex 45.0177 32.7198 6.35
    endloop
  endfacet
  facet normal 0.583701 0.811969 -0
    outer loop
      vertex 44.8121 32.8676 -6.35
      vertex 44.8121 32.8676 6.35
      vertex 45.0177 32.7198 6.35
    endloop
  endfacet
  facet normal 0.500258 0.865876 0
    outer loop
      vertex 44.5928 32.9943 6.35
      vertex 44.8121 32.8676 6.35
      vertex 44.8121 32.8676 -6.35
    endloop
  endfacet
  facet normal 0 0 1
    outer loop
      vertex -45.6014 32.0584 6.35
      vertex -45.8208 31.6027 6.35
      vertex -45.9709 30.8606 6.35
    endloop
  endfacet
  facet normal -0.62349 0.781831 0
    outer loop
      vertex -45.1147 32.6384 -6.35
      vertex -45.1147 32.6384 6.35
      vertex -44.9167 32.7963 6.35
    endloop
  endfacet
  facet normal 0 1 0
    outer loop
      vertex -43.4973 33.2732 -6.35
      vertex -43.4973 33.2732 6.35
      vertex 43.3707 33.2732 6.35
    endloop
  endfacet
  facet normal -0.0746427 0.99721 0
    outer loop
      vertex -43.4973 33.2732 -6.35
      vertex -43.7498 33.2543 -6.35
      vertex -43.4973 33.2732 6.35
    endloop
  endfacet
  facet normal 0.901116 0.433578 0
    outer loop
      vertex 45.7745 31.7206 -6.35
      vertex 45.6647 31.9488 -6.35
      vertex 45.6647 31.9488 6.35
    endloop
  endfacet
  facet normal 0 0 -1
    outer loop
      vertex 45.2075 32.5523 -6.35
      vertex 45.5326 32.1648 -6.35
      vertex 45.7745 31.7206 -6.35
    endloop
  endfacet
  facet normal 0.797196 0.603721 0
    outer loop
      vertex 45.3797 32.3667 6.35
      vertex 45.5326 32.1648 6.35
      vertex 45.3797 32.3667 -1.27
    endloop
  endfacet
  facet normal 0 0 1
    outer loop
      vertex 45.6647 31.9488 6.35
      vertex 45.5326 32.1648 6.35
      vertex 45.3797 32.3667 6.35
    endloop
  endfacet
  facet normal 0 0 1
    outer loop
      vertex 43.3707 -33.2732 6.35
      vertex 44.1219 -33.1791 6.35
      vertex 44.8121 -32.8677 6.35
    endloop
  endfacet
  facet normal 0 0 1
    outer loop
      vertex 43.3707 -33.2732 6.35
      vertex 43.6238 -33.2669 6.35
      vertex 44.1219 -33.1791 6.35
    endloop
  endfacet
  facet normal -0.98023 0.197863 0
    outer loop
      vertex -45.8955 31.3607 1.26998
      vertex -45.9456 31.1125 -6.35
      vertex -45.9456 31.1125 1.26998
    endloop
  endfacet
  facet normal -0.994994 0.0999339 0
    outer loop
      vertex -45.9709 30.8606 6.35
      vertex -45.9456 31.1125 6.35
      vertex -45.9456 31.1125 1.26998
    endloop
  endfacet
  facet normal 0 0 -1
    outer loop
      vertex -44.9167 -32.7963 -6.35
      vertex -45.9709 -30.8606 -6.35
      vertex -45.9709 30.8606 -6.35
    endloop
  endfacet
  facet normal 0 0 1
    outer loop
      vertex -45.9709 -30.8606 6.35
      vertex -45.8955 -31.3608 6.35
      vertex -45.7225 -31.8361 6.35
    endloop
  endfacet
  facet normal 0 -1 0
    outer loop
      vertex -43.4973 -33.2732 -6.35
      vertex 43.3707 -33.2732 -6.35
      vertex 43.3707 -33.2732 6.35
    endloop
  endfacet
  facet normal 0 0 -1
    outer loop
      vertex 44.8121 -32.8677 -6.35
      vertex 43.3707 -33.2732 -6.35
      vertex -43.4973 -33.2732 -6.35
    endloop
  endfacet
  facet normal 0 0 -1
    outer loop
      vertex -43.4973 -33.2732 -6.35
      vertex -44.243 -33.1417 -6.35
      vertex -44.9167 -32.7963 -6.35
    endloop
  endfacet
  facet normal 0 0 1
    outer loop
      vertex -45.1147 -32.6385 6.35
      vertex -44.704 -32.9337 6.35
      vertex -44.243 -33.1417 6.35
    endloop
  endfacet
  facet normal -0.17374 -0.984792 0
    outer loop
      vertex -43.9992 -33.2103 -6.35
      vertex -43.7498 -33.2543 6.35
      vertex -43.9992 -33.2103 6.35
    endloop
  endfacet
  facet normal -0.456196 -0.889879 0
    outer loop
      vertex -44.704 -32.9337 -6.35
      vertex -44.4787 -33.0492 6.35
      vertex -44.704 -32.9337 6.35
    endloop
  endfacet
  facet normal 0 0 1
    outer loop
      vertex -44.243 -33.1417 6.35
      vertex -43.9992 -33.2103 6.35
      vertex -43.4973 -33.2732 6.35
    endloop
  endfacet
  facet normal -0.27086 -0.962619 0
    outer loop
      vertex -44.243 -33.1417 -6.35
      vertex -43.9992 -33.2103 6.35
      vertex -44.243 -33.1417 6.35
    endloop
  endfacet
  facet normal 0.969065 -0.246807 0
    outer loop
      vertex 45.9236 -31.2373 6.35
      vertex 45.8611 -31.4827 -6.35
      vertex 45.9236 -31.2373 -6.35
    endloop
  endfacet
  facet normal 0 0 -1
    outer loop
      vertex 45.974 -30.734 -6.35
      vertex 45.9614 -30.9869 -6.35
      vertex 45.9236 -31.2373 -6.35
    endloop
  endfacet
  facet normal 0 0 1
    outer loop
      vertex 45.6647 -31.9488 6.35
      vertex 45.9236 -31.2373 6.35
      vertex 45.974 -30.734 6.35
    endloop
  endfacet
  facet normal 0.901116 -0.433578 0
    outer loop
      vertex 45.6647 -31.9488 -6.35
      vertex 45.7745 -31.7206 -6.35
      vertex 45.6647 -31.9488 6.35
    endloop
  endfacet
  facet normal 0 0 -1
    outer loop
      vertex 45.9236 -31.2373 -6.35
      vertex 45.8611 -31.4827 -6.35
      vertex 45.7745 -31.7206 -6.35
    endloop
  endfacet
  facet normal 0.988797 -0.149267 0
    outer loop
      vertex 45.9614 -30.9869 -6.35
      vertex 45.9236 -31.2373 6.35
      vertex 45.9236 -31.2373 -6.35
    endloop
  endfacet
  facet normal 0.797196 -0.603721 0
    outer loop
      vertex 45.5326 -32.1648 -6.35
      vertex 45.3797 -32.3667 6.35
      vertex 45.3797 -32.3667 -6.35
    endloop
  endfacet
  facet normal 0 0 -1
    outer loop
      vertex 45.6647 -31.9488 -6.35
      vertex 45.5326 -32.1648 -6.35
      vertex 45.3797 -32.3667 -6.35
    endloop
  endfacet
  facet normal 0.853106 -0.521738 0
    outer loop
      vertex 45.6647 -31.9488 6.35
      vertex 45.5326 -32.1648 6.35
      vertex 45.5326 -32.1648 -6.35
    endloop
  endfacet
  facet normal 0 0 1
    outer loop
      vertex 44.8121 -32.8677 6.35
      vertex 45.3797 -32.3667 6.35
      vertex 45.6647 -31.9488 6.35
    endloop
  endfacet
  facet normal 0.583701 -0.811969 0
    outer loop
      vertex 45.0177 -32.7199 -6.35
      vertex 45.0177 -32.7199 6.35
      vertex 44.8121 -32.8677 6.35
    endloop
  endfacet
  facet normal 0.583701 -0.811969 0
    outer loop
      vertex 44.8121 -32.8677 -6.35
      vertex 45.0177 -32.7199 -6.35
      vertex 44.8121 -32.8677 6.35
    endloop
  endfacet
  facet normal 0.318241 0.94801 0
    outer loop
      vertex 44.1219 33.179 6.35
      vertex 44.362 33.0984 6.35
      vertex 44.362 33.0984 1.26998
    endloop
  endfacet
  facet normal 0 0 1
    outer loop
      vertex 44.5928 32.9943 6.35
      vertex 44.362 33.0984 6.35
      vertex 44.1219 33.179 6.35
    endloop
  endfacet
  facet normal 0.0248836 0.99969 0
    outer loop
      vertex 43.6238 33.2669 -6.35
      vertex 43.3707 33.2732 -6.35
      vertex 43.3707 33.2732 6.35
    endloop
  endfacet
  facet normal 0.0248836 0.99969 0
    outer loop
      vertex 43.6238 33.2669 1.26998
      vertex 43.6238 33.2669 -6.35
      vertex 43.3707 33.2732 6.35
    endloop
  endfacet
  facet normal 0 0 -1
    outer loop
      vertex 44.1219 33.179 -6.35
      vertex 44.362 33.0984 -6.35
      vertex 44.8121 32.8676 -6.35
    endloop
  endfacet
  facet normal 0.318241 0.94801 0
    outer loop
      vertex 44.362 33.0984 -1.27
      vertex 44.362 33.0984 -6.35
      vertex 44.1219 33.179 -6.35
    endloop
  endfacet
  facet normal 0 0 -1
    outer loop
      vertex -45.1147 32.6384 -6.35
      vertex -44.243 33.1417 -6.35
      vertex -43.4973 33.2732 -6.35
    endloop
  endfacet
  facet normal 0 0 1
    outer loop
      vertex -44.243 33.1417 6.35
      vertex -44.704 32.9337 6.35
      vertex -44.9167 32.7963 6.35
    endloop
  endfacet
  facet normal -0.698166 0.715936 0
    outer loop
      vertex -45.1147 32.6384 -6.35
      vertex -45.296 32.4616 1.26998
      vertex -45.296 32.4616 6.35
    endloop
  endfacet
  facet normal 0 0 1
    outer loop
      vertex -44.9167 32.7963 6.35
      vertex -45.296 32.4616 6.35
      vertex -45.6014 32.0584 6.35
    endloop
  endfacet
  facet normal 0.988797 0.149267 0
    outer loop
      vertex 45.9236 31.2373 6.35
      vertex 45.9614 30.9869 6.35
      vertex 45.9614 30.9869 -1.27
    endloop
  endfacet
  facet normal 0 0 1
    outer loop
      vertex 45.9236 31.2373 6.35
      vertex 45.7745 31.7206 6.35
      vertex 45.6647 31.9488 6.35
    endloop
  endfacet
  facet normal 0.797196 0.603721 0
    outer loop
      vertex 45.5326 32.1648 6.35
      vertex 45.5326 32.1648 -6.35
      vertex 45.3797 32.3667 -1.27
    endloop
  endfacet
  facet normal 0.853106 0.521738 0
    outer loop
      vertex 45.6647 31.9488 6.35
      vertex 45.5326 32.1648 -6.35
      vertex 45.5326 32.1648 6.35
    endloop
  endfacet
  facet normal 0 0 1
    outer loop
      vertex 44.1219 -33.1791 6.35
      vertex 44.5928 -32.9943 6.35
      vertex 44.8121 -32.8677 6.35
    endloop
  endfacet
  facet normal 0.411153 -0.911566 0
    outer loop
      vertex 44.5928 -32.9943 6.35
      vertex 44.362 -33.0984 6.35
      vertex 44.5928 -32.9943 -6.35
    endloop
  endfacet
  facet normal 0 0 -1
    outer loop
      vertex -45.9456 31.1125 -6.35
      vertex -45.8208 31.6027 -6.35
      vertex -45.7225 31.8361 -6.35
    endloop
  endfacet
  facet normal -0.921598 0.388145 0
    outer loop
      vertex -45.8208 31.6027 6.35
      vertex -45.7225 31.8361 6.35
      vertex -45.7225 31.8361 -6.35
    endloop
  endfacet
  facet normal 0 0 1
    outer loop
      vertex -45.7225 -31.8361 6.35
      vertex -45.4587 -32.2677 6.35
      vertex -45.1147 -32.6385 6.35
    endloop
  endfacet
  facet normal -0.878152 -0.478382 0
    outer loop
      vertex -45.7225 -31.8361 1.26998
      vertex -45.6014 -32.0584 -6.35
      vertex -45.7225 -31.8361 6.35
    endloop
  endfacet
  facet normal 0.0248836 -0.99969 0
    outer loop
      vertex 43.3707 -33.2732 -6.35
      vertex 43.6238 -33.2669 6.35
      vertex 43.3707 -33.2732 6.35
    endloop
  endfacet
  facet normal 0 0 -1
    outer loop
      vertex 44.8121 -32.8677 -6.35
      vertex 44.1219 -33.1791 -6.35
      vertex 43.3707 -33.2732 -6.35
    endloop
  endfacet
  facet normal 0 0 -1
    outer loop
      vertex 44.1219 -33.1791 -6.35
      vertex 43.6238 -33.2669 -6.35
      vertex 43.3707 -33.2732 -6.35
    endloop
  endfacet
  facet normal 0 0 -1
    outer loop
      vertex 44.1219 -33.1791 -6.35
      vertex 43.875 -33.2354 -6.35
      vertex 43.6238 -33.2669 -6.35
    endloop
  endfacet
  facet normal -0.542613 -0.839983 0
    outer loop
      vertex -44.704 -32.9337 6.35
      vertex -44.9167 -32.7963 6.35
      vertex -44.9167 -32.7963 -6.35
    endloop
  endfacet
  facet normal 0 0 1
    outer loop
      vertex -45.1147 -32.6385 6.35
      vertex -44.9167 -32.7963 6.35
      vertex -44.704 -32.9337 6.35
    endloop
  endfacet
  facet normal 0 0 -1
    outer loop
      vertex -44.243 -33.1417 -6.35
      vertex -44.704 -32.9337 -6.35
      vertex -44.9167 -32.7963 -6.35
    endloop
  endfacet
  facet normal -0.365322 -0.930881 -0
    outer loop
      vertex -44.4787 -33.0492 6.35
      vertex -44.4787 -33.0492 -6.35
      vertex -44.243 -33.1417 -6.35
    endloop
  endfacet
  facet normal -0.365322 -0.930881 -0
    outer loop
      vertex -44.243 -33.1417 6.35
      vertex -44.4787 -33.0492 6.35
      vertex -44.243 -33.1417 -6.35
    endloop
  endfacet
  facet normal 0 0 1
    outer loop
      vertex -44.704 -32.9337 6.35
      vertex -44.4787 -33.0492 6.35
      vertex -44.243 -33.1417 6.35
    endloop
  endfacet
  facet normal 0 0 -1
    outer loop
      vertex -43.4973 -33.2732 -6.35
      vertex -43.7498 -33.2543 -6.35
      vertex -43.9992 -33.2103 -6.35
    endloop
  endfacet
  facet normal -0.27086 -0.962619 0
    outer loop
      vertex -44.243 -33.1417 -6.35
      vertex -43.9992 -33.2103 -6.35
      vertex -43.9992 -33.2103 6.35
    endloop
  endfacet
  facet normal -0.0746427 -0.99721 -0
    outer loop
      vertex -43.4973 -33.2732 6.35
      vertex -43.7498 -33.2543 6.35
      vertex -43.4973 -33.2732 -6.35
    endloop
  endfacet
  facet normal 0 0 1
    outer loop
      vertex -43.9992 -33.2103 6.35
      vertex -43.7498 -33.2543 6.35
      vertex -43.4973 -33.2732 6.35
    endloop
  endfacet
  facet normal 0 0 1
    outer loop
      vertex 45.9236 -31.2373 6.35
      vertex 45.9614 -30.9869 6.35
      vertex 45.974 -30.734 6.35
    endloop
  endfacet
  facet normal 0.988797 -0.149267 0
    outer loop
      vertex 45.9614 -30.9869 -6.35
      vertex 45.9614 -30.9869 6.35
      vertex 45.9236 -31.2373 6.35
    endloop
  endfacet
  facet normal 0 0 1
    outer loop
      vertex 45.6647 -31.9488 6.35
      vertex 45.7745 -31.7206 6.35
      vertex 45.9236 -31.2373 6.35
    endloop
  endfacet
  facet normal 0.901116 -0.433578 0
    outer loop
      vertex 45.7745 -31.7206 -6.35
      vertex 45.7745 -31.7206 6.35
      vertex 45.6647 -31.9488 6.35
    endloop
  endfacet
  facet normal 0 0 1
    outer loop
      vertex 45.7745 -31.7206 6.35
      vertex 45.8611 -31.4827 6.35
      vertex 45.9236 -31.2373 6.35
    endloop
  endfacet
  facet normal 0.939678 -0.34206 0
    outer loop
      vertex 45.7745 -31.7206 -6.35
      vertex 45.8611 -31.4827 -6.35
      vertex 45.7745 -31.7206 6.35
    endloop
  endfacet
  facet normal 0 0 1
    outer loop
      vertex 45.3797 -32.3667 6.35
      vertex 45.5326 -32.1648 6.35
      vertex 45.6647 -31.9488 6.35
    endloop
  endfacet
  facet normal 0.797196 -0.603721 0
    outer loop
      vertex 45.5326 -32.1648 -6.35
      vertex 45.5326 -32.1648 6.35
      vertex 45.3797 -32.3667 6.35
    endloop
  endfacet
  facet normal 0 0 -1
    outer loop
      vertex 45.3797 -32.3667 -6.35
      vertex 45.2075 -32.5523 -6.35
      vertex 45.0177 -32.7199 -6.35
    endloop
  endfacet
  facet normal 0.733075 -0.680148 0
    outer loop
      vertex 45.3797 -32.3667 6.35
      vertex 45.2075 -32.5523 -6.35
      vertex 45.3797 -32.3667 -6.35
    endloop
  endfacet
  facet normal 0 0 1
    outer loop
      vertex 45.0177 -32.7199 6.35
      vertex 45.2075 -32.5523 6.35
      vertex 45.3797 -32.3667 6.35
    endloop
  endfacet
  facet normal 0 0 1
    outer loop
      vertex 44.8121 -32.8677 6.35
      vertex 45.0177 -32.7199 6.35
      vertex 45.3797 -32.3667 6.35
    endloop
  endfacet
  facet normal 0.222696 0.974888 0
    outer loop
      vertex 44.1219 33.179 -6.35
      vertex 43.875 33.2354 -6.35
      vertex 43.875 33.2354 -1.27
    endloop
  endfacet
  facet normal 0 0 -1
    outer loop
      vertex 43.6238 33.2669 -6.35
      vertex 43.875 33.2354 -6.35
      vertex 44.1219 33.179 -6.35
    endloop
  endfacet
  facet normal 0 0 -1
    outer loop
      vertex -43.4973 33.2732 -6.35
      vertex 43.3707 33.2732 -6.35
      vertex 43.6238 33.2669 -6.35
    endloop
  endfacet
  facet normal 0 1 0
    outer loop
      vertex 43.3707 33.2732 6.35
      vertex 43.3707 33.2732 -6.35
      vertex -43.4973 33.2732 -6.35
    endloop
  endfacet
  facet normal 0.500258 0.865876 0
    outer loop
      vertex 44.8121 32.8676 -6.35
      vertex 44.5928 32.9943 -6.35
      vertex 44.5928 32.9943 -1.27
    endloop
  endfacet
  facet normal 0 0 -1
    outer loop
      vertex 44.362 33.0984 -6.35
      vertex 44.5928 32.9943 -6.35
      vertex 44.8121 32.8676 -6.35
    endloop
  endfacet
  facet normal 0 0 -1
    outer loop
      vertex -44.243 33.1417 -6.35
      vertex -43.9992 33.2103 -6.35
      vertex -43.4973 33.2732 -6.35
    endloop
  endfacet
  facet normal 0 0 1
    outer loop
      vertex -44.243 33.1417 6.35
      vertex -44.4787 33.0492 6.35
      vertex -44.704 32.9337 6.35
    endloop
  endfacet
  facet normal -0.27086 0.962619 0
    outer loop
      vertex -44.243 33.1417 6.35
      vertex -43.9992 33.2103 -6.35
      vertex -44.243 33.1417 -6.35
    endloop
  endfacet
  facet normal -0.17374 0.984792 0
    outer loop
      vertex -43.9992 33.2103 -6.35
      vertex -43.9992 33.2103 6.35
      vertex -43.7498 33.2543 -6.35
    endloop
  endfacet
  facet normal 0 0 -1
    outer loop
      vertex -45.1147 32.6384 -6.35
      vertex -44.704 32.9337 -6.35
      vertex -44.243 33.1417 -6.35
    endloop
  endfacet
  facet normal -0.542613 0.839983 0
    outer loop
      vertex -44.704 32.9337 -6.35
      vertex -44.9167 32.7963 -6.35
      vertex -44.9167 32.7963 6.35
    endloop
  endfacet
  facet normal -0.698166 0.715936 0
    outer loop
      vertex -45.296 32.4616 6.35
      vertex -45.1147 32.6384 6.35
      vertex -45.1147 32.6384 -6.35
    endloop
  endfacet
  facet normal 0 0 1
    outer loop
      vertex -44.9167 32.7963 6.35
      vertex -45.1147 32.6384 6.35
      vertex -45.296 32.4616 6.35
    endloop
  endfacet
  facet normal 0 0 -1
    outer loop
      vertex -45.7225 31.8361 -6.35
      vertex -45.4587 32.2677 -6.35
      vertex -45.1147 32.6384 -6.35
    endloop
  endfacet
  facet normal -0.698166 0.715936 0
    outer loop
      vertex -45.1147 32.6384 -6.35
      vertex -45.296 32.4616 -6.35
      vertex -45.296 32.4616 1.26998
    endloop
  endfacet
  facet normal 0.998761 0.0497603 -0
    outer loop
      vertex 45.974 30.734 -6.35
      vertex 45.9614 30.9869 -1.27
      vertex 45.974 30.734 6.35
    endloop
  endfacet
  facet normal 0 0 -1
    outer loop
      vertex 45.7745 31.7206 -6.35
      vertex 45.9236 31.2373 -6.35
      vertex 45.974 30.734 -6.35
    endloop
  endfacet
  facet normal 0 0 1
    outer loop
      vertex 45.9236 31.2373 6.35
      vertex 45.8611 31.4827 6.35
      vertex 45.7745 31.7206 6.35
    endloop
  endfacet
  facet normal 0.901116 0.433578 0
    outer loop
      vertex 45.6647 31.9488 6.35
      vertex 45.7745 31.7206 6.35
      vertex 45.7745 31.7206 -6.35
    endloop
  endfacet
  facet normal 0 0 -1
    outer loop
      vertex 45.5326 32.1648 -6.35
      vertex 45.6647 31.9488 -6.35
      vertex 45.7745 31.7206 -6.35
    endloop
  endfacet
  facet normal 0.853106 0.521738 0
    outer loop
      vertex 45.6647 31.9488 6.35
      vertex 45.6647 31.9488 -6.35
      vertex 45.5326 32.1648 -6.35
    endloop
  endfacet
  facet normal 0.797196 0.603721 0
    outer loop
      vertex 45.5326 32.1648 -6.35
      vertex 45.3797 32.3667 -6.35
      vertex 45.3797 32.3667 -1.27
    endloop
  endfacet
  facet normal 0 0 -1
    outer loop
      vertex 45.2075 32.5523 -6.35
      vertex 45.3797 32.3667 -6.35
      vertex 45.5326 32.1648 -6.35
    endloop
  endfacet
  facet normal 0 0 1
    outer loop
      vertex -45.8208 31.6027 6.35
      vertex -45.8955 31.3607 6.35
      vertex -45.9709 30.8606 6.35
    endloop
  endfacet
  facet normal -0.994994 0.0999339 0
    outer loop
      vertex -45.9456 31.1125 1.26998
      vertex -45.9456 31.1125 -6.35
      vertex -45.9709 30.8606 -6.35
    endloop
  endfacet
  facet normal -0.955514 0.294946 0
    outer loop
      vertex -45.8955 31.3607 1.26998
      vertex -45.8955 31.3607 6.35
      vertex -45.8208 31.6027 6.35
    endloop
  endfacet
  facet normal -0.98023 0.197863 0
    outer loop
      vertex -45.9456 31.1125 1.26998
      vertex -45.8955 31.3607 6.35
      vertex -45.8955 31.3607 1.26998
    endloop
  endfacet
  facet normal -0.878152 0.478382 0
    outer loop
      vertex -45.6014 32.0584 6.35
      vertex -45.6014 32.0584 -6.35
      vertex -45.7225 31.8361 -6.35
    endloop
  endfacet
  facet normal 0 0 -1
    outer loop
      vertex -45.9709 30.8606 -6.35
      vertex -45.7225 31.8361 -6.35
      vertex -45.1147 32.6384 -6.35
    endloop
  endfacet
  facet normal -0.98023 -0.197863 -0
    outer loop
      vertex -45.8955 -31.3608 6.35
      vertex -45.9456 -31.1126 1.26998
      vertex -45.8955 -31.3608 1.26998
    endloop
  endfacet
  facet normal -0.95548 -0.295057 0
    outer loop
      vertex -45.8955 -31.3608 1.26998
      vertex -45.8208 -31.6027 -6.35
      vertex -45.8955 -31.3608 6.35
    endloop
  endfacet
  facet normal 0 0 1
    outer loop
      vertex -45.8955 -31.3608 6.35
      vertex -45.8208 -31.6027 6.35
      vertex -45.7225 -31.8361 6.35
    endloop
  endfacet
  facet normal -0.994998 -0.0998946 0
    outer loop
      vertex -45.9709 -30.8606 -6.35
      vertex -45.9456 -31.1126 -6.35
      vertex -45.9456 -31.1126 1.26998
    endloop
  endfacet
  facet normal 0 0 -1
    outer loop
      vertex -44.9167 -32.7963 -6.35
      vertex -45.6014 -32.0584 -6.35
      vertex -45.9709 -30.8606 -6.35
    endloop
  endfacet
  facet normal 0 0 1
    outer loop
      vertex -45.4587 -32.2677 6.35
      vertex -45.296 -32.4616 6.35
      vertex -45.1147 -32.6385 6.35
    endloop
  endfacet
  facet normal 0 0 1
    outer loop
      vertex 44.1219 -33.1791 6.35
      vertex 44.362 -33.0984 6.35
      vertex 44.5928 -32.9943 6.35
    endloop
  endfacet
  facet normal 0 0 -1
    outer loop
      vertex 44.8121 -32.8677 -6.35
      vertex 44.5928 -32.9943 -6.35
      vertex 44.1219 -33.1791 -6.35
    endloop
  endfacet
  facet normal 0.318596 -0.947891 0
    outer loop
      vertex 44.1219 -33.1791 -6.35
      vertex 44.362 -33.0984 6.35
      vertex 44.1219 -33.1791 6.35
    endloop
  endfacet
  facet normal 0.411153 -0.911566 0
    outer loop
      vertex 44.362 -33.0984 6.35
      vertex 44.362 -33.0984 -6.35
      vertex 44.5928 -32.9943 -6.35
    endloop
  endfacet
  facet normal 0.222321 -0.974974 0
    outer loop
      vertex 44.1219 -33.1791 6.35
      vertex 43.875 -33.2354 6.35
      vertex 44.1219 -33.1791 -6.35
    endloop
  endfacet
  facet normal 0.0248836 -0.99969 0
    outer loop
      vertex 43.3707 -33.2732 -6.35
      vertex 43.6238 -33.2669 -6.35
      vertex 43.6238 -33.2669 6.35
    endloop
  endfacet
  facet normal 0 0 1
    outer loop
      vertex 43.6238 -33.2669 6.35
      vertex 43.875 -33.2354 6.35
      vertex 44.1219 -33.1791 6.35
    endloop
  endfacet
  facet normal 0.124424 -0.992229 0
    outer loop
      vertex 43.6238 -33.2669 -6.35
      vertex 43.875 -33.2354 6.35
      vertex 43.6238 -33.2669 6.35
    endloop
  endfacet
  facet normal -0.456196 -0.889879 0
    outer loop
      vertex -44.704 -32.9337 -6.35
      vertex -44.4787 -33.0492 -6.35
      vertex -44.4787 -33.0492 6.35
    endloop
  endfacet
  facet normal 0 0 -1
    outer loop
      vertex -44.243 -33.1417 -6.35
      vertex -44.4787 -33.0492 -6.35
      vertex -44.704 -32.9337 -6.35
    endloop
  endfacet
  facet normal -0.0746427 -0.99721 -0
    outer loop
      vertex -43.7498 -33.2543 6.35
      vertex -43.7498 -33.2543 -6.35
      vertex -43.4973 -33.2732 -6.35
    endloop
  endfacet
  facet normal -0.17374 -0.984792 0
    outer loop
      vertex -43.9992 -33.2103 -6.35
      vertex -43.7498 -33.2543 -6.35
      vertex -43.7498 -33.2543 6.35
    endloop
  endfacet
  facet normal 0.939678 -0.34206 0
    outer loop
      vertex 45.8611 -31.4827 -6.35
      vertex 45.8611 -31.4827 6.35
      vertex 45.7745 -31.7206 6.35
    endloop
  endfacet
  facet normal 0.969065 -0.246807 0
    outer loop
      vertex 45.9236 -31.2373 6.35
      vertex 45.8611 -31.4827 6.35
      vertex 45.8611 -31.4827 -6.35
    endloop
  endfacet
  facet normal 0.661909 -0.749584 0
    outer loop
      vertex 45.2075 -32.5523 -6.35
      vertex 45.2075 -32.5523 6.35
      vertex 45.0177 -32.7199 6.35
    endloop
  endfacet
  facet normal 0.733075 -0.680148 0
    outer loop
      vertex 45.3797 -32.3667 6.35
      vertex 45.2075 -32.5523 6.35
      vertex 45.2075 -32.5523 -6.35
    endloop
  endfacet
  facet normal 0 0 -1
    outer loop
      vertex -43.9992 33.2103 -6.35
      vertex -43.7498 33.2543 -6.35
      vertex -43.4973 33.2732 -6.35
    endloop
  endfacet
  facet normal -0.27086 0.962619 0
    outer loop
      vertex -44.243 33.1417 6.35
      vertex -43.9992 33.2103 6.35
      vertex -43.9992 33.2103 -6.35
    endloop
  endfacet
  facet normal 0 0 1
    outer loop
      vertex -43.4973 33.2732 6.35
      vertex -43.9992 33.2103 6.35
      vertex -44.243 33.1417 6.35
    endloop
  endfacet
  facet normal -0.17374 0.984792 0
    outer loop
      vertex -43.9992 33.2103 6.35
      vertex -43.7498 33.2543 6.35
      vertex -43.7498 33.2543 -6.35
    endloop
  endfacet
  facet normal -0.365322 0.930881 0
    outer loop
      vertex -44.243 33.1417 -6.35
      vertex -44.4787 33.0492 -6.35
      vertex -44.243 33.1417 6.35
    endloop
  endfacet
  facet normal -0.542613 0.839983 0
    outer loop
      vertex -44.9167 32.7963 6.35
      vertex -44.704 32.9337 6.35
      vertex -44.704 32.9337 -6.35
    endloop
  endfacet
  facet normal 0 0 -1
    outer loop
      vertex -44.704 32.9337 -6.35
      vertex -44.4787 33.0492 -6.35
      vertex -44.243 33.1417 -6.35
    endloop
  endfacet
  facet normal -0.456196 0.889879 0
    outer loop
      vertex -44.704 32.9337 6.35
      vertex -44.4787 33.0492 -6.35
      vertex -44.704 32.9337 -6.35
    endloop
  endfacet
  facet normal 0 0 -1
    outer loop
      vertex -45.1147 32.6384 -6.35
      vertex -44.9167 32.7963 -6.35
      vertex -44.704 32.9337 -6.35
    endloop
  endfacet
  facet normal -0.62349 0.781831 0
    outer loop
      vertex -44.9167 32.7963 6.35
      vertex -44.9167 32.7963 -6.35
      vertex -45.1147 32.6384 -6.35
    endloop
  endfacet
  facet normal 0 0 1
    outer loop
      vertex -45.296 32.4616 6.35
      vertex -45.4587 32.2677 6.35
      vertex -45.6014 32.0584 6.35
    endloop
  endfacet
  facet normal -0.766047 0.642784 0
    outer loop
      vertex -45.296 32.4616 1.26998
      vertex -45.4587 32.2677 6.35
      vertex -45.296 32.4616 6.35
    endloop
  endfacet
  facet normal 0.969065 0.246807 -0
    outer loop
      vertex 45.9236 31.2373 -6.35
      vertex 45.8611 31.4827 6.35
      vertex 45.9236 31.2373 6.35
    endloop
  endfacet
  facet normal 0.988797 0.149267 0
    outer loop
      vertex 45.9614 30.9869 -1.27
      vertex 45.9236 31.2373 -6.35
      vertex 45.9236 31.2373 6.35
    endloop
  endfacet
  facet normal 0 0 1
    outer loop
      vertex 45.974 30.734 6.35
      vertex 45.9614 30.9869 6.35
      vertex 45.9236 31.2373 6.35
    endloop
  endfacet
  facet normal 0.998761 0.0497603 -0
    outer loop
      vertex 45.9614 30.9869 -1.27
      vertex 45.9614 30.9869 6.35
      vertex 45.974 30.734 6.35
    endloop
  endfacet
  facet normal 0 0 -1
    outer loop
      vertex 45.7745 31.7206 -6.35
      vertex 45.8611 31.4827 -6.35
      vertex 45.9236 31.2373 -6.35
    endloop
  endfacet
  facet normal 0.939678 0.34206 0
    outer loop
      vertex 45.7745 31.7206 6.35
      vertex 45.8611 31.4827 6.35
      vertex 45.7745 31.7206 -6.35
    endloop
  endfacet
  facet normal -0.98023 0.197863 0
    outer loop
      vertex -45.8955 31.3607 1.26998
      vertex -45.8955 31.3607 -6.35
      vertex -45.9456 31.1125 -6.35
    endloop
  endfacet
  facet normal 0 0 -1
    outer loop
      vertex -45.9709 30.8606 -6.35
      vertex -45.9456 31.1125 -6.35
      vertex -45.7225 31.8361 -6.35
    endloop
  endfacet
  facet normal 0 0 1
    outer loop
      vertex -45.8955 31.3607 6.35
      vertex -45.9456 31.1125 6.35
      vertex -45.9709 30.8606 6.35
    endloop
  endfacet
  facet normal -0.98023 0.197863 0
    outer loop
      vertex -45.9456 31.1125 1.26998
      vertex -45.9456 31.1125 6.35
      vertex -45.8955 31.3607 6.35
    endloop
  endfacet
  facet normal -0.955514 0.294946 0
    outer loop
      vertex -45.8208 31.6027 6.35
      vertex -45.8208 31.6027 1.26998
      vertex -45.8955 31.3607 1.26998
    endloop
  endfacet
  facet normal -0.921598 0.388145 0
    outer loop
      vertex -45.7225 31.8361 -6.35
      vertex -45.8208 31.6027 1.26998
      vertex -45.8208 31.6027 6.35
    endloop
  endfacet
  facet normal 0 0 1
    outer loop
      vertex -45.6014 32.0584 6.35
      vertex -45.7225 31.8361 6.35
      vertex -45.8208 31.6027 6.35
    endloop
  endfacet
  facet normal -0.878152 0.478382 0
    outer loop
      vertex -45.7225 31.8361 -6.35
      vertex -45.7225 31.8361 6.35
      vertex -45.6014 32.0584 6.35
    endloop
  endfacet
  facet normal 0 0 1
    outer loop
      vertex -45.9709 -30.8606 6.35
      vertex -45.9456 -31.1126 6.35
      vertex -45.8955 -31.3608 6.35
    endloop
  endfacet
  facet normal 0 0 -1
    outer loop
      vertex -45.6014 -32.0584 -6.35
      vertex -45.8208 -31.6027 -6.35
      vertex -45.9709 -30.8606 -6.35
    endloop
  endfacet
  facet normal -0.994998 -0.0998946 0
    outer loop
      vertex -45.9709 -30.8606 -6.35
      vertex -45.9456 -31.1126 1.26998
      vertex -45.9709 -30.8606 6.35
    endloop
  endfacet
  facet normal -0.98023 -0.197863 -0
    outer loop
      vertex -45.9456 -31.1126 1.26998
      vertex -45.9456 -31.1126 -6.35
      vertex -45.8955 -31.3608 1.26998
    endloop
  endfacet
  facet normal -0.878152 -0.478382 0
    outer loop
      vertex -45.6014 -32.0584 -6.35
      vertex -45.6014 -32.0584 6.35
      vertex -45.7225 -31.8361 6.35
    endloop
  endfacet
  facet normal 0 0 -1
    outer loop
      vertex -45.296 -32.4616 -6.35
      vertex -45.4587 -32.2677 -6.35
      vertex -45.6014 -32.0584 -6.35
    endloop
  endfacet
  facet normal -0.878152 -0.478382 -0
    outer loop
      vertex -45.7225 -31.8361 1.26998
      vertex -45.7225 -31.8361 -6.35
      vertex -45.6014 -32.0584 -6.35
    endloop
  endfacet
  facet normal -0.921598 -0.388145 -0
    outer loop
      vertex -45.7225 -31.8361 6.35
      vertex -45.8208 -31.6027 -6.35
      vertex -45.7225 -31.8361 1.26998
    endloop
  endfacet
  facet normal 0 0 -1
    outer loop
      vertex -44.9167 -32.7963 -6.35
      vertex -45.296 -32.4616 -6.35
      vertex -45.6014 -32.0584 -6.35
    endloop
  endfacet
  facet normal -0.698368 -0.715739 0
    outer loop
      vertex -45.296 -32.4616 -6.35
      vertex -45.1147 -32.6385 -6.35
      vertex -45.1147 -32.6385 6.35
    endloop
  endfacet
  facet normal 0.318596 -0.947891 0
    outer loop
      vertex 44.1219 -33.1791 -6.35
      vertex 44.362 -33.0984 -6.35
      vertex 44.362 -33.0984 6.35
    endloop
  endfacet
  facet normal 0 0 -1
    outer loop
      vertex 44.5928 -32.9943 -6.35
      vertex 44.362 -33.0984 -6.35
      vertex 44.1219 -33.1791 -6.35
    endloop
  endfacet
  facet normal 0.222321 -0.974974 0
    outer loop
      vertex 43.875 -33.2354 6.35
      vertex 43.875 -33.2354 -6.35
      vertex 44.1219 -33.1791 -6.35
    endloop
  endfacet
  facet normal 0.124424 -0.992229 0
    outer loop
      vertex 43.6238 -33.2669 -6.35
      vertex 43.875 -33.2354 -6.35
      vertex 43.875 -33.2354 6.35
    endloop
  endfacet
  facet normal 0 0 1
    outer loop
      vertex -43.4973 33.2732 6.35
      vertex -43.7498 33.2543 6.35
      vertex -43.9992 33.2103 6.35
    endloop
  endfacet
  facet normal -0.0746427 0.99721 0
    outer loop
      vertex -43.7498 33.2543 -6.35
      vertex -43.7498 33.2543 6.35
      vertex -43.4973 33.2732 6.35
    endloop
  endfacet
  facet normal -0.365322 0.930881 0
    outer loop
      vertex -44.4787 33.0492 -6.35
      vertex -44.4787 33.0492 6.35
      vertex -44.243 33.1417 6.35
    endloop
  endfacet
  facet normal -0.456196 0.889879 0
    outer loop
      vertex -44.704 32.9337 6.35
      vertex -44.4787 33.0492 6.35
      vertex -44.4787 33.0492 -6.35
    endloop
  endfacet
  facet normal -0.826236 0.563325 0
    outer loop
      vertex -45.4587 32.2677 6.35
      vertex -45.4587 32.2677 -6.35
      vertex -45.6014 32.0584 6.35
    endloop
  endfacet
  facet normal -0.766047 0.642784 0
    outer loop
      vertex -45.296 32.4616 1.26998
      vertex -45.4587 32.2677 -6.35
      vertex -45.4587 32.2677 6.35
    endloop
  endfacet
  facet normal 0 0 -1
    outer loop
      vertex 45.9236 31.2373 -6.35
      vertex 45.9614 30.9869 -6.35
      vertex 45.974 30.734 -6.35
    endloop
  endfacet
  facet normal 0.988797 0.149267 0
    outer loop
      vertex 45.9614 30.9869 -1.27
      vertex 45.9614 30.9869 -6.35
      vertex 45.9236 31.2373 -6.35
    endloop
  endfacet
  facet normal 0.939678 0.34206 0
    outer loop
      vertex 45.8611 31.4827 6.35
      vertex 45.8611 31.4827 -6.35
      vertex 45.7745 31.7206 -6.35
    endloop
  endfacet
  facet normal 0.969065 0.246807 0
    outer loop
      vertex 45.9236 31.2373 -6.35
      vertex 45.8611 31.4827 -6.35
      vertex 45.8611 31.4827 6.35
    endloop
  endfacet
  facet normal -0.955514 0.294946 0
    outer loop
      vertex -45.8208 31.6027 1.26998
      vertex -45.8208 31.6027 -6.35
      vertex -45.8955 31.3607 1.26998
    endloop
  endfacet
  facet normal -0.921598 0.388145 0
    outer loop
      vertex -45.7225 31.8361 -6.35
      vertex -45.8208 31.6027 -6.35
      vertex -45.8208 31.6027 1.26998
    endloop
  endfacet
  facet normal -0.994998 -0.0998946 0
    outer loop
      vertex -45.9456 -31.1126 1.26998
      vertex -45.9456 -31.1126 6.35
      vertex -45.9709 -30.8606 6.35
    endloop
  endfacet
  facet normal -0.98023 -0.197863 0
    outer loop
      vertex -45.8955 -31.3608 6.35
      vertex -45.9456 -31.1126 6.35
      vertex -45.9456 -31.1126 1.26998
    endloop
  endfacet
  facet normal 0 0 -1
    outer loop
      vertex -45.8208 -31.6027 -6.35
      vertex -45.9456 -31.1126 -6.35
      vertex -45.9709 -30.8606 -6.35
    endloop
  endfacet
  facet normal -0.98023 -0.197863 0
    outer loop
      vertex -45.9456 -31.1126 -6.35
      vertex -45.8955 -31.3608 -6.35
      vertex -45.8955 -31.3608 1.26998
    endloop
  endfacet
  facet normal -0.826236 -0.563325 0
    outer loop
      vertex -45.4587 -32.2677 6.35
      vertex -45.6014 -32.0584 6.35
      vertex -45.6014 -32.0584 -6.35
    endloop
  endfacet
  facet normal 0 0 1
    outer loop
      vertex -45.7225 -31.8361 6.35
      vertex -45.6014 -32.0584 6.35
      vertex -45.4587 -32.2677 6.35
    endloop
  endfacet
  facet normal -0.95548 -0.295057 0
    outer loop
      vertex -45.8208 -31.6027 -6.35
      vertex -45.8208 -31.6027 6.35
      vertex -45.8955 -31.3608 6.35
    endloop
  endfacet
  facet normal -0.921598 -0.388145 0
    outer loop
      vertex -45.7225 -31.8361 6.35
      vertex -45.8208 -31.6027 6.35
      vertex -45.8208 -31.6027 -6.35
    endloop
  endfacet
  facet normal -0.921598 -0.388145 0
    outer loop
      vertex -45.8208 -31.6027 -6.35
      vertex -45.7225 -31.8361 -6.35
      vertex -45.7225 -31.8361 1.26998
    endloop
  endfacet
  facet normal 0 0 -1
    outer loop
      vertex -45.6014 -32.0584 -6.35
      vertex -45.7225 -31.8361 -6.35
      vertex -45.8208 -31.6027 -6.35
    endloop
  endfacet
  facet normal -0.766047 -0.642784 0
    outer loop
      vertex -45.296 -32.4616 -6.35
      vertex -45.296 -32.4616 6.35
      vertex -45.4587 -32.2677 6.35
    endloop
  endfacet
  facet normal -0.698368 -0.715739 0
    outer loop
      vertex -45.1147 -32.6385 6.35
      vertex -45.296 -32.4616 6.35
      vertex -45.296 -32.4616 -6.35
    endloop
  endfacet
  facet normal -0.766047 -0.642784 -0
    outer loop
      vertex -45.4587 -32.2677 6.35
      vertex -45.4587 -32.2677 -6.35
      vertex -45.296 -32.4616 -6.35
    endloop
  endfacet
  facet normal -0.826236 -0.563325 0
    outer loop
      vertex -45.6014 -32.0584 -6.35
      vertex -45.4587 -32.2677 -6.35
      vertex -45.4587 -32.2677 6.35
    endloop
  endfacet
  facet normal 0 0 -1
    outer loop
      vertex -44.9167 -32.7963 -6.35
      vertex -45.1147 -32.6385 -6.35
      vertex -45.296 -32.4616 -6.35
    endloop
  endfacet
  facet normal -0.623249 -0.782023 -0
    outer loop
      vertex -45.1147 -32.6385 6.35
      vertex -45.1147 -32.6385 -6.35
      vertex -44.9167 -32.7963 -6.35
    endloop
  endfacet
  facet normal 0 0 -1
    outer loop
      vertex -45.4587 32.2677 -6.35
      vertex -45.296 32.4616 -6.35
      vertex -45.1147 32.6384 -6.35
    endloop
  endfacet
  facet normal -0.766047 0.642784 0
    outer loop
      vertex -45.296 32.4616 1.26998
      vertex -45.296 32.4616 -6.35
      vertex -45.4587 32.2677 -6.35
    endloop
  endfacet
  facet normal -0.826236 0.563325 0
    outer loop
      vertex -45.4587 32.2677 -6.35
      vertex -45.6014 32.0584 -6.35
      vertex -45.6014 32.0584 6.35
    endloop
  endfacet
  facet normal 0 0 -1
    outer loop
      vertex -45.7225 31.8361 -6.35
      vertex -45.6014 32.0584 -6.35
      vertex -45.4587 32.2677 -6.35
    endloop
  endfacet
  facet normal -0.955514 0.294946 0
    outer loop
      vertex -45.8208 31.6027 -6.35
      vertex -45.8955 31.3607 -6.35
      vertex -45.8955 31.3607 1.26998
    endloop
  endfacet
  facet normal 0 0 -1
    outer loop
      vertex -45.9456 31.1125 -6.35
      vertex -45.8955 31.3607 -6.35
      vertex -45.8208 31.6027 -6.35
    endloop
  endfacet
  facet normal 0 0 -1
    outer loop
      vertex -45.8208 -31.6027 -6.35
      vertex -45.8955 -31.3608 -6.35
      vertex -45.9456 -31.1126 -6.35
    endloop
  endfacet
  facet normal -0.95548 -0.295057 -0
    outer loop
      vertex -45.8955 -31.3608 1.26998
      vertex -45.8955 -31.3608 -6.35
      vertex -45.8208 -31.6027 -6.35
    endloop
  endfacet
endsolid OpenSCAD_Model
