solid OpenSCAD_Model
  facet normal 0.411153 0.911566 0
    outer loop
      vertex 75.8348 64.2363 26.416
      vertex 75.8348 64.2363 21.336
      vertex 75.604 64.3404 21.336
    endloop
  endfacet
  facet normal 0 0 1
    outer loop
      vertex -76.3567 63.8804 26.416
      vertex 74.6127 -64.5152 26.416
      vertex 76.9067 63.1908 26.416
    endloop
  endfacet
  facet normal 0 0 1
    outer loop
      vertex 77.216 61.976 26.416
      vertex 77.1656 62.4793 26.416
      vertex 76.9067 63.1908 26.416
    endloop
  endfacet
  facet normal 0.318241 0.94801 0
    outer loop
      vertex 75.3639 64.421 21.336
      vertex 75.604 64.3404 26.416
      vertex 75.604 64.3404 21.336
    endloop
  endfacet
  facet normal 0 0 1
    outer loop
      vertex 75.604 64.3404 26.416
      vertex -76.3567 63.8804 26.416
      vertex 76.9067 63.1908 26.416
    endloop
  endfacet
  facet normal 0.411153 0.911566 0
    outer loop
      vertex 75.8348 64.2363 21.336
      vertex 75.604 64.3404 -26.416
      vertex 75.604 64.3404 21.336
    endloop
  endfacet
  facet normal 0 0 -1
    outer loop
      vertex -75.485 -64.3837 -26.416
      vertex -74.7393 64.5152 -26.416
      vertex 76.4495 -63.7943 -26.416
    endloop
  endfacet
  facet normal 0 0 1
    outer loop
      vertex 74.6127 -64.5152 26.416
      vertex 77.216 -61.976 26.416
      vertex 76.9067 63.1908 26.416
    endloop
  endfacet
  facet normal 0.411153 0.911566 0
    outer loop
      vertex 75.604 64.3404 26.416
      vertex 75.8348 64.2363 26.416
      vertex 75.604 64.3404 21.336
    endloop
  endfacet
  facet normal 0 0 1
    outer loop
      vertex 76.9067 63.1908 26.416
      vertex 76.2597 63.9618 26.416
      vertex 75.604 64.3404 26.416
    endloop
  endfacet
  facet normal 0 0 -1
    outer loop
      vertex -75.485 -64.3837 -26.416
      vertex -75.946 -64.1757 -26.416
      vertex -76.1587 -64.0383 -26.416
    endloop
  endfacet
  facet normal 0 0 -1
    outer loop
      vertex 74.6127 -64.5152 -26.416
      vertex -74.7393 -64.5152 -26.416
      vertex -75.485 -64.3837 -26.416
    endloop
  endfacet
  facet normal 0 0 -1
    outer loop
      vertex 76.4495 -63.7943 -26.416
      vertex 74.6127 -64.5152 -26.416
      vertex -75.485 -64.3837 -26.416
    endloop
  endfacet
  facet normal 1 0 0
    outer loop
      vertex 77.216 -61.976 26.416
      vertex 77.216 -61.976 -26.416
      vertex 77.216 61.976 -26.416
    endloop
  endfacet
  facet normal 0 0 1
    outer loop
      vertex -74.7393 64.5152 26.416
      vertex -75.485 64.3837 26.416
      vertex -76.3567 63.8804 26.416
    endloop
  endfacet
  facet normal 0.998761 0.0497603 0
    outer loop
      vertex 77.216 61.976 26.416
      vertex 77.216 61.976 -26.416
      vertex 77.2034 62.2289 21.336
    endloop
  endfacet
  facet normal 0 0 -1
    outer loop
      vertex -74.7393 64.5152 -26.416
      vertex 76.2597 63.9618 -26.416
      vertex 76.4495 -63.7943 -26.416
    endloop
  endfacet
  facet normal -0 1 0
    outer loop
      vertex -74.7393 64.5152 26.416
      vertex 74.6127 64.5152 26.416
      vertex -74.7393 64.5152 -26.416
    endloop
  endfacet
  facet normal 0 1 0
    outer loop
      vertex 74.6127 64.5152 26.416
      vertex 74.6127 64.5152 -26.416
      vertex -74.7393 64.5152 -26.416
    endloop
  endfacet
  facet normal 0 0 1
    outer loop
      vertex 76.9067 63.1908 26.416
      vertex 76.6217 63.6087 26.416
      vertex 76.2597 63.9618 26.416
    endloop
  endfacet
  facet normal 0 0 1
    outer loop
      vertex 76.2597 63.9618 26.416
      vertex 75.8348 64.2363 26.416
      vertex 75.604 64.3404 26.416
    endloop
  endfacet
  facet normal 0.583701 0.811969 -0
    outer loop
      vertex 76.2597 63.9618 -26.416
      vertex 76.0541 64.1096 21.336
      vertex 76.2597 63.9618 26.416
    endloop
  endfacet
  facet normal 0 0 1
    outer loop
      vertex 75.604 64.3404 26.416
      vertex -74.7393 64.5152 26.416
      vertex -76.3567 63.8804 26.416
    endloop
  endfacet
  facet normal 0 0 -1
    outer loop
      vertex -74.7393 64.5152 -26.416
      vertex 74.8658 64.5089 -26.416
      vertex 76.2597 63.9618 -26.416
    endloop
  endfacet
  facet normal 0 0 1
    outer loop
      vertex -76.3567 63.8804 26.416
      vertex -76.3567 -63.8805 26.416
      vertex 74.6127 -64.5152 26.416
    endloop
  endfacet
  facet normal 0 0 1
    outer loop
      vertex -76.3567 63.8804 26.416
      vertex -76.8434 63.3004 26.416
      vertex -77.0628 62.8447 26.416
    endloop
  endfacet
  facet normal 0 0 1
    outer loop
      vertex 74.6127 -64.5152 26.416
      vertex 76.4495 -63.7943 26.416
      vertex 77.216 -61.976 26.416
    endloop
  endfacet
  facet normal -0 -1 -0
    outer loop
      vertex 74.6127 -64.5152 26.416
      vertex -74.7393 -64.5152 26.416
      vertex 74.6127 -64.5152 -26.416
    endloop
  endfacet
  facet normal 0 0 1
    outer loop
      vertex 76.6217 63.6087 26.416
      vertex 76.4495 63.7943 26.416
      vertex 76.2597 63.9618 26.416
    endloop
  endfacet
  facet normal 0.939678 0.34206 -0
    outer loop
      vertex 77.0165 62.9626 21.336
      vertex 77.0165 62.9626 26.416
      vertex 77.1031 62.7247 21.336
    endloop
  endfacet
  facet normal -0.62349 0.781831 0
    outer loop
      vertex -76.3567 63.8804 26.416
      vertex -76.1587 64.0383 -26.416
      vertex -76.3567 63.8804 -26.416
    endloop
  endfacet
  facet normal 0 0 -1
    outer loop
      vertex -75.485 -64.3837 -26.416
      vertex -77.2129 62.1026 -26.416
      vertex -74.7393 64.5152 -26.416
    endloop
  endfacet
  facet normal 0 -0 -1
    outer loop
      vertex 77.1031 62.7247 -26.416
      vertex 77.1031 -62.7247 -26.416
      vertex 76.4495 -63.7943 -26.416
    endloop
  endfacet
  facet normal 0 -0 1
    outer loop
      vertex 77.216 -61.976 26.416
      vertex 77.216 61.976 26.416
      vertex 76.9067 63.1908 26.416
    endloop
  endfacet
  facet normal 0 0 1
    outer loop
      vertex 75.604 64.3404 26.416
      vertex 74.6127 64.5152 26.416
      vertex -74.7393 64.5152 26.416
    endloop
  endfacet
  facet normal 0 0 -1
    outer loop
      vertex 74.8658 64.5089 -26.416
      vertex 75.1171 64.4774 -26.416
      vertex 75.604 64.3404 -26.416
    endloop
  endfacet
  facet normal -0.27086 0.962619 0
    outer loop
      vertex -75.2412 64.4523 21.336
      vertex -75.485 64.3837 -26.416
      vertex -75.485 64.3837 26.416
    endloop
  endfacet
  facet normal 0 0 1
    outer loop
      vertex -75.485 64.3837 26.416
      vertex -75.7207 64.2912 26.416
      vertex -75.946 64.1757 26.416
    endloop
  endfacet
  facet normal 0 0 1
    outer loop
      vertex -76.3567 -63.8805 26.416
      vertex -74.7393 -64.5152 26.416
      vertex 74.6127 -64.5152 26.416
    endloop
  endfacet
  facet normal -0.17374 -0.984792 0
    outer loop
      vertex -75.2412 -64.4523 -26.416
      vertex -74.9918 -64.4963 -21.336
      vertex -75.2412 -64.4523 -21.336
    endloop
  endfacet
  facet normal 0.0248836 -0.99969 0
    outer loop
      vertex 74.6127 -64.5152 -26.416
      vertex 74.8658 -64.5089 -21.336
      vertex 74.6127 -64.5152 26.416
    endloop
  endfacet
  facet normal 0.499962 -0.866047 0
    outer loop
      vertex 75.8348 -64.2363 -21.336
      vertex 76.0541 -64.1097 -26.416
      vertex 76.0541 -64.1097 -21.336
    endloop
  endfacet
  facet normal 0 0 -1
    outer loop
      vertex 76.2597 63.9618 -26.416
      vertex 77.1031 62.7247 -26.416
      vertex 76.4495 -63.7943 -26.416
    endloop
  endfacet
  facet normal 0 0 -1
    outer loop
      vertex 76.2597 63.9618 -26.416
      vertex 76.9067 63.1908 -26.416
      vertex 77.1031 62.7247 -26.416
    endloop
  endfacet
  facet normal 0.500258 0.865876 0
    outer loop
      vertex 76.0541 64.1096 21.336
      vertex 75.8348 64.2363 -26.416
      vertex 75.8348 64.2363 21.336
    endloop
  endfacet
  facet normal 0 0 -1
    outer loop
      vertex 74.8658 64.5089 -26.416
      vertex 75.604 64.3404 -26.416
      vertex 76.2597 63.9618 -26.416
    endloop
  endfacet
  facet normal 0.500258 0.865876 0
    outer loop
      vertex 75.8348 64.2363 26.416
      vertex 76.0541 64.1096 21.336
      vertex 75.8348 64.2363 21.336
    endloop
  endfacet
  facet normal 0.583701 0.811969 -0
    outer loop
      vertex 76.0541 64.1096 21.336
      vertex 76.0541 64.1096 26.416
      vertex 76.2597 63.9618 26.416
    endloop
  endfacet
  facet normal 0.733075 0.680148 0
    outer loop
      vertex 76.6217 63.6087 26.416
      vertex 76.6217 63.6087 -26.416
      vertex 76.4495 63.7943 21.336
    endloop
  endfacet
  facet normal 0.661687 0.74978 0
    outer loop
      vertex 76.2597 63.9618 26.416
      vertex 76.4495 63.7943 21.336
      vertex 76.2597 63.9618 -26.416
    endloop
  endfacet
  facet normal 0 0 -1
    outer loop
      vertex 76.2597 63.9618 -26.416
      vertex 76.6217 63.6087 -26.416
      vertex 76.9067 63.1908 -26.416
    endloop
  endfacet
  facet normal 0.853106 0.521738 -0
    outer loop
      vertex 76.7746 63.4068 21.336
      vertex 76.7746 63.4068 26.416
      vertex 76.9067 63.1908 26.416
    endloop
  endfacet
  facet normal -1 0 0
    outer loop
      vertex -77.2129 -62.1026 -26.416
      vertex -77.2129 61.8494 26.416
      vertex -77.2129 62.1026 -26.416
    endloop
  endfacet
  facet normal 0 0 -1
    outer loop
      vertex -75.485 -64.3837 -26.416
      vertex -77.2129 -62.1026 -26.416
      vertex -77.2129 62.1026 -26.416
    endloop
  endfacet
  facet normal -0.623249 -0.782023 -0
    outer loop
      vertex -76.3567 -63.8805 26.416
      vertex -76.3567 -63.8805 -26.416
      vertex -76.1587 -64.0383 -26.416
    endloop
  endfacet
  facet normal 0 0 1
    outer loop
      vertex -76.3567 63.8804 26.416
      vertex -77.2129 61.8494 26.416
      vertex -76.3567 -63.8805 26.416
    endloop
  endfacet
  facet normal 0 0 -1
    outer loop
      vertex -77.2129 62.1026 -26.416
      vertex -76.3567 63.8804 -26.416
      vertex -74.7393 64.5152 -26.416
    endloop
  endfacet
  facet normal -0.82611 0.563508 0
    outer loop
      vertex -76.8434 63.3004 26.416
      vertex -76.7007 63.5096 21.336
      vertex -76.8434 63.3004 21.336
    endloop
  endfacet
  facet normal 0 0 1
    outer loop
      vertex 74.6127 -64.5152 26.416
      vertex 75.1171 -64.4774 26.416
      vertex 75.604 -64.3404 26.416
    endloop
  endfacet
  facet normal 0.411153 -0.911566 0
    outer loop
      vertex 75.604 -64.3404 -21.336
      vertex 75.8348 -64.2363 -21.336
      vertex 75.604 -64.3404 26.416
    endloop
  endfacet
  facet normal 1 -0 0
    outer loop
      vertex 77.216 -61.976 26.416
      vertex 77.216 61.976 -26.416
      vertex 77.216 61.976 26.416
    endloop
  endfacet
  facet normal 0 0 1
    outer loop
      vertex 77.216 61.976 26.416
      vertex 77.2034 62.2289 26.416
      vertex 77.1656 62.4793 26.416
    endloop
  endfacet
  facet normal 0 0 1
    outer loop
      vertex 75.1171 64.4774 26.416
      vertex 74.8658 64.5089 26.416
      vertex 74.6127 64.5152 26.416
    endloop
  endfacet
  facet normal 0.411153 0.911566 0
    outer loop
      vertex 75.8348 64.2363 21.336
      vertex 75.8348 64.2363 -26.416
      vertex 75.604 64.3404 -26.416
    endloop
  endfacet
  facet normal 0 0 1
    outer loop
      vertex 75.604 64.3404 26.416
      vertex 75.1171 64.4774 26.416
      vertex 74.6127 64.5152 26.416
    endloop
  endfacet
  facet normal 0.222782 0.974868 0
    outer loop
      vertex 75.1171 64.4774 26.416
      vertex 75.3639 64.421 26.416
      vertex 75.3639 64.421 21.336
    endloop
  endfacet
  facet normal -0.0746427 0.99721 0
    outer loop
      vertex -74.7393 64.5152 -26.416
      vertex -74.9918 64.4963 21.336
      vertex -74.7393 64.5152 26.416
    endloop
  endfacet
  facet normal 0 0 1
    outer loop
      vertex -74.7393 64.5152 26.416
      vertex -74.9918 64.4963 26.416
      vertex -75.2412 64.4523 26.416
    endloop
  endfacet
  facet normal 0 -1 0
    outer loop
      vertex -74.7393 -64.5152 26.416
      vertex -74.7393 -64.5152 -26.416
      vertex 74.6127 -64.5152 -26.416
    endloop
  endfacet
  facet normal -0.27086 -0.962619 0
    outer loop
      vertex -75.485 -64.3837 -26.416
      vertex -75.2412 -64.4523 -26.416
      vertex -75.2412 -64.4523 -21.336
    endloop
  endfacet
  facet normal 0 0 1
    outer loop
      vertex -76.3567 -63.8805 26.416
      vertex -75.485 -64.3837 26.416
      vertex -74.7393 -64.5152 26.416
    endloop
  endfacet
  facet normal 0 0 -1
    outer loop
      vertex -75.485 -64.3837 -26.416
      vertex -76.1587 -64.0383 -26.416
      vertex -76.7007 -63.5097 -26.416
    endloop
  endfacet
  facet normal 0.124375 -0.992235 0
    outer loop
      vertex 75.1171 -64.4774 26.416
      vertex 74.8658 -64.5089 26.416
      vertex 74.8658 -64.5089 -21.336
    endloop
  endfacet
  facet normal 0 0 -1
    outer loop
      vertex 75.3639 -64.4211 -26.416
      vertex 75.1171 -64.4774 -26.416
      vertex 74.6127 -64.5152 -26.416
    endloop
  endfacet
  facet normal 0.0248836 -0.99969 0
    outer loop
      vertex 74.6127 -64.5152 -26.416
      vertex 74.8658 -64.5089 -26.416
      vertex 74.8658 -64.5089 -21.336
    endloop
  endfacet
  facet normal 0 0 -1
    outer loop
      vertex 76.4495 -63.7943 -26.416
      vertex 75.604 -64.3404 -26.416
      vertex 74.6127 -64.5152 -26.416
    endloop
  endfacet
  facet normal 0.969065 0.246807 0
    outer loop
      vertex 77.1656 62.4793 26.416
      vertex 77.1656 62.4793 -26.416
      vertex 77.1031 62.7247 -26.416
    endloop
  endfacet
  facet normal 0.901116 0.433578 0
    outer loop
      vertex 76.9067 63.1908 26.416
      vertex 77.0165 62.9626 21.336
      vertex 76.9067 63.1908 -26.416
    endloop
  endfacet
  facet normal 0 0 1
    outer loop
      vertex 76.4495 -63.7943 26.416
      vertex 76.7746 -63.4068 26.416
      vertex 77.0165 -62.9626 26.416
    endloop
  endfacet
  facet normal 0.939678 -0.34206 0
    outer loop
      vertex 77.1031 -62.7247 -26.416
      vertex 77.1031 -62.7247 26.416
      vertex 77.0165 -62.9626 26.416
    endloop
  endfacet
  facet normal 0.500258 0.865876 0
    outer loop
      vertex 75.8348 64.2363 26.416
      vertex 76.0541 64.1096 26.416
      vertex 76.0541 64.1096 21.336
    endloop
  endfacet
  facet normal 0 0 1
    outer loop
      vertex 76.2597 63.9618 26.416
      vertex 76.0541 64.1096 26.416
      vertex 75.8348 64.2363 26.416
    endloop
  endfacet
  facet normal 0.733075 0.680148 -0
    outer loop
      vertex 76.4495 63.7943 21.336
      vertex 76.4495 63.7943 26.416
      vertex 76.6217 63.6087 26.416
    endloop
  endfacet
  facet normal 0.661687 0.74978 0
    outer loop
      vertex 76.2597 63.9618 26.416
      vertex 76.4495 63.7943 26.416
      vertex 76.4495 63.7943 21.336
    endloop
  endfacet
  facet normal 0 0 -1
    outer loop
      vertex 76.2597 63.9618 -26.416
      vertex 76.4495 63.7943 -26.416
      vertex 76.6217 63.6087 -26.416
    endloop
  endfacet
  facet normal 0.853106 0.521738 0
    outer loop
      vertex 76.9067 63.1908 26.416
      vertex 76.9067 63.1908 -26.416
      vertex 76.7746 63.4068 21.336
    endloop
  endfacet
  facet normal 0.797196 0.603721 0
    outer loop
      vertex 76.6217 63.6087 26.416
      vertex 76.7746 63.4068 26.416
      vertex 76.7746 63.4068 21.336
    endloop
  endfacet
  facet normal 0 0 1
    outer loop
      vertex 76.9067 63.1908 26.416
      vertex 76.7746 63.4068 26.416
      vertex 76.6217 63.6087 26.416
    endloop
  endfacet
  facet normal 0 0 1
    outer loop
      vertex -77.2129 61.8494 26.416
      vertex -77.2129 -62.1026 26.416
      vertex -76.3567 -63.8805 26.416
    endloop
  endfacet
  facet normal 0 0 -1
    outer loop
      vertex -75.485 -64.3837 -26.416
      vertex -76.7007 -63.5097 -26.416
      vertex -77.2129 -62.1026 -26.416
    endloop
  endfacet
  facet normal -0.921598 0.388145 0
    outer loop
      vertex -76.9645 63.0781 -26.416
      vertex -77.0628 62.8447 -26.416
      vertex -77.0628 62.8447 26.416
    endloop
  endfacet
  facet normal 0 0 1
    outer loop
      vertex -76.3567 63.8804 26.416
      vertex -77.0628 62.8447 26.416
      vertex -77.2129 61.8494 26.416
    endloop
  endfacet
  facet normal -1 0 0
    outer loop
      vertex -77.2129 -62.1026 -26.416
      vertex -77.2129 -62.1026 26.416
      vertex -77.2129 61.8494 26.416
    endloop
  endfacet
  facet normal 0 0 1
    outer loop
      vertex -77.2129 -62.1026 26.416
      vertex -76.9645 -63.0781 26.416
      vertex -76.3567 -63.8805 26.416
    endloop
  endfacet
  facet normal 0 0 -1
    outer loop
      vertex -76.3567 63.8804 -26.416
      vertex -75.946 64.1757 -26.416
      vertex -74.7393 64.5152 -26.416
    endloop
  endfacet
  facet normal 0 0 -1
    outer loop
      vertex -76.3567 63.8804 -26.416
      vertex -76.1587 64.0383 -26.416
      vertex -75.946 64.1757 -26.416
    endloop
  endfacet
  facet normal 0.411153 -0.911566 0
    outer loop
      vertex 75.604 -64.3404 -26.416
      vertex 75.8348 -64.2363 -21.336
      vertex 75.604 -64.3404 -21.336
    endloop
  endfacet
  facet normal 0 0 1
    outer loop
      vertex 74.6127 -64.5152 26.416
      vertex 75.604 -64.3404 26.416
      vertex 76.4495 -63.7943 26.416
    endloop
  endfacet
  facet normal 0.583701 -0.811969 0
    outer loop
      vertex 76.0541 -64.1097 -26.416
      vertex 76.2597 -63.9619 -21.336
      vertex 76.0541 -64.1097 -21.336
    endloop
  endfacet
  facet normal 0.411153 -0.911566 0
    outer loop
      vertex 75.8348 -64.2363 -21.336
      vertex 75.8348 -64.2363 26.416
      vertex 75.604 -64.3404 26.416
    endloop
  endfacet
  facet normal 0 0 -1
    outer loop
      vertex 77.1031 62.7247 -26.416
      vertex 77.216 61.976 -26.416
      vertex 77.1031 -62.7247 -26.416
    endloop
  endfacet
  facet normal 0 0 -1
    outer loop
      vertex 77.1031 62.7247 -26.416
      vertex 77.1656 62.4793 -26.416
      vertex 77.216 61.976 -26.416
    endloop
  endfacet
  facet normal 0.124375 0.992235 0
    outer loop
      vertex 75.1171 64.4774 26.416
      vertex 75.1171 64.4774 21.336
      vertex 74.8658 64.5089 -26.416
    endloop
  endfacet
  facet normal 0.318241 0.94801 0
    outer loop
      vertex 75.604 64.3404 21.336
      vertex 75.604 64.3404 -26.416
      vertex 75.3639 64.421 21.336
    endloop
  endfacet
  facet normal 0.0248836 0.99969 0
    outer loop
      vertex 74.8658 64.5089 -26.416
      vertex 74.6127 64.5152 -26.416
      vertex 74.6127 64.5152 26.416
    endloop
  endfacet
  facet normal 0 0 -1
    outer loop
      vertex -74.7393 64.5152 -26.416
      vertex 74.6127 64.5152 -26.416
      vertex 74.8658 64.5089 -26.416
    endloop
  endfacet
  facet normal 0.222782 0.974868 0
    outer loop
      vertex 75.3639 64.421 21.336
      vertex 75.1171 64.4774 21.336
      vertex 75.1171 64.4774 26.416
    endloop
  endfacet
  facet normal 0.124375 0.992235 0
    outer loop
      vertex 75.1171 64.4774 21.336
      vertex 75.1171 64.4774 -26.416
      vertex 74.8658 64.5089 -26.416
    endloop
  endfacet
  facet normal 0.124375 0.992235 -0
    outer loop
      vertex 74.8658 64.5089 -26.416
      vertex 74.8658 64.5089 26.416
      vertex 75.1171 64.4774 26.416
    endloop
  endfacet
  facet normal 0.0248836 0.99969 0
    outer loop
      vertex 74.6127 64.5152 26.416
      vertex 74.8658 64.5089 26.416
      vertex 74.8658 64.5089 -26.416
    endloop
  endfacet
  facet normal 0 0 1
    outer loop
      vertex 75.604 64.3404 26.416
      vertex 75.3639 64.421 26.416
      vertex 75.1171 64.4774 26.416
    endloop
  endfacet
  facet normal 0.318241 0.94801 -0
    outer loop
      vertex 75.3639 64.421 21.336
      vertex 75.3639 64.421 26.416
      vertex 75.604 64.3404 26.416
    endloop
  endfacet
  facet normal -0.27086 0.962619 0
    outer loop
      vertex -75.485 64.3837 26.416
      vertex -75.2412 64.4523 26.416
      vertex -75.2412 64.4523 21.336
    endloop
  endfacet
  facet normal 0 0 1
    outer loop
      vertex -74.7393 64.5152 26.416
      vertex -75.2412 64.4523 26.416
      vertex -75.485 64.3837 26.416
    endloop
  endfacet
  facet normal 0 0 -1
    outer loop
      vertex -75.485 64.3837 -26.416
      vertex -75.2412 64.4523 -26.416
      vertex -74.7393 64.5152 -26.416
    endloop
  endfacet
  facet normal -0.17374 0.984792 0
    outer loop
      vertex -75.2412 64.4523 26.416
      vertex -74.9918 64.4963 21.336
      vertex -75.2412 64.4523 21.336
    endloop
  endfacet
  facet normal -0.17374 -0.984792 0
    outer loop
      vertex -74.9918 -64.4963 -21.336
      vertex -75.2412 -64.4523 26.416
      vertex -75.2412 -64.4523 -21.336
    endloop
  endfacet
  facet normal -0.27086 -0.962619 0
    outer loop
      vertex -75.485 -64.3837 -26.416
      vertex -75.2412 -64.4523 -21.336
      vertex -75.485 -64.3837 26.416
    endloop
  endfacet
  facet normal -0.365322 -0.930881 -0
    outer loop
      vertex -75.485 -64.3837 26.416
      vertex -75.7207 -64.2912 26.416
      vertex -75.485 -64.3837 -26.416
    endloop
  endfacet
  facet normal -0.542613 -0.839983 0
    outer loop
      vertex -76.1587 -64.0383 -26.416
      vertex -75.946 -64.1757 -26.416
      vertex -75.946 -64.1757 21.336
    endloop
  endfacet
  facet normal 0 0 -1
    outer loop
      vertex 75.604 -64.3404 -26.416
      vertex 75.3639 -64.4211 -26.416
      vertex 74.6127 -64.5152 -26.416
    endloop
  endfacet
  facet normal 0.124375 -0.992235 0
    outer loop
      vertex 75.1171 -64.4774 -21.336
      vertex 75.1171 -64.4774 26.416
      vertex 74.8658 -64.5089 -21.336
    endloop
  endfacet
  facet normal 0.318596 -0.947891 0
    outer loop
      vertex 75.604 -64.3404 -21.336
      vertex 75.3639 -64.4211 -26.416
      vertex 75.604 -64.3404 -26.416
    endloop
  endfacet
  facet normal 0.318596 -0.947891 0
    outer loop
      vertex 75.604 -64.3404 26.416
      vertex 75.3639 -64.4211 -26.416
      vertex 75.604 -64.3404 -21.336
    endloop
  endfacet
  facet normal 0.969065 0.246807 0
    outer loop
      vertex 77.1031 62.7247 21.336
      vertex 77.1656 62.4793 26.416
      vertex 77.1031 62.7247 -26.416
    endloop
  endfacet
  facet normal 0.969065 0.246807 -0
    outer loop
      vertex 77.1031 62.7247 21.336
      vertex 77.1031 62.7247 26.416
      vertex 77.1656 62.4793 26.416
    endloop
  endfacet
  facet normal 0.939678 0.34206 -0
    outer loop
      vertex 77.1031 62.7247 -26.416
      vertex 77.0165 62.9626 21.336
      vertex 77.1031 62.7247 21.336
    endloop
  endfacet
  facet normal 0.901116 0.433578 0
    outer loop
      vertex 77.0165 62.9626 21.336
      vertex 77.0165 62.9626 -26.416
      vertex 76.9067 63.1908 -26.416
    endloop
  endfacet
  facet normal 0 0 1
    outer loop
      vertex 76.4495 -63.7943 26.416
      vertex 77.0165 -62.9626 26.416
      vertex 77.216 -61.976 26.416
    endloop
  endfacet
  facet normal 0.853106 -0.521738 0
    outer loop
      vertex 76.7746 -63.4068 26.416
      vertex 76.7746 -63.4068 -26.416
      vertex 76.9067 -63.1908 -26.416
    endloop
  endfacet
  facet normal 0.797196 0.603721 0
    outer loop
      vertex 76.7746 63.4068 21.336
      vertex 76.6217 63.6087 -26.416
      vertex 76.6217 63.6087 26.416
    endloop
  endfacet
  facet normal 0 0 -1
    outer loop
      vertex 76.6217 63.6087 -26.416
      vertex 76.7746 63.4068 -26.416
      vertex 76.9067 63.1908 -26.416
    endloop
  endfacet
  facet normal 0 0 1
    outer loop
      vertex -76.8434 63.3004 26.416
      vertex -76.9645 63.0781 26.416
      vertex -77.0628 62.8447 26.416
    endloop
  endfacet
  facet normal -0.878152 0.478382 0
    outer loop
      vertex -76.8434 63.3004 21.336
      vertex -76.9645 63.0781 -26.416
      vertex -76.8434 63.3004 26.416
    endloop
  endfacet
  facet normal -0.994994 0.0999339 0
    outer loop
      vertex -77.2129 62.1026 -26.416
      vertex -77.2129 62.1026 26.416
      vertex -77.1876 62.3545 26.416
    endloop
  endfacet
  facet normal 0 0 1
    outer loop
      vertex -77.0628 62.8447 26.416
      vertex -77.1876 62.3545 26.416
      vertex -77.2129 61.8494 26.416
    endloop
  endfacet
  facet normal -0.826236 -0.563325 -0
    outer loop
      vertex -76.8434 -63.3004 26.416
      vertex -76.8434 -63.3004 -26.416
      vertex -76.7007 -63.5097 -26.416
    endloop
  endfacet
  facet normal 0 0 1
    outer loop
      vertex -77.2129 -62.1026 26.416
      vertex -77.1375 -62.6028 26.416
      vertex -76.9645 -63.0781 26.416
    endloop
  endfacet
  facet normal 0 0 1
    outer loop
      vertex -75.485 64.3837 26.416
      vertex -75.946 64.1757 26.416
      vertex -76.3567 63.8804 26.416
    endloop
  endfacet
  facet normal -0.456196 0.889879 0
    outer loop
      vertex -75.946 64.1757 26.416
      vertex -75.7207 64.2912 21.336
      vertex -75.946 64.1757 -26.416
    endloop
  endfacet
  facet normal -0.0746427 0.99721 0
    outer loop
      vertex -74.7393 64.5152 -26.416
      vertex -74.9918 64.4963 -26.416
      vertex -74.9918 64.4963 21.336
    endloop
  endfacet
  facet normal 0 0 -1
    outer loop
      vertex -75.946 64.1757 -26.416
      vertex -75.485 64.3837 -26.416
      vertex -74.7393 64.5152 -26.416
    endloop
  endfacet
  facet normal -0.542613 0.839983 0
    outer loop
      vertex -76.1587 64.0383 -26.416
      vertex -76.1587 64.0383 26.416
      vertex -75.946 64.1757 26.416
    endloop
  endfacet
  facet normal -0.542613 0.839983 0
    outer loop
      vertex -75.946 64.1757 -26.416
      vertex -76.1587 64.0383 -26.416
      vertex -75.946 64.1757 26.416
    endloop
  endfacet
  facet normal 0.222406 -0.974954 0
    outer loop
      vertex 75.3639 -64.4211 -26.416
      vertex 75.1171 -64.4774 26.416
      vertex 75.1171 -64.4774 -21.336
    endloop
  endfacet
  facet normal 0 0 1
    outer loop
      vertex 75.1171 -64.4774 26.416
      vertex 75.3639 -64.4211 26.416
      vertex 75.604 -64.3404 26.416
    endloop
  endfacet
  facet normal 0.411153 -0.911566 0
    outer loop
      vertex 75.604 -64.3404 -26.416
      vertex 75.8348 -64.2363 -26.416
      vertex 75.8348 -64.2363 -21.336
    endloop
  endfacet
  facet normal 0.499962 -0.866047 0
    outer loop
      vertex 76.0541 -64.1097 -21.336
      vertex 76.0541 -64.1097 26.416
      vertex 75.8348 -64.2363 -21.336
    endloop
  endfacet
  facet normal 0 0 -1
    outer loop
      vertex 76.4495 -63.7943 -26.416
      vertex 76.0541 -64.1097 -26.416
      vertex 75.604 -64.3404 -26.416
    endloop
  endfacet
  facet normal 0 0 -1
    outer loop
      vertex 76.4495 -63.7943 -26.416
      vertex 76.2597 -63.9619 -26.416
      vertex 76.0541 -64.1097 -26.416
    endloop
  endfacet
  facet normal 0.661909 -0.749584 0
    outer loop
      vertex 76.4495 -63.7943 26.416
      vertex 76.2597 -63.9619 -21.336
      vertex 76.4495 -63.7943 -26.416
    endloop
  endfacet
  facet normal 0.583701 -0.811969 0
    outer loop
      vertex 76.2597 -63.9619 -21.336
      vertex 76.0541 -64.1097 26.416
      vertex 76.0541 -64.1097 -21.336
    endloop
  endfacet
  facet normal 0.661909 -0.749584 0
    outer loop
      vertex 76.4495 -63.7943 26.416
      vertex 76.2597 -63.9619 26.416
      vertex 76.2597 -63.9619 -21.336
    endloop
  endfacet
  facet normal 0 0 1
    outer loop
      vertex 75.604 -64.3404 26.416
      vertex 76.0541 -64.1097 26.416
      vertex 76.4495 -63.7943 26.416
    endloop
  endfacet
  facet normal 0 0 1
    outer loop
      vertex 77.1656 -62.4793 26.416
      vertex 77.2034 -62.2289 26.416
      vertex 77.216 -61.976 26.416
    endloop
  endfacet
  facet normal 0 -0 -1
    outer loop
      vertex 77.216 61.976 -26.416
      vertex 77.216 -61.976 -26.416
      vertex 77.1031 -62.7247 -26.416
    endloop
  endfacet
  facet normal 0.988797 0.149267 0
    outer loop
      vertex 77.2034 62.2289 21.336
      vertex 77.1656 62.4793 -26.416
      vertex 77.1656 62.4793 26.416
    endloop
  endfacet
  facet normal 0 0 -1
    outer loop
      vertex 77.1656 62.4793 -26.416
      vertex 77.2034 62.2289 -26.416
      vertex 77.216 61.976 -26.416
    endloop
  endfacet
  facet normal 0.500258 0.865876 0
    outer loop
      vertex 76.0541 64.1096 21.336
      vertex 76.0541 64.1096 -26.416
      vertex 75.8348 64.2363 -26.416
    endloop
  endfacet
  facet normal 0 0 -1
    outer loop
      vertex 75.604 64.3404 -26.416
      vertex 75.8348 64.2363 -26.416
      vertex 76.2597 63.9618 -26.416
    endloop
  endfacet
  facet normal 0.222782 0.974868 0
    outer loop
      vertex 75.3639 64.421 21.336
      vertex 75.1171 64.4774 -26.416
      vertex 75.1171 64.4774 21.336
    endloop
  endfacet
  facet normal 0 0 -1
    outer loop
      vertex 75.1171 64.4774 -26.416
      vertex 75.3639 64.421 -26.416
      vertex 75.604 64.3404 -26.416
    endloop
  endfacet
  facet normal -0.0746427 0.99721 0
    outer loop
      vertex -74.9918 64.4963 21.336
      vertex -74.9918 64.4963 26.416
      vertex -74.7393 64.5152 26.416
    endloop
  endfacet
  facet normal -0.17374 0.984792 0
    outer loop
      vertex -75.2412 64.4523 26.416
      vertex -74.9918 64.4963 26.416
      vertex -74.9918 64.4963 21.336
    endloop
  endfacet
  facet normal 0 0 -1
    outer loop
      vertex -74.7393 -64.5152 -26.416
      vertex -75.2412 -64.4523 -26.416
      vertex -75.485 -64.3837 -26.416
    endloop
  endfacet
  facet normal 0 0 -1
    outer loop
      vertex -74.7393 -64.5152 -26.416
      vertex -74.9918 -64.4963 -26.416
      vertex -75.2412 -64.4523 -26.416
    endloop
  endfacet
  facet normal -0.0746427 -0.99721 -0
    outer loop
      vertex -74.7393 -64.5152 26.416
      vertex -74.9918 -64.4963 -21.336
      vertex -74.7393 -64.5152 -26.416
    endloop
  endfacet
  facet normal -0.0746427 -0.99721 0
    outer loop
      vertex -74.7393 -64.5152 26.416
      vertex -74.9918 -64.4963 26.416
      vertex -74.9918 -64.4963 -21.336
    endloop
  endfacet
  facet normal 0 0 1
    outer loop
      vertex -75.485 -64.3837 26.416
      vertex -75.2412 -64.4523 26.416
      vertex -74.7393 -64.5152 26.416
    endloop
  endfacet
  facet normal -0.27086 -0.962619 0
    outer loop
      vertex -75.2412 -64.4523 -21.336
      vertex -75.2412 -64.4523 26.416
      vertex -75.485 -64.3837 26.416
    endloop
  endfacet
  facet normal -0.456196 -0.889879 0
    outer loop
      vertex -75.7207 -64.2912 26.416
      vertex -75.946 -64.1757 26.416
      vertex -75.946 -64.1757 21.336
    endloop
  endfacet
  facet normal 0 0 -1
    outer loop
      vertex -76.1587 -64.0383 -26.416
      vertex -76.538 -63.7036 -26.416
      vertex -76.7007 -63.5097 -26.416
    endloop
  endfacet
  facet normal 0 0 1
    outer loop
      vertex -76.3567 -63.8805 26.416
      vertex -75.7207 -64.2912 26.416
      vertex -75.485 -64.3837 26.416
    endloop
  endfacet
  facet normal 0 0 1
    outer loop
      vertex -76.3567 -63.8805 26.416
      vertex -76.1587 -64.0383 26.416
      vertex -75.7207 -64.2912 26.416
    endloop
  endfacet
  facet normal 0.222406 -0.974954 0
    outer loop
      vertex 75.1171 -64.4774 -21.336
      vertex 75.1171 -64.4774 -26.416
      vertex 75.3639 -64.4211 -26.416
    endloop
  endfacet
  facet normal 0.124375 -0.992235 0
    outer loop
      vertex 74.8658 -64.5089 -21.336
      vertex 75.1171 -64.4774 -26.416
      vertex 75.1171 -64.4774 -21.336
    endloop
  endfacet
  facet normal 0.998761 0.0497603 -0
    outer loop
      vertex 77.2034 62.2289 21.336
      vertex 77.2034 62.2289 26.416
      vertex 77.216 61.976 26.416
    endloop
  endfacet
  facet normal 0.988797 0.149267 0
    outer loop
      vertex 77.1656 62.4793 26.416
      vertex 77.2034 62.2289 26.416
      vertex 77.2034 62.2289 21.336
    endloop
  endfacet
  facet normal 0.901116 0.433578 0
    outer loop
      vertex 76.9067 63.1908 26.416
      vertex 77.0165 62.9626 26.416
      vertex 77.0165 62.9626 21.336
    endloop
  endfacet
  facet normal 0 0 1
    outer loop
      vertex 77.1656 62.4793 26.416
      vertex 77.0165 62.9626 26.416
      vertex 76.9067 63.1908 26.416
    endloop
  endfacet
  facet normal 0.939678 0.34206 0
    outer loop
      vertex 77.1031 62.7247 -26.416
      vertex 77.0165 62.9626 -26.416
      vertex 77.0165 62.9626 21.336
    endloop
  endfacet
  facet normal 0 0 -1
    outer loop
      vertex 76.9067 63.1908 -26.416
      vertex 77.0165 62.9626 -26.416
      vertex 77.1031 62.7247 -26.416
    endloop
  endfacet
  facet normal 0 0 -1
    outer loop
      vertex 77.1031 -62.7247 -26.416
      vertex 76.9067 -63.1908 -26.416
      vertex 76.4495 -63.7943 -26.416
    endloop
  endfacet
  facet normal 0.901116 -0.433578 0
    outer loop
      vertex 76.9067 -63.1908 -26.416
      vertex 77.0165 -62.9626 -26.416
      vertex 77.0165 -62.9626 26.416
    endloop
  endfacet
  facet normal 0.998761 -0.0497603 0
    outer loop
      vertex 77.216 -61.976 26.416
      vertex 77.2034 -62.2289 26.416
      vertex 77.216 -61.976 -26.416
    endloop
  endfacet
  facet normal 0 0 1
    outer loop
      vertex 77.0165 -62.9626 26.416
      vertex 77.1656 -62.4793 26.416
      vertex 77.216 -61.976 26.416
    endloop
  endfacet
  facet normal 0.661687 0.74978 0
    outer loop
      vertex 76.4495 63.7943 21.336
      vertex 76.4495 63.7943 -26.416
      vertex 76.2597 63.9618 -26.416
    endloop
  endfacet
  facet normal 0.733075 0.680148 0
    outer loop
      vertex 76.6217 63.6087 -26.416
      vertex 76.4495 63.7943 -26.416
      vertex 76.4495 63.7943 21.336
    endloop
  endfacet
  facet normal 0.797196 0.603721 0
    outer loop
      vertex 76.7746 63.4068 21.336
      vertex 76.7746 63.4068 -26.416
      vertex 76.6217 63.6087 -26.416
    endloop
  endfacet
  facet normal 0.853106 0.521738 0
    outer loop
      vertex 76.9067 63.1908 -26.416
      vertex 76.7746 63.4068 -26.416
      vertex 76.7746 63.4068 21.336
    endloop
  endfacet
  facet normal 0 0 1
    outer loop
      vertex -76.3567 63.8804 26.416
      vertex -76.538 63.7036 26.416
      vertex -76.8434 63.3004 26.416
    endloop
  endfacet
  facet normal -0.82611 0.563508 0
    outer loop
      vertex -76.7007 63.5096 21.336
      vertex -76.7007 63.5096 -26.416
      vertex -76.8434 63.3004 21.336
    endloop
  endfacet
  facet normal -0.698166 0.715936 0
    outer loop
      vertex -76.3567 63.8804 -26.416
      vertex -76.538 63.7036 21.336
      vertex -76.3567 63.8804 26.416
    endloop
  endfacet
  facet normal -0.698166 0.715936 0
    outer loop
      vertex -76.538 63.7036 21.336
      vertex -76.538 63.7036 26.416
      vertex -76.3567 63.8804 26.416
    endloop
  endfacet
  facet normal 0 0 -1
    outer loop
      vertex -77.2129 62.1026 -26.416
      vertex -76.9645 63.0781 -26.416
      vertex -76.3567 63.8804 -26.416
    endloop
  endfacet
  facet normal 0 0 -1
    outer loop
      vertex -77.2129 62.1026 -26.416
      vertex -77.0628 62.8447 -26.416
      vertex -76.9645 63.0781 -26.416
    endloop
  endfacet
  facet normal -0.98023 0.197863 0
    outer loop
      vertex -77.1375 62.6027 21.336
      vertex -77.1876 62.3545 21.336
      vertex -77.1876 62.3545 26.416
    endloop
  endfacet
  facet normal -0.955514 0.294946 0
    outer loop
      vertex -77.1375 62.6027 21.336
      vertex -77.1375 62.6027 26.416
      vertex -77.0628 62.8447 26.416
    endloop
  endfacet
  facet normal -1 0 0
    outer loop
      vertex -77.2129 61.8494 26.416
      vertex -77.2129 62.1026 26.416
      vertex -77.2129 62.1026 -26.416
    endloop
  endfacet
  facet normal 0 0 1
    outer loop
      vertex -77.1876 62.3545 26.416
      vertex -77.2129 62.1026 26.416
      vertex -77.2129 61.8494 26.416
    endloop
  endfacet
  facet normal 0 0 1
    outer loop
      vertex -76.9645 -63.0781 26.416
      vertex -76.7007 -63.5097 26.416
      vertex -76.3567 -63.8805 26.416
    endloop
  endfacet
  facet normal -0.826236 -0.563325 -0
    outer loop
      vertex -76.7007 -63.5097 26.416
      vertex -76.8434 -63.3004 26.416
      vertex -76.7007 -63.5097 -26.416
    endloop
  endfacet
  facet normal -0.994998 -0.0998946 0
    outer loop
      vertex -77.2129 -62.1026 -26.416
      vertex -77.1876 -62.3546 26.416
      vertex -77.2129 -62.1026 26.416
    endloop
  endfacet
  facet normal -0.878152 -0.478382 0
    outer loop
      vertex -76.9645 -63.0781 26.416
      vertex -76.8434 -63.3004 -26.416
      vertex -76.8434 -63.3004 26.416
    endloop
  endfacet
  facet normal -0.365322 0.930881 0
    outer loop
      vertex -75.485 64.3837 -26.416
      vertex -75.7207 64.2912 21.336
      vertex -75.485 64.3837 26.416
    endloop
  endfacet
  facet normal -0.456196 0.889879 0
    outer loop
      vertex -75.7207 64.2912 21.336
      vertex -75.7207 64.2912 -26.416
      vertex -75.946 64.1757 -26.416
    endloop
  endfacet
  facet normal -0.27086 0.962619 0
    outer loop
      vertex -75.2412 64.4523 21.336
      vertex -75.2412 64.4523 -26.416
      vertex -75.485 64.3837 -26.416
    endloop
  endfacet
  facet normal -0.17374 0.984792 0
    outer loop
      vertex -74.9918 64.4963 21.336
      vertex -75.2412 64.4523 -26.416
      vertex -75.2412 64.4523 21.336
    endloop
  endfacet
  facet normal -0.62349 0.781831 0
    outer loop
      vertex -76.3567 63.8804 26.416
      vertex -76.1587 64.0383 26.416
      vertex -76.1587 64.0383 -26.416
    endloop
  endfacet
  facet normal 0 0 1
    outer loop
      vertex -75.946 64.1757 26.416
      vertex -76.1587 64.0383 26.416
      vertex -76.3567 63.8804 26.416
    endloop
  endfacet
  facet normal 0 0 1
    outer loop
      vertex 74.6127 -64.5152 26.416
      vertex 74.8658 -64.5089 26.416
      vertex 75.1171 -64.4774 26.416
    endloop
  endfacet
  facet normal 0.0248836 -0.99969 0
    outer loop
      vertex 74.8658 -64.5089 -21.336
      vertex 74.8658 -64.5089 26.416
      vertex 74.6127 -64.5152 26.416
    endloop
  endfacet
  facet normal 0.222406 -0.974954 0
    outer loop
      vertex 75.3639 -64.4211 -26.416
      vertex 75.3639 -64.4211 26.416
      vertex 75.1171 -64.4774 26.416
    endloop
  endfacet
  facet normal 0.318596 -0.947891 0
    outer loop
      vertex 75.604 -64.3404 26.416
      vertex 75.3639 -64.4211 26.416
      vertex 75.3639 -64.4211 -26.416
    endloop
  endfacet
  facet normal 0 0 -1
    outer loop
      vertex 76.0541 -64.1097 -26.416
      vertex 75.8348 -64.2363 -26.416
      vertex 75.604 -64.3404 -26.416
    endloop
  endfacet
  facet normal 0.499962 -0.866047 0
    outer loop
      vertex 75.8348 -64.2363 -21.336
      vertex 75.8348 -64.2363 -26.416
      vertex 76.0541 -64.1097 -26.416
    endloop
  endfacet
  facet normal 0.661909 -0.749584 0
    outer loop
      vertex 76.2597 -63.9619 -21.336
      vertex 76.2597 -63.9619 -26.416
      vertex 76.4495 -63.7943 -26.416
    endloop
  endfacet
  facet normal 0.583701 -0.811969 0
    outer loop
      vertex 76.0541 -64.1097 -26.416
      vertex 76.2597 -63.9619 -26.416
      vertex 76.2597 -63.9619 -21.336
    endloop
  endfacet
  facet normal 0.499962 -0.866047 0
    outer loop
      vertex 76.0541 -64.1097 26.416
      vertex 75.8348 -64.2363 26.416
      vertex 75.8348 -64.2363 -21.336
    endloop
  endfacet
  facet normal 0 0 1
    outer loop
      vertex 75.604 -64.3404 26.416
      vertex 75.8348 -64.2363 26.416
      vertex 76.0541 -64.1097 26.416
    endloop
  endfacet
  facet normal 0 0 1
    outer loop
      vertex 76.0541 -64.1097 26.416
      vertex 76.2597 -63.9619 26.416
      vertex 76.4495 -63.7943 26.416
    endloop
  endfacet
  facet normal 0.583701 -0.811969 0
    outer loop
      vertex 76.2597 -63.9619 -21.336
      vertex 76.2597 -63.9619 26.416
      vertex 76.0541 -64.1097 26.416
    endloop
  endfacet
  facet normal 0.988797 0.149267 0
    outer loop
      vertex 77.2034 62.2289 21.336
      vertex 77.2034 62.2289 -26.416
      vertex 77.1656 62.4793 -26.416
    endloop
  endfacet
  facet normal 0.998761 0.0497603 0
    outer loop
      vertex 77.216 61.976 -26.416
      vertex 77.2034 62.2289 -26.416
      vertex 77.2034 62.2289 21.336
    endloop
  endfacet
  facet normal 0.583701 0.811969 0
    outer loop
      vertex 76.2597 63.9618 -26.416
      vertex 76.0541 64.1096 -26.416
      vertex 76.0541 64.1096 21.336
    endloop
  endfacet
  facet normal 0 0 -1
    outer loop
      vertex 75.8348 64.2363 -26.416
      vertex 76.0541 64.1096 -26.416
      vertex 76.2597 63.9618 -26.416
    endloop
  endfacet
  facet normal 0.222782 0.974868 0
    outer loop
      vertex 75.3639 64.421 21.336
      vertex 75.3639 64.421 -26.416
      vertex 75.1171 64.4774 -26.416
    endloop
  endfacet
  facet normal 0.318241 0.94801 0
    outer loop
      vertex 75.604 64.3404 -26.416
      vertex 75.3639 64.421 -26.416
      vertex 75.3639 64.421 21.336
    endloop
  endfacet
  facet normal -0.0746427 -0.99721 -0
    outer loop
      vertex -74.9918 -64.4963 -21.336
      vertex -74.9918 -64.4963 -26.416
      vertex -74.7393 -64.5152 -26.416
    endloop
  endfacet
  facet normal -0.17374 -0.984792 0
    outer loop
      vertex -75.2412 -64.4523 -26.416
      vertex -74.9918 -64.4963 -26.416
      vertex -74.9918 -64.4963 -21.336
    endloop
  endfacet
  facet normal 0 0 1
    outer loop
      vertex -75.2412 -64.4523 26.416
      vertex -74.9918 -64.4963 26.416
      vertex -74.7393 -64.5152 26.416
    endloop
  endfacet
  facet normal -0.17374 -0.984792 0
    outer loop
      vertex -74.9918 -64.4963 -21.336
      vertex -74.9918 -64.4963 26.416
      vertex -75.2412 -64.4523 26.416
    endloop
  endfacet
  facet normal -0.456196 -0.889879 0
    outer loop
      vertex -75.946 -64.1757 -26.416
      vertex -75.7207 -64.2912 -26.416
      vertex -75.7207 -64.2912 26.416
    endloop
  endfacet
  facet normal -0.456196 -0.889879 -0
    outer loop
      vertex -75.946 -64.1757 21.336
      vertex -75.946 -64.1757 -26.416
      vertex -75.7207 -64.2912 26.416
    endloop
  endfacet
  facet normal -0.623249 -0.782023 0
    outer loop
      vertex -76.1587 -64.0383 -26.416
      vertex -76.1587 -64.0383 26.416
      vertex -76.3567 -63.8805 26.416
    endloop
  endfacet
  facet normal -0.542613 -0.839983 0
    outer loop
      vertex -75.946 -64.1757 21.336
      vertex -76.1587 -64.0383 26.416
      vertex -76.1587 -64.0383 -26.416
    endloop
  endfacet
  facet normal -0.766047 -0.642784 0
    outer loop
      vertex -76.538 -63.7036 -26.416
      vertex -76.538 -63.7036 26.416
      vertex -76.7007 -63.5097 26.416
    endloop
  endfacet
  facet normal -0.766047 -0.642784 0
    outer loop
      vertex -76.7007 -63.5097 -26.416
      vertex -76.538 -63.7036 -26.416
      vertex -76.7007 -63.5097 26.416
    endloop
  endfacet
  facet normal 0 0 -1
    outer loop
      vertex 75.1171 -64.4774 -26.416
      vertex 74.8658 -64.5089 -26.416
      vertex 74.6127 -64.5152 -26.416
    endloop
  endfacet
  facet normal 0.124375 -0.992235 0
    outer loop
      vertex 74.8658 -64.5089 -21.336
      vertex 74.8658 -64.5089 -26.416
      vertex 75.1171 -64.4774 -26.416
    endloop
  endfacet
  facet normal 0.939678 0.34206 0
    outer loop
      vertex 77.0165 62.9626 26.416
      vertex 77.1031 62.7247 26.416
      vertex 77.1031 62.7247 21.336
    endloop
  endfacet
  facet normal 0 0 1
    outer loop
      vertex 77.1656 62.4793 26.416
      vertex 77.1031 62.7247 26.416
      vertex 77.0165 62.9626 26.416
    endloop
  endfacet
  facet normal 0 0 1
    outer loop
      vertex 76.4495 -63.7943 26.416
      vertex 76.6217 -63.6087 26.416
      vertex 76.7746 -63.4068 26.416
    endloop
  endfacet
  facet normal 0 0 1
    outer loop
      vertex 76.7746 -63.4068 26.416
      vertex 76.9067 -63.1908 26.416
      vertex 77.0165 -62.9626 26.416
    endloop
  endfacet
  facet normal 0 0 -1
    outer loop
      vertex 77.1031 -62.7247 -26.416
      vertex 77.0165 -62.9626 -26.416
      vertex 76.9067 -63.1908 -26.416
    endloop
  endfacet
  facet normal 0.939678 -0.34206 0
    outer loop
      vertex 77.0165 -62.9626 26.416
      vertex 77.0165 -62.9626 -26.416
      vertex 77.1031 -62.7247 -26.416
    endloop
  endfacet
  facet normal 0.969065 -0.246807 0
    outer loop
      vertex 77.1656 -62.4793 26.416
      vertex 77.1031 -62.7247 26.416
      vertex 77.1031 -62.7247 -26.416
    endloop
  endfacet
  facet normal 0 0 1
    outer loop
      vertex 77.0165 -62.9626 26.416
      vertex 77.1031 -62.7247 26.416
      vertex 77.1656 -62.4793 26.416
    endloop
  endfacet
  facet normal 0.969065 -0.246807 0
    outer loop
      vertex 77.1031 -62.7247 -26.416
      vertex 77.1656 -62.4793 -26.416
      vertex 77.1656 -62.4793 26.416
    endloop
  endfacet
  facet normal 0 0 -1
    outer loop
      vertex 77.216 -61.976 -26.416
      vertex 77.1656 -62.4793 -26.416
      vertex 77.1031 -62.7247 -26.416
    endloop
  endfacet
  facet normal 0.988797 -0.149267 0
    outer loop
      vertex 77.1656 -62.4793 -26.416
      vertex 77.2034 -62.2289 26.416
      vertex 77.1656 -62.4793 26.416
    endloop
  endfacet
  facet normal 0.998761 -0.0497603 0
    outer loop
      vertex 77.2034 -62.2289 26.416
      vertex 77.2034 -62.2289 -26.416
      vertex 77.216 -61.976 -26.416
    endloop
  endfacet
  facet normal -0.76621 0.64259 0
    outer loop
      vertex -76.538 63.7036 21.336
      vertex -76.7007 63.5096 -26.416
      vertex -76.7007 63.5096 21.336
    endloop
  endfacet
  facet normal -0.698166 0.715936 0
    outer loop
      vertex -76.3567 63.8804 -26.416
      vertex -76.538 63.7036 -26.416
      vertex -76.538 63.7036 21.336
    endloop
  endfacet
  facet normal -0.76621 0.64259 0
    outer loop
      vertex -76.7007 63.5096 21.336
      vertex -76.538 63.7036 26.416
      vertex -76.538 63.7036 21.336
    endloop
  endfacet
  facet normal 0 0 1
    outer loop
      vertex -76.538 63.7036 26.416
      vertex -76.7007 63.5096 26.416
      vertex -76.8434 63.3004 26.416
    endloop
  endfacet
  facet normal -0.878152 0.478382 0
    outer loop
      vertex -76.9645 63.0781 -26.416
      vertex -76.9645 63.0781 26.416
      vertex -76.8434 63.3004 26.416
    endloop
  endfacet
  facet normal -0.921598 0.388145 0
    outer loop
      vertex -77.0628 62.8447 26.416
      vertex -76.9645 63.0781 26.416
      vertex -76.9645 63.0781 -26.416
    endloop
  endfacet
  facet normal -0.955514 0.294946 0
    outer loop
      vertex -77.0628 62.8447 -26.416
      vertex -77.1375 62.6027 -26.416
      vertex -77.1375 62.6027 21.336
    endloop
  endfacet
  facet normal -0.955514 0.294946 0
    outer loop
      vertex -77.0628 62.8447 26.416
      vertex -77.0628 62.8447 -26.416
      vertex -77.1375 62.6027 21.336
    endloop
  endfacet
  facet normal 0 0 -1
    outer loop
      vertex -77.2129 62.1026 -26.416
      vertex -77.1375 62.6027 -26.416
      vertex -77.0628 62.8447 -26.416
    endloop
  endfacet
  facet normal -0.994994 0.0999339 0
    outer loop
      vertex -77.1876 62.3545 26.416
      vertex -77.1876 62.3545 21.336
      vertex -77.2129 62.1026 -26.416
    endloop
  endfacet
  facet normal -0.98023 0.197863 0
    outer loop
      vertex -77.1876 62.3545 26.416
      vertex -77.1375 62.6027 26.416
      vertex -77.1375 62.6027 21.336
    endloop
  endfacet
  facet normal 0 0 1
    outer loop
      vertex -77.0628 62.8447 26.416
      vertex -77.1375 62.6027 26.416
      vertex -77.1876 62.3545 26.416
    endloop
  endfacet
  facet normal 0 0 1
    outer loop
      vertex -76.9645 -63.0781 26.416
      vertex -76.8434 -63.3004 26.416
      vertex -76.7007 -63.5097 26.416
    endloop
  endfacet
  facet normal 0 0 1
    outer loop
      vertex -77.1375 -62.6028 26.416
      vertex -77.0628 -62.8447 26.416
      vertex -76.9645 -63.0781 26.416
    endloop
  endfacet
  facet normal -0.98023 -0.197863 0
    outer loop
      vertex -77.1876 -62.3546 26.416
      vertex -77.1375 -62.6028 -26.416
      vertex -77.1375 -62.6028 26.416
    endloop
  endfacet
  facet normal 0 0 -1
    outer loop
      vertex -76.7007 -63.5097 -26.416
      vertex -77.0628 -62.8447 -26.416
      vertex -77.2129 -62.1026 -26.416
    endloop
  endfacet
  facet normal -0.98023 -0.197863 -0
    outer loop
      vertex -77.1876 -62.3546 26.416
      vertex -77.1876 -62.3546 -26.416
      vertex -77.1375 -62.6028 -26.416
    endloop
  endfacet
  facet normal 0 0 1
    outer loop
      vertex -77.2129 -62.1026 26.416
      vertex -77.1876 -62.3546 26.416
      vertex -77.1375 -62.6028 26.416
    endloop
  endfacet
  facet normal -0.365322 0.930881 0
    outer loop
      vertex -75.7207 64.2912 21.336
      vertex -75.7207 64.2912 26.416
      vertex -75.485 64.3837 26.416
    endloop
  endfacet
  facet normal -0.456196 0.889879 0
    outer loop
      vertex -75.946 64.1757 26.416
      vertex -75.7207 64.2912 26.416
      vertex -75.7207 64.2912 21.336
    endloop
  endfacet
  facet normal -0.365322 0.930881 0
    outer loop
      vertex -75.485 64.3837 -26.416
      vertex -75.7207 64.2912 -26.416
      vertex -75.7207 64.2912 21.336
    endloop
  endfacet
  facet normal 0 0 -1
    outer loop
      vertex -75.946 64.1757 -26.416
      vertex -75.7207 64.2912 -26.416
      vertex -75.485 64.3837 -26.416
    endloop
  endfacet
  facet normal 0 0 -1
    outer loop
      vertex -75.2412 64.4523 -26.416
      vertex -74.9918 64.4963 -26.416
      vertex -74.7393 64.5152 -26.416
    endloop
  endfacet
  facet normal -0.17374 0.984792 0
    outer loop
      vertex -74.9918 64.4963 21.336
      vertex -74.9918 64.4963 -26.416
      vertex -75.2412 64.4523 -26.416
    endloop
  endfacet
  facet normal 0 0 -1
    outer loop
      vertex -75.485 -64.3837 -26.416
      vertex -75.7207 -64.2912 -26.416
      vertex -75.946 -64.1757 -26.416
    endloop
  endfacet
  facet normal -0.365322 -0.930881 -0
    outer loop
      vertex -75.7207 -64.2912 26.416
      vertex -75.7207 -64.2912 -26.416
      vertex -75.485 -64.3837 -26.416
    endloop
  endfacet
  facet normal 0 0 1
    outer loop
      vertex -76.1587 -64.0383 26.416
      vertex -75.946 -64.1757 26.416
      vertex -75.7207 -64.2912 26.416
    endloop
  endfacet
  facet normal -0.542613 -0.839983 0
    outer loop
      vertex -75.946 -64.1757 21.336
      vertex -75.946 -64.1757 26.416
      vertex -76.1587 -64.0383 26.416
    endloop
  endfacet
  facet normal -0.698368 -0.715739 0
    outer loop
      vertex -76.538 -63.7036 -26.416
      vertex -76.3567 -63.8805 -26.416
      vertex -76.3567 -63.8805 26.416
    endloop
  endfacet
  facet normal 0 0 -1
    outer loop
      vertex -76.1587 -64.0383 -26.416
      vertex -76.3567 -63.8805 -26.416
      vertex -76.538 -63.7036 -26.416
    endloop
  endfacet
  facet normal -0.698368 -0.715739 0
    outer loop
      vertex -76.3567 -63.8805 26.416
      vertex -76.538 -63.7036 26.416
      vertex -76.538 -63.7036 -26.416
    endloop
  endfacet
  facet normal 0 0 1
    outer loop
      vertex -76.7007 -63.5097 26.416
      vertex -76.538 -63.7036 26.416
      vertex -76.3567 -63.8805 26.416
    endloop
  endfacet
  facet normal 0.733075 -0.680148 0
    outer loop
      vertex 76.4495 -63.7943 -26.416
      vertex 76.6217 -63.6087 21.336
      vertex 76.4495 -63.7943 26.416
    endloop
  endfacet
  facet normal 0.797196 -0.603721 0
    outer loop
      vertex 76.6217 -63.6087 21.336
      vertex 76.7746 -63.4068 -26.416
      vertex 76.7746 -63.4068 26.416
    endloop
  endfacet
  facet normal 0.853106 -0.521738 0
    outer loop
      vertex 76.9067 -63.1908 -26.416
      vertex 76.9067 -63.1908 26.416
      vertex 76.7746 -63.4068 26.416
    endloop
  endfacet
  facet normal 0.901116 -0.433578 0
    outer loop
      vertex 77.0165 -62.9626 26.416
      vertex 76.9067 -63.1908 26.416
      vertex 76.9067 -63.1908 -26.416
    endloop
  endfacet
  facet normal 0.988797 -0.149267 0
    outer loop
      vertex 77.1656 -62.4793 -26.416
      vertex 77.2034 -62.2289 -26.416
      vertex 77.2034 -62.2289 26.416
    endloop
  endfacet
  facet normal 0 0 -1
    outer loop
      vertex 77.216 -61.976 -26.416
      vertex 77.2034 -62.2289 -26.416
      vertex 77.1656 -62.4793 -26.416
    endloop
  endfacet
  facet normal 0 0 -1
    outer loop
      vertex -76.9645 63.0781 -26.416
      vertex -76.7007 63.5096 -26.416
      vertex -76.3567 63.8804 -26.416
    endloop
  endfacet
  facet normal -0.82611 0.563508 0
    outer loop
      vertex -76.7007 63.5096 -26.416
      vertex -76.8434 63.3004 -26.416
      vertex -76.8434 63.3004 21.336
    endloop
  endfacet
  facet normal -0.76621 0.64259 0
    outer loop
      vertex -76.7007 63.5096 21.336
      vertex -76.7007 63.5096 26.416
      vertex -76.538 63.7036 26.416
    endloop
  endfacet
  facet normal -0.82611 0.563508 0
    outer loop
      vertex -76.8434 63.3004 26.416
      vertex -76.7007 63.5096 26.416
      vertex -76.7007 63.5096 21.336
    endloop
  endfacet
  facet normal -0.98023 0.197863 0
    outer loop
      vertex -77.1375 62.6027 -26.416
      vertex -77.1876 62.3545 -26.416
      vertex -77.1876 62.3545 21.336
    endloop
  endfacet
  facet normal -0.98023 0.197863 0
    outer loop
      vertex -77.1375 62.6027 21.336
      vertex -77.1375 62.6027 -26.416
      vertex -77.1876 62.3545 21.336
    endloop
  endfacet
  facet normal -0.921598 -0.388145 0
    outer loop
      vertex -77.0628 -62.8447 -26.416
      vertex -76.9645 -63.0781 -26.416
      vertex -76.9645 -63.0781 26.416
    endloop
  endfacet
  facet normal 0 0 -1
    outer loop
      vertex -76.7007 -63.5097 -26.416
      vertex -76.8434 -63.3004 -26.416
      vertex -77.0628 -62.8447 -26.416
    endloop
  endfacet
  facet normal -0.95548 -0.295057 0
    outer loop
      vertex -77.0628 -62.8447 -26.416
      vertex -77.0628 -62.8447 26.416
      vertex -77.1375 -62.6028 26.416
    endloop
  endfacet
  facet normal -0.921598 -0.388145 0
    outer loop
      vertex -76.9645 -63.0781 26.416
      vertex -77.0628 -62.8447 26.416
      vertex -77.0628 -62.8447 -26.416
    endloop
  endfacet
  facet normal 0 0 -1
    outer loop
      vertex -77.0628 -62.8447 -26.416
      vertex -77.1375 -62.6028 -26.416
      vertex -77.2129 -62.1026 -26.416
    endloop
  endfacet
  facet normal -0.95548 -0.295057 -0
    outer loop
      vertex -77.1375 -62.6028 26.416
      vertex -77.1375 -62.6028 -26.416
      vertex -77.0628 -62.8447 -26.416
    endloop
  endfacet
  facet normal 0.797196 -0.603721 0
    outer loop
      vertex 76.6217 -63.6087 21.336
      vertex 76.6217 -63.6087 -26.416
      vertex 76.7746 -63.4068 -26.416
    endloop
  endfacet
  facet normal 0 0 -1
    outer loop
      vertex 76.9067 -63.1908 -26.416
      vertex 76.7746 -63.4068 -26.416
      vertex 76.4495 -63.7943 -26.416
    endloop
  endfacet
  facet normal 0.733075 -0.680148 0
    outer loop
      vertex 76.6217 -63.6087 21.336
      vertex 76.6217 -63.6087 26.416
      vertex 76.4495 -63.7943 26.416
    endloop
  endfacet
  facet normal 0.797196 -0.603721 0
    outer loop
      vertex 76.7746 -63.4068 26.416
      vertex 76.6217 -63.6087 26.416
      vertex 76.6217 -63.6087 21.336
    endloop
  endfacet
  facet normal 0 0 -1
    outer loop
      vertex -76.7007 63.5096 -26.416
      vertex -76.538 63.7036 -26.416
      vertex -76.3567 63.8804 -26.416
    endloop
  endfacet
  facet normal -0.76621 0.64259 0
    outer loop
      vertex -76.538 63.7036 21.336
      vertex -76.538 63.7036 -26.416
      vertex -76.7007 63.5096 -26.416
    endloop
  endfacet
  facet normal 0 0 -1
    outer loop
      vertex -76.9645 63.0781 -26.416
      vertex -76.8434 63.3004 -26.416
      vertex -76.7007 63.5096 -26.416
    endloop
  endfacet
  facet normal -0.878152 0.478382 0
    outer loop
      vertex -76.8434 63.3004 21.336
      vertex -76.8434 63.3004 -26.416
      vertex -76.9645 63.0781 -26.416
    endloop
  endfacet
  facet normal 0 0 -1
    outer loop
      vertex -77.2129 62.1026 -26.416
      vertex -77.1876 62.3545 -26.416
      vertex -77.1375 62.6027 -26.416
    endloop
  endfacet
  facet normal -0.994994 0.0999339 0
    outer loop
      vertex -77.1876 62.3545 21.336
      vertex -77.1876 62.3545 -26.416
      vertex -77.2129 62.1026 -26.416
    endloop
  endfacet
  facet normal 0 0 -1
    outer loop
      vertex -76.8434 -63.3004 -26.416
      vertex -76.9645 -63.0781 -26.416
      vertex -77.0628 -62.8447 -26.416
    endloop
  endfacet
  facet normal -0.878152 -0.478382 -0
    outer loop
      vertex -76.9645 -63.0781 26.416
      vertex -76.9645 -63.0781 -26.416
      vertex -76.8434 -63.3004 -26.416
    endloop
  endfacet
  facet normal -0.994998 -0.0998946 0
    outer loop
      vertex -77.2129 -62.1026 -26.416
      vertex -77.1876 -62.3546 -26.416
      vertex -77.1876 -62.3546 26.416
    endloop
  endfacet
  facet normal 0 0 -1
    outer loop
      vertex -77.1375 -62.6028 -26.416
      vertex -77.1876 -62.3546 -26.416
      vertex -77.2129 -62.1026 -26.416
    endloop
  endfacet
  facet normal 0.733075 -0.680148 0
    outer loop
      vertex 76.4495 -63.7943 -26.416
      vertex 76.6217 -63.6087 -26.416
      vertex 76.6217 -63.6087 21.336
    endloop
  endfacet
  facet normal 0 0 -1
    outer loop
      vertex 76.7746 -63.4068 -26.416
      vertex 76.6217 -63.6087 -26.416
      vertex 76.4495 -63.7943 -26.416
    endloop
  endfacet
endsolid OpenSCAD_Model
