solid OpenSCAD_Model
  facet normal 0 0 1
    outer loop
      vertex 77.1298 57.7667 6.35
      vertex -77.5708 57.0027 6.35
      vertex 77.1298 -57.7667 6.35
    endloop
  endfacet
  facet normal 0.901116 0.433578 0
    outer loop
      vertex 77.5245 57.1206 6.35
      vertex 77.5245 57.1206 -6.35
      vertex 77.4147 57.3488 -6.35
    endloop
  endfacet
  facet normal 0.853106 0.521738 0
    outer loop
      vertex 77.4147 57.3488 1.26998
      vertex 77.4147 57.3488 -6.35
      vertex 77.2826 57.5648 1.26998
    endloop
  endfacet
  facet normal -0 0 -1
    outer loop
      vertex 75.3738 -58.6669 -6.35
      vertex -75.2473 -58.6732 -6.35
      vertex -76.6667 -58.1963 -6.35
    endloop
  endfacet
  facet normal 0 0 1
    outer loop
      vertex 77.1298 57.7667 6.35
      vertex -75.2473 58.6732 6.35
      vertex -77.5708 57.0027 6.35
    endloop
  endfacet
  facet normal 0.732878 0.68036 0
    outer loop
      vertex 77.1298 57.7667 6.35
      vertex 77.1298 57.7667 1.26998
      vertex 76.9575 57.9523 1.26998
    endloop
  endfacet
  facet normal 1 0 0
    outer loop
      vertex 77.724 56.134 6.35
      vertex 77.724 -56.134 1.26998
      vertex 77.724 56.134 -6.35
    endloop
  endfacet
  facet normal 0.998761 0.0497603 0
    outer loop
      vertex 77.724 56.134 6.35
      vertex 77.724 56.134 -6.35
      vertex 77.7114 56.3869 1.26998
    endloop
  endfacet
  facet normal 0 0 1
    outer loop
      vertex 77.6111 56.8827 6.35
      vertex 77.4147 57.3488 6.35
      vertex 77.1298 57.7667 6.35
    endloop
  endfacet
  facet normal 0.988797 0.149267 0
    outer loop
      vertex 77.7114 56.3869 -1.27
      vertex 77.6736 56.6373 -6.35
      vertex 77.6736 56.6373 -1.27
    endloop
  endfacet
  facet normal 0 0 -1
    outer loop
      vertex 76.112 58.4984 -6.35
      vertex 76.562 58.2677 -6.35
      vertex 76.7677 58.1198 -6.35
    endloop
  endfacet
  facet normal 0 0 1
    outer loop
      vertex 77.1298 57.7667 6.35
      vertex 76.3428 58.3943 6.35
      vertex 75.1207 58.6732 6.35
    endloop
  endfacet
  facet normal 0 0 1
    outer loop
      vertex 77.1298 -57.7667 6.35
      vertex 77.724 56.134 6.35
      vertex 77.1298 57.7667 6.35
    endloop
  endfacet
  facet normal 0 0 1
    outer loop
      vertex -77.5708 57.0027 6.35
      vertex -77.6455 56.7607 6.35
      vertex -77.7208 56.2606 6.35
    endloop
  endfacet
  facet normal 0.583774 0.811916 0
    outer loop
      vertex 76.7677 58.1198 -1.27
      vertex 76.7677 58.1198 -6.35
      vertex 76.562 58.2677 -1.27
    endloop
  endfacet
  facet normal 0.797386 0.60347 0
    outer loop
      vertex 77.1298 57.7667 6.35
      vertex 77.2826 57.5648 6.35
      vertex 77.2826 57.5648 1.26998
    endloop
  endfacet
  facet normal 0 0 -1
    outer loop
      vertex 76.112 58.4984 -6.35
      vertex 77.1298 57.7667 -6.35
      vertex 77.724 56.134 -6.35
    endloop
  endfacet
  facet normal 0 0 -1
    outer loop
      vertex 76.112 58.4984 -6.35
      vertex 76.7677 58.1198 -6.35
      vertex 77.1298 57.7667 -6.35
    endloop
  endfacet
  facet normal 0 0 1
    outer loop
      vertex 77.1298 57.7667 6.35
      vertex 76.7677 58.1198 6.35
      vertex 76.3428 58.3943 6.35
    endloop
  endfacet
  facet normal 0 0 1
    outer loop
      vertex 77.1298 -57.7667 6.35
      vertex 77.4147 -57.3488 6.35
      vertex 77.5245 -57.1206 6.35
    endloop
  endfacet
  facet normal 0 0 1
    outer loop
      vertex 77.1298 57.7667 6.35
      vertex 76.9575 57.9523 6.35
      vertex 76.7677 58.1198 6.35
    endloop
  endfacet
  facet normal 0.661687 0.74978 -0
    outer loop
      vertex 76.7677 58.1198 -1.27
      vertex 76.7677 58.1198 6.35
      vertex 76.9575 57.9523 1.26998
    endloop
  endfacet
  facet normal 0 0 1
    outer loop
      vertex 77.724 56.134 6.35
      vertex 77.6111 56.8827 6.35
      vertex 77.1298 57.7667 6.35
    endloop
  endfacet
  facet normal 0.969065 0.246807 0
    outer loop
      vertex 77.6111 56.8827 6.35
      vertex 77.6736 56.6373 6.35
      vertex 77.6736 56.6373 -1.27
    endloop
  endfacet
  facet normal 1 0 0
    outer loop
      vertex 77.724 56.134 6.35
      vertex 77.724 -56.134 6.35
      vertex 77.724 -56.134 1.26998
    endloop
  endfacet
  facet normal 0 0 -1
    outer loop
      vertex -76.6667 58.1963 -6.35
      vertex 75.1207 58.6732 -6.35
      vertex 76.112 58.4984 -6.35
    endloop
  endfacet
  facet normal 0 0 1
    outer loop
      vertex 77.724 56.134 6.35
      vertex 77.6736 56.6373 6.35
      vertex 77.6111 56.8827 6.35
    endloop
  endfacet
  facet normal 0.797386 0.60347 0
    outer loop
      vertex 77.1298 57.7667 6.35
      vertex 77.2826 57.5648 1.26998
      vertex 77.1298 57.7667 1.26998
    endloop
  endfacet
  facet normal 0.411153 0.911566 -0
    outer loop
      vertex 76.112 58.4984 -6.35
      vertex 76.112 58.4984 6.35
      vertex 76.3428 58.3943 6.35
    endloop
  endfacet
  facet normal 0 0 1
    outer loop
      vertex 77.1298 57.7667 6.35
      vertex 75.1207 58.6732 6.35
      vertex -75.2473 58.6732 6.35
    endloop
  endfacet
  facet normal 0 0 -1
    outer loop
      vertex 77.724 56.134 -6.35
      vertex -76.6667 58.1963 -6.35
      vertex 76.112 58.4984 -6.35
    endloop
  endfacet
  facet normal 0 0 -1
    outer loop
      vertex -76.6667 -58.1963 -6.35
      vertex -77.7208 56.2606 -6.35
      vertex -76.6667 58.1963 -6.35
    endloop
  endfacet
  facet normal 0.732878 0.68036 0
    outer loop
      vertex 77.1298 57.7667 1.26998
      vertex 77.1298 57.7667 -6.35
      vertex 76.9575 57.9523 1.26998
    endloop
  endfacet
  facet normal 0.797386 0.60347 0
    outer loop
      vertex 77.2826 57.5648 1.26998
      vertex 77.1298 57.7667 -6.35
      vertex 77.1298 57.7667 1.26998
    endloop
  endfacet
  facet normal 0.988797 0.149267 0
    outer loop
      vertex 77.7114 56.3869 1.26998
      vertex 77.7114 56.3869 -1.27
      vertex 77.6736 56.6373 -1.27
    endloop
  endfacet
  facet normal 0 0 -1
    outer loop
      vertex 77.4147 57.3488 -6.35
      vertex 77.6111 56.8827 -6.35
      vertex 77.724 56.134 -6.35
    endloop
  endfacet
  facet normal 0 0 1
    outer loop
      vertex 77.6111 56.8827 6.35
      vertex 77.5245 57.1206 6.35
      vertex 77.4147 57.3488 6.35
    endloop
  endfacet
  facet normal 0.853106 0.521738 0
    outer loop
      vertex 77.2826 57.5648 1.26998
      vertex 77.4147 57.3488 6.35
      vertex 77.4147 57.3488 1.26998
    endloop
  endfacet
  facet normal 0 0 1
    outer loop
      vertex 77.724 56.134 6.35
      vertex 77.7114 56.3869 6.35
      vertex 77.6736 56.6373 6.35
    endloop
  endfacet
  facet normal 0.988797 0.149267 -0
    outer loop
      vertex 77.6736 56.6373 -1.27
      vertex 77.6736 56.6373 6.35
      vertex 77.7114 56.3869 1.26998
    endloop
  endfacet
  facet normal 0 0 1
    outer loop
      vertex 77.1298 -57.7667 6.35
      vertex 77.724 -56.134 6.35
      vertex 77.724 56.134 6.35
    endloop
  endfacet
  facet normal 0.998761 -0.0497603 0
    outer loop
      vertex 77.724 -56.134 6.35
      vertex 77.7114 -56.3869 6.35
      vertex 77.724 -56.134 1.26998
    endloop
  endfacet
  facet normal 0.500133 0.865949 0
    outer loop
      vertex 76.562 58.2677 -1.27
      vertex 76.3428 58.3943 -1.27
      vertex 76.3428 58.3943 6.35
    endloop
  endfacet
  facet normal 0 0 1
    outer loop
      vertex 76.3428 58.3943 6.35
      vertex 75.625 58.6354 6.35
      vertex 75.1207 58.6732 6.35
    endloop
  endfacet
  facet normal 0 0 1
    outer loop
      vertex -75.2473 58.6732 6.35
      vertex -75.993 58.5417 6.35
      vertex -76.6667 58.1963 6.35
    endloop
  endfacet
  facet normal 0 1 0
    outer loop
      vertex 75.1207 58.6732 6.35
      vertex 75.1207 58.6732 -6.35
      vertex -75.2473 58.6732 6.35
    endloop
  endfacet
  facet normal -0 0 -1
    outer loop
      vertex 77.724 56.134 -6.35
      vertex -76.6667 -58.1963 -6.35
      vertex -76.6667 58.1963 -6.35
    endloop
  endfacet
  facet normal 0 0 1
    outer loop
      vertex 77.1298 -57.7667 6.35
      vertex 77.2826 -57.5648 6.35
      vertex 77.4147 -57.3488 6.35
    endloop
  endfacet
  facet normal 0 0 1
    outer loop
      vertex -75.2473 58.6732 6.35
      vertex -76.6667 58.1963 6.35
      vertex -77.5708 57.0027 6.35
    endloop
  endfacet
  facet normal -0.542613 0.839983 0
    outer loop
      vertex -76.6667 58.1963 6.35
      vertex -76.454 58.3337 -1.27
      vertex -76.6667 58.1963 -6.35
    endloop
  endfacet
  facet normal 0 0 -1
    outer loop
      vertex 77.1298 57.7667 -6.35
      vertex 77.4147 57.3488 -6.35
      vertex 77.724 56.134 -6.35
    endloop
  endfacet
  facet normal 0.853106 0.521738 0
    outer loop
      vertex 77.4147 57.3488 -6.35
      vertex 77.2826 57.5648 -6.35
      vertex 77.2826 57.5648 1.26998
    endloop
  endfacet
  facet normal 0.661687 0.74978 0
    outer loop
      vertex 76.9575 57.9523 1.26998
      vertex 76.7677 58.1198 -6.35
      vertex 76.7677 58.1198 -1.27
    endloop
  endfacet
  facet normal 0 0 -1
    outer loop
      vertex 76.7677 58.1198 -6.35
      vertex 76.9575 57.9523 -6.35
      vertex 77.1298 57.7667 -6.35
    endloop
  endfacet
  facet normal 0.998761 0.0497603 0
    outer loop
      vertex 77.724 56.134 -6.35
      vertex 77.7114 56.3869 -1.27
      vertex 77.7114 56.3869 1.26998
    endloop
  endfacet
  facet normal 0.998761 0.0497603 0
    outer loop
      vertex 77.724 56.134 -6.35
      vertex 77.7114 56.3869 -6.35
      vertex 77.7114 56.3869 -1.27
    endloop
  endfacet
  facet normal 0 0 1
    outer loop
      vertex 77.4147 57.3488 6.35
      vertex 77.2826 57.5648 6.35
      vertex 77.1298 57.7667 6.35
    endloop
  endfacet
  facet normal 0.853106 0.521738 -0
    outer loop
      vertex 77.2826 57.5648 1.26998
      vertex 77.2826 57.5648 6.35
      vertex 77.4147 57.3488 6.35
    endloop
  endfacet
  facet normal 0.901116 0.433578 0
    outer loop
      vertex 77.4147 57.3488 1.26998
      vertex 77.5245 57.1206 6.35
      vertex 77.4147 57.3488 -6.35
    endloop
  endfacet
  facet normal 0.901116 0.433578 0
    outer loop
      vertex 77.4147 57.3488 6.35
      vertex 77.5245 57.1206 6.35
      vertex 77.4147 57.3488 1.26998
    endloop
  endfacet
  facet normal 0.998761 0.0497603 -0
    outer loop
      vertex 77.7114 56.3869 1.26998
      vertex 77.7114 56.3869 6.35
      vertex 77.724 56.134 6.35
    endloop
  endfacet
  facet normal 0.988797 0.149267 0
    outer loop
      vertex 77.6736 56.6373 6.35
      vertex 77.7114 56.3869 6.35
      vertex 77.7114 56.3869 1.26998
    endloop
  endfacet
  facet normal 0 0 1
    outer loop
      vertex 77.1298 -57.7667 6.35
      vertex 77.5245 -57.1206 6.35
      vertex 77.724 -56.134 6.35
    endloop
  endfacet
  facet normal 0.998761 -0.0497603 0
    outer loop
      vertex 77.7114 -56.3869 6.35
      vertex 77.7114 -56.3869 -6.35
      vertex 77.724 -56.134 1.26998
    endloop
  endfacet
  facet normal 0.583774 0.811916 0
    outer loop
      vertex 76.562 58.2677 -1.27
      vertex 76.7677 58.1198 6.35
      vertex 76.7677 58.1198 -1.27
    endloop
  endfacet
  facet normal 0 0 1
    outer loop
      vertex 76.7677 58.1198 6.35
      vertex 76.562 58.2677 6.35
      vertex 76.3428 58.3943 6.35
    endloop
  endfacet
  facet normal 0.500133 0.865949 0
    outer loop
      vertex 76.562 58.2677 -6.35
      vertex 76.3428 58.3943 -6.35
      vertex 76.3428 58.3943 -1.27
    endloop
  endfacet
  facet normal 0.411153 0.911566 0
    outer loop
      vertex 76.3428 58.3943 6.35
      vertex 76.3428 58.3943 -1.27
      vertex 76.112 58.4984 -6.35
    endloop
  endfacet
  facet normal 0.124424 0.992229 -0
    outer loop
      vertex 75.625 58.6354 -6.35
      vertex 75.3738 58.6669 6.35
      vertex 75.625 58.6354 6.35
    endloop
  endfacet
  facet normal 0 0 1
    outer loop
      vertex 75.625 58.6354 6.35
      vertex 75.3738 58.6669 6.35
      vertex 75.1207 58.6732 6.35
    endloop
  endfacet
  facet normal 0 1 0
    outer loop
      vertex 75.1207 58.6732 -6.35
      vertex -75.2473 58.6732 -6.35
      vertex -75.2473 58.6732 6.35
    endloop
  endfacet
  facet normal 0 0 -1
    outer loop
      vertex -76.6667 58.1963 -6.35
      vertex -75.2473 58.6732 -6.35
      vertex 75.1207 58.6732 -6.35
    endloop
  endfacet
  facet normal 0 0 -1
    outer loop
      vertex 77.724 56.134 -6.35
      vertex 75.3738 -58.6669 -6.35
      vertex -76.6667 -58.1963 -6.35
    endloop
  endfacet
  facet normal 0 0 -1
    outer loop
      vertex 77.5245 -57.1206 -6.35
      vertex 77.2826 -57.5648 -6.35
      vertex 75.3738 -58.6669 -6.35
    endloop
  endfacet
  facet normal 0 0 1
    outer loop
      vertex -77.5708 57.0027 6.35
      vertex -76.6667 -58.1963 6.35
      vertex 77.1298 -57.7667 6.35
    endloop
  endfacet
  facet normal 0 0 -1
    outer loop
      vertex -76.6667 -58.1963 -6.35
      vertex -76.8647 -58.0385 -6.35
      vertex -77.046 -57.8616 -6.35
    endloop
  endfacet
  facet normal 0 0 1
    outer loop
      vertex -77.5708 57.0027 6.35
      vertex -77.7208 -56.2606 6.35
      vertex -76.6667 -58.1963 6.35
    endloop
  endfacet
  facet normal 0 0 -1
    outer loop
      vertex -77.7208 56.2606 -6.35
      vertex -77.3514 57.4584 -6.35
      vertex -76.6667 58.1963 -6.35
    endloop
  endfacet
  facet normal 0 0 1
    outer loop
      vertex -76.6667 58.1963 6.35
      vertex -77.2087 57.6677 6.35
      vertex -77.5708 57.0027 6.35
    endloop
  endfacet
  facet normal -0.766047 0.642784 0
    outer loop
      vertex -77.046 57.8616 -6.35
      vertex -77.2087 57.6677 -6.35
      vertex -77.2087 57.6677 6.35
    endloop
  endfacet
  facet normal -0.365322 0.930881 0
    outer loop
      vertex -75.993 58.5417 -1.27
      vertex -76.2287 58.4492 -1.27
      vertex -75.993 58.5417 6.35
    endloop
  endfacet
  facet normal -0.365322 0.930881 0
    outer loop
      vertex -76.2287 58.4492 -1.27
      vertex -76.2287 58.4492 6.35
      vertex -75.993 58.5417 6.35
    endloop
  endfacet
  facet normal 0.939678 0.34206 0
    outer loop
      vertex 77.6111 56.8827 6.35
      vertex 77.6111 56.8827 -6.35
      vertex 77.5245 57.1206 6.35
    endloop
  endfacet
  facet normal 0.969065 0.246807 0
    outer loop
      vertex 77.6736 56.6373 -1.27
      vertex 77.6111 56.8827 -6.35
      vertex 77.6111 56.8827 6.35
    endloop
  endfacet
  facet normal 0 0 -1
    outer loop
      vertex 77.1298 57.7667 -6.35
      vertex 77.2826 57.5648 -6.35
      vertex 77.4147 57.3488 -6.35
    endloop
  endfacet
  facet normal 0.797386 0.60347 0
    outer loop
      vertex 77.2826 57.5648 1.26998
      vertex 77.2826 57.5648 -6.35
      vertex 77.1298 57.7667 -6.35
    endloop
  endfacet
  facet normal 0.661687 0.74978 0
    outer loop
      vertex 76.9575 57.9523 1.26998
      vertex 76.9575 57.9523 -6.35
      vertex 76.7677 58.1198 -6.35
    endloop
  endfacet
  facet normal 0.732878 0.68036 0
    outer loop
      vertex 77.1298 57.7667 -6.35
      vertex 76.9575 57.9523 -6.35
      vertex 76.9575 57.9523 1.26998
    endloop
  endfacet
  facet normal 0 0 1
    outer loop
      vertex 77.5245 -57.1206 6.35
      vertex 77.6736 -56.6373 6.35
      vertex 77.724 -56.134 6.35
    endloop
  endfacet
  facet normal 0.853106 -0.521738 0
    outer loop
      vertex 77.2826 -57.5648 -6.35
      vertex 77.4147 -57.3488 -6.35
      vertex 77.4147 -57.3488 6.35
    endloop
  endfacet
  facet normal 0.901116 -0.433578 0
    outer loop
      vertex 77.4147 -57.3488 6.35
      vertex 77.5245 -57.1206 -6.35
      vertex 77.5245 -57.1206 6.35
    endloop
  endfacet
  facet normal 0.988797 -0.149267 0
    outer loop
      vertex 77.6736 -56.6373 6.35
      vertex 77.6736 -56.6373 -6.35
      vertex 77.7114 -56.3869 6.35
    endloop
  endfacet
  facet normal 0.732878 0.68036 -0
    outer loop
      vertex 76.9575 57.9523 1.26998
      vertex 76.9575 57.9523 6.35
      vertex 77.1298 57.7667 6.35
    endloop
  endfacet
  facet normal 0.661687 0.74978 0
    outer loop
      vertex 76.7677 58.1198 6.35
      vertex 76.9575 57.9523 6.35
      vertex 76.9575 57.9523 1.26998
    endloop
  endfacet
  facet normal 0.583774 0.811916 -0
    outer loop
      vertex 76.562 58.2677 -1.27
      vertex 76.562 58.2677 6.35
      vertex 76.7677 58.1198 6.35
    endloop
  endfacet
  facet normal 0.500133 0.865949 0
    outer loop
      vertex 76.3428 58.3943 6.35
      vertex 76.562 58.2677 6.35
      vertex 76.562 58.2677 -1.27
    endloop
  endfacet
  facet normal 0.500133 0.865949 0
    outer loop
      vertex 76.562 58.2677 -1.27
      vertex 76.562 58.2677 -6.35
      vertex 76.3428 58.3943 -1.27
    endloop
  endfacet
  facet normal 0.583774 0.811916 0
    outer loop
      vertex 76.7677 58.1198 -6.35
      vertex 76.562 58.2677 -6.35
      vertex 76.562 58.2677 -1.27
    endloop
  endfacet
  facet normal 0 0 1
    outer loop
      vertex 76.112 58.4984 6.35
      vertex 75.8719 58.579 6.35
      vertex 75.625 58.6354 6.35
    endloop
  endfacet
  facet normal 0 0 1
    outer loop
      vertex 76.3428 58.3943 6.35
      vertex 76.112 58.4984 6.35
      vertex 75.625 58.6354 6.35
    endloop
  endfacet
  facet normal 0.318241 0.94801 -0
    outer loop
      vertex 76.112 58.4984 -6.35
      vertex 75.8719 58.579 1.26998
      vertex 76.112 58.4984 6.35
    endloop
  endfacet
  facet normal 0 0 -1
    outer loop
      vertex 75.1207 58.6732 -6.35
      vertex 75.625 58.6354 -6.35
      vertex 76.112 58.4984 -6.35
    endloop
  endfacet
  facet normal 0.0248836 0.99969 0
    outer loop
      vertex 75.3738 58.6669 6.35
      vertex 75.3738 58.6669 -6.35
      vertex 75.1207 58.6732 -6.35
    endloop
  endfacet
  facet normal 0.0248836 0.99969 0
    outer loop
      vertex 75.1207 58.6732 6.35
      vertex 75.3738 58.6669 6.35
      vertex 75.1207 58.6732 -6.35
    endloop
  endfacet
  facet normal 0 0 -1
    outer loop
      vertex 77.724 56.134 -6.35
      vertex 77.5245 -55.1474 -6.35
      vertex 75.3738 -58.6669 -6.35
    endloop
  endfacet
  facet normal 0 -0 -1
    outer loop
      vertex 77.5245 -55.1474 -6.35
      vertex 77.5245 -57.1206 -6.35
      vertex 75.3738 -58.6669 -6.35
    endloop
  endfacet
  facet normal -0 0 1
    outer loop
      vertex -76.6667 -58.1963 6.35
      vertex 75.3738 -58.6669 6.35
      vertex 77.1298 -57.7667 6.35
    endloop
  endfacet
  facet normal 0 0 -1
    outer loop
      vertex -75.2473 -58.6732 -6.35
      vertex -75.993 -58.5417 -6.35
      vertex -76.6667 -58.1963 -6.35
    endloop
  endfacet
  facet normal -0.17374 -0.984792 0
    outer loop
      vertex -75.4998 -58.6543 -1.27
      vertex -75.7492 -58.6103 6.35
      vertex -75.7492 -58.6103 -1.27
    endloop
  endfacet
  facet normal 0.0248836 -0.99969 0
    outer loop
      vertex 75.3738 -58.6669 6.35
      vertex 75.1207 -58.6732 1.26998
      vertex 75.3738 -58.6669 -6.35
    endloop
  endfacet
  facet normal -1 0 0
    outer loop
      vertex -77.7208 -56.2606 6.35
      vertex -77.7208 56.2606 6.35
      vertex -77.7208 56.2606 -6.35
    endloop
  endfacet
  facet normal 0 0 -1
    outer loop
      vertex -76.6667 -58.1963 -6.35
      vertex -77.7208 -56.2606 -6.35
      vertex -77.7208 56.2606 -6.35
    endloop
  endfacet
  facet normal -0.826236 0.563325 0
    outer loop
      vertex -77.3514 57.4584 -6.35
      vertex -77.3514 57.4584 6.35
      vertex -77.2087 57.6677 6.35
    endloop
  endfacet
  facet normal 0 0 -1
    outer loop
      vertex -77.3514 57.4584 -6.35
      vertex -77.046 57.8616 -6.35
      vertex -76.6667 58.1963 -6.35
    endloop
  endfacet
  facet normal 0 0 1
    outer loop
      vertex -76.6667 58.1963 6.35
      vertex -76.8647 58.0384 6.35
      vertex -77.2087 57.6677 6.35
    endloop
  endfacet
  facet normal -0.62349 0.781831 0
    outer loop
      vertex -76.6667 58.1963 -6.35
      vertex -76.8647 58.0384 6.35
      vertex -76.6667 58.1963 6.35
    endloop
  endfacet
  facet normal -0.27086 0.962619 0
    outer loop
      vertex -75.993 58.5417 6.35
      vertex -75.7492 58.6103 -6.35
      vertex -75.993 58.5417 -1.27
    endloop
  endfacet
  facet normal 0 0 1
    outer loop
      vertex -75.2473 58.6732 6.35
      vertex -75.7492 58.6103 6.35
      vertex -75.993 58.5417 6.35
    endloop
  endfacet
  facet normal 0 0 -1
    outer loop
      vertex -76.6667 58.1963 -6.35
      vertex -76.454 58.3337 -6.35
      vertex -76.2287 58.4492 -6.35
    endloop
  endfacet
  facet normal 0 0 1
    outer loop
      vertex -75.993 58.5417 6.35
      vertex -76.454 58.3337 6.35
      vertex -76.6667 58.1963 6.35
    endloop
  endfacet
  facet normal 0 0 -1
    outer loop
      vertex -75.7492 58.6103 -6.35
      vertex -75.4998 58.6543 -6.35
      vertex -75.2473 58.6732 -6.35
    endloop
  endfacet
  facet normal 0 0 -1
    outer loop
      vertex -76.6667 58.1963 -6.35
      vertex -75.7492 58.6103 -6.35
      vertex -75.2473 58.6732 -6.35
    endloop
  endfacet
  facet normal 0 0 -1
    outer loop
      vertex 77.6111 56.8827 -6.35
      vertex 77.6736 56.6373 -6.35
      vertex 77.724 56.134 -6.35
    endloop
  endfacet
  facet normal 0.969065 0.246807 0
    outer loop
      vertex 77.6736 56.6373 -1.27
      vertex 77.6736 56.6373 -6.35
      vertex 77.6111 56.8827 -6.35
    endloop
  endfacet
  facet normal 0.939678 0.34206 0
    outer loop
      vertex 77.6111 56.8827 -6.35
      vertex 77.5245 57.1206 -6.35
      vertex 77.5245 57.1206 6.35
    endloop
  endfacet
  facet normal 0 0 -1
    outer loop
      vertex 77.4147 57.3488 -6.35
      vertex 77.5245 57.1206 -6.35
      vertex 77.6111 56.8827 -6.35
    endloop
  endfacet
  facet normal 0 0 1
    outer loop
      vertex 77.6736 -56.6373 6.35
      vertex 77.7114 -56.3869 6.35
      vertex 77.724 -56.134 6.35
    endloop
  endfacet
  facet normal 0.939678 -0.34206 0
    outer loop
      vertex 77.5245 -57.1206 -6.35
      vertex 77.6111 -56.8827 -6.35
      vertex 77.6111 -56.8827 6.35
    endloop
  endfacet
  facet normal 0 0 1
    outer loop
      vertex 77.5245 -57.1206 6.35
      vertex 77.6111 -56.8827 6.35
      vertex 77.6736 -56.6373 6.35
    endloop
  endfacet
  facet normal 0.939678 -0.34206 0
    outer loop
      vertex 77.5245 -57.1206 6.35
      vertex 77.5245 -57.1206 -6.35
      vertex 77.6111 -56.8827 6.35
    endloop
  endfacet
  facet normal 0 0 -1
    outer loop
      vertex 77.724 56.134 -6.35
      vertex 77.5245 -57.1206 -6.35
      vertex 77.5245 -55.1474 -6.35
    endloop
  endfacet
  facet normal 0.969065 -0.246807 0
    outer loop
      vertex 77.6111 -56.8827 6.35
      vertex 77.6736 -56.6373 -6.35
      vertex 77.6736 -56.6373 6.35
    endloop
  endfacet
  facet normal 0 0 -1
    outer loop
      vertex 76.112 58.4984 -6.35
      vertex 76.3428 58.3943 -6.35
      vertex 76.562 58.2677 -6.35
    endloop
  endfacet
  facet normal 0.411153 0.911566 0
    outer loop
      vertex 76.3428 58.3943 -1.27
      vertex 76.3428 58.3943 -6.35
      vertex 76.112 58.4984 -6.35
    endloop
  endfacet
  facet normal 0.222696 0.974888 0
    outer loop
      vertex 75.8719 58.579 1.26998
      vertex 75.8719 58.579 -6.35
      vertex 75.625 58.6354 -6.35
    endloop
  endfacet
  facet normal 0.222696 0.974888 0
    outer loop
      vertex 75.625 58.6354 6.35
      vertex 75.8719 58.579 1.26998
      vertex 75.625 58.6354 -6.35
    endloop
  endfacet
  facet normal 0.124424 0.992229 0
    outer loop
      vertex 75.625 58.6354 -6.35
      vertex 75.3738 58.6669 -6.35
      vertex 75.3738 58.6669 6.35
    endloop
  endfacet
  facet normal 0 0 -1
    outer loop
      vertex 75.1207 58.6732 -6.35
      vertex 75.3738 58.6669 -6.35
      vertex 75.625 58.6354 -6.35
    endloop
  endfacet
  facet normal 0 -1 0
    outer loop
      vertex -75.2473 -58.6732 -1.27
      vertex 75.1207 -58.6732 1.26998
      vertex -75.2473 -58.6732 6.35
    endloop
  endfacet
  facet normal 0 0 -1
    outer loop
      vertex -75.2473 -58.6732 -6.35
      vertex -75.7492 -58.6103 -6.35
      vertex -75.993 -58.5417 -6.35
    endloop
  endfacet
  facet normal -0.17374 -0.984792 0
    outer loop
      vertex -75.7492 -58.6103 -6.35
      vertex -75.4998 -58.6543 -1.27
      vertex -75.7492 -58.6103 -1.27
    endloop
  endfacet
  facet normal -0.365322 -0.930881 -0
    outer loop
      vertex -75.993 -58.5417 -1.27
      vertex -76.2287 -58.4492 -1.27
      vertex -75.993 -58.5417 -6.35
    endloop
  endfacet
  facet normal 0 0 1
    outer loop
      vertex 75.3738 -58.6669 6.35
      vertex 76.3428 -58.3943 6.35
      vertex 77.1298 -57.7667 6.35
    endloop
  endfacet
  facet normal 0 0 1
    outer loop
      vertex 75.3738 -58.6669 6.35
      vertex 75.625 -58.6354 6.35
      vertex 75.8719 -58.5791 6.35
    endloop
  endfacet
  facet normal 0 0 1
    outer loop
      vertex -75.2473 -58.6732 6.35
      vertex 75.1207 -58.6732 6.35
      vertex 75.3738 -58.6669 6.35
    endloop
  endfacet
  facet normal 0 0 1
    outer loop
      vertex -76.6667 -58.1963 6.35
      vertex -75.2473 -58.6732 6.35
      vertex 75.3738 -58.6669 6.35
    endloop
  endfacet
  facet normal 0 -1 0
    outer loop
      vertex -75.2473 -58.6732 -6.35
      vertex 75.1207 -58.6732 1.26998
      vertex -75.2473 -58.6732 -1.27
    endloop
  endfacet
  facet normal 0.0248836 -0.99969 0
    outer loop
      vertex 75.1207 -58.6732 1.26998
      vertex 75.1207 -58.6732 -6.35
      vertex 75.3738 -58.6669 -6.35
    endloop
  endfacet
  facet normal -1 0 0
    outer loop
      vertex -77.7208 -56.2606 -6.35
      vertex -77.7208 -56.2606 6.35
      vertex -77.7208 56.2606 -6.35
    endloop
  endfacet
  facet normal 0 0 -1
    outer loop
      vertex -76.6667 -58.1963 -6.35
      vertex -77.3514 -57.4585 -6.35
      vertex -77.7208 -56.2606 -6.35
    endloop
  endfacet
  facet normal 0 0 -1
    outer loop
      vertex -77.3514 -57.4585 -6.35
      vertex -77.5708 -57.0027 -6.35
      vertex -77.7208 -56.2606 -6.35
    endloop
  endfacet
  facet normal -0.698368 -0.715739 0
    outer loop
      vertex -76.8647 -58.0385 -6.35
      vertex -77.046 -57.8616 6.35
      vertex -77.046 -57.8616 -6.35
    endloop
  endfacet
  facet normal 0 0 -1
    outer loop
      vertex -77.5708 57.0027 -6.35
      vertex -77.4725 57.2361 -6.35
      vertex -77.3514 57.4584 -6.35
    endloop
  endfacet
  facet normal 0 0 -1
    outer loop
      vertex -77.7208 56.2606 -6.35
      vertex -77.5708 57.0027 -6.35
      vertex -77.3514 57.4584 -6.35
    endloop
  endfacet
  facet normal -0.921598 0.388145 0
    outer loop
      vertex -77.5708 57.0027 6.35
      vertex -77.4725 57.2361 -6.35
      vertex -77.5708 57.0027 -6.35
    endloop
  endfacet
  facet normal 0 0 1
    outer loop
      vertex -77.2087 57.6677 6.35
      vertex -77.3514 57.4584 6.35
      vertex -77.5708 57.0027 6.35
    endloop
  endfacet
  facet normal 0 0 1
    outer loop
      vertex -76.8647 58.0384 6.35
      vertex -77.046 57.8616 6.35
      vertex -77.2087 57.6677 6.35
    endloop
  endfacet
  facet normal 0 0 -1
    outer loop
      vertex -77.046 57.8616 -6.35
      vertex -76.8647 58.0384 -6.35
      vertex -76.6667 58.1963 -6.35
    endloop
  endfacet
  facet normal -0.365322 0.930881 0
    outer loop
      vertex -75.993 58.5417 -1.27
      vertex -76.2287 58.4492 -6.35
      vertex -76.2287 58.4492 -1.27
    endloop
  endfacet
  facet normal -0.456196 0.889879 0
    outer loop
      vertex -76.2287 58.4492 -1.27
      vertex -76.2287 58.4492 -6.35
      vertex -76.454 58.3337 -1.27
    endloop
  endfacet
  facet normal -0.456196 0.889879 0
    outer loop
      vertex -76.454 58.3337 -1.27
      vertex -76.454 58.3337 6.35
      vertex -76.2287 58.4492 -1.27
    endloop
  endfacet
  facet normal -0.542613 0.839983 0
    outer loop
      vertex -76.6667 58.1963 6.35
      vertex -76.454 58.3337 6.35
      vertex -76.454 58.3337 -1.27
    endloop
  endfacet
  facet normal -0.17374 0.984792 0
    outer loop
      vertex -75.7492 58.6103 6.35
      vertex -75.4998 58.6543 -6.35
      vertex -75.7492 58.6103 -6.35
    endloop
  endfacet
  facet normal -0.27086 0.962619 0
    outer loop
      vertex -75.993 58.5417 6.35
      vertex -75.7492 58.6103 6.35
      vertex -75.7492 58.6103 -6.35
    endloop
  endfacet
  facet normal 0 0 1
    outer loop
      vertex -75.2473 58.6732 6.35
      vertex -75.4998 58.6543 6.35
      vertex -75.7492 58.6103 6.35
    endloop
  endfacet
  facet normal -0.0746427 0.99721 0
    outer loop
      vertex -75.2473 58.6732 -6.35
      vertex -75.4998 58.6543 -6.35
      vertex -75.2473 58.6732 6.35
    endloop
  endfacet
  facet normal 0 0 -1
    outer loop
      vertex 77.6736 56.6373 -6.35
      vertex 77.7114 56.3869 -6.35
      vertex 77.724 56.134 -6.35
    endloop
  endfacet
  facet normal 0.988797 0.149267 0
    outer loop
      vertex 77.7114 56.3869 -1.27
      vertex 77.7114 56.3869 -6.35
      vertex 77.6736 56.6373 -6.35
    endloop
  endfacet
  facet normal 0 0 -1
    outer loop
      vertex 77.724 56.134 -6.35
      vertex 77.6736 -56.6373 -6.35
      vertex 77.5245 -57.1206 -6.35
    endloop
  endfacet
  facet normal 0.988797 -0.149267 0
    outer loop
      vertex 77.6736 -56.6373 -6.35
      vertex 77.7114 -56.3869 -6.35
      vertex 77.7114 -56.3869 6.35
    endloop
  endfacet
  facet normal 0 0 -1
    outer loop
      vertex 77.2826 -57.5648 -6.35
      vertex 76.7677 -58.1199 -6.35
      vertex 75.3738 -58.6669 -6.35
    endloop
  endfacet
  facet normal 0 0 -1
    outer loop
      vertex 77.2826 -57.5648 -6.35
      vertex 77.1298 -57.7667 -6.35
      vertex 76.7677 -58.1199 -6.35
    endloop
  endfacet
  facet normal 0.318241 0.94801 -0
    outer loop
      vertex 75.8719 58.579 1.26998
      vertex 75.8719 58.579 6.35
      vertex 76.112 58.4984 6.35
    endloop
  endfacet
  facet normal 0.222696 0.974888 0
    outer loop
      vertex 75.625 58.6354 6.35
      vertex 75.8719 58.579 6.35
      vertex 75.8719 58.579 1.26998
    endloop
  endfacet
  facet normal 0.318241 0.94801 0
    outer loop
      vertex 76.112 58.4984 -6.35
      vertex 75.8719 58.579 -6.35
      vertex 75.8719 58.579 1.26998
    endloop
  endfacet
  facet normal 0 0 -1
    outer loop
      vertex 75.625 58.6354 -6.35
      vertex 75.8719 58.579 -6.35
      vertex 76.112 58.4984 -6.35
    endloop
  endfacet
  facet normal 0 0 -1
    outer loop
      vertex -75.2473 -58.6732 -6.35
      vertex -75.4998 -58.6543 -6.35
      vertex -75.7492 -58.6103 -6.35
    endloop
  endfacet
  facet normal -0.456196 -0.889879 0
    outer loop
      vertex -76.2287 -58.4492 -1.27
      vertex -76.454 -58.3337 6.35
      vertex -76.454 -58.3337 -1.27
    endloop
  endfacet
  facet normal 0 0 1
    outer loop
      vertex -76.6667 -58.1963 6.35
      vertex -75.993 -58.5417 6.35
      vertex -75.2473 -58.6732 6.35
    endloop
  endfacet
  facet normal -0.27086 -0.962619 0
    outer loop
      vertex -75.993 -58.5417 -6.35
      vertex -75.7492 -58.6103 -1.27
      vertex -75.993 -58.5417 -1.27
    endloop
  endfacet
  facet normal -0.542613 -0.839983 0
    outer loop
      vertex -76.6667 -58.1963 -6.35
      vertex -76.454 -58.3337 -1.27
      vertex -76.6667 -58.1963 6.35
    endloop
  endfacet
  facet normal -0.365322 -0.930881 -0
    outer loop
      vertex -76.2287 -58.4492 -1.27
      vertex -76.2287 -58.4492 -6.35
      vertex -75.993 -58.5417 -6.35
    endloop
  endfacet
  facet normal 0 0 1
    outer loop
      vertex 75.3738 -58.6669 6.35
      vertex 75.8719 -58.5791 6.35
      vertex 76.3428 -58.3943 6.35
    endloop
  endfacet
  facet normal 0.124424 -0.992229 0
    outer loop
      vertex 75.3738 -58.6669 -6.35
      vertex 75.625 -58.6354 -1.27
      vertex 75.3738 -58.6669 6.35
    endloop
  endfacet
  facet normal -0.365322 -0.930881 -0
    outer loop
      vertex -75.993 -58.5417 6.35
      vertex -76.2287 -58.4492 -1.27
      vertex -75.993 -58.5417 -1.27
    endloop
  endfacet
  facet normal -0.27086 -0.962619 0
    outer loop
      vertex -75.7492 -58.6103 -1.27
      vertex -75.993 -58.5417 6.35
      vertex -75.993 -58.5417 -1.27
    endloop
  endfacet
  facet normal 0 -1 0
    outer loop
      vertex 75.1207 -58.6732 1.26998
      vertex 75.1207 -58.6732 6.35
      vertex -75.2473 -58.6732 6.35
    endloop
  endfacet
  facet normal 0.0248836 -0.99969 0
    outer loop
      vertex 75.3738 -58.6669 6.35
      vertex 75.1207 -58.6732 6.35
      vertex 75.1207 -58.6732 1.26998
    endloop
  endfacet
  facet normal 0 -1 0
    outer loop
      vertex -75.2473 -58.6732 -6.35
      vertex 75.1207 -58.6732 -6.35
      vertex 75.1207 -58.6732 1.26998
    endloop
  endfacet
  facet normal 0 0 -1
    outer loop
      vertex 75.3738 -58.6669 -6.35
      vertex 75.1207 -58.6732 -6.35
      vertex -75.2473 -58.6732 -6.35
    endloop
  endfacet
  facet normal -0.878242 -0.478216 -0
    outer loop
      vertex -77.3514 -57.4585 6.35
      vertex -77.4725 -57.2361 -6.35
      vertex -77.3514 -57.4585 -6.35
    endloop
  endfacet
  facet normal 0 0 -1
    outer loop
      vertex -76.6667 -58.1963 -6.35
      vertex -77.046 -57.8616 -6.35
      vertex -77.3514 -57.4585 -6.35
    endloop
  endfacet
  facet normal 0 0 1
    outer loop
      vertex -77.5708 57.0027 6.35
      vertex -77.7208 56.2606 6.35
      vertex -77.7208 -56.2606 6.35
    endloop
  endfacet
  facet normal -0.955514 0.294946 0
    outer loop
      vertex -77.5708 57.0027 -6.35
      vertex -77.6455 56.7607 -1.27
      vertex -77.5708 57.0027 6.35
    endloop
  endfacet
  facet normal 0 0 1
    outer loop
      vertex -77.7208 -56.2606 6.35
      vertex -77.3514 -57.4585 6.35
      vertex -76.6667 -58.1963 6.35
    endloop
  endfacet
  facet normal 0 0 1
    outer loop
      vertex -77.7208 -56.2606 6.35
      vertex -77.5708 -57.0027 6.35
      vertex -77.3514 -57.4585 6.35
    endloop
  endfacet
  facet normal 0 0 -1
    outer loop
      vertex -77.3514 -57.4585 -6.35
      vertex -77.4725 -57.2361 -6.35
      vertex -77.5708 -57.0027 -6.35
    endloop
  endfacet
  facet normal -0.766047 -0.642784 -0
    outer loop
      vertex -77.046 -57.8616 6.35
      vertex -77.2087 -57.6677 -6.35
      vertex -77.046 -57.8616 -6.35
    endloop
  endfacet
  facet normal -0.955514 0.294946 0
    outer loop
      vertex -77.5708 57.0027 -6.35
      vertex -77.6455 56.7607 -6.35
      vertex -77.6455 56.7607 -1.27
    endloop
  endfacet
  facet normal 0 0 1
    outer loop
      vertex -77.6455 56.7607 6.35
      vertex -77.6956 56.5126 6.35
      vertex -77.7208 56.2606 6.35
    endloop
  endfacet
  facet normal -0.921598 0.388145 0
    outer loop
      vertex -77.5708 57.0027 6.35
      vertex -77.4725 57.2361 6.35
      vertex -77.4725 57.2361 -6.35
    endloop
  endfacet
  facet normal -0.878152 0.478382 0
    outer loop
      vertex -77.3514 57.4584 -6.35
      vertex -77.4725 57.2361 -6.35
      vertex -77.3514 57.4584 6.35
    endloop
  endfacet
  facet normal 0 0 -1
    outer loop
      vertex -77.3514 57.4584 -6.35
      vertex -77.2087 57.6677 -6.35
      vertex -77.046 57.8616 -6.35
    endloop
  endfacet
  facet normal -0.826236 0.563325 0
    outer loop
      vertex -77.2087 57.6677 6.35
      vertex -77.2087 57.6677 -6.35
      vertex -77.3514 57.4584 -6.35
    endloop
  endfacet
  facet normal -0.698166 0.715936 0
    outer loop
      vertex -77.046 57.8616 -6.35
      vertex -77.046 57.8616 6.35
      vertex -76.8647 58.0384 6.35
    endloop
  endfacet
  facet normal -0.766047 0.642784 0
    outer loop
      vertex -77.2087 57.6677 6.35
      vertex -77.046 57.8616 6.35
      vertex -77.046 57.8616 -6.35
    endloop
  endfacet
  facet normal -0.698166 0.715936 0
    outer loop
      vertex -76.8647 58.0384 6.35
      vertex -76.8647 58.0384 -6.35
      vertex -77.046 57.8616 -6.35
    endloop
  endfacet
  facet normal -0.62349 0.781831 0
    outer loop
      vertex -76.6667 58.1963 -6.35
      vertex -76.8647 58.0384 -6.35
      vertex -76.8647 58.0384 6.35
    endloop
  endfacet
  facet normal -0.365322 0.930881 0
    outer loop
      vertex -75.993 58.5417 -1.27
      vertex -75.993 58.5417 -6.35
      vertex -76.2287 58.4492 -6.35
    endloop
  endfacet
  facet normal 0 0 -1
    outer loop
      vertex -76.6667 58.1963 -6.35
      vertex -76.2287 58.4492 -6.35
      vertex -75.7492 58.6103 -6.35
    endloop
  endfacet
  facet normal -0.456196 0.889879 0
    outer loop
      vertex -76.454 58.3337 6.35
      vertex -76.2287 58.4492 6.35
      vertex -76.2287 58.4492 -1.27
    endloop
  endfacet
  facet normal 0 0 1
    outer loop
      vertex -75.993 58.5417 6.35
      vertex -76.2287 58.4492 6.35
      vertex -76.454 58.3337 6.35
    endloop
  endfacet
  facet normal -0.0746427 0.99721 0
    outer loop
      vertex -75.4998 58.6543 -6.35
      vertex -75.4998 58.6543 6.35
      vertex -75.2473 58.6732 6.35
    endloop
  endfacet
  facet normal -0.17374 0.984792 0
    outer loop
      vertex -75.7492 58.6103 6.35
      vertex -75.4998 58.6543 6.35
      vertex -75.4998 58.6543 -6.35
    endloop
  endfacet
  facet normal 0 0 -1
    outer loop
      vertex 77.724 56.134 -6.35
      vertex 77.7114 -56.3869 -6.35
      vertex 77.6736 -56.6373 -6.35
    endloop
  endfacet
  facet normal 0 -0 -1
    outer loop
      vertex 77.724 56.134 -6.35
      vertex 77.724 -56.134 -6.35
      vertex 77.7114 -56.3869 -6.35
    endloop
  endfacet
  facet normal 0 0 -1
    outer loop
      vertex 77.6736 -56.6373 -6.35
      vertex 77.6111 -56.8827 -6.35
      vertex 77.5245 -57.1206 -6.35
    endloop
  endfacet
  facet normal 0.969065 -0.246807 0
    outer loop
      vertex 77.6111 -56.8827 6.35
      vertex 77.6111 -56.8827 -6.35
      vertex 77.6736 -56.6373 -6.35
    endloop
  endfacet
  facet normal 0 0 -1
    outer loop
      vertex 77.5245 -57.1206 -6.35
      vertex 77.4147 -57.3488 -6.35
      vertex 77.2826 -57.5648 -6.35
    endloop
  endfacet
  facet normal 0.901116 -0.433578 0
    outer loop
      vertex 77.4147 -57.3488 6.35
      vertex 77.4147 -57.3488 -6.35
      vertex 77.5245 -57.1206 -6.35
    endloop
  endfacet
  facet normal 0.797386 -0.60347 0
    outer loop
      vertex 77.2826 -57.5648 -6.35
      vertex 77.2826 -57.5648 6.35
      vertex 77.1298 -57.7667 6.35
    endloop
  endfacet
  facet normal 0.853106 -0.521738 0
    outer loop
      vertex 77.4147 -57.3488 6.35
      vertex 77.2826 -57.5648 6.35
      vertex 77.2826 -57.5648 -6.35
    endloop
  endfacet
  facet normal 0.732878 -0.68036 0
    outer loop
      vertex 77.1298 -57.7667 6.35
      vertex 76.9575 -57.9523 1.26998
      vertex 77.1298 -57.7667 -6.35
    endloop
  endfacet
  facet normal 0.222321 -0.974974 0
    outer loop
      vertex 75.625 -58.6354 -1.27
      vertex 75.8719 -58.5791 -6.35
      vertex 75.8719 -58.5791 6.35
    endloop
  endfacet
  facet normal -0.0746427 -0.99721 -0
    outer loop
      vertex -75.2473 -58.6732 -1.27
      vertex -75.4998 -58.6543 -1.27
      vertex -75.2473 -58.6732 -6.35
    endloop
  endfacet
  facet normal -0.27086 -0.962619 0
    outer loop
      vertex -75.993 -58.5417 -6.35
      vertex -75.7492 -58.6103 -6.35
      vertex -75.7492 -58.6103 -1.27
    endloop
  endfacet
  facet normal -0.0746427 -0.99721 -0
    outer loop
      vertex -75.2473 -58.6732 6.35
      vertex -75.4998 -58.6543 -1.27
      vertex -75.2473 -58.6732 -1.27
    endloop
  endfacet
  facet normal -0.0746427 -0.99721 0
    outer loop
      vertex -75.2473 -58.6732 6.35
      vertex -75.4998 -58.6543 6.35
      vertex -75.4998 -58.6543 -1.27
    endloop
  endfacet
  facet normal 0 0 1
    outer loop
      vertex -76.454 -58.3337 6.35
      vertex -76.2287 -58.4492 6.35
      vertex -75.993 -58.5417 6.35
    endloop
  endfacet
  facet normal -0.456196 -0.889879 -0
    outer loop
      vertex -76.454 -58.3337 -1.27
      vertex -76.454 -58.3337 -6.35
      vertex -76.2287 -58.4492 -1.27
    endloop
  endfacet
  facet normal -0.542613 -0.839983 0
    outer loop
      vertex -76.6667 -58.1963 -6.35
      vertex -76.454 -58.3337 -6.35
      vertex -76.454 -58.3337 -1.27
    endloop
  endfacet
  facet normal 0 0 -1
    outer loop
      vertex -75.993 -58.5417 -6.35
      vertex -76.454 -58.3337 -6.35
      vertex -76.6667 -58.1963 -6.35
    endloop
  endfacet
  facet normal 0.124424 -0.992229 0
    outer loop
      vertex 75.3738 -58.6669 -6.35
      vertex 75.625 -58.6354 -6.35
      vertex 75.625 -58.6354 -1.27
    endloop
  endfacet
  facet normal 0 0 -1
    outer loop
      vertex 76.7677 -58.1199 -6.35
      vertex 76.112 -58.4984 -6.35
      vertex 75.3738 -58.6669 -6.35
    endloop
  endfacet
  facet normal 0 0 1
    outer loop
      vertex -75.993 -58.5417 6.35
      vertex -75.7492 -58.6103 6.35
      vertex -75.2473 -58.6732 6.35
    endloop
  endfacet
  facet normal -0.27086 -0.962619 0
    outer loop
      vertex -75.7492 -58.6103 -1.27
      vertex -75.7492 -58.6103 6.35
      vertex -75.993 -58.5417 6.35
    endloop
  endfacet
  facet normal 0 0 1
    outer loop
      vertex -76.6667 -58.1963 6.35
      vertex -76.454 -58.3337 6.35
      vertex -75.993 -58.5417 6.35
    endloop
  endfacet
  facet normal -0.542613 -0.839983 0
    outer loop
      vertex -76.454 -58.3337 -1.27
      vertex -76.454 -58.3337 6.35
      vertex -76.6667 -58.1963 6.35
    endloop
  endfacet
  facet normal -0.623249 -0.782023 -0
    outer loop
      vertex -76.6667 -58.1963 6.35
      vertex -76.8647 -58.0385 -6.35
      vertex -76.6667 -58.1963 -6.35
    endloop
  endfacet
  facet normal -0.623249 -0.782023 0
    outer loop
      vertex -76.6667 -58.1963 6.35
      vertex -76.8647 -58.0385 6.35
      vertex -76.8647 -58.0385 -6.35
    endloop
  endfacet
  facet normal 0 0 1
    outer loop
      vertex -77.7208 -56.2606 6.35
      vertex -77.6455 -56.7608 6.35
      vertex -77.5708 -57.0027 6.35
    endloop
  endfacet
  facet normal 0 0 -1
    outer loop
      vertex -77.5708 -57.0027 -6.35
      vertex -77.6455 -56.7608 -6.35
      vertex -77.7208 -56.2606 -6.35
    endloop
  endfacet
  facet normal 0 0 1
    outer loop
      vertex -77.3514 -57.4585 6.35
      vertex -77.046 -57.8616 6.35
      vertex -76.6667 -58.1963 6.35
    endloop
  endfacet
  facet normal -0.82611 -0.563508 0
    outer loop
      vertex -77.2087 -57.6677 -6.35
      vertex -77.2087 -57.6677 6.35
      vertex -77.3514 -57.4585 6.35
    endloop
  endfacet
  facet normal -0.95548 -0.295057 0
    outer loop
      vertex -77.5708 -57.0027 6.35
      vertex -77.6455 -56.7608 6.35
      vertex -77.6455 -56.7608 -6.35
    endloop
  endfacet
  facet normal -0.95548 -0.295057 0
    outer loop
      vertex -77.5708 -57.0027 -6.35
      vertex -77.5708 -57.0027 6.35
      vertex -77.6455 -56.7608 -6.35
    endloop
  endfacet
  facet normal 0 0 1
    outer loop
      vertex -77.5708 -57.0027 6.35
      vertex -77.4725 -57.2361 6.35
      vertex -77.3514 -57.4585 6.35
    endloop
  endfacet
  facet normal -0.921598 -0.388145 0
    outer loop
      vertex -77.5708 -57.0027 -6.35
      vertex -77.4725 -57.2361 -6.35
      vertex -77.5708 -57.0027 6.35
    endloop
  endfacet
  facet normal -0.82611 -0.563508 0
    outer loop
      vertex -77.3514 -57.4585 -6.35
      vertex -77.2087 -57.6677 -6.35
      vertex -77.3514 -57.4585 6.35
    endloop
  endfacet
  facet normal 0 0 -1
    outer loop
      vertex -77.046 -57.8616 -6.35
      vertex -77.2087 -57.6677 -6.35
      vertex -77.3514 -57.4585 -6.35
    endloop
  endfacet
  facet normal -0.955514 0.294946 0
    outer loop
      vertex -77.6455 56.7607 -1.27
      vertex -77.6455 56.7607 6.35
      vertex -77.5708 57.0027 6.35
    endloop
  endfacet
  facet normal -0.980214 0.197939 0
    outer loop
      vertex -77.6455 56.7607 -1.27
      vertex -77.6956 56.5126 -1.27
      vertex -77.6455 56.7607 6.35
    endloop
  endfacet
  facet normal 0 0 -1
    outer loop
      vertex -77.7208 56.2606 -6.35
      vertex -77.6455 56.7607 -6.35
      vertex -77.5708 57.0027 -6.35
    endloop
  endfacet
  facet normal -0.980214 0.197939 0
    outer loop
      vertex -77.6455 56.7607 -6.35
      vertex -77.6956 56.5126 -1.27
      vertex -77.6455 56.7607 -1.27
    endloop
  endfacet
  facet normal 0 0 -1
    outer loop
      vertex -77.7208 56.2606 -6.35
      vertex -77.6956 56.5126 -6.35
      vertex -77.6455 56.7607 -6.35
    endloop
  endfacet
  facet normal -0.995037 0.0995037 0
    outer loop
      vertex -77.7208 56.2606 6.35
      vertex -77.6956 56.5126 -1.27
      vertex -77.7208 56.2606 -6.35
    endloop
  endfacet
  facet normal 0 0 1
    outer loop
      vertex -77.3514 57.4584 6.35
      vertex -77.4725 57.2361 6.35
      vertex -77.5708 57.0027 6.35
    endloop
  endfacet
  facet normal -0.878152 0.478382 0
    outer loop
      vertex -77.4725 57.2361 -6.35
      vertex -77.4725 57.2361 6.35
      vertex -77.3514 57.4584 6.35
    endloop
  endfacet
  facet normal -0.542613 0.839983 0
    outer loop
      vertex -76.454 58.3337 -1.27
      vertex -76.454 58.3337 -6.35
      vertex -76.6667 58.1963 -6.35
    endloop
  endfacet
  facet normal -0.456196 0.889879 0
    outer loop
      vertex -76.2287 58.4492 -6.35
      vertex -76.454 58.3337 -6.35
      vertex -76.454 58.3337 -1.27
    endloop
  endfacet
  facet normal -0.27086 0.962619 0
    outer loop
      vertex -75.7492 58.6103 -6.35
      vertex -75.993 58.5417 -6.35
      vertex -75.993 58.5417 -1.27
    endloop
  endfacet
  facet normal 0 0 -1
    outer loop
      vertex -76.2287 58.4492 -6.35
      vertex -75.993 58.5417 -6.35
      vertex -75.7492 58.6103 -6.35
    endloop
  endfacet
  facet normal 1 0 0
    outer loop
      vertex 77.724 -56.134 1.26998
      vertex 77.724 -56.134 -6.35
      vertex 77.724 56.134 -6.35
    endloop
  endfacet
  facet normal 0.998761 -0.0497603 0
    outer loop
      vertex 77.7114 -56.3869 -6.35
      vertex 77.724 -56.134 -6.35
      vertex 77.724 -56.134 1.26998
    endloop
  endfacet
  facet normal 0.797386 -0.60347 0
    outer loop
      vertex 77.1298 -57.7667 6.35
      vertex 77.1298 -57.7667 -6.35
      vertex 77.2826 -57.5648 -6.35
    endloop
  endfacet
  facet normal 0 0 -1
    outer loop
      vertex 77.1298 -57.7667 -6.35
      vertex 76.9575 -57.9523 -6.35
      vertex 76.7677 -58.1199 -6.35
    endloop
  endfacet
  facet normal 0 0 1
    outer loop
      vertex 76.3428 -58.3943 6.35
      vertex 76.7677 -58.1199 6.35
      vertex 77.1298 -57.7667 6.35
    endloop
  endfacet
  facet normal 0.583514 -0.812103 0
    outer loop
      vertex 76.7677 -58.1199 6.35
      vertex 76.562 -58.2677 6.35
      vertex 76.7677 -58.1199 -6.35
    endloop
  endfacet
  facet normal -0.0746427 -0.99721 -0
    outer loop
      vertex -75.4998 -58.6543 -1.27
      vertex -75.4998 -58.6543 -6.35
      vertex -75.2473 -58.6732 -6.35
    endloop
  endfacet
  facet normal -0.17374 -0.984792 0
    outer loop
      vertex -75.7492 -58.6103 -6.35
      vertex -75.4998 -58.6543 -6.35
      vertex -75.4998 -58.6543 -1.27
    endloop
  endfacet
  facet normal -0.456196 -0.889879 0
    outer loop
      vertex -76.454 -58.3337 -6.35
      vertex -76.2287 -58.4492 -6.35
      vertex -76.2287 -58.4492 -1.27
    endloop
  endfacet
  facet normal 0 0 -1
    outer loop
      vertex -75.993 -58.5417 -6.35
      vertex -76.2287 -58.4492 -6.35
      vertex -76.454 -58.3337 -6.35
    endloop
  endfacet
  facet normal 0.124424 -0.992229 0
    outer loop
      vertex 75.625 -58.6354 -1.27
      vertex 75.625 -58.6354 6.35
      vertex 75.3738 -58.6669 6.35
    endloop
  endfacet
  facet normal 0.222321 -0.974974 0
    outer loop
      vertex 75.8719 -58.5791 6.35
      vertex 75.625 -58.6354 6.35
      vertex 75.625 -58.6354 -1.27
    endloop
  endfacet
  facet normal 0.583514 -0.812103 0
    outer loop
      vertex 76.562 -58.2677 6.35
      vertex 76.562 -58.2677 -6.35
      vertex 76.7677 -58.1199 -6.35
    endloop
  endfacet
  facet normal 0.318596 -0.947891 0
    outer loop
      vertex 76.112 -58.4984 -6.35
      vertex 76.112 -58.4984 6.35
      vertex 75.8719 -58.5791 6.35
    endloop
  endfacet
  facet normal 0 0 1
    outer loop
      vertex -75.7492 -58.6103 6.35
      vertex -75.4998 -58.6543 6.35
      vertex -75.2473 -58.6732 6.35
    endloop
  endfacet
  facet normal -0.17374 -0.984792 0
    outer loop
      vertex -75.4998 -58.6543 -1.27
      vertex -75.4998 -58.6543 6.35
      vertex -75.7492 -58.6103 6.35
    endloop
  endfacet
  facet normal -0.456196 -0.889879 0
    outer loop
      vertex -76.2287 -58.4492 -1.27
      vertex -76.2287 -58.4492 6.35
      vertex -76.454 -58.3337 6.35
    endloop
  endfacet
  facet normal -0.365322 -0.930881 0
    outer loop
      vertex -75.993 -58.5417 6.35
      vertex -76.2287 -58.4492 6.35
      vertex -76.2287 -58.4492 -1.27
    endloop
  endfacet
  facet normal -0.995037 -0.0995037 0
    outer loop
      vertex -77.7208 -56.2606 -6.35
      vertex -77.6956 -56.5126 -6.35
      vertex -77.7208 -56.2606 6.35
    endloop
  endfacet
  facet normal 0 0 -1
    outer loop
      vertex -77.6455 -56.7608 -6.35
      vertex -77.6956 -56.5126 -6.35
      vertex -77.7208 -56.2606 -6.35
    endloop
  endfacet
  facet normal 0 0 1
    outer loop
      vertex -77.046 -57.8616 6.35
      vertex -76.8647 -58.0385 6.35
      vertex -76.6667 -58.1963 6.35
    endloop
  endfacet
  facet normal -0.698368 -0.715739 0
    outer loop
      vertex -76.8647 -58.0385 -6.35
      vertex -76.8647 -58.0385 6.35
      vertex -77.046 -57.8616 6.35
    endloop
  endfacet
  facet normal -0.98023 -0.197863 0
    outer loop
      vertex -77.6455 -56.7608 6.35
      vertex -77.6956 -56.5126 6.35
      vertex -77.6956 -56.5126 -6.35
    endloop
  endfacet
  facet normal -0.98023 -0.197863 0
    outer loop
      vertex -77.6455 -56.7608 -6.35
      vertex -77.6455 -56.7608 6.35
      vertex -77.6956 -56.5126 -6.35
    endloop
  endfacet
  facet normal -0.921598 -0.388145 0
    outer loop
      vertex -77.4725 -57.2361 -6.35
      vertex -77.4725 -57.2361 6.35
      vertex -77.5708 -57.0027 6.35
    endloop
  endfacet
  facet normal -0.878242 -0.478216 0
    outer loop
      vertex -77.3514 -57.4585 6.35
      vertex -77.4725 -57.2361 6.35
      vertex -77.4725 -57.2361 -6.35
    endloop
  endfacet
  facet normal -0.766047 -0.642784 0
    outer loop
      vertex -77.046 -57.8616 6.35
      vertex -77.2087 -57.6677 6.35
      vertex -77.2087 -57.6677 -6.35
    endloop
  endfacet
  facet normal 0 0 1
    outer loop
      vertex -77.3514 -57.4585 6.35
      vertex -77.2087 -57.6677 6.35
      vertex -77.046 -57.8616 6.35
    endloop
  endfacet
  facet normal -0.980214 0.197939 0
    outer loop
      vertex -77.6956 56.5126 -1.27
      vertex -77.6956 56.5126 6.35
      vertex -77.6455 56.7607 6.35
    endloop
  endfacet
  facet normal -0.995037 0.0995037 0
    outer loop
      vertex -77.7208 56.2606 6.35
      vertex -77.6956 56.5126 6.35
      vertex -77.6956 56.5126 -1.27
    endloop
  endfacet
  facet normal -0.995037 0.0995037 0
    outer loop
      vertex -77.6956 56.5126 -1.27
      vertex -77.6956 56.5126 -6.35
      vertex -77.7208 56.2606 -6.35
    endloop
  endfacet
  facet normal -0.980214 0.197939 0
    outer loop
      vertex -77.6455 56.7607 -6.35
      vertex -77.6956 56.5126 -6.35
      vertex -77.6956 56.5126 -1.27
    endloop
  endfacet
  facet normal 0.661909 -0.749584 0
    outer loop
      vertex 76.9575 -57.9523 1.26998
      vertex 76.9575 -57.9523 6.35
      vertex 76.7677 -58.1199 6.35
    endloop
  endfacet
  facet normal 0.661909 -0.749584 0
    outer loop
      vertex 76.7677 -58.1199 -6.35
      vertex 76.9575 -57.9523 1.26998
      vertex 76.7677 -58.1199 6.35
    endloop
  endfacet
  facet normal 0 0 1
    outer loop
      vertex 76.3428 -58.3943 6.35
      vertex 76.562 -58.2677 6.35
      vertex 76.7677 -58.1199 6.35
    endloop
  endfacet
  facet normal 0.500133 -0.865949 0
    outer loop
      vertex 76.3428 -58.3943 6.35
      vertex 76.3428 -58.3943 -6.35
      vertex 76.562 -58.2677 6.35
    endloop
  endfacet
  facet normal 0 0 -1
    outer loop
      vertex 76.112 -58.4984 -6.35
      vertex 75.8719 -58.5791 -6.35
      vertex 75.3738 -58.6669 -6.35
    endloop
  endfacet
  facet normal 0.318596 -0.947891 0
    outer loop
      vertex 75.8719 -58.5791 6.35
      vertex 75.8719 -58.5791 -6.35
      vertex 76.112 -58.4984 -6.35
    endloop
  endfacet
  facet normal 0.411153 -0.911566 0
    outer loop
      vertex 76.112 -58.4984 -6.35
      vertex 76.3428 -58.3943 -6.35
      vertex 76.3428 -58.3943 6.35
    endloop
  endfacet
  facet normal 0 0 -1
    outer loop
      vertex 76.7677 -58.1199 -6.35
      vertex 76.3428 -58.3943 -6.35
      vertex 76.112 -58.4984 -6.35
    endloop
  endfacet
  facet normal 0.411153 -0.911566 0
    outer loop
      vertex 76.3428 -58.3943 6.35
      vertex 76.112 -58.4984 6.35
      vertex 76.112 -58.4984 -6.35
    endloop
  endfacet
  facet normal 0 0 1
    outer loop
      vertex 75.8719 -58.5791 6.35
      vertex 76.112 -58.4984 6.35
      vertex 76.3428 -58.3943 6.35
    endloop
  endfacet
  facet normal 0 0 1
    outer loop
      vertex -77.7208 -56.2606 6.35
      vertex -77.6956 -56.5126 6.35
      vertex -77.6455 -56.7608 6.35
    endloop
  endfacet
  facet normal -0.995037 -0.0995037 0
    outer loop
      vertex -77.6956 -56.5126 -6.35
      vertex -77.6956 -56.5126 6.35
      vertex -77.7208 -56.2606 6.35
    endloop
  endfacet
  facet normal 0.732878 -0.68036 0
    outer loop
      vertex 76.9575 -57.9523 1.26998
      vertex 76.9575 -57.9523 -6.35
      vertex 77.1298 -57.7667 -6.35
    endloop
  endfacet
  facet normal 0.661909 -0.749584 0
    outer loop
      vertex 76.7677 -58.1199 -6.35
      vertex 76.9575 -57.9523 -6.35
      vertex 76.9575 -57.9523 1.26998
    endloop
  endfacet
  facet normal 0.732878 -0.68036 0
    outer loop
      vertex 77.1298 -57.7667 6.35
      vertex 76.9575 -57.9523 6.35
      vertex 76.9575 -57.9523 1.26998
    endloop
  endfacet
  facet normal 0 0 1
    outer loop
      vertex 76.7677 -58.1199 6.35
      vertex 76.9575 -57.9523 6.35
      vertex 77.1298 -57.7667 6.35
    endloop
  endfacet
  facet normal 0 0 -1
    outer loop
      vertex 75.8719 -58.5791 -6.35
      vertex 75.625 -58.6354 -6.35
      vertex 75.3738 -58.6669 -6.35
    endloop
  endfacet
  facet normal 0.222321 -0.974974 0
    outer loop
      vertex 75.625 -58.6354 -1.27
      vertex 75.625 -58.6354 -6.35
      vertex 75.8719 -58.5791 -6.35
    endloop
  endfacet
  facet normal 0.500133 -0.865949 0
    outer loop
      vertex 76.3428 -58.3943 -6.35
      vertex 76.562 -58.2677 -6.35
      vertex 76.562 -58.2677 6.35
    endloop
  endfacet
  facet normal 0 0 -1
    outer loop
      vertex 76.7677 -58.1199 -6.35
      vertex 76.562 -58.2677 -6.35
      vertex 76.3428 -58.3943 -6.35
    endloop
  endfacet
endsolid OpenSCAD_Model
