solid OpenSCAD_Model
  facet normal 0.988797 0.149267 -0
    outer loop
      vertex 58.1534 55.8789 -26.416
      vertex 58.1156 56.1293 26.416
      vertex 58.1534 55.8789 21.336
    endloop
  endfacet
  facet normal 0.988797 0.149267 0
    outer loop
      vertex 58.1156 56.1293 26.416
      vertex 58.1534 55.8789 26.416
      vertex 58.1534 55.8789 21.336
    endloop
  endfacet
  facet normal -0 0 1
    outer loop
      vertex 53.9453 57.5304 26.416
      vertex 57.5718 57.2587 26.416
      vertex 56.554 57.9904 26.416
    endloop
  endfacet
  facet normal 0 0 1
    outer loop
      vertex 57.5718 57.2587 26.416
      vertex 57.2097 57.6118 26.416
      vertex 56.554 57.9904 26.416
    endloop
  endfacet
  facet normal 0 0 1
    outer loop
      vertex 53.9453 57.5304 26.416
      vertex -57.488 -57.3536 26.416
      vertex 57.5718 57.2587 26.416
    endloop
  endfacet
  facet normal 0 0 1
    outer loop
      vertex 57.8567 56.8408 26.416
      vertex 57.7246 57.0568 26.416
      vertex 57.5718 57.2587 26.416
    endloop
  endfacet
  facet normal 0 0 -1
    outer loop
      vertex -58.1628 55.7526 -26.416
      vertex -56.1912 58.1023 -26.416
      vertex 58.1534 55.8789 -26.416
    endloop
  endfacet
  facet normal 0 0 -1
    outer loop
      vertex 56.7848 -57.8863 -26.416
      vertex -58.1628 55.7526 -26.416
      vertex 58.1534 55.8789 -26.416
    endloop
  endfacet
  facet normal 0 0 -1
    outer loop
      vertex 58.1534 55.8789 -26.416
      vertex 57.7246 -54.1952 -26.416
      vertex 56.7848 -57.8863 -26.416
    endloop
  endfacet
  facet normal 0 0 -1
    outer loop
      vertex 58.166 55.626 -26.416
      vertex 57.9665 -56.6126 -26.416
      vertex 57.7246 -54.1952 -26.416
    endloop
  endfacet
  facet normal 0 0 1
    outer loop
      vertex -57.488 -57.3536 26.416
      vertex 57.9665 56.6126 26.416
      vertex 57.5718 57.2587 26.416
    endloop
  endfacet
  facet normal 0 0 -1
    outer loop
      vertex 57.2097 57.6118 -26.416
      vertex 57.8567 56.8408 -26.416
      vertex 58.1534 55.8789 -26.416
    endloop
  endfacet
  facet normal 0 0 -1
    outer loop
      vertex 55.5627 58.1652 -26.416
      vertex 56.067 58.1274 -26.416
      vertex 56.554 57.9904 -26.416
    endloop
  endfacet
  facet normal 0 -1 0
    outer loop
      vertex -55.6893 -58.1652 -26.416
      vertex 55.5627 -58.1652 26.416
      vertex -55.6893 -58.1652 21.336
    endloop
  endfacet
  facet normal -0.995037 0.0995037 0
    outer loop
      vertex -58.1628 55.7526 26.416
      vertex -58.1376 56.0046 -26.416
      vertex -58.1628 55.7526 -26.416
    endloop
  endfacet
  facet normal 0 0 1
    outer loop
      vertex -58.1628 55.7526 26.416
      vertex -58.0875 -56.2528 26.416
      vertex -57.488 -57.3536 26.416
    endloop
  endfacet
  facet normal 0.998761 0.0497603 0
    outer loop
      vertex 58.166 55.626 -21.336
      vertex 58.166 55.626 -26.416
      vertex 58.1534 55.8789 -26.416
    endloop
  endfacet
  facet normal 0.998761 0.0497603 0
    outer loop
      vertex 58.1534 55.8789 21.336
      vertex 58.166 55.626 -21.336
      vertex 58.1534 55.8789 -26.416
    endloop
  endfacet
  facet normal 0 0 1
    outer loop
      vertex -57.488 -57.3536 26.416
      vertex 58.1156 56.1293 26.416
      vertex 57.9665 56.6126 26.416
    endloop
  endfacet
  facet normal 0 0 1
    outer loop
      vertex 57.9665 56.6126 26.416
      vertex 57.8567 56.8408 26.416
      vertex 57.5718 57.2587 26.416
    endloop
  endfacet
  facet normal 0 0 -1
    outer loop
      vertex -56.1912 58.1023 -26.416
      vertex 57.2097 57.6118 -26.416
      vertex 58.1534 55.8789 -26.416
    endloop
  endfacet
  facet normal 0.411153 0.911566 0
    outer loop
      vertex 56.7848 57.8863 26.416
      vertex 56.554 57.9904 -26.416
      vertex 56.554 57.9904 26.416
    endloop
  endfacet
  facet normal 0 0 -1
    outer loop
      vertex -57.488 -57.3536 -26.416
      vertex -58.1628 -55.7526 -26.416
      vertex -58.1628 55.7526 -26.416
    endloop
  endfacet
  facet normal 0 0 -1
    outer loop
      vertex 56.7848 -57.8863 -26.416
      vertex -57.488 -57.3536 -26.416
      vertex -58.1628 55.7526 -26.416
    endloop
  endfacet
  facet normal 0 0 1
    outer loop
      vertex 53.9453 57.5304 26.416
      vertex -57.488 57.3536 26.416
      vertex -57.488 -57.3536 26.416
    endloop
  endfacet
  facet normal 0 0 1
    outer loop
      vertex 56.554 57.9904 26.416
      vertex -57.488 57.3536 26.416
      vertex 53.9453 57.5304 26.416
    endloop
  endfacet
  facet normal 1 0 0
    outer loop
      vertex 58.166 -55.626 26.416
      vertex 58.166 -55.626 -26.416
      vertex 58.166 55.626 -26.416
    endloop
  endfacet
  facet normal 0 -0 -1
    outer loop
      vertex 58.1534 55.8789 -26.416
      vertex 58.166 55.626 -26.416
      vertex 57.7246 -54.1952 -26.416
    endloop
  endfacet
  facet normal -0 0 1
    outer loop
      vertex -57.488 -57.3536 26.416
      vertex 57.3995 -57.4443 26.416
      vertex 58.1156 56.1293 26.416
    endloop
  endfacet
  facet normal 0 0 1
    outer loop
      vertex -57.488 -57.3536 26.416
      vertex -55.6893 -58.1652 26.416
      vertex 57.3995 -57.4443 26.416
    endloop
  endfacet
  facet normal 0 0 -1
    outer loop
      vertex 57.2097 57.6118 -26.416
      vertex 57.5718 57.2587 -26.416
      vertex 57.8567 56.8408 -26.416
    endloop
  endfacet
  facet normal 0 0 1
    outer loop
      vertex 57.2097 57.6118 26.416
      vertex 56.7848 57.8863 26.416
      vertex 56.554 57.9904 26.416
    endloop
  endfacet
  facet normal 0 0 -1
    outer loop
      vertex 57.8567 56.8408 -26.416
      vertex 58.0531 56.3747 -26.416
      vertex 58.1534 55.8789 -26.416
    endloop
  endfacet
  facet normal 0.939678 0.34206 0
    outer loop
      vertex 58.0531 56.3747 -26.416
      vertex 57.9665 56.6126 -26.416
      vertex 57.9665 56.6126 26.416
    endloop
  endfacet
  facet normal 0 0 -1
    outer loop
      vertex -56.1912 58.1023 -26.416
      vertex 55.5627 58.1652 -26.416
      vertex 57.2097 57.6118 -26.416
    endloop
  endfacet
  facet normal 0 0 1
    outer loop
      vertex -55.6893 58.1652 26.416
      vertex -56.1912 58.1023 26.416
      vertex -56.6707 57.9412 26.416
    endloop
  endfacet
  facet normal -0.698368 -0.715739 0
    outer loop
      vertex -57.488 -57.3536 -26.416
      vertex -57.3067 -57.5305 21.336
      vertex -57.488 -57.3536 26.416
    endloop
  endfacet
  facet normal 0.732878 -0.68036 0
    outer loop
      vertex 57.3995 -57.4443 26.416
      vertex 57.3995 -57.4443 -26.416
      vertex 57.5718 -57.2587 -26.416
    endloop
  endfacet
  facet normal -1 0 0
    outer loop
      vertex -58.1628 -55.7526 21.336
      vertex -58.1628 55.7526 26.416
      vertex -58.1628 55.7526 -26.416
    endloop
  endfacet
  facet normal -0.995037 -0.0995037 0
    outer loop
      vertex -58.1628 -55.7526 -26.416
      vertex -58.1376 -56.0046 21.336
      vertex -58.1628 -55.7526 21.336
    endloop
  endfacet
  facet normal 0 0 -1
    outer loop
      vertex -57.488 57.3536 -26.416
      vertex -56.896 57.8257 -26.416
      vertex -56.1912 58.1023 -26.416
    endloop
  endfacet
  facet normal 0 0 1
    outer loop
      vertex 56.554 57.9904 26.416
      vertex -55.6893 58.1652 26.416
      vertex -57.488 57.3536 26.416
    endloop
  endfacet
  facet normal 0 0 1
    outer loop
      vertex -56.6707 57.9412 26.416
      vertex -57.1087 57.6883 26.416
      vertex -57.488 57.3536 26.416
    endloop
  endfacet
  facet normal 0 0 -1
    outer loop
      vertex -58.1628 55.7526 -26.416
      vertex -57.488 57.3536 -26.416
      vertex -56.1912 58.1023 -26.416
    endloop
  endfacet
  facet normal 0 -0 -1
    outer loop
      vertex 57.7246 -54.1952 -26.416
      vertex 57.9665 -56.6126 -26.416
      vertex 56.7848 -57.8863 -26.416
    endloop
  endfacet
  facet normal 0 0 1
    outer loop
      vertex 57.3995 -57.4443 26.416
      vertex 58.166 -55.626 26.416
      vertex 58.1156 56.1293 26.416
    endloop
  endfacet
  facet normal 0.661687 0.74978 0
    outer loop
      vertex 57.2097 57.6118 26.416
      vertex 57.3995 57.4443 26.416
      vertex 57.2097 57.6118 -26.416
    endloop
  endfacet
  facet normal 0 0 1
    outer loop
      vertex 57.5718 57.2587 26.416
      vertex 57.3995 57.4443 26.416
      vertex 57.2097 57.6118 26.416
    endloop
  endfacet
  facet normal 0.411153 0.911566 0
    outer loop
      vertex 56.7848 57.8863 26.416
      vertex 56.7848 57.8863 -26.416
      vertex 56.554 57.9904 -26.416
    endloop
  endfacet
  facet normal 0 0 -1
    outer loop
      vertex 56.554 57.9904 -26.416
      vertex 56.7848 57.8863 -26.416
      vertex 57.2097 57.6118 -26.416
    endloop
  endfacet
  facet normal 0.661687 0.74978 0
    outer loop
      vertex 57.3995 57.4443 26.416
      vertex 57.3995 57.4443 -26.416
      vertex 57.2097 57.6118 -26.416
    endloop
  endfacet
  facet normal 0.732878 0.68036 0
    outer loop
      vertex 57.5718 57.2587 26.416
      vertex 57.5718 57.2587 -26.416
      vertex 57.3995 57.4443 26.416
    endloop
  endfacet
  facet normal 0.901116 0.433578 -0
    outer loop
      vertex 57.8567 56.8408 -26.416
      vertex 57.8567 56.8408 26.416
      vertex 57.9665 56.6126 26.416
    endloop
  endfacet
  facet normal 0.853106 0.521738 -0
    outer loop
      vertex 57.8567 56.8408 -26.416
      vertex 57.7246 57.0568 -26.416
      vertex 57.8567 56.8408 26.416
    endloop
  endfacet
  facet normal 0 0 1
    outer loop
      vertex 58.1156 56.1293 26.416
      vertex 58.0531 56.3747 26.416
      vertex 57.9665 56.6126 26.416
    endloop
  endfacet
  facet normal 0 0 -1
    outer loop
      vertex 58.0531 56.3747 -26.416
      vertex 58.1156 56.1293 -26.416
      vertex 58.1534 55.8789 -26.416
    endloop
  endfacet
  facet normal 0 0 -1
    outer loop
      vertex 55.5627 58.1652 -26.416
      vertex 56.554 57.9904 -26.416
      vertex 57.2097 57.6118 -26.416
    endloop
  endfacet
  facet normal 0.318241 0.94801 -0
    outer loop
      vertex 56.554 57.9904 -26.416
      vertex 56.3139 58.071 21.336
      vertex 56.554 57.9904 26.416
    endloop
  endfacet
  facet normal -0.0746427 -0.99721 -0
    outer loop
      vertex -55.6893 -58.1652 26.416
      vertex -55.9418 -58.1463 21.336
      vertex -55.6893 -58.1652 21.336
    endloop
  endfacet
  facet normal -0.698368 -0.715739 0
    outer loop
      vertex -57.3067 -57.5305 21.336
      vertex -57.3067 -57.5305 26.416
      vertex -57.488 -57.3536 26.416
    endloop
  endfacet
  facet normal 0 0 -1
    outer loop
      vertex -55.6893 -58.1652 -26.416
      vertex -56.6707 -57.9412 -26.416
      vertex -57.488 -57.3536 -26.416
    endloop
  endfacet
  facet normal -0 0 -1
    outer loop
      vertex 56.7848 -57.8863 -26.416
      vertex -55.6893 -58.1652 -26.416
      vertex -57.488 -57.3536 -26.416
    endloop
  endfacet
  facet normal -0.95548 -0.295057 -0
    outer loop
      vertex -58.0875 -56.2528 26.416
      vertex -58.0875 -56.2528 -26.416
      vertex -58.0128 -56.4947 -26.416
    endloop
  endfacet
  facet normal -1 0 0
    outer loop
      vertex -58.1628 55.7526 -26.416
      vertex -58.1628 -55.7526 -26.416
      vertex -58.1628 -55.7526 21.336
    endloop
  endfacet
  facet normal -0.766047 -0.642784 -0
    outer loop
      vertex -57.6507 -57.1597 21.336
      vertex -57.6507 -57.1597 -26.416
      vertex -57.488 -57.3536 -26.416
    endloop
  endfacet
  facet normal 0 0 1
    outer loop
      vertex -58.0875 -56.2528 26.416
      vertex -57.7934 -56.9505 26.416
      vertex -57.488 -57.3536 26.416
    endloop
  endfacet
  facet normal 0 0 1
    outer loop
      vertex -57.488 57.3536 26.416
      vertex -58.1628 55.7526 26.416
      vertex -57.488 -57.3536 26.416
    endloop
  endfacet
  facet normal 0 0 -1
    outer loop
      vertex -58.0128 56.4947 -26.416
      vertex -57.7934 56.9504 -26.416
      vertex -57.488 57.3536 -26.416
    endloop
  endfacet
  facet normal -0 1 0
    outer loop
      vertex -55.6893 58.1652 26.416
      vertex 55.5627 58.1652 26.416
      vertex 55.5627 58.1652 -26.416
    endloop
  endfacet
  facet normal 0 0 1
    outer loop
      vertex 56.554 57.9904 26.416
      vertex 55.5627 58.1652 26.416
      vertex -55.6893 58.1652 26.416
    endloop
  endfacet
  facet normal 0 1 0
    outer loop
      vertex 55.5627 58.1652 -26.416
      vertex -55.6893 58.1652 -26.416
      vertex -55.6893 58.1652 26.416
    endloop
  endfacet
  facet normal 0 0 -1
    outer loop
      vertex -56.1912 58.1023 -26.416
      vertex -55.6893 58.1652 -26.416
      vertex 55.5627 58.1652 -26.416
    endloop
  endfacet
  facet normal 0 0 1
    outer loop
      vertex -55.6893 58.1652 26.416
      vertex -56.6707 57.9412 26.416
      vertex -57.488 57.3536 26.416
    endloop
  endfacet
  facet normal -0.365322 0.930881 0
    outer loop
      vertex -56.435 58.0337 -26.416
      vertex -56.6707 57.9412 -26.416
      vertex -56.6707 57.9412 26.416
    endloop
  endfacet
  facet normal -0.76621 0.64259 0
    outer loop
      vertex -57.488 57.3536 -26.416
      vertex -57.6507 57.1596 -26.416
      vertex -57.488 57.3536 26.416
    endloop
  endfacet
  facet normal 0 0 -1
    outer loop
      vertex -58.1628 55.7526 -26.416
      vertex -58.0128 56.4947 -26.416
      vertex -57.488 57.3536 -26.416
    endloop
  endfacet
  facet normal 1 0 0
    outer loop
      vertex 58.166 55.626 -21.336
      vertex 58.166 -55.626 26.416
      vertex 58.166 55.626 -26.416
    endloop
  endfacet
  facet normal 0 -0 1
    outer loop
      vertex 58.166 -55.626 26.416
      vertex 58.166 55.626 26.416
      vertex 58.1156 56.1293 26.416
    endloop
  endfacet
  facet normal -0.623249 -0.782023 0
    outer loop
      vertex -57.1087 -57.6883 21.336
      vertex -57.1087 -57.6883 26.416
      vertex -57.3067 -57.5305 21.336
    endloop
  endfacet
  facet normal 0 0 1
    outer loop
      vertex -55.6893 -58.1652 26.416
      vertex 55.8158 -58.1589 26.416
      vertex 57.3995 -57.4443 26.416
    endloop
  endfacet
  facet normal 0 0 1
    outer loop
      vertex 57.2097 57.6118 26.416
      vertex 57.0041 57.7597 26.416
      vertex 56.7848 57.8863 26.416
    endloop
  endfacet
  facet normal 0.583961 0.811781 -0
    outer loop
      vertex 57.2097 57.6118 -26.416
      vertex 57.0041 57.7597 26.416
      vertex 57.2097 57.6118 26.416
    endloop
  endfacet
  facet normal 0 0 -1
    outer loop
      vertex 57.5718 57.2587 -26.416
      vertex 57.7246 57.0568 -26.416
      vertex 57.8567 56.8408 -26.416
    endloop
  endfacet
  facet normal 0.797386 0.60347 0
    outer loop
      vertex 57.5718 57.2587 26.416
      vertex 57.7246 57.0568 -26.416
      vertex 57.5718 57.2587 -26.416
    endloop
  endfacet
  facet normal 0.732878 0.68036 0
    outer loop
      vertex 57.5718 57.2587 -26.416
      vertex 57.3995 57.4443 -26.416
      vertex 57.3995 57.4443 26.416
    endloop
  endfacet
  facet normal 0 0 -1
    outer loop
      vertex 57.2097 57.6118 -26.416
      vertex 57.3995 57.4443 -26.416
      vertex 57.5718 57.2587 -26.416
    endloop
  endfacet
  facet normal 0 0 -1
    outer loop
      vertex 57.8567 56.8408 -26.416
      vertex 57.9665 56.6126 -26.416
      vertex 58.0531 56.3747 -26.416
    endloop
  endfacet
  facet normal 0.901116 0.433578 0
    outer loop
      vertex 57.9665 56.6126 26.416
      vertex 57.9665 56.6126 -26.416
      vertex 57.8567 56.8408 -26.416
    endloop
  endfacet
  facet normal 0.969065 0.246807 -0
    outer loop
      vertex 58.0531 56.3747 -26.416
      vertex 58.0531 56.3747 26.416
      vertex 58.1156 56.1293 26.416
    endloop
  endfacet
  facet normal 0.939678 0.34206 0
    outer loop
      vertex 57.9665 56.6126 26.416
      vertex 58.0531 56.3747 26.416
      vertex 58.0531 56.3747 -26.416
    endloop
  endfacet
  facet normal 0.969065 0.246807 0
    outer loop
      vertex 58.1156 56.1293 26.416
      vertex 58.1156 56.1293 -26.416
      vertex 58.0531 56.3747 -26.416
    endloop
  endfacet
  facet normal 0.988797 0.149267 0
    outer loop
      vertex 58.1534 55.8789 -26.416
      vertex 58.1156 56.1293 -26.416
      vertex 58.1156 56.1293 26.416
    endloop
  endfacet
  facet normal 0.499962 0.866047 0
    outer loop
      vertex 57.0041 57.7597 26.416
      vertex 56.7848 57.8863 -26.416
      vertex 56.7848 57.8863 26.416
    endloop
  endfacet
  facet normal 0 0 -1
    outer loop
      vertex 56.7848 57.8863 -26.416
      vertex 57.0041 57.7597 -26.416
      vertex 57.2097 57.6118 -26.416
    endloop
  endfacet
  facet normal 0.0248836 0.99969 0
    outer loop
      vertex 55.5627 58.1652 26.416
      vertex 55.8158 58.1589 -26.416
      vertex 55.5627 58.1652 -26.416
    endloop
  endfacet
  facet normal 0 0 -1
    outer loop
      vertex 56.067 58.1274 -26.416
      vertex 56.3139 58.071 -26.416
      vertex 56.554 57.9904 -26.416
    endloop
  endfacet
  facet normal -0.27086 -0.962619 -0
    outer loop
      vertex -56.1912 -58.1023 21.336
      vertex -56.435 -58.0337 26.416
      vertex -56.1912 -58.1023 -26.416
    endloop
  endfacet
  facet normal -0.365322 -0.930881 0
    outer loop
      vertex -56.6707 -57.9412 -26.416
      vertex -56.435 -58.0337 26.416
      vertex -56.6707 -57.9412 21.336
    endloop
  endfacet
  facet normal 0 -1 0
    outer loop
      vertex -55.6893 -58.1652 -26.416
      vertex 55.5627 -58.1652 -26.416
      vertex 55.5627 -58.1652 26.416
    endloop
  endfacet
  facet normal 0 0 -1
    outer loop
      vertex 56.7848 -57.8863 -26.416
      vertex 54.817 -58.0337 -26.416
      vertex -55.6893 -58.1652 -26.416
    endloop
  endfacet
  facet normal -0.0746427 -0.99721 -0
    outer loop
      vertex -55.9418 -58.1463 21.336
      vertex -55.9418 -58.1463 -26.416
      vertex -55.6893 -58.1652 -26.416
    endloop
  endfacet
  facet normal -0.17374 -0.984792 0
    outer loop
      vertex -55.9418 -58.1463 21.336
      vertex -56.1912 -58.1023 26.416
      vertex -56.1912 -58.1023 21.336
    endloop
  endfacet
  facet normal -0.456196 -0.889879 -0
    outer loop
      vertex -56.6707 -57.9412 26.416
      vertex -56.896 -57.8257 21.336
      vertex -56.6707 -57.9412 21.336
    endloop
  endfacet
  facet normal 0 0 -1
    outer loop
      vertex -56.6707 -57.9412 -26.416
      vertex -57.1087 -57.6883 -26.416
      vertex -57.488 -57.3536 -26.416
    endloop
  endfacet
  facet normal -0.95548 -0.295057 0
    outer loop
      vertex -58.0875 -56.2528 26.416
      vertex -58.0128 -56.4947 -26.416
      vertex -58.0128 -56.4947 21.336
    endloop
  endfacet
  facet normal -0.921598 -0.388145 0
    outer loop
      vertex -57.9145 -56.7281 -21.336
      vertex -58.0128 -56.4947 26.416
      vertex -58.0128 -56.4947 21.336
    endloop
  endfacet
  facet normal 0 0 -1
    outer loop
      vertex -58.0128 -56.4947 -26.416
      vertex -58.0875 -56.2528 -26.416
      vertex -58.1628 -55.7526 -26.416
    endloop
  endfacet
  facet normal 0 0 -1
    outer loop
      vertex -57.488 -57.3536 -26.416
      vertex -58.0128 -56.4947 -26.416
      vertex -58.1628 -55.7526 -26.416
    endloop
  endfacet
  facet normal -0.878242 -0.478216 -0
    outer loop
      vertex -57.7934 -56.9505 26.416
      vertex -57.9145 -56.7281 -21.336
      vertex -57.7934 -56.9505 21.336
    endloop
  endfacet
  facet normal 0 0 1
    outer loop
      vertex -57.7934 -56.9505 26.416
      vertex -57.6507 -57.1597 26.416
      vertex -57.488 -57.3536 26.416
    endloop
  endfacet
  facet normal -0.0746427 0.99721 0
    outer loop
      vertex -55.6893 58.1652 -26.416
      vertex -55.9418 58.1463 -21.336
      vertex -55.6893 58.1652 26.416
    endloop
  endfacet
  facet normal -0.17374 0.984792 0
    outer loop
      vertex -55.9418 58.1463 -21.336
      vertex -55.9418 58.1463 -26.416
      vertex -56.1912 58.1023 -26.416
    endloop
  endfacet
  facet normal -0.456196 0.889879 0
    outer loop
      vertex -56.896 57.8257 -26.416
      vertex -56.896 57.8257 26.416
      vertex -56.6707 57.9412 26.416
    endloop
  endfacet
  facet normal 0 0 -1
    outer loop
      vertex -56.896 57.8257 -26.416
      vertex -56.435 58.0337 -26.416
      vertex -56.1912 58.1023 -26.416
    endloop
  endfacet
  facet normal -0.0746427 0.99721 0
    outer loop
      vertex -55.9418 58.1463 -21.336
      vertex -55.9418 58.1463 26.416
      vertex -55.6893 58.1652 26.416
    endloop
  endfacet
  facet normal -0.17374 0.984792 0
    outer loop
      vertex -56.1912 58.1023 -26.416
      vertex -56.1912 58.1023 26.416
      vertex -55.9418 58.1463 -21.336
    endloop
  endfacet
  facet normal -0.955514 0.294946 0
    outer loop
      vertex -58.0875 56.2527 -26.416
      vertex -58.0128 56.4947 26.416
      vertex -58.0128 56.4947 -26.416
    endloop
  endfacet
  facet normal 0 0 -1
    outer loop
      vertex -58.1628 55.7526 -26.416
      vertex -58.0875 56.2527 -26.416
      vertex -58.0128 56.4947 -26.416
    endloop
  endfacet
  facet normal 0 0 1
    outer loop
      vertex -58.0128 56.4947 26.416
      vertex -58.0875 56.2527 26.416
      vertex -58.1628 55.7526 26.416
    endloop
  endfacet
  facet normal 0 0 1
    outer loop
      vertex -57.488 57.3536 26.416
      vertex -58.0128 56.4947 26.416
      vertex -58.1628 55.7526 26.416
    endloop
  endfacet
  facet normal -0.921598 0.388145 0
    outer loop
      vertex -58.0128 56.4947 26.416
      vertex -57.9145 56.7281 -26.416
      vertex -58.0128 56.4947 -26.416
    endloop
  endfacet
  facet normal -0.76621 0.64259 0
    outer loop
      vertex -57.6507 57.1596 -26.416
      vertex -57.6507 57.1596 26.416
      vertex -57.488 57.3536 26.416
    endloop
  endfacet
  facet normal 1 0 -0
    outer loop
      vertex 58.166 55.626 -21.336
      vertex 58.166 55.626 26.416
      vertex 58.166 -55.626 26.416
    endloop
  endfacet
  facet normal 0.998761 0.0497603 0
    outer loop
      vertex 58.1534 55.8789 21.336
      vertex 58.166 55.626 26.416
      vertex 58.166 55.626 -21.336
    endloop
  endfacet
  facet normal 0.732878 -0.68036 0
    outer loop
      vertex 57.5718 -57.2587 -26.416
      vertex 57.5718 -57.2587 26.416
      vertex 57.3995 -57.4443 26.416
    endloop
  endfacet
  facet normal 0 0 -1
    outer loop
      vertex 57.9665 -56.6126 -26.416
      vertex 57.5718 -57.2587 -26.416
      vertex 56.7848 -57.8863 -26.416
    endloop
  endfacet
  facet normal -0.365322 -0.930881 0
    outer loop
      vertex -56.6707 -57.9412 -26.416
      vertex -56.435 -58.0337 -26.416
      vertex -56.435 -58.0337 26.416
    endloop
  endfacet
  facet normal 0 0 1
    outer loop
      vertex -57.488 -57.3536 26.416
      vertex -56.6707 -57.9412 26.416
      vertex -55.6893 -58.1652 26.416
    endloop
  endfacet
  facet normal 0.853106 0.521738 -0
    outer loop
      vertex 57.7246 57.0568 -26.416
      vertex 57.7246 57.0568 26.416
      vertex 57.8567 56.8408 26.416
    endloop
  endfacet
  facet normal 0.797386 0.60347 0
    outer loop
      vertex 57.5718 57.2587 26.416
      vertex 57.7246 57.0568 26.416
      vertex 57.7246 57.0568 -26.416
    endloop
  endfacet
  facet normal 0.499962 0.866047 0
    outer loop
      vertex 57.0041 57.7597 26.416
      vertex 57.0041 57.7597 -26.416
      vertex 56.7848 57.8863 -26.416
    endloop
  endfacet
  facet normal 0.583961 0.811781 0
    outer loop
      vertex 57.2097 57.6118 -26.416
      vertex 57.0041 57.7597 -26.416
      vertex 57.0041 57.7597 26.416
    endloop
  endfacet
  facet normal 0.318241 0.94801 -0
    outer loop
      vertex 56.3139 58.071 21.336
      vertex 56.3139 58.071 26.416
      vertex 56.554 57.9904 26.416
    endloop
  endfacet
  facet normal 0.222696 0.974888 -0
    outer loop
      vertex 56.067 58.1274 -26.416
      vertex 56.067 58.1274 26.416
      vertex 56.3139 58.071 21.336
    endloop
  endfacet
  facet normal 0.124424 0.992229 0
    outer loop
      vertex 55.8158 58.1589 -26.416
      vertex 56.067 58.1274 26.416
      vertex 56.067 58.1274 -26.416
    endloop
  endfacet
  facet normal 0 0 -1
    outer loop
      vertex 55.5627 58.1652 -26.416
      vertex 55.8158 58.1589 -26.416
      vertex 56.067 58.1274 -26.416
    endloop
  endfacet
  facet normal -0.542613 -0.839983 -0
    outer loop
      vertex -57.1087 -57.6883 21.336
      vertex -57.1087 -57.6883 -26.416
      vertex -56.896 -57.8257 21.336
    endloop
  endfacet
  facet normal -0.542613 -0.839983 0
    outer loop
      vertex -56.896 -57.8257 21.336
      vertex -57.1087 -57.6883 26.416
      vertex -57.1087 -57.6883 21.336
    endloop
  endfacet
  facet normal 0 0 -1
    outer loop
      vertex 56.554 -57.9904 -26.416
      vertex 55.5627 -58.1652 -26.416
      vertex 54.817 -58.0337 -26.416
    endloop
  endfacet
  facet normal 0.411153 -0.911566 0
    outer loop
      vertex 56.7848 -57.8863 26.416
      vertex 56.554 -57.9904 -26.416
      vertex 56.7848 -57.8863 -26.416
    endloop
  endfacet
  facet normal -0.17374 -0.984792 -0
    outer loop
      vertex -56.1912 -58.1023 21.336
      vertex -56.1912 -58.1023 -26.416
      vertex -55.9418 -58.1463 21.336
    endloop
  endfacet
  facet normal -0.0746427 -0.99721 -0
    outer loop
      vertex -55.6893 -58.1652 21.336
      vertex -55.9418 -58.1463 21.336
      vertex -55.6893 -58.1652 -26.416
    endloop
  endfacet
  facet normal -0.27086 -0.962619 0
    outer loop
      vertex -56.1912 -58.1023 21.336
      vertex -56.1912 -58.1023 26.416
      vertex -56.435 -58.0337 26.416
    endloop
  endfacet
  facet normal 0 0 -1
    outer loop
      vertex -55.6893 -58.1652 -26.416
      vertex -56.1912 -58.1023 -26.416
      vertex -56.6707 -57.9412 -26.416
    endloop
  endfacet
  facet normal -0.456196 -0.889879 -0
    outer loop
      vertex -56.896 -57.8257 21.336
      vertex -56.896 -57.8257 -26.416
      vertex -56.6707 -57.9412 -26.416
    endloop
  endfacet
  facet normal -0.456196 -0.889879 -0
    outer loop
      vertex -56.6707 -57.9412 21.336
      vertex -56.896 -57.8257 21.336
      vertex -56.6707 -57.9412 -26.416
    endloop
  endfacet
  facet normal -0.623249 -0.782023 0
    outer loop
      vertex -57.3067 -57.5305 21.336
      vertex -57.1087 -57.6883 -26.416
      vertex -57.1087 -57.6883 21.336
    endloop
  endfacet
  facet normal 0 0 -1
    outer loop
      vertex -57.1087 -57.6883 -26.416
      vertex -57.3067 -57.5305 -26.416
      vertex -57.488 -57.3536 -26.416
    endloop
  endfacet
  facet normal 0 0 1
    outer loop
      vertex -58.1628 55.7526 26.416
      vertex -58.1628 -55.7526 26.416
      vertex -58.0875 -56.2528 26.416
    endloop
  endfacet
  facet normal -1 0 0
    outer loop
      vertex -58.1628 -55.7526 21.336
      vertex -58.1628 -55.7526 26.416
      vertex -58.1628 55.7526 26.416
    endloop
  endfacet
  facet normal 0 0 1
    outer loop
      vertex -58.1628 -55.7526 26.416
      vertex -58.1376 -56.0046 26.416
      vertex -58.0875 -56.2528 26.416
    endloop
  endfacet
  facet normal -0.995037 -0.0995037 0
    outer loop
      vertex -58.1628 -55.7526 21.336
      vertex -58.1376 -56.0046 21.336
      vertex -58.1628 -55.7526 26.416
    endloop
  endfacet
  facet normal -0.921598 -0.388145 0
    outer loop
      vertex -57.9145 -56.7281 -21.336
      vertex -57.9145 -56.7281 26.416
      vertex -58.0128 -56.4947 26.416
    endloop
  endfacet
  facet normal -0.82611 -0.563508 0
    outer loop
      vertex -57.7934 -56.9505 21.336
      vertex -57.6507 -57.1597 21.336
      vertex -57.7934 -56.9505 26.416
    endloop
  endfacet
  facet normal -0.921598 -0.388145 0
    outer loop
      vertex -58.0128 -56.4947 -26.416
      vertex -57.9145 -56.7281 -21.336
      vertex -58.0128 -56.4947 21.336
    endloop
  endfacet
  facet normal -0.82611 -0.563508 -0
    outer loop
      vertex -57.7934 -56.9505 21.336
      vertex -57.7934 -56.9505 -26.416
      vertex -57.6507 -57.1597 21.336
    endloop
  endfacet
  facet normal -0.878242 -0.478216 0
    outer loop
      vertex -57.9145 -56.7281 -21.336
      vertex -57.7934 -56.9505 -26.416
      vertex -57.7934 -56.9505 21.336
    endloop
  endfacet
  facet normal -0.766047 -0.642784 -0
    outer loop
      vertex -57.488 -57.3536 26.416
      vertex -57.6507 -57.1597 21.336
      vertex -57.488 -57.3536 -26.416
    endloop
  endfacet
  facet normal -0.0746427 0.99721 0
    outer loop
      vertex -55.6893 58.1652 -26.416
      vertex -55.9418 58.1463 -26.416
      vertex -55.9418 58.1463 -21.336
    endloop
  endfacet
  facet normal 0 0 -1
    outer loop
      vertex -56.1912 58.1023 -26.416
      vertex -55.9418 58.1463 -26.416
      vertex -55.6893 58.1652 -26.416
    endloop
  endfacet
  facet normal -0.698166 0.715936 0
    outer loop
      vertex -57.488 57.3536 26.416
      vertex -57.3067 57.5304 26.416
      vertex -57.488 57.3536 -26.416
    endloop
  endfacet
  facet normal 0 0 -1
    outer loop
      vertex -57.488 57.3536 -26.416
      vertex -57.3067 57.5304 -26.416
      vertex -57.1087 57.6883 -26.416
    endloop
  endfacet
  facet normal 0 0 1
    outer loop
      vertex -56.1912 58.1023 26.416
      vertex -56.435 58.0337 26.416
      vertex -56.6707 57.9412 26.416
    endloop
  endfacet
  facet normal -0.27086 0.962619 0
    outer loop
      vertex -56.1912 58.1023 -26.416
      vertex -56.435 58.0337 -26.416
      vertex -56.1912 58.1023 26.416
    endloop
  endfacet
  facet normal -0.17374 0.984792 0
    outer loop
      vertex -56.1912 58.1023 26.416
      vertex -55.9418 58.1463 26.416
      vertex -55.9418 58.1463 -21.336
    endloop
  endfacet
  facet normal 0 0 1
    outer loop
      vertex -55.6893 58.1652 26.416
      vertex -55.9418 58.1463 26.416
      vertex -56.1912 58.1023 26.416
    endloop
  endfacet
  facet normal -0.955514 0.294946 0
    outer loop
      vertex -58.0875 56.2527 -26.416
      vertex -58.0875 56.2527 26.416
      vertex -58.0128 56.4947 26.416
    endloop
  endfacet
  facet normal 0 0 -1
    outer loop
      vertex -58.1628 55.7526 -26.416
      vertex -58.1376 56.0046 -26.416
      vertex -58.0875 56.2527 -26.416
    endloop
  endfacet
  facet normal -0.980214 0.197939 0
    outer loop
      vertex -58.1376 56.0046 -26.416
      vertex -58.0875 56.2527 26.416
      vertex -58.0875 56.2527 -26.416
    endloop
  endfacet
  facet normal 0 0 1
    outer loop
      vertex -58.0875 56.2527 26.416
      vertex -58.1376 56.0046 26.416
      vertex -58.1628 55.7526 26.416
    endloop
  endfacet
  facet normal 0 0 -1
    outer loop
      vertex -57.7934 56.9504 -26.416
      vertex -57.6507 57.1596 -26.416
      vertex -57.488 57.3536 -26.416
    endloop
  endfacet
  facet normal -0.82611 0.563508 0
    outer loop
      vertex -57.7934 56.9504 -26.416
      vertex -57.7934 56.9504 26.416
      vertex -57.6507 57.1596 -26.416
    endloop
  endfacet
  facet normal -0.878152 0.478382 0
    outer loop
      vertex -57.9145 56.7281 -26.416
      vertex -57.7934 56.9504 26.416
      vertex -57.7934 56.9504 -26.416
    endloop
  endfacet
  facet normal 0 0 -1
    outer loop
      vertex -58.0128 56.4947 -26.416
      vertex -57.9145 56.7281 -26.416
      vertex -57.7934 56.9504 -26.416
    endloop
  endfacet
  facet normal 0 0 1
    outer loop
      vertex -57.7934 56.9504 26.416
      vertex -57.9145 56.7281 26.416
      vertex -58.0128 56.4947 26.416
    endloop
  endfacet
  facet normal 0 0 1
    outer loop
      vertex -57.488 57.3536 26.416
      vertex -57.7934 56.9504 26.416
      vertex -58.0128 56.4947 26.416
    endloop
  endfacet
  facet normal 0 0 1
    outer loop
      vertex 58.166 55.626 26.416
      vertex 58.1534 55.8789 26.416
      vertex 58.1156 56.1293 26.416
    endloop
  endfacet
  facet normal 0.998761 0.0497603 -0
    outer loop
      vertex 58.1534 55.8789 21.336
      vertex 58.1534 55.8789 26.416
      vertex 58.166 55.626 26.416
    endloop
  endfacet
  facet normal 0.998761 -0.0497603 0
    outer loop
      vertex 58.166 -55.626 26.416
      vertex 58.1534 -55.8789 21.336
      vertex 58.166 -55.626 -26.416
    endloop
  endfacet
  facet normal 0 -0 -1
    outer loop
      vertex 58.166 55.626 -26.416
      vertex 58.166 -55.626 -26.416
      vertex 57.9665 -56.6126 -26.416
    endloop
  endfacet
  facet normal 0.939678 -0.34206 0
    outer loop
      vertex 58.0531 -56.3747 -21.336
      vertex 58.0531 -56.3747 26.416
      vertex 57.9665 -56.6126 26.416
    endloop
  endfacet
  facet normal 0 0 1
    outer loop
      vertex 57.3995 -57.4443 26.416
      vertex 57.9665 -56.6126 26.416
      vertex 58.166 -55.626 26.416
    endloop
  endfacet
  facet normal 0 0 1
    outer loop
      vertex 57.3995 -57.4443 26.416
      vertex 57.5718 -57.2587 26.416
      vertex 57.9665 -56.6126 26.416
    endloop
  endfacet
  facet normal 0 0 -1
    outer loop
      vertex 57.5718 -57.2587 -26.416
      vertex 57.2097 -57.6119 -26.416
      vertex 56.7848 -57.8863 -26.416
    endloop
  endfacet
  facet normal -0.542613 -0.839983 0
    outer loop
      vertex -56.896 -57.8257 21.336
      vertex -56.896 -57.8257 26.416
      vertex -57.1087 -57.6883 26.416
    endloop
  endfacet
  facet normal 0 0 1
    outer loop
      vertex -57.488 -57.3536 26.416
      vertex -57.1087 -57.6883 26.416
      vertex -56.6707 -57.9412 26.416
    endloop
  endfacet
  facet normal 0 0 1
    outer loop
      vertex -56.6707 -57.9412 26.416
      vertex -56.435 -58.0337 26.416
      vertex -55.6893 -58.1652 26.416
    endloop
  endfacet
  facet normal -0.365322 -0.930881 0
    outer loop
      vertex -56.6707 -57.9412 21.336
      vertex -56.435 -58.0337 26.416
      vertex -56.6707 -57.9412 26.416
    endloop
  endfacet
  facet normal 0.222696 0.974888 0
    outer loop
      vertex 56.3139 58.071 21.336
      vertex 56.3139 58.071 -26.416
      vertex 56.067 58.1274 -26.416
    endloop
  endfacet
  facet normal 0.318241 0.94801 0
    outer loop
      vertex 56.554 57.9904 -26.416
      vertex 56.3139 58.071 -26.416
      vertex 56.3139 58.071 21.336
    endloop
  endfacet
  facet normal 0.124424 0.992229 -0
    outer loop
      vertex 55.8158 58.1589 -26.416
      vertex 55.8158 58.1589 26.416
      vertex 56.067 58.1274 26.416
    endloop
  endfacet
  facet normal 0 0 1
    outer loop
      vertex 56.554 57.9904 26.416
      vertex 56.067 58.1274 26.416
      vertex 55.5627 58.1652 26.416
    endloop
  endfacet
  facet normal 0 0 1
    outer loop
      vertex 55.8158 -58.1589 26.416
      vertex 56.7848 -57.8863 26.416
      vertex 57.3995 -57.4443 26.416
    endloop
  endfacet
  facet normal 0 0 1
    outer loop
      vertex 55.8158 -58.1589 26.416
      vertex 56.3139 -58.0711 26.416
      vertex 56.7848 -57.8863 26.416
    endloop
  endfacet
  facet normal 0 0 1
    outer loop
      vertex -55.6893 -58.1652 26.416
      vertex 55.5627 -58.1652 26.416
      vertex 55.8158 -58.1589 26.416
    endloop
  endfacet
  facet normal 0 -1 0
    outer loop
      vertex -55.6893 -58.1652 21.336
      vertex 55.5627 -58.1652 26.416
      vertex -55.6893 -58.1652 26.416
    endloop
  endfacet
  facet normal 0 -0 -1
    outer loop
      vertex 54.817 -58.0337 -26.416
      vertex 55.5627 -58.1652 -26.416
      vertex -55.6893 -58.1652 -26.416
    endloop
  endfacet
  facet normal 0 0 -1
    outer loop
      vertex 56.7848 -57.8863 -26.416
      vertex 56.554 -57.9904 -26.416
      vertex 54.817 -58.0337 -26.416
    endloop
  endfacet
  facet normal -0.17374 -0.984792 0
    outer loop
      vertex -56.1912 -58.1023 -26.416
      vertex -55.9418 -58.1463 -26.416
      vertex -55.9418 -58.1463 21.336
    endloop
  endfacet
  facet normal 0 0 -1
    outer loop
      vertex -55.6893 -58.1652 -26.416
      vertex -55.9418 -58.1463 -26.416
      vertex -56.1912 -58.1023 -26.416
    endloop
  endfacet
  facet normal -0.542613 -0.839983 0
    outer loop
      vertex -57.1087 -57.6883 -26.416
      vertex -56.896 -57.8257 -26.416
      vertex -56.896 -57.8257 21.336
    endloop
  endfacet
  facet normal 0 0 -1
    outer loop
      vertex -56.6707 -57.9412 -26.416
      vertex -56.896 -57.8257 -26.416
      vertex -57.1087 -57.6883 -26.416
    endloop
  endfacet
  facet normal -0.623249 -0.782023 -0
    outer loop
      vertex -57.3067 -57.5305 21.336
      vertex -57.3067 -57.5305 -26.416
      vertex -57.1087 -57.6883 -26.416
    endloop
  endfacet
  facet normal -0.698368 -0.715739 0
    outer loop
      vertex -57.488 -57.3536 -26.416
      vertex -57.3067 -57.5305 -26.416
      vertex -57.3067 -57.5305 21.336
    endloop
  endfacet
  facet normal -0.98023 -0.197863 0
    outer loop
      vertex -58.1376 -56.0046 21.336
      vertex -58.0875 -56.2528 -26.416
      vertex -58.0875 -56.2528 26.416
    endloop
  endfacet
  facet normal -0.98023 -0.197863 -0
    outer loop
      vertex -58.1376 -56.0046 21.336
      vertex -58.1376 -56.0046 -26.416
      vertex -58.0875 -56.2528 -26.416
    endloop
  endfacet
  facet normal -0.995037 -0.0995037 0
    outer loop
      vertex -58.1376 -56.0046 21.336
      vertex -58.1376 -56.0046 26.416
      vertex -58.1628 -55.7526 26.416
    endloop
  endfacet
  facet normal -0.98023 -0.197863 0
    outer loop
      vertex -58.0875 -56.2528 26.416
      vertex -58.1376 -56.0046 26.416
      vertex -58.1376 -56.0046 21.336
    endloop
  endfacet
  facet normal 0 0 1
    outer loop
      vertex -58.0875 -56.2528 26.416
      vertex -58.0128 -56.4947 26.416
      vertex -57.7934 -56.9505 26.416
    endloop
  endfacet
  facet normal -0.95548 -0.295057 0
    outer loop
      vertex -58.0128 -56.4947 21.336
      vertex -58.0128 -56.4947 26.416
      vertex -58.0875 -56.2528 26.416
    endloop
  endfacet
  facet normal -0.878242 -0.478216 -0
    outer loop
      vertex -57.9145 -56.7281 -21.336
      vertex -57.9145 -56.7281 -26.416
      vertex -57.7934 -56.9505 -26.416
    endloop
  endfacet
  facet normal 0 0 -1
    outer loop
      vertex -57.488 -57.3536 -26.416
      vertex -57.7934 -56.9505 -26.416
      vertex -58.0128 -56.4947 -26.416
    endloop
  endfacet
  facet normal -0.82611 -0.563508 0
    outer loop
      vertex -57.6507 -57.1597 21.336
      vertex -57.6507 -57.1597 26.416
      vertex -57.7934 -56.9505 26.416
    endloop
  endfacet
  facet normal -0.766047 -0.642784 0
    outer loop
      vertex -57.488 -57.3536 26.416
      vertex -57.6507 -57.1597 26.416
      vertex -57.6507 -57.1597 21.336
    endloop
  endfacet
  facet normal -0.542613 0.839983 0
    outer loop
      vertex -57.1087 57.6883 26.416
      vertex -56.896 57.8257 26.416
      vertex -56.896 57.8257 -26.416
    endloop
  endfacet
  facet normal 0 0 1
    outer loop
      vertex -56.6707 57.9412 26.416
      vertex -56.896 57.8257 26.416
      vertex -57.1087 57.6883 26.416
    endloop
  endfacet
  facet normal -0.542613 0.839983 0
    outer loop
      vertex -56.896 57.8257 -26.416
      vertex -57.1087 57.6883 -26.416
      vertex -57.1087 57.6883 26.416
    endloop
  endfacet
  facet normal 0 0 -1
    outer loop
      vertex -57.488 57.3536 -26.416
      vertex -57.1087 57.6883 -26.416
      vertex -56.896 57.8257 -26.416
    endloop
  endfacet
  facet normal 0 0 1
    outer loop
      vertex -57.1087 57.6883 26.416
      vertex -57.3067 57.5304 26.416
      vertex -57.488 57.3536 26.416
    endloop
  endfacet
  facet normal -0.62349 0.781831 0
    outer loop
      vertex -57.1087 57.6883 -26.416
      vertex -57.3067 57.5304 26.416
      vertex -57.1087 57.6883 26.416
    endloop
  endfacet
  facet normal 0 0 -1
    outer loop
      vertex -56.896 57.8257 -26.416
      vertex -56.6707 57.9412 -26.416
      vertex -56.435 58.0337 -26.416
    endloop
  endfacet
  facet normal -0.456196 0.889879 0
    outer loop
      vertex -56.6707 57.9412 26.416
      vertex -56.6707 57.9412 -26.416
      vertex -56.896 57.8257 -26.416
    endloop
  endfacet
  facet normal -0.27086 0.962619 0
    outer loop
      vertex -56.435 58.0337 -26.416
      vertex -56.435 58.0337 26.416
      vertex -56.1912 58.1023 26.416
    endloop
  endfacet
  facet normal -0.365322 0.930881 0
    outer loop
      vertex -56.6707 57.9412 26.416
      vertex -56.435 58.0337 26.416
      vertex -56.435 58.0337 -26.416
    endloop
  endfacet
  facet normal -0.980214 0.197939 0
    outer loop
      vertex -58.1376 56.0046 -26.416
      vertex -58.1376 56.0046 26.416
      vertex -58.0875 56.2527 26.416
    endloop
  endfacet
  facet normal -0.995037 0.0995037 0
    outer loop
      vertex -58.1628 55.7526 26.416
      vertex -58.1376 56.0046 26.416
      vertex -58.1376 56.0046 -26.416
    endloop
  endfacet
  facet normal -0.82611 0.563508 0
    outer loop
      vertex -57.7934 56.9504 26.416
      vertex -57.6507 57.1596 26.416
      vertex -57.6507 57.1596 -26.416
    endloop
  endfacet
  facet normal 0 0 1
    outer loop
      vertex -57.488 57.3536 26.416
      vertex -57.6507 57.1596 26.416
      vertex -57.7934 56.9504 26.416
    endloop
  endfacet
  facet normal -0.878152 0.478382 0
    outer loop
      vertex -57.9145 56.7281 -26.416
      vertex -57.9145 56.7281 26.416
      vertex -57.7934 56.9504 26.416
    endloop
  endfacet
  facet normal -0.921598 0.388145 0
    outer loop
      vertex -58.0128 56.4947 26.416
      vertex -57.9145 56.7281 26.416
      vertex -57.9145 56.7281 -26.416
    endloop
  endfacet
  facet normal 0.939678 -0.34206 0
    outer loop
      vertex 57.9665 -56.6126 -26.416
      vertex 58.0531 -56.3747 -21.336
      vertex 57.9665 -56.6126 26.416
    endloop
  endfacet
  facet normal 0.998761 -0.0497603 0
    outer loop
      vertex 58.1534 -55.8789 21.336
      vertex 58.1534 -55.8789 -26.416
      vertex 58.166 -55.626 -26.416
    endloop
  endfacet
  facet normal 0 0 -1
    outer loop
      vertex 57.9665 -56.6126 -26.416
      vertex 57.8567 -56.8408 -26.416
      vertex 57.5718 -57.2587 -26.416
    endloop
  endfacet
  facet normal 0.901116 -0.433578 0
    outer loop
      vertex 57.9665 -56.6126 26.416
      vertex 57.8567 -56.8408 -26.416
      vertex 57.9665 -56.6126 -26.416
    endloop
  endfacet
  facet normal 0 0 -1
    outer loop
      vertex 57.8567 -56.8408 -26.416
      vertex 57.7246 -57.0568 -26.416
      vertex 57.5718 -57.2587 -26.416
    endloop
  endfacet
  facet normal 0 0 1
    outer loop
      vertex 57.5718 -57.2587 26.416
      vertex 57.8567 -56.8408 26.416
      vertex 57.9665 -56.6126 26.416
    endloop
  endfacet
  facet normal 0.583701 -0.811969 0
    outer loop
      vertex 57.2097 -57.6119 26.416
      vertex 57.0041 -57.7597 -26.416
      vertex 57.2097 -57.6119 -26.416
    endloop
  endfacet
  facet normal 0 0 -1
    outer loop
      vertex 57.2097 -57.6119 -26.416
      vertex 57.0041 -57.7597 -26.416
      vertex 56.7848 -57.8863 -26.416
    endloop
  endfacet
  facet normal -0.623249 -0.782023 0
    outer loop
      vertex -57.1087 -57.6883 26.416
      vertex -57.3067 -57.5305 26.416
      vertex -57.3067 -57.5305 21.336
    endloop
  endfacet
  facet normal 0 0 1
    outer loop
      vertex -57.488 -57.3536 26.416
      vertex -57.3067 -57.5305 26.416
      vertex -57.1087 -57.6883 26.416
    endloop
  endfacet
  facet normal -0.456196 -0.889879 0
    outer loop
      vertex -56.6707 -57.9412 26.416
      vertex -56.896 -57.8257 26.416
      vertex -56.896 -57.8257 21.336
    endloop
  endfacet
  facet normal 0 0 1
    outer loop
      vertex -57.1087 -57.6883 26.416
      vertex -56.896 -57.8257 26.416
      vertex -56.6707 -57.9412 26.416
    endloop
  endfacet
  facet normal 0 0 -1
    outer loop
      vertex -56.1912 -58.1023 -26.416
      vertex -56.435 -58.0337 -26.416
      vertex -56.6707 -57.9412 -26.416
    endloop
  endfacet
  facet normal -0.27086 -0.962619 -0
    outer loop
      vertex -56.435 -58.0337 26.416
      vertex -56.435 -58.0337 -26.416
      vertex -56.1912 -58.1023 -26.416
    endloop
  endfacet
  facet normal -0.17374 -0.984792 0
    outer loop
      vertex -55.9418 -58.1463 21.336
      vertex -55.9418 -58.1463 26.416
      vertex -56.1912 -58.1023 26.416
    endloop
  endfacet
  facet normal 0 0 1
    outer loop
      vertex -56.435 -58.0337 26.416
      vertex -56.1912 -58.1023 26.416
      vertex -55.6893 -58.1652 26.416
    endloop
  endfacet
  facet normal 0.222696 0.974888 0
    outer loop
      vertex 56.067 58.1274 26.416
      vertex 56.3139 58.071 26.416
      vertex 56.3139 58.071 21.336
    endloop
  endfacet
  facet normal 0 0 1
    outer loop
      vertex 56.554 57.9904 26.416
      vertex 56.3139 58.071 26.416
      vertex 56.067 58.1274 26.416
    endloop
  endfacet
  facet normal 0.0248836 0.99969 0
    outer loop
      vertex 55.5627 58.1652 26.416
      vertex 55.8158 58.1589 26.416
      vertex 55.8158 58.1589 -26.416
    endloop
  endfacet
  facet normal 0 0 1
    outer loop
      vertex 56.067 58.1274 26.416
      vertex 55.8158 58.1589 26.416
      vertex 55.5627 58.1652 26.416
    endloop
  endfacet
  facet normal 0.318596 -0.947891 0
    outer loop
      vertex 56.3139 -58.0711 26.416
      vertex 56.3139 -58.0711 -26.416
      vertex 56.554 -57.9904 -26.416
    endloop
  endfacet
  facet normal 0.0248836 -0.99969 0
    outer loop
      vertex 55.5627 -58.1652 26.416
      vertex 55.5627 -58.1652 -26.416
      vertex 55.8158 -58.1589 26.416
    endloop
  endfacet
  facet normal 0 0 1
    outer loop
      vertex 55.8158 -58.1589 26.416
      vertex 56.067 -58.1274 26.416
      vertex 56.3139 -58.0711 26.416
    endloop
  endfacet
  facet normal 0 0 1
    outer loop
      vertex 56.3139 -58.0711 26.416
      vertex 56.554 -57.9904 26.416
      vertex 56.7848 -57.8863 26.416
    endloop
  endfacet
  facet normal -0.995037 -0.0995037 0
    outer loop
      vertex -58.1628 -55.7526 -26.416
      vertex -58.1376 -56.0046 -26.416
      vertex -58.1376 -56.0046 21.336
    endloop
  endfacet
  facet normal 0 0 -1
    outer loop
      vertex -58.0875 -56.2528 -26.416
      vertex -58.1376 -56.0046 -26.416
      vertex -58.1628 -55.7526 -26.416
    endloop
  endfacet
  facet normal -0.878242 -0.478216 0
    outer loop
      vertex -57.7934 -56.9505 26.416
      vertex -57.9145 -56.7281 26.416
      vertex -57.9145 -56.7281 -21.336
    endloop
  endfacet
  facet normal 0 0 1
    outer loop
      vertex -58.0128 -56.4947 26.416
      vertex -57.9145 -56.7281 26.416
      vertex -57.7934 -56.9505 26.416
    endloop
  endfacet
  facet normal -0.82611 -0.563508 0
    outer loop
      vertex -57.7934 -56.9505 -26.416
      vertex -57.6507 -57.1597 -26.416
      vertex -57.6507 -57.1597 21.336
    endloop
  endfacet
  facet normal 0 0 -1
    outer loop
      vertex -57.488 -57.3536 -26.416
      vertex -57.6507 -57.1597 -26.416
      vertex -57.7934 -56.9505 -26.416
    endloop
  endfacet
  facet normal -0.921598 -0.388145 0
    outer loop
      vertex -58.0128 -56.4947 -26.416
      vertex -57.9145 -56.7281 -26.416
      vertex -57.9145 -56.7281 -21.336
    endloop
  endfacet
  facet normal 0 0 -1
    outer loop
      vertex -57.7934 -56.9505 -26.416
      vertex -57.9145 -56.7281 -26.416
      vertex -58.0128 -56.4947 -26.416
    endloop
  endfacet
  facet normal -0.698166 0.715936 0
    outer loop
      vertex -57.3067 57.5304 26.416
      vertex -57.3067 57.5304 -26.416
      vertex -57.488 57.3536 -26.416
    endloop
  endfacet
  facet normal -0.62349 0.781831 0
    outer loop
      vertex -57.1087 57.6883 -26.416
      vertex -57.3067 57.5304 -26.416
      vertex -57.3067 57.5304 26.416
    endloop
  endfacet
  facet normal 0.969065 -0.246807 0
    outer loop
      vertex 58.1156 -56.1293 -21.336
      vertex 58.1156 -56.1293 26.416
      vertex 58.0531 -56.3747 -21.336
    endloop
  endfacet
  facet normal 0.988797 -0.149267 0
    outer loop
      vertex 58.1156 -56.1293 -21.336
      vertex 58.1156 -56.1293 -26.416
      vertex 58.1534 -55.8789 21.336
    endloop
  endfacet
  facet normal 0.969065 -0.246807 0
    outer loop
      vertex 58.0531 -56.3747 -21.336
      vertex 58.1156 -56.1293 -26.416
      vertex 58.1156 -56.1293 -21.336
    endloop
  endfacet
  facet normal 0.988797 -0.149267 0
    outer loop
      vertex 58.1534 -55.8789 21.336
      vertex 58.1156 -56.1293 26.416
      vertex 58.1156 -56.1293 -21.336
    endloop
  endfacet
  facet normal 0.939678 -0.34206 0
    outer loop
      vertex 57.9665 -56.6126 -26.416
      vertex 58.0531 -56.3747 -26.416
      vertex 58.0531 -56.3747 -21.336
    endloop
  endfacet
  facet normal 0 0 -1
    outer loop
      vertex 58.166 -55.626 -26.416
      vertex 58.1156 -56.1293 -26.416
      vertex 57.9665 -56.6126 -26.416
    endloop
  endfacet
  facet normal 0.797386 -0.60347 0
    outer loop
      vertex 57.7246 -57.0568 -26.416
      vertex 57.7246 -57.0568 26.416
      vertex 57.5718 -57.2587 26.416
    endloop
  endfacet
  facet normal 0.797386 -0.60347 0
    outer loop
      vertex 57.5718 -57.2587 -26.416
      vertex 57.7246 -57.0568 -26.416
      vertex 57.5718 -57.2587 26.416
    endloop
  endfacet
  facet normal 0.853106 -0.521738 0
    outer loop
      vertex 57.8567 -56.8408 -26.416
      vertex 57.8567 -56.8408 26.416
      vertex 57.7246 -57.0568 -26.416
    endloop
  endfacet
  facet normal 0.901116 -0.433578 0
    outer loop
      vertex 57.9665 -56.6126 26.416
      vertex 57.8567 -56.8408 26.416
      vertex 57.8567 -56.8408 -26.416
    endloop
  endfacet
  facet normal 0.661909 -0.749584 0
    outer loop
      vertex 57.2097 -57.6119 -26.416
      vertex 57.3995 -57.4443 -26.416
      vertex 57.3995 -57.4443 26.416
    endloop
  endfacet
  facet normal 0 0 -1
    outer loop
      vertex 57.5718 -57.2587 -26.416
      vertex 57.3995 -57.4443 -26.416
      vertex 57.2097 -57.6119 -26.416
    endloop
  endfacet
  facet normal 0.661909 -0.749584 0
    outer loop
      vertex 57.3995 -57.4443 26.416
      vertex 57.2097 -57.6119 26.416
      vertex 57.2097 -57.6119 -26.416
    endloop
  endfacet
  facet normal 0 0 1
    outer loop
      vertex 56.7848 -57.8863 26.416
      vertex 57.2097 -57.6119 26.416
      vertex 57.3995 -57.4443 26.416
    endloop
  endfacet
  facet normal 0.499962 -0.866047 0
    outer loop
      vertex 57.0041 -57.7597 -26.416
      vertex 57.0041 -57.7597 26.416
      vertex 56.7848 -57.8863 26.416
    endloop
  endfacet
  facet normal 0.499962 -0.866047 0
    outer loop
      vertex 56.7848 -57.8863 -26.416
      vertex 57.0041 -57.7597 -26.416
      vertex 56.7848 -57.8863 26.416
    endloop
  endfacet
  facet normal -0.0746427 -0.99721 0
    outer loop
      vertex -55.6893 -58.1652 26.416
      vertex -55.9418 -58.1463 26.416
      vertex -55.9418 -58.1463 21.336
    endloop
  endfacet
  facet normal 0 0 1
    outer loop
      vertex -56.1912 -58.1023 26.416
      vertex -55.9418 -58.1463 26.416
      vertex -55.6893 -58.1652 26.416
    endloop
  endfacet
  facet normal 0 0 -1
    outer loop
      vertex 56.067 -58.1274 -26.416
      vertex 55.8158 -58.1589 -26.416
      vertex 55.5627 -58.1652 -26.416
    endloop
  endfacet
  facet normal 0 0 -1
    outer loop
      vertex 56.554 -57.9904 -26.416
      vertex 56.067 -58.1274 -26.416
      vertex 55.5627 -58.1652 -26.416
    endloop
  endfacet
  facet normal 0.318596 -0.947891 0
    outer loop
      vertex 56.554 -57.9904 -26.416
      vertex 56.554 -57.9904 26.416
      vertex 56.3139 -58.0711 26.416
    endloop
  endfacet
  facet normal 0.411153 -0.911566 0
    outer loop
      vertex 56.7848 -57.8863 26.416
      vertex 56.554 -57.9904 26.416
      vertex 56.554 -57.9904 -26.416
    endloop
  endfacet
  facet normal 0.998761 -0.0497603 0
    outer loop
      vertex 58.166 -55.626 26.416
      vertex 58.1534 -55.8789 26.416
      vertex 58.1534 -55.8789 21.336
    endloop
  endfacet
  facet normal 0 0 1
    outer loop
      vertex 57.9665 -56.6126 26.416
      vertex 58.1156 -56.1293 26.416
      vertex 58.166 -55.626 26.416
    endloop
  endfacet
  facet normal 0.988797 -0.149267 0
    outer loop
      vertex 58.1156 -56.1293 -26.416
      vertex 58.1534 -55.8789 -26.416
      vertex 58.1534 -55.8789 21.336
    endloop
  endfacet
  facet normal 0 0 -1
    outer loop
      vertex 58.166 -55.626 -26.416
      vertex 58.1534 -55.8789 -26.416
      vertex 58.1156 -56.1293 -26.416
    endloop
  endfacet
  facet normal 0 0 -1
    outer loop
      vertex 58.1156 -56.1293 -26.416
      vertex 58.0531 -56.3747 -26.416
      vertex 57.9665 -56.6126 -26.416
    endloop
  endfacet
  facet normal 0.969065 -0.246807 0
    outer loop
      vertex 58.0531 -56.3747 -21.336
      vertex 58.0531 -56.3747 -26.416
      vertex 58.1156 -56.1293 -26.416
    endloop
  endfacet
  facet normal 0.853106 -0.521738 0
    outer loop
      vertex 57.8567 -56.8408 26.416
      vertex 57.7246 -57.0568 26.416
      vertex 57.7246 -57.0568 -26.416
    endloop
  endfacet
  facet normal 0 0 1
    outer loop
      vertex 57.5718 -57.2587 26.416
      vertex 57.7246 -57.0568 26.416
      vertex 57.8567 -56.8408 26.416
    endloop
  endfacet
  facet normal 0.583701 -0.811969 0
    outer loop
      vertex 57.2097 -57.6119 26.416
      vertex 57.0041 -57.7597 26.416
      vertex 57.0041 -57.7597 -26.416
    endloop
  endfacet
  facet normal 0 0 1
    outer loop
      vertex 56.7848 -57.8863 26.416
      vertex 57.0041 -57.7597 26.416
      vertex 57.2097 -57.6119 26.416
    endloop
  endfacet
  facet normal 0.222321 -0.974974 0
    outer loop
      vertex 56.067 -58.1274 -26.416
      vertex 56.3139 -58.0711 -26.416
      vertex 56.3139 -58.0711 26.416
    endloop
  endfacet
  facet normal 0 0 -1
    outer loop
      vertex 56.554 -57.9904 -26.416
      vertex 56.3139 -58.0711 -26.416
      vertex 56.067 -58.1274 -26.416
    endloop
  endfacet
  facet normal 0.124424 -0.992229 0
    outer loop
      vertex 56.067 -58.1274 -26.416
      vertex 56.067 -58.1274 26.416
      vertex 55.8158 -58.1589 26.416
    endloop
  endfacet
  facet normal 0.222321 -0.974974 0
    outer loop
      vertex 56.3139 -58.0711 26.416
      vertex 56.067 -58.1274 26.416
      vertex 56.067 -58.1274 -26.416
    endloop
  endfacet
  facet normal 0.124424 -0.992229 0
    outer loop
      vertex 55.8158 -58.1589 26.416
      vertex 55.8158 -58.1589 -26.416
      vertex 56.067 -58.1274 -26.416
    endloop
  endfacet
  facet normal 0.0248836 -0.99969 0
    outer loop
      vertex 55.5627 -58.1652 -26.416
      vertex 55.8158 -58.1589 -26.416
      vertex 55.8158 -58.1589 26.416
    endloop
  endfacet
  facet normal 0.969065 -0.246807 0
    outer loop
      vertex 58.1156 -56.1293 26.416
      vertex 58.0531 -56.3747 26.416
      vertex 58.0531 -56.3747 -21.336
    endloop
  endfacet
  facet normal 0 0 1
    outer loop
      vertex 57.9665 -56.6126 26.416
      vertex 58.0531 -56.3747 26.416
      vertex 58.1156 -56.1293 26.416
    endloop
  endfacet
  facet normal 0 0 1
    outer loop
      vertex 58.1156 -56.1293 26.416
      vertex 58.1534 -55.8789 26.416
      vertex 58.166 -55.626 26.416
    endloop
  endfacet
  facet normal 0.988797 -0.149267 0
    outer loop
      vertex 58.1534 -55.8789 21.336
      vertex 58.1534 -55.8789 26.416
      vertex 58.1156 -56.1293 26.416
    endloop
  endfacet
endsolid OpenSCAD_Model
