solid OpenSCAD_Model
  facet normal -0 0 1
    outer loop
      vertex -70.5147 -32.6385 6.35
      vertex 69.9928 -32.9943 6.35
      vertex 71.0647 31.9488 6.35
    endloop
  endfacet
  facet normal 0 0 1
    outer loop
      vertex -69.8787 33.0492 6.35
      vertex -71.3708 30.8606 6.35
      vertex -70.5147 -32.6385 6.35
    endloop
  endfacet
  facet normal 0.124424 0.992229 0
    outer loop
      vertex 69.275 33.2354 6.35
      vertex 69.275 33.2354 -1.27
      vertex 69.0238 33.2669 1.26998
    endloop
  endfacet
  facet normal 0 0 1
    outer loop
      vertex 71.0647 31.9488 6.35
      vertex 69.9928 32.9943 6.35
      vertex -70.5147 -32.6385 6.35
    endloop
  endfacet
  facet normal 0.124424 0.992229 -0
    outer loop
      vertex 69.0238 33.2669 1.26998
      vertex 69.0238 33.2669 6.35
      vertex 69.275 33.2354 6.35
    endloop
  endfacet
  facet normal 0 0 1
    outer loop
      vertex 71.0647 31.9488 6.35
      vertex 70.9326 32.1648 6.35
      vertex 70.7797 32.3667 6.35
    endloop
  endfacet
  facet normal 0 0 1
    outer loop
      vertex 69.9928 32.9943 6.35
      vertex -69.8787 33.0492 6.35
      vertex -70.5147 -32.6385 6.35
    endloop
  endfacet
  facet normal 0 0 -1
    outer loop
      vertex -68.8973 33.2732 -6.35
      vertex 68.7707 33.2732 -6.35
      vertex 70.2121 32.8676 -6.35
    endloop
  endfacet
  facet normal 0 0 -1
    outer loop
      vertex -71.3708 30.8606 -6.35
      vertex 70.2121 32.8676 -6.35
      vertex 70.6075 32.5523 -6.35
    endloop
  endfacet
  facet normal 0 0 1
    outer loop
      vertex 69.9928 -32.9943 6.35
      vertex 71.374 -30.734 6.35
      vertex 71.0647 31.9488 6.35
    endloop
  endfacet
  facet normal 0 0 -1
    outer loop
      vertex 69.5219 33.179 -6.35
      vertex 69.762 33.0984 -6.35
      vertex 70.2121 32.8676 -6.35
    endloop
  endfacet
  facet normal 0 0 1
    outer loop
      vertex 70.6075 32.5523 6.35
      vertex 70.4177 32.7198 6.35
      vertex 69.9928 32.9943 6.35
    endloop
  endfacet
  facet normal 0.500258 0.865876 0
    outer loop
      vertex 69.9928 32.9943 6.35
      vertex 70.2121 32.8676 6.35
      vertex 70.2121 32.8676 -6.35
    endloop
  endfacet
  facet normal 0 0 1
    outer loop
      vertex 71.0647 31.9488 6.35
      vertex 70.6075 32.5523 6.35
      vertex 69.9928 32.9943 6.35
    endloop
  endfacet
  facet normal 0 0 -1
    outer loop
      vertex 69.9928 -32.9943 -6.35
      vertex -71.3708 30.8606 -6.35
      vertex 70.6075 32.5523 -6.35
    endloop
  endfacet
  facet normal 0 0 -1
    outer loop
      vertex -69.8787 -33.0492 -6.35
      vertex -71.0014 -32.0584 -6.35
      vertex -71.3708 -30.8606 -6.35
    endloop
  endfacet
  facet normal 0 0 1
    outer loop
      vertex 69.9928 32.9943 6.35
      vertex 68.7707 33.2732 6.35
      vertex -69.8787 33.0492 6.35
    endloop
  endfacet
  facet normal 0 0 1
    outer loop
      vertex 69.9928 32.9943 6.35
      vertex 69.275 33.2354 6.35
      vertex 68.7707 33.2732 6.35
    endloop
  endfacet
  facet normal -0 0 -1
    outer loop
      vertex 69.9928 -32.9943 -6.35
      vertex -69.8787 -33.0492 -6.35
      vertex -71.3708 30.8606 -6.35
    endloop
  endfacet
  facet normal 0 0 1
    outer loop
      vertex 69.9928 -32.9943 6.35
      vertex 71.0647 -31.9488 6.35
      vertex 71.374 -30.734 6.35
    endloop
  endfacet
  facet normal 0 -0 -1
    outer loop
      vertex 70.6075 32.5523 -6.35
      vertex 71.374 -30.734 -6.35
      vertex 69.9928 -32.9943 -6.35
    endloop
  endfacet
  facet normal 1 0 0
    outer loop
      vertex 71.374 -30.734 -6.35
      vertex 71.374 30.734 -6.35
      vertex 71.374 -30.734 6.35
    endloop
  endfacet
  facet normal 0 0 1
    outer loop
      vertex 69.9928 32.9943 6.35
      vertex 69.762 33.0984 6.35
      vertex 69.275 33.2354 6.35
    endloop
  endfacet
  facet normal 0 0 1
    outer loop
      vertex -69.8787 33.0492 6.35
      vertex -70.3167 32.7963 6.35
      vertex -70.8587 32.2677 6.35
    endloop
  endfacet
  facet normal 0 0 -1
    outer loop
      vertex -71.3708 30.8606 -6.35
      vertex -68.8973 33.2732 -6.35
      vertex 70.2121 32.8676 -6.35
    endloop
  endfacet
  facet normal 0.222696 0.974888 0
    outer loop
      vertex 69.5219 33.179 1.26998
      vertex 69.275 33.2354 -1.27
      vertex 69.275 33.2354 6.35
    endloop
  endfacet
  facet normal 0.733075 0.680148 0
    outer loop
      vertex 70.6075 32.5523 6.35
      vertex 70.7797 32.3667 6.35
      vertex 70.6075 32.5523 -6.35
    endloop
  endfacet
  facet normal 0 0 1
    outer loop
      vertex 71.0647 31.9488 6.35
      vertex 70.7797 32.3667 6.35
      vertex 70.6075 32.5523 6.35
    endloop
  endfacet
  facet normal 0 0 1
    outer loop
      vertex -69.8787 33.0492 6.35
      vertex -70.8587 32.2677 6.35
      vertex -71.3708 30.8606 6.35
    endloop
  endfacet
  facet normal -1 0 0
    outer loop
      vertex -71.3708 30.8606 -6.35
      vertex -71.3708 -30.8606 6.35
      vertex -71.3708 30.8606 6.35
    endloop
  endfacet
  facet normal 0 0 -1
    outer loop
      vertex 69.9928 -32.9943 -6.35
      vertex 68.7707 -33.2732 -6.35
      vertex -69.8787 -33.0492 -6.35
    endloop
  endfacet
  facet normal 0 0 1
    outer loop
      vertex -69.8787 -33.0492 6.35
      vertex -69.3992 -33.2103 6.35
      vertex -68.8973 -33.2732 6.35
    endloop
  endfacet
  facet normal 0 0 -1
    outer loop
      vertex 71.0647 -31.9488 -6.35
      vertex 70.9326 -32.1648 -6.35
      vertex 70.7797 -32.3667 -6.35
    endloop
  endfacet
  facet normal 0 0 -1
    outer loop
      vertex 70.6075 32.5523 -6.35
      vertex 71.374 30.734 -6.35
      vertex 71.374 -30.734 -6.35
    endloop
  endfacet
  facet normal 0 0 -1
    outer loop
      vertex 71.374 -30.734 -6.35
      vertex 71.0647 -31.9488 -6.35
      vertex 69.9928 -32.9943 -6.35
    endloop
  endfacet
  facet normal 0 0 1
    outer loop
      vertex 71.0647 -31.9488 6.35
      vertex 71.3236 -31.2373 6.35
      vertex 71.374 -30.734 6.35
    endloop
  endfacet
  facet normal 0 0 -1
    outer loop
      vertex 70.6075 32.5523 -6.35
      vertex 71.1745 31.7206 -6.35
      vertex 71.374 30.734 -6.35
    endloop
  endfacet
  facet normal 1 0 -0
    outer loop
      vertex 71.374 30.734 -6.35
      vertex 71.374 30.734 6.35
      vertex 71.374 -30.734 6.35
    endloop
  endfacet
  facet normal 0.411153 0.911566 -0
    outer loop
      vertex 69.762 33.0984 -1.27
      vertex 69.762 33.0984 1.26998
      vertex 69.9928 32.9943 6.35
    endloop
  endfacet
  facet normal -0.456196 0.889879 0
    outer loop
      vertex -69.8787 33.0492 6.35
      vertex -69.8787 33.0492 -6.35
      vertex -70.104 32.9337 -6.35
    endloop
  endfacet
  facet normal 0.318241 0.94801 0
    outer loop
      vertex 69.5219 33.179 1.26998
      vertex 69.762 33.0984 1.26998
      vertex 69.762 33.0984 -1.27
    endloop
  endfacet
  facet normal 0.411153 0.911566 -0
    outer loop
      vertex 69.762 33.0984 1.26998
      vertex 69.762 33.0984 6.35
      vertex 69.9928 32.9943 6.35
    endloop
  endfacet
  facet normal 0 0 -1
    outer loop
      vertex 68.7707 33.2732 -6.35
      vertex 69.0238 33.2669 -6.35
      vertex 70.2121 32.8676 -6.35
    endloop
  endfacet
  facet normal 0.222696 0.974888 0
    outer loop
      vertex 69.5219 33.179 1.26998
      vertex 69.5219 33.179 -1.27
      vertex 69.275 33.2354 -1.27
    endloop
  endfacet
  facet normal 0.411153 0.911566 0
    outer loop
      vertex 69.9928 32.9943 6.35
      vertex 69.9928 32.9943 -1.27
      vertex 69.762 33.0984 -1.27
    endloop
  endfacet
  facet normal 0.500258 0.865876 0
    outer loop
      vertex 70.2121 32.8676 -6.35
      vertex 69.9928 32.9943 -1.27
      vertex 69.9928 32.9943 6.35
    endloop
  endfacet
  facet normal 0.661687 0.74978 -0
    outer loop
      vertex 70.6075 32.5523 -6.35
      vertex 70.4177 32.7198 6.35
      vertex 70.6075 32.5523 6.35
    endloop
  endfacet
  facet normal 0.583701 0.811969 0
    outer loop
      vertex 70.4177 32.7198 6.35
      vertex 70.4177 32.7198 -6.35
      vertex 70.2121 32.8676 -6.35
    endloop
  endfacet
  facet normal 0 1 0
    outer loop
      vertex 68.7707 33.2732 6.35
      vertex 68.7707 33.2732 -6.35
      vertex -68.8973 33.2732 -6.35
    endloop
  endfacet
  facet normal 0.0248836 0.99969 0
    outer loop
      vertex 69.0238 33.2669 1.26998
      vertex 68.7707 33.2732 -6.35
      vertex 68.7707 33.2732 6.35
    endloop
  endfacet
  facet normal 0 0 -1
    outer loop
      vertex 70.6075 32.5523 -6.35
      vertex 70.9326 32.1648 -6.35
      vertex 71.1745 31.7206 -6.35
    endloop
  endfacet
  facet normal 0.733075 0.680148 0
    outer loop
      vertex 70.7797 32.3667 6.35
      vertex 70.7797 32.3667 -1.27
      vertex 70.6075 32.5523 -6.35
    endloop
  endfacet
  facet normal -0.27086 0.962619 0
    outer loop
      vertex -69.643 33.1417 -6.35
      vertex -69.3992 33.2103 6.35
      vertex -69.3992 33.2103 1.26998
    endloop
  endfacet
  facet normal 0 0 -1
    outer loop
      vertex -71.3708 30.8606 -6.35
      vertex -71.0014 32.0584 -6.35
      vertex -70.104 32.9337 -6.35
    endloop
  endfacet
  facet normal -0.623249 -0.782023 -0
    outer loop
      vertex -70.5147 -32.6385 6.35
      vertex -70.5147 -32.6385 -6.35
      vertex -70.3167 -32.7963 6.35
    endloop
  endfacet
  facet normal 0 0 1
    outer loop
      vertex -71.3708 30.8606 6.35
      vertex -71.3708 -30.8606 6.35
      vertex -70.5147 -32.6385 6.35
    endloop
  endfacet
  facet normal 0 0 -1
    outer loop
      vertex 69.9928 -32.9943 -6.35
      vertex 69.5219 -33.1791 -6.35
      vertex 68.7707 -33.2732 -6.35
    endloop
  endfacet
  facet normal -0 0 1
    outer loop
      vertex -69.8787 -33.0492 6.35
      vertex 69.0238 -33.2669 6.35
      vertex 69.9928 -32.9943 6.35
    endloop
  endfacet
  facet normal 0 0 1
    outer loop
      vertex -70.5147 -32.6385 6.35
      vertex -69.8787 -33.0492 6.35
      vertex 69.9928 -32.9943 6.35
    endloop
  endfacet
  facet normal 0 0 -1
    outer loop
      vertex -69.8787 -33.0492 -6.35
      vertex -70.5147 -32.6385 -6.35
      vertex -71.0014 -32.0584 -6.35
    endloop
  endfacet
  facet normal 0.797196 -0.603721 0
    outer loop
      vertex 70.9326 -32.1648 -6.35
      vertex 70.7797 -32.3667 6.35
      vertex 70.7797 -32.3667 -6.35
    endloop
  endfacet
  facet normal 0 0 1
    outer loop
      vertex 71.0647 -31.9488 6.35
      vertex 71.1745 -31.7206 6.35
      vertex 71.3236 -31.2373 6.35
    endloop
  endfacet
  facet normal 0 0 1
    outer loop
      vertex 69.9928 -32.9943 6.35
      vertex 70.4177 -32.7199 6.35
      vertex 70.6075 -32.5523 6.35
    endloop
  endfacet
  facet normal 0 0 -1
    outer loop
      vertex 71.0647 -31.9488 -6.35
      vertex 70.6075 -32.5523 -6.35
      vertex 69.9928 -32.9943 -6.35
    endloop
  endfacet
  facet normal 0 0 -1
    outer loop
      vertex 71.374 -30.734 -6.35
      vertex 71.3236 -31.2373 -6.35
      vertex 71.0647 -31.9488 -6.35
    endloop
  endfacet
  facet normal 0.988797 -0.149267 0
    outer loop
      vertex 71.3236 -31.2373 -6.35
      vertex 71.3614 -30.9869 -6.35
      vertex 71.3236 -31.2373 6.35
    endloop
  endfacet
  facet normal 0.797196 0.603721 0
    outer loop
      vertex 70.9326 32.1648 6.35
      vertex 70.9326 32.1648 -6.35
      vertex 70.7797 32.3667 -1.27
    endloop
  endfacet
  facet normal 0 -0 1
    outer loop
      vertex 71.374 -30.734 6.35
      vertex 71.374 30.734 6.35
      vertex 71.0647 31.9488 6.35
    endloop
  endfacet
  facet normal 0.0248836 0.99969 0
    outer loop
      vertex 68.7707 33.2732 6.35
      vertex 69.0238 33.2669 6.35
      vertex 69.0238 33.2669 1.26998
    endloop
  endfacet
  facet normal 0 0 1
    outer loop
      vertex 69.275 33.2354 6.35
      vertex 69.0238 33.2669 6.35
      vertex 68.7707 33.2732 6.35
    endloop
  endfacet
  facet normal 0.318241 0.94801 0
    outer loop
      vertex 69.5219 33.179 1.26998
      vertex 69.762 33.0984 6.35
      vertex 69.762 33.0984 1.26998
    endloop
  endfacet
  facet normal 0 0 1
    outer loop
      vertex 69.762 33.0984 6.35
      vertex 69.5219 33.179 6.35
      vertex 69.275 33.2354 6.35
    endloop
  endfacet
  facet normal 0.318241 0.94801 0
    outer loop
      vertex 69.762 33.0984 -1.27
      vertex 69.5219 33.179 -1.27
      vertex 69.5219 33.179 1.26998
    endloop
  endfacet
  facet normal 0.124424 0.992229 0
    outer loop
      vertex 69.275 33.2354 -1.27
      vertex 69.275 33.2354 -6.35
      vertex 69.0238 33.2669 -6.35
    endloop
  endfacet
  facet normal 0 0 1
    outer loop
      vertex 70.4177 32.7198 6.35
      vertex 70.2121 32.8676 6.35
      vertex 69.9928 32.9943 6.35
    endloop
  endfacet
  facet normal 0.583701 0.811969 -0
    outer loop
      vertex 70.2121 32.8676 -6.35
      vertex 70.2121 32.8676 6.35
      vertex 70.4177 32.7198 6.35
    endloop
  endfacet
  facet normal 0.661687 0.74978 0
    outer loop
      vertex 70.6075 32.5523 -6.35
      vertex 70.4177 32.7198 -6.35
      vertex 70.4177 32.7198 6.35
    endloop
  endfacet
  facet normal 0 0 -1
    outer loop
      vertex 70.2121 32.8676 -6.35
      vertex 70.4177 32.7198 -6.35
      vertex 70.6075 32.5523 -6.35
    endloop
  endfacet
  facet normal 0 0 1
    outer loop
      vertex 68.7707 33.2732 6.35
      vertex -68.8973 33.2732 6.35
      vertex -69.8787 33.0492 6.35
    endloop
  endfacet
  facet normal 0 1 0
    outer loop
      vertex -68.8973 33.2732 -6.35
      vertex -68.8973 33.2732 6.35
      vertex 68.7707 33.2732 6.35
    endloop
  endfacet
  facet normal 0.0248836 0.99969 0
    outer loop
      vertex 69.0238 33.2669 1.26998
      vertex 69.0238 33.2669 -6.35
      vertex 68.7707 33.2732 -6.35
    endloop
  endfacet
  facet normal 0.124424 0.992229 0
    outer loop
      vertex 69.275 33.2354 -1.27
      vertex 69.0238 33.2669 -6.35
      vertex 69.0238 33.2669 1.26998
    endloop
  endfacet
  facet normal 0 0 -1
    outer loop
      vertex 70.6075 32.5523 -6.35
      vertex 70.7797 32.3667 -6.35
      vertex 70.9326 32.1648 -6.35
    endloop
  endfacet
  facet normal 0.797196 0.603721 0
    outer loop
      vertex 70.7797 32.3667 6.35
      vertex 70.9326 32.1648 6.35
      vertex 70.7797 32.3667 -1.27
    endloop
  endfacet
  facet normal 0.901116 0.433578 0
    outer loop
      vertex 71.0647 31.9488 6.35
      vertex 71.1745 31.7206 6.35
      vertex 71.1745 31.7206 -6.35
    endloop
  endfacet
  facet normal 0 0 1
    outer loop
      vertex 71.374 30.734 6.35
      vertex 71.3236 31.2373 6.35
      vertex 71.0647 31.9488 6.35
    endloop
  endfacet
  facet normal 0 0 -1
    outer loop
      vertex -71.3708 30.8606 -6.35
      vertex -70.104 32.9337 -6.35
      vertex -68.8973 33.2732 -6.35
    endloop
  endfacet
  facet normal 0 0 -1
    outer loop
      vertex -71.0014 32.0584 -6.35
      vertex -70.5147 32.6384 -6.35
      vertex -70.104 32.9337 -6.35
    endloop
  endfacet
  facet normal -0.826236 0.563325 0
    outer loop
      vertex -70.8587 32.2677 1.26998
      vertex -71.0014 32.0584 -6.35
      vertex -70.8587 32.2677 6.35
    endloop
  endfacet
  facet normal -0.542613 0.839983 0
    outer loop
      vertex -70.3167 32.7963 6.35
      vertex -70.104 32.9337 6.35
      vertex -70.104 32.9337 -6.35
    endloop
  endfacet
  facet normal 0 0 -1
    outer loop
      vertex -71.3708 30.8606 -6.35
      vertex -71.2208 31.6027 -6.35
      vertex -71.0014 32.0584 -6.35
    endloop
  endfacet
  facet normal -0.826236 0.563325 0
    outer loop
      vertex -71.0014 32.0584 -6.35
      vertex -71.0014 32.0584 6.35
      vertex -70.8587 32.2677 6.35
    endloop
  endfacet
  facet normal -1 0 0
    outer loop
      vertex -71.3708 30.8606 -6.35
      vertex -71.3708 -30.8606 -6.35
      vertex -71.3708 -30.8606 6.35
    endloop
  endfacet
  facet normal 0 0 -1
    outer loop
      vertex -69.8787 -33.0492 -6.35
      vertex -71.3708 -30.8606 -6.35
      vertex -71.3708 30.8606 -6.35
    endloop
  endfacet
  facet normal 0 0 -1
    outer loop
      vertex 69.9928 -32.9943 -6.35
      vertex 69.762 -33.0984 -6.35
      vertex 69.5219 -33.1791 -6.35
    endloop
  endfacet
  facet normal 0.411153 -0.911566 0
    outer loop
      vertex 69.9928 -32.9943 6.35
      vertex 69.762 -33.0984 6.35
      vertex 69.762 -33.0984 -6.35
    endloop
  endfacet
  facet normal 0 -1 0
    outer loop
      vertex 68.7707 -33.2732 -6.35
      vertex -68.8973 -33.2732 6.35
      vertex -68.8973 -33.2732 1.26998
    endloop
  endfacet
  facet normal 0 0 1
    outer loop
      vertex -69.8787 -33.0492 6.35
      vertex -68.8973 -33.2732 6.35
      vertex 69.0238 -33.2669 6.35
    endloop
  endfacet
  facet normal 0 0 1
    outer loop
      vertex -70.5147 -32.6385 6.35
      vertex -70.3167 -32.7963 6.35
      vertex -69.8787 -33.0492 6.35
    endloop
  endfacet
  facet normal 0 0 -1
    outer loop
      vertex -70.5147 -32.6385 -6.35
      vertex -70.696 -32.4616 -6.35
      vertex -71.0014 -32.0584 -6.35
    endloop
  endfacet
  facet normal 0 0 1
    outer loop
      vertex 69.9928 -32.9943 6.35
      vertex 70.6075 -32.5523 6.35
      vertex 71.0647 -31.9488 6.35
    endloop
  endfacet
  facet normal 0 0 -1
    outer loop
      vertex 71.0647 -31.9488 -6.35
      vertex 70.7797 -32.3667 -6.35
      vertex 70.6075 -32.5523 -6.35
    endloop
  endfacet
  facet normal 0.583701 -0.811969 0
    outer loop
      vertex 70.4177 -32.7199 6.35
      vertex 70.2121 -32.8677 -6.35
      vertex 70.4177 -32.7199 -6.35
    endloop
  endfacet
  facet normal 0.733075 -0.680148 0
    outer loop
      vertex 70.7797 -32.3667 -6.35
      vertex 70.6075 -32.5523 6.35
      vertex 70.6075 -32.5523 -6.35
    endloop
  endfacet
  facet normal 0 0 -1
    outer loop
      vertex 70.6075 -32.5523 -6.35
      vertex 70.4177 -32.7199 -6.35
      vertex 69.9928 -32.9943 -6.35
    endloop
  endfacet
  facet normal 0.661909 -0.749584 0
    outer loop
      vertex 70.6075 -32.5523 6.35
      vertex 70.4177 -32.7199 -6.35
      vertex 70.6075 -32.5523 -6.35
    endloop
  endfacet
  facet normal 0.901116 -0.433578 0
    outer loop
      vertex 71.0647 -31.9488 -6.35
      vertex 71.1745 -31.7206 -6.35
      vertex 71.0647 -31.9488 6.35
    endloop
  endfacet
  facet normal 0 0 -1
    outer loop
      vertex 71.374 -30.734 -6.35
      vertex 71.3614 -30.9869 -6.35
      vertex 71.3236 -31.2373 -6.35
    endloop
  endfacet
  facet normal 0 0 -1
    outer loop
      vertex 71.3236 -31.2373 -6.35
      vertex 71.1745 -31.7206 -6.35
      vertex 71.0647 -31.9488 -6.35
    endloop
  endfacet
  facet normal 0 0 1
    outer loop
      vertex 71.1745 -31.7206 6.35
      vertex 71.2611 -31.4827 6.35
      vertex 71.3236 -31.2373 6.35
    endloop
  endfacet
  facet normal 0.998761 -0.0497603 0
    outer loop
      vertex 71.374 -30.734 6.35
      vertex 71.3614 -30.9869 -6.35
      vertex 71.374 -30.734 -6.35
    endloop
  endfacet
  facet normal 0.988797 -0.149267 0
    outer loop
      vertex 71.3614 -30.9869 -6.35
      vertex 71.3614 -30.9869 6.35
      vertex 71.3236 -31.2373 6.35
    endloop
  endfacet
  facet normal 0.318241 0.94801 -0
    outer loop
      vertex 69.5219 33.179 1.26998
      vertex 69.5219 33.179 6.35
      vertex 69.762 33.0984 6.35
    endloop
  endfacet
  facet normal 0.222696 0.974888 0
    outer loop
      vertex 69.275 33.2354 6.35
      vertex 69.5219 33.179 6.35
      vertex 69.5219 33.179 1.26998
    endloop
  endfacet
  facet normal -0.17374 0.984792 0
    outer loop
      vertex -69.3992 33.2103 6.35
      vertex -69.1498 33.2543 1.26998
      vertex -69.3992 33.2103 1.26998
    endloop
  endfacet
  facet normal -0.365322 0.930881 0
    outer loop
      vertex -69.8787 33.0492 6.35
      vertex -69.643 33.1417 6.35
      vertex -69.643 33.1417 -6.35
    endloop
  endfacet
  facet normal 0.222696 0.974888 0
    outer loop
      vertex 69.5219 33.179 -1.27
      vertex 69.275 33.2354 -6.35
      vertex 69.275 33.2354 -1.27
    endloop
  endfacet
  facet normal 0.222696 0.974888 0
    outer loop
      vertex 69.5219 33.179 -1.27
      vertex 69.5219 33.179 -6.35
      vertex 69.275 33.2354 -6.35
    endloop
  endfacet
  facet normal 0.853106 0.521738 0
    outer loop
      vertex 71.0647 31.9488 6.35
      vertex 70.9326 32.1648 -6.35
      vertex 70.9326 32.1648 6.35
    endloop
  endfacet
  facet normal 0 0 -1
    outer loop
      vertex 70.9326 32.1648 -6.35
      vertex 71.0647 31.9488 -6.35
      vertex 71.1745 31.7206 -6.35
    endloop
  endfacet
  facet normal 0.969065 0.246807 -0
    outer loop
      vertex 71.2611 31.4827 1.26998
      vertex 71.2611 31.4827 6.35
      vertex 71.3236 31.2373 6.35
    endloop
  endfacet
  facet normal 0 0 1
    outer loop
      vertex 71.374 30.734 6.35
      vertex 71.3614 30.9869 6.35
      vertex 71.3236 31.2373 6.35
    endloop
  endfacet
  facet normal 0 0 1
    outer loop
      vertex -70.3167 32.7963 6.35
      vertex -70.5147 32.6384 6.35
      vertex -70.8587 32.2677 6.35
    endloop
  endfacet
  facet normal 0 0 -1
    outer loop
      vertex -70.5147 32.6384 -6.35
      vertex -70.3167 32.7963 -6.35
      vertex -70.104 32.9337 -6.35
    endloop
  endfacet
  facet normal -0.921598 0.388145 0
    outer loop
      vertex -71.2208 31.6027 6.35
      vertex -71.1225 31.8361 -6.35
      vertex -71.2208 31.6027 1.26998
    endloop
  endfacet
  facet normal 0 0 1
    outer loop
      vertex -71.0014 32.0584 6.35
      vertex -71.1225 31.8361 6.35
      vertex -71.2208 31.6027 6.35
    endloop
  endfacet
  facet normal 0 0 -1
    outer loop
      vertex -71.3708 30.8606 -6.35
      vertex -71.2955 31.3607 -6.35
      vertex -71.2208 31.6027 -6.35
    endloop
  endfacet
  facet normal -0.955514 0.294946 0
    outer loop
      vertex -71.2955 31.3607 1.26998
      vertex -71.2208 31.6027 6.35
      vertex -71.2208 31.6027 1.26998
    endloop
  endfacet
  facet normal -0.98023 0.197863 0
    outer loop
      vertex -71.3456 31.1125 1.26998
      vertex -71.2955 31.3607 6.35
      vertex -71.2955 31.3607 1.26998
    endloop
  endfacet
  facet normal 0 0 1
    outer loop
      vertex -70.8587 32.2677 6.35
      vertex -71.2208 31.6027 6.35
      vertex -71.3708 30.8606 6.35
    endloop
  endfacet
  facet normal 0 0 -1
    outer loop
      vertex -71.0014 -32.0584 -6.35
      vertex -71.2208 -31.6027 -6.35
      vertex -71.3708 -30.8606 -6.35
    endloop
  endfacet
  facet normal -0.698368 -0.715739 -0
    outer loop
      vertex -70.5147 -32.6385 6.35
      vertex -70.696 -32.4616 -1.27
      vertex -70.5147 -32.6385 -6.35
    endloop
  endfacet
  facet normal 0.411153 -0.911566 0
    outer loop
      vertex 69.9928 -32.9943 6.35
      vertex 69.762 -33.0984 -6.35
      vertex 69.9928 -32.9943 -6.35
    endloop
  endfacet
  facet normal 0.318596 -0.947891 0
    outer loop
      vertex 69.762 -33.0984 -6.35
      vertex 69.762 -33.0984 6.35
      vertex 69.5219 -33.1791 -6.35
    endloop
  endfacet
  facet normal 0 0 1
    outer loop
      vertex -68.8973 -33.2732 6.35
      vertex 68.7707 -33.2732 6.35
      vertex 69.0238 -33.2669 6.35
    endloop
  endfacet
  facet normal 0.222321 -0.974974 0
    outer loop
      vertex 69.5219 -33.1791 6.35
      vertex 69.275 -33.2354 -6.35
      vertex 69.5219 -33.1791 -6.35
    endloop
  endfacet
  facet normal 0 0 -1
    outer loop
      vertex 68.7707 -33.2732 -6.35
      vertex -68.8973 -33.2732 -6.35
      vertex -69.8787 -33.0492 -6.35
    endloop
  endfacet
  facet normal 0 -1 0
    outer loop
      vertex -68.8973 -33.2732 1.26998
      vertex -68.8973 -33.2732 -6.35
      vertex 68.7707 -33.2732 -6.35
    endloop
  endfacet
  facet normal -0.17374 -0.984792 0
    outer loop
      vertex -69.3992 -33.2103 -6.35
      vertex -69.1498 -33.2543 1.26998
      vertex -69.3992 -33.2103 1.26998
    endloop
  endfacet
  facet normal -0.17374 -0.984792 0
    outer loop
      vertex -69.3992 -33.2103 1.26998
      vertex -69.1498 -33.2543 1.26998
      vertex -69.3992 -33.2103 6.35
    endloop
  endfacet
  facet normal -0.456196 -0.889879 -0
    outer loop
      vertex -69.8787 -33.0492 6.35
      vertex -70.104 -32.9337 1.26998
      vertex -69.8787 -33.0492 -6.35
    endloop
  endfacet
  facet normal -0.542613 -0.839983 0
    outer loop
      vertex -70.104 -32.9337 1.26998
      vertex -70.104 -32.9337 6.35
      vertex -70.3167 -32.7963 6.35
    endloop
  endfacet
  facet normal 0.853106 -0.521738 0
    outer loop
      vertex 71.0647 -31.9488 6.35
      vertex 70.9326 -32.1648 -6.35
      vertex 71.0647 -31.9488 -6.35
    endloop
  endfacet
  facet normal 0.853106 -0.521738 0
    outer loop
      vertex 71.0647 -31.9488 6.35
      vertex 70.9326 -32.1648 6.35
      vertex 70.9326 -32.1648 -6.35
    endloop
  endfacet
  facet normal 0 0 1
    outer loop
      vertex 70.6075 -32.5523 6.35
      vertex 70.7797 -32.3667 6.35
      vertex 71.0647 -31.9488 6.35
    endloop
  endfacet
  facet normal 0.733075 -0.680148 0
    outer loop
      vertex 70.7797 -32.3667 -6.35
      vertex 70.7797 -32.3667 6.35
      vertex 70.6075 -32.5523 6.35
    endloop
  endfacet
  facet normal 0 0 1
    outer loop
      vertex 69.9928 -32.9943 6.35
      vertex 70.2121 -32.8677 6.35
      vertex 70.4177 -32.7199 6.35
    endloop
  endfacet
  facet normal 0.661909 -0.749584 0
    outer loop
      vertex 70.6075 -32.5523 6.35
      vertex 70.4177 -32.7199 6.35
      vertex 70.4177 -32.7199 -6.35
    endloop
  endfacet
  facet normal 0.499962 -0.866047 0
    outer loop
      vertex 69.9928 -32.9943 -6.35
      vertex 70.2121 -32.8677 -6.35
      vertex 69.9928 -32.9943 6.35
    endloop
  endfacet
  facet normal 0 0 -1
    outer loop
      vertex 70.4177 -32.7199 -6.35
      vertex 70.2121 -32.8677 -6.35
      vertex 69.9928 -32.9943 -6.35
    endloop
  endfacet
  facet normal 0.901116 -0.433578 0
    outer loop
      vertex 71.1745 -31.7206 -6.35
      vertex 71.1745 -31.7206 6.35
      vertex 71.0647 -31.9488 6.35
    endloop
  endfacet
  facet normal 0.939678 -0.34206 0
    outer loop
      vertex 71.1745 -31.7206 -6.35
      vertex 71.2611 -31.4827 -6.35
      vertex 71.1745 -31.7206 6.35
    endloop
  endfacet
  facet normal 0 0 -1
    outer loop
      vertex 71.3236 -31.2373 -6.35
      vertex 71.2611 -31.4827 -6.35
      vertex 71.1745 -31.7206 -6.35
    endloop
  endfacet
  facet normal 0.969065 -0.246807 0
    outer loop
      vertex 71.3236 -31.2373 6.35
      vertex 71.2611 -31.4827 -6.35
      vertex 71.3236 -31.2373 -6.35
    endloop
  endfacet
  facet normal 0.998761 -0.0497603 0
    outer loop
      vertex 71.374 -30.734 6.35
      vertex 71.3614 -30.9869 6.35
      vertex 71.3614 -30.9869 -6.35
    endloop
  endfacet
  facet normal 0 0 1
    outer loop
      vertex 71.3236 -31.2373 6.35
      vertex 71.3614 -30.9869 6.35
      vertex 71.374 -30.734 6.35
    endloop
  endfacet
  facet normal -0.17374 0.984792 0
    outer loop
      vertex -69.1498 33.2543 1.26998
      vertex -69.3992 33.2103 -6.35
      vertex -69.3992 33.2103 1.26998
    endloop
  endfacet
  facet normal 0 0 -1
    outer loop
      vertex -70.104 32.9337 -6.35
      vertex -69.643 33.1417 -6.35
      vertex -68.8973 33.2732 -6.35
    endloop
  endfacet
  facet normal 0 0 1
    outer loop
      vertex -68.8973 33.2732 6.35
      vertex -69.3992 33.2103 6.35
      vertex -69.8787 33.0492 6.35
    endloop
  endfacet
  facet normal 0 0 1
    outer loop
      vertex -68.8973 33.2732 6.35
      vertex -69.1498 33.2543 6.35
      vertex -69.3992 33.2103 6.35
    endloop
  endfacet
  facet normal -0.0746427 0.99721 0
    outer loop
      vertex -68.8973 33.2732 -6.35
      vertex -69.1498 33.2543 1.26998
      vertex -68.8973 33.2732 6.35
    endloop
  endfacet
  facet normal -0.0746427 0.99721 0
    outer loop
      vertex -68.8973 33.2732 -6.35
      vertex -69.1498 33.2543 -6.35
      vertex -69.1498 33.2543 1.26998
    endloop
  endfacet
  facet normal 0.318241 0.94801 0
    outer loop
      vertex 69.762 33.0984 -1.27
      vertex 69.5219 33.179 -6.35
      vertex 69.5219 33.179 -1.27
    endloop
  endfacet
  facet normal 0 0 -1
    outer loop
      vertex 69.0238 33.2669 -6.35
      vertex 69.275 33.2354 -6.35
      vertex 70.2121 32.8676 -6.35
    endloop
  endfacet
  facet normal 0.733075 0.680148 0
    outer loop
      vertex 70.7797 32.3667 -1.27
      vertex 70.7797 32.3667 -6.35
      vertex 70.6075 32.5523 -6.35
    endloop
  endfacet
  facet normal 0.797196 0.603721 0
    outer loop
      vertex 70.9326 32.1648 -6.35
      vertex 70.7797 32.3667 -6.35
      vertex 70.7797 32.3667 -1.27
    endloop
  endfacet
  facet normal 0.853106 0.521738 0
    outer loop
      vertex 71.0647 31.9488 6.35
      vertex 71.0647 31.9488 -6.35
      vertex 70.9326 32.1648 -6.35
    endloop
  endfacet
  facet normal 0.901116 0.433578 0
    outer loop
      vertex 71.1745 31.7206 -6.35
      vertex 71.0647 31.9488 -6.35
      vertex 71.0647 31.9488 6.35
    endloop
  endfacet
  facet normal 0 0 1
    outer loop
      vertex 71.3236 31.2373 6.35
      vertex 71.1745 31.7206 6.35
      vertex 71.0647 31.9488 6.35
    endloop
  endfacet
  facet normal 0.939678 0.34206 0
    outer loop
      vertex 71.1745 31.7206 6.35
      vertex 71.2611 31.4827 1.26998
      vertex 71.1745 31.7206 -6.35
    endloop
  endfacet
  facet normal 0.998761 0.0497603 -0
    outer loop
      vertex 71.374 30.734 -6.35
      vertex 71.3614 30.9869 -1.27
      vertex 71.374 30.734 6.35
    endloop
  endfacet
  facet normal 0.988797 0.149267 0
    outer loop
      vertex 71.3614 30.9869 -1.27
      vertex 71.3236 31.2373 -6.35
      vertex 71.3236 31.2373 6.35
    endloop
  endfacet
  facet normal 0 0 1
    outer loop
      vertex -69.8787 33.0492 6.35
      vertex -70.104 32.9337 6.35
      vertex -70.3167 32.7963 6.35
    endloop
  endfacet
  facet normal -0.456196 0.889879 0
    outer loop
      vertex -70.104 32.9337 -6.35
      vertex -70.104 32.9337 6.35
      vertex -69.8787 33.0492 6.35
    endloop
  endfacet
  facet normal -0.826236 0.563325 0
    outer loop
      vertex -70.8587 32.2677 1.26998
      vertex -70.8587 32.2677 -6.35
      vertex -71.0014 32.0584 -6.35
    endloop
  endfacet
  facet normal -0.698166 0.715936 0
    outer loop
      vertex -70.5147 32.6384 -6.35
      vertex -70.696 32.4616 1.26998
      vertex -70.5147 32.6384 6.35
    endloop
  endfacet
  facet normal -0.955514 0.294946 0
    outer loop
      vertex -71.2208 31.6027 -6.35
      vertex -71.2955 31.3607 -6.35
      vertex -71.2955 31.3607 1.26998
    endloop
  endfacet
  facet normal -0.955514 0.294946 0
    outer loop
      vertex -71.2208 31.6027 1.26998
      vertex -71.2208 31.6027 -6.35
      vertex -71.2955 31.3607 1.26998
    endloop
  endfacet
  facet normal -0.995033 0.0995428 0
    outer loop
      vertex -71.3708 30.8606 6.35
      vertex -71.3456 31.1125 1.26998
      vertex -71.3708 30.8606 -6.35
    endloop
  endfacet
  facet normal 0 0 1
    outer loop
      vertex -71.2955 31.3607 6.35
      vertex -71.3456 31.1125 6.35
      vertex -71.3708 30.8606 6.35
    endloop
  endfacet
  facet normal -0.878152 0.478382 0
    outer loop
      vertex -71.0014 32.0584 -6.35
      vertex -71.1225 31.8361 -6.35
      vertex -71.0014 32.0584 6.35
    endloop
  endfacet
  facet normal 0 0 1
    outer loop
      vertex -70.8587 32.2677 6.35
      vertex -71.0014 32.0584 6.35
      vertex -71.2208 31.6027 6.35
    endloop
  endfacet
  facet normal 0 0 1
    outer loop
      vertex -71.2208 31.6027 6.35
      vertex -71.2955 31.3607 6.35
      vertex -71.3708 30.8606 6.35
    endloop
  endfacet
  facet normal -0.955514 0.294946 0
    outer loop
      vertex -71.2955 31.3607 1.26998
      vertex -71.2955 31.3607 6.35
      vertex -71.2208 31.6027 6.35
    endloop
  endfacet
  facet normal -0.623249 -0.782023 0
    outer loop
      vertex -70.5147 -32.6385 -6.35
      vertex -70.3167 -32.7963 -6.35
      vertex -70.3167 -32.7963 6.35
    endloop
  endfacet
  facet normal 0 0 -1
    outer loop
      vertex -69.8787 -33.0492 -6.35
      vertex -70.3167 -32.7963 -6.35
      vertex -70.5147 -32.6385 -6.35
    endloop
  endfacet
  facet normal 0 0 1
    outer loop
      vertex -71.3708 -30.8606 6.35
      vertex -71.1225 -31.8361 6.35
      vertex -70.5147 -32.6385 6.35
    endloop
  endfacet
  facet normal -0.878152 -0.478382 -0
    outer loop
      vertex -71.1225 -31.8361 6.35
      vertex -71.1225 -31.8361 -6.35
      vertex -71.0014 -32.0584 -6.35
    endloop
  endfacet
  facet normal 0 0 1
    outer loop
      vertex 69.0238 -33.2669 6.35
      vertex 69.762 -33.0984 6.35
      vertex 69.9928 -32.9943 6.35
    endloop
  endfacet
  facet normal 0.318596 -0.947891 0
    outer loop
      vertex 69.762 -33.0984 6.35
      vertex 69.5219 -33.1791 6.35
      vertex 69.5219 -33.1791 -6.35
    endloop
  endfacet
  facet normal 0 0 1
    outer loop
      vertex -69.3992 -33.2103 6.35
      vertex -69.1498 -33.2543 6.35
      vertex -68.8973 -33.2732 6.35
    endloop
  endfacet
  facet normal -0.0746427 -0.99721 -0
    outer loop
      vertex -68.8973 -33.2732 6.35
      vertex -69.1498 -33.2543 1.26998
      vertex -68.8973 -33.2732 1.26998
    endloop
  endfacet
  facet normal 0.0248836 -0.99969 0
    outer loop
      vertex 68.7707 -33.2732 -6.35
      vertex 69.0238 -33.2669 -6.35
      vertex 69.0238 -33.2669 6.35
    endloop
  endfacet
  facet normal 0 0 -1
    outer loop
      vertex 69.5219 -33.1791 -6.35
      vertex 69.0238 -33.2669 -6.35
      vertex 68.7707 -33.2732 -6.35
    endloop
  endfacet
  facet normal -0.365322 -0.930881 0
    outer loop
      vertex -69.8787 -33.0492 -6.35
      vertex -69.643 -33.1417 1.26998
      vertex -69.8787 -33.0492 6.35
    endloop
  endfacet
  facet normal -0.27086 -0.962619 0
    outer loop
      vertex -69.643 -33.1417 1.26998
      vertex -69.3992 -33.2103 -6.35
      vertex -69.3992 -33.2103 1.26998
    endloop
  endfacet
  facet normal 0 0 -1
    outer loop
      vertex -69.3992 -33.2103 -6.35
      vertex -69.643 -33.1417 -6.35
      vertex -69.8787 -33.0492 -6.35
    endloop
  endfacet
  facet normal 0 0 -1
    outer loop
      vertex -68.8973 -33.2732 -6.35
      vertex -69.3992 -33.2103 -6.35
      vertex -69.8787 -33.0492 -6.35
    endloop
  endfacet
  facet normal -0.456196 -0.889879 0
    outer loop
      vertex -69.8787 -33.0492 6.35
      vertex -70.104 -32.9337 6.35
      vertex -70.104 -32.9337 1.26998
    endloop
  endfacet
  facet normal 0 0 1
    outer loop
      vertex -70.3167 -32.7963 6.35
      vertex -70.104 -32.9337 6.35
      vertex -69.8787 -33.0492 6.35
    endloop
  endfacet
  facet normal 0 0 1
    outer loop
      vertex 70.7797 -32.3667 6.35
      vertex 70.9326 -32.1648 6.35
      vertex 71.0647 -31.9488 6.35
    endloop
  endfacet
  facet normal 0.797196 -0.603721 0
    outer loop
      vertex 70.9326 -32.1648 -6.35
      vertex 70.9326 -32.1648 6.35
      vertex 70.7797 -32.3667 6.35
    endloop
  endfacet
  facet normal 0.499962 -0.866047 0
    outer loop
      vertex 70.2121 -32.8677 -6.35
      vertex 70.2121 -32.8677 6.35
      vertex 69.9928 -32.9943 6.35
    endloop
  endfacet
  facet normal 0.583701 -0.811969 0
    outer loop
      vertex 70.4177 -32.7199 6.35
      vertex 70.2121 -32.8677 6.35
      vertex 70.2121 -32.8677 -6.35
    endloop
  endfacet
  facet normal 0.939678 -0.34206 0
    outer loop
      vertex 71.2611 -31.4827 -6.35
      vertex 71.2611 -31.4827 6.35
      vertex 71.1745 -31.7206 6.35
    endloop
  endfacet
  facet normal 0.969065 -0.246807 0
    outer loop
      vertex 71.3236 -31.2373 6.35
      vertex 71.2611 -31.4827 6.35
      vertex 71.2611 -31.4827 -6.35
    endloop
  endfacet
  facet normal -0.365322 0.930881 0
    outer loop
      vertex -69.643 33.1417 -6.35
      vertex -69.8787 33.0492 -6.35
      vertex -69.8787 33.0492 6.35
    endloop
  endfacet
  facet normal 0 0 -1
    outer loop
      vertex -70.104 32.9337 -6.35
      vertex -69.8787 33.0492 -6.35
      vertex -69.643 33.1417 -6.35
    endloop
  endfacet
  facet normal 0 0 -1
    outer loop
      vertex -69.643 33.1417 -6.35
      vertex -69.3992 33.2103 -6.35
      vertex -68.8973 33.2732 -6.35
    endloop
  endfacet
  facet normal -0.27086 0.962619 0
    outer loop
      vertex -69.3992 33.2103 1.26998
      vertex -69.3992 33.2103 -6.35
      vertex -69.643 33.1417 -6.35
    endloop
  endfacet
  facet normal 0 0 1
    outer loop
      vertex -69.3992 33.2103 6.35
      vertex -69.643 33.1417 6.35
      vertex -69.8787 33.0492 6.35
    endloop
  endfacet
  facet normal -0.27086 0.962619 0
    outer loop
      vertex -69.643 33.1417 -6.35
      vertex -69.643 33.1417 6.35
      vertex -69.3992 33.2103 6.35
    endloop
  endfacet
  facet normal -0.0746427 0.99721 0
    outer loop
      vertex -69.1498 33.2543 1.26998
      vertex -69.1498 33.2543 6.35
      vertex -68.8973 33.2732 6.35
    endloop
  endfacet
  facet normal -0.17374 0.984792 0
    outer loop
      vertex -69.3992 33.2103 6.35
      vertex -69.1498 33.2543 6.35
      vertex -69.1498 33.2543 1.26998
    endloop
  endfacet
  facet normal 0.318241 0.94801 0
    outer loop
      vertex 69.762 33.0984 -1.27
      vertex 69.762 33.0984 -6.35
      vertex 69.5219 33.179 -6.35
    endloop
  endfacet
  facet normal 0 0 -1
    outer loop
      vertex 69.275 33.2354 -6.35
      vertex 69.5219 33.179 -6.35
      vertex 70.2121 32.8676 -6.35
    endloop
  endfacet
  facet normal 0.939678 0.34206 0
    outer loop
      vertex 71.2611 31.4827 1.26998
      vertex 71.2611 31.4827 -6.35
      vertex 71.1745 31.7206 -6.35
    endloop
  endfacet
  facet normal 0.969065 0.246807 0
    outer loop
      vertex 71.3236 31.2373 6.35
      vertex 71.3236 31.2373 -6.35
      vertex 71.2611 31.4827 1.26998
    endloop
  endfacet
  facet normal 0.998761 0.0497603 -0
    outer loop
      vertex 71.3614 30.9869 -1.27
      vertex 71.3614 30.9869 6.35
      vertex 71.374 30.734 6.35
    endloop
  endfacet
  facet normal 0.988797 0.149267 0
    outer loop
      vertex 71.3236 31.2373 6.35
      vertex 71.3614 30.9869 6.35
      vertex 71.3614 30.9869 -1.27
    endloop
  endfacet
  facet normal -0.62349 0.781831 0
    outer loop
      vertex -70.5147 32.6384 -6.35
      vertex -70.5147 32.6384 6.35
      vertex -70.3167 32.7963 6.35
    endloop
  endfacet
  facet normal 0 0 1
    outer loop
      vertex -70.5147 32.6384 6.35
      vertex -70.696 32.4616 6.35
      vertex -70.8587 32.2677 6.35
    endloop
  endfacet
  facet normal -0.62349 0.781831 0
    outer loop
      vertex -70.3167 32.7963 6.35
      vertex -70.3167 32.7963 -6.35
      vertex -70.5147 32.6384 -6.35
    endloop
  endfacet
  facet normal -0.542613 0.839983 0
    outer loop
      vertex -70.104 32.9337 -6.35
      vertex -70.3167 32.7963 -6.35
      vertex -70.3167 32.7963 6.35
    endloop
  endfacet
  facet normal 0 0 -1
    outer loop
      vertex -70.8587 32.2677 -6.35
      vertex -70.696 32.4616 -6.35
      vertex -70.5147 32.6384 -6.35
    endloop
  endfacet
  facet normal 0 0 -1
    outer loop
      vertex -71.0014 32.0584 -6.35
      vertex -70.8587 32.2677 -6.35
      vertex -70.5147 32.6384 -6.35
    endloop
  endfacet
  facet normal 0 0 -1
    outer loop
      vertex -71.2208 31.6027 -6.35
      vertex -71.1225 31.8361 -6.35
      vertex -71.0014 32.0584 -6.35
    endloop
  endfacet
  facet normal -0.921598 0.388145 0
    outer loop
      vertex -71.2208 31.6027 1.26998
      vertex -71.1225 31.8361 -6.35
      vertex -71.2208 31.6027 -6.35
    endloop
  endfacet
  facet normal -0.98023 0.197863 0
    outer loop
      vertex -71.2955 31.3607 -6.35
      vertex -71.3456 31.1125 -6.35
      vertex -71.3456 31.1125 1.26998
    endloop
  endfacet
  facet normal -0.98023 0.197863 0
    outer loop
      vertex -71.2955 31.3607 1.26998
      vertex -71.2955 31.3607 -6.35
      vertex -71.3456 31.1125 1.26998
    endloop
  endfacet
  facet normal -0.98023 0.197863 0
    outer loop
      vertex -71.3456 31.1125 1.26998
      vertex -71.3456 31.1125 6.35
      vertex -71.2955 31.3607 6.35
    endloop
  endfacet
  facet normal -0.995033 0.0995428 0
    outer loop
      vertex -71.3708 30.8606 6.35
      vertex -71.3456 31.1125 6.35
      vertex -71.3456 31.1125 1.26998
    endloop
  endfacet
  facet normal 0 0 -1
    outer loop
      vertex -70.696 -32.4616 -6.35
      vertex -70.8587 -32.2677 -6.35
      vertex -71.0014 -32.0584 -6.35
    endloop
  endfacet
  facet normal -0.766047 -0.642784 -0
    outer loop
      vertex -70.696 -32.4616 -1.27
      vertex -70.8587 -32.2677 6.35
      vertex -70.696 -32.4616 -6.35
    endloop
  endfacet
  facet normal -0.542613 -0.839983 0
    outer loop
      vertex -70.3167 -32.7963 -6.35
      vertex -70.104 -32.9337 -6.35
      vertex -70.104 -32.9337 1.26998
    endloop
  endfacet
  facet normal -0.542613 -0.839983 -0
    outer loop
      vertex -70.3167 -32.7963 6.35
      vertex -70.3167 -32.7963 -6.35
      vertex -70.104 -32.9337 1.26998
    endloop
  endfacet
  facet normal 0 0 -1
    outer loop
      vertex -71.2208 -31.6027 -6.35
      vertex -71.2955 -31.3608 -6.35
      vertex -71.3708 -30.8606 -6.35
    endloop
  endfacet
  facet normal 0 0 1
    outer loop
      vertex -71.2955 -31.3608 6.35
      vertex -71.2208 -31.6027 6.35
      vertex -71.1225 -31.8361 6.35
    endloop
  endfacet
  facet normal 0 0 1
    outer loop
      vertex 69.0238 -33.2669 6.35
      vertex 69.5219 -33.1791 6.35
      vertex 69.762 -33.0984 6.35
    endloop
  endfacet
  facet normal 0.124424 -0.992229 0
    outer loop
      vertex 69.275 -33.2354 -6.35
      vertex 69.275 -33.2354 6.35
      vertex 69.0238 -33.2669 6.35
    endloop
  endfacet
  facet normal 0 -1 0
    outer loop
      vertex 68.7707 -33.2732 -6.35
      vertex 68.7707 -33.2732 6.35
      vertex -68.8973 -33.2732 6.35
    endloop
  endfacet
  facet normal 0.0248836 -0.99969 0
    outer loop
      vertex 69.0238 -33.2669 6.35
      vertex 68.7707 -33.2732 6.35
      vertex 68.7707 -33.2732 -6.35
    endloop
  endfacet
  facet normal -0.365322 -0.930881 0
    outer loop
      vertex -69.643 -33.1417 1.26998
      vertex -69.643 -33.1417 6.35
      vertex -69.8787 -33.0492 6.35
    endloop
  endfacet
  facet normal -0.27086 -0.962619 0
    outer loop
      vertex -69.3992 -33.2103 1.26998
      vertex -69.3992 -33.2103 6.35
      vertex -69.643 -33.1417 1.26998
    endloop
  endfacet
  facet normal -0.0746427 -0.99721 -0
    outer loop
      vertex -69.1498 -33.2543 1.26998
      vertex -69.1498 -33.2543 -6.35
      vertex -68.8973 -33.2732 -6.35
    endloop
  endfacet
  facet normal -0.0746427 -0.99721 -0
    outer loop
      vertex -68.8973 -33.2732 1.26998
      vertex -69.1498 -33.2543 1.26998
      vertex -68.8973 -33.2732 -6.35
    endloop
  endfacet
  facet normal 0.124424 -0.992229 0
    outer loop
      vertex 69.0238 -33.2669 -6.35
      vertex 69.275 -33.2354 -6.35
      vertex 69.0238 -33.2669 6.35
    endloop
  endfacet
  facet normal 0 0 -1
    outer loop
      vertex 69.5219 -33.1791 -6.35
      vertex 69.275 -33.2354 -6.35
      vertex 69.0238 -33.2669 -6.35
    endloop
  endfacet
  facet normal -0.27086 -0.962619 -0
    outer loop
      vertex -69.643 -33.1417 1.26998
      vertex -69.643 -33.1417 -6.35
      vertex -69.3992 -33.2103 -6.35
    endloop
  endfacet
  facet normal -0.365322 -0.930881 0
    outer loop
      vertex -69.8787 -33.0492 -6.35
      vertex -69.643 -33.1417 -6.35
      vertex -69.643 -33.1417 1.26998
    endloop
  endfacet
  facet normal 0 0 -1
    outer loop
      vertex -69.3992 33.2103 -6.35
      vertex -69.1498 33.2543 -6.35
      vertex -68.8973 33.2732 -6.35
    endloop
  endfacet
  facet normal -0.17374 0.984792 0
    outer loop
      vertex -69.1498 33.2543 1.26998
      vertex -69.1498 33.2543 -6.35
      vertex -69.3992 33.2103 -6.35
    endloop
  endfacet
  facet normal 0.411153 0.911566 0
    outer loop
      vertex 69.9928 32.9943 -1.27
      vertex 69.762 33.0984 -6.35
      vertex 69.762 33.0984 -1.27
    endloop
  endfacet
  facet normal 0 0 -1
    outer loop
      vertex 69.762 33.0984 -6.35
      vertex 69.9928 32.9943 -6.35
      vertex 70.2121 32.8676 -6.35
    endloop
  endfacet
  facet normal 0.939678 0.34206 0
    outer loop
      vertex 71.1745 31.7206 6.35
      vertex 71.2611 31.4827 6.35
      vertex 71.2611 31.4827 1.26998
    endloop
  endfacet
  facet normal 0 0 1
    outer loop
      vertex 71.3236 31.2373 6.35
      vertex 71.2611 31.4827 6.35
      vertex 71.1745 31.7206 6.35
    endloop
  endfacet
  facet normal 0.998761 0.0497603 0
    outer loop
      vertex 71.374 30.734 -6.35
      vertex 71.3614 30.9869 -6.35
      vertex 71.3614 30.9869 -1.27
    endloop
  endfacet
  facet normal 0 0 -1
    outer loop
      vertex 71.1745 31.7206 -6.35
      vertex 71.3236 31.2373 -6.35
      vertex 71.374 30.734 -6.35
    endloop
  endfacet
  facet normal -0.766047 0.642784 0
    outer loop
      vertex -70.8587 32.2677 1.26998
      vertex -70.696 32.4616 1.26998
      vertex -70.8587 32.2677 -6.35
    endloop
  endfacet
  facet normal -0.766047 0.642784 0
    outer loop
      vertex -70.8587 32.2677 6.35
      vertex -70.696 32.4616 1.26998
      vertex -70.8587 32.2677 1.26998
    endloop
  endfacet
  facet normal -0.878152 0.478382 0
    outer loop
      vertex -71.1225 31.8361 -6.35
      vertex -71.1225 31.8361 6.35
      vertex -71.0014 32.0584 6.35
    endloop
  endfacet
  facet normal -0.921598 0.388145 0
    outer loop
      vertex -71.2208 31.6027 6.35
      vertex -71.1225 31.8361 6.35
      vertex -71.1225 31.8361 -6.35
    endloop
  endfacet
  facet normal 0 0 -1
    outer loop
      vertex -71.3708 30.8606 -6.35
      vertex -71.3456 31.1125 -6.35
      vertex -71.2955 31.3607 -6.35
    endloop
  endfacet
  facet normal -0.995033 0.0995428 0
    outer loop
      vertex -71.3456 31.1125 1.26998
      vertex -71.3456 31.1125 -6.35
      vertex -71.3708 30.8606 -6.35
    endloop
  endfacet
  facet normal -0.698368 -0.715739 -0
    outer loop
      vertex -70.696 -32.4616 -1.27
      vertex -70.696 -32.4616 -6.35
      vertex -70.5147 -32.6385 -6.35
    endloop
  endfacet
  facet normal -0.698368 -0.715739 0
    outer loop
      vertex -70.5147 -32.6385 6.35
      vertex -70.696 -32.4616 6.35
      vertex -70.696 -32.4616 -1.27
    endloop
  endfacet
  facet normal 0 0 1
    outer loop
      vertex -71.1225 -31.8361 6.35
      vertex -70.8587 -32.2677 6.35
      vertex -70.5147 -32.6385 6.35
    endloop
  endfacet
  facet normal -0.826236 -0.563325 0
    outer loop
      vertex -70.8587 -32.2677 6.35
      vertex -71.0014 -32.0584 6.35
      vertex -71.0014 -32.0584 -6.35
    endloop
  endfacet
  facet normal 0 0 -1
    outer loop
      vertex -69.8787 -33.0492 -6.35
      vertex -70.104 -32.9337 -6.35
      vertex -70.3167 -32.7963 -6.35
    endloop
  endfacet
  facet normal -0.456196 -0.889879 -0
    outer loop
      vertex -70.104 -32.9337 1.26998
      vertex -70.104 -32.9337 -6.35
      vertex -69.8787 -33.0492 -6.35
    endloop
  endfacet
  facet normal -0.921598 -0.388145 0
    outer loop
      vertex -71.2208 -31.6027 -6.35
      vertex -71.1225 -31.8361 -6.35
      vertex -71.1225 -31.8361 6.35
    endloop
  endfacet
  facet normal 0 0 -1
    outer loop
      vertex -71.0014 -32.0584 -6.35
      vertex -71.1225 -31.8361 -6.35
      vertex -71.2208 -31.6027 -6.35
    endloop
  endfacet
  facet normal 0 0 1
    outer loop
      vertex -71.3708 -30.8606 6.35
      vertex -71.2955 -31.3608 6.35
      vertex -71.1225 -31.8361 6.35
    endloop
  endfacet
  facet normal -0.995037 -0.0995037 0
    outer loop
      vertex -71.3708 -30.8606 -6.35
      vertex -71.3456 -31.1126 -6.35
      vertex -71.3456 -31.1126 6.35
    endloop
  endfacet
  facet normal -0.27086 -0.962619 0
    outer loop
      vertex -69.3992 -33.2103 6.35
      vertex -69.643 -33.1417 6.35
      vertex -69.643 -33.1417 1.26998
    endloop
  endfacet
  facet normal 0 0 1
    outer loop
      vertex -69.8787 -33.0492 6.35
      vertex -69.643 -33.1417 6.35
      vertex -69.3992 -33.2103 6.35
    endloop
  endfacet
  facet normal -0.17374 -0.984792 0
    outer loop
      vertex -69.1498 -33.2543 1.26998
      vertex -69.1498 -33.2543 6.35
      vertex -69.3992 -33.2103 6.35
    endloop
  endfacet
  facet normal -0.0746427 -0.99721 0
    outer loop
      vertex -68.8973 -33.2732 6.35
      vertex -69.1498 -33.2543 6.35
      vertex -69.1498 -33.2543 1.26998
    endloop
  endfacet
  facet normal -0.17374 -0.984792 0
    outer loop
      vertex -69.3992 -33.2103 -6.35
      vertex -69.1498 -33.2543 -6.35
      vertex -69.1498 -33.2543 1.26998
    endloop
  endfacet
  facet normal 0 0 -1
    outer loop
      vertex -68.8973 -33.2732 -6.35
      vertex -69.1498 -33.2543 -6.35
      vertex -69.3992 -33.2103 -6.35
    endloop
  endfacet
  facet normal 0.222321 -0.974974 0
    outer loop
      vertex 69.5219 -33.1791 6.35
      vertex 69.275 -33.2354 6.35
      vertex 69.275 -33.2354 -6.35
    endloop
  endfacet
  facet normal 0 0 1
    outer loop
      vertex 69.0238 -33.2669 6.35
      vertex 69.275 -33.2354 6.35
      vertex 69.5219 -33.1791 6.35
    endloop
  endfacet
  facet normal 0.411153 0.911566 0
    outer loop
      vertex 69.9928 32.9943 -1.27
      vertex 69.9928 32.9943 -6.35
      vertex 69.762 33.0984 -6.35
    endloop
  endfacet
  facet normal 0.500258 0.865876 0
    outer loop
      vertex 70.2121 32.8676 -6.35
      vertex 69.9928 32.9943 -6.35
      vertex 69.9928 32.9943 -1.27
    endloop
  endfacet
  facet normal 0.969065 0.246807 0
    outer loop
      vertex 71.3236 31.2373 -6.35
      vertex 71.2611 31.4827 -6.35
      vertex 71.2611 31.4827 1.26998
    endloop
  endfacet
  facet normal 0 0 -1
    outer loop
      vertex 71.1745 31.7206 -6.35
      vertex 71.2611 31.4827 -6.35
      vertex 71.3236 31.2373 -6.35
    endloop
  endfacet
  facet normal 0 0 -1
    outer loop
      vertex 71.3236 31.2373 -6.35
      vertex 71.3614 30.9869 -6.35
      vertex 71.374 30.734 -6.35
    endloop
  endfacet
  facet normal 0.988797 0.149267 0
    outer loop
      vertex 71.3614 30.9869 -1.27
      vertex 71.3614 30.9869 -6.35
      vertex 71.3236 31.2373 -6.35
    endloop
  endfacet
  facet normal -0.698166 0.715936 0
    outer loop
      vertex -70.696 32.4616 1.26998
      vertex -70.696 32.4616 6.35
      vertex -70.5147 32.6384 6.35
    endloop
  endfacet
  facet normal -0.766047 0.642784 0
    outer loop
      vertex -70.8587 32.2677 6.35
      vertex -70.696 32.4616 6.35
      vertex -70.696 32.4616 1.26998
    endloop
  endfacet
  facet normal -0.766047 0.642784 0
    outer loop
      vertex -70.696 32.4616 1.26998
      vertex -70.696 32.4616 -6.35
      vertex -70.8587 32.2677 -6.35
    endloop
  endfacet
  facet normal -0.698166 0.715936 0
    outer loop
      vertex -70.5147 32.6384 -6.35
      vertex -70.696 32.4616 -6.35
      vertex -70.696 32.4616 1.26998
    endloop
  endfacet
  facet normal -0.766047 -0.642784 -0
    outer loop
      vertex -70.8587 -32.2677 6.35
      vertex -70.8587 -32.2677 -6.35
      vertex -70.696 -32.4616 -6.35
    endloop
  endfacet
  facet normal -0.826236 -0.563325 0
    outer loop
      vertex -71.0014 -32.0584 -6.35
      vertex -70.8587 -32.2677 -6.35
      vertex -70.8587 -32.2677 6.35
    endloop
  endfacet
  facet normal 0 0 1
    outer loop
      vertex -70.8587 -32.2677 6.35
      vertex -70.696 -32.4616 6.35
      vertex -70.5147 -32.6385 6.35
    endloop
  endfacet
  facet normal -0.766047 -0.642784 0
    outer loop
      vertex -70.696 -32.4616 -1.27
      vertex -70.696 -32.4616 6.35
      vertex -70.8587 -32.2677 6.35
    endloop
  endfacet
  facet normal 0 0 1
    outer loop
      vertex -71.1225 -31.8361 6.35
      vertex -71.0014 -32.0584 6.35
      vertex -70.8587 -32.2677 6.35
    endloop
  endfacet
  facet normal -0.878152 -0.478382 0
    outer loop
      vertex -71.0014 -32.0584 -6.35
      vertex -71.0014 -32.0584 6.35
      vertex -71.1225 -31.8361 6.35
    endloop
  endfacet
  facet normal -0.95548 -0.295057 -0
    outer loop
      vertex -71.2955 -31.3608 6.35
      vertex -71.2955 -31.3608 -6.35
      vertex -71.2208 -31.6027 -6.35
    endloop
  endfacet
  facet normal -0.98023 -0.197863 -0
    outer loop
      vertex -71.2955 -31.3608 6.35
      vertex -71.3456 -31.1126 6.35
      vertex -71.2955 -31.3608 -6.35
    endloop
  endfacet
  facet normal -0.95548 -0.295057 0
    outer loop
      vertex -71.2208 -31.6027 -6.35
      vertex -71.2208 -31.6027 6.35
      vertex -71.2955 -31.3608 6.35
    endloop
  endfacet
  facet normal -0.921598 -0.388145 0
    outer loop
      vertex -71.1225 -31.8361 6.35
      vertex -71.2208 -31.6027 6.35
      vertex -71.2208 -31.6027 -6.35
    endloop
  endfacet
  facet normal 0 0 1
    outer loop
      vertex -71.3708 -30.8606 6.35
      vertex -71.3456 -31.1126 6.35
      vertex -71.2955 -31.3608 6.35
    endloop
  endfacet
  facet normal -0.995037 -0.0995037 0
    outer loop
      vertex -71.3708 -30.8606 -6.35
      vertex -71.3456 -31.1126 6.35
      vertex -71.3708 -30.8606 6.35
    endloop
  endfacet
  facet normal 0 0 -1
    outer loop
      vertex -71.2955 -31.3608 -6.35
      vertex -71.3456 -31.1126 -6.35
      vertex -71.3708 -30.8606 -6.35
    endloop
  endfacet
  facet normal -0.98023 -0.197863 -0
    outer loop
      vertex -71.3456 -31.1126 6.35
      vertex -71.3456 -31.1126 -6.35
      vertex -71.2955 -31.3608 -6.35
    endloop
  endfacet
endsolid OpenSCAD_Model
