solid OpenSCAD_Model
  facet normal 0.998761 0.0497603 0
    outer loop
      vertex 58.6614 56.3869 6.35
      vertex 58.674 56.134 1.26998
      vertex 58.6614 56.3869 1.26998
    endloop
  endfacet
  facet normal -0 -0 -1
    outer loop
      vertex 58.6614 56.3869 -6.35
      vertex 58.6614 -56.3869 -6.35
      vertex -56.1973 58.6732 -6.35
    endloop
  endfacet
  facet normal 0 0 1
    outer loop
      vertex -56.1973 58.6732 6.35
      vertex 58.674 -56.134 6.35
      vertex 58.6614 56.3869 6.35
    endloop
  endfacet
  facet normal 0 -0 1
    outer loop
      vertex 58.674 -56.134 6.35
      vertex 58.674 56.134 6.35
      vertex 58.6614 56.3869 6.35
    endloop
  endfacet
  facet normal 0 1 0
    outer loop
      vertex 56.0707 58.6732 6.35
      vertex -56.1973 58.6732 -6.35
      vertex -56.1973 58.6732 6.35
    endloop
  endfacet
  facet normal 0 -1 0
    outer loop
      vertex -56.1973 -58.6732 -6.35
      vertex 56.0707 -58.6732 -6.35
      vertex 56.0707 -58.6732 1.26998
    endloop
  endfacet
  facet normal 0 0 1
    outer loop
      vertex 58.6614 56.3869 6.35
      vertex 56.0707 58.6732 6.35
      vertex -56.1973 58.6732 6.35
    endloop
  endfacet
  facet normal 0 1 0
    outer loop
      vertex 56.0707 58.6732 6.35
      vertex 56.0707 58.6732 -6.35
      vertex -56.1973 58.6732 -6.35
    endloop
  endfacet
  facet normal -0.0746427 0.99721 0
    outer loop
      vertex -56.4498 58.6543 1.26998
      vertex -56.4498 58.6543 6.35
      vertex -56.1973 58.6732 6.35
    endloop
  endfacet
  facet normal 0.998761 -0.0497603 0
    outer loop
      vertex 58.6614 -56.3869 -6.35
      vertex 58.674 -56.134 -6.35
      vertex 58.674 -56.134 6.35
    endloop
  endfacet
  facet normal 0 0 1
    outer loop
      vertex 58.6614 56.3869 6.35
      vertex 57.7177 58.1198 6.35
      vertex 56.0707 58.6732 6.35
    endloop
  endfacet
  facet normal 0.988797 0.149267 -0
    outer loop
      vertex 58.6614 56.3869 -6.35
      vertex 58.6236 56.6373 6.35
      vertex 58.6614 56.3869 1.26998
    endloop
  endfacet
  facet normal 0 0 1
    outer loop
      vertex 57.7177 58.1198 6.35
      vertex 57.062 58.4984 6.35
      vertex 56.0707 58.6732 6.35
    endloop
  endfacet
  facet normal 0 0 1
    outer loop
      vertex 58.3647 57.3488 6.35
      vertex 58.0798 57.7667 6.35
      vertex 57.7177 58.1198 6.35
    endloop
  endfacet
  facet normal 0 -1 0
    outer loop
      vertex -56.1973 -58.6732 6.35
      vertex -56.1973 -58.6732 -6.35
      vertex 56.0707 -58.6732 1.26998
    endloop
  endfacet
  facet normal 0 0 -1
    outer loop
      vertex -56.1973 -58.6732 -6.35
      vertex -58.6709 56.2606 -6.35
      vertex -56.1973 58.6732 -6.35
    endloop
  endfacet
  facet normal 0 0 -1
    outer loop
      vertex 58.6614 56.3869 -6.35
      vertex 58.674 -56.134 -6.35
      vertex 58.6614 -56.3869 -6.35
    endloop
  endfacet
  facet normal 0.998761 0.0497603 0
    outer loop
      vertex 58.6614 56.3869 1.26998
      vertex 58.674 56.134 1.26998
      vertex 58.6614 56.3869 -6.35
    endloop
  endfacet
  facet normal 0 0 1
    outer loop
      vertex 58.6614 56.3869 6.35
      vertex 58.3647 57.3488 6.35
      vertex 57.7177 58.1198 6.35
    endloop
  endfacet
  facet normal 0.853106 0.521738 -0
    outer loop
      vertex 58.2326 57.5648 -6.35
      vertex 58.2326 57.5648 6.35
      vertex 58.3647 57.3488 6.35
    endloop
  endfacet
  facet normal -0 0 -1
    outer loop
      vertex 58.6614 -56.3869 -6.35
      vertex -56.1973 -58.6732 -6.35
      vertex -56.1973 58.6732 -6.35
    endloop
  endfacet
  facet normal 0.988797 -0.149267 0
    outer loop
      vertex 58.6236 -56.6373 1.26998
      vertex 58.6236 -56.6373 -6.35
      vertex 58.6614 -56.3869 -6.35
    endloop
  endfacet
  facet normal 0 0 1
    outer loop
      vertex 58.0798 57.7667 6.35
      vertex 57.9075 57.9523 6.35
      vertex 57.7177 58.1198 6.35
    endloop
  endfacet
  facet normal 0 0 -1
    outer loop
      vertex -56.1973 58.6732 -6.35
      vertex 56.0707 58.6732 -6.35
      vertex 58.6614 56.3869 -6.35
    endloop
  endfacet
  facet normal 0 0 -1
    outer loop
      vertex 58.6614 -56.3869 -6.35
      vertex 57.062 -58.4984 -6.35
      vertex -56.1973 -58.6732 -6.35
    endloop
  endfacet
  facet normal 0 0 1
    outer loop
      vertex -56.1973 58.6732 6.35
      vertex -56.1973 -58.6732 6.35
      vertex 58.674 -56.134 6.35
    endloop
  endfacet
  facet normal -1 0 0
    outer loop
      vertex -58.6709 56.2606 -1.27
      vertex -58.6709 -56.2606 6.35
      vertex -58.6709 56.2606 1.26998
    endloop
  endfacet
  facet normal -0.0746427 -0.99721 -0
    outer loop
      vertex -56.4498 -58.6543 -1.27
      vertex -56.4498 -58.6543 -6.35
      vertex -56.1973 -58.6732 -6.35
    endloop
  endfacet
  facet normal 1 0 -0
    outer loop
      vertex 58.674 56.134 1.26998
      vertex 58.674 56.134 6.35
      vertex 58.674 -56.134 6.35
    endloop
  endfacet
  facet normal 0.998761 0.0497603 0
    outer loop
      vertex 58.6614 56.3869 6.35
      vertex 58.674 56.134 6.35
      vertex 58.674 56.134 1.26998
    endloop
  endfacet
  facet normal 0 0 1
    outer loop
      vertex 58.6614 56.3869 6.35
      vertex 58.5611 56.8827 6.35
      vertex 58.3647 57.3488 6.35
    endloop
  endfacet
  facet normal 0 0 -1
    outer loop
      vertex 57.9075 57.9523 -6.35
      vertex 58.2326 57.5648 -6.35
      vertex 58.6614 56.3869 -6.35
    endloop
  endfacet
  facet normal 0.797386 0.60347 0
    outer loop
      vertex 58.2326 57.5648 -6.35
      vertex 58.0798 57.7667 -6.35
      vertex 58.0798 57.7667 6.35
    endloop
  endfacet
  facet normal 0 0 1
    outer loop
      vertex 58.5611 56.8827 6.35
      vertex 58.4745 57.1206 6.35
      vertex 58.3647 57.3488 6.35
    endloop
  endfacet
  facet normal 0.998761 0.0497603 0
    outer loop
      vertex 58.674 56.134 1.26998
      vertex 58.674 56.134 -6.35
      vertex 58.6614 56.3869 -6.35
    endloop
  endfacet
  facet normal 1 0 0
    outer loop
      vertex 58.674 -56.134 6.35
      vertex 58.674 -56.134 -6.35
      vertex 58.674 56.134 1.26998
    endloop
  endfacet
  facet normal 0 0 -1
    outer loop
      vertex 57.7177 -58.1199 -6.35
      vertex 57.2928 -58.3943 -6.35
      vertex 57.062 -58.4984 -6.35
    endloop
  endfacet
  facet normal 0 0 1
    outer loop
      vertex 56.0707 -58.6732 6.35
      vertex 57.9075 -57.9523 6.35
      vertex 58.674 -56.134 6.35
    endloop
  endfacet
  facet normal -0.766047 -0.642784 -0
    outer loop
      vertex -58.1587 -57.6677 6.35
      vertex -58.1587 -57.6677 -6.35
      vertex -57.996 -57.8616 -1.27
    endloop
  endfacet
  facet normal 0 0 -1
    outer loop
      vertex -56.1973 -58.6732 -6.35
      vertex -57.6167 -58.1963 -6.35
      vertex -58.6709 56.2606 -6.35
    endloop
  endfacet
  facet normal 0 0 -1
    outer loop
      vertex 56.0707 58.6732 -6.35
      vertex 57.9075 57.9523 -6.35
      vertex 58.6614 56.3869 -6.35
    endloop
  endfacet
  facet normal 0 0 1
    outer loop
      vertex 57.062 58.4984 6.35
      vertex 56.575 58.6354 6.35
      vertex 56.0707 58.6732 6.35
    endloop
  endfacet
  facet normal 0 0 1
    outer loop
      vertex -56.1973 -58.6732 6.35
      vertex 56.0707 -58.6732 6.35
      vertex 58.674 -56.134 6.35
    endloop
  endfacet
  facet normal 0 -1 0
    outer loop
      vertex 56.0707 -58.6732 1.26998
      vertex 56.0707 -58.6732 6.35
      vertex -56.1973 -58.6732 6.35
    endloop
  endfacet
  facet normal -1 -0 -0
    outer loop
      vertex -58.6709 56.2606 -1.27
      vertex -58.6709 56.2606 -6.35
      vertex -58.6709 -56.2606 6.35
    endloop
  endfacet
  facet normal -0.994998 0.0998946 0
    outer loop
      vertex -58.6709 56.2606 6.35
      vertex -58.6456 56.5126 1.26998
      vertex -58.6709 56.2606 1.26998
    endloop
  endfacet
  facet normal -0.994998 -0.0998946 0
    outer loop
      vertex -58.6709 -56.2606 -6.35
      vertex -58.6456 -56.5126 1.26998
      vertex -58.6709 -56.2606 6.35
    endloop
  endfacet
  facet normal 0 0 1
    outer loop
      vertex -56.1973 58.6732 6.35
      vertex -58.6709 -56.2606 6.35
      vertex -56.1973 -58.6732 6.35
    endloop
  endfacet
  facet normal 0 0 1
    outer loop
      vertex -57.1787 58.4492 6.35
      vertex -57.6167 58.1963 6.35
      vertex -57.8147 58.0384 6.35
    endloop
  endfacet
  facet normal 0 0 -1
    outer loop
      vertex -58.6709 56.2606 -6.35
      vertex -58.4225 57.2361 -6.35
      vertex -57.8147 58.0384 -6.35
    endloop
  endfacet
  facet normal 0 0 1
    outer loop
      vertex 58.6614 56.3869 6.35
      vertex 58.6236 56.6373 6.35
      vertex 58.5611 56.8827 6.35
    endloop
  endfacet
  facet normal 0.988797 0.149267 -0
    outer loop
      vertex 58.6614 56.3869 1.26998
      vertex 58.6236 56.6373 6.35
      vertex 58.6614 56.3869 6.35
    endloop
  endfacet
  facet normal 0.969065 0.246807 0
    outer loop
      vertex 58.6236 56.6373 6.35
      vertex 58.5611 56.8827 -1.27
      vertex 58.5611 56.8827 6.35
    endloop
  endfacet
  facet normal 0.939678 0.34206 0
    outer loop
      vertex 58.5611 56.8827 -1.27
      vertex 58.4745 57.1206 -6.35
      vertex 58.4745 57.1206 6.35
    endloop
  endfacet
  facet normal 1 0 0
    outer loop
      vertex 58.674 -56.134 -6.35
      vertex 58.674 56.134 -6.35
      vertex 58.674 56.134 1.26998
    endloop
  endfacet
  facet normal 0 0 -1
    outer loop
      vertex 58.6614 56.3869 -6.35
      vertex 58.674 56.134 -6.35
      vertex 58.674 -56.134 -6.35
    endloop
  endfacet
  facet normal 0.0248836 -0.99969 0
    outer loop
      vertex 56.3238 -58.6669 1.26998
      vertex 56.3238 -58.6669 6.35
      vertex 56.0707 -58.6732 6.35
    endloop
  endfacet
  facet normal 0.0248836 -0.99969 0
    outer loop
      vertex 56.0707 -58.6732 -6.35
      vertex 56.3238 -58.6669 1.26998
      vertex 56.0707 -58.6732 1.26998
    endloop
  endfacet
  facet normal 0.901116 -0.433578 0
    outer loop
      vertex 58.4745 -57.1206 6.35
      vertex 58.3647 -57.3488 6.35
      vertex 58.4745 -57.1206 1.26998
    endloop
  endfacet
  facet normal 0 0 1
    outer loop
      vertex 57.9075 -57.9523 6.35
      vertex 58.2326 -57.5648 6.35
      vertex 58.4745 -57.1206 6.35
    endloop
  endfacet
  facet normal 0 0 1
    outer loop
      vertex -57.8147 -58.0385 6.35
      vertex -57.404 -58.3337 6.35
      vertex -56.943 -58.5417 6.35
    endloop
  endfacet
  facet normal 0 0 1
    outer loop
      vertex -57.8147 -58.0385 6.35
      vertex -56.943 -58.5417 6.35
      vertex -56.1973 -58.6732 6.35
    endloop
  endfacet
  facet normal 0.661687 0.74978 0
    outer loop
      vertex 57.9075 57.9523 -6.35
      vertex 57.7177 58.1198 -6.35
      vertex 57.7177 58.1198 6.35
    endloop
  endfacet
  facet normal 0.318241 0.94801 -0
    outer loop
      vertex 57.062 58.4984 -6.35
      vertex 56.8219 58.579 -1.27
      vertex 57.062 58.4984 -1.27
    endloop
  endfacet
  facet normal 0.0248836 0.99969 0
    outer loop
      vertex 56.3238 58.6669 -1.27
      vertex 56.3238 58.6669 -6.35
      vertex 56.0707 58.6732 -6.35
    endloop
  endfacet
  facet normal 0.124424 0.992229 0
    outer loop
      vertex 56.575 58.6354 -1.27
      vertex 56.575 58.6354 -6.35
      vertex 56.3238 58.6669 -1.27
    endloop
  endfacet
  facet normal 0.411153 0.911566 0
    outer loop
      vertex 57.2928 58.3943 1.26998
      vertex 57.062 58.4984 -6.35
      vertex 57.062 58.4984 -1.27
    endloop
  endfacet
  facet normal 0 0 1
    outer loop
      vertex 56.575 58.6354 6.35
      vertex 56.3238 58.6669 6.35
      vertex 56.0707 58.6732 6.35
    endloop
  endfacet
  facet normal 0.732878 -0.68036 0
    outer loop
      vertex 57.9075 -57.9523 1.26998
      vertex 58.0798 -57.7667 -6.35
      vertex 57.9075 -57.9523 6.35
    endloop
  endfacet
  facet normal 0 0 1
    outer loop
      vertex 57.9075 -57.9523 6.35
      vertex 58.4745 -57.1206 6.35
      vertex 58.674 -56.134 6.35
    endloop
  endfacet
  facet normal -0.698166 0.715936 0
    outer loop
      vertex -57.8147 58.0384 -6.35
      vertex -57.996 57.8616 -6.35
      vertex -57.8147 58.0384 1.26998
    endloop
  endfacet
  facet normal 0 0 -1
    outer loop
      vertex -58.6709 56.2606 -6.35
      vertex -57.8147 58.0384 -6.35
      vertex -56.1973 58.6732 -6.35
    endloop
  endfacet
  facet normal -1 0 0
    outer loop
      vertex -58.6709 -56.2606 6.35
      vertex -58.6709 56.2606 6.35
      vertex -58.6709 56.2606 1.26998
    endloop
  endfacet
  facet normal 0 0 1
    outer loop
      vertex -56.1973 58.6732 6.35
      vertex -58.6709 56.2606 6.35
      vertex -58.6709 -56.2606 6.35
    endloop
  endfacet
  facet normal 0 0 1
    outer loop
      vertex -58.6709 -56.2606 6.35
      vertex -57.8147 -58.0385 6.35
      vertex -56.1973 -58.6732 6.35
    endloop
  endfacet
  facet normal -0.698368 -0.715739 0
    outer loop
      vertex -57.8147 -58.0385 6.35
      vertex -57.996 -57.8616 6.35
      vertex -57.996 -57.8616 -1.27
    endloop
  endfacet
  facet normal -0.994998 0.0998946 0
    outer loop
      vertex -58.6456 56.5126 1.26998
      vertex -58.6456 56.5126 -6.35
      vertex -58.6709 56.2606 -6.35
    endloop
  endfacet
  facet normal -0.921598 0.388145 0
    outer loop
      vertex -58.5208 57.0027 1.26998
      vertex -58.5208 57.0027 6.35
      vertex -58.4225 57.2361 -6.35
    endloop
  endfacet
  facet normal -0.980214 0.197939 0
    outer loop
      vertex -58.5955 56.7607 1.26998
      vertex -58.5955 56.7607 -6.35
      vertex -58.6456 56.5126 1.26998
    endloop
  endfacet
  facet normal -0.27086 0.962619 0
    outer loop
      vertex -56.943 58.5417 1.26998
      vertex -56.943 58.5417 6.35
      vertex -56.6992 58.6103 1.26998
    endloop
  endfacet
  facet normal 0.939678 0.34206 -0
    outer loop
      vertex 58.5611 56.8827 -1.27
      vertex 58.4745 57.1206 6.35
      vertex 58.5611 56.8827 6.35
    endloop
  endfacet
  facet normal 0 0 -1
    outer loop
      vertex 58.2326 57.5648 -6.35
      vertex 58.4745 57.1206 -6.35
      vertex 58.6614 56.3869 -6.35
    endloop
  endfacet
  facet normal 0.969065 0.246807 0
    outer loop
      vertex 58.6236 56.6373 6.35
      vertex 58.6236 56.6373 -1.27
      vertex 58.5611 56.8827 -1.27
    endloop
  endfacet
  facet normal 0.988797 0.149267 0
    outer loop
      vertex 58.6614 56.3869 -6.35
      vertex 58.6236 56.6373 -1.27
      vertex 58.6236 56.6373 6.35
    endloop
  endfacet
  facet normal 0 0 -1
    outer loop
      vertex 57.062 -58.4984 -6.35
      vertex 56.0707 -58.6732 -6.35
      vertex -56.1973 -58.6732 -6.35
    endloop
  endfacet
  facet normal 0.318596 -0.947891 0
    outer loop
      vertex 57.062 -58.4984 6.35
      vertex 56.8219 -58.5791 -6.35
      vertex 57.062 -58.4984 -6.35
    endloop
  endfacet
  facet normal 0.661909 -0.749584 0
    outer loop
      vertex 57.9075 -57.9523 6.35
      vertex 57.7177 -58.1199 -6.35
      vertex 57.9075 -57.9523 1.26998
    endloop
  endfacet
  facet normal 0 0 -1
    outer loop
      vertex 58.6614 -56.3869 -6.35
      vertex 58.0798 -57.7667 -6.35
      vertex 57.062 -58.4984 -6.35
    endloop
  endfacet
  facet normal 0.124424 -0.992229 0
    outer loop
      vertex 56.575 -58.6354 -6.35
      vertex 56.575 -58.6354 6.35
      vertex 56.3238 -58.6669 1.26998
    endloop
  endfacet
  facet normal 0.0248836 -0.99969 0
    outer loop
      vertex 56.0707 -58.6732 1.26998
      vertex 56.3238 -58.6669 1.26998
      vertex 56.0707 -58.6732 6.35
    endloop
  endfacet
  facet normal 0.939678 -0.34206 0
    outer loop
      vertex 58.4745 -57.1206 -6.35
      vertex 58.5611 -56.8827 6.35
      vertex 58.4745 -57.1206 1.26998
    endloop
  endfacet
  facet normal 0.969065 -0.246807 0
    outer loop
      vertex 58.6236 -56.6373 1.26998
      vertex 58.6236 -56.6373 6.35
      vertex 58.5611 -56.8827 6.35
    endloop
  endfacet
  facet normal -0.365322 -0.930881 0
    outer loop
      vertex -56.943 -58.5417 6.35
      vertex -57.1787 -58.4492 6.35
      vertex -57.1787 -58.4492 -1.27
    endloop
  endfacet
  facet normal 0 0 -1
    outer loop
      vertex -57.6167 -58.1963 -6.35
      vertex -57.996 -57.8616 -6.35
      vertex -58.1587 -57.6677 -6.35
    endloop
  endfacet
  facet normal -0.27086 -0.962619 -0
    outer loop
      vertex -56.943 -58.5417 6.35
      vertex -56.943 -58.5417 -6.35
      vertex -56.6992 -58.6103 -1.27
    endloop
  endfacet
  facet normal -0.27086 -0.962619 0
    outer loop
      vertex -56.6992 -58.6103 -1.27
      vertex -56.6992 -58.6103 6.35
      vertex -56.943 -58.5417 6.35
    endloop
  endfacet
  facet normal 0.411153 0.911566 0
    outer loop
      vertex 57.062 58.4984 6.35
      vertex 57.2928 58.3943 1.26998
      vertex 57.062 58.4984 -1.27
    endloop
  endfacet
  facet normal 0.583961 0.811781 -0
    outer loop
      vertex 57.5121 58.2677 -1.27
      vertex 57.5121 58.2677 6.35
      vertex 57.7177 58.1198 6.35
    endloop
  endfacet
  facet normal 0.732878 0.68036 -0
    outer loop
      vertex 57.9075 57.9523 -6.35
      vertex 57.9075 57.9523 6.35
      vertex 58.0798 57.7667 6.35
    endloop
  endfacet
  facet normal 0.661687 0.74978 0
    outer loop
      vertex 57.7177 58.1198 6.35
      vertex 57.9075 57.9523 6.35
      vertex 57.9075 57.9523 -6.35
    endloop
  endfacet
  facet normal 0.901116 0.433578 0
    outer loop
      vertex 58.4745 57.1206 -6.35
      vertex 58.3647 57.3488 -6.35
      vertex 58.3647 57.3488 6.35
    endloop
  endfacet
  facet normal 0.901116 0.433578 0
    outer loop
      vertex 58.4745 57.1206 6.35
      vertex 58.4745 57.1206 -6.35
      vertex 58.3647 57.3488 6.35
    endloop
  endfacet
  facet normal 0 0 -1
    outer loop
      vertex 57.062 58.4984 -6.35
      vertex 57.7177 58.1198 -6.35
      vertex 57.9075 57.9523 -6.35
    endloop
  endfacet
  facet normal 0 0 -1
    outer loop
      vertex 56.0707 58.6732 -6.35
      vertex 57.062 58.4984 -6.35
      vertex 57.9075 57.9523 -6.35
    endloop
  endfacet
  facet normal 0.222696 0.974888 0
    outer loop
      vertex 56.575 58.6354 6.35
      vertex 56.8219 58.579 -1.27
      vertex 56.575 58.6354 -1.27
    endloop
  endfacet
  facet normal 0.124424 0.992229 -0
    outer loop
      vertex 56.575 58.6354 -1.27
      vertex 56.3238 58.6669 -1.27
      vertex 56.575 58.6354 6.35
    endloop
  endfacet
  facet normal 0.318241 0.94801 -0
    outer loop
      vertex 56.8219 58.579 -1.27
      vertex 56.8219 58.579 6.35
      vertex 57.062 58.4984 6.35
    endloop
  endfacet
  facet normal 0.318241 0.94801 -0
    outer loop
      vertex 57.062 58.4984 -1.27
      vertex 56.8219 58.579 -1.27
      vertex 57.062 58.4984 6.35
    endloop
  endfacet
  facet normal 0.222696 0.974888 0
    outer loop
      vertex 56.8219 58.579 -1.27
      vertex 56.575 58.6354 -6.35
      vertex 56.575 58.6354 -1.27
    endloop
  endfacet
  facet normal 0.0248836 0.99969 0
    outer loop
      vertex 56.0707 58.6732 6.35
      vertex 56.3238 58.6669 -1.27
      vertex 56.0707 58.6732 -6.35
    endloop
  endfacet
  facet normal 0 0 1
    outer loop
      vertex 58.4745 -57.1206 6.35
      vertex 58.5611 -56.8827 6.35
      vertex 58.674 -56.134 6.35
    endloop
  endfacet
  facet normal 0.939678 -0.34206 0
    outer loop
      vertex 58.4745 -57.1206 1.26998
      vertex 58.5611 -56.8827 6.35
      vertex 58.4745 -57.1206 6.35
    endloop
  endfacet
  facet normal 0 0 -1
    outer loop
      vertex -57.8147 58.0384 -6.35
      vertex -57.404 58.3337 -6.35
      vertex -56.1973 58.6732 -6.35
    endloop
  endfacet
  facet normal -0.62349 0.781831 0
    outer loop
      vertex -57.8147 58.0384 6.35
      vertex -57.6167 58.1963 -6.35
      vertex -57.8147 58.0384 1.26998
    endloop
  endfacet
  facet normal 0 0 1
    outer loop
      vertex -57.8147 58.0384 6.35
      vertex -58.5208 57.0027 6.35
      vertex -58.6709 56.2606 6.35
    endloop
  endfacet
  facet normal 0 0 1
    outer loop
      vertex -56.1973 58.6732 6.35
      vertex -57.8147 58.0384 6.35
      vertex -58.6709 56.2606 6.35
    endloop
  endfacet
  facet normal -0.365322 -0.930881 0
    outer loop
      vertex -57.1787 -58.4492 -1.27
      vertex -56.943 -58.5417 -6.35
      vertex -56.943 -58.5417 6.35
    endloop
  endfacet
  facet normal 0 0 1
    outer loop
      vertex -56.943 -58.5417 6.35
      vertex -56.6992 -58.6103 6.35
      vertex -56.1973 -58.6732 6.35
    endloop
  endfacet
  facet normal 0 0 1
    outer loop
      vertex -58.6709 -56.2606 6.35
      vertex -58.4225 -57.2361 6.35
      vertex -57.8147 -58.0385 6.35
    endloop
  endfacet
  facet normal -1 0 0
    outer loop
      vertex -58.6709 56.2606 -6.35
      vertex -58.6709 -56.2606 -6.35
      vertex -58.6709 -56.2606 6.35
    endloop
  endfacet
  facet normal -0.955514 0.294946 0
    outer loop
      vertex -58.5208 57.0027 1.26998
      vertex -58.5955 56.7607 -6.35
      vertex -58.5955 56.7607 1.26998
    endloop
  endfacet
  facet normal -0.955514 0.294946 0
    outer loop
      vertex -58.5955 56.7607 1.26998
      vertex -58.5955 56.7607 6.35
      vertex -58.5208 57.0027 6.35
    endloop
  endfacet
  facet normal 0 0 -1
    outer loop
      vertex -57.404 58.3337 -6.35
      vertex -56.943 58.5417 -6.35
      vertex -56.6992 58.6103 -6.35
    endloop
  endfacet
  facet normal -0.27086 0.962619 0
    outer loop
      vertex -56.6992 58.6103 1.26998
      vertex -56.6992 58.6103 -6.35
      vertex -56.943 58.5417 1.26998
    endloop
  endfacet
  facet normal 0.732878 -0.68036 0
    outer loop
      vertex 58.0798 -57.7667 -6.35
      vertex 58.0798 -57.7667 6.35
      vertex 57.9075 -57.9523 6.35
    endloop
  endfacet
  facet normal 0 0 -1
    outer loop
      vertex 58.6614 -56.3869 -6.35
      vertex 58.4745 -57.1206 -6.35
      vertex 58.0798 -57.7667 -6.35
    endloop
  endfacet
  facet normal 0 0 -1
    outer loop
      vertex 58.0798 -57.7667 -6.35
      vertex 57.7177 -58.1199 -6.35
      vertex 57.062 -58.4984 -6.35
    endloop
  endfacet
  facet normal 0.661909 -0.749584 0
    outer loop
      vertex 57.7177 -58.1199 -6.35
      vertex 57.9075 -57.9523 -6.35
      vertex 57.9075 -57.9523 1.26998
    endloop
  endfacet
  facet normal 0 0 -1
    outer loop
      vertex 56.575 -58.6354 -6.35
      vertex 56.3238 -58.6669 -6.35
      vertex 56.0707 -58.6732 -6.35
    endloop
  endfacet
  facet normal 0 0 -1
    outer loop
      vertex 57.062 -58.4984 -6.35
      vertex 56.575 -58.6354 -6.35
      vertex 56.0707 -58.6732 -6.35
    endloop
  endfacet
  facet normal 0 0 1
    outer loop
      vertex 57.062 -58.4984 6.35
      vertex 57.5121 -58.2677 6.35
      vertex 57.9075 -57.9523 6.35
    endloop
  endfacet
  facet normal 0 0 1
    outer loop
      vertex 56.0707 -58.6732 6.35
      vertex 57.062 -58.4984 6.35
      vertex 57.9075 -57.9523 6.35
    endloop
  endfacet
  facet normal 0.988797 -0.149267 0
    outer loop
      vertex 58.6614 -56.3869 -6.35
      vertex 58.6614 -56.3869 1.26998
      vertex 58.6236 -56.6373 1.26998
    endloop
  endfacet
  facet normal 0.998761 -0.0497603 0
    outer loop
      vertex 58.674 -56.134 6.35
      vertex 58.6614 -56.3869 1.26998
      vertex 58.6614 -56.3869 -6.35
    endloop
  endfacet
  facet normal 0 0 -1
    outer loop
      vertex -57.6167 -58.1963 -6.35
      vertex -58.6709 -56.2606 -6.35
      vertex -58.6709 56.2606 -6.35
    endloop
  endfacet
  facet normal 0 0 -1
    outer loop
      vertex -58.1587 -57.6677 -6.35
      vertex -58.3014 -57.4585 -6.35
      vertex -58.4225 -57.2361 -6.35
    endloop
  endfacet
  facet normal -0.623249 -0.782023 0
    outer loop
      vertex -57.6167 -58.1963 -6.35
      vertex -57.6167 -58.1963 6.35
      vertex -57.8147 -58.0385 6.35
    endloop
  endfacet
  facet normal -0.456196 -0.889879 -0
    outer loop
      vertex -57.404 -58.3337 6.35
      vertex -57.404 -58.3337 -1.27
      vertex -57.1787 -58.4492 -1.27
    endloop
  endfacet
  facet normal -0.623249 -0.782023 -0
    outer loop
      vertex -57.8147 -58.0385 6.35
      vertex -57.8147 -58.0385 -1.27
      vertex -57.6167 -58.1963 -6.35
    endloop
  endfacet
  facet normal -0.698368 -0.715739 0
    outer loop
      vertex -57.996 -57.8616 -1.27
      vertex -57.8147 -58.0385 -1.27
      vertex -57.8147 -58.0385 6.35
    endloop
  endfacet
  facet normal -0.542613 -0.839983 0
    outer loop
      vertex -57.6167 -58.1963 -6.35
      vertex -57.404 -58.3337 -1.27
      vertex -57.404 -58.3337 6.35
    endloop
  endfacet
  facet normal 0 0 -1
    outer loop
      vertex -56.1973 -58.6732 -6.35
      vertex -56.943 -58.5417 -6.35
      vertex -57.6167 -58.1963 -6.35
    endloop
  endfacet
  facet normal -0.17374 -0.984792 -0
    outer loop
      vertex -56.6992 -58.6103 -1.27
      vertex -56.6992 -58.6103 -6.35
      vertex -56.4498 -58.6543 -1.27
    endloop
  endfacet
  facet normal -0.0746427 -0.99721 -0
    outer loop
      vertex -56.1973 -58.6732 6.35
      vertex -56.4498 -58.6543 -1.27
      vertex -56.1973 -58.6732 -6.35
    endloop
  endfacet
  facet normal 0 0 -1
    outer loop
      vertex 57.062 58.4984 -6.35
      vertex 57.2928 58.3943 -6.35
      vertex 57.7177 58.1198 -6.35
    endloop
  endfacet
  facet normal 0.499962 0.866047 -0
    outer loop
      vertex 57.2928 58.3943 1.26998
      vertex 57.2928 58.3943 6.35
      vertex 57.5121 58.2677 -1.27
    endloop
  endfacet
  facet normal 0.411153 0.911566 0
    outer loop
      vertex 57.062 58.4984 6.35
      vertex 57.2928 58.3943 6.35
      vertex 57.2928 58.3943 1.26998
    endloop
  endfacet
  facet normal 0 0 1
    outer loop
      vertex 57.7177 58.1198 6.35
      vertex 57.2928 58.3943 6.35
      vertex 57.062 58.4984 6.35
    endloop
  endfacet
  facet normal 0 0 -1
    outer loop
      vertex 57.9075 57.9523 -6.35
      vertex 58.0798 57.7667 -6.35
      vertex 58.2326 57.5648 -6.35
    endloop
  endfacet
  facet normal 0.732878 0.68036 0
    outer loop
      vertex 58.0798 57.7667 6.35
      vertex 58.0798 57.7667 -6.35
      vertex 57.9075 57.9523 -6.35
    endloop
  endfacet
  facet normal 0.797386 0.60347 0
    outer loop
      vertex 58.0798 57.7667 6.35
      vertex 58.2326 57.5648 6.35
      vertex 58.2326 57.5648 -6.35
    endloop
  endfacet
  facet normal 0 0 1
    outer loop
      vertex 58.3647 57.3488 6.35
      vertex 58.2326 57.5648 6.35
      vertex 58.0798 57.7667 6.35
    endloop
  endfacet
  facet normal 0 0 -1
    outer loop
      vertex 58.4745 57.1206 -6.35
      vertex 58.5611 56.8827 -6.35
      vertex 58.6614 56.3869 -6.35
    endloop
  endfacet
  facet normal 0.939678 0.34206 0
    outer loop
      vertex 58.5611 56.8827 -1.27
      vertex 58.5611 56.8827 -6.35
      vertex 58.4745 57.1206 -6.35
    endloop
  endfacet
  facet normal 0 0 -1
    outer loop
      vertex 56.575 58.6354 -6.35
      vertex 56.8219 58.579 -6.35
      vertex 57.062 58.4984 -6.35
    endloop
  endfacet
  facet normal 0 0 -1
    outer loop
      vertex 56.0707 58.6732 -6.35
      vertex 56.575 58.6354 -6.35
      vertex 57.062 58.4984 -6.35
    endloop
  endfacet
  facet normal 0.222696 0.974888 0
    outer loop
      vertex 56.575 58.6354 6.35
      vertex 56.8219 58.579 6.35
      vertex 56.8219 58.579 -1.27
    endloop
  endfacet
  facet normal 0 0 1
    outer loop
      vertex 57.062 58.4984 6.35
      vertex 56.8219 58.579 6.35
      vertex 56.575 58.6354 6.35
    endloop
  endfacet
  facet normal 0.124424 0.992229 -0
    outer loop
      vertex 56.3238 58.6669 -1.27
      vertex 56.3238 58.6669 6.35
      vertex 56.575 58.6354 6.35
    endloop
  endfacet
  facet normal 0.0248836 0.99969 0
    outer loop
      vertex 56.0707 58.6732 6.35
      vertex 56.3238 58.6669 6.35
      vertex 56.3238 58.6669 -1.27
    endloop
  endfacet
  facet normal 0.853106 -0.521738 0
    outer loop
      vertex 58.2326 -57.5648 6.35
      vertex 58.3647 -57.3488 -6.35
      vertex 58.3647 -57.3488 6.35
    endloop
  endfacet
  facet normal 0 0 1
    outer loop
      vertex 58.2326 -57.5648 6.35
      vertex 58.3647 -57.3488 6.35
      vertex 58.4745 -57.1206 6.35
    endloop
  endfacet
  facet normal 0.969065 -0.246807 0
    outer loop
      vertex 58.5611 -56.8827 6.35
      vertex 58.6236 -56.6373 -6.35
      vertex 58.6236 -56.6373 1.26998
    endloop
  endfacet
  facet normal 0 0 1
    outer loop
      vertex 58.5611 -56.8827 6.35
      vertex 58.6236 -56.6373 6.35
      vertex 58.674 -56.134 6.35
    endloop
  endfacet
  facet normal 0 0 -1
    outer loop
      vertex -58.4225 57.2361 -6.35
      vertex -58.3014 57.4584 -6.35
      vertex -58.1587 57.6677 -6.35
    endloop
  endfacet
  facet normal 0 0 -1
    outer loop
      vertex -58.4225 57.2361 -6.35
      vertex -58.1587 57.6677 -6.35
      vertex -57.8147 58.0384 -6.35
    endloop
  endfacet
  facet normal 0 0 -1
    outer loop
      vertex -57.404 58.3337 -6.35
      vertex -56.6992 58.6103 -6.35
      vertex -56.1973 58.6732 -6.35
    endloop
  endfacet
  facet normal -0.27086 0.962619 0
    outer loop
      vertex -56.6992 58.6103 -6.35
      vertex -56.943 58.5417 -6.35
      vertex -56.943 58.5417 1.26998
    endloop
  endfacet
  facet normal -0.62349 0.781831 0
    outer loop
      vertex -57.8147 58.0384 6.35
      vertex -57.6167 58.1963 6.35
      vertex -57.6167 58.1963 -6.35
    endloop
  endfacet
  facet normal 0 0 1
    outer loop
      vertex -56.1973 58.6732 6.35
      vertex -56.943 58.5417 6.35
      vertex -57.8147 58.0384 6.35
    endloop
  endfacet
  facet normal -0.955514 0.294946 0
    outer loop
      vertex -58.5955 56.7607 1.26998
      vertex -58.5208 57.0027 6.35
      vertex -58.5208 57.0027 1.26998
    endloop
  endfacet
  facet normal 0 0 1
    outer loop
      vertex -58.5208 57.0027 6.35
      vertex -58.5955 56.7607 6.35
      vertex -58.6709 56.2606 6.35
    endloop
  endfacet
  facet normal -0.17374 -0.984792 0
    outer loop
      vertex -56.4498 -58.6543 -1.27
      vertex -56.6992 -58.6103 6.35
      vertex -56.6992 -58.6103 -1.27
    endloop
  endfacet
  facet normal 0 0 1
    outer loop
      vertex -56.6992 -58.6103 6.35
      vertex -56.4498 -58.6543 6.35
      vertex -56.1973 -58.6732 6.35
    endloop
  endfacet
  facet normal 0 0 1
    outer loop
      vertex -58.4225 -57.2361 6.35
      vertex -58.1587 -57.6677 6.35
      vertex -57.8147 -58.0385 6.35
    endloop
  endfacet
  facet normal 0 0 -1
    outer loop
      vertex -58.4225 -57.2361 -6.35
      vertex -58.5208 -57.0027 -6.35
      vertex -58.5955 -56.7608 -6.35
    endloop
  endfacet
  facet normal -0.994998 0.0998946 0
    outer loop
      vertex -58.6709 56.2606 -1.27
      vertex -58.6456 56.5126 1.26998
      vertex -58.6709 56.2606 -6.35
    endloop
  endfacet
  facet normal -0.994998 0.0998946 0
    outer loop
      vertex -58.6709 56.2606 1.26998
      vertex -58.6456 56.5126 1.26998
      vertex -58.6709 56.2606 -1.27
    endloop
  endfacet
  facet normal -0.17374 0.984792 0
    outer loop
      vertex -56.6992 58.6103 1.26998
      vertex -56.6992 58.6103 6.35
      vertex -56.4498 58.6543 1.26998
    endloop
  endfacet
  facet normal -0.0746427 0.99721 0
    outer loop
      vertex -56.1973 58.6732 -6.35
      vertex -56.4498 58.6543 1.26998
      vertex -56.1973 58.6732 6.35
    endloop
  endfacet
  facet normal 0.969065 -0.246807 0
    outer loop
      vertex 58.5611 -56.8827 6.35
      vertex 58.5611 -56.8827 -6.35
      vertex 58.6236 -56.6373 -6.35
    endloop
  endfacet
  facet normal 0 0 -1
    outer loop
      vertex 58.6614 -56.3869 -6.35
      vertex 58.6236 -56.6373 -6.35
      vertex 58.4745 -57.1206 -6.35
    endloop
  endfacet
  facet normal 0 0 -1
    outer loop
      vertex 58.0798 -57.7667 -6.35
      vertex 57.9075 -57.9523 -6.35
      vertex 57.7177 -58.1199 -6.35
    endloop
  endfacet
  facet normal 0.732878 -0.68036 0
    outer loop
      vertex 57.9075 -57.9523 1.26998
      vertex 57.9075 -57.9523 -6.35
      vertex 58.0798 -57.7667 -6.35
    endloop
  endfacet
  facet normal 0.124424 -0.992229 0
    outer loop
      vertex 56.3238 -58.6669 1.26998
      vertex 56.3238 -58.6669 -6.35
      vertex 56.575 -58.6354 -6.35
    endloop
  endfacet
  facet normal 0.0248836 -0.99969 0
    outer loop
      vertex 56.0707 -58.6732 -6.35
      vertex 56.3238 -58.6669 -6.35
      vertex 56.3238 -58.6669 1.26998
    endloop
  endfacet
  facet normal 0.222321 -0.974974 0
    outer loop
      vertex 56.8219 -58.5791 -6.35
      vertex 56.8219 -58.5791 6.35
      vertex 56.575 -58.6354 6.35
    endloop
  endfacet
  facet normal 0 0 1
    outer loop
      vertex 56.0707 -58.6732 6.35
      vertex 56.575 -58.6354 6.35
      vertex 57.062 -58.4984 6.35
    endloop
  endfacet
  facet normal 0.222321 -0.974974 0
    outer loop
      vertex 56.575 -58.6354 -6.35
      vertex 56.8219 -58.5791 -6.35
      vertex 56.575 -58.6354 6.35
    endloop
  endfacet
  facet normal 0 0 -1
    outer loop
      vertex 57.062 -58.4984 -6.35
      vertex 56.8219 -58.5791 -6.35
      vertex 56.575 -58.6354 -6.35
    endloop
  endfacet
  facet normal 0.499962 -0.866047 0
    outer loop
      vertex 57.5121 -58.2677 6.35
      vertex 57.2928 -58.3943 6.35
      vertex 57.2928 -58.3943 1.26998
    endloop
  endfacet
  facet normal 0.411153 -0.911566 0
    outer loop
      vertex 57.062 -58.4984 -6.35
      vertex 57.2928 -58.3943 1.26998
      vertex 57.062 -58.4984 6.35
    endloop
  endfacet
  facet normal 0 0 -1
    outer loop
      vertex -57.6167 -58.1963 -6.35
      vertex -58.4225 -57.2361 -6.35
      vertex -58.6709 -56.2606 -6.35
    endloop
  endfacet
  facet normal -0.82611 -0.563508 -0
    outer loop
      vertex -58.1587 -57.6677 6.35
      vertex -58.3014 -57.4585 6.35
      vertex -58.1587 -57.6677 -6.35
    endloop
  endfacet
  facet normal -0.921598 -0.388145 -0
    outer loop
      vertex -58.4225 -57.2361 6.35
      vertex -58.5208 -57.0027 6.35
      vertex -58.4225 -57.2361 -6.35
    endloop
  endfacet
  facet normal 0 0 1
    outer loop
      vertex -58.6709 -56.2606 6.35
      vertex -58.5955 -56.7608 6.35
      vertex -58.4225 -57.2361 6.35
    endloop
  endfacet
  facet normal 0 0 1
    outer loop
      vertex -57.404 -58.3337 6.35
      vertex -57.1787 -58.4492 6.35
      vertex -56.943 -58.5417 6.35
    endloop
  endfacet
  facet normal -0.456196 -0.889879 0
    outer loop
      vertex -57.1787 -58.4492 -1.27
      vertex -57.1787 -58.4492 6.35
      vertex -57.404 -58.3337 6.35
    endloop
  endfacet
  facet normal -0.542613 -0.839983 0
    outer loop
      vertex -57.404 -58.3337 6.35
      vertex -57.6167 -58.1963 6.35
      vertex -57.6167 -58.1963 -6.35
    endloop
  endfacet
  facet normal 0 0 1
    outer loop
      vertex -57.8147 -58.0385 6.35
      vertex -57.6167 -58.1963 6.35
      vertex -57.404 -58.3337 6.35
    endloop
  endfacet
  facet normal -0.456196 -0.889879 -0
    outer loop
      vertex -57.404 -58.3337 -1.27
      vertex -57.404 -58.3337 -6.35
      vertex -57.1787 -58.4492 -1.27
    endloop
  endfacet
  facet normal -0.542613 -0.839983 0
    outer loop
      vertex -57.6167 -58.1963 -6.35
      vertex -57.404 -58.3337 -6.35
      vertex -57.404 -58.3337 -1.27
    endloop
  endfacet
  facet normal -0.27086 -0.962619 0
    outer loop
      vertex -56.943 -58.5417 -6.35
      vertex -56.6992 -58.6103 -6.35
      vertex -56.6992 -58.6103 -1.27
    endloop
  endfacet
  facet normal 0 0 -1
    outer loop
      vertex -56.1973 -58.6732 -6.35
      vertex -56.6992 -58.6103 -6.35
      vertex -56.943 -58.5417 -6.35
    endloop
  endfacet
  facet normal 0.411153 0.911566 0
    outer loop
      vertex 57.2928 58.3943 1.26998
      vertex 57.2928 58.3943 -1.27
      vertex 57.062 58.4984 -6.35
    endloop
  endfacet
  facet normal 0.583961 0.811781 0
    outer loop
      vertex 57.7177 58.1198 6.35
      vertex 57.7177 58.1198 -6.35
      vertex 57.5121 58.2677 -1.27
    endloop
  endfacet
  facet normal 0.499962 0.866047 0
    outer loop
      vertex 57.5121 58.2677 -1.27
      vertex 57.2928 58.3943 -1.27
      vertex 57.2928 58.3943 1.26998
    endloop
  endfacet
  facet normal 0.411153 0.911566 0
    outer loop
      vertex 57.2928 58.3943 -1.27
      vertex 57.2928 58.3943 -6.35
      vertex 57.062 58.4984 -6.35
    endloop
  endfacet
  facet normal 0.499962 0.866047 0
    outer loop
      vertex 57.2928 58.3943 6.35
      vertex 57.5121 58.2677 6.35
      vertex 57.5121 58.2677 -1.27
    endloop
  endfacet
  facet normal 0 0 1
    outer loop
      vertex 57.7177 58.1198 6.35
      vertex 57.5121 58.2677 6.35
      vertex 57.2928 58.3943 6.35
    endloop
  endfacet
  facet normal 0 0 -1
    outer loop
      vertex 58.2326 57.5648 -6.35
      vertex 58.3647 57.3488 -6.35
      vertex 58.4745 57.1206 -6.35
    endloop
  endfacet
  facet normal 0.853106 0.521738 0
    outer loop
      vertex 58.3647 57.3488 6.35
      vertex 58.3647 57.3488 -6.35
      vertex 58.2326 57.5648 -6.35
    endloop
  endfacet
  facet normal 0.969065 0.246807 0
    outer loop
      vertex 58.6236 56.6373 -1.27
      vertex 58.5611 56.8827 -6.35
      vertex 58.5611 56.8827 -1.27
    endloop
  endfacet
  facet normal 0 0 -1
    outer loop
      vertex 58.5611 56.8827 -6.35
      vertex 58.6236 56.6373 -6.35
      vertex 58.6614 56.3869 -6.35
    endloop
  endfacet
  facet normal 0.124424 0.992229 0
    outer loop
      vertex 56.575 58.6354 -6.35
      vertex 56.3238 58.6669 -6.35
      vertex 56.3238 58.6669 -1.27
    endloop
  endfacet
  facet normal 0 0 -1
    outer loop
      vertex 56.0707 58.6732 -6.35
      vertex 56.3238 58.6669 -6.35
      vertex 56.575 58.6354 -6.35
    endloop
  endfacet
  facet normal 0.222696 0.974888 0
    outer loop
      vertex 56.8219 58.579 -1.27
      vertex 56.8219 58.579 -6.35
      vertex 56.575 58.6354 -6.35
    endloop
  endfacet
  facet normal 0.318241 0.94801 0
    outer loop
      vertex 57.062 58.4984 -6.35
      vertex 56.8219 58.579 -6.35
      vertex 56.8219 58.579 -1.27
    endloop
  endfacet
  facet normal 0.853106 -0.521738 0
    outer loop
      vertex 58.2326 -57.5648 6.35
      vertex 58.2326 -57.5648 -6.35
      vertex 58.3647 -57.3488 -6.35
    endloop
  endfacet
  facet normal 0.901116 -0.433578 0
    outer loop
      vertex 58.4745 -57.1206 1.26998
      vertex 58.3647 -57.3488 6.35
      vertex 58.4745 -57.1206 -6.35
    endloop
  endfacet
  facet normal 0.797386 -0.60347 0
    outer loop
      vertex 58.2326 -57.5648 6.35
      vertex 58.0798 -57.7667 6.35
      vertex 58.0798 -57.7667 -6.35
    endloop
  endfacet
  facet normal 0 0 1
    outer loop
      vertex 57.9075 -57.9523 6.35
      vertex 58.0798 -57.7667 6.35
      vertex 58.2326 -57.5648 6.35
    endloop
  endfacet
  facet normal 0.988797 -0.149267 0
    outer loop
      vertex 58.6614 -56.3869 1.26998
      vertex 58.6236 -56.6373 6.35
      vertex 58.6236 -56.6373 1.26998
    endloop
  endfacet
  facet normal 0 0 1
    outer loop
      vertex 58.6236 -56.6373 6.35
      vertex 58.6614 -56.3869 6.35
      vertex 58.674 -56.134 6.35
    endloop
  endfacet
  facet normal -0.878152 0.478382 0
    outer loop
      vertex -58.4225 57.2361 -6.35
      vertex -58.4225 57.2361 6.35
      vertex -58.3014 57.4584 6.35
    endloop
  endfacet
  facet normal 0 0 -1
    outer loop
      vertex -58.1587 57.6677 -6.35
      vertex -57.996 57.8616 -6.35
      vertex -57.8147 58.0384 -6.35
    endloop
  endfacet
  facet normal -0.921598 0.388145 0
    outer loop
      vertex -58.4225 57.2361 -6.35
      vertex -58.5208 57.0027 -6.35
      vertex -58.5208 57.0027 1.26998
    endloop
  endfacet
  facet normal 0 0 -1
    outer loop
      vertex -58.6709 56.2606 -6.35
      vertex -58.5955 56.7607 -6.35
      vertex -58.4225 57.2361 -6.35
    endloop
  endfacet
  facet normal 0 0 -1
    outer loop
      vertex -57.8147 58.0384 -6.35
      vertex -57.6167 58.1963 -6.35
      vertex -57.404 58.3337 -6.35
    endloop
  endfacet
  facet normal -0.62349 0.781831 0
    outer loop
      vertex -57.8147 58.0384 1.26998
      vertex -57.6167 58.1963 -6.35
      vertex -57.8147 58.0384 -6.35
    endloop
  endfacet
  facet normal -0.17374 0.984792 0
    outer loop
      vertex -56.4498 58.6543 1.26998
      vertex -56.6992 58.6103 -6.35
      vertex -56.6992 58.6103 1.26998
    endloop
  endfacet
  facet normal 0 0 -1
    outer loop
      vertex -56.6992 58.6103 -6.35
      vertex -56.4498 58.6543 -6.35
      vertex -56.1973 58.6732 -6.35
    endloop
  endfacet
  facet normal -0.27086 0.962619 0
    outer loop
      vertex -56.943 58.5417 6.35
      vertex -56.6992 58.6103 6.35
      vertex -56.6992 58.6103 1.26998
    endloop
  endfacet
  facet normal 0 0 1
    outer loop
      vertex -56.1973 58.6732 6.35
      vertex -56.6992 58.6103 6.35
      vertex -56.943 58.5417 6.35
    endloop
  endfacet
  facet normal 0 0 1
    outer loop
      vertex -56.943 58.5417 6.35
      vertex -57.1787 58.4492 6.35
      vertex -57.8147 58.0384 6.35
    endloop
  endfacet
  facet normal -0.365322 0.930881 0
    outer loop
      vertex -56.943 58.5417 1.26998
      vertex -57.1787 58.4492 6.35
      vertex -56.943 58.5417 6.35
    endloop
  endfacet
  facet normal -0.980214 0.197939 0
    outer loop
      vertex -58.6456 56.5126 1.26998
      vertex -58.5955 56.7607 6.35
      vertex -58.5955 56.7607 1.26998
    endloop
  endfacet
  facet normal 0 0 1
    outer loop
      vertex -58.5955 56.7607 6.35
      vertex -58.6456 56.5126 6.35
      vertex -58.6709 56.2606 6.35
    endloop
  endfacet
  facet normal -0.17374 -0.984792 0
    outer loop
      vertex -56.4498 -58.6543 -1.27
      vertex -56.4498 -58.6543 6.35
      vertex -56.6992 -58.6103 6.35
    endloop
  endfacet
  facet normal -0.0746427 -0.99721 0
    outer loop
      vertex -56.1973 -58.6732 6.35
      vertex -56.4498 -58.6543 6.35
      vertex -56.4498 -58.6543 -1.27
    endloop
  endfacet
  facet normal 0 0 1
    outer loop
      vertex -58.1587 -57.6677 6.35
      vertex -57.996 -57.8616 6.35
      vertex -57.8147 -58.0385 6.35
    endloop
  endfacet
  facet normal -0.766047 -0.642784 0
    outer loop
      vertex -57.996 -57.8616 -1.27
      vertex -57.996 -57.8616 6.35
      vertex -58.1587 -57.6677 6.35
    endloop
  endfacet
  facet normal 0.939678 -0.34206 0
    outer loop
      vertex 58.4745 -57.1206 -6.35
      vertex 58.5611 -56.8827 -6.35
      vertex 58.5611 -56.8827 6.35
    endloop
  endfacet
  facet normal 0 0 -1
    outer loop
      vertex 58.6236 -56.6373 -6.35
      vertex 58.5611 -56.8827 -6.35
      vertex 58.4745 -57.1206 -6.35
    endloop
  endfacet
  facet normal 0.124424 -0.992229 0
    outer loop
      vertex 56.575 -58.6354 6.35
      vertex 56.3238 -58.6669 6.35
      vertex 56.3238 -58.6669 1.26998
    endloop
  endfacet
  facet normal 0 0 1
    outer loop
      vertex 56.0707 -58.6732 6.35
      vertex 56.3238 -58.6669 6.35
      vertex 56.575 -58.6354 6.35
    endloop
  endfacet
  facet normal 0.318596 -0.947891 0
    outer loop
      vertex 57.062 -58.4984 6.35
      vertex 56.8219 -58.5791 6.35
      vertex 56.8219 -58.5791 -6.35
    endloop
  endfacet
  facet normal 0 0 1
    outer loop
      vertex 56.575 -58.6354 6.35
      vertex 56.8219 -58.5791 6.35
      vertex 57.062 -58.4984 6.35
    endloop
  endfacet
  facet normal 0.499962 -0.866047 0
    outer loop
      vertex 57.2928 -58.3943 -6.35
      vertex 57.5121 -58.2677 6.35
      vertex 57.2928 -58.3943 1.26998
    endloop
  endfacet
  facet normal 0.411153 -0.911566 0
    outer loop
      vertex 57.062 -58.4984 -6.35
      vertex 57.2928 -58.3943 -6.35
      vertex 57.2928 -58.3943 1.26998
    endloop
  endfacet
  facet normal 0 0 -1
    outer loop
      vertex 57.7177 -58.1199 -6.35
      vertex 57.5121 -58.2677 -6.35
      vertex 57.2928 -58.3943 -6.35
    endloop
  endfacet
  facet normal 0 0 1
    outer loop
      vertex 57.5121 -58.2677 6.35
      vertex 57.7177 -58.1199 6.35
      vertex 57.9075 -57.9523 6.35
    endloop
  endfacet
  facet normal 0 0 -1
    outer loop
      vertex -57.6167 -58.1963 -6.35
      vertex -58.1587 -57.6677 -6.35
      vertex -58.4225 -57.2361 -6.35
    endloop
  endfacet
  facet normal -0.766047 -0.642784 0
    outer loop
      vertex -58.1587 -57.6677 -6.35
      vertex -57.996 -57.8616 -6.35
      vertex -57.996 -57.8616 -1.27
    endloop
  endfacet
  facet normal 0 0 1
    outer loop
      vertex -58.4225 -57.2361 6.35
      vertex -58.3014 -57.4585 6.35
      vertex -58.1587 -57.6677 6.35
    endloop
  endfacet
  facet normal -0.878242 -0.478216 0
    outer loop
      vertex -58.4225 -57.2361 -6.35
      vertex -58.3014 -57.4585 6.35
      vertex -58.4225 -57.2361 6.35
    endloop
  endfacet
  facet normal -0.95548 -0.295057 -0
    outer loop
      vertex -58.5955 -56.7608 6.35
      vertex -58.5955 -56.7608 -6.35
      vertex -58.5208 -57.0027 6.35
    endloop
  endfacet
  facet normal -0.994998 -0.0998946 0
    outer loop
      vertex -58.6456 -56.5126 1.26998
      vertex -58.6456 -56.5126 6.35
      vertex -58.6709 -56.2606 6.35
    endloop
  endfacet
  facet normal 0 0 1
    outer loop
      vertex -58.5955 -56.7608 6.35
      vertex -58.5208 -57.0027 6.35
      vertex -58.4225 -57.2361 6.35
    endloop
  endfacet
  facet normal -0.98023 -0.197863 0
    outer loop
      vertex -58.6456 -56.5126 1.26998
      vertex -58.5955 -56.7608 -6.35
      vertex -58.5955 -56.7608 6.35
    endloop
  endfacet
  facet normal 0 0 -1
    outer loop
      vertex -56.943 -58.5417 -6.35
      vertex -57.404 -58.3337 -6.35
      vertex -57.6167 -58.1963 -6.35
    endloop
  endfacet
  facet normal -0.456196 -0.889879 0
    outer loop
      vertex -57.404 -58.3337 -6.35
      vertex -57.1787 -58.4492 -6.35
      vertex -57.1787 -58.4492 -1.27
    endloop
  endfacet
  facet normal -0.17374 -0.984792 0
    outer loop
      vertex -56.6992 -58.6103 -6.35
      vertex -56.4498 -58.6543 -6.35
      vertex -56.4498 -58.6543 -1.27
    endloop
  endfacet
  facet normal 0 0 -1
    outer loop
      vertex -56.1973 -58.6732 -6.35
      vertex -56.4498 -58.6543 -6.35
      vertex -56.6992 -58.6103 -6.35
    endloop
  endfacet
  facet normal 0.499962 0.866047 0
    outer loop
      vertex 57.5121 58.2677 -1.27
      vertex 57.2928 58.3943 -6.35
      vertex 57.2928 58.3943 -1.27
    endloop
  endfacet
  facet normal 0 0 -1
    outer loop
      vertex 57.2928 58.3943 -6.35
      vertex 57.5121 58.2677 -6.35
      vertex 57.7177 58.1198 -6.35
    endloop
  endfacet
  facet normal 0.969065 0.246807 0
    outer loop
      vertex 58.6236 56.6373 -1.27
      vertex 58.6236 56.6373 -6.35
      vertex 58.5611 56.8827 -6.35
    endloop
  endfacet
  facet normal 0.988797 0.149267 0
    outer loop
      vertex 58.6614 56.3869 -6.35
      vertex 58.6236 56.6373 -6.35
      vertex 58.6236 56.6373 -1.27
    endloop
  endfacet
  facet normal 0 0 -1
    outer loop
      vertex 58.4745 -57.1206 -6.35
      vertex 58.3647 -57.3488 -6.35
      vertex 58.0798 -57.7667 -6.35
    endloop
  endfacet
  facet normal 0.901116 -0.433578 0
    outer loop
      vertex 58.3647 -57.3488 6.35
      vertex 58.3647 -57.3488 -6.35
      vertex 58.4745 -57.1206 -6.35
    endloop
  endfacet
  facet normal 0.988797 -0.149267 0
    outer loop
      vertex 58.6614 -56.3869 1.26998
      vertex 58.6614 -56.3869 6.35
      vertex 58.6236 -56.6373 6.35
    endloop
  endfacet
  facet normal 0.998761 -0.0497603 0
    outer loop
      vertex 58.674 -56.134 6.35
      vertex 58.6614 -56.3869 6.35
      vertex 58.6614 -56.3869 1.26998
    endloop
  endfacet
  facet normal -0.766047 0.642784 0
    outer loop
      vertex -58.1587 57.6677 -6.35
      vertex -58.1587 57.6677 6.35
      vertex -57.996 57.8616 6.35
    endloop
  endfacet
  facet normal -0.698166 0.715936 0
    outer loop
      vertex -57.8147 58.0384 1.26998
      vertex -57.996 57.8616 -6.35
      vertex -57.8147 58.0384 6.35
    endloop
  endfacet
  facet normal 0 0 1
    outer loop
      vertex -57.8147 58.0384 6.35
      vertex -58.3014 57.4584 6.35
      vertex -58.5208 57.0027 6.35
    endloop
  endfacet
  facet normal 0 0 1
    outer loop
      vertex -57.8147 58.0384 6.35
      vertex -57.996 57.8616 6.35
      vertex -58.3014 57.4584 6.35
    endloop
  endfacet
  facet normal -0.980214 0.197939 0
    outer loop
      vertex -58.5955 56.7607 -6.35
      vertex -58.6456 56.5126 -6.35
      vertex -58.6456 56.5126 1.26998
    endloop
  endfacet
  facet normal 0 0 -1
    outer loop
      vertex -58.6709 56.2606 -6.35
      vertex -58.6456 56.5126 -6.35
      vertex -58.5955 56.7607 -6.35
    endloop
  endfacet
  facet normal 0 0 -1
    outer loop
      vertex -58.5955 56.7607 -6.35
      vertex -58.5208 57.0027 -6.35
      vertex -58.4225 57.2361 -6.35
    endloop
  endfacet
  facet normal -0.955514 0.294946 0
    outer loop
      vertex -58.5208 57.0027 1.26998
      vertex -58.5208 57.0027 -6.35
      vertex -58.5955 56.7607 -6.35
    endloop
  endfacet
  facet normal -0.365322 0.930881 0
    outer loop
      vertex -56.943 58.5417 -6.35
      vertex -57.1787 58.4492 -6.35
      vertex -57.1787 58.4492 6.35
    endloop
  endfacet
  facet normal -0.365322 0.930881 0
    outer loop
      vertex -56.943 58.5417 1.26998
      vertex -56.943 58.5417 -6.35
      vertex -57.1787 58.4492 6.35
    endloop
  endfacet
  facet normal -0.17374 0.984792 0
    outer loop
      vertex -56.4498 58.6543 1.26998
      vertex -56.4498 58.6543 -6.35
      vertex -56.6992 58.6103 -6.35
    endloop
  endfacet
  facet normal -0.0746427 0.99721 0
    outer loop
      vertex -56.1973 58.6732 -6.35
      vertex -56.4498 58.6543 -6.35
      vertex -56.4498 58.6543 1.26998
    endloop
  endfacet
  facet normal -0.17374 0.984792 0
    outer loop
      vertex -56.6992 58.6103 6.35
      vertex -56.4498 58.6543 6.35
      vertex -56.4498 58.6543 1.26998
    endloop
  endfacet
  facet normal 0 0 1
    outer loop
      vertex -56.1973 58.6732 6.35
      vertex -56.4498 58.6543 6.35
      vertex -56.6992 58.6103 6.35
    endloop
  endfacet
  facet normal -0.456196 0.889879 0
    outer loop
      vertex -57.404 58.3337 -6.35
      vertex -57.404 58.3337 6.35
      vertex -57.1787 58.4492 6.35
    endloop
  endfacet
  facet normal -0.542613 0.839983 0
    outer loop
      vertex -57.6167 58.1963 -6.35
      vertex -57.6167 58.1963 6.35
      vertex -57.404 58.3337 -6.35
    endloop
  endfacet
  facet normal -0.980214 0.197939 0
    outer loop
      vertex -58.6456 56.5126 1.26998
      vertex -58.6456 56.5126 6.35
      vertex -58.5955 56.7607 6.35
    endloop
  endfacet
  facet normal -0.994998 0.0998946 0
    outer loop
      vertex -58.6709 56.2606 6.35
      vertex -58.6456 56.5126 6.35
      vertex -58.6456 56.5126 1.26998
    endloop
  endfacet
  facet normal 0 0 1
    outer loop
      vertex 57.062 -58.4984 6.35
      vertex 57.2928 -58.3943 6.35
      vertex 57.5121 -58.2677 6.35
    endloop
  endfacet
  facet normal 0.411153 -0.911566 0
    outer loop
      vertex 57.2928 -58.3943 1.26998
      vertex 57.2928 -58.3943 6.35
      vertex 57.062 -58.4984 6.35
    endloop
  endfacet
  facet normal 0.583701 -0.811969 0
    outer loop
      vertex 57.5121 -58.2677 6.35
      vertex 57.5121 -58.2677 -6.35
      vertex 57.7177 -58.1199 -6.35
    endloop
  endfacet
  facet normal 0.499962 -0.866047 0
    outer loop
      vertex 57.2928 -58.3943 -6.35
      vertex 57.5121 -58.2677 -6.35
      vertex 57.5121 -58.2677 6.35
    endloop
  endfacet
  facet normal 0.583701 -0.811969 0
    outer loop
      vertex 57.7177 -58.1199 -6.35
      vertex 57.7177 -58.1199 6.35
      vertex 57.5121 -58.2677 6.35
    endloop
  endfacet
  facet normal 0.661909 -0.749584 0
    outer loop
      vertex 57.9075 -57.9523 6.35
      vertex 57.7177 -58.1199 6.35
      vertex 57.7177 -58.1199 -6.35
    endloop
  endfacet
  facet normal 0 0 -1
    outer loop
      vertex -57.6167 -58.1963 -6.35
      vertex -57.8147 -58.0385 -6.35
      vertex -57.996 -57.8616 -6.35
    endloop
  endfacet
  facet normal -0.698368 -0.715739 -0
    outer loop
      vertex -57.996 -57.8616 -1.27
      vertex -57.996 -57.8616 -6.35
      vertex -57.8147 -58.0385 -1.27
    endloop
  endfacet
  facet normal -0.82611 -0.563508 -0
    outer loop
      vertex -58.3014 -57.4585 6.35
      vertex -58.3014 -57.4585 -6.35
      vertex -58.1587 -57.6677 -6.35
    endloop
  endfacet
  facet normal -0.878242 -0.478216 0
    outer loop
      vertex -58.4225 -57.2361 -6.35
      vertex -58.3014 -57.4585 -6.35
      vertex -58.3014 -57.4585 6.35
    endloop
  endfacet
  facet normal -0.98023 -0.197863 -0
    outer loop
      vertex -58.6456 -56.5126 1.26998
      vertex -58.6456 -56.5126 -6.35
      vertex -58.5955 -56.7608 -6.35
    endloop
  endfacet
  facet normal 0 0 -1
    outer loop
      vertex -58.4225 -57.2361 -6.35
      vertex -58.5955 -56.7608 -6.35
      vertex -58.6709 -56.2606 -6.35
    endloop
  endfacet
  facet normal -0.98023 -0.197863 0
    outer loop
      vertex -58.5955 -56.7608 6.35
      vertex -58.6456 -56.5126 6.35
      vertex -58.6456 -56.5126 1.26998
    endloop
  endfacet
  facet normal 0 0 1
    outer loop
      vertex -58.6709 -56.2606 6.35
      vertex -58.6456 -56.5126 6.35
      vertex -58.5955 -56.7608 6.35
    endloop
  endfacet
  facet normal 0 0 -1
    outer loop
      vertex -56.943 -58.5417 -6.35
      vertex -57.1787 -58.4492 -6.35
      vertex -57.404 -58.3337 -6.35
    endloop
  endfacet
  facet normal -0.365322 -0.930881 -0
    outer loop
      vertex -57.1787 -58.4492 -1.27
      vertex -57.1787 -58.4492 -6.35
      vertex -56.943 -58.5417 -6.35
    endloop
  endfacet
  facet normal 0.499962 0.866047 0
    outer loop
      vertex 57.5121 58.2677 -1.27
      vertex 57.5121 58.2677 -6.35
      vertex 57.2928 58.3943 -6.35
    endloop
  endfacet
  facet normal 0.583961 0.811781 0
    outer loop
      vertex 57.7177 58.1198 -6.35
      vertex 57.5121 58.2677 -6.35
      vertex 57.5121 58.2677 -1.27
    endloop
  endfacet
  facet normal 0.797386 -0.60347 0
    outer loop
      vertex 58.0798 -57.7667 -6.35
      vertex 58.2326 -57.5648 -6.35
      vertex 58.2326 -57.5648 6.35
    endloop
  endfacet
  facet normal 0 0 -1
    outer loop
      vertex 58.3647 -57.3488 -6.35
      vertex 58.2326 -57.5648 -6.35
      vertex 58.0798 -57.7667 -6.35
    endloop
  endfacet
  facet normal -0.698166 0.715936 0
    outer loop
      vertex -57.996 57.8616 -6.35
      vertex -57.996 57.8616 6.35
      vertex -57.8147 58.0384 6.35
    endloop
  endfacet
  facet normal -0.766047 0.642784 0
    outer loop
      vertex -58.1587 57.6677 -6.35
      vertex -57.996 57.8616 6.35
      vertex -57.996 57.8616 -6.35
    endloop
  endfacet
  facet normal -0.878152 0.478382 0
    outer loop
      vertex -58.3014 57.4584 6.35
      vertex -58.3014 57.4584 -6.35
      vertex -58.4225 57.2361 -6.35
    endloop
  endfacet
  facet normal -0.826236 0.563325 0
    outer loop
      vertex -58.1587 57.6677 -6.35
      vertex -58.3014 57.4584 -6.35
      vertex -58.3014 57.4584 6.35
    endloop
  endfacet
  facet normal -0.921598 0.388145 0
    outer loop
      vertex -58.5208 57.0027 6.35
      vertex -58.4225 57.2361 6.35
      vertex -58.4225 57.2361 -6.35
    endloop
  endfacet
  facet normal 0 0 1
    outer loop
      vertex -58.3014 57.4584 6.35
      vertex -58.4225 57.2361 6.35
      vertex -58.5208 57.0027 6.35
    endloop
  endfacet
  facet normal 0 0 -1
    outer loop
      vertex -57.404 58.3337 -6.35
      vertex -57.1787 58.4492 -6.35
      vertex -56.943 58.5417 -6.35
    endloop
  endfacet
  facet normal -0.456196 0.889879 0
    outer loop
      vertex -57.1787 58.4492 6.35
      vertex -57.1787 58.4492 -6.35
      vertex -57.404 58.3337 -6.35
    endloop
  endfacet
  facet normal -0.542613 0.839983 0
    outer loop
      vertex -57.6167 58.1963 6.35
      vertex -57.404 58.3337 6.35
      vertex -57.404 58.3337 -6.35
    endloop
  endfacet
  facet normal 0 0 1
    outer loop
      vertex -57.1787 58.4492 6.35
      vertex -57.404 58.3337 6.35
      vertex -57.6167 58.1963 6.35
    endloop
  endfacet
  facet normal -0.623249 -0.782023 -0
    outer loop
      vertex -57.8147 -58.0385 -1.27
      vertex -57.8147 -58.0385 -6.35
      vertex -57.6167 -58.1963 -6.35
    endloop
  endfacet
  facet normal -0.698368 -0.715739 0
    outer loop
      vertex -57.996 -57.8616 -6.35
      vertex -57.8147 -58.0385 -6.35
      vertex -57.8147 -58.0385 -1.27
    endloop
  endfacet
  facet normal -0.921598 -0.388145 -0
    outer loop
      vertex -58.5208 -57.0027 6.35
      vertex -58.5208 -57.0027 -6.35
      vertex -58.4225 -57.2361 -6.35
    endloop
  endfacet
  facet normal -0.95548 -0.295057 0
    outer loop
      vertex -58.5955 -56.7608 -6.35
      vertex -58.5208 -57.0027 -6.35
      vertex -58.5208 -57.0027 6.35
    endloop
  endfacet
  facet normal -0.994998 -0.0998946 0
    outer loop
      vertex -58.6709 -56.2606 -6.35
      vertex -58.6456 -56.5126 -6.35
      vertex -58.6456 -56.5126 1.26998
    endloop
  endfacet
  facet normal 0 0 -1
    outer loop
      vertex -58.5955 -56.7608 -6.35
      vertex -58.6456 -56.5126 -6.35
      vertex -58.6709 -56.2606 -6.35
    endloop
  endfacet
  facet normal -0.826236 0.563325 0
    outer loop
      vertex -58.3014 57.4584 6.35
      vertex -58.1587 57.6677 6.35
      vertex -58.1587 57.6677 -6.35
    endloop
  endfacet
  facet normal 0 0 1
    outer loop
      vertex -57.996 57.8616 6.35
      vertex -58.1587 57.6677 6.35
      vertex -58.3014 57.4584 6.35
    endloop
  endfacet
endsolid OpenSCAD_Model
