solid OpenSCAD_Model
  facet normal 0.988797 0.149267 0
    outer loop
      vertex 39.5736 24.8873 6.35
      vertex 39.6114 24.6369 6.35
      vertex 39.6114 24.6369 1.26998
    endloop
  endfacet
  facet normal -0 0 1
    outer loop
      vertex -39.5956 -24.7626 6.35
      vertex 38.4621 -26.5177 6.35
      vertex 39.6114 24.6369 6.35
    endloop
  endfacet
  facet normal 0 0 1
    outer loop
      vertex 39.6114 24.6369 6.35
      vertex 39.5736 24.8873 6.35
      vertex -39.5956 -24.7626 6.35
    endloop
  endfacet
  facet normal 0.998761 0.0497603 0
    outer loop
      vertex 39.6114 24.6369 6.35
      vertex 39.624 24.384 1.26998
      vertex 39.6114 24.6369 1.26998
    endloop
  endfacet
  facet normal 0 0 -1
    outer loop
      vertex -37.6492 26.8603 -6.35
      vertex 39.624 24.384 -6.35
      vertex -37.1473 -26.9232 -6.35
    endloop
  endfacet
  facet normal 0 0 1
    outer loop
      vertex 38.4621 -26.5177 6.35
      vertex 39.0298 -26.0167 6.35
      vertex 39.3147 -25.5988 6.35
    endloop
  endfacet
  facet normal 0 0 1
    outer loop
      vertex -39.2514 25.7084 6.35
      vertex -39.4708 25.2527 6.35
      vertex -39.6208 24.5106 6.35
    endloop
  endfacet
  facet normal 0 0 1
    outer loop
      vertex 38.4621 -26.5177 6.35
      vertex 39.624 -24.384 6.35
      vertex 39.6114 24.6369 6.35
    endloop
  endfacet
  facet normal 0 0 1
    outer loop
      vertex -38.354 26.5837 6.35
      vertex -39.6208 24.5106 6.35
      vertex -39.5956 -24.7626 6.35
    endloop
  endfacet
  facet normal 0 0 1
    outer loop
      vertex 39.5736 24.8873 6.35
      vertex -38.354 26.5837 6.35
      vertex -39.5956 -24.7626 6.35
    endloop
  endfacet
  facet normal 0 1 0
    outer loop
      vertex 37.0207 26.9232 1.26998
      vertex 37.0207 26.9232 -6.35
      vertex -37.1473 26.9232 -6.35
    endloop
  endfacet
  facet normal 0 0 -1
    outer loop
      vertex 37.2738 26.9169 -6.35
      vertex 39.4245 25.3706 -6.35
      vertex 39.5736 24.8873 -6.35
    endloop
  endfacet
  facet normal 0 -0 -1
    outer loop
      vertex -37.6492 26.8603 -6.35
      vertex -37.1473 -26.9232 -6.35
      vertex -38.354 26.5837 -6.35
    endloop
  endfacet
  facet normal 0 0 -1
    outer loop
      vertex -38.354 26.5837 -6.35
      vertex -38.1287 26.6992 -6.35
      vertex -37.893 26.7917 -6.35
    endloop
  endfacet
  facet normal 0 0 1
    outer loop
      vertex -38.354 26.5837 6.35
      vertex -39.2514 25.7084 6.35
      vertex -39.6208 24.5106 6.35
    endloop
  endfacet
  facet normal 0 0 1
    outer loop
      vertex -39.5956 -24.7626 6.35
      vertex -38.7647 -26.2885 6.35
      vertex -37.1473 -26.9232 6.35
    endloop
  endfacet
  facet normal -0.0746427 0.99721 0
    outer loop
      vertex -37.1473 26.9232 1.26998
      vertex -37.3998 26.9043 6.35
      vertex -37.1473 26.9232 6.35
    endloop
  endfacet
  facet normal 0 0 1
    outer loop
      vertex 39.5736 24.8873 6.35
      vertex 39.0298 26.0167 6.35
      vertex 38.2428 26.6443 6.35
    endloop
  endfacet
  facet normal 0 0 1
    outer loop
      vertex 37.2738 26.9169 6.35
      vertex -37.1473 26.9232 6.35
      vertex -37.893 26.7917 6.35
    endloop
  endfacet
  facet normal 0 0 1
    outer loop
      vertex 39.5736 24.8873 6.35
      vertex 37.2738 26.9169 6.35
      vertex -38.354 26.5837 6.35
    endloop
  endfacet
  facet normal 0.853106 0.521738 0
    outer loop
      vertex 39.3147 25.5988 6.35
      vertex 39.3147 25.5988 -1.27
      vertex 39.1826 25.8148 -1.27
    endloop
  endfacet
  facet normal 0 0 -1
    outer loop
      vertex -37.6492 26.8603 -6.35
      vertex 37.2738 26.9169 -6.35
      vertex 39.624 24.384 -6.35
    endloop
  endfacet
  facet normal 1 0 0
    outer loop
      vertex 39.624 24.384 1.26998
      vertex 39.624 -24.384 6.35
      vertex 39.624 -24.384 1.26998
    endloop
  endfacet
  facet normal 0 -0 1
    outer loop
      vertex 39.624 -24.384 6.35
      vertex 39.624 24.384 6.35
      vertex 39.6114 24.6369 6.35
    endloop
  endfacet
  facet normal 0 0 -1
    outer loop
      vertex 39.624 24.384 -6.35
      vertex 38.4621 -26.5177 -6.35
      vertex -37.1473 -26.9232 -6.35
    endloop
  endfacet
  facet normal 0.0248836 -0.99969 0
    outer loop
      vertex 37.2738 -26.9169 1.26998
      vertex 37.2738 -26.9169 6.35
      vertex 37.0207 -26.9232 6.35
    endloop
  endfacet
  facet normal -0.826236 0.563325 0
    outer loop
      vertex -39.2514 25.7084 6.35
      vertex -39.1087 25.9177 1.26998
      vertex -39.2514 25.7084 1.26998
    endloop
  endfacet
  facet normal -1 0 0
    outer loop
      vertex -39.6208 -24.5106 -6.35
      vertex -39.6208 -24.5106 6.35
      vertex -39.6208 24.5106 6.35
    endloop
  endfacet
  facet normal -1 -0 0
    outer loop
      vertex -39.6208 24.5106 1.26998
      vertex -39.6208 24.2574 -1.27
      vertex -39.6208 24.5106 6.35
    endloop
  endfacet
  facet normal -0.995037 0.0995037 0
    outer loop
      vertex -39.6208 24.5106 6.35
      vertex -39.5956 24.7626 -6.35
      vertex -39.6208 24.5106 1.26998
    endloop
  endfacet
  facet normal 0 0 1
    outer loop
      vertex -39.2514 25.7084 6.35
      vertex -39.3725 25.4861 6.35
      vertex -39.4708 25.2527 6.35
    endloop
  endfacet
  facet normal -1 -0 0
    outer loop
      vertex -39.6208 24.2574 -1.27
      vertex -39.6208 -24.5106 -6.35
      vertex -39.6208 24.5106 6.35
    endloop
  endfacet
  facet normal -0.365322 0.930881 0
    outer loop
      vertex -38.1287 26.6992 -6.35
      vertex -37.893 26.7917 6.35
      vertex -37.893 26.7917 -6.35
    endloop
  endfacet
  facet normal 0 0 -1
    outer loop
      vertex -38.354 26.5837 -6.35
      vertex -37.893 26.7917 -6.35
      vertex -37.6492 26.8603 -6.35
    endloop
  endfacet
  facet normal 0 0 1
    outer loop
      vertex 38.6677 26.3698 6.35
      vertex 38.4621 26.5177 6.35
      vertex 38.2428 26.6443 6.35
    endloop
  endfacet
  facet normal 0.998761 0.0497603 0
    outer loop
      vertex 39.624 24.384 1.26998
      vertex 39.624 24.384 -6.35
      vertex 39.6114 24.6369 1.26998
    endloop
  endfacet
  facet normal 0.0248836 0.99969 -0
    outer loop
      vertex 37.2738 26.9169 1.26998
      vertex 37.0207 26.9232 1.26998
      vertex 37.2738 26.9169 6.35
    endloop
  endfacet
  facet normal 0 0 1
    outer loop
      vertex 37.2738 26.9169 6.35
      vertex -37.893 26.7917 6.35
      vertex -38.354 26.5837 6.35
    endloop
  endfacet
  facet normal 1 0 0
    outer loop
      vertex 39.624 -24.384 1.26998
      vertex 39.624 -24.384 -6.35
      vertex 39.624 24.384 -6.35
    endloop
  endfacet
  facet normal 0 0 1
    outer loop
      vertex 38.4621 -26.5177 6.35
      vertex 39.3147 -25.5988 6.35
      vertex 39.624 -24.384 6.35
    endloop
  endfacet
  facet normal 1 0 -0
    outer loop
      vertex 39.624 24.384 1.26998
      vertex 39.624 24.384 6.35
      vertex 39.624 -24.384 6.35
    endloop
  endfacet
  facet normal 0.998761 0.0497603 0
    outer loop
      vertex 39.6114 24.6369 6.35
      vertex 39.624 24.384 6.35
      vertex 39.624 24.384 1.26998
    endloop
  endfacet
  facet normal 1 -0 0
    outer loop
      vertex 39.624 -24.384 1.26998
      vertex 39.624 24.384 -6.35
      vertex 39.624 24.384 1.26998
    endloop
  endfacet
  facet normal 0.901116 -0.433578 0
    outer loop
      vertex 39.3147 -25.5988 6.35
      vertex 39.4245 -25.3706 -6.35
      vertex 39.4245 -25.3706 6.35
    endloop
  endfacet
  facet normal 0.901116 -0.433578 0
    outer loop
      vertex 39.3147 -25.5988 6.35
      vertex 39.3147 -25.5988 -6.35
      vertex 39.4245 -25.3706 -6.35
    endloop
  endfacet
  facet normal 0.0248836 -0.99969 0
    outer loop
      vertex 37.0207 -26.9232 1.26998
      vertex 37.0207 -26.9232 -6.35
      vertex 37.2738 -26.9169 1.26998
    endloop
  endfacet
  facet normal 0 0 1
    outer loop
      vertex -39.5956 -24.7626 6.35
      vertex -37.1473 -26.9232 6.35
      vertex 38.4621 -26.5177 6.35
    endloop
  endfacet
  facet normal -0.542613 -0.839983 0
    outer loop
      vertex -38.354 -26.5837 6.35
      vertex -38.5667 -26.4463 6.35
      vertex -38.5667 -26.4463 -6.35
    endloop
  endfacet
  facet normal 0 0 1
    outer loop
      vertex -38.354 26.5837 6.35
      vertex -38.7647 26.2884 6.35
      vertex -39.2514 25.7084 6.35
    endloop
  endfacet
  facet normal -0.995037 0.0995037 0
    outer loop
      vertex -39.6208 24.5106 1.26998
      vertex -39.5956 24.7626 -6.35
      vertex -39.6208 24.5106 -6.35
    endloop
  endfacet
  facet normal -0.62349 0.781831 0
    outer loop
      vertex -38.7647 26.2884 6.35
      vertex -38.5667 26.4463 1.26998
      vertex -38.7647 26.2884 1.26998
    endloop
  endfacet
  facet normal 0 0 1
    outer loop
      vertex -38.354 26.5837 6.35
      vertex -38.5667 26.4463 6.35
      vertex -38.7647 26.2884 6.35
    endloop
  endfacet
  facet normal -1 0 -0
    outer loop
      vertex -39.6208 24.5106 1.26998
      vertex -39.6208 24.5106 -6.35
      vertex -39.6208 24.2574 -1.27
    endloop
  endfacet
  facet normal 0 0 -1
    outer loop
      vertex -37.1473 -26.9232 -6.35
      vertex -39.6208 -24.5106 -6.35
      vertex -38.354 26.5837 -6.35
    endloop
  endfacet
  facet normal -0.62349 0.781831 0
    outer loop
      vertex -38.5667 26.4463 1.26998
      vertex -38.5667 26.4463 -6.35
      vertex -38.7647 26.2884 1.26998
    endloop
  endfacet
  facet normal -0.955514 0.294946 0
    outer loop
      vertex -39.5455 25.0107 -6.35
      vertex -39.5455 25.0107 6.35
      vertex -39.4708 25.2527 6.35
    endloop
  endfacet
  facet normal -0.456196 0.889879 0
    outer loop
      vertex -38.354 26.5837 6.35
      vertex -38.1287 26.6992 -6.35
      vertex -38.354 26.5837 -6.35
    endloop
  endfacet
  facet normal -0.456196 0.889879 0
    outer loop
      vertex -38.354 26.5837 6.35
      vertex -38.1287 26.6992 6.35
      vertex -38.1287 26.6992 -6.35
    endloop
  endfacet
  facet normal -0.0746427 0.99721 0
    outer loop
      vertex -37.1473 26.9232 -6.35
      vertex -37.3998 26.9043 6.35
      vertex -37.1473 26.9232 1.26998
    endloop
  endfacet
  facet normal -0.27086 0.962619 0
    outer loop
      vertex -37.893 26.7917 -6.35
      vertex -37.893 26.7917 6.35
      vertex -37.6492 26.8603 -6.35
    endloop
  endfacet
  facet normal 0 0 1
    outer loop
      vertex 39.5736 24.8873 6.35
      vertex 38.2428 26.6443 6.35
      vertex 37.2738 26.9169 6.35
    endloop
  endfacet
  facet normal 0.732878 0.68036 -0
    outer loop
      vertex 38.8575 26.2023 1.26998
      vertex 38.8575 26.2023 6.35
      vertex 39.0298 26.0167 6.35
    endloop
  endfacet
  facet normal 0 1 0
    outer loop
      vertex 37.0207 26.9232 1.26998
      vertex -37.1473 26.9232 -6.35
      vertex -37.1473 26.9232 1.26998
    endloop
  endfacet
  facet normal 0.0248836 0.99969 0
    outer loop
      vertex 37.2738 26.9169 1.26998
      vertex 37.2738 26.9169 -6.35
      vertex 37.0207 26.9232 1.26998
    endloop
  endfacet
  facet normal 0.732878 -0.68036 0
    outer loop
      vertex 39.0298 -26.0167 6.35
      vertex 38.8575 -26.2023 6.35
      vertex 38.8575 -26.2023 1.26998
    endloop
  endfacet
  facet normal 0.583701 -0.811969 0
    outer loop
      vertex 38.4621 -26.5177 -6.35
      vertex 38.6677 -26.3699 -1.27
      vertex 38.6677 -26.3699 6.35
    endloop
  endfacet
  facet normal 0.998761 -0.0497603 0
    outer loop
      vertex 39.6114 -24.6369 6.35
      vertex 39.624 -24.384 -6.35
      vertex 39.624 -24.384 1.26998
    endloop
  endfacet
  facet normal 0 0 1
    outer loop
      vertex 39.3147 -25.5988 6.35
      vertex 39.5736 -24.8873 6.35
      vertex 39.624 -24.384 6.35
    endloop
  endfacet
  facet normal 0.853106 0.521738 0
    outer loop
      vertex 39.3147 25.5988 -1.27
      vertex 39.1826 25.8148 -6.35
      vertex 39.1826 25.8148 -1.27
    endloop
  endfacet
  facet normal 0 0 1
    outer loop
      vertex 38.2428 26.6443 6.35
      vertex 38.012 26.7484 6.35
      vertex 37.7719 26.829 6.35
    endloop
  endfacet
  facet normal 0.988797 0.149267 0
    outer loop
      vertex 39.6114 24.6369 1.26998
      vertex 39.5736 24.8873 -6.35
      vertex 39.5736 24.8873 6.35
    endloop
  endfacet
  facet normal 0.988797 0.149267 0
    outer loop
      vertex 39.6114 24.6369 1.26998
      vertex 39.6114 24.6369 -6.35
      vertex 39.5736 24.8873 -6.35
    endloop
  endfacet
  facet normal 0 -1 0
    outer loop
      vertex -37.1473 -26.9232 -6.35
      vertex 37.0207 -26.9232 -6.35
      vertex 37.0207 -26.9232 1.26998
    endloop
  endfacet
  facet normal 0.411153 -0.911566 0
    outer loop
      vertex 38.2428 -26.6443 1.26998
      vertex 38.012 -26.7484 6.35
      vertex 38.012 -26.7484 1.26998
    endloop
  endfacet
  facet normal 0 0 1
    outer loop
      vertex -37.1473 -26.9232 6.35
      vertex 37.0207 -26.9232 6.35
      vertex 38.4621 -26.5177 6.35
    endloop
  endfacet
  facet normal 0 -1 0
    outer loop
      vertex -37.1473 -26.9232 -6.35
      vertex 37.0207 -26.9232 1.26998
      vertex -37.1473 -26.9232 6.35
    endloop
  endfacet
  facet normal -0.365322 -0.930881 -0
    outer loop
      vertex -37.893 -26.7917 6.35
      vertex -38.1287 -26.6992 1.26998
      vertex -37.893 -26.7917 1.26998
    endloop
  endfacet
  facet normal -0.27086 -0.962619 0
    outer loop
      vertex -37.6492 -26.8603 1.26998
      vertex -37.893 -26.7917 6.35
      vertex -37.893 -26.7917 1.26998
    endloop
  endfacet
  facet normal -0.955514 0.294946 0
    outer loop
      vertex -39.4708 25.2527 -1.27
      vertex -39.5455 25.0107 -6.35
      vertex -39.4708 25.2527 6.35
    endloop
  endfacet
  facet normal -0.826236 0.563325 0
    outer loop
      vertex -39.2514 25.7084 6.35
      vertex -39.1087 25.9177 6.35
      vertex -39.1087 25.9177 1.26998
    endloop
  endfacet
  facet normal -0.826236 0.563325 0
    outer loop
      vertex -39.1087 25.9177 1.26998
      vertex -39.1087 25.9177 -6.35
      vertex -39.2514 25.7084 1.26998
    endloop
  endfacet
  facet normal -0.766047 0.642784 0
    outer loop
      vertex -39.1087 25.9177 1.26998
      vertex -39.1087 25.9177 6.35
      vertex -38.946 26.1116 1.26998
    endloop
  endfacet
  facet normal -0.542613 0.839983 0
    outer loop
      vertex -38.354 26.5837 -6.35
      vertex -38.5667 26.4463 1.26998
      vertex -38.354 26.5837 6.35
    endloop
  endfacet
  facet normal 0 0 -1
    outer loop
      vertex -39.3725 25.4861 -6.35
      vertex -39.1087 25.9177 -6.35
      vertex -38.5667 26.4463 -6.35
    endloop
  endfacet
  facet normal -0.995037 -0.0995037 0
    outer loop
      vertex -39.5956 -24.7626 6.35
      vertex -39.6208 -24.5106 6.35
      vertex -39.6208 -24.5106 -6.35
    endloop
  endfacet
  facet normal 0 0 1
    outer loop
      vertex -39.6208 24.5106 6.35
      vertex -39.6208 -24.5106 6.35
      vertex -39.5956 -24.7626 6.35
    endloop
  endfacet
  facet normal 0 0 -1
    outer loop
      vertex -39.6208 -24.5106 -6.35
      vertex -39.6208 24.5106 -6.35
      vertex -38.354 26.5837 -6.35
    endloop
  endfacet
  facet normal -1 0 -0
    outer loop
      vertex -39.6208 24.2574 -1.27
      vertex -39.6208 24.5106 -6.35
      vertex -39.6208 -24.5106 -6.35
    endloop
  endfacet
  facet normal -0.878152 0.478382 0
    outer loop
      vertex -39.2514 25.7084 1.26998
      vertex -39.3725 25.4861 1.26998
      vertex -39.2514 25.7084 6.35
    endloop
  endfacet
  facet normal -0.878152 0.478382 0
    outer loop
      vertex -39.2514 25.7084 1.26998
      vertex -39.3725 25.4861 -6.35
      vertex -39.3725 25.4861 1.26998
    endloop
  endfacet
  facet normal -0.878152 0.478382 0
    outer loop
      vertex -39.2514 25.7084 1.26998
      vertex -39.2514 25.7084 -6.35
      vertex -39.3725 25.4861 -6.35
    endloop
  endfacet
  facet normal -0.921598 0.388145 0
    outer loop
      vertex -39.4708 25.2527 6.35
      vertex -39.3725 25.4861 1.26998
      vertex -39.4708 25.2527 -1.27
    endloop
  endfacet
  facet normal 0 0 1
    outer loop
      vertex -37.893 26.7917 6.35
      vertex -38.1287 26.6992 6.35
      vertex -38.354 26.5837 6.35
    endloop
  endfacet
  facet normal -0.365322 0.930881 0
    outer loop
      vertex -38.1287 26.6992 -6.35
      vertex -38.1287 26.6992 6.35
      vertex -37.893 26.7917 6.35
    endloop
  endfacet
  facet normal 0 0 1
    outer loop
      vertex 37.2738 26.9169 6.35
      vertex 37.0207 26.9232 6.35
      vertex -37.1473 26.9232 6.35
    endloop
  endfacet
  facet normal 0 1 0
    outer loop
      vertex -37.1473 26.9232 1.26998
      vertex -37.1473 26.9232 6.35
      vertex 37.0207 26.9232 1.26998
    endloop
  endfacet
  facet normal 0.124424 0.992229 0
    outer loop
      vertex 37.2738 26.9169 1.26998
      vertex 37.525 26.8854 6.35
      vertex 37.2738 26.9169 -6.35
    endloop
  endfacet
  facet normal 0 0 1
    outer loop
      vertex 38.2428 26.6443 6.35
      vertex 37.7719 26.829 6.35
      vertex 37.2738 26.9169 6.35
    endloop
  endfacet
  facet normal 0 0 1
    outer loop
      vertex 39.5736 24.8873 6.35
      vertex 39.4245 25.3706 6.35
      vertex 39.0298 26.0167 6.35
    endloop
  endfacet
  facet normal 0 0 1
    outer loop
      vertex 39.4245 25.3706 6.35
      vertex 39.3147 25.5988 6.35
      vertex 39.0298 26.0167 6.35
    endloop
  endfacet
  facet normal 0 -0 -1
    outer loop
      vertex 39.624 24.384 -6.35
      vertex 39.624 -24.384 -6.35
      vertex 38.4621 -26.5177 -6.35
    endloop
  endfacet
  facet normal 0 0 1
    outer loop
      vertex 39.3147 -25.5988 6.35
      vertex 39.4245 -25.3706 6.35
      vertex 39.5736 -24.8873 6.35
    endloop
  endfacet
  facet normal 0.998761 -0.0497603 0
    outer loop
      vertex 39.624 -24.384 6.35
      vertex 39.6114 -24.6369 6.35
      vertex 39.624 -24.384 1.26998
    endloop
  endfacet
  facet normal 0 0 1
    outer loop
      vertex 39.5736 -24.8873 6.35
      vertex 39.6114 -24.6369 6.35
      vertex 39.624 -24.384 6.35
    endloop
  endfacet
  facet normal 0 0 -1
    outer loop
      vertex -37.6492 26.8603 -6.35
      vertex -37.1473 26.9232 -6.35
      vertex 37.2738 26.9169 -6.35
    endloop
  endfacet
  facet normal 0 0 -1
    outer loop
      vertex -37.6492 26.8603 -6.35
      vertex -37.3998 26.9043 -6.35
      vertex -37.1473 26.9232 -6.35
    endloop
  endfacet
  facet normal 0.661687 0.74978 0
    outer loop
      vertex 38.8575 26.2023 1.26998
      vertex 38.6677 26.3698 1.26998
      vertex 38.6677 26.3698 6.35
    endloop
  endfacet
  facet normal 0.318241 0.94801 0
    outer loop
      vertex 38.012 26.7484 6.35
      vertex 37.7719 26.829 -1.27
      vertex 37.7719 26.829 6.35
    endloop
  endfacet
  facet normal 0 0 -1
    outer loop
      vertex 37.2738 26.9169 -6.35
      vertex 39.5736 24.8873 -6.35
      vertex 39.624 24.384 -6.35
    endloop
  endfacet
  facet normal 0.583961 0.811781 0
    outer loop
      vertex 38.6677 26.3698 1.26998
      vertex 38.6677 26.3698 -6.35
      vertex 38.4621 26.5177 1.26998
    endloop
  endfacet
  facet normal 0.988797 -0.149267 0
    outer loop
      vertex 39.5736 -24.8873 6.35
      vertex 39.6114 -24.6369 -1.27
      vertex 39.6114 -24.6369 6.35
    endloop
  endfacet
  facet normal 0 0 -1
    outer loop
      vertex 39.4245 -25.3706 -6.35
      vertex 39.1826 -25.8148 -6.35
      vertex 38.4621 -26.5177 -6.35
    endloop
  endfacet
  facet normal 0 0 1
    outer loop
      vertex 38.4621 -26.5177 6.35
      vertex 38.6677 -26.3699 6.35
      vertex 39.0298 -26.0167 6.35
    endloop
  endfacet
  facet normal 0 0 -1
    outer loop
      vertex 39.624 -24.384 -6.35
      vertex 39.4245 -25.3706 -6.35
      vertex 38.4621 -26.5177 -6.35
    endloop
  endfacet
  facet normal 0 0 -1
    outer loop
      vertex 38.4621 -26.5177 -6.35
      vertex 37.7719 -26.8291 -6.35
      vertex 37.0207 -26.9232 -6.35
    endloop
  endfacet
  facet normal 0 -1 0
    outer loop
      vertex 37.0207 -26.9232 1.26998
      vertex 37.0207 -26.9232 6.35
      vertex -37.1473 -26.9232 6.35
    endloop
  endfacet
  facet normal 0 0 -1
    outer loop
      vertex 38.4621 -26.5177 -6.35
      vertex 37.0207 -26.9232 -6.35
      vertex -37.1473 -26.9232 -6.35
    endloop
  endfacet
  facet normal 0 0 -1
    outer loop
      vertex 37.7719 -26.8291 -6.35
      vertex 37.2738 -26.9169 -6.35
      vertex 37.0207 -26.9232 -6.35
    endloop
  endfacet
  facet normal 0.0248836 -0.99969 0
    outer loop
      vertex 37.2738 -26.9169 1.26998
      vertex 37.0207 -26.9232 6.35
      vertex 37.0207 -26.9232 1.26998
    endloop
  endfacet
  facet normal 0.499962 -0.866047 0
    outer loop
      vertex 38.4621 -26.5177 6.35
      vertex 38.2428 -26.6443 6.35
      vertex 38.2428 -26.6443 1.26998
    endloop
  endfacet
  facet normal -0.623249 -0.782023 -0
    outer loop
      vertex -38.7647 -26.2885 6.35
      vertex -38.7647 -26.2885 -6.35
      vertex -38.5667 -26.4463 -6.35
    endloop
  endfacet
  facet normal -0.878152 -0.478382 -0
    outer loop
      vertex -39.2514 -25.7084 6.35
      vertex -39.3725 -25.4861 -6.35
      vertex -39.2514 -25.7084 -6.35
    endloop
  endfacet
  facet normal 0 0 -1
    outer loop
      vertex -37.1473 -26.9232 -6.35
      vertex -39.2514 -25.7084 -6.35
      vertex -39.6208 -24.5106 -6.35
    endloop
  endfacet
  facet normal 0 0 1
    outer loop
      vertex -38.7647 -26.2885 6.35
      vertex -38.354 -26.5837 6.35
      vertex -37.893 -26.7917 6.35
    endloop
  endfacet
  facet normal -0.542613 0.839983 0
    outer loop
      vertex -38.354 26.5837 -6.35
      vertex -38.5667 26.4463 -6.35
      vertex -38.5667 26.4463 1.26998
    endloop
  endfacet
  facet normal 0 0 -1
    outer loop
      vertex -39.6208 24.5106 -6.35
      vertex -38.5667 26.4463 -6.35
      vertex -38.354 26.5837 -6.35
    endloop
  endfacet
  facet normal -0.698166 0.715936 0
    outer loop
      vertex -38.7647 26.2884 1.26998
      vertex -38.946 26.1116 1.26998
      vertex -38.7647 26.2884 6.35
    endloop
  endfacet
  facet normal -0.766047 0.642784 0
    outer loop
      vertex -38.946 26.1116 1.26998
      vertex -39.1087 25.9177 -6.35
      vertex -39.1087 25.9177 1.26998
    endloop
  endfacet
  facet normal 0 0 1
    outer loop
      vertex -38.7647 26.2884 6.35
      vertex -39.1087 25.9177 6.35
      vertex -39.2514 25.7084 6.35
    endloop
  endfacet
  facet normal -0.766047 0.642784 0
    outer loop
      vertex -39.1087 25.9177 6.35
      vertex -38.946 26.1116 6.35
      vertex -38.946 26.1116 1.26998
    endloop
  endfacet
  facet normal -0.542613 0.839983 0
    outer loop
      vertex -38.5667 26.4463 1.26998
      vertex -38.5667 26.4463 6.35
      vertex -38.354 26.5837 6.35
    endloop
  endfacet
  facet normal -0.62349 0.781831 0
    outer loop
      vertex -38.7647 26.2884 6.35
      vertex -38.5667 26.4463 6.35
      vertex -38.5667 26.4463 1.26998
    endloop
  endfacet
  facet normal 0 0 -1
    outer loop
      vertex -39.5455 25.0107 -6.35
      vertex -39.3725 25.4861 -6.35
      vertex -38.5667 26.4463 -6.35
    endloop
  endfacet
  facet normal 0 0 -1
    outer loop
      vertex -39.6208 24.5106 -6.35
      vertex -39.5455 25.0107 -6.35
      vertex -38.5667 26.4463 -6.35
    endloop
  endfacet
  facet normal -0.878152 0.478382 0
    outer loop
      vertex -39.3725 25.4861 1.26998
      vertex -39.3725 25.4861 6.35
      vertex -39.2514 25.7084 6.35
    endloop
  endfacet
  facet normal -0.921598 0.388145 0
    outer loop
      vertex -39.4708 25.2527 6.35
      vertex -39.3725 25.4861 6.35
      vertex -39.3725 25.4861 1.26998
    endloop
  endfacet
  facet normal -0.17374 0.984792 0
    outer loop
      vertex -37.6492 26.8603 -6.35
      vertex -37.6492 26.8603 6.35
      vertex -37.3998 26.9043 6.35
    endloop
  endfacet
  facet normal 0 0 1
    outer loop
      vertex -37.1473 26.9232 6.35
      vertex -37.3998 26.9043 6.35
      vertex -37.893 26.7917 6.35
    endloop
  endfacet
  facet normal 0.0248836 0.99969 -0
    outer loop
      vertex 37.0207 26.9232 1.26998
      vertex 37.0207 26.9232 6.35
      vertex 37.2738 26.9169 6.35
    endloop
  endfacet
  facet normal -0 1 0
    outer loop
      vertex -37.1473 26.9232 6.35
      vertex 37.0207 26.9232 6.35
      vertex 37.0207 26.9232 1.26998
    endloop
  endfacet
  facet normal 0.124424 0.992229 0
    outer loop
      vertex 37.2738 26.9169 6.35
      vertex 37.525 26.8854 6.35
      vertex 37.2738 26.9169 1.26998
    endloop
  endfacet
  facet normal 0 0 1
    outer loop
      vertex 37.7719 26.829 6.35
      vertex 37.525 26.8854 6.35
      vertex 37.2738 26.9169 6.35
    endloop
  endfacet
  facet normal 0.499962 0.866047 0
    outer loop
      vertex 38.2428 26.6443 6.35
      vertex 38.4621 26.5177 6.35
      vertex 38.2428 26.6443 1.26998
    endloop
  endfacet
  facet normal 0 0 1
    outer loop
      vertex 39.0298 26.0167 6.35
      vertex 38.6677 26.3698 6.35
      vertex 38.2428 26.6443 6.35
    endloop
  endfacet
  facet normal 0.939678 0.34206 0
    outer loop
      vertex 39.4245 25.3706 6.35
      vertex 39.5111 25.1327 -1.27
      vertex 39.4245 25.3706 -1.27
    endloop
  endfacet
  facet normal 0.901116 0.433578 -0
    outer loop
      vertex 39.4245 25.3706 -1.27
      vertex 39.3147 25.5988 6.35
      vertex 39.4245 25.3706 6.35
    endloop
  endfacet
  facet normal 0 0 -1
    outer loop
      vertex 37.2738 26.9169 -6.35
      vertex 38.2428 26.6443 -6.35
      vertex 39.1826 25.8148 -6.35
    endloop
  endfacet
  facet normal 0.797386 0.60347 0
    outer loop
      vertex 39.1826 25.8148 -1.27
      vertex 39.0298 26.0167 1.26998
      vertex 39.0298 26.0167 6.35
    endloop
  endfacet
  facet normal 0.0248836 0.99969 0
    outer loop
      vertex 37.2738 26.9169 -6.35
      vertex 37.0207 26.9232 -6.35
      vertex 37.0207 26.9232 1.26998
    endloop
  endfacet
  facet normal 0 0 -1
    outer loop
      vertex -37.1473 26.9232 -6.35
      vertex 37.0207 26.9232 -6.35
      vertex 37.2738 26.9169 -6.35
    endloop
  endfacet
  facet normal 0.411153 0.911566 -0
    outer loop
      vertex 38.2428 26.6443 1.26998
      vertex 38.012 26.7484 6.35
      vertex 38.2428 26.6443 6.35
    endloop
  endfacet
  facet normal 0.583961 0.811781 0
    outer loop
      vertex 38.6677 26.3698 1.26998
      vertex 38.4621 26.5177 1.26998
      vertex 38.4621 26.5177 6.35
    endloop
  endfacet
  facet normal 0.222696 0.974888 0
    outer loop
      vertex 37.7719 26.829 -1.27
      vertex 37.525 26.8854 -1.27
      vertex 37.525 26.8854 6.35
    endloop
  endfacet
  facet normal 0.222696 0.974888 0
    outer loop
      vertex 37.7719 26.829 6.35
      vertex 37.7719 26.829 -1.27
      vertex 37.525 26.8854 6.35
    endloop
  endfacet
  facet normal 0 0 1
    outer loop
      vertex 39.5736 24.8873 6.35
      vertex 39.5111 25.1327 6.35
      vertex 39.4245 25.3706 6.35
    endloop
  endfacet
  facet normal 0.969065 0.246807 -0
    outer loop
      vertex 39.5736 24.8873 -6.35
      vertex 39.5111 25.1327 -1.27
      vertex 39.5736 24.8873 6.35
    endloop
  endfacet
  facet normal 0.998761 0.0497603 0
    outer loop
      vertex 39.624 24.384 -6.35
      vertex 39.6114 24.6369 -6.35
      vertex 39.6114 24.6369 1.26998
    endloop
  endfacet
  facet normal 0 0 -1
    outer loop
      vertex 39.5736 24.8873 -6.35
      vertex 39.6114 24.6369 -6.35
      vertex 39.624 24.384 -6.35
    endloop
  endfacet
  facet normal 0.998761 -0.0497603 0
    outer loop
      vertex 39.6114 -24.6369 -1.27
      vertex 39.6114 -24.6369 -6.35
      vertex 39.624 -24.384 -6.35
    endloop
  endfacet
  facet normal 0.939678 -0.34206 0
    outer loop
      vertex 39.4245 -25.3706 -6.35
      vertex 39.5111 -25.1327 6.35
      vertex 39.4245 -25.3706 6.35
    endloop
  endfacet
  facet normal 0.988797 -0.149267 0
    outer loop
      vertex 39.5736 -24.8873 6.35
      vertex 39.5736 -24.8873 -6.35
      vertex 39.6114 -24.6369 -1.27
    endloop
  endfacet
  facet normal 0.998761 -0.0497603 0
    outer loop
      vertex 39.6114 -24.6369 6.35
      vertex 39.6114 -24.6369 -1.27
      vertex 39.624 -24.384 -6.35
    endloop
  endfacet
  facet normal 0.583701 -0.811969 0
    outer loop
      vertex 38.4621 -26.5177 -6.35
      vertex 38.6677 -26.3699 6.35
      vertex 38.4621 -26.5177 6.35
    endloop
  endfacet
  facet normal 0.661909 -0.749584 0
    outer loop
      vertex 38.6677 -26.3699 6.35
      vertex 38.6677 -26.3699 -1.27
      vertex 38.8575 -26.2023 1.26998
    endloop
  endfacet
  facet normal 0.499962 -0.866047 0
    outer loop
      vertex 38.4621 -26.5177 6.35
      vertex 38.2428 -26.6443 1.26998
      vertex 38.4621 -26.5177 -6.35
    endloop
  endfacet
  facet normal 0 0 1
    outer loop
      vertex 37.0207 -26.9232 6.35
      vertex 37.7719 -26.8291 6.35
      vertex 38.4621 -26.5177 6.35
    endloop
  endfacet
  facet normal 0.318596 -0.947891 0
    outer loop
      vertex 37.7719 -26.8291 -6.35
      vertex 38.012 -26.7484 -6.35
      vertex 38.012 -26.7484 1.26998
    endloop
  endfacet
  facet normal 0 0 -1
    outer loop
      vertex 38.4621 -26.5177 -6.35
      vertex 38.2428 -26.6443 -6.35
      vertex 37.7719 -26.8291 -6.35
    endloop
  endfacet
  facet normal 0.222321 -0.974974 0
    outer loop
      vertex 37.7719 -26.8291 6.35
      vertex 37.525 -26.8854 1.26998
      vertex 37.7719 -26.8291 -6.35
    endloop
  endfacet
  facet normal 0.318596 -0.947891 0
    outer loop
      vertex 38.012 -26.7484 1.26998
      vertex 37.7719 -26.8291 6.35
      vertex 37.7719 -26.8291 -6.35
    endloop
  endfacet
  facet normal -0.17374 -0.984792 0
    outer loop
      vertex -37.6492 -26.8603 -6.35
      vertex -37.3998 -26.9043 6.35
      vertex -37.6492 -26.8603 1.26998
    endloop
  endfacet
  facet normal 0 0 -1
    outer loop
      vertex -37.1473 -26.9232 -6.35
      vertex -37.3998 -26.9043 -6.35
      vertex -37.6492 -26.8603 -6.35
    endloop
  endfacet
  facet normal 0 0 1
    outer loop
      vertex -38.7647 -26.2885 6.35
      vertex -37.893 -26.7917 6.35
      vertex -37.1473 -26.9232 6.35
    endloop
  endfacet
  facet normal 0 0 -1
    outer loop
      vertex -38.5667 -26.4463 -6.35
      vertex -38.946 -26.1116 -6.35
      vertex -39.2514 -25.7084 -6.35
    endloop
  endfacet
  facet normal 0 0 -1
    outer loop
      vertex -37.1473 -26.9232 -6.35
      vertex -38.5667 -26.4463 -6.35
      vertex -39.2514 -25.7084 -6.35
    endloop
  endfacet
  facet normal 0 0 -1
    outer loop
      vertex -37.1473 -26.9232 -6.35
      vertex -37.6492 -26.8603 -6.35
      vertex -38.5667 -26.4463 -6.35
    endloop
  endfacet
  facet normal 0 0 1
    outer loop
      vertex -39.5956 -24.7626 6.35
      vertex -39.2514 -25.7084 6.35
      vertex -38.7647 -26.2885 6.35
    endloop
  endfacet
  facet normal 0 0 1
    outer loop
      vertex -39.5956 -24.7626 6.35
      vertex -39.4708 -25.2527 6.35
      vertex -39.2514 -25.7084 6.35
    endloop
  endfacet
  facet normal -0.95548 -0.295057 -0
    outer loop
      vertex -39.4708 -25.2527 6.35
      vertex -39.5455 -25.0108 -6.35
      vertex -39.4708 -25.2527 -6.35
    endloop
  endfacet
  facet normal 0 0 -1
    outer loop
      vertex -39.2514 -25.7084 -6.35
      vertex -39.4708 -25.2527 -6.35
      vertex -39.6208 -24.5106 -6.35
    endloop
  endfacet
  facet normal -0.698166 0.715936 0
    outer loop
      vertex -38.7647 26.2884 1.26998
      vertex -38.7647 26.2884 -1.27
      vertex -38.946 26.1116 1.26998
    endloop
  endfacet
  facet normal -0.62349 0.781831 0
    outer loop
      vertex -38.5667 26.4463 -6.35
      vertex -38.7647 26.2884 -1.27
      vertex -38.7647 26.2884 1.26998
    endloop
  endfacet
  facet normal 0 0 1
    outer loop
      vertex -38.7647 26.2884 6.35
      vertex -38.946 26.1116 6.35
      vertex -39.1087 25.9177 6.35
    endloop
  endfacet
  facet normal -0.698166 0.715936 0
    outer loop
      vertex -38.946 26.1116 1.26998
      vertex -38.946 26.1116 6.35
      vertex -38.7647 26.2884 6.35
    endloop
  endfacet
  facet normal -0.980214 0.197939 0
    outer loop
      vertex -39.5956 24.7626 -6.35
      vertex -39.5455 25.0107 6.35
      vertex -39.5455 25.0107 -6.35
    endloop
  endfacet
  facet normal 0 0 -1
    outer loop
      vertex -39.6208 24.5106 -6.35
      vertex -39.5956 24.7626 -6.35
      vertex -39.5455 25.0107 -6.35
    endloop
  endfacet
  facet normal -0.995037 0.0995037 0
    outer loop
      vertex -39.6208 24.5106 6.35
      vertex -39.5956 24.7626 6.35
      vertex -39.5956 24.7626 -6.35
    endloop
  endfacet
  facet normal 0 0 1
    outer loop
      vertex -39.4708 25.2527 6.35
      vertex -39.5455 25.0107 6.35
      vertex -39.6208 24.5106 6.35
    endloop
  endfacet
  facet normal -0.955514 0.294946 0
    outer loop
      vertex -39.4708 25.2527 -1.27
      vertex -39.4708 25.2527 -6.35
      vertex -39.5455 25.0107 -6.35
    endloop
  endfacet
  facet normal -0.921598 0.388145 0
    outer loop
      vertex -39.3725 25.4861 1.26998
      vertex -39.3725 25.4861 -6.35
      vertex -39.4708 25.2527 -1.27
    endloop
  endfacet
  facet normal -0.17374 0.984792 0
    outer loop
      vertex -37.3998 26.9043 6.35
      vertex -37.3998 26.9043 -6.35
      vertex -37.6492 26.8603 -6.35
    endloop
  endfacet
  facet normal -0.0746427 0.99721 0
    outer loop
      vertex -37.1473 26.9232 -6.35
      vertex -37.3998 26.9043 -6.35
      vertex -37.3998 26.9043 6.35
    endloop
  endfacet
  facet normal -0.27086 0.962619 0
    outer loop
      vertex -37.893 26.7917 6.35
      vertex -37.6492 26.8603 6.35
      vertex -37.6492 26.8603 -6.35
    endloop
  endfacet
  facet normal 0 0 1
    outer loop
      vertex -37.3998 26.9043 6.35
      vertex -37.6492 26.8603 6.35
      vertex -37.893 26.7917 6.35
    endloop
  endfacet
  facet normal 0.661687 0.74978 0
    outer loop
      vertex 38.6677 26.3698 6.35
      vertex 38.8575 26.2023 6.35
      vertex 38.8575 26.2023 1.26998
    endloop
  endfacet
  facet normal 0 0 1
    outer loop
      vertex 39.0298 26.0167 6.35
      vertex 38.8575 26.2023 6.35
      vertex 38.6677 26.3698 6.35
    endloop
  endfacet
  facet normal 0.901116 0.433578 0
    outer loop
      vertex 39.4245 25.3706 -1.27
      vertex 39.4245 25.3706 -6.35
      vertex 39.3147 25.5988 6.35
    endloop
  endfacet
  facet normal 0 0 -1
    outer loop
      vertex 39.1826 25.8148 -6.35
      vertex 39.3147 25.5988 -6.35
      vertex 39.4245 25.3706 -6.35
    endloop
  endfacet
  facet normal 0.583961 0.811781 -0
    outer loop
      vertex 38.6677 26.3698 1.26998
      vertex 38.4621 26.5177 6.35
      vertex 38.6677 26.3698 6.35
    endloop
  endfacet
  facet normal 0.499962 0.866047 0
    outer loop
      vertex 38.4621 26.5177 6.35
      vertex 38.4621 26.5177 1.26998
      vertex 38.2428 26.6443 1.26998
    endloop
  endfacet
  facet normal 0.499962 0.866047 0
    outer loop
      vertex 38.4621 26.5177 1.26998
      vertex 38.2428 26.6443 -6.35
      vertex 38.2428 26.6443 1.26998
    endloop
  endfacet
  facet normal 0 0 1
    outer loop
      vertex 39.3147 25.5988 6.35
      vertex 39.1826 25.8148 6.35
      vertex 39.0298 26.0167 6.35
    endloop
  endfacet
  facet normal 0.939678 0.34206 0
    outer loop
      vertex 39.5111 25.1327 -1.27
      vertex 39.4245 25.3706 -6.35
      vertex 39.4245 25.3706 -1.27
    endloop
  endfacet
  facet normal 0 0 -1
    outer loop
      vertex 39.4245 25.3706 -6.35
      vertex 39.5111 25.1327 -6.35
      vertex 39.5736 24.8873 -6.35
    endloop
  endfacet
  facet normal 0.661687 0.74978 0
    outer loop
      vertex 38.8575 26.2023 1.26998
      vertex 38.6677 26.3698 -6.35
      vertex 38.6677 26.3698 1.26998
    endloop
  endfacet
  facet normal 0.732878 0.68036 0
    outer loop
      vertex 39.0298 26.0167 6.35
      vertex 39.0298 26.0167 1.26998
      vertex 38.8575 26.2023 1.26998
    endloop
  endfacet
  facet normal 0.318241 0.94801 0
    outer loop
      vertex 38.012 26.7484 6.35
      vertex 38.012 26.7484 -1.27
      vertex 37.7719 26.829 -1.27
    endloop
  endfacet
  facet normal 0.411153 0.911566 0
    outer loop
      vertex 38.2428 26.6443 1.26998
      vertex 38.012 26.7484 -1.27
      vertex 38.012 26.7484 6.35
    endloop
  endfacet
  facet normal 0.222696 0.974888 0
    outer loop
      vertex 37.7719 26.829 -1.27
      vertex 37.7719 26.829 -6.35
      vertex 37.525 26.8854 -1.27
    endloop
  endfacet
  facet normal 0.124424 0.992229 0
    outer loop
      vertex 37.525 26.8854 6.35
      vertex 37.525 26.8854 -1.27
      vertex 37.2738 26.9169 -6.35
    endloop
  endfacet
  facet normal 0.969065 0.246807 -0
    outer loop
      vertex 39.5111 25.1327 -1.27
      vertex 39.5111 25.1327 6.35
      vertex 39.5736 24.8873 6.35
    endloop
  endfacet
  facet normal 0.939678 0.34206 0
    outer loop
      vertex 39.4245 25.3706 6.35
      vertex 39.5111 25.1327 6.35
      vertex 39.5111 25.1327 -1.27
    endloop
  endfacet
  facet normal 0.853106 -0.521738 0
    outer loop
      vertex 39.3147 -25.5988 6.35
      vertex 39.1826 -25.8148 6.35
      vertex 39.1826 -25.8148 -6.35
    endloop
  endfacet
  facet normal 0 0 -1
    outer loop
      vertex 39.1826 -25.8148 -6.35
      vertex 38.8575 -26.2023 -6.35
      vertex 38.4621 -26.5177 -6.35
    endloop
  endfacet
  facet normal 0.969065 -0.246807 0
    outer loop
      vertex 39.5111 -25.1327 6.35
      vertex 39.5736 -24.8873 -6.35
      vertex 39.5736 -24.8873 6.35
    endloop
  endfacet
  facet normal 0 0 1
    outer loop
      vertex 39.4245 -25.3706 6.35
      vertex 39.5111 -25.1327 6.35
      vertex 39.5736 -24.8873 6.35
    endloop
  endfacet
  facet normal 0 0 -1
    outer loop
      vertex 39.5736 -24.8873 -6.35
      vertex 39.5111 -25.1327 -6.35
      vertex 39.4245 -25.3706 -6.35
    endloop
  endfacet
  facet normal 0 0 -1
    outer loop
      vertex 39.624 -24.384 -6.35
      vertex 39.5736 -24.8873 -6.35
      vertex 39.4245 -25.3706 -6.35
    endloop
  endfacet
  facet normal 0 0 1
    outer loop
      vertex 38.6677 -26.3699 6.35
      vertex 38.8575 -26.2023 6.35
      vertex 39.0298 -26.0167 6.35
    endloop
  endfacet
  facet normal 0.661909 -0.749584 0
    outer loop
      vertex 38.8575 -26.2023 1.26998
      vertex 38.8575 -26.2023 6.35
      vertex 38.6677 -26.3699 6.35
    endloop
  endfacet
  facet normal 0.661909 -0.749584 0
    outer loop
      vertex 38.6677 -26.3699 -1.27
      vertex 38.8575 -26.2023 -6.35
      vertex 38.8575 -26.2023 1.26998
    endloop
  endfacet
  facet normal 0.583701 -0.811969 0
    outer loop
      vertex 38.4621 -26.5177 -6.35
      vertex 38.6677 -26.3699 -6.35
      vertex 38.6677 -26.3699 -1.27
    endloop
  endfacet
  facet normal 0.124424 -0.992229 0
    outer loop
      vertex 37.2738 -26.9169 1.26998
      vertex 37.525 -26.8854 1.26998
      vertex 37.2738 -26.9169 6.35
    endloop
  endfacet
  facet normal 0.0248836 -0.99969 0
    outer loop
      vertex 37.0207 -26.9232 -6.35
      vertex 37.2738 -26.9169 -6.35
      vertex 37.2738 -26.9169 1.26998
    endloop
  endfacet
  facet normal 0.499962 -0.866047 0
    outer loop
      vertex 38.2428 -26.6443 1.26998
      vertex 38.2428 -26.6443 -6.35
      vertex 38.4621 -26.5177 -6.35
    endloop
  endfacet
  facet normal 0.411153 -0.911566 0
    outer loop
      vertex 38.012 -26.7484 1.26998
      vertex 38.2428 -26.6443 -6.35
      vertex 38.2428 -26.6443 1.26998
    endloop
  endfacet
  facet normal 0 0 1
    outer loop
      vertex 37.7719 -26.8291 6.35
      vertex 38.012 -26.7484 6.35
      vertex 38.4621 -26.5177 6.35
    endloop
  endfacet
  facet normal 0.318596 -0.947891 0
    outer loop
      vertex 38.012 -26.7484 1.26998
      vertex 38.012 -26.7484 6.35
      vertex 37.7719 -26.8291 6.35
    endloop
  endfacet
  facet normal 0 0 1
    outer loop
      vertex 37.2738 -26.9169 6.35
      vertex 37.525 -26.8854 6.35
      vertex 37.7719 -26.8291 6.35
    endloop
  endfacet
  facet normal 0 0 1
    outer loop
      vertex 37.0207 -26.9232 6.35
      vertex 37.2738 -26.9169 6.35
      vertex 37.7719 -26.8291 6.35
    endloop
  endfacet
  facet normal 0.124424 -0.992229 0
    outer loop
      vertex 37.2738 -26.9169 -6.35
      vertex 37.525 -26.8854 1.26998
      vertex 37.2738 -26.9169 1.26998
    endloop
  endfacet
  facet normal 0.222321 -0.974974 0
    outer loop
      vertex 37.525 -26.8854 1.26998
      vertex 37.525 -26.8854 -6.35
      vertex 37.7719 -26.8291 -6.35
    endloop
  endfacet
  facet normal -0.0746427 -0.99721 -0
    outer loop
      vertex -37.1473 -26.9232 6.35
      vertex -37.3998 -26.9043 6.35
      vertex -37.1473 -26.9232 -6.35
    endloop
  endfacet
  facet normal -0.27086 -0.962619 0
    outer loop
      vertex -37.893 -26.7917 1.26998
      vertex -37.6492 -26.8603 -6.35
      vertex -37.6492 -26.8603 1.26998
    endloop
  endfacet
  facet normal 0 0 1
    outer loop
      vertex -37.893 -26.7917 6.35
      vertex -37.3998 -26.9043 6.35
      vertex -37.1473 -26.9232 6.35
    endloop
  endfacet
  facet normal -0.17374 -0.984792 0
    outer loop
      vertex -37.3998 -26.9043 6.35
      vertex -37.6492 -26.8603 6.35
      vertex -37.6492 -26.8603 1.26998
    endloop
  endfacet
  facet normal -0.365322 -0.930881 -0
    outer loop
      vertex -38.1287 -26.6992 1.26998
      vertex -38.1287 -26.6992 -6.35
      vertex -37.893 -26.7917 1.26998
    endloop
  endfacet
  facet normal -0.542613 -0.839983 0
    outer loop
      vertex -38.354 -26.5837 1.26998
      vertex -38.354 -26.5837 6.35
      vertex -38.5667 -26.4463 -6.35
    endloop
  endfacet
  facet normal -0.766047 -0.642784 -0
    outer loop
      vertex -38.946 -26.1116 6.35
      vertex -39.1087 -25.9177 -6.35
      vertex -38.946 -26.1116 -6.35
    endloop
  endfacet
  facet normal 0 0 -1
    outer loop
      vertex -38.946 -26.1116 -6.35
      vertex -39.1087 -25.9177 -6.35
      vertex -39.2514 -25.7084 -6.35
    endloop
  endfacet
  facet normal 0 0 1
    outer loop
      vertex -39.5956 -24.7626 6.35
      vertex -39.5455 -25.0108 6.35
      vertex -39.4708 -25.2527 6.35
    endloop
  endfacet
  facet normal 0 0 -1
    outer loop
      vertex -39.2514 -25.7084 -6.35
      vertex -39.3725 -25.4861 -6.35
      vertex -39.4708 -25.2527 -6.35
    endloop
  endfacet
  facet normal -0.921598 -0.388145 0
    outer loop
      vertex -39.3725 -25.4861 -6.35
      vertex -39.4708 -25.2527 6.35
      vertex -39.4708 -25.2527 -6.35
    endloop
  endfacet
  facet normal 0 0 1
    outer loop
      vertex -39.4708 -25.2527 6.35
      vertex -39.3725 -25.4861 6.35
      vertex -39.2514 -25.7084 6.35
    endloop
  endfacet
  facet normal -0.98023 -0.197863 -0
    outer loop
      vertex -39.5956 -24.7626 6.35
      vertex -39.5956 -24.7626 -6.35
      vertex -39.5455 -25.0108 -6.35
    endloop
  endfacet
  facet normal 0 0 -1
    outer loop
      vertex -39.4708 -25.2527 -6.35
      vertex -39.5455 -25.0108 -6.35
      vertex -39.6208 -24.5106 -6.35
    endloop
  endfacet
  facet normal 0 0 1
    outer loop
      vertex -39.5455 25.0107 6.35
      vertex -39.5956 24.7626 6.35
      vertex -39.6208 24.5106 6.35
    endloop
  endfacet
  facet normal -0.980214 0.197939 0
    outer loop
      vertex -39.5956 24.7626 -6.35
      vertex -39.5956 24.7626 6.35
      vertex -39.5455 25.0107 6.35
    endloop
  endfacet
  facet normal 0 0 -1
    outer loop
      vertex -39.1087 25.9177 -6.35
      vertex -38.946 26.1116 -6.35
      vertex -38.5667 26.4463 -6.35
    endloop
  endfacet
  facet normal -0.766047 0.642784 0
    outer loop
      vertex -38.946 26.1116 1.26998
      vertex -38.946 26.1116 -6.35
      vertex -39.1087 25.9177 -6.35
    endloop
  endfacet
  facet normal -0.921598 0.388145 0
    outer loop
      vertex -39.3725 25.4861 -6.35
      vertex -39.4708 25.2527 -6.35
      vertex -39.4708 25.2527 -1.27
    endloop
  endfacet
  facet normal 0 0 -1
    outer loop
      vertex -39.5455 25.0107 -6.35
      vertex -39.4708 25.2527 -6.35
      vertex -39.3725 25.4861 -6.35
    endloop
  endfacet
  facet normal 0 0 -1
    outer loop
      vertex 37.2738 26.9169 -6.35
      vertex 39.1826 25.8148 -6.35
      vertex 39.4245 25.3706 -6.35
    endloop
  endfacet
  facet normal 0 0 -1
    outer loop
      vertex 37.2738 26.9169 -6.35
      vertex 37.7719 26.829 -6.35
      vertex 38.2428 26.6443 -6.35
    endloop
  endfacet
  facet normal 0.853106 0.521738 -0
    outer loop
      vertex 39.1826 25.8148 -1.27
      vertex 39.1826 25.8148 6.35
      vertex 39.3147 25.5988 6.35
    endloop
  endfacet
  facet normal 0.797386 0.60347 0
    outer loop
      vertex 39.0298 26.0167 6.35
      vertex 39.1826 25.8148 6.35
      vertex 39.1826 25.8148 -1.27
    endloop
  endfacet
  facet normal 0.901116 0.433578 0
    outer loop
      vertex 39.4245 25.3706 -6.35
      vertex 39.3147 25.5988 -1.27
      vertex 39.3147 25.5988 6.35
    endloop
  endfacet
  facet normal 0.499962 0.866047 0
    outer loop
      vertex 38.4621 26.5177 1.26998
      vertex 38.4621 26.5177 -6.35
      vertex 38.2428 26.6443 -6.35
    endloop
  endfacet
  facet normal 0.939678 0.34206 0
    outer loop
      vertex 39.5111 25.1327 -1.27
      vertex 39.5111 25.1327 -6.35
      vertex 39.4245 25.3706 -6.35
    endloop
  endfacet
  facet normal 0.969065 0.246807 0
    outer loop
      vertex 39.5736 24.8873 -6.35
      vertex 39.5111 25.1327 -6.35
      vertex 39.5111 25.1327 -1.27
    endloop
  endfacet
  facet normal 0.797386 0.60347 0
    outer loop
      vertex 39.1826 25.8148 -6.35
      vertex 39.0298 26.0167 -1.27
      vertex 39.0298 26.0167 1.26998
    endloop
  endfacet
  facet normal 0.797386 0.60347 0
    outer loop
      vertex 39.1826 25.8148 -1.27
      vertex 39.1826 25.8148 -6.35
      vertex 39.0298 26.0167 1.26998
    endloop
  endfacet
  facet normal 0.853106 -0.521738 0
    outer loop
      vertex 39.1826 -25.8148 -6.35
      vertex 39.3147 -25.5988 -6.35
      vertex 39.3147 -25.5988 6.35
    endloop
  endfacet
  facet normal 0 0 -1
    outer loop
      vertex 39.4245 -25.3706 -6.35
      vertex 39.3147 -25.5988 -6.35
      vertex 39.1826 -25.8148 -6.35
    endloop
  endfacet
  facet normal 0 0 1
    outer loop
      vertex 39.0298 -26.0167 6.35
      vertex 39.1826 -25.8148 6.35
      vertex 39.3147 -25.5988 6.35
    endloop
  endfacet
  facet normal 0.797386 -0.60347 0
    outer loop
      vertex 39.1826 -25.8148 -6.35
      vertex 39.1826 -25.8148 6.35
      vertex 39.0298 -26.0167 6.35
    endloop
  endfacet
  facet normal 0.797386 -0.60347 0
    outer loop
      vertex 39.0298 -26.0167 6.35
      vertex 39.0298 -26.0167 1.26998
      vertex 39.1826 -25.8148 -6.35
    endloop
  endfacet
  facet normal 0.732878 -0.68036 0
    outer loop
      vertex 38.8575 -26.2023 1.26998
      vertex 39.0298 -26.0167 1.26998
      vertex 39.0298 -26.0167 6.35
    endloop
  endfacet
  facet normal 0.988797 -0.149267 0
    outer loop
      vertex 39.5736 -24.8873 -6.35
      vertex 39.6114 -24.6369 -6.35
      vertex 39.6114 -24.6369 -1.27
    endloop
  endfacet
  facet normal 0 0 -1
    outer loop
      vertex 39.624 -24.384 -6.35
      vertex 39.6114 -24.6369 -6.35
      vertex 39.5736 -24.8873 -6.35
    endloop
  endfacet
  facet normal 0.969065 -0.246807 0
    outer loop
      vertex 39.5111 -25.1327 6.35
      vertex 39.5111 -25.1327 -6.35
      vertex 39.5736 -24.8873 -6.35
    endloop
  endfacet
  facet normal 0.939678 -0.34206 0
    outer loop
      vertex 39.4245 -25.3706 -6.35
      vertex 39.5111 -25.1327 -6.35
      vertex 39.5111 -25.1327 6.35
    endloop
  endfacet
  facet normal 0.797386 -0.60347 0
    outer loop
      vertex 39.0298 -26.0167 1.26998
      vertex 39.0298 -26.0167 -6.35
      vertex 39.1826 -25.8148 -6.35
    endloop
  endfacet
  facet normal 0.732878 -0.68036 0
    outer loop
      vertex 38.8575 -26.2023 1.26998
      vertex 38.8575 -26.2023 -6.35
      vertex 39.0298 -26.0167 1.26998
    endloop
  endfacet
  facet normal 0 0 -1
    outer loop
      vertex 38.2428 -26.6443 -6.35
      vertex 38.012 -26.7484 -6.35
      vertex 37.7719 -26.8291 -6.35
    endloop
  endfacet
  facet normal 0.411153 -0.911566 0
    outer loop
      vertex 38.012 -26.7484 1.26998
      vertex 38.012 -26.7484 -6.35
      vertex 38.2428 -26.6443 -6.35
    endloop
  endfacet
  facet normal 0 0 1
    outer loop
      vertex 38.012 -26.7484 6.35
      vertex 38.2428 -26.6443 6.35
      vertex 38.4621 -26.5177 6.35
    endloop
  endfacet
  facet normal 0.411153 -0.911566 0
    outer loop
      vertex 38.2428 -26.6443 1.26998
      vertex 38.2428 -26.6443 6.35
      vertex 38.012 -26.7484 6.35
    endloop
  endfacet
  facet normal 0.124424 -0.992229 0
    outer loop
      vertex 37.525 -26.8854 1.26998
      vertex 37.525 -26.8854 6.35
      vertex 37.2738 -26.9169 6.35
    endloop
  endfacet
  facet normal 0.222321 -0.974974 0
    outer loop
      vertex 37.7719 -26.8291 6.35
      vertex 37.525 -26.8854 6.35
      vertex 37.525 -26.8854 1.26998
    endloop
  endfacet
  facet normal 0.124424 -0.992229 0
    outer loop
      vertex 37.2738 -26.9169 -6.35
      vertex 37.525 -26.8854 -6.35
      vertex 37.525 -26.8854 1.26998
    endloop
  endfacet
  facet normal 0 0 -1
    outer loop
      vertex 37.7719 -26.8291 -6.35
      vertex 37.525 -26.8854 -6.35
      vertex 37.2738 -26.9169 -6.35
    endloop
  endfacet
  facet normal -0.0746427 -0.99721 -0
    outer loop
      vertex -37.3998 -26.9043 6.35
      vertex -37.3998 -26.9043 -6.35
      vertex -37.1473 -26.9232 -6.35
    endloop
  endfacet
  facet normal -0.17374 -0.984792 0
    outer loop
      vertex -37.6492 -26.8603 -6.35
      vertex -37.3998 -26.9043 -6.35
      vertex -37.3998 -26.9043 6.35
    endloop
  endfacet
  facet normal 0 0 1
    outer loop
      vertex -37.893 -26.7917 6.35
      vertex -37.6492 -26.8603 6.35
      vertex -37.3998 -26.9043 6.35
    endloop
  endfacet
  facet normal -0.27086 -0.962619 0
    outer loop
      vertex -37.6492 -26.8603 1.26998
      vertex -37.6492 -26.8603 6.35
      vertex -37.893 -26.7917 6.35
    endloop
  endfacet
  facet normal -0.456196 -0.889879 0
    outer loop
      vertex -38.354 -26.5837 1.26998
      vertex -38.1287 -26.6992 -6.35
      vertex -38.1287 -26.6992 1.26998
    endloop
  endfacet
  facet normal -0.456196 -0.889879 -0
    outer loop
      vertex -38.354 -26.5837 1.26998
      vertex -38.354 -26.5837 -6.35
      vertex -38.1287 -26.6992 -6.35
    endloop
  endfacet
  facet normal -0.456196 -0.889879 0
    outer loop
      vertex -38.1287 -26.6992 1.26998
      vertex -38.354 -26.5837 6.35
      vertex -38.354 -26.5837 1.26998
    endloop
  endfacet
  facet normal 0 0 1
    outer loop
      vertex -38.354 -26.5837 6.35
      vertex -38.1287 -26.6992 6.35
      vertex -37.893 -26.7917 6.35
    endloop
  endfacet
  facet normal -0.698368 -0.715739 0
    outer loop
      vertex -38.946 -26.1116 -6.35
      vertex -38.7647 -26.2885 -6.35
      vertex -38.7647 -26.2885 6.35
    endloop
  endfacet
  facet normal 0 0 -1
    outer loop
      vertex -38.5667 -26.4463 -6.35
      vertex -38.7647 -26.2885 -6.35
      vertex -38.946 -26.1116 -6.35
    endloop
  endfacet
  facet normal -0.698368 -0.715739 0
    outer loop
      vertex -38.7647 -26.2885 6.35
      vertex -38.946 -26.1116 6.35
      vertex -38.946 -26.1116 -6.35
    endloop
  endfacet
  facet normal 0 0 1
    outer loop
      vertex -39.2514 -25.7084 6.35
      vertex -38.946 -26.1116 6.35
      vertex -38.7647 -26.2885 6.35
    endloop
  endfacet
  facet normal -0.826236 -0.563325 0
    outer loop
      vertex -39.1087 -25.9177 -6.35
      vertex -39.1087 -25.9177 6.35
      vertex -39.2514 -25.7084 6.35
    endloop
  endfacet
  facet normal -0.826236 -0.563325 0
    outer loop
      vertex -39.2514 -25.7084 -6.35
      vertex -39.1087 -25.9177 -6.35
      vertex -39.2514 -25.7084 6.35
    endloop
  endfacet
  facet normal -0.921598 -0.388145 0
    outer loop
      vertex -39.3725 -25.4861 -6.35
      vertex -39.3725 -25.4861 6.35
      vertex -39.4708 -25.2527 6.35
    endloop
  endfacet
  facet normal -0.878152 -0.478382 0
    outer loop
      vertex -39.2514 -25.7084 6.35
      vertex -39.3725 -25.4861 6.35
      vertex -39.3725 -25.4861 -6.35
    endloop
  endfacet
  facet normal -0.98023 -0.197863 0
    outer loop
      vertex -39.5455 -25.0108 -6.35
      vertex -39.5455 -25.0108 6.35
      vertex -39.5956 -24.7626 6.35
    endloop
  endfacet
  facet normal -0.95548 -0.295057 0
    outer loop
      vertex -39.4708 -25.2527 6.35
      vertex -39.5455 -25.0108 6.35
      vertex -39.5455 -25.0108 -6.35
    endloop
  endfacet
  facet normal -0.995037 -0.0995037 0
    outer loop
      vertex -39.6208 -24.5106 -6.35
      vertex -39.5956 -24.7626 -6.35
      vertex -39.5956 -24.7626 6.35
    endloop
  endfacet
  facet normal 0 0 -1
    outer loop
      vertex -39.5455 -25.0108 -6.35
      vertex -39.5956 -24.7626 -6.35
      vertex -39.6208 -24.5106 -6.35
    endloop
  endfacet
  facet normal -0.826236 0.563325 0
    outer loop
      vertex -39.1087 25.9177 -6.35
      vertex -39.2514 25.7084 -6.35
      vertex -39.2514 25.7084 1.26998
    endloop
  endfacet
  facet normal 0 0 -1
    outer loop
      vertex -39.3725 25.4861 -6.35
      vertex -39.2514 25.7084 -6.35
      vertex -39.1087 25.9177 -6.35
    endloop
  endfacet
  facet normal -0.698166 0.715936 0
    outer loop
      vertex -38.7647 26.2884 -1.27
      vertex -38.946 26.1116 -6.35
      vertex -38.946 26.1116 1.26998
    endloop
  endfacet
  facet normal -0.698166 0.715936 0
    outer loop
      vertex -38.7647 26.2884 -1.27
      vertex -38.7647 26.2884 -6.35
      vertex -38.946 26.1116 -6.35
    endloop
  endfacet
  facet normal 0.853106 0.521738 0
    outer loop
      vertex 39.3147 25.5988 -1.27
      vertex 39.3147 25.5988 -6.35
      vertex 39.1826 25.8148 -6.35
    endloop
  endfacet
  facet normal 0.901116 0.433578 0
    outer loop
      vertex 39.4245 25.3706 -6.35
      vertex 39.3147 25.5988 -6.35
      vertex 39.3147 25.5988 -1.27
    endloop
  endfacet
  facet normal 0 0 -1
    outer loop
      vertex 37.2738 26.9169 -6.35
      vertex 37.525 26.8854 -6.35
      vertex 37.7719 26.829 -6.35
    endloop
  endfacet
  facet normal 0.411153 0.911566 0
    outer loop
      vertex 38.2428 26.6443 1.26998
      vertex 38.2428 26.6443 -6.35
      vertex 38.012 26.7484 -1.27
    endloop
  endfacet
  facet normal 0.797386 0.60347 0
    outer loop
      vertex 39.1826 25.8148 -6.35
      vertex 39.0298 26.0167 -6.35
      vertex 39.0298 26.0167 -1.27
    endloop
  endfacet
  facet normal 0.732878 0.68036 0
    outer loop
      vertex 39.0298 26.0167 1.26998
      vertex 39.0298 26.0167 -1.27
      vertex 38.8575 26.2023 1.26998
    endloop
  endfacet
  facet normal 0 0 -1
    outer loop
      vertex 38.8575 -26.2023 -6.35
      vertex 38.6677 -26.3699 -6.35
      vertex 38.4621 -26.5177 -6.35
    endloop
  endfacet
  facet normal 0.661909 -0.749584 0
    outer loop
      vertex 38.6677 -26.3699 -1.27
      vertex 38.6677 -26.3699 -6.35
      vertex 38.8575 -26.2023 -6.35
    endloop
  endfacet
  facet normal 0.732878 -0.68036 0
    outer loop
      vertex 38.8575 -26.2023 -6.35
      vertex 39.0298 -26.0167 -6.35
      vertex 39.0298 -26.0167 1.26998
    endloop
  endfacet
  facet normal 0 0 -1
    outer loop
      vertex 39.1826 -25.8148 -6.35
      vertex 39.0298 -26.0167 -6.35
      vertex 38.8575 -26.2023 -6.35
    endloop
  endfacet
  facet normal 0 0 -1
    outer loop
      vertex -37.6492 -26.8603 -6.35
      vertex -38.1287 -26.6992 -6.35
      vertex -38.5667 -26.4463 -6.35
    endloop
  endfacet
  facet normal 0 0 -1
    outer loop
      vertex -37.6492 -26.8603 -6.35
      vertex -37.893 -26.7917 -6.35
      vertex -38.1287 -26.6992 -6.35
    endloop
  endfacet
  facet normal 0 0 1
    outer loop
      vertex -38.7647 -26.2885 6.35
      vertex -38.5667 -26.4463 6.35
      vertex -38.354 -26.5837 6.35
    endloop
  endfacet
  facet normal -0.623249 -0.782023 0
    outer loop
      vertex -38.5667 -26.4463 -6.35
      vertex -38.5667 -26.4463 6.35
      vertex -38.7647 -26.2885 6.35
    endloop
  endfacet
  facet normal -0.456196 -0.889879 0
    outer loop
      vertex -38.1287 -26.6992 1.26998
      vertex -38.1287 -26.6992 6.35
      vertex -38.354 -26.5837 6.35
    endloop
  endfacet
  facet normal -0.365322 -0.930881 0
    outer loop
      vertex -37.893 -26.7917 6.35
      vertex -38.1287 -26.6992 6.35
      vertex -38.1287 -26.6992 1.26998
    endloop
  endfacet
  facet normal -0.766047 -0.642784 0
    outer loop
      vertex -38.946 -26.1116 6.35
      vertex -39.1087 -25.9177 6.35
      vertex -39.1087 -25.9177 -6.35
    endloop
  endfacet
  facet normal 0 0 1
    outer loop
      vertex -39.2514 -25.7084 6.35
      vertex -39.1087 -25.9177 6.35
      vertex -38.946 -26.1116 6.35
    endloop
  endfacet
  facet normal -0.62349 0.781831 0
    outer loop
      vertex -38.5667 26.4463 -6.35
      vertex -38.7647 26.2884 -6.35
      vertex -38.7647 26.2884 -1.27
    endloop
  endfacet
  facet normal 0 0 -1
    outer loop
      vertex -38.946 26.1116 -6.35
      vertex -38.7647 26.2884 -6.35
      vertex -38.5667 26.4463 -6.35
    endloop
  endfacet
  facet normal 0 0 -1
    outer loop
      vertex 38.6677 26.3698 -6.35
      vertex 38.8575 26.2023 -6.35
      vertex 39.1826 25.8148 -6.35
    endloop
  endfacet
  facet normal 0 0 -1
    outer loop
      vertex 38.2428 26.6443 -6.35
      vertex 38.6677 26.3698 -6.35
      vertex 39.1826 25.8148 -6.35
    endloop
  endfacet
  facet normal 0.318241 0.94801 0
    outer loop
      vertex 38.012 26.7484 -1.27
      vertex 37.7719 26.829 -6.35
      vertex 37.7719 26.829 -1.27
    endloop
  endfacet
  facet normal 0 0 -1
    outer loop
      vertex 37.7719 26.829 -6.35
      vertex 38.012 26.7484 -6.35
      vertex 38.2428 26.6443 -6.35
    endloop
  endfacet
  facet normal -0.542613 -0.839983 0
    outer loop
      vertex -38.5667 -26.4463 -6.35
      vertex -38.354 -26.5837 -6.35
      vertex -38.354 -26.5837 1.26998
    endloop
  endfacet
  facet normal 0 0 -1
    outer loop
      vertex -38.1287 -26.6992 -6.35
      vertex -38.354 -26.5837 -6.35
      vertex -38.5667 -26.4463 -6.35
    endloop
  endfacet
  facet normal -0.27086 -0.962619 -0
    outer loop
      vertex -37.893 -26.7917 1.26998
      vertex -37.893 -26.7917 -6.35
      vertex -37.6492 -26.8603 -6.35
    endloop
  endfacet
  facet normal -0.365322 -0.930881 0
    outer loop
      vertex -38.1287 -26.6992 -6.35
      vertex -37.893 -26.7917 -6.35
      vertex -37.893 -26.7917 1.26998
    endloop
  endfacet
  facet normal 0.583961 0.811781 0
    outer loop
      vertex 38.6677 26.3698 -6.35
      vertex 38.4621 26.5177 -6.35
      vertex 38.4621 26.5177 1.26998
    endloop
  endfacet
  facet normal 0 0 -1
    outer loop
      vertex 38.2428 26.6443 -6.35
      vertex 38.4621 26.5177 -6.35
      vertex 38.6677 26.3698 -6.35
    endloop
  endfacet
  facet normal 0.661687 0.74978 0
    outer loop
      vertex 38.8575 26.2023 1.26998
      vertex 38.8575 26.2023 -6.35
      vertex 38.6677 26.3698 -6.35
    endloop
  endfacet
  facet normal 0.732878 0.68036 0
    outer loop
      vertex 39.0298 26.0167 -1.27
      vertex 38.8575 26.2023 -6.35
      vertex 38.8575 26.2023 1.26998
    endloop
  endfacet
  facet normal 0.124424 0.992229 0
    outer loop
      vertex 37.525 26.8854 -1.27
      vertex 37.525 26.8854 -6.35
      vertex 37.2738 26.9169 -6.35
    endloop
  endfacet
  facet normal 0.222696 0.974888 0
    outer loop
      vertex 37.7719 26.829 -6.35
      vertex 37.525 26.8854 -6.35
      vertex 37.525 26.8854 -1.27
    endloop
  endfacet
  facet normal 0.318241 0.94801 0
    outer loop
      vertex 38.012 26.7484 -1.27
      vertex 38.012 26.7484 -6.35
      vertex 37.7719 26.829 -6.35
    endloop
  endfacet
  facet normal 0.411153 0.911566 0
    outer loop
      vertex 38.2428 26.6443 -6.35
      vertex 38.012 26.7484 -6.35
      vertex 38.012 26.7484 -1.27
    endloop
  endfacet
  facet normal 0 0 -1
    outer loop
      vertex 38.8575 26.2023 -6.35
      vertex 39.0298 26.0167 -6.35
      vertex 39.1826 25.8148 -6.35
    endloop
  endfacet
  facet normal 0.732878 0.68036 0
    outer loop
      vertex 39.0298 26.0167 -1.27
      vertex 39.0298 26.0167 -6.35
      vertex 38.8575 26.2023 -6.35
    endloop
  endfacet
endsolid OpenSCAD_Model
